M48
METRIC,LZ,000.000
;FILE_FORMAT=3:3
;TYPE=PLATED
;Layer: PTH_Through_Via
;EasyEDA v6.5.22, 2022-11-07 14:43:17
;63209c1ceee94e1f90b91c566973135d,1dfdfe31e71b4ff6856625fdd89ee459,10
;Gerber Generator version 0.2
;Holesize 1 = 0.305 mm
T01C0.305
%
G05
G90
T01
X042418Y019939
X015456Y012318
X026886Y014985
X029934Y014985
X029934Y012318
X026886Y012318
X015456Y009270
X015456Y014985
X026886Y009270
X029934Y009270
X035629Y041274
X045720Y002413
X027178Y017780
X006350Y015875
X022352Y038735
X050292Y035560
X049784Y022733
X054229Y039624
X046101Y047879
X031369Y047752
X015621Y050165
X006350Y004826
X042291Y038227
X054991Y019304
X057531Y022225
X056896Y034290
M30
