M48
METRIC,LZ,000.000
;FILE_FORMAT=3:3
;TYPE=PLATED
;Layer: PTH_Through
;EasyEDA v6.5.22, 2022-11-07 14:43:17
;63209c1ceee94e1f90b91c566973135d,1dfdfe31e71b4ff6856625fdd89ee459,10
;Gerber Generator version 0.2
;Holesize 1 = 0.800 mm
T01C0.800
;Holesize 2 = 0.889 mm
T02C0.889
;Holesize 3 = 0.901 mm
T03C0.901
;Holesize 4 = 0.915 mm
T04C0.915
;Holesize 5 = 1.000 mm
T05C1.000
;Holesize 6 = 1.101 mm
T06C1.101
;Holesize 7 = 1.200 mm
T07C1.200
;Holesize 8 = 1.301 mm
T08C1.301
;Holesize 9 = 1.400 mm
T09C1.400
%
G05
G90
T01
X020844Y004318
X022844Y004318
X048871Y041402
X045871Y041402
T02
X010630Y043306
X010630Y045846
X010630Y048386
X010630Y050926
X065405Y021971
X065405Y019431
X065405Y016891
X065405Y014351
X059886Y026669
X059886Y029209
X059886Y031749
X059886Y034289
T03
X017907Y005207
X015367Y005207
X020790Y050291
X018250Y050291
T04
X039967Y025229
X039967Y035729
X042507Y035856
X042507Y025356
X008939Y025113
X008939Y023113
X008939Y021113
X006439Y025113
X006439Y023113
X006439Y021113
T05
X026416Y005715
X028956Y005715
X031496Y005715
X034036Y005715
X036576Y005715
X039116Y005715
X041656Y005715
X044196Y005715
X044196Y053975
X046736Y053975
X049276Y053975
X051816Y053975
X054356Y053975
X056896Y053975
X059436Y053975
X061976Y053975
X019266Y041264
X019266Y033664
X006947Y037083
X006947Y042163
X006947Y044703
X037566Y050037
X028866Y050037
X028739Y045211
X037439Y045211
X040042Y050164
X048742Y050164
X048673Y045212
X039973Y045212
X044297Y016255
X035597Y016255
X035655Y012827
X044355Y012827
X047085Y016256
X055785Y016256
X055912Y012954
X047212Y012954
X013170Y027336
X013170Y018636
X016218Y027336
X016218Y018636
X018839Y001778
X008339Y001778
X015647Y047116
X026147Y047116
X026147Y044576
X015647Y044576
X007289Y028113G85X008089Y028113
X007289Y018113G85X008089Y018113
X054356Y022098
X054356Y024638
X054356Y027178
X054356Y029718
X054356Y032258
X054356Y034798
X054356Y037338
X046736Y022098
X046736Y024638
X046736Y027178
X046736Y029718
X046736Y032258
X046736Y034798
X046736Y037338
X022187Y024030
X022187Y027530
X006820Y047465
X006820Y056165
T06
X040132Y053975
X037592Y053975
X035052Y053975
X032512Y053975
X029972Y053975
X027432Y053975
X024892Y053975
X022352Y053975
X019812Y053975
X017272Y053975
X065367Y035686
X065367Y033146
X065367Y030606
X065367Y028066
X065367Y025526
T07
X049276Y005715
X051816Y005715
X054356Y005715
X056896Y005715
X059436Y005715
X061976Y005715
X063970Y044322
X063970Y046862
X063970Y049402
X061049Y044322
X061049Y046862
X061049Y049402
X058128Y044322
X058128Y046862
X058128Y049402
X013029Y030562
X006529Y030562
X006529Y034462
X013029Y034462
T08
X028664Y022732
X033744Y024002
X028664Y025272
X033744Y026542
X028664Y027812
X033744Y029082
X028664Y030352
X033744Y031622
X028664Y032892
X033744Y034162
X028664Y035432
X033744Y036702
X028664Y037972
X033744Y039242
X028664Y040512
T09
X007493Y011049
X010033Y011049
X052266Y047878
X052266Y045338
X058928Y018288
X058928Y015748
M30
