M48
METRIC,LZ,000.000
;FILE_FORMAT=3:3
;TYPE=PLATED
;Layer: PTH_Through_Via
;EasyEDA v6.5.23, 2022-11-18 20:40:13
;0c95b19414bf4a53847780bc83a88734,1dfdfe31e71b4ff6856625fdd89ee459,10
;Gerber Generator version 0.2
;Holesize 1 = 0.305 mm
T01C0.305
%
G05
G90
T01
X035052Y057150
X015621Y055499
X025400Y030099
X028956Y021844
X006604Y007112
X055626Y037973
X048895Y055245
X064389Y001143
X052705Y060071
X073660Y069215
X067564Y073406
X045466Y062357
X023876Y072390
X038227Y047371
X025527Y011684
X055880Y006350
X014859Y050546
X073787Y048006
X014605Y032004
X020320Y025400
X050165Y007239
X027432Y043307
X036830Y048641
X036449Y047371
X040259Y041402
X033782Y044196
X035306Y049911
X036957Y034925
X036449Y033401
X035560Y036195
X039878Y026924
X020955Y042164
X033655Y029464
X037973Y032512
X028956Y030480
X020701Y055499
X039751Y029083
X040259Y043688
X030480Y041783
X016256Y039370
X048387Y072898
X055118Y073406
M30
