M48
METRIC,LZ,000.000
;FILE_FORMAT=3:3
;TYPE=PLATED
;Layer: PTH_Through
;EasyEDA v6.5.23, 2022-11-18 20:40:13
;0c95b19414bf4a53847780bc83a88734,1dfdfe31e71b4ff6856625fdd89ee459,10
;Gerber Generator version 0.2
;Holesize 1 = 0.889 mm
T01C0.889
;Holesize 2 = 0.915 mm
T02C0.915
;Holesize 3 = 1.000 mm
T03C1.000
;Holesize 4 = 1.101 mm
T04C1.101
;Holesize 5 = 1.200 mm
T05C1.200
%
G05
G90
T01
X069215Y032893
X069215Y030353
X014423Y009454
X014423Y006914
X017344Y009454
X017344Y006914
X020265Y009454
X020265Y006914
X023186Y009454
X023186Y006914
X036085Y009383
X036085Y006843
X033164Y009383
X033164Y006843
X030243Y009383
X030243Y006843
X027322Y009383
X027322Y006843
X050618Y015931
X050618Y018471
X050618Y021011
X050618Y023551
X050618Y026091
X050618Y028631
X050618Y031171
X050618Y033711
X050618Y036251
X050618Y038791
X050618Y041331
X050618Y043871
X050618Y046411
X050618Y048951
X050618Y051491
X055626Y033655
X055626Y031115
X055626Y028575
X055626Y026035
X055626Y023495
X055626Y020955
X055626Y018415
X055626Y015875
X055626Y013335
X069215Y014224
X069215Y011684
X069215Y009144
X069215Y006604
X069215Y024765
X069215Y022225
X069215Y019685
X069215Y017145
X069215Y035941
X069215Y038481
X069215Y041021
X069215Y043561
T02
X069215Y027813
X014423Y004374
X017344Y004374
X020265Y004374
X023186Y004374
X036085Y004303
X033164Y004303
X030243Y004303
X027322Y004303
X050618Y013391
X008694Y065577
X008694Y063577
X008694Y061577
X006194Y065577
X006194Y063577
X006194Y061577
T03
X016764Y065786
X016764Y070866
X007044Y068577G85X007844Y068577
X007043Y058577G85X007844Y058577
T04
X009906Y048661
X009906Y051161
X007620Y038628
X007620Y041128
X007620Y030754
X007620Y033254
X007620Y021356
X007620Y023856
X007620Y013228
X007620Y015728
T05
X066871Y056926
X073370Y056926
X073370Y053026
X066871Y053026
X043887Y006660
X043887Y009200
X043887Y011740
X043887Y014280
X043887Y016820
X043887Y019360
X043887Y021900
X043887Y024440
X043887Y026980
X043887Y029520
X043887Y032060
X043887Y034600
X043887Y037140
X043887Y039680
X043887Y042220
X043887Y044760
X043887Y047300
X043887Y049840
X043887Y052380
X043887Y054920
X061667Y054920
X061667Y052380
X061667Y049840
X061667Y047300
X061667Y044760
X061667Y042220
X061667Y039680
X061667Y037140
X061667Y034600
X061667Y032060
X061667Y029520
X061667Y026980
X061667Y024440
X061667Y021900
X061667Y019360
X061667Y016820
X061667Y014280
X061667Y011740
X061667Y009200
X061667Y006660
M30
