G04 Layer: BoardOutlineLayer*
G04 EasyEDA v6.5.22, 2022-11-07 14:43:17*
G04 63209c1ceee94e1f90b91c566973135d,1dfdfe31e71b4ff6856625fdd89ee459,10*
G04 Gerber Generator version 0.2*
G04 Scale: 100 percent, Rotated: No, Reflected: No *
G04 Dimensions in millimeters *
G04 leading zeros omitted , absolute positions ,4 integer and 5 decimal *
%FSLAX45Y45*%
%MOMM*%

%ADD10C,0.2540*%
D10*
X6845302Y330200D02*
G01*
X6845302Y12700D01*
X6832602Y12700D01*
X431800Y12700D02*
G01*
X433326Y12700D01*
X6833356Y12700D01*
X434850Y324612D02*
G01*
X434850Y88900D01*
X434850Y12700D01*
X431043Y12700D01*
X850900Y6045200D02*
G01*
X444500Y6045200D01*
X444500Y5646557D01*
X447601Y4856223D02*
G01*
X447601Y4233161D01*
X447601Y324612D01*
X444500Y4851400D02*
G01*
X444500Y5646557D01*
X6851650Y5499354D02*
G01*
X6851650Y5746750D01*
X6553200Y6045200D01*
X6314947Y6045200D01*
X850900Y6045200D02*
G01*
X6314859Y6045200D01*
X6851594Y5499392D02*
G01*
X6851594Y4356100D01*
X6849336Y324718D02*
G01*
X6849336Y569950D01*
X7105594Y814580D02*
G01*
X6851594Y569950D01*
X7105594Y814580D02*
G01*
X7105594Y4124957D01*
X7105594Y4124957D02*
G01*
X6851594Y4356100D01*
G75*
G01
X1542214Y5397500D02*
G03X1542214Y5397500I-170002J0D01*
G75*
G01
X6622214Y3894506D02*
G03X6622214Y3894506I-170002J0D01*
G75*
G01
X6622214Y1087501D02*
G03X6622214Y1087501I-170002J0D01*
G75*
G01
X1407594Y590194D02*
G03X1407594Y590194I-170002J0D01*

%LPD*%
M02*
