G04 Layer: TopSilkscreenLayer*
G04 EasyEDA v6.5.23, 2022-11-18 20:40:13*
G04 0c95b19414bf4a53847780bc83a88734,1dfdfe31e71b4ff6856625fdd89ee459,10*
G04 Gerber Generator version 0.2*
G04 Scale: 100 percent, Rotated: No, Reflected: No *
G04 Dimensions in millimeters *
G04 leading zeros omitted , absolute positions ,4 integer and 5 decimal *
%FSLAX45Y45*%
%MOMM*%

%ADD10C,0.1524*%
%ADD11C,0.2540*%
%ADD12C,0.2032*%
%ADD13C,0.1520*%
%ADD14C,0.2030*%
%ADD15C,0.6000*%
%ADD16C,0.3000*%
%ADD17C,0.0173*%

%LPD*%
G36*
X1626768Y3679342D02*
G01*
X1618284Y3679088D01*
X1610563Y3678580D01*
X1603603Y3677767D01*
X1597253Y3676650D01*
X1591513Y3675176D01*
X1586280Y3673348D01*
X1581556Y3671163D01*
X1577187Y3668572D01*
X1573225Y3665524D01*
X1569567Y3661968D01*
X1566113Y3658006D01*
X1562862Y3653536D01*
X1559712Y3648506D01*
X1554429Y3638550D01*
X1550974Y3630523D01*
X1549704Y3626510D01*
X1548739Y3622243D01*
X1547977Y3617620D01*
X1547469Y3612438D01*
X1547012Y3599637D01*
X1547215Y3582466D01*
X1547825Y3561740D01*
X1548841Y3544366D01*
X1549552Y3536950D01*
X1550466Y3530295D01*
X1551635Y3524300D01*
X1552956Y3518966D01*
X1554581Y3514140D01*
X1556512Y3509772D01*
X1558747Y3505809D01*
X1561287Y3502202D01*
X1564233Y3498850D01*
X1567586Y3495700D01*
X1571294Y3492652D01*
X1580184Y3486708D01*
X1583385Y3484879D01*
X1586687Y3483356D01*
X1590243Y3482035D01*
X1594256Y3480917D01*
X1598980Y3480003D01*
X1604467Y3479292D01*
X1618742Y3478326D01*
X1638604Y3477869D01*
X1680006Y3477768D01*
X1702816Y3477971D01*
X1718360Y3478529D01*
X1727860Y3479546D01*
X1730705Y3480257D01*
X1732534Y3481171D01*
X1733499Y3482238D01*
X1733702Y3483508D01*
X1732229Y3488131D01*
X1730756Y3494125D01*
X1730502Y3496259D01*
X1729181Y3498850D01*
X1725574Y3502863D01*
X1720189Y3507841D01*
X1713636Y3513124D01*
X1706575Y3518154D01*
X1703222Y3520135D01*
X1699768Y3521760D01*
X1696110Y3523183D01*
X1691995Y3524300D01*
X1687372Y3525265D01*
X1675790Y3526688D01*
X1660143Y3527806D01*
X1604060Y3530600D01*
X1601470Y3625240D01*
X1682242Y3622548D01*
X1684528Y3588105D01*
X1685340Y3578910D01*
X1686458Y3570427D01*
X1687880Y3562553D01*
X1689607Y3555288D01*
X1691690Y3548684D01*
X1694078Y3542690D01*
X1696770Y3537305D01*
X1699818Y3532581D01*
X1703222Y3528415D01*
X1706930Y3524859D01*
X1710994Y3521862D01*
X1715414Y3519525D01*
X1724406Y3515969D01*
X1728165Y3514902D01*
X1730756Y3514496D01*
X1731670Y3515614D01*
X1732483Y3518712D01*
X1733245Y3523742D01*
X1734413Y3538677D01*
X1735023Y3559048D01*
X1735074Y3581400D01*
X1734718Y3599129D01*
X1734007Y3613099D01*
X1732788Y3624021D01*
X1731010Y3632657D01*
X1728571Y3639718D01*
X1724355Y3647998D01*
X1721561Y3652621D01*
X1718716Y3656736D01*
X1715719Y3660394D01*
X1712468Y3663645D01*
X1709013Y3666540D01*
X1705152Y3669029D01*
X1700987Y3671163D01*
X1696313Y3672992D01*
X1691132Y3674516D01*
X1685442Y3675786D01*
X1672031Y3677665D01*
X1655724Y3678783D01*
X1636064Y3679342D01*
G37*
G36*
X1830273Y3677716D02*
G01*
X1814118Y3677412D01*
X1802130Y3676650D01*
X1793239Y3675278D01*
X1789633Y3674364D01*
X1786432Y3673195D01*
X1780743Y3670147D01*
X1773732Y3664915D01*
X1769872Y3661562D01*
X1766417Y3658057D01*
X1763369Y3654399D01*
X1760677Y3650437D01*
X1758289Y3646170D01*
X1756257Y3641496D01*
X1754479Y3636314D01*
X1753057Y3630676D01*
X1751838Y3624376D01*
X1750872Y3617468D01*
X1750110Y3609797D01*
X1749196Y3592017D01*
X1748942Y3570528D01*
X1749094Y3537864D01*
X1749653Y3525367D01*
X1750212Y3521405D01*
X1750974Y3518611D01*
X1751990Y3516934D01*
X1753260Y3516122D01*
X1754886Y3516020D01*
X1759254Y3517087D01*
X1763775Y3518662D01*
X1767992Y3520643D01*
X1771904Y3522929D01*
X1775510Y3525621D01*
X1778863Y3528720D01*
X1781911Y3532225D01*
X1784705Y3536137D01*
X1787296Y3540506D01*
X1789582Y3545281D01*
X1791614Y3550564D01*
X1793443Y3556304D01*
X1795018Y3562553D01*
X1796389Y3569258D01*
X1798472Y3584346D01*
X1801774Y3627170D01*
X1879955Y3627170D01*
X1879955Y3530600D01*
X1827885Y3527602D01*
X1812747Y3526129D01*
X1799691Y3524097D01*
X1793900Y3522827D01*
X1783588Y3519830D01*
X1779066Y3518052D01*
X1774901Y3516071D01*
X1771040Y3513937D01*
X1767535Y3511550D01*
X1764284Y3508959D01*
X1761337Y3506114D01*
X1758594Y3503066D01*
X1753565Y3496056D01*
X1751533Y3492804D01*
X1750060Y3489960D01*
X1749196Y3487470D01*
X1749094Y3485387D01*
X1749755Y3483559D01*
X1751228Y3482086D01*
X1753717Y3480917D01*
X1757172Y3479952D01*
X1761743Y3479190D01*
X1774393Y3478225D01*
X1792274Y3477818D01*
X1834591Y3477818D01*
X1850999Y3478225D01*
X1865477Y3479037D01*
X1878025Y3480308D01*
X1888896Y3482187D01*
X1898192Y3484778D01*
X1902256Y3486404D01*
X1906016Y3488232D01*
X1909368Y3490315D01*
X1912467Y3492601D01*
X1915261Y3495192D01*
X1917750Y3498037D01*
X1919935Y3501136D01*
X1921916Y3504590D01*
X1923643Y3508349D01*
X1925167Y3512413D01*
X1926488Y3516833D01*
X1928571Y3526790D01*
X1930044Y3538220D01*
X1931009Y3551326D01*
X1931619Y3566160D01*
X1932279Y3605174D01*
X1931873Y3619093D01*
X1931416Y3624529D01*
X1930755Y3629202D01*
X1929892Y3633266D01*
X1928825Y3636822D01*
X1927504Y3640124D01*
X1923999Y3646474D01*
X1920951Y3651199D01*
X1917903Y3655466D01*
X1914804Y3659276D01*
X1911604Y3662629D01*
X1908251Y3665575D01*
X1904695Y3668115D01*
X1900783Y3670300D01*
X1896465Y3672128D01*
X1891741Y3673652D01*
X1886508Y3674872D01*
X1880666Y3675887D01*
X1866950Y3677158D01*
X1850085Y3677665D01*
G37*
G36*
X1771599Y3463848D02*
G01*
X1759254Y3463290D01*
X1755241Y3462731D01*
X1752447Y3461918D01*
X1750618Y3460902D01*
X1749501Y3459632D01*
X1749043Y3458057D01*
X1748891Y3456178D01*
X1749450Y3451402D01*
X1751075Y3446424D01*
X1753666Y3441395D01*
X1757070Y3436467D01*
X1761286Y3431692D01*
X1766214Y3427222D01*
X1771700Y3423158D01*
X1777644Y3419652D01*
X1781556Y3418027D01*
X1786737Y3416401D01*
X1792986Y3414877D01*
X1800199Y3413455D01*
X1817014Y3411067D01*
X1836013Y3409340D01*
X1879955Y3406495D01*
X1879955Y3314496D01*
X1801774Y3314496D01*
X1798574Y3357524D01*
X1797507Y3365195D01*
X1796186Y3372459D01*
X1794560Y3379317D01*
X1792630Y3385769D01*
X1790496Y3391712D01*
X1788058Y3397250D01*
X1785416Y3402228D01*
X1782572Y3406749D01*
X1779473Y3410712D01*
X1776171Y3414166D01*
X1772666Y3417011D01*
X1768957Y3419297D01*
X1765147Y3420973D01*
X1761134Y3421989D01*
X1756968Y3422396D01*
X1755292Y3422294D01*
X1753819Y3421786D01*
X1752650Y3420770D01*
X1751634Y3419043D01*
X1750822Y3416554D01*
X1750212Y3413048D01*
X1749399Y3402634D01*
X1748993Y3386632D01*
X1748942Y3352241D01*
X1749247Y3333140D01*
X1750009Y3318916D01*
X1751279Y3308350D01*
X1752193Y3304082D01*
X1753260Y3300323D01*
X1754581Y3296920D01*
X1757934Y3290620D01*
X1760778Y3286201D01*
X1763775Y3282187D01*
X1766874Y3278530D01*
X1770227Y3275279D01*
X1773834Y3272383D01*
X1777695Y3269843D01*
X1781962Y3267608D01*
X1786585Y3265728D01*
X1791614Y3264052D01*
X1797151Y3262731D01*
X1803247Y3261614D01*
X1809902Y3260750D01*
X1817166Y3260090D01*
X1833727Y3259429D01*
X1852675Y3259378D01*
X1868017Y3259683D01*
X1874113Y3259988D01*
X1883968Y3261156D01*
X1887931Y3261969D01*
X1891487Y3263036D01*
X1894738Y3264357D01*
X1900936Y3267862D01*
X1908505Y3273298D01*
X1912416Y3276498D01*
X1915922Y3279800D01*
X1919020Y3283153D01*
X1921713Y3286760D01*
X1923999Y3290620D01*
X1926031Y3294837D01*
X1927707Y3299510D01*
X1929079Y3304692D01*
X1930247Y3310432D01*
X1931111Y3316833D01*
X1932279Y3331921D01*
X1932736Y3350564D01*
X1932787Y3372104D01*
X1932432Y3389731D01*
X1931720Y3402990D01*
X1930400Y3413048D01*
X1928418Y3420770D01*
X1927098Y3424123D01*
X1923846Y3430371D01*
X1918817Y3438042D01*
X1916379Y3441395D01*
X1913839Y3444392D01*
X1911197Y3447084D01*
X1908403Y3449523D01*
X1905355Y3451656D01*
X1902002Y3453536D01*
X1898345Y3455212D01*
X1894281Y3456686D01*
X1889760Y3457905D01*
X1884730Y3458972D01*
X1872894Y3460648D01*
X1858314Y3461816D01*
X1840585Y3462629D01*
X1791055Y3463747D01*
G37*
G36*
X1587855Y3459327D02*
G01*
X1553514Y3427882D01*
X1551736Y3356203D01*
X1551787Y3335528D01*
X1552600Y3318865D01*
X1553413Y3311855D01*
X1554429Y3305606D01*
X1555800Y3300018D01*
X1557477Y3295040D01*
X1559509Y3290620D01*
X1561896Y3286658D01*
X1564690Y3283000D01*
X1567891Y3279698D01*
X1571498Y3276600D01*
X1575612Y3273602D01*
X1583182Y3268929D01*
X1586280Y3267405D01*
X1593088Y3265017D01*
X1596999Y3264103D01*
X1606397Y3262782D01*
X1618589Y3262020D01*
X1634439Y3261715D01*
X1654759Y3261664D01*
X1671624Y3261918D01*
X1678127Y3262223D01*
X1683562Y3262731D01*
X1688084Y3263442D01*
X1691995Y3264357D01*
X1695399Y3265627D01*
X1698447Y3267151D01*
X1701444Y3269030D01*
X1707794Y3274060D01*
X1715465Y3281172D01*
X1718716Y3284829D01*
X1721612Y3288588D01*
X1724152Y3292551D01*
X1726387Y3296818D01*
X1728266Y3301441D01*
X1729943Y3306470D01*
X1731314Y3311956D01*
X1732432Y3318001D01*
X1733346Y3324656D01*
X1734515Y3340100D01*
X1735074Y3358794D01*
X1735074Y3385464D01*
X1734870Y3397859D01*
X1734464Y3407156D01*
X1733804Y3413861D01*
X1732788Y3418281D01*
X1731365Y3420872D01*
X1729486Y3422142D01*
X1727047Y3422396D01*
X1722882Y3421989D01*
X1718818Y3420922D01*
X1714957Y3419246D01*
X1711248Y3416960D01*
X1707743Y3414064D01*
X1704390Y3410559D01*
X1701292Y3406597D01*
X1698396Y3402025D01*
X1695704Y3396996D01*
X1693265Y3391458D01*
X1691132Y3385464D01*
X1689201Y3379012D01*
X1687575Y3372154D01*
X1686255Y3364890D01*
X1685239Y3357270D01*
X1684528Y3349244D01*
X1682242Y3314496D01*
X1601774Y3311855D01*
X1601774Y3408781D01*
X1637334Y3408883D01*
X1653539Y3409797D01*
X1668475Y3411575D01*
X1675434Y3412794D01*
X1688236Y3415893D01*
X1694129Y3417722D01*
X1699615Y3419805D01*
X1704695Y3422040D01*
X1709420Y3424478D01*
X1713738Y3427120D01*
X1717649Y3429914D01*
X1721104Y3432911D01*
X1724152Y3436112D01*
X1726793Y3439464D01*
X1728978Y3443020D01*
X1730705Y3446729D01*
X1731975Y3450590D01*
X1732381Y3452520D01*
X1732330Y3454146D01*
X1731619Y3455466D01*
X1730044Y3456584D01*
X1727403Y3457448D01*
X1723440Y3458108D01*
X1710893Y3458921D01*
X1690624Y3459276D01*
G37*
G36*
X1736598Y3142386D02*
G01*
X1721967Y3141980D01*
X1707997Y3140964D01*
X1695348Y3139389D01*
X1689709Y3138373D01*
X1684680Y3137204D01*
X1680260Y3135884D01*
X1676654Y3134410D01*
X1668780Y3130296D01*
X1665325Y3128111D01*
X1662175Y3125774D01*
X1659331Y3123285D01*
X1656791Y3120593D01*
X1654505Y3117646D01*
X1652524Y3114395D01*
X1650746Y3110839D01*
X1649171Y3106877D01*
X1647850Y3102508D01*
X1645767Y3092348D01*
X1644396Y3080004D01*
X1643583Y3065170D01*
X1643227Y3047492D01*
X1643176Y3024581D01*
X1643380Y3004413D01*
X1643989Y2990799D01*
X1644497Y2986074D01*
X1645107Y2982518D01*
X1645970Y2979978D01*
X1646986Y2978251D01*
X1648256Y2977235D01*
X1649780Y2976727D01*
X1651558Y2976575D01*
X1655165Y2977235D01*
X1659178Y2979064D01*
X1663496Y2981960D01*
X1667916Y2985770D01*
X1672336Y2990342D01*
X1676552Y2995523D01*
X1680514Y3001264D01*
X1683969Y3007309D01*
X1685950Y3013202D01*
X1687626Y3021838D01*
X1688744Y3032048D01*
X1689506Y3053384D01*
X1690471Y3064002D01*
X1691893Y3073146D01*
X1693621Y3079750D01*
X1695196Y3083458D01*
X1696923Y3086354D01*
X1699260Y3088436D01*
X1702562Y3089859D01*
X1707286Y3090773D01*
X1713839Y3091281D01*
X1734108Y3091535D01*
X1749298Y3091129D01*
X1755952Y3090672D01*
X1766722Y3089249D01*
X1770735Y3088284D01*
X1773732Y3087217D01*
X1775561Y3085998D01*
X1776628Y3084169D01*
X1777542Y3080918D01*
X1778406Y3076448D01*
X1779828Y3064611D01*
X1780743Y3050184D01*
X1781200Y3034639D01*
X1781149Y3019450D01*
X1780489Y3006191D01*
X1779930Y3000705D01*
X1779168Y2996285D01*
X1778304Y2993034D01*
X1777136Y2991053D01*
X1775155Y2989427D01*
X1772208Y2988157D01*
X1767992Y2987192D01*
X1762302Y2986532D01*
X1754987Y2986074D01*
X1725371Y2985668D01*
X1708251Y2984754D01*
X1700530Y2984042D01*
X1687372Y2982010D01*
X1682191Y2980791D01*
X1678127Y2979369D01*
X1671320Y2976067D01*
X1664817Y2972104D01*
X1658924Y2967634D01*
X1653692Y2962808D01*
X1649323Y2957779D01*
X1646021Y2952800D01*
X1643888Y2948025D01*
X1643176Y2943555D01*
X1643329Y2941777D01*
X1643888Y2940253D01*
X1645005Y2938983D01*
X1646986Y2937967D01*
X1649882Y2937154D01*
X1653997Y2936494D01*
X1666392Y2935681D01*
X1685645Y2935325D01*
X1713280Y2935224D01*
X1740001Y2935376D01*
X1759712Y2935833D01*
X1773885Y2936798D01*
X1779371Y2937510D01*
X1784045Y2938373D01*
X1788058Y2939491D01*
X1791614Y2940812D01*
X1798066Y2944215D01*
X1802841Y2947212D01*
X1807108Y2950210D01*
X1810918Y2953258D01*
X1814271Y2956458D01*
X1817217Y2959811D01*
X1819757Y2963468D01*
X1821942Y2967431D01*
X1823821Y2971901D01*
X1825396Y2976778D01*
X1826666Y2982315D01*
X1827733Y2988462D01*
X1829206Y3002991D01*
X1829968Y3021025D01*
X1830324Y3042412D01*
X1830273Y3062732D01*
X1829816Y3079597D01*
X1829003Y3090875D01*
X1828546Y3093821D01*
X1826463Y3099663D01*
X1823466Y3105658D01*
X1819706Y3111652D01*
X1815338Y3117494D01*
X1810512Y3122930D01*
X1805381Y3127857D01*
X1800098Y3132023D01*
X1794764Y3135274D01*
X1791462Y3136696D01*
X1787347Y3137916D01*
X1782572Y3139033D01*
X1777187Y3139998D01*
X1764842Y3141421D01*
X1751075Y3142183D01*
G37*
G36*
X1682343Y2907385D02*
G01*
X1668678Y2907233D01*
X1658620Y2906776D01*
X1651609Y2906115D01*
X1647088Y2905099D01*
X1644548Y2903728D01*
X1643837Y2902864D01*
X1643227Y2900883D01*
X1643176Y2899765D01*
X1643735Y2894634D01*
X1645412Y2889504D01*
X1648053Y2884424D01*
X1651558Y2879598D01*
X1655825Y2874975D01*
X1660753Y2870708D01*
X1666239Y2866898D01*
X1672132Y2863596D01*
X1678432Y2860852D01*
X1684883Y2858770D01*
X1691487Y2857500D01*
X1698091Y2857042D01*
X1712112Y2857042D01*
X1712163Y2762148D01*
X1712366Y2736138D01*
X1712925Y2718714D01*
X1713382Y2712669D01*
X1714042Y2708148D01*
X1714855Y2704896D01*
X1715922Y2702763D01*
X1717141Y2701493D01*
X1718665Y2700883D01*
X1720443Y2700731D01*
X1724507Y2701493D01*
X1729435Y2703626D01*
X1734616Y2706725D01*
X1739341Y2710586D01*
X1745691Y2717190D01*
X1748383Y2720746D01*
X1750822Y2724454D01*
X1752955Y2728417D01*
X1754886Y2732735D01*
X1756562Y2737358D01*
X1757984Y2742438D01*
X1759204Y2747975D01*
X1760220Y2754020D01*
X1761032Y2760624D01*
X1762150Y2775762D01*
X1762658Y2793796D01*
X1762709Y2857042D01*
X1808378Y2856890D01*
X1822805Y2856280D01*
X1834692Y2855264D01*
X1839214Y2854604D01*
X1842516Y2853893D01*
X1844497Y2853131D01*
X1845970Y2851607D01*
X1847189Y2848914D01*
X1848104Y2844952D01*
X1848764Y2839618D01*
X1849170Y2832811D01*
X1849374Y2824327D01*
X1849069Y2802077D01*
X1847748Y2754782D01*
X1807413Y2744520D01*
X1800047Y2742234D01*
X1793646Y2739898D01*
X1788109Y2737358D01*
X1783181Y2734614D01*
X1778812Y2731566D01*
X1774799Y2728112D01*
X1771040Y2724251D01*
X1766011Y2718308D01*
X1761896Y2712720D01*
X1759102Y2708148D01*
X1758086Y2705252D01*
X1758797Y2704134D01*
X1760778Y2703220D01*
X1763928Y2702407D01*
X1773174Y2701188D01*
X1785518Y2700528D01*
X1799894Y2700426D01*
X1815287Y2700782D01*
X1830628Y2701594D01*
X1844852Y2702864D01*
X1856993Y2704592D01*
X1861921Y2705557D01*
X1865934Y2706674D01*
X1868881Y2707843D01*
X1873554Y2710434D01*
X1877771Y2713126D01*
X1881581Y2716072D01*
X1884934Y2719222D01*
X1887880Y2722727D01*
X1890471Y2726639D01*
X1892706Y2730957D01*
X1894586Y2735834D01*
X1896160Y2741320D01*
X1897481Y2747467D01*
X1898548Y2754325D01*
X1899920Y2770479D01*
X1900529Y2790393D01*
X1900580Y2813304D01*
X1900275Y2831998D01*
X1899564Y2846019D01*
X1898243Y2856433D01*
X1897329Y2860649D01*
X1896262Y2864358D01*
X1894941Y2867761D01*
X1891639Y2874060D01*
X1887270Y2880969D01*
X1883003Y2886811D01*
X1878482Y2891637D01*
X1875942Y2893669D01*
X1873148Y2895549D01*
X1870100Y2897174D01*
X1866646Y2898648D01*
X1862785Y2899968D01*
X1858518Y2901086D01*
X1848256Y2902915D01*
X1835505Y2904236D01*
X1819757Y2905201D01*
X1800606Y2905861D01*
X1750263Y2906776D01*
G37*
G36*
X1675485Y2673045D02*
G01*
X1659331Y2672842D01*
X1653793Y2672435D01*
X1649679Y2671876D01*
X1646783Y2671114D01*
X1644904Y2670098D01*
X1643786Y2668778D01*
X1643278Y2667254D01*
X1643176Y2665374D01*
X1643380Y2661361D01*
X1644091Y2657500D01*
X1645208Y2653842D01*
X1646783Y2650388D01*
X1648815Y2647086D01*
X1651304Y2644038D01*
X1654200Y2641142D01*
X1657553Y2638450D01*
X1661312Y2635961D01*
X1665478Y2633675D01*
X1670050Y2631592D01*
X1675028Y2629712D01*
X1686255Y2626614D01*
X1692452Y2625394D01*
X1699006Y2624378D01*
X1705965Y2623566D01*
X1713331Y2623007D01*
X1746757Y2622194D01*
X1760677Y2621127D01*
X1766112Y2620314D01*
X1770481Y2619349D01*
X1773631Y2618282D01*
X1775561Y2617063D01*
X1776628Y2615184D01*
X1777542Y2611932D01*
X1778406Y2607513D01*
X1779828Y2595676D01*
X1780743Y2581198D01*
X1781200Y2565654D01*
X1781149Y2550515D01*
X1780489Y2537206D01*
X1779930Y2531719D01*
X1779168Y2527300D01*
X1778304Y2524099D01*
X1776628Y2521254D01*
X1774088Y2518968D01*
X1771091Y2517394D01*
X1767941Y2516784D01*
X1762455Y2516479D01*
X1756714Y2515666D01*
X1750872Y2514346D01*
X1744980Y2512618D01*
X1739087Y2510434D01*
X1733296Y2507945D01*
X1727707Y2505202D01*
X1722374Y2502154D01*
X1717395Y2498902D01*
X1712772Y2495550D01*
X1708708Y2492044D01*
X1705152Y2488488D01*
X1702307Y2484932D01*
X1700123Y2481376D01*
X1698802Y2477922D01*
X1698345Y2474620D01*
X1698548Y2471724D01*
X1699412Y2469540D01*
X1701546Y2467965D01*
X1705254Y2466949D01*
X1711147Y2466441D01*
X1719630Y2466340D01*
X1746250Y2467000D01*
X1765046Y2467711D01*
X1778762Y2468676D01*
X1788515Y2470099D01*
X1792325Y2471115D01*
X1795627Y2472334D01*
X1798523Y2473807D01*
X1801215Y2475534D01*
X1806600Y2480056D01*
X1810207Y2483510D01*
X1813458Y2487015D01*
X1816354Y2490622D01*
X1818995Y2494330D01*
X1821281Y2498242D01*
X1823313Y2502408D01*
X1825091Y2506878D01*
X1826615Y2511653D01*
X1827936Y2516835D01*
X1829003Y2522474D01*
X1829866Y2528570D01*
X1831035Y2542489D01*
X1831543Y2559050D01*
X1831492Y2576982D01*
X1831086Y2591866D01*
X1830273Y2604160D01*
X1828952Y2614371D01*
X1827072Y2623058D01*
X1824532Y2630678D01*
X1820824Y2638958D01*
X1818639Y2643276D01*
X1816404Y2647137D01*
X1814068Y2650642D01*
X1811578Y2653842D01*
X1808835Y2656636D01*
X1805838Y2659126D01*
X1802536Y2661361D01*
X1798828Y2663291D01*
X1794662Y2664968D01*
X1790039Y2666441D01*
X1784807Y2667660D01*
X1778914Y2668727D01*
X1765096Y2670302D01*
X1748078Y2671368D01*
X1727454Y2672130D01*
G37*
G36*
X1643176Y2438654D02*
G01*
X1643176Y2427579D01*
X1643583Y2424023D01*
X1644904Y2420315D01*
X1646936Y2416505D01*
X1649679Y2412695D01*
X1653032Y2408885D01*
X1656943Y2405176D01*
X1661363Y2401620D01*
X1666138Y2398268D01*
X1671320Y2395220D01*
X1676755Y2392476D01*
X1682394Y2390140D01*
X1688134Y2388311D01*
X1691132Y2387600D01*
X1699818Y2386431D01*
X1711452Y2385415D01*
X1740611Y2384044D01*
X1756664Y2383688D01*
X1788160Y2383688D01*
X1802079Y2384044D01*
X1813814Y2384602D01*
X1822653Y2385466D01*
X1825752Y2385974D01*
X1827834Y2386533D01*
X1828800Y2387193D01*
X1829257Y2389479D01*
X1828850Y2392984D01*
X1827580Y2397201D01*
X1825650Y2401671D01*
X1821738Y2408428D01*
X1819554Y2411476D01*
X1814525Y2416962D01*
X1811731Y2419451D01*
X1808632Y2421788D01*
X1801723Y2425852D01*
X1797812Y2427630D01*
X1789023Y2430780D01*
X1778812Y2433269D01*
X1767078Y2435250D01*
X1753666Y2436723D01*
X1738375Y2437739D01*
X1721154Y2438349D01*
X1701800Y2438552D01*
G37*
G36*
X1834946Y2436571D02*
G01*
X1829765Y2435961D01*
X1827530Y2433066D01*
X1827072Y2427274D01*
X1827530Y2423769D01*
X1828800Y2420162D01*
X1830882Y2416505D01*
X1833676Y2412746D01*
X1837080Y2409088D01*
X1841042Y2405430D01*
X1845462Y2401925D01*
X1850288Y2398623D01*
X1855470Y2395474D01*
X1860905Y2392629D01*
X1866544Y2390038D01*
X1872284Y2387854D01*
X1878075Y2386025D01*
X1883816Y2384704D01*
X1889455Y2383840D01*
X1894890Y2383485D01*
X1898802Y2385669D01*
X1900326Y2391308D01*
X1899361Y2398979D01*
X1895856Y2407259D01*
X1892554Y2411628D01*
X1887778Y2416048D01*
X1881784Y2420416D01*
X1874926Y2424531D01*
X1867458Y2428240D01*
X1859686Y2431440D01*
X1851863Y2433878D01*
X1844293Y2435453D01*
G37*
G36*
X1780539Y2355900D02*
G01*
X1755495Y2355799D01*
X1734413Y2355443D01*
X1716786Y2354884D01*
X1702358Y2353919D01*
X1690573Y2352548D01*
X1681124Y2350617D01*
X1673606Y2348077D01*
X1670405Y2346553D01*
X1667510Y2344877D01*
X1662531Y2340864D01*
X1658264Y2335987D01*
X1654200Y2330196D01*
X1650390Y2323795D01*
X1648815Y2320594D01*
X1647545Y2317191D01*
X1646428Y2313381D01*
X1645513Y2309114D01*
X1644243Y2298395D01*
X1643532Y2283917D01*
X1643227Y2264410D01*
X1643227Y2240635D01*
X1643532Y2221331D01*
X1644243Y2206853D01*
X1645462Y2196084D01*
X1647393Y2188006D01*
X1648663Y2184654D01*
X1651812Y2178507D01*
X1654454Y2174544D01*
X1657248Y2170938D01*
X1660296Y2167636D01*
X1663649Y2164588D01*
X1667256Y2161895D01*
X1671218Y2159508D01*
X1675485Y2157374D01*
X1680159Y2155494D01*
X1685239Y2153869D01*
X1690776Y2152548D01*
X1696770Y2151430D01*
X1703273Y2150516D01*
X1717852Y2149348D01*
X1734820Y2148992D01*
X1751888Y2149297D01*
X1766417Y2150313D01*
X1772818Y2151126D01*
X1778711Y2152142D01*
X1784146Y2153412D01*
X1789175Y2154885D01*
X1793748Y2156663D01*
X1798015Y2158695D01*
X1801926Y2160981D01*
X1805584Y2163572D01*
X1809038Y2166467D01*
X1812289Y2169718D01*
X1815338Y2173274D01*
X1820570Y2180488D01*
X1822500Y2183688D01*
X1824126Y2186940D01*
X1825548Y2190445D01*
X1826717Y2194255D01*
X1827682Y2198522D01*
X1829206Y2209190D01*
X1830222Y2223414D01*
X1830984Y2242464D01*
X1831339Y2262174D01*
X1831035Y2278888D01*
X1830120Y2290876D01*
X1829460Y2294534D01*
X1828698Y2296363D01*
X1826260Y2297531D01*
X1822653Y2297633D01*
X1818335Y2296718D01*
X1813661Y2294788D01*
X1809140Y2292197D01*
X1804924Y2289251D01*
X1801063Y2285898D01*
X1797608Y2282139D01*
X1794459Y2277973D01*
X1791665Y2273401D01*
X1789175Y2268474D01*
X1787093Y2263140D01*
X1785315Y2257348D01*
X1783892Y2251202D01*
X1782825Y2244648D01*
X1780895Y2226919D01*
X1779219Y2217216D01*
X1777339Y2209647D01*
X1775358Y2205329D01*
X1773732Y2204008D01*
X1771040Y2202840D01*
X1767332Y2201875D01*
X1762607Y2201062D01*
X1756968Y2200402D01*
X1742846Y2199690D01*
X1722882Y2199640D01*
X1713992Y2199843D01*
X1707388Y2200351D01*
X1702612Y2201265D01*
X1699260Y2202688D01*
X1696923Y2204770D01*
X1695196Y2207615D01*
X1693621Y2211374D01*
X1692249Y2216099D01*
X1691182Y2222296D01*
X1690319Y2229662D01*
X1689709Y2237841D01*
X1689354Y2246579D01*
X1689252Y2255520D01*
X1689404Y2264410D01*
X1689811Y2272842D01*
X1690471Y2280564D01*
X1691386Y2287320D01*
X1692503Y2292705D01*
X1693875Y2296414D01*
X1695043Y2298344D01*
X1696516Y2299919D01*
X1698396Y2301290D01*
X1700987Y2302408D01*
X1704441Y2303272D01*
X1709013Y2303983D01*
X1722272Y2304846D01*
X1742338Y2305253D01*
X1793798Y2305507D01*
X1813255Y2305913D01*
X1829612Y2306726D01*
X1843278Y2307945D01*
X1854606Y2309723D01*
X1859483Y2310790D01*
X1863953Y2312060D01*
X1871675Y2315057D01*
X1875028Y2316835D01*
X1878126Y2318816D01*
X1883765Y2323388D01*
X1888845Y2328824D01*
X1893976Y2335022D01*
X1897888Y2340203D01*
X1899259Y2342438D01*
X1900174Y2344470D01*
X1900580Y2346248D01*
X1900478Y2347823D01*
X1899818Y2349246D01*
X1898548Y2350516D01*
X1896668Y2351582D01*
X1894078Y2352497D01*
X1886661Y2353919D01*
X1876043Y2354884D01*
X1861820Y2355494D01*
X1821484Y2355900D01*
G37*
G36*
X1870760Y2277719D02*
G01*
X1861057Y2277364D01*
X1854657Y2276195D01*
X1851152Y2274062D01*
X1850034Y2270861D01*
X1850643Y2268169D01*
X1852269Y2265984D01*
X1854707Y2264511D01*
X1857654Y2263952D01*
X1861667Y2263749D01*
X1862988Y2262682D01*
X1861667Y2260142D01*
X1858977Y2257044D01*
X1873046Y2257044D01*
X1873402Y2259736D01*
X1874418Y2261920D01*
X1875840Y2263394D01*
X1877669Y2263952D01*
X1879447Y2263394D01*
X1880870Y2261920D01*
X1881886Y2259736D01*
X1882241Y2257044D01*
X1881886Y2254351D01*
X1880870Y2252167D01*
X1879447Y2250694D01*
X1877669Y2250135D01*
X1875840Y2250694D01*
X1874418Y2252167D01*
X1873402Y2254351D01*
X1873046Y2257044D01*
X1858977Y2257044D01*
X1854657Y2251710D01*
X1852371Y2247747D01*
X1850745Y2243988D01*
X1849932Y2240737D01*
X1849932Y2238400D01*
X1850796Y2237232D01*
X1852574Y2237587D01*
X1858264Y2241956D01*
X1861515Y2242769D01*
X1865172Y2242261D01*
X1874672Y2238095D01*
X1879092Y2237181D01*
X1882851Y2237536D01*
X1885950Y2239213D01*
X1888337Y2242261D01*
X1890064Y2246579D01*
X1891080Y2252218D01*
X1891436Y2259177D01*
X1891436Y2277719D01*
G37*
G36*
X1873199Y2194915D02*
G01*
X1868474Y2194560D01*
X1863801Y2193239D01*
X1859330Y2190902D01*
X1855317Y2187651D01*
X1851914Y2183485D01*
X1848002Y2176881D01*
X1847562Y2175256D01*
X1857502Y2175256D01*
X1861769Y2181352D01*
X1868728Y2184654D01*
X1875332Y2183790D01*
X1880311Y2179421D01*
X1882241Y2172157D01*
X1881632Y2167839D01*
X1879752Y2164943D01*
X1876348Y2163318D01*
X1871218Y2162810D01*
X1862937Y2164638D01*
X1858111Y2169210D01*
X1857502Y2175256D01*
X1847562Y2175256D01*
X1846681Y2172004D01*
X1848002Y2167077D01*
X1851914Y2160473D01*
X1855012Y2156358D01*
X1858162Y2153158D01*
X1861464Y2150922D01*
X1865020Y2149652D01*
X1868830Y2149348D01*
X1872996Y2149906D01*
X1877517Y2151380D01*
X1882546Y2153767D01*
X1885950Y2156510D01*
X1888540Y2160371D01*
X1890369Y2165146D01*
X1891284Y2170379D01*
X1891334Y2175764D01*
X1890522Y2180945D01*
X1888693Y2185619D01*
X1885899Y2189480D01*
X1882139Y2192375D01*
X1877822Y2194153D01*
G37*
G36*
X1739138Y2121408D02*
G01*
X1724050Y2121255D01*
X1710588Y2120747D01*
X1698701Y2119731D01*
X1688287Y2118156D01*
X1683562Y2117140D01*
X1679193Y2115921D01*
X1671421Y2112924D01*
X1667967Y2111095D01*
X1664817Y2109012D01*
X1661922Y2106726D01*
X1659280Y2104186D01*
X1656892Y2101392D01*
X1654759Y2098294D01*
X1652828Y2094890D01*
X1651152Y2091182D01*
X1649628Y2087168D01*
X1648307Y2082850D01*
X1646224Y2073148D01*
X1644751Y2061972D01*
X1643837Y2049221D01*
X1643329Y2034844D01*
X1643210Y2024227D01*
X1689100Y2024227D01*
X1689303Y2037435D01*
X1690319Y2049475D01*
X1694129Y2070862D01*
X1744878Y2070760D01*
X1760626Y2070100D01*
X1766519Y2069490D01*
X1771192Y2068677D01*
X1774596Y2067661D01*
X1776882Y2066493D01*
X1778050Y2065070D01*
X1778914Y2062073D01*
X1780133Y2052269D01*
X1780793Y2038807D01*
X1780895Y2023313D01*
X1780438Y2007311D01*
X1779574Y1992477D01*
X1778254Y1980285D01*
X1777441Y1975713D01*
X1776577Y1972462D01*
X1775561Y1970633D01*
X1772869Y1969109D01*
X1768297Y1967839D01*
X1762150Y1966772D01*
X1754886Y1966010D01*
X1746808Y1965502D01*
X1738325Y1965248D01*
X1729739Y1965248D01*
X1721459Y1965553D01*
X1713839Y1966112D01*
X1707235Y1966925D01*
X1702003Y1968042D01*
X1698498Y1969516D01*
X1697075Y1970938D01*
X1695754Y1973478D01*
X1694535Y1976882D01*
X1692402Y1986076D01*
X1690725Y1997608D01*
X1689607Y2010613D01*
X1689100Y2024227D01*
X1643210Y2024227D01*
X1643227Y2006600D01*
X1643786Y1986025D01*
X1644345Y1977288D01*
X1645107Y1969516D01*
X1646123Y1962657D01*
X1647393Y1956511D01*
X1649018Y1951126D01*
X1650949Y1946351D01*
X1653235Y1942084D01*
X1655927Y1938274D01*
X1659077Y1934870D01*
X1662633Y1931720D01*
X1666697Y1928825D01*
X1671218Y1926031D01*
X1676298Y1923288D01*
X1680260Y1921510D01*
X1684782Y1919986D01*
X1689963Y1918563D01*
X1701647Y1916328D01*
X1714804Y1914855D01*
X1721713Y1914347D01*
X1735937Y1913940D01*
X1750060Y1914296D01*
X1763623Y1915312D01*
X1770024Y1916125D01*
X1781606Y1918309D01*
X1786636Y1919630D01*
X1791157Y1921205D01*
X1794967Y1922881D01*
X1798878Y1925116D01*
X1802587Y1927555D01*
X1806041Y1930146D01*
X1809191Y1932939D01*
X1812137Y1935988D01*
X1814880Y1939289D01*
X1817370Y1942846D01*
X1819605Y1946706D01*
X1821637Y1950821D01*
X1823466Y1955292D01*
X1826564Y1965147D01*
X1827784Y1970633D01*
X1829714Y1982673D01*
X1830882Y1996338D01*
X1831441Y2011730D01*
X1831339Y2030984D01*
X1830425Y2050694D01*
X1829714Y2059279D01*
X1828800Y2066848D01*
X1827733Y2073351D01*
X1826564Y2078634D01*
X1825193Y2082546D01*
X1821688Y2088997D01*
X1816557Y2096109D01*
X1810562Y2103069D01*
X1804314Y2109012D01*
X1797964Y2114042D01*
X1794967Y2115921D01*
X1791868Y2117496D01*
X1788464Y2118715D01*
X1784502Y2119630D01*
X1779828Y2120341D01*
X1774291Y2120849D01*
X1759712Y2121306D01*
G37*
G36*
X1849526Y2107641D02*
G01*
X1851321Y2084374D01*
X1859229Y2084374D01*
X1859635Y2088032D01*
X1860600Y2091029D01*
X1862074Y2093061D01*
X1863852Y2093823D01*
X1865630Y2093315D01*
X1867103Y2091893D01*
X1868068Y2089759D01*
X1868474Y2087219D01*
X1868157Y2085035D01*
X1878228Y2085035D01*
X1878380Y2087524D01*
X1879092Y2090115D01*
X1880107Y2091943D01*
X1880971Y2092096D01*
X1881581Y2090521D01*
X1881886Y2087321D01*
X1881784Y2084120D01*
X1881327Y2081936D01*
X1880514Y2080920D01*
X1879447Y2081275D01*
X1878584Y2082850D01*
X1878228Y2085035D01*
X1868157Y2085035D01*
X1867103Y2081682D01*
X1865630Y2079345D01*
X1863852Y2077720D01*
X1862074Y2077364D01*
X1860600Y2078532D01*
X1859635Y2080920D01*
X1859229Y2084374D01*
X1851321Y2084374D01*
X1852066Y2076957D01*
X1854301Y2071217D01*
X1859280Y2069185D01*
X1868474Y2069236D01*
X1880819Y2069846D01*
X1887982Y2070404D01*
X1889302Y2072030D01*
X1890420Y2076094D01*
X1891182Y2082038D01*
X1891436Y2089251D01*
X1891436Y2107641D01*
G37*
G36*
X1872183Y2023364D02*
G01*
X1867407Y2023313D01*
X1862937Y2022297D01*
X1858873Y2020417D01*
X1855317Y2017775D01*
X1852371Y2014423D01*
X1850085Y2010460D01*
X1848612Y2005990D01*
X1848458Y2004517D01*
X1857705Y2004517D01*
X1859584Y2007057D01*
X1862734Y2009139D01*
X1866747Y2010562D01*
X1871218Y2011070D01*
X1876348Y2010562D01*
X1879752Y2008936D01*
X1881632Y2006041D01*
X1882241Y2001723D01*
X1881682Y1997913D01*
X1880209Y1994357D01*
X1877974Y1991512D01*
X1875282Y1989734D01*
X1868271Y1989378D01*
X1861870Y1992680D01*
X1857806Y1998167D01*
X1857705Y2004517D01*
X1848458Y2004517D01*
X1848104Y2001113D01*
X1848510Y1995881D01*
X1850034Y1990394D01*
X1853031Y1984146D01*
X1856841Y1980692D01*
X1862683Y1979422D01*
X1871878Y1979777D01*
X1881479Y1980946D01*
X1886813Y1983486D01*
X1889353Y1988718D01*
X1890572Y1998116D01*
X1890775Y2006650D01*
X1889709Y2012645D01*
X1886966Y2016912D01*
X1882343Y2020214D01*
X1877212Y2022348D01*
G37*
G36*
X1886864Y1937512D02*
G01*
X1885035Y1936953D01*
X1883613Y1935480D01*
X1882597Y1933295D01*
X1882241Y1930603D01*
X1881327Y1927504D01*
X1878431Y1925370D01*
X1873402Y1924100D01*
X1859889Y1923338D01*
X1854809Y1922373D01*
X1851304Y1920900D01*
X1850034Y1919122D01*
X1851304Y1917344D01*
X1854809Y1915871D01*
X1859889Y1914906D01*
X1873402Y1914143D01*
X1878431Y1912874D01*
X1881327Y1910740D01*
X1882241Y1907641D01*
X1882597Y1904949D01*
X1883613Y1902764D01*
X1885035Y1901291D01*
X1886864Y1900732D01*
X1888642Y1902155D01*
X1890064Y1906117D01*
X1891080Y1911959D01*
X1891436Y1919122D01*
X1891080Y1926285D01*
X1890064Y1932127D01*
X1888642Y1936038D01*
G37*
G36*
X1787753Y1886915D02*
G01*
X1784807Y1885950D01*
X1782724Y1882952D01*
X1781505Y1877923D01*
X1781098Y1870710D01*
X1781454Y1863242D01*
X1782521Y1855876D01*
X1784248Y1848713D01*
X1786585Y1841906D01*
X1789430Y1835454D01*
X1792782Y1829460D01*
X1796542Y1823974D01*
X1800707Y1819198D01*
X1805228Y1815134D01*
X1810004Y1811832D01*
X1814982Y1809445D01*
X1820164Y1808022D01*
X1824177Y1808124D01*
X1827225Y1809851D01*
X1829307Y1813052D01*
X1830425Y1817624D01*
X1830527Y1823516D01*
X1829663Y1830628D01*
X1827784Y1838756D01*
X1824837Y1847850D01*
X1821738Y1855063D01*
X1817725Y1862074D01*
X1813052Y1868678D01*
X1807972Y1874621D01*
X1802638Y1879650D01*
X1797354Y1883511D01*
X1792325Y1886051D01*
G37*
G36*
X1870760Y1854758D02*
G01*
X1862734Y1854403D01*
X1856130Y1853387D01*
X1851710Y1851914D01*
X1850034Y1850136D01*
X1851710Y1848357D01*
X1856130Y1846884D01*
X1862734Y1845919D01*
X1870760Y1845564D01*
X1878787Y1845919D01*
X1885340Y1846884D01*
X1889810Y1848357D01*
X1891436Y1850136D01*
X1889810Y1851914D01*
X1885340Y1853387D01*
X1878787Y1854403D01*
G37*
G36*
X1697685Y1822551D02*
G01*
X1674875Y1822348D01*
X1659432Y1821738D01*
X1654048Y1821281D01*
X1649984Y1820672D01*
X1647037Y1819859D01*
X1645056Y1818843D01*
X1643888Y1817573D01*
X1643329Y1816150D01*
X1643176Y1814372D01*
X1643684Y1809648D01*
X1645259Y1804822D01*
X1647799Y1800047D01*
X1651254Y1795322D01*
X1655521Y1790852D01*
X1660499Y1786686D01*
X1666138Y1782876D01*
X1672437Y1779473D01*
X1676857Y1777695D01*
X1681937Y1776120D01*
X1687728Y1774850D01*
X1694281Y1773783D01*
X1709877Y1772412D01*
X1748891Y1771650D01*
X1756562Y1771142D01*
X1762963Y1770329D01*
X1768144Y1769110D01*
X1772259Y1767535D01*
X1775460Y1765452D01*
X1777796Y1762810D01*
X1779422Y1759559D01*
X1780438Y1755648D01*
X1780946Y1751025D01*
X1781352Y1739950D01*
X1782114Y1734159D01*
X1783283Y1728368D01*
X1784908Y1722678D01*
X1786839Y1717039D01*
X1789175Y1711604D01*
X1791766Y1706422D01*
X1794662Y1701546D01*
X1797761Y1696974D01*
X1801012Y1692859D01*
X1804466Y1689201D01*
X1807972Y1686052D01*
X1811578Y1683512D01*
X1815236Y1681632D01*
X1818893Y1680464D01*
X1822450Y1680057D01*
X1825345Y1680260D01*
X1827530Y1681124D01*
X1829104Y1683054D01*
X1830222Y1686458D01*
X1830882Y1691690D01*
X1831187Y1699209D01*
X1831136Y1722577D01*
X1830730Y1739798D01*
X1830070Y1755292D01*
X1829257Y1767382D01*
X1828292Y1774291D01*
X1826361Y1780032D01*
X1823516Y1785975D01*
X1819808Y1791970D01*
X1815490Y1797812D01*
X1810664Y1803298D01*
X1805482Y1808225D01*
X1800148Y1812442D01*
X1794764Y1815744D01*
X1792020Y1816963D01*
X1788820Y1818030D01*
X1785010Y1818995D01*
X1775358Y1820519D01*
X1762506Y1821586D01*
X1745843Y1822246D01*
X1724761Y1822551D01*
G37*
G36*
X1869592Y1799336D02*
G01*
X1864918Y1798726D01*
X1860397Y1797304D01*
X1856282Y1795221D01*
X1852675Y1792376D01*
X1848053Y1787042D01*
X1845919Y1782318D01*
X1846072Y1777034D01*
X1848256Y1770075D01*
X1851863Y1764385D01*
X1855673Y1763014D01*
X1858213Y1765554D01*
X1857959Y1771802D01*
X1857552Y1775764D01*
X1858162Y1779727D01*
X1859686Y1783384D01*
X1861972Y1786128D01*
X1865782Y1788617D01*
X1869439Y1789684D01*
X1872894Y1789480D01*
X1875942Y1788058D01*
X1878533Y1785518D01*
X1880514Y1781911D01*
X1881784Y1777339D01*
X1882597Y1766366D01*
X1883511Y1762455D01*
X1884984Y1760423D01*
X1886864Y1760474D01*
X1888896Y1762810D01*
X1890318Y1766468D01*
X1891131Y1771091D01*
X1891284Y1776272D01*
X1890826Y1781556D01*
X1889760Y1786534D01*
X1888134Y1790852D01*
X1885899Y1794052D01*
X1882597Y1796542D01*
X1878685Y1798269D01*
X1874266Y1799183D01*
G37*
G36*
X1880107Y1714754D02*
G01*
X1876602Y1714246D01*
X1873402Y1712772D01*
X1870811Y1710283D01*
X1869084Y1706930D01*
X1868017Y1699260D01*
X1866900Y1695907D01*
X1865223Y1693062D01*
X1863191Y1691132D01*
X1860956Y1690370D01*
X1859737Y1691589D01*
X1859534Y1694840D01*
X1860245Y1700174D01*
X1860854Y1709572D01*
X1858822Y1714398D01*
X1854962Y1713992D01*
X1850136Y1707743D01*
X1848104Y1702917D01*
X1847443Y1698396D01*
X1848154Y1693824D01*
X1850186Y1688947D01*
X1852828Y1685188D01*
X1855927Y1682648D01*
X1859330Y1681378D01*
X1862886Y1681276D01*
X1866392Y1682394D01*
X1869744Y1684680D01*
X1872742Y1688134D01*
X1879854Y1700580D01*
X1883410Y1702663D01*
X1885035Y1699209D01*
X1883867Y1690370D01*
X1882393Y1683766D01*
X1882444Y1680819D01*
X1884375Y1681022D01*
X1888388Y1684070D01*
X1893620Y1689658D01*
X1895652Y1695450D01*
X1894484Y1701850D01*
X1890166Y1709318D01*
X1887169Y1712366D01*
X1883714Y1714144D01*
G37*
G36*
X1917547Y5197906D02*
G01*
X1887321Y5189778D01*
X1887321Y5183936D01*
X1903323Y5182412D01*
X1903272Y5086807D01*
X1902815Y5062016D01*
X1887575Y5059984D01*
X1887575Y5053888D01*
X1934819Y5053888D01*
X1934819Y5059984D01*
X1919579Y5062016D01*
X1919325Y5090464D01*
X1932279Y5103672D01*
X1962505Y5053888D01*
X1988921Y5053888D01*
X1988921Y5059984D01*
X1976221Y5061762D01*
X1943455Y5114848D01*
X1965807Y5137454D01*
X1983841Y5139740D01*
X1983841Y5146344D01*
X1939137Y5146344D01*
X1939137Y5139740D01*
X1954377Y5136692D01*
X1919325Y5100370D01*
X1919325Y5168696D01*
X1920087Y5196636D01*
G37*
G36*
X2060295Y5187238D02*
G01*
X2054656Y5186984D01*
X2049119Y5186273D01*
X2043734Y5185054D01*
X2038502Y5183378D01*
X2033524Y5181244D01*
X2028850Y5178653D01*
X2024380Y5175605D01*
X2020316Y5172049D01*
X2016556Y5168138D01*
X2013204Y5163718D01*
X2010257Y5158892D01*
X2007819Y5153609D01*
X2005838Y5147919D01*
X2004364Y5141772D01*
X2003450Y5135270D01*
X2003145Y5128310D01*
X2003501Y5122011D01*
X2004415Y5115915D01*
X2005990Y5110073D01*
X2008073Y5104434D01*
X2010613Y5098999D01*
X2013661Y5093817D01*
X2017115Y5088890D01*
X2020976Y5084165D01*
X2025142Y5079695D01*
X2029612Y5075529D01*
X2034286Y5071567D01*
X2039213Y5067858D01*
X2039213Y5067604D01*
X2011527Y5067604D01*
X2006955Y5086908D01*
X1996795Y5086908D01*
X1998827Y5053888D01*
X2050897Y5053888D01*
X2050897Y5065826D01*
X2046478Y5069687D01*
X2042363Y5073853D01*
X2038553Y5078374D01*
X2035098Y5083098D01*
X2031949Y5088128D01*
X2029206Y5093309D01*
X2026818Y5098745D01*
X2024837Y5104384D01*
X2023262Y5110124D01*
X2022144Y5116017D01*
X2021433Y5122011D01*
X2021179Y5128056D01*
X2021484Y5135168D01*
X2022398Y5141874D01*
X2023821Y5148224D01*
X2025853Y5154117D01*
X2028443Y5159502D01*
X2031492Y5164328D01*
X2035098Y5168544D01*
X2039213Y5172151D01*
X2043785Y5174996D01*
X2048865Y5177129D01*
X2054352Y5178399D01*
X2060295Y5178856D01*
X2066188Y5178399D01*
X2071624Y5177129D01*
X2076653Y5174996D01*
X2081174Y5172151D01*
X2085187Y5168544D01*
X2088743Y5164328D01*
X2091791Y5159502D01*
X2094331Y5154117D01*
X2096312Y5148224D01*
X2097735Y5141874D01*
X2098598Y5135168D01*
X2098903Y5128056D01*
X2098700Y5122011D01*
X2097989Y5116017D01*
X2096871Y5110124D01*
X2095347Y5104384D01*
X2093366Y5098745D01*
X2091029Y5093309D01*
X2088286Y5088128D01*
X2085136Y5083098D01*
X2081682Y5078323D01*
X2077821Y5073853D01*
X2073656Y5069687D01*
X2069185Y5065826D01*
X2069185Y5053888D01*
X2121763Y5053888D01*
X2123541Y5086908D01*
X2113381Y5086908D01*
X2108809Y5067604D01*
X2081123Y5067604D01*
X2081123Y5067858D01*
X2086051Y5071567D01*
X2090775Y5075529D01*
X2095246Y5079746D01*
X2099411Y5084216D01*
X2103221Y5088940D01*
X2106676Y5093919D01*
X2109724Y5099100D01*
X2112314Y5104536D01*
X2114397Y5110175D01*
X2115921Y5116017D01*
X2116886Y5122062D01*
X2117191Y5128310D01*
X2116886Y5135270D01*
X2115972Y5141772D01*
X2114499Y5147919D01*
X2112518Y5153609D01*
X2110028Y5158892D01*
X2107082Y5163718D01*
X2103729Y5168138D01*
X2099970Y5172100D01*
X2095906Y5175605D01*
X2091486Y5178653D01*
X2086762Y5181244D01*
X2081834Y5183378D01*
X2076704Y5185054D01*
X2071370Y5186273D01*
X2065883Y5186984D01*
G37*
G36*
X1749907Y5186222D02*
G01*
X1693673Y5105958D01*
X1701901Y5105958D01*
X1745081Y5167934D01*
X1745081Y5105958D01*
X1693673Y5105958D01*
X1692249Y5103926D01*
X1692249Y5094528D01*
X1745081Y5094528D01*
X1745081Y5053888D01*
X1760575Y5053888D01*
X1760575Y5094528D01*
X1781149Y5094528D01*
X1781149Y5105958D01*
X1760575Y5105958D01*
X1760575Y5186222D01*
G37*
G36*
X1794357Y5184190D02*
G01*
X1794357Y5168950D01*
X1862429Y5168950D01*
X1810613Y5055666D01*
X1812391Y5053888D01*
X1827377Y5053888D01*
X1873351Y5174792D01*
X1873351Y5184190D01*
G37*
G36*
X6620509Y4901438D02*
G01*
X6590284Y4893310D01*
X6590284Y4887468D01*
X6606286Y4885944D01*
X6606235Y4790287D01*
X6605778Y4765548D01*
X6590538Y4763516D01*
X6590538Y4757420D01*
X6637781Y4757420D01*
X6637781Y4763516D01*
X6622542Y4765548D01*
X6622288Y4793742D01*
X6635242Y4806950D01*
X6665468Y4757420D01*
X6691884Y4757420D01*
X6691884Y4763516D01*
X6679184Y4765294D01*
X6646418Y4818126D01*
X6668770Y4840732D01*
X6686803Y4843272D01*
X6686803Y4849622D01*
X6642100Y4849622D01*
X6642100Y4843272D01*
X6657340Y4840224D01*
X6622288Y4803902D01*
X6622288Y4872228D01*
X6623050Y4899914D01*
G37*
G36*
X6763258Y4890770D02*
G01*
X6757568Y4890516D01*
X6752031Y4889804D01*
X6746646Y4888585D01*
X6741464Y4886909D01*
X6736486Y4884724D01*
X6731762Y4882083D01*
X6727342Y4879035D01*
X6723278Y4875479D01*
X6719519Y4871516D01*
X6716166Y4867097D01*
X6713220Y4862271D01*
X6710730Y4857038D01*
X6708749Y4851349D01*
X6707327Y4845253D01*
X6706412Y4838750D01*
X6706108Y4831842D01*
X6706412Y4825542D01*
X6707378Y4819446D01*
X6708902Y4813554D01*
X6710984Y4807915D01*
X6713575Y4802530D01*
X6716623Y4797348D01*
X6720078Y4792370D01*
X6723888Y4787696D01*
X6728053Y4783226D01*
X6732524Y4779010D01*
X6737248Y4775098D01*
X6742175Y4771390D01*
X6742175Y4771136D01*
X6714490Y4771136D01*
X6709918Y4790440D01*
X6699758Y4790440D01*
X6701790Y4757420D01*
X6753859Y4757420D01*
X6753859Y4769358D01*
X6749440Y4773218D01*
X6745325Y4777384D01*
X6741515Y4781854D01*
X6738010Y4786579D01*
X6734911Y4791557D01*
X6732168Y4796739D01*
X6729780Y4802174D01*
X6727799Y4807762D01*
X6726224Y4813554D01*
X6725056Y4819446D01*
X6724396Y4825492D01*
X6724142Y4831588D01*
X6724446Y4838598D01*
X6725310Y4845304D01*
X6726783Y4851603D01*
X6728815Y4857445D01*
X6731355Y4862830D01*
X6734454Y4867605D01*
X6738061Y4871821D01*
X6742175Y4875428D01*
X6746748Y4878273D01*
X6751828Y4880406D01*
X6757314Y4881676D01*
X6763258Y4882134D01*
X6769150Y4881676D01*
X6774586Y4880406D01*
X6779564Y4878273D01*
X6784086Y4875428D01*
X6788150Y4871821D01*
X6791706Y4867605D01*
X6794753Y4862830D01*
X6797294Y4857445D01*
X6799275Y4851603D01*
X6800697Y4845304D01*
X6801561Y4838598D01*
X6801866Y4831588D01*
X6801612Y4825492D01*
X6800951Y4819446D01*
X6799834Y4813554D01*
X6798259Y4807762D01*
X6796328Y4802174D01*
X6793941Y4796739D01*
X6791198Y4791557D01*
X6788099Y4786579D01*
X6784594Y4781854D01*
X6780784Y4777384D01*
X6776618Y4773218D01*
X6772148Y4769358D01*
X6772148Y4757420D01*
X6824725Y4757420D01*
X6826503Y4790440D01*
X6816344Y4790440D01*
X6811772Y4771136D01*
X6784086Y4771136D01*
X6784086Y4771390D01*
X6789013Y4775098D01*
X6793738Y4779060D01*
X6798208Y4783277D01*
X6802374Y4787747D01*
X6806184Y4792472D01*
X6809638Y4797450D01*
X6812686Y4802632D01*
X6815277Y4808016D01*
X6817359Y4813706D01*
X6818884Y4819548D01*
X6819849Y4825593D01*
X6820153Y4831842D01*
X6819849Y4838750D01*
X6818934Y4845253D01*
X6817461Y4851349D01*
X6815480Y4857038D01*
X6812991Y4862271D01*
X6810044Y4867097D01*
X6806692Y4871516D01*
X6802932Y4875479D01*
X6798868Y4879035D01*
X6794449Y4882083D01*
X6789724Y4884724D01*
X6784797Y4886909D01*
X6779615Y4888585D01*
X6774332Y4889804D01*
X6768846Y4890516D01*
G37*
G36*
X6535166Y4890516D02*
G01*
X6528054Y4890058D01*
X6521297Y4888687D01*
X6515049Y4886350D01*
X6509410Y4883099D01*
X6504584Y4878984D01*
X6500622Y4873904D01*
X6497726Y4867910D01*
X6496050Y4861052D01*
X6497828Y4858512D01*
X6499961Y4856581D01*
X6502552Y4855362D01*
X6505448Y4854956D01*
X6508953Y4855616D01*
X6511848Y4857750D01*
X6514185Y4861610D01*
X6516116Y4867402D01*
X6520180Y4881626D01*
X6525869Y4882438D01*
X6530594Y4882642D01*
X6535775Y4882134D01*
X6540449Y4880660D01*
X6544513Y4878324D01*
X6547967Y4875072D01*
X6550710Y4871059D01*
X6552793Y4866335D01*
X6554012Y4860950D01*
X6554470Y4854956D01*
X6554063Y4849164D01*
X6552793Y4843373D01*
X6550659Y4837430D01*
X6547662Y4831283D01*
X6543751Y4824882D01*
X6538925Y4818075D01*
X6533184Y4810760D01*
X6497066Y4769612D01*
X6497066Y4757420D01*
X6577075Y4757420D01*
X6577075Y4772406D01*
X6509512Y4772406D01*
X6545427Y4809998D01*
X6555486Y4821428D01*
X6559499Y4826406D01*
X6562902Y4831080D01*
X6565646Y4835448D01*
X6567830Y4839665D01*
X6569506Y4843729D01*
X6570624Y4847742D01*
X6571284Y4851806D01*
X6571488Y4855972D01*
X6571234Y4860899D01*
X6570522Y4865573D01*
X6569354Y4869942D01*
X6567678Y4873955D01*
X6565442Y4877612D01*
X6562750Y4880864D01*
X6559499Y4883708D01*
X6555740Y4886096D01*
X6551472Y4887976D01*
X6546596Y4889347D01*
X6541160Y4890211D01*
G37*
G36*
X1942998Y4512106D02*
G01*
X1912772Y4503978D01*
X1912772Y4498136D01*
X1928774Y4496612D01*
X1928723Y4400956D01*
X1928215Y4376216D01*
X1913026Y4374184D01*
X1913026Y4368088D01*
X1960270Y4368088D01*
X1960270Y4374184D01*
X1945030Y4376216D01*
X1944776Y4390339D01*
X1944776Y4404664D01*
X1957730Y4417872D01*
X1987956Y4368088D01*
X2014372Y4368088D01*
X2014372Y4374184D01*
X2001672Y4375962D01*
X1968906Y4429048D01*
X1991258Y4451654D01*
X2009292Y4453940D01*
X2009292Y4460544D01*
X1964588Y4460544D01*
X1964588Y4453940D01*
X1979828Y4450892D01*
X1944776Y4414570D01*
X1944776Y4482896D01*
X1945538Y4510836D01*
G37*
G36*
X2085746Y4501438D02*
G01*
X2080056Y4501184D01*
X2074519Y4500473D01*
X2069134Y4499254D01*
X2063953Y4497578D01*
X2058974Y4495444D01*
X2054250Y4492853D01*
X2049830Y4489754D01*
X2045716Y4486249D01*
X2041956Y4482287D01*
X2038604Y4477918D01*
X2035708Y4473041D01*
X2033219Y4467809D01*
X2031238Y4462119D01*
X2029764Y4455972D01*
X2028901Y4449470D01*
X2028596Y4442510D01*
X2028901Y4436211D01*
X2029866Y4430115D01*
X2031390Y4424222D01*
X2033473Y4418584D01*
X2036064Y4413199D01*
X2039061Y4408017D01*
X2042515Y4403039D01*
X2046376Y4398365D01*
X2050542Y4393895D01*
X2055012Y4389678D01*
X2059736Y4385767D01*
X2064664Y4382058D01*
X2064664Y4381804D01*
X2036978Y4381804D01*
X2032406Y4401108D01*
X2022246Y4401108D01*
X2024278Y4368088D01*
X2076348Y4368088D01*
X2076348Y4380026D01*
X2071878Y4383887D01*
X2067763Y4388053D01*
X2063953Y4392523D01*
X2060498Y4397298D01*
X2057349Y4402277D01*
X2054606Y4407509D01*
X2052218Y4412945D01*
X2050237Y4418584D01*
X2048662Y4424324D01*
X2047544Y4430217D01*
X2046833Y4436211D01*
X2046630Y4442256D01*
X2046884Y4449318D01*
X2047798Y4456074D01*
X2049272Y4462424D01*
X2051253Y4468317D01*
X2053843Y4473702D01*
X2056942Y4478528D01*
X2060549Y4482744D01*
X2064613Y4486300D01*
X2069236Y4489196D01*
X2074265Y4491329D01*
X2079752Y4492599D01*
X2085746Y4493056D01*
X2091588Y4492599D01*
X2097024Y4491329D01*
X2102053Y4489196D01*
X2106574Y4486300D01*
X2110638Y4482744D01*
X2114194Y4478528D01*
X2117191Y4473702D01*
X2119731Y4468317D01*
X2121712Y4462424D01*
X2123186Y4456074D01*
X2124049Y4449318D01*
X2124354Y4442256D01*
X2124100Y4436211D01*
X2123440Y4430217D01*
X2122271Y4424324D01*
X2120747Y4418584D01*
X2118766Y4412945D01*
X2116429Y4407509D01*
X2113686Y4402277D01*
X2110536Y4397298D01*
X2107082Y4392523D01*
X2103272Y4388053D01*
X2099106Y4383887D01*
X2094636Y4380026D01*
X2094636Y4368088D01*
X2147214Y4368088D01*
X2148992Y4401108D01*
X2138781Y4401108D01*
X2134260Y4381804D01*
X2106574Y4381804D01*
X2106574Y4382058D01*
X2111451Y4385767D01*
X2116175Y4389729D01*
X2120646Y4393946D01*
X2124811Y4398416D01*
X2128672Y4403140D01*
X2132126Y4408119D01*
X2135124Y4413300D01*
X2137714Y4418685D01*
X2139797Y4424375D01*
X2141321Y4430217D01*
X2142286Y4436262D01*
X2142642Y4442510D01*
X2142286Y4449470D01*
X2141423Y4455972D01*
X2139950Y4462119D01*
X2137918Y4467809D01*
X2135479Y4473041D01*
X2132533Y4477918D01*
X2129180Y4482287D01*
X2125421Y4486249D01*
X2121306Y4489754D01*
X2116886Y4492853D01*
X2112213Y4495444D01*
X2107234Y4497578D01*
X2102104Y4499254D01*
X2096770Y4500473D01*
X2091283Y4501184D01*
G37*
G36*
X1775358Y4500422D02*
G01*
X1719124Y4420158D01*
X1727352Y4420158D01*
X1770481Y4482134D01*
X1770481Y4420158D01*
X1719124Y4420158D01*
X1717700Y4418126D01*
X1717700Y4408728D01*
X1770481Y4408728D01*
X1770481Y4368088D01*
X1786026Y4368088D01*
X1786026Y4408728D01*
X1806600Y4408728D01*
X1806600Y4420158D01*
X1786026Y4420158D01*
X1786026Y4500422D01*
G37*
G36*
X1819808Y4498390D02*
G01*
X1819808Y4483150D01*
X1887880Y4483150D01*
X1836064Y4369866D01*
X1837842Y4368088D01*
X1852828Y4368088D01*
X1898802Y4488992D01*
X1898802Y4498390D01*
G37*
D10*
X5131302Y1077719D02*
G01*
X5141716Y1083053D01*
X5152130Y1093467D01*
X5157210Y1103627D01*
X5157210Y1124455D01*
X5152130Y1134869D01*
X5141716Y1145283D01*
X5131302Y1150617D01*
X5115554Y1155697D01*
X5089646Y1155697D01*
X5074152Y1150617D01*
X5063738Y1145283D01*
X5053324Y1134869D01*
X5048244Y1124455D01*
X5048244Y1103627D01*
X5053324Y1093467D01*
X5063738Y1083053D01*
X5074152Y1077719D01*
X5089646Y1077719D01*
X5089646Y1103627D02*
G01*
X5089646Y1077719D01*
X5157210Y1043429D02*
G01*
X5048244Y1043429D01*
X5157210Y1043429D02*
G01*
X5157210Y996693D01*
X5152130Y981199D01*
X5146796Y975865D01*
X5136382Y970785D01*
X5120888Y970785D01*
X5110474Y975865D01*
X5105394Y981199D01*
X5100060Y996693D01*
X5100060Y1043429D01*
X5157210Y905253D02*
G01*
X5152130Y920747D01*
X5136382Y931161D01*
X5110474Y936495D01*
X5094980Y936495D01*
X5068818Y931161D01*
X5053324Y920747D01*
X5048244Y905253D01*
X5048244Y894839D01*
X5053324Y879345D01*
X5068818Y868931D01*
X5094980Y863597D01*
X5110474Y863597D01*
X5136382Y868931D01*
X5152130Y879345D01*
X5157210Y894839D01*
X5157210Y905253D01*
X5079232Y829307D02*
G01*
X5089646Y829307D01*
X5105394Y824227D01*
X5110474Y813813D01*
X5110474Y803399D01*
X5105394Y792985D01*
X5089646Y772157D01*
X5084566Y761997D01*
X5084566Y751583D01*
X5089646Y741169D01*
X5100060Y735835D01*
X5089646Y829307D02*
G01*
X5100060Y824227D01*
X5105394Y813813D01*
X5105394Y803399D01*
X5100060Y792985D01*
X5084566Y772157D01*
X5079232Y761997D01*
X5079232Y751583D01*
X5084566Y741169D01*
X5100060Y735835D01*
X5110474Y735835D01*
X5136382Y701545D02*
G01*
X5141716Y691131D01*
X5157210Y675637D01*
X5048244Y675637D01*
X5157210Y579117D02*
G01*
X5157210Y630933D01*
X5110474Y636267D01*
X5115554Y630933D01*
X5120888Y615439D01*
X5120888Y599691D01*
X5115554Y584197D01*
X5105394Y573783D01*
X5089646Y568703D01*
X5079232Y568703D01*
X5063738Y573783D01*
X5053324Y584197D01*
X5048244Y599691D01*
X5048244Y615439D01*
X5053324Y630933D01*
X5058404Y636267D01*
X5068818Y641347D01*
X5410713Y1128519D02*
G01*
X5421127Y1133853D01*
X5431541Y1144267D01*
X5436621Y1154427D01*
X5436621Y1175255D01*
X5431541Y1185669D01*
X5421127Y1196083D01*
X5410713Y1201417D01*
X5394965Y1206497D01*
X5369057Y1206497D01*
X5353563Y1201417D01*
X5343149Y1196083D01*
X5332735Y1185669D01*
X5327655Y1175255D01*
X5327655Y1154427D01*
X5332735Y1144267D01*
X5343149Y1133853D01*
X5353563Y1128519D01*
X5369057Y1128519D01*
X5369057Y1154427D02*
G01*
X5369057Y1128519D01*
X5436621Y1094229D02*
G01*
X5327655Y1094229D01*
X5436621Y1094229D02*
G01*
X5436621Y1047493D01*
X5431541Y1031999D01*
X5426207Y1026665D01*
X5415793Y1021585D01*
X5400299Y1021585D01*
X5389885Y1026665D01*
X5384805Y1031999D01*
X5379471Y1047493D01*
X5379471Y1094229D01*
X5415793Y987295D02*
G01*
X5421127Y976881D01*
X5436621Y961387D01*
X5327655Y961387D01*
X5421127Y864613D02*
G01*
X5431541Y869947D01*
X5436621Y885441D01*
X5436621Y895855D01*
X5431541Y911349D01*
X5415793Y921763D01*
X5389885Y927097D01*
X5363977Y927097D01*
X5343149Y921763D01*
X5332735Y911349D01*
X5327655Y895855D01*
X5327655Y890521D01*
X5332735Y875027D01*
X5343149Y864613D01*
X5358643Y859533D01*
X5363977Y859533D01*
X5379471Y864613D01*
X5389885Y875027D01*
X5394965Y890521D01*
X5394965Y895855D01*
X5389885Y911349D01*
X5379471Y921763D01*
X5363977Y927097D01*
X5358643Y825243D02*
G01*
X5369057Y825243D01*
X5384805Y819909D01*
X5389885Y809495D01*
X5389885Y799081D01*
X5384805Y788667D01*
X5369057Y768093D01*
X5363977Y757679D01*
X5363977Y747265D01*
X5369057Y736851D01*
X5379471Y731517D01*
X5369057Y825243D02*
G01*
X5379471Y819909D01*
X5384805Y809495D01*
X5384805Y799081D01*
X5379471Y788667D01*
X5363977Y768093D01*
X5358643Y757679D01*
X5358643Y747265D01*
X5363977Y736851D01*
X5379471Y731517D01*
X5389885Y731517D01*
X5410713Y692147D02*
G01*
X5415793Y692147D01*
X5426207Y687067D01*
X5431541Y681733D01*
X5436621Y671319D01*
X5436621Y650491D01*
X5431541Y640077D01*
X5426207Y634997D01*
X5415793Y629917D01*
X5405379Y629917D01*
X5394965Y634997D01*
X5379471Y645411D01*
X5327655Y697227D01*
X5327655Y624583D01*
X5436621Y517649D02*
G01*
X5327655Y569465D01*
X5436621Y590293D02*
G01*
X5436621Y517649D01*
X1383845Y5341683D02*
G01*
X1274625Y5300281D01*
X1383845Y5258625D02*
G01*
X1274625Y5300281D01*
X1357683Y5146357D02*
G01*
X1368097Y5151691D01*
X1378511Y5162105D01*
X1383845Y5172265D01*
X1383845Y5193093D01*
X1378511Y5203507D01*
X1368097Y5213921D01*
X1357683Y5219255D01*
X1342189Y5224335D01*
X1316281Y5224335D01*
X1300533Y5219255D01*
X1290119Y5213921D01*
X1279705Y5203507D01*
X1274625Y5193093D01*
X1274625Y5172265D01*
X1279705Y5162105D01*
X1290119Y5151691D01*
X1300533Y5146357D01*
X1357683Y5034089D02*
G01*
X1368097Y5039423D01*
X1378511Y5049837D01*
X1383845Y5060251D01*
X1383845Y5080825D01*
X1378511Y5091239D01*
X1368097Y5101653D01*
X1357683Y5106987D01*
X1342189Y5112067D01*
X1316281Y5112067D01*
X1300533Y5106987D01*
X1290119Y5101653D01*
X1279705Y5091239D01*
X1274625Y5080825D01*
X1274625Y5060251D01*
X1279705Y5049837D01*
X1290119Y5039423D01*
X1300533Y5034089D01*
X1356098Y4877752D02*
G01*
X1366512Y4883086D01*
X1376926Y4893500D01*
X1382260Y4903914D01*
X1382260Y4924742D01*
X1376926Y4934902D01*
X1366512Y4945316D01*
X1356098Y4950650D01*
X1340604Y4955730D01*
X1314696Y4955730D01*
X1298948Y4950650D01*
X1288534Y4945316D01*
X1278120Y4934902D01*
X1273040Y4924742D01*
X1273040Y4903914D01*
X1278120Y4893500D01*
X1288534Y4883086D01*
X1298948Y4877752D01*
X1314696Y4877752D01*
X1314696Y4903914D02*
G01*
X1314696Y4877752D01*
X1382260Y4843462D02*
G01*
X1273040Y4843462D01*
X1382260Y4843462D02*
G01*
X1273040Y4770818D01*
X1382260Y4770818D02*
G01*
X1273040Y4770818D01*
X1356098Y4658550D02*
G01*
X1366512Y4663884D01*
X1376926Y4674298D01*
X1382260Y4684712D01*
X1382260Y4705286D01*
X1376926Y4715700D01*
X1366512Y4726114D01*
X1356098Y4731448D01*
X1340604Y4736528D01*
X1314696Y4736528D01*
X1298948Y4731448D01*
X1288534Y4726114D01*
X1278120Y4715700D01*
X1273040Y4705286D01*
X1273040Y4684712D01*
X1278120Y4674298D01*
X1288534Y4663884D01*
X1298948Y4658550D01*
X1314696Y4658550D01*
X1314696Y4684712D02*
G01*
X1314696Y4658550D01*
X580600Y5369877D02*
G01*
X471380Y5369877D01*
X580600Y5369877D02*
G01*
X580600Y5323141D01*
X575266Y5307647D01*
X570186Y5302313D01*
X559772Y5297233D01*
X544024Y5297233D01*
X533610Y5302313D01*
X528530Y5307647D01*
X523450Y5323141D01*
X523450Y5369877D01*
X580600Y5231701D02*
G01*
X575266Y5242115D01*
X564852Y5252529D01*
X554438Y5257609D01*
X538944Y5262943D01*
X513036Y5262943D01*
X497288Y5257609D01*
X486874Y5252529D01*
X476460Y5242115D01*
X471380Y5231701D01*
X471380Y5210873D01*
X476460Y5200459D01*
X486874Y5190299D01*
X497288Y5184965D01*
X513036Y5179885D01*
X538944Y5179885D01*
X554438Y5184965D01*
X564852Y5190299D01*
X575266Y5200459D01*
X580600Y5210873D01*
X580600Y5231701D01*
X580600Y5145595D02*
G01*
X471380Y5119433D01*
X580600Y5093525D02*
G01*
X471380Y5119433D01*
X580600Y5093525D02*
G01*
X471380Y5067617D01*
X580600Y5041709D02*
G01*
X471380Y5067617D01*
X580600Y5007419D02*
G01*
X471380Y5007419D01*
X580600Y5007419D02*
G01*
X580600Y4939855D01*
X528530Y5007419D02*
G01*
X528530Y4965763D01*
X471380Y5007419D02*
G01*
X471380Y4939855D01*
X580600Y4905565D02*
G01*
X471380Y4905565D01*
X580600Y4905565D02*
G01*
X580600Y4858829D01*
X575266Y4843081D01*
X570186Y4838001D01*
X559772Y4832667D01*
X549358Y4832667D01*
X538944Y4838001D01*
X533610Y4843081D01*
X528530Y4858829D01*
X528530Y4905565D01*
X528530Y4868989D02*
G01*
X471380Y4832667D01*
X580600Y4718367D02*
G01*
X471380Y4718367D01*
X580600Y4684077D02*
G01*
X471380Y4684077D01*
X580600Y4684077D02*
G01*
X471380Y4611433D01*
X580600Y4611433D02*
G01*
X471380Y4611433D01*
X1355288Y4277677D02*
G01*
X1246068Y4277677D01*
X1355288Y4277677D02*
G01*
X1246068Y4236275D01*
X1355288Y4194619D02*
G01*
X1246068Y4236275D01*
X1355288Y4194619D02*
G01*
X1246068Y4194619D01*
X1318712Y4134421D02*
G01*
X1313632Y4144835D01*
X1303218Y4155249D01*
X1287724Y4160329D01*
X1277310Y4160329D01*
X1261562Y4155249D01*
X1251148Y4144835D01*
X1246068Y4134421D01*
X1246068Y4118673D01*
X1251148Y4108259D01*
X1261562Y4098099D01*
X1277310Y4092765D01*
X1287724Y4092765D01*
X1303218Y4098099D01*
X1313632Y4108259D01*
X1318712Y4118673D01*
X1318712Y4134421D01*
X1355288Y4042981D02*
G01*
X1266896Y4042981D01*
X1251148Y4037647D01*
X1246068Y4027233D01*
X1246068Y4016819D01*
X1318712Y4058475D02*
G01*
X1318712Y4022153D01*
X1318712Y3956621D02*
G01*
X1313632Y3967035D01*
X1303218Y3977449D01*
X1287724Y3982529D01*
X1277310Y3982529D01*
X1261562Y3977449D01*
X1251148Y3967035D01*
X1246068Y3956621D01*
X1246068Y3941127D01*
X1251148Y3930713D01*
X1261562Y3920299D01*
X1277310Y3915219D01*
X1287724Y3915219D01*
X1303218Y3920299D01*
X1313632Y3930713D01*
X1318712Y3941127D01*
X1318712Y3956621D01*
X1318712Y3880929D02*
G01*
X1246068Y3880929D01*
X1287724Y3880929D02*
G01*
X1303218Y3875595D01*
X1313632Y3865181D01*
X1318712Y3854767D01*
X1318712Y3839273D01*
X1355288Y3763327D02*
G01*
X1246068Y3804983D01*
X1355288Y3763327D02*
G01*
X1246068Y3721925D01*
X1282390Y3789489D02*
G01*
X1282390Y3737419D01*
X1344173Y3495230D02*
G01*
X1234953Y3495230D01*
X1344173Y3495230D02*
G01*
X1234953Y3453828D01*
X1344173Y3412172D02*
G01*
X1234953Y3453828D01*
X1344173Y3412172D02*
G01*
X1234953Y3412172D01*
X1307597Y3351974D02*
G01*
X1302517Y3362388D01*
X1292103Y3372802D01*
X1276609Y3377882D01*
X1266195Y3377882D01*
X1250447Y3372802D01*
X1240033Y3362388D01*
X1234953Y3351974D01*
X1234953Y3336226D01*
X1240033Y3325812D01*
X1250447Y3315652D01*
X1266195Y3310318D01*
X1276609Y3310318D01*
X1292103Y3315652D01*
X1302517Y3325812D01*
X1307597Y3336226D01*
X1307597Y3351974D01*
X1344173Y3260534D02*
G01*
X1255781Y3260534D01*
X1240033Y3255200D01*
X1234953Y3244786D01*
X1234953Y3234372D01*
X1307597Y3276028D02*
G01*
X1307597Y3239706D01*
X1307597Y3174174D02*
G01*
X1302517Y3184588D01*
X1292103Y3195002D01*
X1276609Y3200082D01*
X1266195Y3200082D01*
X1250447Y3195002D01*
X1240033Y3184588D01*
X1234953Y3174174D01*
X1234953Y3158680D01*
X1240033Y3148266D01*
X1250447Y3137852D01*
X1266195Y3132772D01*
X1276609Y3132772D01*
X1292103Y3137852D01*
X1302517Y3148266D01*
X1307597Y3158680D01*
X1307597Y3174174D01*
X1307597Y3098482D02*
G01*
X1234953Y3098482D01*
X1276609Y3098482D02*
G01*
X1292103Y3093148D01*
X1302517Y3082734D01*
X1307597Y3072320D01*
X1307597Y3056826D01*
X1344173Y3022536D02*
G01*
X1234953Y3022536D01*
X1344173Y3022536D02*
G01*
X1344173Y2975800D01*
X1338839Y2960052D01*
X1333759Y2954972D01*
X1323345Y2949892D01*
X1312931Y2949892D01*
X1302517Y2954972D01*
X1297183Y2960052D01*
X1292103Y2975800D01*
X1292103Y3022536D02*
G01*
X1292103Y2975800D01*
X1287023Y2960052D01*
X1281689Y2954972D01*
X1271275Y2949892D01*
X1255781Y2949892D01*
X1245367Y2954972D01*
X1240033Y2960052D01*
X1234953Y2975800D01*
X1234953Y3022536D01*
X1267973Y2606230D02*
G01*
X1158753Y2606230D01*
X1267973Y2606230D02*
G01*
X1158753Y2564828D01*
X1267973Y2523172D02*
G01*
X1158753Y2564828D01*
X1267973Y2523172D02*
G01*
X1158753Y2523172D01*
X1231397Y2462974D02*
G01*
X1226317Y2473388D01*
X1215903Y2483802D01*
X1200409Y2488882D01*
X1189995Y2488882D01*
X1174247Y2483802D01*
X1163833Y2473388D01*
X1158753Y2462974D01*
X1158753Y2447226D01*
X1163833Y2436812D01*
X1174247Y2426652D01*
X1189995Y2421318D01*
X1200409Y2421318D01*
X1215903Y2426652D01*
X1226317Y2436812D01*
X1231397Y2447226D01*
X1231397Y2462974D01*
X1267973Y2371534D02*
G01*
X1179581Y2371534D01*
X1163833Y2366200D01*
X1158753Y2355786D01*
X1158753Y2345372D01*
X1231397Y2387028D02*
G01*
X1231397Y2350706D01*
X1231397Y2285174D02*
G01*
X1226317Y2295588D01*
X1215903Y2306002D01*
X1200409Y2311082D01*
X1189995Y2311082D01*
X1174247Y2306002D01*
X1163833Y2295588D01*
X1158753Y2285174D01*
X1158753Y2269680D01*
X1163833Y2259266D01*
X1174247Y2248852D01*
X1189995Y2243772D01*
X1200409Y2243772D01*
X1215903Y2248852D01*
X1226317Y2259266D01*
X1231397Y2269680D01*
X1231397Y2285174D01*
X1231397Y2209482D02*
G01*
X1158753Y2209482D01*
X1200409Y2209482D02*
G01*
X1215903Y2204148D01*
X1226317Y2193734D01*
X1231397Y2183320D01*
X1231397Y2167826D01*
X1267973Y2091880D02*
G01*
X1158753Y2133536D01*
X1267973Y2091880D02*
G01*
X1158753Y2050478D01*
X1195075Y2118042D02*
G01*
X1195075Y2065972D01*
X1267973Y1974532D02*
G01*
X1158753Y2016188D01*
X1267973Y1974532D02*
G01*
X1158753Y1932876D01*
X1195075Y2000440D02*
G01*
X1195075Y1948624D01*
X1255273Y1793443D02*
G01*
X1146053Y1793443D01*
X1255273Y1793443D02*
G01*
X1146053Y1752041D01*
X1255273Y1710385D02*
G01*
X1146053Y1752041D01*
X1255273Y1710385D02*
G01*
X1146053Y1710385D01*
X1218697Y1650187D02*
G01*
X1213617Y1660601D01*
X1203203Y1670761D01*
X1187709Y1676095D01*
X1177295Y1676095D01*
X1161547Y1670761D01*
X1151133Y1660601D01*
X1146053Y1650187D01*
X1146053Y1634439D01*
X1151133Y1624025D01*
X1161547Y1613611D01*
X1177295Y1608531D01*
X1187709Y1608531D01*
X1203203Y1613611D01*
X1213617Y1624025D01*
X1218697Y1634439D01*
X1218697Y1650187D01*
X1255273Y1558747D02*
G01*
X1166881Y1558747D01*
X1151133Y1553413D01*
X1146053Y1542999D01*
X1146053Y1532585D01*
X1218697Y1574241D02*
G01*
X1218697Y1537919D01*
X1218697Y1472387D02*
G01*
X1213617Y1482801D01*
X1203203Y1493215D01*
X1187709Y1498295D01*
X1177295Y1498295D01*
X1161547Y1493215D01*
X1151133Y1482801D01*
X1146053Y1472387D01*
X1146053Y1456893D01*
X1151133Y1446479D01*
X1161547Y1436065D01*
X1177295Y1430731D01*
X1187709Y1430731D01*
X1203203Y1436065D01*
X1213617Y1446479D01*
X1218697Y1456893D01*
X1218697Y1472387D01*
X1218697Y1396441D02*
G01*
X1146053Y1396441D01*
X1187709Y1396441D02*
G01*
X1203203Y1391361D01*
X1213617Y1380947D01*
X1218697Y1370533D01*
X1218697Y1355039D01*
X1255273Y1320749D02*
G01*
X1146053Y1320749D01*
X1255273Y1320749D02*
G01*
X1255273Y1274013D01*
X1249939Y1258265D01*
X1244859Y1253185D01*
X1234445Y1247851D01*
X1224031Y1247851D01*
X1213617Y1253185D01*
X1208283Y1258265D01*
X1203203Y1274013D01*
X1203203Y1320749D02*
G01*
X1203203Y1274013D01*
X1198123Y1258265D01*
X1192789Y1253185D01*
X1182375Y1247851D01*
X1166881Y1247851D01*
X1156467Y1253185D01*
X1151133Y1258265D01*
X1146053Y1274013D01*
X1146053Y1320749D01*
X1255273Y1213561D02*
G01*
X1146053Y1213561D01*
X1255273Y1213561D02*
G01*
X1255273Y1166825D01*
X1249939Y1151331D01*
X1244859Y1146251D01*
X1234445Y1140917D01*
X1224031Y1140917D01*
X1213617Y1146251D01*
X1208283Y1151331D01*
X1203203Y1166825D01*
X1203203Y1213561D02*
G01*
X1203203Y1166825D01*
X1198123Y1151331D01*
X1192789Y1146251D01*
X1182375Y1140917D01*
X1166881Y1140917D01*
X1156467Y1146251D01*
X1151133Y1151331D01*
X1146053Y1166825D01*
X1146053Y1213561D01*
X2206411Y175879D02*
G01*
X2195997Y186293D01*
X2180249Y191627D01*
X2159675Y191627D01*
X2143927Y186293D01*
X2133513Y175879D01*
X2133513Y165465D01*
X2138847Y155051D01*
X2143927Y149971D01*
X2154341Y144891D01*
X2185583Y134477D01*
X2195997Y129143D01*
X2201077Y124063D01*
X2206411Y113649D01*
X2206411Y97901D01*
X2195997Y87741D01*
X2180249Y82407D01*
X2159675Y82407D01*
X2143927Y87741D01*
X2133513Y97901D01*
X2240701Y124063D02*
G01*
X2302931Y124063D01*
X2302931Y134477D01*
X2297851Y144891D01*
X2292517Y149971D01*
X2282103Y155051D01*
X2266609Y155051D01*
X2256195Y149971D01*
X2245781Y139557D01*
X2240701Y124063D01*
X2240701Y113649D01*
X2245781Y97901D01*
X2256195Y87741D01*
X2266609Y82407D01*
X2282103Y82407D01*
X2292517Y87741D01*
X2302931Y97901D01*
X2337221Y155051D02*
G01*
X2337221Y82407D01*
X2337221Y124063D02*
G01*
X2342555Y139557D01*
X2352715Y149971D01*
X2363129Y155051D01*
X2378877Y155051D01*
X2413167Y155051D02*
G01*
X2444155Y82407D01*
X2475397Y155051D02*
G01*
X2444155Y82407D01*
X2535595Y155051D02*
G01*
X2525435Y149971D01*
X2515021Y139557D01*
X2509687Y124063D01*
X2509687Y113649D01*
X2515021Y97901D01*
X2525435Y87741D01*
X2535595Y82407D01*
X2551343Y82407D01*
X2561757Y87741D01*
X2572171Y97901D01*
X2577251Y113649D01*
X2577251Y124063D01*
X2572171Y139557D01*
X2561757Y149971D01*
X2551343Y155051D01*
X2535595Y155051D01*
X2717459Y160385D02*
G01*
X2717459Y97901D01*
X2691551Y144891D02*
G01*
X2743621Y113649D01*
X2743621Y144891D02*
G01*
X2691551Y113649D01*
X2803819Y191627D02*
G01*
X2788325Y186293D01*
X2782991Y175879D01*
X2782991Y165465D01*
X2788325Y155051D01*
X2798485Y149971D01*
X2819313Y144891D01*
X2835061Y139557D01*
X2845475Y129143D01*
X2850555Y118729D01*
X2850555Y103235D01*
X2845475Y92821D01*
X2840141Y87741D01*
X2824647Y82407D01*
X2803819Y82407D01*
X2788325Y87741D01*
X2782991Y92821D01*
X2777911Y103235D01*
X2777911Y118729D01*
X2782991Y129143D01*
X2793405Y139557D01*
X2808899Y144891D01*
X2829727Y149971D01*
X2840141Y155051D01*
X2845475Y165465D01*
X2845475Y175879D01*
X2840141Y186293D01*
X2824647Y191627D01*
X2803819Y191627D01*
X6719443Y1193736D02*
G01*
X6610223Y1193736D01*
X6719443Y1193736D02*
G01*
X6719443Y1147000D01*
X6714109Y1131506D01*
X6709029Y1126172D01*
X6698615Y1121092D01*
X6688201Y1121092D01*
X6677787Y1126172D01*
X6672453Y1131506D01*
X6667373Y1147000D01*
X6667373Y1193736D02*
G01*
X6667373Y1147000D01*
X6662293Y1131506D01*
X6656959Y1126172D01*
X6646545Y1121092D01*
X6631051Y1121092D01*
X6620637Y1126172D01*
X6615303Y1131506D01*
X6610223Y1147000D01*
X6610223Y1193736D01*
X6719443Y1050480D02*
G01*
X6610223Y1050480D01*
X6719443Y1086802D02*
G01*
X6719443Y1014158D01*
X6719443Y948626D02*
G01*
X6714109Y964120D01*
X6698615Y974534D01*
X6672453Y979868D01*
X6656959Y979868D01*
X6631051Y974534D01*
X6615303Y964120D01*
X6610223Y948626D01*
X6610223Y938212D01*
X6615303Y922718D01*
X6631051Y912304D01*
X6656959Y906970D01*
X6672453Y906970D01*
X6698615Y912304D01*
X6714109Y922718D01*
X6719443Y938212D01*
X6719443Y948626D01*
X6719443Y846772D02*
G01*
X6714109Y862266D01*
X6703695Y867600D01*
X6693281Y867600D01*
X6682867Y862266D01*
X6677787Y851852D01*
X6672453Y831278D01*
X6667373Y815530D01*
X6656959Y805116D01*
X6646545Y800036D01*
X6631051Y800036D01*
X6620637Y805116D01*
X6615303Y810450D01*
X6610223Y825944D01*
X6610223Y846772D01*
X6615303Y862266D01*
X6620637Y867600D01*
X6631051Y872680D01*
X6646545Y872680D01*
X6656959Y867600D01*
X6667373Y857186D01*
X6672453Y841438D01*
X6677787Y820864D01*
X6682867Y810450D01*
X6693281Y805116D01*
X6703695Y805116D01*
X6714109Y810450D01*
X6719443Y825944D01*
X6719443Y846772D01*
X6719443Y2470848D02*
G01*
X6714109Y2486342D01*
X6698615Y2496756D01*
X6672453Y2501836D01*
X6656959Y2501836D01*
X6631051Y2496756D01*
X6615303Y2486342D01*
X6610223Y2470848D01*
X6610223Y2460434D01*
X6615303Y2444686D01*
X6631051Y2434272D01*
X6656959Y2429192D01*
X6672453Y2429192D01*
X6698615Y2434272D01*
X6714109Y2444686D01*
X6719443Y2460434D01*
X6719443Y2470848D01*
X6636131Y2389568D02*
G01*
X6631051Y2394902D01*
X6625717Y2389568D01*
X6631051Y2384488D01*
X6636131Y2389568D01*
X6682867Y2282634D02*
G01*
X6667373Y2287968D01*
X6656959Y2298128D01*
X6651879Y2313876D01*
X6651879Y2318956D01*
X6656959Y2334704D01*
X6667373Y2345118D01*
X6682867Y2350198D01*
X6688201Y2350198D01*
X6703695Y2345118D01*
X6714109Y2334704D01*
X6719443Y2318956D01*
X6719443Y2313876D01*
X6714109Y2298128D01*
X6703695Y2287968D01*
X6682867Y2282634D01*
X6656959Y2282634D01*
X6631051Y2287968D01*
X6615303Y2298128D01*
X6610223Y2313876D01*
X6610223Y2324290D01*
X6615303Y2339784D01*
X6625717Y2345118D01*
X6698615Y2248344D02*
G01*
X6703695Y2237930D01*
X6719443Y2222436D01*
X6610223Y2222436D01*
X6719443Y2076894D02*
G01*
X6714109Y2087308D01*
X6703695Y2097722D01*
X6693281Y2102802D01*
X6677787Y2108136D01*
X6651879Y2108136D01*
X6636131Y2102802D01*
X6625717Y2097722D01*
X6615303Y2087308D01*
X6610223Y2076894D01*
X6610223Y2056066D01*
X6615303Y2045652D01*
X6625717Y2035238D01*
X6636131Y2030158D01*
X6651879Y2025078D01*
X6677787Y2025078D01*
X6693281Y2030158D01*
X6703695Y2035238D01*
X6714109Y2045652D01*
X6719443Y2056066D01*
X6719443Y2076894D01*
X6719443Y1990788D02*
G01*
X6610223Y1990788D01*
X6610223Y1990788D02*
G01*
X6610223Y1928304D01*
X6719443Y1894014D02*
G01*
X6610223Y1894014D01*
X6719443Y1894014D02*
G01*
X6719443Y1826450D01*
X6667373Y1894014D02*
G01*
X6667373Y1852358D01*
X6610223Y1894014D02*
G01*
X6610223Y1826450D01*
X6719443Y1792160D02*
G01*
X6610223Y1792160D01*
X6719443Y1792160D02*
G01*
X6719443Y1755838D01*
X6714109Y1740344D01*
X6703695Y1729930D01*
X6693281Y1724596D01*
X6677787Y1719516D01*
X6651879Y1719516D01*
X6636131Y1724596D01*
X6625717Y1729930D01*
X6615303Y1740344D01*
X6610223Y1755838D01*
X6610223Y1792160D01*
X6757543Y3174949D02*
G01*
X6648323Y3174949D01*
X6757543Y3174949D02*
G01*
X6757543Y3128213D01*
X6752209Y3112719D01*
X6747129Y3107385D01*
X6736715Y3102305D01*
X6726301Y3102305D01*
X6715887Y3107385D01*
X6710553Y3112719D01*
X6705473Y3128213D01*
X6705473Y3174949D02*
G01*
X6705473Y3128213D01*
X6700393Y3112719D01*
X6695059Y3107385D01*
X6684645Y3102305D01*
X6669151Y3102305D01*
X6658737Y3107385D01*
X6653403Y3112719D01*
X6648323Y3128213D01*
X6648323Y3174949D01*
X6720967Y3068015D02*
G01*
X6669151Y3068015D01*
X6653403Y3062681D01*
X6648323Y3052267D01*
X6648323Y3036773D01*
X6653403Y3026359D01*
X6669151Y3010865D01*
X6720967Y3010865D02*
G01*
X6648323Y3010865D01*
X6720967Y2919425D02*
G01*
X6648323Y2976575D01*
X6720967Y2976575D02*
G01*
X6720967Y2919425D01*
X6648323Y2976575D02*
G01*
X6648323Y2919425D01*
X6720967Y2827985D02*
G01*
X6648323Y2885135D01*
X6720967Y2885135D02*
G01*
X6720967Y2827985D01*
X6648323Y2885135D02*
G01*
X6648323Y2827985D01*
X6689979Y2793695D02*
G01*
X6689979Y2731211D01*
X6700393Y2731211D01*
X6710553Y2736545D01*
X6715887Y2741625D01*
X6720967Y2752039D01*
X6720967Y2767787D01*
X6715887Y2777947D01*
X6705473Y2788361D01*
X6689979Y2793695D01*
X6679565Y2793695D01*
X6663817Y2788361D01*
X6653403Y2777947D01*
X6648323Y2767787D01*
X6648323Y2752039D01*
X6653403Y2741625D01*
X6663817Y2731211D01*
X6720967Y2696921D02*
G01*
X6648323Y2696921D01*
X6689979Y2696921D02*
G01*
X6705473Y2691841D01*
X6715887Y2681427D01*
X6720967Y2671013D01*
X6720967Y2655519D01*
X1011999Y734694D02*
G01*
X1011999Y641222D01*
X965263Y687959D02*
G01*
X1058735Y687959D01*
X1155255Y750443D02*
G01*
X1103439Y750443D01*
X1098105Y703452D01*
X1103439Y708786D01*
X1118933Y713867D01*
X1134681Y713867D01*
X1150175Y708786D01*
X1160589Y698372D01*
X1165669Y682878D01*
X1165669Y672464D01*
X1160589Y656717D01*
X1150175Y646302D01*
X1134681Y641222D01*
X1118933Y641222D01*
X1103439Y646302D01*
X1098105Y651636D01*
X1093025Y662051D01*
X1199959Y750443D02*
G01*
X1241615Y641222D01*
X1283271Y750443D02*
G01*
X1241615Y641222D01*
X3818699Y734694D02*
G01*
X3818699Y641222D01*
X3771963Y687959D02*
G01*
X3865435Y687959D01*
X3961955Y750443D02*
G01*
X3910139Y750443D01*
X3904805Y703452D01*
X3910139Y708786D01*
X3925633Y713867D01*
X3941381Y713867D01*
X3956875Y708786D01*
X3967289Y698372D01*
X3972369Y682878D01*
X3972369Y672464D01*
X3967289Y656717D01*
X3956875Y646302D01*
X3941381Y641222D01*
X3925633Y641222D01*
X3910139Y646302D01*
X3904805Y651636D01*
X3899725Y662051D01*
X4006659Y750443D02*
G01*
X4048315Y641222D01*
X4089971Y750443D02*
G01*
X4048315Y641222D01*
X1043241Y470280D02*
G01*
X1037907Y480694D01*
X1027493Y491109D01*
X1017079Y496443D01*
X996251Y496443D01*
X986091Y491109D01*
X975677Y480694D01*
X970343Y470280D01*
X965263Y454786D01*
X965263Y428878D01*
X970343Y413130D01*
X975677Y402717D01*
X986091Y392302D01*
X996251Y387222D01*
X1017079Y387222D01*
X1027493Y392302D01*
X1037907Y402717D01*
X1043241Y413130D01*
X1043241Y428878D01*
X1017079Y428878D02*
G01*
X1043241Y428878D01*
X1077531Y496443D02*
G01*
X1077531Y387222D01*
X1077531Y496443D02*
G01*
X1150175Y387222D01*
X1150175Y496443D02*
G01*
X1150175Y387222D01*
X1184465Y496443D02*
G01*
X1184465Y387222D01*
X1184465Y496443D02*
G01*
X1220787Y496443D01*
X1236281Y491109D01*
X1246695Y480694D01*
X1252029Y470280D01*
X1257109Y454786D01*
X1257109Y428878D01*
X1252029Y413130D01*
X1246695Y402717D01*
X1236281Y392302D01*
X1220787Y387222D01*
X1184465Y387222D01*
X3862641Y457580D02*
G01*
X3857307Y467994D01*
X3846893Y478409D01*
X3836479Y483743D01*
X3815651Y483743D01*
X3805491Y478409D01*
X3795077Y467994D01*
X3789743Y457580D01*
X3784663Y442086D01*
X3784663Y416178D01*
X3789743Y400430D01*
X3795077Y390017D01*
X3805491Y379602D01*
X3815651Y374522D01*
X3836479Y374522D01*
X3846893Y379602D01*
X3857307Y390017D01*
X3862641Y400430D01*
X3862641Y416178D01*
X3836479Y416178D02*
G01*
X3862641Y416178D01*
X3896931Y483743D02*
G01*
X3896931Y374522D01*
X3896931Y483743D02*
G01*
X3969575Y374522D01*
X3969575Y483743D02*
G01*
X3969575Y374522D01*
X4003865Y483743D02*
G01*
X4003865Y374522D01*
X4003865Y483743D02*
G01*
X4040187Y483743D01*
X4055681Y478409D01*
X4066095Y467994D01*
X4071429Y457580D01*
X4076509Y442086D01*
X4076509Y416178D01*
X4071429Y400430D01*
X4066095Y390017D01*
X4055681Y379602D01*
X4040187Y374522D01*
X4003865Y374522D01*
X1161752Y4269054D02*
G01*
X1068280Y4269054D01*
X1115016Y4315790D02*
G01*
X1115016Y4222318D01*
X1108158Y3795090D02*
G01*
X1108158Y3701618D01*
X1110429Y3379088D02*
G01*
X1110429Y3285617D01*
X1063693Y3332352D02*
G01*
X1157165Y3332352D01*
X1108026Y3004997D02*
G01*
X1108026Y3098469D01*
X1081029Y1958644D02*
G01*
X1081029Y2052116D01*
X1068341Y1209344D02*
G01*
X1068341Y1302816D01*
X1072329Y2604388D02*
G01*
X1072329Y2510917D01*
X1025593Y2557652D02*
G01*
X1119065Y2557652D01*
X1073914Y1771142D02*
G01*
X1073914Y1677669D01*
X1027178Y1724405D02*
G01*
X1120650Y1724405D01*
X6757543Y4127449D02*
G01*
X6679565Y4127449D01*
X6663817Y4122369D01*
X6653403Y4111955D01*
X6648323Y4096207D01*
X6648323Y4086047D01*
X6653403Y4070299D01*
X6663817Y4059885D01*
X6679565Y4054805D01*
X6757543Y4054805D01*
X6757543Y4020515D02*
G01*
X6648323Y4020515D01*
X6757543Y3970477D02*
G01*
X6669151Y3970477D01*
X6653403Y3965397D01*
X6648323Y3954983D01*
X6648323Y3944569D01*
X6720967Y3986225D02*
G01*
X6720967Y3949903D01*
X6720967Y3910279D02*
G01*
X6648323Y3910279D01*
X6689979Y3910279D02*
G01*
X6705473Y3905199D01*
X6715887Y3894785D01*
X6720967Y3884371D01*
X6720967Y3868877D01*
X6720967Y3772103D02*
G01*
X6648323Y3772103D01*
X6705473Y3772103D02*
G01*
X6715887Y3782517D01*
X6720967Y3792931D01*
X6720967Y3808425D01*
X6715887Y3818839D01*
X6705473Y3829253D01*
X6689979Y3834587D01*
X6679565Y3834587D01*
X6663817Y3829253D01*
X6653403Y3818839D01*
X6648323Y3808425D01*
X6648323Y3792931D01*
X6653403Y3782517D01*
X6663817Y3772103D01*
X6705473Y3680663D02*
G01*
X6715887Y3685997D01*
X6720967Y3701491D01*
X6720967Y3716985D01*
X6715887Y3732733D01*
X6705473Y3737813D01*
X6695059Y3732733D01*
X6689979Y3722319D01*
X6684645Y3696157D01*
X6679565Y3685997D01*
X6669151Y3680663D01*
X6663817Y3680663D01*
X6653403Y3685997D01*
X6648323Y3701491D01*
X6648323Y3716985D01*
X6653403Y3732733D01*
X6663817Y3737813D01*
X6720967Y3620465D02*
G01*
X6715887Y3630879D01*
X6705473Y3641293D01*
X6689979Y3646373D01*
X6679565Y3646373D01*
X6663817Y3641293D01*
X6653403Y3630879D01*
X6648323Y3620465D01*
X6648323Y3604717D01*
X6653403Y3594557D01*
X6663817Y3584143D01*
X6679565Y3578809D01*
X6689979Y3578809D01*
X6705473Y3584143D01*
X6715887Y3594557D01*
X6720967Y3604717D01*
X6720967Y3620465D01*
X6720967Y3544519D02*
G01*
X6669151Y3544519D01*
X6653403Y3539439D01*
X6648323Y3529025D01*
X6648323Y3513277D01*
X6653403Y3503117D01*
X6669151Y3487369D01*
X6720967Y3487369D02*
G01*
X6648323Y3487369D01*
X6720967Y3453079D02*
G01*
X6648323Y3453079D01*
X6700393Y3453079D02*
G01*
X6715887Y3437585D01*
X6720967Y3427171D01*
X6720967Y3411677D01*
X6715887Y3401263D01*
X6700393Y3395929D01*
X6648323Y3395929D01*
X6757543Y3299409D02*
G01*
X6648323Y3299409D01*
X6705473Y3299409D02*
G01*
X6715887Y3309823D01*
X6720967Y3320237D01*
X6720967Y3335731D01*
X6715887Y3346145D01*
X6705473Y3356559D01*
X6689979Y3361639D01*
X6679565Y3361639D01*
X6663817Y3356559D01*
X6653403Y3346145D01*
X6648323Y3335731D01*
X6648323Y3320237D01*
X6653403Y3309823D01*
X6663817Y3299409D01*
X7107986Y683894D02*
G01*
X7107986Y590422D01*
X7061250Y637159D02*
G01*
X7154722Y637159D01*
X7199426Y699643D02*
G01*
X7256576Y699643D01*
X7225334Y657986D01*
X7241082Y657986D01*
X7251242Y652652D01*
X7256576Y647572D01*
X7261656Y632078D01*
X7261656Y621664D01*
X7256576Y605917D01*
X7246162Y595502D01*
X7230668Y590422D01*
X7214920Y590422D01*
X7199426Y595502D01*
X7194092Y600836D01*
X7189012Y611251D01*
X7301280Y616330D02*
G01*
X7295946Y611251D01*
X7301280Y605917D01*
X7306360Y611251D01*
X7301280Y616330D01*
X7351064Y699643D02*
G01*
X7408214Y699643D01*
X7376972Y657986D01*
X7392720Y657986D01*
X7403134Y652652D01*
X7408214Y647572D01*
X7413548Y632078D01*
X7413548Y621664D01*
X7408214Y605917D01*
X7397800Y595502D01*
X7382306Y590422D01*
X7366812Y590422D01*
X7351064Y595502D01*
X7345984Y600836D01*
X7340650Y611251D01*
X7447838Y699643D02*
G01*
X7489240Y590422D01*
X7530896Y699643D02*
G01*
X7489240Y590422D01*
X7177328Y940180D02*
G01*
X7171994Y950594D01*
X7161580Y961009D01*
X7151166Y966343D01*
X7130338Y966343D01*
X7120178Y961009D01*
X7109764Y950594D01*
X7104430Y940180D01*
X7099350Y924686D01*
X7099350Y898778D01*
X7104430Y883030D01*
X7109764Y872617D01*
X7120178Y862202D01*
X7130338Y857122D01*
X7151166Y857122D01*
X7161580Y862202D01*
X7171994Y872617D01*
X7177328Y883030D01*
X7177328Y898778D01*
X7151166Y898778D02*
G01*
X7177328Y898778D01*
X7211618Y966343D02*
G01*
X7211618Y857122D01*
X7211618Y966343D02*
G01*
X7284262Y857122D01*
X7284262Y966343D02*
G01*
X7284262Y857122D01*
X7318552Y966343D02*
G01*
X7318552Y857122D01*
X7318552Y966343D02*
G01*
X7354874Y966343D01*
X7370368Y961009D01*
X7380782Y950594D01*
X7386116Y940180D01*
X7391196Y924686D01*
X7391196Y898778D01*
X7386116Y883030D01*
X7380782Y872617D01*
X7370368Y862202D01*
X7354874Y857122D01*
X7318552Y857122D01*
X7122972Y1233043D02*
G01*
X7122972Y1123822D01*
X7086650Y1233043D02*
G01*
X7159294Y1233043D01*
X7193584Y1233043D02*
G01*
X7266228Y1123822D01*
X7266228Y1233043D02*
G01*
X7193584Y1123822D01*
X7099350Y1499743D02*
G01*
X7099350Y1390522D01*
X7099350Y1499743D02*
G01*
X7146086Y1499743D01*
X7161580Y1494409D01*
X7166914Y1489328D01*
X7171994Y1478914D01*
X7171994Y1468501D01*
X7166914Y1458086D01*
X7161580Y1452752D01*
X7146086Y1447672D01*
X7099350Y1447672D01*
X7135672Y1447672D02*
G01*
X7171994Y1390522D01*
X7206284Y1499743D02*
G01*
X7278928Y1390522D01*
X7278928Y1499743D02*
G01*
X7206284Y1390522D01*
X7177328Y1752980D02*
G01*
X7171994Y1763394D01*
X7161580Y1773809D01*
X7151166Y1779143D01*
X7130338Y1779143D01*
X7120178Y1773809D01*
X7109764Y1763394D01*
X7104430Y1752980D01*
X7099350Y1737486D01*
X7099350Y1711578D01*
X7104430Y1695830D01*
X7109764Y1685417D01*
X7120178Y1675002D01*
X7130338Y1669922D01*
X7151166Y1669922D01*
X7161580Y1675002D01*
X7171994Y1685417D01*
X7177328Y1695830D01*
X7177328Y1711578D01*
X7151166Y1711578D02*
G01*
X7177328Y1711578D01*
X7211618Y1779143D02*
G01*
X7211618Y1669922D01*
X7211618Y1779143D02*
G01*
X7284262Y1669922D01*
X7284262Y1779143D02*
G01*
X7284262Y1669922D01*
X7318552Y1779143D02*
G01*
X7318552Y1669922D01*
X7318552Y1779143D02*
G01*
X7354874Y1779143D01*
X7370368Y1773809D01*
X7380782Y1763394D01*
X7386116Y1752980D01*
X7391196Y1737486D01*
X7391196Y1711578D01*
X7386116Y1695830D01*
X7380782Y1685417D01*
X7370368Y1675002D01*
X7354874Y1669922D01*
X7318552Y1669922D01*
X7107999Y2042794D02*
G01*
X7107999Y1949322D01*
X7061263Y1996059D02*
G01*
X7154735Y1996059D01*
X7199439Y2058543D02*
G01*
X7256589Y2058543D01*
X7225347Y2016886D01*
X7240841Y2016886D01*
X7251255Y2011552D01*
X7256589Y2006472D01*
X7261669Y1990978D01*
X7261669Y1980564D01*
X7256589Y1964817D01*
X7246175Y1954402D01*
X7230681Y1949322D01*
X7214933Y1949322D01*
X7199439Y1954402D01*
X7194105Y1959736D01*
X7189025Y1970151D01*
X7301293Y1975230D02*
G01*
X7295959Y1970151D01*
X7301293Y1964817D01*
X7306373Y1970151D01*
X7301293Y1975230D01*
X7351077Y2058543D02*
G01*
X7408227Y2058543D01*
X7376985Y2016886D01*
X7392733Y2016886D01*
X7403147Y2011552D01*
X7408227Y2006472D01*
X7413561Y1990978D01*
X7413561Y1980564D01*
X7408227Y1964817D01*
X7397813Y1954402D01*
X7382319Y1949322D01*
X7366571Y1949322D01*
X7351077Y1954402D01*
X7345997Y1959736D01*
X7340663Y1970151D01*
X7447851Y2058543D02*
G01*
X7489253Y1949322D01*
X7530909Y2058543D02*
G01*
X7489253Y1949322D01*
X7159294Y2271394D02*
G01*
X7148880Y2281809D01*
X7133386Y2287143D01*
X7112558Y2287143D01*
X7097064Y2281809D01*
X7086650Y2271394D01*
X7086650Y2260980D01*
X7091730Y2250567D01*
X7097064Y2245486D01*
X7107478Y2240152D01*
X7138466Y2229993D01*
X7148880Y2224659D01*
X7154214Y2219578D01*
X7159294Y2209164D01*
X7159294Y2193417D01*
X7148880Y2183002D01*
X7133386Y2177922D01*
X7112558Y2177922D01*
X7097064Y2183002D01*
X7086650Y2193417D01*
X7271562Y2260980D02*
G01*
X7266482Y2271394D01*
X7256068Y2281809D01*
X7245654Y2287143D01*
X7224826Y2287143D01*
X7214412Y2281809D01*
X7203998Y2271394D01*
X7198918Y2260980D01*
X7193584Y2245486D01*
X7193584Y2219578D01*
X7198918Y2203830D01*
X7203998Y2193417D01*
X7214412Y2183002D01*
X7224826Y2177922D01*
X7245654Y2177922D01*
X7256068Y2183002D01*
X7266482Y2193417D01*
X7271562Y2203830D01*
X7305852Y2287143D02*
G01*
X7305852Y2177922D01*
X7305852Y2177922D02*
G01*
X7368082Y2177922D01*
X7159294Y2550794D02*
G01*
X7148880Y2561209D01*
X7133386Y2566543D01*
X7112558Y2566543D01*
X7097064Y2561209D01*
X7086650Y2550794D01*
X7086650Y2540380D01*
X7091730Y2529967D01*
X7097064Y2524886D01*
X7107478Y2519552D01*
X7138466Y2509393D01*
X7148880Y2504059D01*
X7154214Y2498978D01*
X7159294Y2488564D01*
X7159294Y2472817D01*
X7148880Y2462402D01*
X7133386Y2457322D01*
X7112558Y2457322D01*
X7097064Y2462402D01*
X7086650Y2472817D01*
X7193584Y2566543D02*
G01*
X7193584Y2457322D01*
X7193584Y2566543D02*
G01*
X7229906Y2566543D01*
X7245654Y2561209D01*
X7256068Y2550794D01*
X7261148Y2540380D01*
X7266228Y2524886D01*
X7266228Y2498978D01*
X7261148Y2483230D01*
X7256068Y2472817D01*
X7245654Y2462402D01*
X7229906Y2457322D01*
X7193584Y2457322D01*
X7342174Y2566543D02*
G01*
X7300518Y2457322D01*
X7342174Y2566543D02*
G01*
X7383830Y2457322D01*
X7316266Y2493644D02*
G01*
X7368082Y2493644D01*
X7190041Y3061080D02*
G01*
X7184707Y3071494D01*
X7174293Y3081909D01*
X7163879Y3087243D01*
X7143051Y3087243D01*
X7132891Y3081909D01*
X7122477Y3071494D01*
X7117143Y3061080D01*
X7112063Y3045586D01*
X7112063Y3019678D01*
X7117143Y3003930D01*
X7122477Y2993517D01*
X7132891Y2983102D01*
X7143051Y2978022D01*
X7163879Y2978022D01*
X7174293Y2983102D01*
X7184707Y2993517D01*
X7190041Y3003930D01*
X7190041Y3019678D01*
X7163879Y3019678D02*
G01*
X7190041Y3019678D01*
X7224331Y3087243D02*
G01*
X7224331Y2978022D01*
X7224331Y3087243D02*
G01*
X7296975Y2978022D01*
X7296975Y3087243D02*
G01*
X7296975Y2978022D01*
X7331265Y3087243D02*
G01*
X7331265Y2978022D01*
X7331265Y3087243D02*
G01*
X7367587Y3087243D01*
X7383081Y3081909D01*
X7393495Y3071494D01*
X7398829Y3061080D01*
X7403909Y3045586D01*
X7403909Y3019678D01*
X7398829Y3003930D01*
X7393495Y2993517D01*
X7383081Y2983102D01*
X7367587Y2978022D01*
X7331265Y2978022D01*
X7107999Y3350894D02*
G01*
X7107999Y3257422D01*
X7061263Y3304159D02*
G01*
X7154735Y3304159D01*
X7199439Y3366643D02*
G01*
X7256589Y3366643D01*
X7225347Y3324986D01*
X7240841Y3324986D01*
X7251255Y3319652D01*
X7256589Y3314572D01*
X7261669Y3299078D01*
X7261669Y3288664D01*
X7256589Y3272917D01*
X7246175Y3262502D01*
X7230681Y3257422D01*
X7214933Y3257422D01*
X7199439Y3262502D01*
X7194105Y3267836D01*
X7189025Y3278251D01*
X7301293Y3283330D02*
G01*
X7295959Y3278251D01*
X7301293Y3272917D01*
X7306373Y3278251D01*
X7301293Y3283330D01*
X7351077Y3366643D02*
G01*
X7408227Y3366643D01*
X7376985Y3324986D01*
X7392733Y3324986D01*
X7403147Y3319652D01*
X7408227Y3314572D01*
X7413561Y3299078D01*
X7413561Y3288664D01*
X7408227Y3272917D01*
X7397813Y3262502D01*
X7382319Y3257422D01*
X7366571Y3257422D01*
X7351077Y3262502D01*
X7345997Y3267836D01*
X7340663Y3278251D01*
X7447851Y3366643D02*
G01*
X7489253Y3257422D01*
X7530909Y3366643D02*
G01*
X7489253Y3257422D01*
X7155751Y2820543D02*
G01*
X7145591Y2815209D01*
X7135177Y2804794D01*
X7129843Y2794380D01*
X7124763Y2778886D01*
X7124763Y2752978D01*
X7129843Y2737230D01*
X7135177Y2726817D01*
X7145591Y2716402D01*
X7155751Y2711322D01*
X7176579Y2711322D01*
X7186993Y2716402D01*
X7197407Y2726817D01*
X7202741Y2737230D01*
X7207821Y2752978D01*
X7207821Y2778886D01*
X7202741Y2794380D01*
X7197407Y2804794D01*
X7186993Y2815209D01*
X7176579Y2820543D01*
X7155751Y2820543D01*
X7242111Y2820543D02*
G01*
X7242111Y2742564D01*
X7247191Y2726817D01*
X7257605Y2716402D01*
X7273353Y2711322D01*
X7283767Y2711322D01*
X7299261Y2716402D01*
X7309675Y2726817D01*
X7314755Y2742564D01*
X7314755Y2820543D01*
X7385621Y2820543D02*
G01*
X7385621Y2711322D01*
X7349045Y2820543D02*
G01*
X7421943Y2820543D01*
X7107986Y3630294D02*
G01*
X7107986Y3536822D01*
X7061250Y3583559D02*
G01*
X7154722Y3583559D01*
X7199426Y3646043D02*
G01*
X7256576Y3646043D01*
X7225334Y3604386D01*
X7241082Y3604386D01*
X7251242Y3599052D01*
X7256576Y3593972D01*
X7261656Y3578478D01*
X7261656Y3568064D01*
X7256576Y3552317D01*
X7246162Y3541902D01*
X7230668Y3536822D01*
X7214920Y3536822D01*
X7199426Y3541902D01*
X7194092Y3547236D01*
X7189012Y3557651D01*
X7301280Y3562730D02*
G01*
X7295946Y3557651D01*
X7301280Y3552317D01*
X7306360Y3557651D01*
X7301280Y3562730D01*
X7351064Y3646043D02*
G01*
X7408214Y3646043D01*
X7376972Y3604386D01*
X7392720Y3604386D01*
X7403134Y3599052D01*
X7408214Y3593972D01*
X7413548Y3578478D01*
X7413548Y3568064D01*
X7408214Y3552317D01*
X7397800Y3541902D01*
X7382306Y3536822D01*
X7366812Y3536822D01*
X7351064Y3541902D01*
X7345984Y3547236D01*
X7340650Y3557651D01*
X7447838Y3646043D02*
G01*
X7489240Y3536822D01*
X7530896Y3646043D02*
G01*
X7489240Y3536822D01*
X7110272Y3900043D02*
G01*
X7110272Y3790822D01*
X7073950Y3900043D02*
G01*
X7146594Y3900043D01*
X7180884Y3863467D02*
G01*
X7180884Y3790822D01*
X7180884Y3832478D02*
G01*
X7186218Y3847972D01*
X7196378Y3858386D01*
X7206792Y3863467D01*
X7222540Y3863467D01*
X7256830Y3900043D02*
G01*
X7261910Y3894709D01*
X7267244Y3900043D01*
X7261910Y3905122D01*
X7256830Y3900043D01*
X7261910Y3863467D02*
G01*
X7261910Y3790822D01*
X7363764Y3863467D02*
G01*
X7363764Y3780409D01*
X7358684Y3764914D01*
X7353350Y3759580D01*
X7342936Y3754501D01*
X7327442Y3754501D01*
X7317028Y3759580D01*
X7363764Y3847972D02*
G01*
X7353350Y3858386D01*
X7342936Y3863467D01*
X7327442Y3863467D01*
X7317028Y3858386D01*
X7306614Y3847972D01*
X7301534Y3832478D01*
X7301534Y3822064D01*
X7306614Y3806317D01*
X7317028Y3795902D01*
X7327442Y3790822D01*
X7342936Y3790822D01*
X7353350Y3795902D01*
X7363764Y3806317D01*
X7099350Y4141343D02*
G01*
X7099350Y4032122D01*
X7099350Y4141343D02*
G01*
X7166914Y4141343D01*
X7099350Y4089272D02*
G01*
X7140752Y4089272D01*
X7099350Y4032122D02*
G01*
X7166914Y4032122D01*
X7263434Y4089272D02*
G01*
X7253020Y4099686D01*
X7242606Y4104767D01*
X7227112Y4104767D01*
X7216698Y4099686D01*
X7206284Y4089272D01*
X7201204Y4073778D01*
X7201204Y4063364D01*
X7206284Y4047617D01*
X7216698Y4037202D01*
X7227112Y4032122D01*
X7242606Y4032122D01*
X7253020Y4037202D01*
X7263434Y4047617D01*
X7297724Y4141343D02*
G01*
X7297724Y4032122D01*
X7297724Y4084193D02*
G01*
X7313218Y4099686D01*
X7323632Y4104767D01*
X7339380Y4104767D01*
X7349794Y4099686D01*
X7354874Y4084193D01*
X7354874Y4032122D01*
X7415072Y4104767D02*
G01*
X7404658Y4099686D01*
X7394498Y4089272D01*
X7389164Y4073778D01*
X7389164Y4063364D01*
X7394498Y4047617D01*
X7404658Y4037202D01*
X7415072Y4032122D01*
X7430820Y4032122D01*
X7441234Y4037202D01*
X7451648Y4047617D01*
X7456728Y4063364D01*
X7456728Y4073778D01*
X7451648Y4089272D01*
X7441234Y4099686D01*
X7430820Y4104767D01*
X7415072Y4104767D01*
X7177265Y4394707D02*
G01*
X7171931Y4405121D01*
X7161517Y4415535D01*
X7151357Y4420615D01*
X7130529Y4420615D01*
X7120115Y4415535D01*
X7109701Y4405121D01*
X7104367Y4394707D01*
X7099287Y4378960D01*
X7099287Y4353052D01*
X7104367Y4337557D01*
X7109701Y4327144D01*
X7120115Y4316729D01*
X7130529Y4311650D01*
X7151357Y4311650D01*
X7161517Y4316729D01*
X7171931Y4327144D01*
X7177265Y4337557D01*
X7177265Y4353052D01*
X7151357Y4353052D02*
G01*
X7177265Y4353052D01*
X7211555Y4420615D02*
G01*
X7211555Y4311650D01*
X7211555Y4420615D02*
G01*
X7284199Y4311650D01*
X7284199Y4420615D02*
G01*
X7284199Y4311650D01*
X7318489Y4420615D02*
G01*
X7318489Y4311650D01*
X7318489Y4420615D02*
G01*
X7354811Y4420615D01*
X7370559Y4415535D01*
X7380973Y4405121D01*
X7386053Y4394707D01*
X7391387Y4378960D01*
X7391387Y4353052D01*
X7386053Y4337557D01*
X7380973Y4327144D01*
X7370559Y4316729D01*
X7354811Y4311650D01*
X7318489Y4311650D01*
X1422394Y6215890D02*
G01*
X1432808Y6221224D01*
X1448302Y6236718D01*
X1448302Y6127752D01*
X1513834Y6236718D02*
G01*
X1498340Y6231638D01*
X1487926Y6215890D01*
X1482592Y6189982D01*
X1482592Y6174488D01*
X1487926Y6148326D01*
X1498340Y6132832D01*
X1513834Y6127752D01*
X1524248Y6127752D01*
X1539742Y6132832D01*
X1550156Y6148326D01*
X1555490Y6174488D01*
X1555490Y6189982D01*
X1550156Y6215890D01*
X1539742Y6231638D01*
X1524248Y6236718D01*
X1513834Y6236718D01*
X1620768Y6236718D02*
G01*
X1605274Y6231638D01*
X1594860Y6215890D01*
X1589780Y6189982D01*
X1589780Y6174488D01*
X1594860Y6148326D01*
X1605274Y6132832D01*
X1620768Y6127752D01*
X1631182Y6127752D01*
X1646930Y6132832D01*
X1657344Y6148326D01*
X1662424Y6174488D01*
X1662424Y6189982D01*
X1657344Y6215890D01*
X1646930Y6231638D01*
X1631182Y6236718D01*
X1620768Y6236718D01*
X1727956Y6236718D02*
G01*
X1712208Y6231638D01*
X1701794Y6215890D01*
X1696714Y6189982D01*
X1696714Y6174488D01*
X1701794Y6148326D01*
X1712208Y6132832D01*
X1727956Y6127752D01*
X1738370Y6127752D01*
X1753864Y6132832D01*
X1764278Y6148326D01*
X1769358Y6174488D01*
X1769358Y6189982D01*
X1764278Y6215890D01*
X1753864Y6231638D01*
X1738370Y6236718D01*
X1727956Y6236718D01*
X1803648Y6200396D02*
G01*
X1803648Y6148326D01*
X1808982Y6132832D01*
X1819396Y6127752D01*
X1834890Y6127752D01*
X1845304Y6132832D01*
X1860798Y6148326D01*
X1860798Y6200396D02*
G01*
X1860798Y6127752D01*
X1895088Y6236718D02*
G01*
X1895088Y6127752D01*
X1895088Y6236718D02*
G01*
X1962652Y6236718D01*
X1895088Y6184902D02*
G01*
X1936744Y6184902D01*
X2463914Y4649254D02*
G01*
X2463914Y4540034D01*
X2536558Y4649254D02*
G01*
X2536558Y4540034D01*
X2463914Y4597184D02*
G01*
X2536558Y4597184D01*
X2570848Y4649254D02*
G01*
X2570848Y4540034D01*
X2570848Y4649254D02*
G01*
X2617584Y4649254D01*
X2633078Y4643920D01*
X2638412Y4638840D01*
X2643492Y4628426D01*
X2643492Y4618012D01*
X2638412Y4607598D01*
X2633078Y4602518D01*
X2617584Y4597184D01*
X2570848Y4597184D01*
X2607170Y4597184D02*
G01*
X2643492Y4540034D01*
X2703944Y4649254D02*
G01*
X2688196Y4643920D01*
X2683116Y4633760D01*
X2683116Y4623346D01*
X2688196Y4612932D01*
X2698610Y4607598D01*
X2719438Y4602518D01*
X2734932Y4597184D01*
X2745346Y4586770D01*
X2750680Y4576610D01*
X2750680Y4560862D01*
X2745346Y4550448D01*
X2740266Y4545368D01*
X2724518Y4540034D01*
X2703944Y4540034D01*
X2688196Y4545368D01*
X2683116Y4550448D01*
X2677782Y4560862D01*
X2677782Y4576610D01*
X2683116Y4586770D01*
X2693530Y4597184D01*
X2709024Y4602518D01*
X2729852Y4607598D01*
X2740266Y4612932D01*
X2745346Y4623346D01*
X2745346Y4633760D01*
X2740266Y4643920D01*
X2724518Y4649254D01*
X2703944Y4649254D01*
X2810878Y4649254D02*
G01*
X2795384Y4643920D01*
X2790050Y4633760D01*
X2790050Y4623346D01*
X2795384Y4612932D01*
X2805544Y4607598D01*
X2826372Y4602518D01*
X2842120Y4597184D01*
X2852534Y4586770D01*
X2857614Y4576610D01*
X2857614Y4560862D01*
X2852534Y4550448D01*
X2847200Y4545368D01*
X2831706Y4540034D01*
X2810878Y4540034D01*
X2795384Y4545368D01*
X2790050Y4550448D01*
X2784970Y4560862D01*
X2784970Y4576610D01*
X2790050Y4586770D01*
X2800464Y4597184D01*
X2815958Y4602518D01*
X2836786Y4607598D01*
X2847200Y4612932D01*
X2852534Y4623346D01*
X2852534Y4633760D01*
X2847200Y4643920D01*
X2831706Y4649254D01*
X2810878Y4649254D01*
X2902318Y4649254D02*
G01*
X2959468Y4649254D01*
X2928226Y4607598D01*
X2943974Y4607598D01*
X2954134Y4602518D01*
X2959468Y4597184D01*
X2964548Y4581690D01*
X2964548Y4571276D01*
X2959468Y4555782D01*
X2949054Y4545368D01*
X2933560Y4540034D01*
X2917812Y4540034D01*
X2902318Y4545368D01*
X2896984Y4550448D01*
X2891904Y4560862D01*
X3009252Y4649254D02*
G01*
X3066402Y4649254D01*
X3035414Y4607598D01*
X3050908Y4607598D01*
X3061322Y4602518D01*
X3066402Y4597184D01*
X3071736Y4581690D01*
X3071736Y4571276D01*
X3066402Y4555782D01*
X3055988Y4545368D01*
X3040494Y4540034D01*
X3025000Y4540034D01*
X3009252Y4545368D01*
X3004172Y4550448D01*
X2998838Y4560862D01*
X3106026Y4649254D02*
G01*
X3106026Y4540034D01*
X3106026Y4649254D02*
G01*
X3147428Y4540034D01*
X3189084Y4649254D02*
G01*
X3147428Y4540034D01*
X3189084Y4649254D02*
G01*
X3189084Y4540034D01*
X3259696Y4649254D02*
G01*
X3259696Y4540034D01*
X3223374Y4649254D02*
G01*
X3296018Y4649254D01*
X3330308Y4649254D02*
G01*
X3330308Y4540034D01*
X3330308Y4649254D02*
G01*
X3397872Y4649254D01*
X3330308Y4597184D02*
G01*
X3371964Y4597184D01*
X3330308Y4540034D02*
G01*
X3397872Y4540034D01*
X2438514Y3264954D02*
G01*
X2438514Y3155734D01*
X2511158Y3264954D02*
G01*
X2511158Y3155734D01*
X2438514Y3212884D02*
G01*
X2511158Y3212884D01*
X2545448Y3264954D02*
G01*
X2545448Y3155734D01*
X2545448Y3264954D02*
G01*
X2592184Y3264954D01*
X2607678Y3259620D01*
X2613012Y3254540D01*
X2618092Y3244126D01*
X2618092Y3233712D01*
X2613012Y3223298D01*
X2607678Y3218218D01*
X2592184Y3212884D01*
X2545448Y3212884D01*
X2581770Y3212884D02*
G01*
X2618092Y3155734D01*
X2678544Y3264954D02*
G01*
X2662796Y3259620D01*
X2657716Y3249460D01*
X2657716Y3239046D01*
X2662796Y3228632D01*
X2673210Y3223298D01*
X2694038Y3218218D01*
X2709532Y3212884D01*
X2719946Y3202470D01*
X2725280Y3192310D01*
X2725280Y3176562D01*
X2719946Y3166148D01*
X2714866Y3161068D01*
X2699118Y3155734D01*
X2678544Y3155734D01*
X2662796Y3161068D01*
X2657716Y3166148D01*
X2652382Y3176562D01*
X2652382Y3192310D01*
X2657716Y3202470D01*
X2668130Y3212884D01*
X2683624Y3218218D01*
X2704452Y3223298D01*
X2714866Y3228632D01*
X2719946Y3239046D01*
X2719946Y3249460D01*
X2714866Y3259620D01*
X2699118Y3264954D01*
X2678544Y3264954D01*
X2785478Y3264954D02*
G01*
X2769984Y3259620D01*
X2764650Y3249460D01*
X2764650Y3239046D01*
X2769984Y3228632D01*
X2780144Y3223298D01*
X2800972Y3218218D01*
X2816720Y3212884D01*
X2827134Y3202470D01*
X2832214Y3192310D01*
X2832214Y3176562D01*
X2827134Y3166148D01*
X2821800Y3161068D01*
X2806306Y3155734D01*
X2785478Y3155734D01*
X2769984Y3161068D01*
X2764650Y3166148D01*
X2759570Y3176562D01*
X2759570Y3192310D01*
X2764650Y3202470D01*
X2775064Y3212884D01*
X2790558Y3218218D01*
X2811386Y3223298D01*
X2821800Y3228632D01*
X2827134Y3239046D01*
X2827134Y3249460D01*
X2821800Y3259620D01*
X2806306Y3264954D01*
X2785478Y3264954D01*
X2876918Y3264954D02*
G01*
X2934068Y3264954D01*
X2902826Y3223298D01*
X2918574Y3223298D01*
X2928734Y3218218D01*
X2934068Y3212884D01*
X2939148Y3197390D01*
X2939148Y3186976D01*
X2934068Y3171482D01*
X2923654Y3161068D01*
X2908160Y3155734D01*
X2892412Y3155734D01*
X2876918Y3161068D01*
X2871584Y3166148D01*
X2866504Y3176562D01*
X2983852Y3264954D02*
G01*
X3041002Y3264954D01*
X3010014Y3223298D01*
X3025508Y3223298D01*
X3035922Y3218218D01*
X3041002Y3212884D01*
X3046336Y3197390D01*
X3046336Y3186976D01*
X3041002Y3171482D01*
X3030588Y3161068D01*
X3015094Y3155734D01*
X2999600Y3155734D01*
X2983852Y3161068D01*
X2978772Y3166148D01*
X2973438Y3176562D01*
X3080626Y3264954D02*
G01*
X3080626Y3155734D01*
X3080626Y3264954D02*
G01*
X3122028Y3155734D01*
X3163684Y3264954D02*
G01*
X3122028Y3155734D01*
X3163684Y3264954D02*
G01*
X3163684Y3155734D01*
X3234296Y3264954D02*
G01*
X3234296Y3155734D01*
X3197974Y3264954D02*
G01*
X3270618Y3264954D01*
X3304908Y3264954D02*
G01*
X3304908Y3155734D01*
X3304908Y3264954D02*
G01*
X3372472Y3264954D01*
X3304908Y3212884D02*
G01*
X3346564Y3212884D01*
X3304908Y3155734D02*
G01*
X3372472Y3155734D01*
X2355090Y6400805D02*
G01*
X2360424Y6390391D01*
X2375918Y6374897D01*
X2266952Y6374897D01*
X2375918Y6309365D02*
G01*
X2370838Y6324859D01*
X2355090Y6335273D01*
X2329182Y6340607D01*
X2313688Y6340607D01*
X2287526Y6335273D01*
X2272032Y6324859D01*
X2266952Y6309365D01*
X2266952Y6298951D01*
X2272032Y6283457D01*
X2287526Y6273043D01*
X2313688Y6267709D01*
X2329182Y6267709D01*
X2355090Y6273043D01*
X2370838Y6283457D01*
X2375918Y6298951D01*
X2375918Y6309365D01*
X2375918Y6202431D02*
G01*
X2370838Y6217925D01*
X2355090Y6228339D01*
X2329182Y6233419D01*
X2313688Y6233419D01*
X2287526Y6228339D01*
X2272032Y6217925D01*
X2266952Y6202431D01*
X2266952Y6192017D01*
X2272032Y6176269D01*
X2287526Y6165855D01*
X2313688Y6160775D01*
X2329182Y6160775D01*
X2355090Y6165855D01*
X2370838Y6176269D01*
X2375918Y6192017D01*
X2375918Y6202431D01*
X2339596Y6126485D02*
G01*
X2266952Y6126485D01*
X2318768Y6126485D02*
G01*
X2334262Y6110991D01*
X2339596Y6100577D01*
X2339596Y6084829D01*
X2334262Y6074415D01*
X2318768Y6069335D01*
X2266952Y6069335D01*
X2375918Y6035045D02*
G01*
X2266952Y6035045D01*
X2375918Y6035045D02*
G01*
X2375918Y5967481D01*
X2324102Y6035045D02*
G01*
X2324102Y5993389D01*
X4602982Y7416802D02*
G01*
X4608316Y7406388D01*
X4623810Y7390894D01*
X4514844Y7390894D01*
X4623810Y7325362D02*
G01*
X4618730Y7340856D01*
X4602982Y7351270D01*
X4577074Y7356604D01*
X4561580Y7356604D01*
X4535418Y7351270D01*
X4519924Y7340856D01*
X4514844Y7325362D01*
X4514844Y7314948D01*
X4519924Y7299454D01*
X4535418Y7289040D01*
X4561580Y7283706D01*
X4577074Y7283706D01*
X4602982Y7289040D01*
X4618730Y7299454D01*
X4623810Y7314948D01*
X4623810Y7325362D01*
X4623810Y7218428D02*
G01*
X4618730Y7233922D01*
X4602982Y7244336D01*
X4577074Y7249416D01*
X4561580Y7249416D01*
X4535418Y7244336D01*
X4519924Y7233922D01*
X4514844Y7218428D01*
X4514844Y7208014D01*
X4519924Y7192266D01*
X4535418Y7181852D01*
X4561580Y7176772D01*
X4577074Y7176772D01*
X4602982Y7181852D01*
X4618730Y7192266D01*
X4623810Y7208014D01*
X4623810Y7218428D01*
X4587488Y7142482D02*
G01*
X4514844Y7142482D01*
X4566660Y7142482D02*
G01*
X4582154Y7126988D01*
X4587488Y7116574D01*
X4587488Y7100826D01*
X4582154Y7090412D01*
X4566660Y7085332D01*
X4514844Y7085332D01*
X4623810Y7051042D02*
G01*
X4514844Y7051042D01*
X4623810Y7051042D02*
G01*
X4623810Y6983478D01*
X4571994Y7051042D02*
G01*
X4571994Y7009386D01*
X6546095Y6667502D02*
G01*
X6551429Y6657088D01*
X6566923Y6641594D01*
X6457957Y6641594D01*
X6566923Y6576062D02*
G01*
X6561843Y6591556D01*
X6546095Y6601970D01*
X6520187Y6607304D01*
X6504693Y6607304D01*
X6478531Y6601970D01*
X6463037Y6591556D01*
X6457957Y6576062D01*
X6457957Y6565648D01*
X6463037Y6550154D01*
X6478531Y6539740D01*
X6504693Y6534406D01*
X6520187Y6534406D01*
X6546095Y6539740D01*
X6561843Y6550154D01*
X6566923Y6565648D01*
X6566923Y6576062D01*
X6566923Y6469128D02*
G01*
X6561843Y6484622D01*
X6546095Y6495036D01*
X6520187Y6500116D01*
X6504693Y6500116D01*
X6478531Y6495036D01*
X6463037Y6484622D01*
X6457957Y6469128D01*
X6457957Y6458714D01*
X6463037Y6442966D01*
X6478531Y6432552D01*
X6504693Y6427472D01*
X6520187Y6427472D01*
X6546095Y6432552D01*
X6561843Y6442966D01*
X6566923Y6458714D01*
X6566923Y6469128D01*
X6530601Y6393182D02*
G01*
X6457957Y6393182D01*
X6509773Y6393182D02*
G01*
X6525267Y6377688D01*
X6530601Y6367274D01*
X6530601Y6351526D01*
X6525267Y6341112D01*
X6509773Y6336032D01*
X6457957Y6336032D01*
X6566923Y6301742D02*
G01*
X6457957Y6301742D01*
X6566923Y6301742D02*
G01*
X6566923Y6234178D01*
X6515107Y6301742D02*
G01*
X6515107Y6260086D01*
X3981135Y5513842D02*
G01*
X3986215Y5513842D01*
X3996629Y5508508D01*
X4001963Y5503428D01*
X4007043Y5493014D01*
X4007043Y5472186D01*
X4001963Y5461772D01*
X3996629Y5456692D01*
X3986215Y5451358D01*
X3975801Y5451358D01*
X3965387Y5456692D01*
X3949893Y5466852D01*
X3898077Y5518922D01*
X3898077Y5446278D01*
X3923985Y5406654D02*
G01*
X3918651Y5411988D01*
X3913571Y5406654D01*
X3918651Y5401574D01*
X3923985Y5406654D01*
X3981135Y5361950D02*
G01*
X3986215Y5361950D01*
X3996629Y5356870D01*
X4001963Y5351536D01*
X4007043Y5341122D01*
X4007043Y5320548D01*
X4001963Y5310134D01*
X3996629Y5304800D01*
X3986215Y5299720D01*
X3975801Y5299720D01*
X3965387Y5304800D01*
X3949893Y5315214D01*
X3898077Y5367284D01*
X3898077Y5294386D01*
X3970721Y5260096D02*
G01*
X3918651Y5260096D01*
X3903157Y5255016D01*
X3898077Y5244602D01*
X3898077Y5229108D01*
X3903157Y5218694D01*
X3918651Y5202946D01*
X3970721Y5202946D02*
G01*
X3898077Y5202946D01*
X4007043Y5168656D02*
G01*
X3898077Y5168656D01*
X4007043Y5168656D02*
G01*
X4007043Y5101092D01*
X3955227Y5168656D02*
G01*
X3955227Y5127254D01*
X3182536Y4151830D02*
G01*
X3192950Y4157164D01*
X3208444Y4172658D01*
X3208444Y4063692D01*
X3273976Y4172658D02*
G01*
X3258482Y4167578D01*
X3248068Y4151830D01*
X3242734Y4125922D01*
X3242734Y4110428D01*
X3248068Y4084266D01*
X3258482Y4068772D01*
X3273976Y4063692D01*
X3284390Y4063692D01*
X3299884Y4068772D01*
X3310298Y4084266D01*
X3315632Y4110428D01*
X3315632Y4125922D01*
X3310298Y4151830D01*
X3299884Y4167578D01*
X3284390Y4172658D01*
X3273976Y4172658D01*
X3349922Y4136336D02*
G01*
X3349922Y4063692D01*
X3349922Y4115508D02*
G01*
X3365416Y4131002D01*
X3375830Y4136336D01*
X3391324Y4136336D01*
X3401738Y4131002D01*
X3407072Y4115508D01*
X3407072Y4063692D01*
X3441362Y4172658D02*
G01*
X3441362Y4063692D01*
X3441362Y4172658D02*
G01*
X3508926Y4172658D01*
X3441362Y4120842D02*
G01*
X3482764Y4120842D01*
X3175005Y4336285D02*
G01*
X3185419Y4341619D01*
X3200913Y4357113D01*
X3200913Y4248147D01*
X3266445Y4357113D02*
G01*
X3250951Y4352033D01*
X3240537Y4336285D01*
X3235203Y4310377D01*
X3235203Y4294883D01*
X3240537Y4268721D01*
X3250951Y4253227D01*
X3266445Y4248147D01*
X3276859Y4248147D01*
X3292353Y4253227D01*
X3302767Y4268721D01*
X3308101Y4294883D01*
X3308101Y4310377D01*
X3302767Y4336285D01*
X3292353Y4352033D01*
X3276859Y4357113D01*
X3266445Y4357113D01*
X3342391Y4320791D02*
G01*
X3342391Y4248147D01*
X3342391Y4299963D02*
G01*
X3357885Y4315457D01*
X3368299Y4320791D01*
X3383793Y4320791D01*
X3394207Y4315457D01*
X3399541Y4299963D01*
X3399541Y4248147D01*
X3433831Y4357113D02*
G01*
X3433831Y4248147D01*
X3433831Y4357113D02*
G01*
X3501395Y4357113D01*
X3433831Y4305297D02*
G01*
X3475233Y4305297D01*
X3780863Y3717538D02*
G01*
X3780863Y3722618D01*
X3786197Y3733032D01*
X3791277Y3738366D01*
X3801691Y3743446D01*
X3822519Y3743446D01*
X3832933Y3738366D01*
X3838013Y3733032D01*
X3843347Y3722618D01*
X3843347Y3712204D01*
X3838013Y3701790D01*
X3827853Y3686296D01*
X3775783Y3634480D01*
X3848427Y3634480D01*
X3888051Y3660388D02*
G01*
X3882717Y3655054D01*
X3888051Y3649974D01*
X3893131Y3655054D01*
X3888051Y3660388D01*
X3932755Y3717538D02*
G01*
X3932755Y3722618D01*
X3937835Y3733032D01*
X3943169Y3738366D01*
X3953583Y3743446D01*
X3974157Y3743446D01*
X3984571Y3738366D01*
X3989905Y3733032D01*
X3994985Y3722618D01*
X3994985Y3712204D01*
X3989905Y3701790D01*
X3979491Y3686296D01*
X3927421Y3634480D01*
X4000319Y3634480D01*
X4034609Y3707124D02*
G01*
X4034609Y3655054D01*
X4039689Y3639560D01*
X4050103Y3634480D01*
X4065597Y3634480D01*
X4076011Y3639560D01*
X4091759Y3655054D01*
X4091759Y3707124D02*
G01*
X4091759Y3634480D01*
X4126049Y3743446D02*
G01*
X4126049Y3634480D01*
X4126049Y3743446D02*
G01*
X4193613Y3743446D01*
X4126049Y3691630D02*
G01*
X4167451Y3691630D01*
X3543297Y2532882D02*
G01*
X3553711Y2538216D01*
X3569205Y2553710D01*
X3569205Y2444744D01*
X3634737Y2553710D02*
G01*
X3619243Y2548630D01*
X3608829Y2532882D01*
X3603495Y2506974D01*
X3603495Y2491480D01*
X3608829Y2465318D01*
X3619243Y2449824D01*
X3634737Y2444744D01*
X3645151Y2444744D01*
X3660645Y2449824D01*
X3671059Y2465318D01*
X3676393Y2491480D01*
X3676393Y2506974D01*
X3671059Y2532882D01*
X3660645Y2548630D01*
X3645151Y2553710D01*
X3634737Y2553710D01*
X3710683Y2517388D02*
G01*
X3710683Y2444744D01*
X3710683Y2496560D02*
G01*
X3726177Y2512054D01*
X3736591Y2517388D01*
X3752085Y2517388D01*
X3762499Y2512054D01*
X3767833Y2496560D01*
X3767833Y2444744D01*
X3802123Y2553710D02*
G01*
X3802123Y2444744D01*
X3802123Y2553710D02*
G01*
X3869687Y2553710D01*
X3802123Y2501894D02*
G01*
X3843525Y2501894D01*
X3594094Y3155185D02*
G01*
X3604508Y3160519D01*
X3620002Y3176013D01*
X3620002Y3067047D01*
X3685534Y3176013D02*
G01*
X3670040Y3170933D01*
X3659626Y3155185D01*
X3654292Y3129277D01*
X3654292Y3113783D01*
X3659626Y3087621D01*
X3670040Y3072127D01*
X3685534Y3067047D01*
X3695948Y3067047D01*
X3711442Y3072127D01*
X3721856Y3087621D01*
X3727190Y3113783D01*
X3727190Y3129277D01*
X3721856Y3155185D01*
X3711442Y3170933D01*
X3695948Y3176013D01*
X3685534Y3176013D01*
X3761480Y3139691D02*
G01*
X3761480Y3067047D01*
X3761480Y3118863D02*
G01*
X3776974Y3134357D01*
X3787388Y3139691D01*
X3802882Y3139691D01*
X3813296Y3134357D01*
X3818630Y3118863D01*
X3818630Y3067047D01*
X3852920Y3176013D02*
G01*
X3852920Y3067047D01*
X3852920Y3176013D02*
G01*
X3920484Y3176013D01*
X3852920Y3124197D02*
G01*
X3894322Y3124197D01*
X7059533Y6039611D02*
G01*
X7069947Y6044945D01*
X7085441Y6060439D01*
X7085441Y5951473D01*
X7150973Y6060439D02*
G01*
X7135479Y6055360D01*
X7125065Y6039611D01*
X7119731Y6013703D01*
X7119731Y5998210D01*
X7125065Y5972047D01*
X7135479Y5956553D01*
X7150973Y5951473D01*
X7161387Y5951473D01*
X7176881Y5956553D01*
X7187295Y5972047D01*
X7192629Y5998210D01*
X7192629Y6013703D01*
X7187295Y6039611D01*
X7176881Y6055360D01*
X7161387Y6060439D01*
X7150973Y6060439D01*
X7257907Y6060439D02*
G01*
X7242413Y6055360D01*
X7231999Y6039611D01*
X7226919Y6013703D01*
X7226919Y5998210D01*
X7231999Y5972047D01*
X7242413Y5956553D01*
X7257907Y5951473D01*
X7268321Y5951473D01*
X7284069Y5956553D01*
X7294483Y5972047D01*
X7299563Y5998210D01*
X7299563Y6013703D01*
X7294483Y6039611D01*
X7284069Y6055360D01*
X7268321Y6060439D01*
X7257907Y6060439D01*
X7333853Y6024118D02*
G01*
X7333853Y5951473D01*
X7333853Y6003289D02*
G01*
X7349347Y6018784D01*
X7359761Y6024118D01*
X7375509Y6024118D01*
X7385923Y6018784D01*
X7391003Y6003289D01*
X7391003Y5951473D01*
X7425293Y6060439D02*
G01*
X7425293Y5951473D01*
X7425293Y6060439D02*
G01*
X7492857Y6060439D01*
X7425293Y6008623D02*
G01*
X7466949Y6008623D01*
X6451605Y4666498D02*
G01*
X6462019Y4671832D01*
X6477513Y4687326D01*
X6477513Y4578360D01*
X6543045Y4687326D02*
G01*
X6527551Y4682246D01*
X6517137Y4666498D01*
X6511803Y4640590D01*
X6511803Y4625096D01*
X6517137Y4598934D01*
X6527551Y4583440D01*
X6543045Y4578360D01*
X6553459Y4578360D01*
X6568953Y4583440D01*
X6579367Y4598934D01*
X6584701Y4625096D01*
X6584701Y4640590D01*
X6579367Y4666498D01*
X6568953Y4682246D01*
X6553459Y4687326D01*
X6543045Y4687326D01*
X6649979Y4687326D02*
G01*
X6634485Y4682246D01*
X6624071Y4666498D01*
X6618991Y4640590D01*
X6618991Y4625096D01*
X6624071Y4598934D01*
X6634485Y4583440D01*
X6649979Y4578360D01*
X6660393Y4578360D01*
X6676141Y4583440D01*
X6686555Y4598934D01*
X6691635Y4625096D01*
X6691635Y4640590D01*
X6686555Y4666498D01*
X6676141Y4682246D01*
X6660393Y4687326D01*
X6649979Y4687326D01*
X6725925Y4651004D02*
G01*
X6725925Y4578360D01*
X6725925Y4630176D02*
G01*
X6741419Y4645670D01*
X6751833Y4651004D01*
X6767581Y4651004D01*
X6777995Y4645670D01*
X6783075Y4630176D01*
X6783075Y4578360D01*
X6817365Y4687326D02*
G01*
X6817365Y4578360D01*
X6817365Y4687326D02*
G01*
X6884929Y4687326D01*
X6817365Y4635510D02*
G01*
X6859021Y4635510D01*
X4298182Y7429502D02*
G01*
X4303516Y7419088D01*
X4319010Y7403594D01*
X4210044Y7403594D01*
X4319010Y7338062D02*
G01*
X4313930Y7353556D01*
X4298182Y7363970D01*
X4272274Y7369304D01*
X4256780Y7369304D01*
X4230618Y7363970D01*
X4215124Y7353556D01*
X4210044Y7338062D01*
X4210044Y7327648D01*
X4215124Y7312154D01*
X4230618Y7301740D01*
X4256780Y7296406D01*
X4272274Y7296406D01*
X4298182Y7301740D01*
X4313930Y7312154D01*
X4319010Y7327648D01*
X4319010Y7338062D01*
X4282688Y7262116D02*
G01*
X4230618Y7262116D01*
X4215124Y7257036D01*
X4210044Y7246622D01*
X4210044Y7231128D01*
X4215124Y7220714D01*
X4230618Y7204966D01*
X4282688Y7204966D02*
G01*
X4210044Y7204966D01*
X4319010Y7170676D02*
G01*
X4210044Y7170676D01*
X4319010Y7170676D02*
G01*
X4319010Y7103112D01*
X4267194Y7170676D02*
G01*
X4267194Y7129274D01*
X6226939Y6618229D02*
G01*
X6232273Y6607815D01*
X6247767Y6592321D01*
X6138801Y6592321D01*
X6247767Y6526789D02*
G01*
X6242687Y6542283D01*
X6226939Y6552697D01*
X6201031Y6558031D01*
X6185537Y6558031D01*
X6159375Y6552697D01*
X6143881Y6542283D01*
X6138801Y6526789D01*
X6138801Y6516375D01*
X6143881Y6500881D01*
X6159375Y6490467D01*
X6185537Y6485133D01*
X6201031Y6485133D01*
X6226939Y6490467D01*
X6242687Y6500881D01*
X6247767Y6516375D01*
X6247767Y6526789D01*
X6211445Y6450843D02*
G01*
X6159375Y6450843D01*
X6143881Y6445763D01*
X6138801Y6435349D01*
X6138801Y6419855D01*
X6143881Y6409441D01*
X6159375Y6393693D01*
X6211445Y6393693D02*
G01*
X6138801Y6393693D01*
X6247767Y6359403D02*
G01*
X6138801Y6359403D01*
X6247767Y6359403D02*
G01*
X6247767Y6291839D01*
X6195951Y6359403D02*
G01*
X6195951Y6318001D01*
X2672590Y6413492D02*
G01*
X2677924Y6403078D01*
X2693418Y6387584D01*
X2584452Y6387584D01*
X2693418Y6353294D02*
G01*
X2584452Y6353294D01*
X2693418Y6353294D02*
G01*
X2584452Y6280396D01*
X2693418Y6280396D02*
G01*
X2584452Y6280396D01*
X2693418Y6194290D02*
G01*
X2620774Y6246106D01*
X2620774Y6168382D01*
X2693418Y6194290D02*
G01*
X2584452Y6194290D01*
X2693418Y6102850D02*
G01*
X2688338Y6118344D01*
X2672590Y6128758D01*
X2646682Y6134092D01*
X2631188Y6134092D01*
X2605026Y6128758D01*
X2589532Y6118344D01*
X2584452Y6102850D01*
X2584452Y6092436D01*
X2589532Y6076942D01*
X2605026Y6066528D01*
X2631188Y6061194D01*
X2646682Y6061194D01*
X2672590Y6066528D01*
X2688338Y6076942D01*
X2693418Y6092436D01*
X2693418Y6102850D01*
X2693418Y5995662D02*
G01*
X2688338Y6011410D01*
X2672590Y6021824D01*
X2646682Y6026904D01*
X2631188Y6026904D01*
X2605026Y6021824D01*
X2589532Y6011410D01*
X2584452Y5995662D01*
X2584452Y5985502D01*
X2589532Y5969754D01*
X2605026Y5959340D01*
X2631188Y5954260D01*
X2646682Y5954260D01*
X2672590Y5959340D01*
X2688338Y5969754D01*
X2693418Y5985502D01*
X2693418Y5995662D01*
X2693418Y5847072D02*
G01*
X2584452Y5899142D01*
X2693418Y5919970D02*
G01*
X2693418Y5847072D01*
X3155165Y6438892D02*
G01*
X3160499Y6428478D01*
X3175993Y6412984D01*
X3067027Y6412984D01*
X3175993Y6378694D02*
G01*
X3067027Y6378694D01*
X3175993Y6378694D02*
G01*
X3067027Y6305796D01*
X3175993Y6305796D02*
G01*
X3067027Y6305796D01*
X3175993Y6219690D02*
G01*
X3103349Y6271506D01*
X3103349Y6193782D01*
X3175993Y6219690D02*
G01*
X3067027Y6219690D01*
X3175993Y6128250D02*
G01*
X3170913Y6143744D01*
X3155165Y6154158D01*
X3129257Y6159492D01*
X3113763Y6159492D01*
X3087601Y6154158D01*
X3072107Y6143744D01*
X3067027Y6128250D01*
X3067027Y6117836D01*
X3072107Y6102342D01*
X3087601Y6091928D01*
X3113763Y6086594D01*
X3129257Y6086594D01*
X3155165Y6091928D01*
X3170913Y6102342D01*
X3175993Y6117836D01*
X3175993Y6128250D01*
X3175993Y6021062D02*
G01*
X3170913Y6036810D01*
X3155165Y6047224D01*
X3129257Y6052304D01*
X3113763Y6052304D01*
X3087601Y6047224D01*
X3072107Y6036810D01*
X3067027Y6021062D01*
X3067027Y6010902D01*
X3072107Y5995154D01*
X3087601Y5984740D01*
X3113763Y5979660D01*
X3129257Y5979660D01*
X3155165Y5984740D01*
X3170913Y5995154D01*
X3175993Y6010902D01*
X3175993Y6021062D01*
X3175993Y5872472D02*
G01*
X3067027Y5924542D01*
X3175993Y5945370D02*
G01*
X3175993Y5872472D01*
X4983995Y6515089D02*
G01*
X4989329Y6504675D01*
X5004823Y6489181D01*
X4895857Y6489181D01*
X5004823Y6454891D02*
G01*
X4895857Y6454891D01*
X5004823Y6454891D02*
G01*
X4895857Y6381993D01*
X5004823Y6381993D02*
G01*
X4895857Y6381993D01*
X5004823Y6295887D02*
G01*
X4932179Y6347703D01*
X4932179Y6269979D01*
X5004823Y6295887D02*
G01*
X4895857Y6295887D01*
X5004823Y6204447D02*
G01*
X4999743Y6219941D01*
X4983995Y6230355D01*
X4958087Y6235689D01*
X4942593Y6235689D01*
X4916431Y6230355D01*
X4900937Y6219941D01*
X4895857Y6204447D01*
X4895857Y6194033D01*
X4900937Y6178539D01*
X4916431Y6168125D01*
X4942593Y6162791D01*
X4958087Y6162791D01*
X4983995Y6168125D01*
X4999743Y6178539D01*
X5004823Y6194033D01*
X5004823Y6204447D01*
X5004823Y6097259D02*
G01*
X4999743Y6113007D01*
X4983995Y6123421D01*
X4958087Y6128501D01*
X4942593Y6128501D01*
X4916431Y6123421D01*
X4900937Y6113007D01*
X4895857Y6097259D01*
X4895857Y6087099D01*
X4900937Y6071351D01*
X4916431Y6060937D01*
X4942593Y6055857D01*
X4958087Y6055857D01*
X4983995Y6060937D01*
X4999743Y6071351D01*
X5004823Y6087099D01*
X5004823Y6097259D01*
X5004823Y5948669D02*
G01*
X4895857Y6000739D01*
X5004823Y6021567D02*
G01*
X5004823Y5948669D01*
X1320863Y1220343D02*
G01*
X1320863Y1111122D01*
X1320863Y1220343D02*
G01*
X1357185Y1220343D01*
X1372679Y1215009D01*
X1383093Y1204594D01*
X1388427Y1194180D01*
X1393507Y1178686D01*
X1393507Y1152778D01*
X1388427Y1137030D01*
X1383093Y1126617D01*
X1372679Y1116202D01*
X1357185Y1111122D01*
X1320863Y1111122D01*
X1427797Y1220343D02*
G01*
X1427797Y1111122D01*
X1479867Y1183767D02*
G01*
X1427797Y1131951D01*
X1448625Y1152778D02*
G01*
X1484947Y1111122D01*
X1519237Y1199514D02*
G01*
X1529651Y1204594D01*
X1545145Y1220343D01*
X1545145Y1111122D01*
X1600263Y1207643D02*
G01*
X1600263Y1098422D01*
X1600263Y1207643D02*
G01*
X1636585Y1207643D01*
X1652079Y1202309D01*
X1662493Y1191894D01*
X1667827Y1181480D01*
X1672907Y1165986D01*
X1672907Y1140078D01*
X1667827Y1124330D01*
X1662493Y1113917D01*
X1652079Y1103502D01*
X1636585Y1098422D01*
X1600263Y1098422D01*
X1707197Y1207643D02*
G01*
X1707197Y1098422D01*
X1759267Y1171067D02*
G01*
X1707197Y1119251D01*
X1728025Y1140078D02*
G01*
X1764347Y1098422D01*
X1803971Y1181480D02*
G01*
X1803971Y1186814D01*
X1809051Y1197228D01*
X1814131Y1202309D01*
X1824545Y1207643D01*
X1845373Y1207643D01*
X1855787Y1202309D01*
X1861121Y1197228D01*
X1866201Y1186814D01*
X1866201Y1176401D01*
X1861121Y1165986D01*
X1850707Y1150493D01*
X1798637Y1098422D01*
X1871281Y1098422D01*
X1905000Y1207643D02*
G01*
X1905000Y1098422D01*
X1905000Y1207643D02*
G01*
X1941322Y1207643D01*
X1957070Y1202309D01*
X1967230Y1191894D01*
X1972564Y1181480D01*
X1977644Y1165986D01*
X1977644Y1140078D01*
X1972564Y1124330D01*
X1967230Y1113917D01*
X1957070Y1103502D01*
X1941322Y1098422D01*
X1905000Y1098422D01*
X2011934Y1207643D02*
G01*
X2011934Y1098422D01*
X2064004Y1171067D02*
G01*
X2011934Y1119251D01*
X2032762Y1140078D02*
G01*
X2069084Y1098422D01*
X2113788Y1207643D02*
G01*
X2170938Y1207643D01*
X2139950Y1165986D01*
X2155444Y1165986D01*
X2165858Y1160652D01*
X2170938Y1155572D01*
X2176272Y1140078D01*
X2176272Y1129664D01*
X2170938Y1113917D01*
X2160524Y1103502D01*
X2145030Y1098422D01*
X2129536Y1098422D01*
X2113788Y1103502D01*
X2108708Y1108836D01*
X2103374Y1119251D01*
X2209800Y1207643D02*
G01*
X2209800Y1098422D01*
X2209800Y1207643D02*
G01*
X2246122Y1207643D01*
X2261870Y1202309D01*
X2272030Y1191894D01*
X2277364Y1181480D01*
X2282444Y1165986D01*
X2282444Y1140078D01*
X2277364Y1124330D01*
X2272030Y1113917D01*
X2261870Y1103502D01*
X2246122Y1098422D01*
X2209800Y1098422D01*
X2316734Y1207643D02*
G01*
X2316734Y1098422D01*
X2368804Y1171067D02*
G01*
X2316734Y1119251D01*
X2337562Y1140078D02*
G01*
X2373884Y1098422D01*
X2460244Y1207643D02*
G01*
X2408174Y1134744D01*
X2486152Y1134744D01*
X2460244Y1207643D02*
G01*
X2460244Y1098422D01*
X3517823Y1207643D02*
G01*
X3517823Y1098422D01*
X3517823Y1207643D02*
G01*
X3554145Y1207643D01*
X3569893Y1202309D01*
X3580307Y1191894D01*
X3585387Y1181480D01*
X3590721Y1165986D01*
X3590721Y1140078D01*
X3585387Y1124330D01*
X3580307Y1113917D01*
X3569893Y1103502D01*
X3554145Y1098422D01*
X3517823Y1098422D01*
X3625011Y1207643D02*
G01*
X3625011Y1098422D01*
X3676827Y1171067D02*
G01*
X3625011Y1119251D01*
X3645585Y1140078D02*
G01*
X3682161Y1098422D01*
X3778681Y1207643D02*
G01*
X3726865Y1207643D01*
X3721531Y1160652D01*
X3726865Y1165986D01*
X3742359Y1171067D01*
X3757853Y1171067D01*
X3773601Y1165986D01*
X3784015Y1155572D01*
X3789095Y1140078D01*
X3789095Y1129664D01*
X3784015Y1113917D01*
X3773601Y1103502D01*
X3757853Y1098422D01*
X3742359Y1098422D01*
X3726865Y1103502D01*
X3721531Y1108836D01*
X3716451Y1119251D01*
X3213023Y1207643D02*
G01*
X3213023Y1098422D01*
X3213023Y1207643D02*
G01*
X3249345Y1207643D01*
X3265093Y1202309D01*
X3275507Y1191894D01*
X3280587Y1181480D01*
X3285921Y1165986D01*
X3285921Y1140078D01*
X3280587Y1124330D01*
X3275507Y1113917D01*
X3265093Y1103502D01*
X3249345Y1098422D01*
X3213023Y1098422D01*
X3320211Y1207643D02*
G01*
X3320211Y1098422D01*
X3372027Y1171067D02*
G01*
X3320211Y1119251D01*
X3340785Y1140078D02*
G01*
X3377361Y1098422D01*
X3473881Y1191894D02*
G01*
X3468801Y1202309D01*
X3453053Y1207643D01*
X3442639Y1207643D01*
X3427145Y1202309D01*
X3416731Y1186814D01*
X3411651Y1160652D01*
X3411651Y1134744D01*
X3416731Y1113917D01*
X3427145Y1103502D01*
X3442639Y1098422D01*
X3447973Y1098422D01*
X3463467Y1103502D01*
X3473881Y1113917D01*
X3479215Y1129664D01*
X3479215Y1134744D01*
X3473881Y1150493D01*
X3463467Y1160652D01*
X3447973Y1165986D01*
X3442639Y1165986D01*
X3427145Y1160652D01*
X3416731Y1150493D01*
X3411651Y1134744D01*
X2908223Y1207643D02*
G01*
X2908223Y1098422D01*
X2908223Y1207643D02*
G01*
X2944545Y1207643D01*
X2960293Y1202309D01*
X2970707Y1191894D01*
X2975787Y1181480D01*
X2981121Y1165986D01*
X2981121Y1140078D01*
X2975787Y1124330D01*
X2970707Y1113917D01*
X2960293Y1103502D01*
X2944545Y1098422D01*
X2908223Y1098422D01*
X3015411Y1207643D02*
G01*
X3015411Y1098422D01*
X3067227Y1171067D02*
G01*
X3015411Y1119251D01*
X3035985Y1140078D02*
G01*
X3072561Y1098422D01*
X3179495Y1207643D02*
G01*
X3127425Y1098422D01*
X3106851Y1207643D02*
G01*
X3179495Y1207643D01*
X2616263Y1207643D02*
G01*
X2616263Y1098422D01*
X2616263Y1207643D02*
G01*
X2652585Y1207643D01*
X2668079Y1202309D01*
X2678493Y1191894D01*
X2683827Y1181480D01*
X2688907Y1165986D01*
X2688907Y1140078D01*
X2683827Y1124330D01*
X2678493Y1113917D01*
X2668079Y1103502D01*
X2652585Y1098422D01*
X2616263Y1098422D01*
X2723197Y1207643D02*
G01*
X2723197Y1098422D01*
X2775267Y1171067D02*
G01*
X2723197Y1119251D01*
X2744025Y1140078D02*
G01*
X2780347Y1098422D01*
X2840545Y1207643D02*
G01*
X2825051Y1202309D01*
X2819971Y1191894D01*
X2819971Y1181480D01*
X2825051Y1171067D01*
X2835465Y1165986D01*
X2856293Y1160652D01*
X2871787Y1155572D01*
X2882201Y1145159D01*
X2887281Y1134744D01*
X2887281Y1119251D01*
X2882201Y1108836D01*
X2877121Y1103502D01*
X2861373Y1098422D01*
X2840545Y1098422D01*
X2825051Y1103502D01*
X2819971Y1108836D01*
X2814637Y1119251D01*
X2814637Y1134744D01*
X2819971Y1145159D01*
X2830131Y1155572D01*
X2845879Y1160652D01*
X2866707Y1165986D01*
X2877121Y1171067D01*
X2882201Y1181480D01*
X2882201Y1191894D01*
X2877121Y1202309D01*
X2861373Y1207643D01*
X2840545Y1207643D01*
X6934192Y7303513D02*
G01*
X6934192Y7194547D01*
X6934192Y7194547D02*
G01*
X6996422Y7194547D01*
X7030712Y7303513D02*
G01*
X7030712Y7194547D01*
X7030712Y7303513D02*
G01*
X7098276Y7303513D01*
X7030712Y7251697D02*
G01*
X7072368Y7251697D01*
X7030712Y7194547D02*
G01*
X7098276Y7194547D01*
X7132566Y7303513D02*
G01*
X7132566Y7194547D01*
X7132566Y7303513D02*
G01*
X7169142Y7303513D01*
X7184636Y7298433D01*
X7195050Y7288019D01*
X7200130Y7277605D01*
X7205464Y7261857D01*
X7205464Y7235949D01*
X7200130Y7220455D01*
X7195050Y7210041D01*
X7184636Y7199627D01*
X7169142Y7194547D01*
X7132566Y7194547D01*
X7239754Y7282685D02*
G01*
X7250168Y7288019D01*
X7265662Y7303513D01*
X7265662Y7194547D01*
X6838182Y7302507D02*
G01*
X6843516Y7292093D01*
X6859010Y7276599D01*
X6750044Y7276599D01*
X6859010Y7242309D02*
G01*
X6750044Y7242309D01*
X6859010Y7169411D02*
G01*
X6786366Y7242309D01*
X6812274Y7216147D02*
G01*
X6750044Y7169411D01*
X7171936Y5090919D02*
G01*
X7161522Y5101333D01*
X7146028Y5106413D01*
X7125200Y5106413D01*
X7109706Y5101333D01*
X7099292Y5090919D01*
X7099292Y5080505D01*
X7104372Y5070091D01*
X7109706Y5064757D01*
X7120120Y5059677D01*
X7151362Y5049263D01*
X7161522Y5044183D01*
X7166856Y5038849D01*
X7171936Y5028435D01*
X7171936Y5012941D01*
X7161522Y5002527D01*
X7146028Y4997447D01*
X7125200Y4997447D01*
X7109706Y5002527D01*
X7099292Y5012941D01*
X7206226Y5106413D02*
G01*
X7232388Y4997447D01*
X7258296Y5106413D02*
G01*
X7232388Y4997447D01*
X7258296Y5106413D02*
G01*
X7284204Y4997447D01*
X7310112Y5106413D02*
G01*
X7284204Y4997447D01*
X7344402Y5085585D02*
G01*
X7354816Y5090919D01*
X7370564Y5106413D01*
X7370564Y4997447D01*
X656907Y5662294D02*
G01*
X646493Y5672709D01*
X630999Y5678043D01*
X610171Y5678043D01*
X594677Y5672709D01*
X584263Y5662294D01*
X584263Y5651880D01*
X589343Y5641467D01*
X594677Y5636386D01*
X605091Y5631052D01*
X636079Y5620893D01*
X646493Y5615559D01*
X651827Y5610478D01*
X656907Y5600064D01*
X656907Y5584317D01*
X646493Y5573902D01*
X630999Y5568822D01*
X610171Y5568822D01*
X594677Y5573902D01*
X584263Y5584317D01*
X691197Y5678043D02*
G01*
X717105Y5568822D01*
X743267Y5678043D02*
G01*
X717105Y5568822D01*
X743267Y5678043D02*
G01*
X769175Y5568822D01*
X795083Y5678043D02*
G01*
X769175Y5568822D01*
X834707Y5651880D02*
G01*
X834707Y5657214D01*
X839787Y5667628D01*
X845121Y5672709D01*
X855281Y5678043D01*
X876109Y5678043D01*
X886523Y5672709D01*
X891857Y5667628D01*
X896937Y5657214D01*
X896937Y5646801D01*
X891857Y5636386D01*
X881443Y5620893D01*
X829373Y5568822D01*
X902271Y5568822D01*
X4579180Y324101D02*
G01*
X4579180Y215135D01*
X4579180Y324101D02*
G01*
X4625916Y324101D01*
X4641410Y319021D01*
X4646744Y313687D01*
X4651824Y303273D01*
X4651824Y292859D01*
X4646744Y282445D01*
X4641410Y277365D01*
X4625916Y272285D01*
X4579180Y272285D01*
X4615502Y272285D02*
G01*
X4651824Y215135D01*
X4748598Y287779D02*
G01*
X4748598Y215135D01*
X4748598Y272285D02*
G01*
X4738184Y282445D01*
X4727770Y287779D01*
X4712276Y287779D01*
X4701862Y282445D01*
X4691448Y272285D01*
X4686114Y256537D01*
X4686114Y246123D01*
X4691448Y230629D01*
X4701862Y220215D01*
X4712276Y215135D01*
X4727770Y215135D01*
X4738184Y220215D01*
X4748598Y230629D01*
X4840038Y272285D02*
G01*
X4834704Y282445D01*
X4819210Y287779D01*
X4803716Y287779D01*
X4787968Y282445D01*
X4782888Y272285D01*
X4787968Y261871D01*
X4798382Y256537D01*
X4824290Y251457D01*
X4834704Y246123D01*
X4840038Y235709D01*
X4840038Y230629D01*
X4834704Y220215D01*
X4819210Y215135D01*
X4803716Y215135D01*
X4787968Y220215D01*
X4782888Y230629D01*
X4874328Y287779D02*
G01*
X4874328Y178559D01*
X4874328Y272285D02*
G01*
X4884742Y282445D01*
X4895156Y287779D01*
X4910650Y287779D01*
X4921064Y282445D01*
X4931478Y272285D01*
X4936558Y256537D01*
X4936558Y246123D01*
X4931478Y230629D01*
X4921064Y220215D01*
X4910650Y215135D01*
X4895156Y215135D01*
X4884742Y220215D01*
X4874328Y230629D01*
X4970848Y324101D02*
G01*
X4970848Y215135D01*
X4970848Y272285D02*
G01*
X4981262Y282445D01*
X4991676Y287779D01*
X5007170Y287779D01*
X5017584Y282445D01*
X5027998Y272285D01*
X5033332Y256537D01*
X5033332Y246123D01*
X5027998Y230629D01*
X5017584Y220215D01*
X5007170Y215135D01*
X4991676Y215135D01*
X4981262Y220215D01*
X4970848Y230629D01*
X5067622Y256537D02*
G01*
X5129852Y256537D01*
X5129852Y266951D01*
X5124772Y277365D01*
X5119438Y282445D01*
X5109024Y287779D01*
X5093530Y287779D01*
X5083116Y282445D01*
X5072702Y272285D01*
X5067622Y256537D01*
X5067622Y246123D01*
X5072702Y230629D01*
X5083116Y220215D01*
X5093530Y215135D01*
X5109024Y215135D01*
X5119438Y220215D01*
X5129852Y230629D01*
X5164142Y287779D02*
G01*
X5164142Y215135D01*
X5164142Y256537D02*
G01*
X5169476Y272285D01*
X5179890Y282445D01*
X5190050Y287779D01*
X5205798Y287779D01*
X5240088Y287779D02*
G01*
X5240088Y215135D01*
X5240088Y256537D02*
G01*
X5245168Y272285D01*
X5255582Y282445D01*
X5265996Y287779D01*
X5281490Y287779D01*
X5321114Y287779D02*
G01*
X5352356Y215135D01*
X5383344Y287779D02*
G01*
X5352356Y215135D01*
X5341942Y194307D01*
X5331528Y183893D01*
X5321114Y178559D01*
X5315780Y178559D01*
X5497644Y324101D02*
G01*
X5497644Y215135D01*
X5497644Y324101D02*
G01*
X5544380Y324101D01*
X5560128Y319021D01*
X5565208Y313687D01*
X5570542Y303273D01*
X5570542Y287779D01*
X5565208Y277365D01*
X5560128Y272285D01*
X5544380Y266951D01*
X5497644Y266951D01*
X5604832Y324101D02*
G01*
X5609912Y319021D01*
X5615246Y324101D01*
X5609912Y329435D01*
X5604832Y324101D01*
X5609912Y287779D02*
G01*
X5609912Y215135D01*
X5729546Y287779D02*
G01*
X5729546Y178559D01*
X5729546Y272285D02*
G01*
X5739960Y282445D01*
X5750120Y287779D01*
X5765868Y287779D01*
X5776282Y282445D01*
X5786696Y272285D01*
X5791776Y256537D01*
X5791776Y246123D01*
X5786696Y230629D01*
X5776282Y220215D01*
X5765868Y215135D01*
X5750120Y215135D01*
X5739960Y220215D01*
X5729546Y230629D01*
X5826066Y324101D02*
G01*
X5831400Y319021D01*
X5836480Y324101D01*
X5831400Y329435D01*
X5826066Y324101D01*
X5831400Y287779D02*
G01*
X5831400Y215135D01*
X5933000Y272285D02*
G01*
X5922840Y282445D01*
X5912426Y287779D01*
X5896678Y287779D01*
X5886264Y282445D01*
X5875850Y272285D01*
X5870770Y256537D01*
X5870770Y246123D01*
X5875850Y230629D01*
X5886264Y220215D01*
X5896678Y215135D01*
X5912426Y215135D01*
X5922840Y220215D01*
X5933000Y230629D01*
X5993452Y287779D02*
G01*
X5983038Y282445D01*
X5972624Y272285D01*
X5967290Y256537D01*
X5967290Y246123D01*
X5972624Y230629D01*
X5983038Y220215D01*
X5993452Y215135D01*
X6008946Y215135D01*
X6019360Y220215D01*
X6029774Y230629D01*
X6034854Y246123D01*
X6034854Y256537D01*
X6029774Y272285D01*
X6019360Y282445D01*
X6008946Y287779D01*
X5993452Y287779D01*
X4644461Y4501893D02*
G01*
X4639127Y4512307D01*
X4628713Y4522721D01*
X4618553Y4527801D01*
X4597725Y4527801D01*
X4587311Y4522721D01*
X4576897Y4512307D01*
X4571563Y4501893D01*
X4566483Y4486145D01*
X4566483Y4460237D01*
X4571563Y4444743D01*
X4576897Y4434329D01*
X4587311Y4423915D01*
X4597725Y4418835D01*
X4618553Y4418835D01*
X4628713Y4423915D01*
X4639127Y4434329D01*
X4644461Y4444743D01*
X4644461Y4460237D01*
X4618553Y4460237D02*
G01*
X4644461Y4460237D01*
X4678751Y4527801D02*
G01*
X4678751Y4418835D01*
X4678751Y4527801D02*
G01*
X4725487Y4527801D01*
X4740981Y4522721D01*
X4746315Y4517387D01*
X4751395Y4506973D01*
X4751395Y4491479D01*
X4746315Y4481065D01*
X4740981Y4475985D01*
X4725487Y4470651D01*
X4678751Y4470651D01*
X4796099Y4527801D02*
G01*
X4853249Y4527801D01*
X4822007Y4486145D01*
X4837755Y4486145D01*
X4848169Y4481065D01*
X4853249Y4475985D01*
X4858583Y4460237D01*
X4858583Y4449823D01*
X4853249Y4434329D01*
X4842835Y4423915D01*
X4827341Y4418835D01*
X4811593Y4418835D01*
X4796099Y4423915D01*
X4791019Y4428995D01*
X4785685Y4439409D01*
X4644461Y5517893D02*
G01*
X4639127Y5528307D01*
X4628713Y5538721D01*
X4618553Y5543801D01*
X4597725Y5543801D01*
X4587311Y5538721D01*
X4576897Y5528307D01*
X4571563Y5517893D01*
X4566483Y5502145D01*
X4566483Y5476237D01*
X4571563Y5460743D01*
X4576897Y5450329D01*
X4587311Y5439915D01*
X4597725Y5434835D01*
X4618553Y5434835D01*
X4628713Y5439915D01*
X4639127Y5450329D01*
X4644461Y5460743D01*
X4644461Y5476237D01*
X4618553Y5476237D02*
G01*
X4644461Y5476237D01*
X4678751Y5543801D02*
G01*
X4678751Y5434835D01*
X4678751Y5543801D02*
G01*
X4725487Y5543801D01*
X4740981Y5538721D01*
X4746315Y5533387D01*
X4751395Y5522973D01*
X4751395Y5507479D01*
X4746315Y5497065D01*
X4740981Y5491985D01*
X4725487Y5486651D01*
X4678751Y5486651D01*
X4816927Y5543801D02*
G01*
X4801433Y5538721D01*
X4791019Y5522973D01*
X4785685Y5497065D01*
X4785685Y5481571D01*
X4791019Y5455409D01*
X4801433Y5439915D01*
X4816927Y5434835D01*
X4827341Y5434835D01*
X4842835Y5439915D01*
X4853249Y5455409D01*
X4858583Y5481571D01*
X4858583Y5497065D01*
X4853249Y5522973D01*
X4842835Y5538721D01*
X4827341Y5543801D01*
X4816927Y5543801D01*
X4644461Y5263893D02*
G01*
X4639127Y5274307D01*
X4628713Y5284721D01*
X4618553Y5289801D01*
X4597725Y5289801D01*
X4587311Y5284721D01*
X4576897Y5274307D01*
X4571563Y5263893D01*
X4566483Y5248145D01*
X4566483Y5222237D01*
X4571563Y5206743D01*
X4576897Y5196329D01*
X4587311Y5185915D01*
X4597725Y5180835D01*
X4618553Y5180835D01*
X4628713Y5185915D01*
X4639127Y5196329D01*
X4644461Y5206743D01*
X4644461Y5222237D01*
X4618553Y5222237D02*
G01*
X4644461Y5222237D01*
X4678751Y5289801D02*
G01*
X4678751Y5180835D01*
X4678751Y5289801D02*
G01*
X4725487Y5289801D01*
X4740981Y5284721D01*
X4746315Y5279387D01*
X4751395Y5268973D01*
X4751395Y5253479D01*
X4746315Y5243065D01*
X4740981Y5237985D01*
X4725487Y5232651D01*
X4678751Y5232651D01*
X4785685Y5268973D02*
G01*
X4796099Y5274307D01*
X4811593Y5289801D01*
X4811593Y5180835D01*
X4644461Y5009893D02*
G01*
X4639127Y5020307D01*
X4628713Y5030721D01*
X4618553Y5035801D01*
X4597725Y5035801D01*
X4587311Y5030721D01*
X4576897Y5020307D01*
X4571563Y5009893D01*
X4566483Y4994145D01*
X4566483Y4968237D01*
X4571563Y4952743D01*
X4576897Y4942329D01*
X4587311Y4931915D01*
X4597725Y4926835D01*
X4618553Y4926835D01*
X4628713Y4931915D01*
X4639127Y4942329D01*
X4644461Y4952743D01*
X4644461Y4968237D01*
X4618553Y4968237D02*
G01*
X4644461Y4968237D01*
X4678751Y5035801D02*
G01*
X4678751Y4926835D01*
X4678751Y5035801D02*
G01*
X4751395Y4926835D01*
X4751395Y5035801D02*
G01*
X4751395Y4926835D01*
X4785685Y5035801D02*
G01*
X4785685Y4926835D01*
X4785685Y5035801D02*
G01*
X4822007Y5035801D01*
X4837755Y5030721D01*
X4848169Y5020307D01*
X4853249Y5009893D01*
X4858583Y4994145D01*
X4858583Y4968237D01*
X4853249Y4952743D01*
X4848169Y4942329D01*
X4837755Y4931915D01*
X4822007Y4926835D01*
X4785685Y4926835D01*
X4644461Y4755893D02*
G01*
X4639127Y4766307D01*
X4628713Y4776721D01*
X4618553Y4781801D01*
X4597725Y4781801D01*
X4587311Y4776721D01*
X4576897Y4766307D01*
X4571563Y4755893D01*
X4566483Y4740145D01*
X4566483Y4714237D01*
X4571563Y4698743D01*
X4576897Y4688329D01*
X4587311Y4677915D01*
X4597725Y4672835D01*
X4618553Y4672835D01*
X4628713Y4677915D01*
X4639127Y4688329D01*
X4644461Y4698743D01*
X4644461Y4714237D01*
X4618553Y4714237D02*
G01*
X4644461Y4714237D01*
X4678751Y4781801D02*
G01*
X4678751Y4672835D01*
X4678751Y4781801D02*
G01*
X4725487Y4781801D01*
X4740981Y4776721D01*
X4746315Y4771387D01*
X4751395Y4760973D01*
X4751395Y4745479D01*
X4746315Y4735065D01*
X4740981Y4729985D01*
X4725487Y4724651D01*
X4678751Y4724651D01*
X4791019Y4755893D02*
G01*
X4791019Y4760973D01*
X4796099Y4771387D01*
X4801433Y4776721D01*
X4811593Y4781801D01*
X4832421Y4781801D01*
X4842835Y4776721D01*
X4848169Y4771387D01*
X4853249Y4760973D01*
X4853249Y4750559D01*
X4848169Y4740145D01*
X4837755Y4724651D01*
X4785685Y4672835D01*
X4858583Y4672835D01*
X4644461Y4235193D02*
G01*
X4639127Y4245607D01*
X4628713Y4256021D01*
X4618553Y4261101D01*
X4597725Y4261101D01*
X4587311Y4256021D01*
X4576897Y4245607D01*
X4571563Y4235193D01*
X4566483Y4219445D01*
X4566483Y4193537D01*
X4571563Y4178043D01*
X4576897Y4167629D01*
X4587311Y4157215D01*
X4597725Y4152135D01*
X4618553Y4152135D01*
X4628713Y4157215D01*
X4639127Y4167629D01*
X4644461Y4178043D01*
X4644461Y4193537D01*
X4618553Y4193537D02*
G01*
X4644461Y4193537D01*
X4678751Y4261101D02*
G01*
X4678751Y4152135D01*
X4678751Y4261101D02*
G01*
X4725487Y4261101D01*
X4740981Y4256021D01*
X4746315Y4250687D01*
X4751395Y4240273D01*
X4751395Y4224779D01*
X4746315Y4214365D01*
X4740981Y4209285D01*
X4725487Y4203951D01*
X4678751Y4203951D01*
X4837755Y4261101D02*
G01*
X4785685Y4188457D01*
X4863663Y4188457D01*
X4837755Y4261101D02*
G01*
X4837755Y4152135D01*
X4644461Y3993893D02*
G01*
X4639127Y4004307D01*
X4628713Y4014721D01*
X4618553Y4019801D01*
X4597725Y4019801D01*
X4587311Y4014721D01*
X4576897Y4004307D01*
X4571563Y3993893D01*
X4566483Y3978145D01*
X4566483Y3952237D01*
X4571563Y3936743D01*
X4576897Y3926329D01*
X4587311Y3915915D01*
X4597725Y3910835D01*
X4618553Y3910835D01*
X4628713Y3915915D01*
X4639127Y3926329D01*
X4644461Y3936743D01*
X4644461Y3952237D01*
X4618553Y3952237D02*
G01*
X4644461Y3952237D01*
X4678751Y4019801D02*
G01*
X4678751Y3910835D01*
X4678751Y4019801D02*
G01*
X4725487Y4019801D01*
X4740981Y4014721D01*
X4746315Y4009387D01*
X4751395Y3998973D01*
X4751395Y3983479D01*
X4746315Y3973065D01*
X4740981Y3967985D01*
X4725487Y3962651D01*
X4678751Y3962651D01*
X4848169Y4019801D02*
G01*
X4796099Y4019801D01*
X4791019Y3973065D01*
X4796099Y3978145D01*
X4811593Y3983479D01*
X4827341Y3983479D01*
X4842835Y3978145D01*
X4853249Y3967985D01*
X4858583Y3952237D01*
X4858583Y3941823D01*
X4853249Y3926329D01*
X4842835Y3915915D01*
X4827341Y3910835D01*
X4811593Y3910835D01*
X4796099Y3915915D01*
X4791019Y3920995D01*
X4785685Y3931409D01*
X4644461Y3739893D02*
G01*
X4639127Y3750307D01*
X4628713Y3760721D01*
X4618553Y3765801D01*
X4597725Y3765801D01*
X4587311Y3760721D01*
X4576897Y3750307D01*
X4571563Y3739893D01*
X4566483Y3724145D01*
X4566483Y3698237D01*
X4571563Y3682743D01*
X4576897Y3672329D01*
X4587311Y3661915D01*
X4597725Y3656835D01*
X4618553Y3656835D01*
X4628713Y3661915D01*
X4639127Y3672329D01*
X4644461Y3682743D01*
X4644461Y3698237D01*
X4618553Y3698237D02*
G01*
X4644461Y3698237D01*
X4678751Y3765801D02*
G01*
X4678751Y3656835D01*
X4678751Y3765801D02*
G01*
X4751395Y3656835D01*
X4751395Y3765801D02*
G01*
X4751395Y3656835D01*
X4785685Y3765801D02*
G01*
X4785685Y3656835D01*
X4785685Y3765801D02*
G01*
X4822007Y3765801D01*
X4837755Y3760721D01*
X4848169Y3750307D01*
X4853249Y3739893D01*
X4858583Y3724145D01*
X4858583Y3698237D01*
X4853249Y3682743D01*
X4848169Y3672329D01*
X4837755Y3661915D01*
X4822007Y3656835D01*
X4785685Y3656835D01*
X4644461Y3485893D02*
G01*
X4639127Y3496307D01*
X4628713Y3506721D01*
X4618553Y3511801D01*
X4597725Y3511801D01*
X4587311Y3506721D01*
X4576897Y3496307D01*
X4571563Y3485893D01*
X4566483Y3470145D01*
X4566483Y3444237D01*
X4571563Y3428743D01*
X4576897Y3418329D01*
X4587311Y3407915D01*
X4597725Y3402835D01*
X4618553Y3402835D01*
X4628713Y3407915D01*
X4639127Y3418329D01*
X4644461Y3428743D01*
X4644461Y3444237D01*
X4618553Y3444237D02*
G01*
X4644461Y3444237D01*
X4678751Y3511801D02*
G01*
X4678751Y3402835D01*
X4678751Y3511801D02*
G01*
X4725487Y3511801D01*
X4740981Y3506721D01*
X4746315Y3501387D01*
X4751395Y3490973D01*
X4751395Y3475479D01*
X4746315Y3465065D01*
X4740981Y3459985D01*
X4725487Y3454651D01*
X4678751Y3454651D01*
X4848169Y3496307D02*
G01*
X4842835Y3506721D01*
X4827341Y3511801D01*
X4816927Y3511801D01*
X4801433Y3506721D01*
X4791019Y3490973D01*
X4785685Y3465065D01*
X4785685Y3439157D01*
X4791019Y3418329D01*
X4801433Y3407915D01*
X4816927Y3402835D01*
X4822007Y3402835D01*
X4837755Y3407915D01*
X4848169Y3418329D01*
X4853249Y3433823D01*
X4853249Y3439157D01*
X4848169Y3454651D01*
X4837755Y3465065D01*
X4822007Y3470145D01*
X4816927Y3470145D01*
X4801433Y3465065D01*
X4791019Y3454651D01*
X4785685Y3439157D01*
X4644461Y3231893D02*
G01*
X4639127Y3242307D01*
X4628713Y3252721D01*
X4618553Y3257801D01*
X4597725Y3257801D01*
X4587311Y3252721D01*
X4576897Y3242307D01*
X4571563Y3231893D01*
X4566483Y3216145D01*
X4566483Y3190237D01*
X4571563Y3174743D01*
X4576897Y3164329D01*
X4587311Y3153915D01*
X4597725Y3148835D01*
X4618553Y3148835D01*
X4628713Y3153915D01*
X4639127Y3164329D01*
X4644461Y3174743D01*
X4644461Y3190237D01*
X4618553Y3190237D02*
G01*
X4644461Y3190237D01*
X4678751Y3257801D02*
G01*
X4678751Y3148835D01*
X4678751Y3257801D02*
G01*
X4725487Y3257801D01*
X4740981Y3252721D01*
X4746315Y3247387D01*
X4751395Y3236973D01*
X4751395Y3221479D01*
X4746315Y3211065D01*
X4740981Y3205985D01*
X4725487Y3200651D01*
X4678751Y3200651D01*
X4858583Y3257801D02*
G01*
X4806513Y3148835D01*
X4785685Y3257801D02*
G01*
X4858583Y3257801D01*
X4644461Y2977893D02*
G01*
X4639127Y2988307D01*
X4628713Y2998721D01*
X4618553Y3003801D01*
X4597725Y3003801D01*
X4587311Y2998721D01*
X4576897Y2988307D01*
X4571563Y2977893D01*
X4566483Y2962145D01*
X4566483Y2936237D01*
X4571563Y2920743D01*
X4576897Y2910329D01*
X4587311Y2899915D01*
X4597725Y2894835D01*
X4618553Y2894835D01*
X4628713Y2899915D01*
X4639127Y2910329D01*
X4644461Y2920743D01*
X4644461Y2936237D01*
X4618553Y2936237D02*
G01*
X4644461Y2936237D01*
X4678751Y3003801D02*
G01*
X4678751Y2894835D01*
X4678751Y3003801D02*
G01*
X4725487Y3003801D01*
X4740981Y2998721D01*
X4746315Y2993387D01*
X4751395Y2982973D01*
X4751395Y2967479D01*
X4746315Y2957065D01*
X4740981Y2951985D01*
X4725487Y2946651D01*
X4678751Y2946651D01*
X4811593Y3003801D02*
G01*
X4796099Y2998721D01*
X4791019Y2988307D01*
X4791019Y2977893D01*
X4796099Y2967479D01*
X4806513Y2962145D01*
X4827341Y2957065D01*
X4842835Y2951985D01*
X4853249Y2941571D01*
X4858583Y2931157D01*
X4858583Y2915409D01*
X4853249Y2904995D01*
X4848169Y2899915D01*
X4832421Y2894835D01*
X4811593Y2894835D01*
X4796099Y2899915D01*
X4791019Y2904995D01*
X4785685Y2915409D01*
X4785685Y2931157D01*
X4791019Y2941571D01*
X4801433Y2951985D01*
X4816927Y2957065D01*
X4837755Y2962145D01*
X4848169Y2967479D01*
X4853249Y2977893D01*
X4853249Y2988307D01*
X4848169Y2998721D01*
X4832421Y3003801D01*
X4811593Y3003801D01*
X4644461Y2723893D02*
G01*
X4639127Y2734307D01*
X4628713Y2744721D01*
X4618553Y2749801D01*
X4597725Y2749801D01*
X4587311Y2744721D01*
X4576897Y2734307D01*
X4571563Y2723893D01*
X4566483Y2708145D01*
X4566483Y2682237D01*
X4571563Y2666743D01*
X4576897Y2656329D01*
X4587311Y2645915D01*
X4597725Y2640835D01*
X4618553Y2640835D01*
X4628713Y2645915D01*
X4639127Y2656329D01*
X4644461Y2666743D01*
X4644461Y2682237D01*
X4618553Y2682237D02*
G01*
X4644461Y2682237D01*
X4678751Y2749801D02*
G01*
X4678751Y2640835D01*
X4678751Y2749801D02*
G01*
X4725487Y2749801D01*
X4740981Y2744721D01*
X4746315Y2739387D01*
X4751395Y2728973D01*
X4751395Y2713479D01*
X4746315Y2703065D01*
X4740981Y2697985D01*
X4725487Y2692651D01*
X4678751Y2692651D01*
X4853249Y2713479D02*
G01*
X4848169Y2697985D01*
X4837755Y2687571D01*
X4822007Y2682237D01*
X4816927Y2682237D01*
X4801433Y2687571D01*
X4791019Y2697985D01*
X4785685Y2713479D01*
X4785685Y2718559D01*
X4791019Y2734307D01*
X4801433Y2744721D01*
X4816927Y2749801D01*
X4822007Y2749801D01*
X4837755Y2744721D01*
X4848169Y2734307D01*
X4853249Y2713479D01*
X4853249Y2687571D01*
X4848169Y2661409D01*
X4837755Y2645915D01*
X4822007Y2640835D01*
X4811593Y2640835D01*
X4796099Y2645915D01*
X4791019Y2656329D01*
X4644461Y2469893D02*
G01*
X4639127Y2480307D01*
X4628713Y2490721D01*
X4618553Y2495801D01*
X4597725Y2495801D01*
X4587311Y2490721D01*
X4576897Y2480307D01*
X4571563Y2469893D01*
X4566483Y2454145D01*
X4566483Y2428237D01*
X4571563Y2412743D01*
X4576897Y2402329D01*
X4587311Y2391915D01*
X4597725Y2386835D01*
X4618553Y2386835D01*
X4628713Y2391915D01*
X4639127Y2402329D01*
X4644461Y2412743D01*
X4644461Y2428237D01*
X4618553Y2428237D02*
G01*
X4644461Y2428237D01*
X4678751Y2495801D02*
G01*
X4678751Y2386835D01*
X4678751Y2495801D02*
G01*
X4751395Y2386835D01*
X4751395Y2495801D02*
G01*
X4751395Y2386835D01*
X4785685Y2495801D02*
G01*
X4785685Y2386835D01*
X4785685Y2495801D02*
G01*
X4822007Y2495801D01*
X4837755Y2490721D01*
X4848169Y2480307D01*
X4853249Y2469893D01*
X4858583Y2454145D01*
X4858583Y2428237D01*
X4853249Y2412743D01*
X4848169Y2402329D01*
X4837755Y2391915D01*
X4822007Y2386835D01*
X4785685Y2386835D01*
X4644458Y2228593D02*
G01*
X4639124Y2239007D01*
X4628710Y2249421D01*
X4618550Y2254501D01*
X4597722Y2254501D01*
X4587308Y2249421D01*
X4576894Y2239007D01*
X4571560Y2228593D01*
X4566480Y2212845D01*
X4566480Y2186937D01*
X4571560Y2171443D01*
X4576894Y2161029D01*
X4587308Y2150615D01*
X4597722Y2145535D01*
X4618550Y2145535D01*
X4628710Y2150615D01*
X4639124Y2161029D01*
X4644458Y2171443D01*
X4644458Y2186937D01*
X4618550Y2186937D02*
G01*
X4644458Y2186937D01*
X4678748Y2254501D02*
G01*
X4678748Y2145535D01*
X4678748Y2254501D02*
G01*
X4725484Y2254501D01*
X4740978Y2249421D01*
X4746312Y2244087D01*
X4751392Y2233673D01*
X4751392Y2218179D01*
X4746312Y2207765D01*
X4740978Y2202685D01*
X4725484Y2197351D01*
X4678748Y2197351D01*
X4785682Y2233673D02*
G01*
X4796096Y2239007D01*
X4811590Y2254501D01*
X4811590Y2145535D01*
X4877122Y2254501D02*
G01*
X4861628Y2249421D01*
X4851214Y2233673D01*
X4845880Y2207765D01*
X4845880Y2192271D01*
X4851214Y2166109D01*
X4861628Y2150615D01*
X4877122Y2145535D01*
X4887536Y2145535D01*
X4903030Y2150615D01*
X4913444Y2166109D01*
X4918778Y2192271D01*
X4918778Y2207765D01*
X4913444Y2233673D01*
X4903030Y2249421D01*
X4887536Y2254501D01*
X4877122Y2254501D01*
X4644461Y945893D02*
G01*
X4639127Y956307D01*
X4628713Y966721D01*
X4618553Y971801D01*
X4597725Y971801D01*
X4587311Y966721D01*
X4576897Y956307D01*
X4571563Y945893D01*
X4566483Y930145D01*
X4566483Y904237D01*
X4571563Y888743D01*
X4576897Y878329D01*
X4587311Y867915D01*
X4597725Y862835D01*
X4618553Y862835D01*
X4628713Y867915D01*
X4639127Y878329D01*
X4644461Y888743D01*
X4644461Y904237D01*
X4618553Y904237D02*
G01*
X4644461Y904237D01*
X4678751Y971801D02*
G01*
X4678751Y862835D01*
X4678751Y971801D02*
G01*
X4725487Y971801D01*
X4740981Y966721D01*
X4746315Y961387D01*
X4751395Y950973D01*
X4751395Y935479D01*
X4746315Y925065D01*
X4740981Y919985D01*
X4725487Y914651D01*
X4678751Y914651D01*
X4785685Y950973D02*
G01*
X4796099Y956307D01*
X4811593Y971801D01*
X4811593Y862835D01*
X4897953Y971801D02*
G01*
X4845883Y899157D01*
X4923861Y899157D01*
X4897953Y971801D02*
G01*
X4897953Y862835D01*
X4644461Y1199893D02*
G01*
X4639127Y1210307D01*
X4628713Y1220721D01*
X4618553Y1225801D01*
X4597725Y1225801D01*
X4587311Y1220721D01*
X4576897Y1210307D01*
X4571563Y1199893D01*
X4566483Y1184145D01*
X4566483Y1158237D01*
X4571563Y1142743D01*
X4576897Y1132329D01*
X4587311Y1121915D01*
X4597725Y1116835D01*
X4618553Y1116835D01*
X4628713Y1121915D01*
X4639127Y1132329D01*
X4644461Y1142743D01*
X4644461Y1158237D01*
X4618553Y1158237D02*
G01*
X4644461Y1158237D01*
X4678751Y1225801D02*
G01*
X4678751Y1116835D01*
X4678751Y1225801D02*
G01*
X4751395Y1116835D01*
X4751395Y1225801D02*
G01*
X4751395Y1116835D01*
X4785685Y1225801D02*
G01*
X4785685Y1116835D01*
X4785685Y1225801D02*
G01*
X4822007Y1225801D01*
X4837755Y1220721D01*
X4848169Y1210307D01*
X4853249Y1199893D01*
X4858583Y1184145D01*
X4858583Y1158237D01*
X4853249Y1142743D01*
X4848169Y1132329D01*
X4837755Y1121915D01*
X4822007Y1116835D01*
X4785685Y1116835D01*
X4619058Y1453893D02*
G01*
X4613724Y1464307D01*
X4603310Y1474721D01*
X4593150Y1479801D01*
X4572322Y1479801D01*
X4561908Y1474721D01*
X4551494Y1464307D01*
X4546160Y1453893D01*
X4541080Y1438145D01*
X4541080Y1412237D01*
X4546160Y1396743D01*
X4551494Y1386329D01*
X4561908Y1375915D01*
X4572322Y1370835D01*
X4593150Y1370835D01*
X4603310Y1375915D01*
X4613724Y1386329D01*
X4619058Y1396743D01*
X4619058Y1412237D01*
X4593150Y1412237D02*
G01*
X4619058Y1412237D01*
X4653348Y1479801D02*
G01*
X4653348Y1370835D01*
X4653348Y1479801D02*
G01*
X4700084Y1479801D01*
X4715578Y1474721D01*
X4720912Y1469387D01*
X4725992Y1458973D01*
X4725992Y1443479D01*
X4720912Y1433065D01*
X4715578Y1427985D01*
X4700084Y1422651D01*
X4653348Y1422651D01*
X4760282Y1458973D02*
G01*
X4770696Y1464307D01*
X4786190Y1479801D01*
X4786190Y1370835D01*
X4830894Y1479801D02*
G01*
X4888044Y1479801D01*
X4857056Y1438145D01*
X4872550Y1438145D01*
X4882964Y1433065D01*
X4888044Y1427985D01*
X4893378Y1412237D01*
X4893378Y1401823D01*
X4888044Y1386329D01*
X4877630Y1375915D01*
X4862136Y1370835D01*
X4846642Y1370835D01*
X4830894Y1375915D01*
X4825814Y1380995D01*
X4820480Y1391409D01*
X4631758Y1707893D02*
G01*
X4626424Y1718307D01*
X4616010Y1728721D01*
X4605850Y1733801D01*
X4585022Y1733801D01*
X4574608Y1728721D01*
X4564194Y1718307D01*
X4558860Y1707893D01*
X4553780Y1692145D01*
X4553780Y1666237D01*
X4558860Y1650743D01*
X4564194Y1640329D01*
X4574608Y1629915D01*
X4585022Y1624835D01*
X4605850Y1624835D01*
X4616010Y1629915D01*
X4626424Y1640329D01*
X4631758Y1650743D01*
X4631758Y1666237D01*
X4605850Y1666237D02*
G01*
X4631758Y1666237D01*
X4666048Y1733801D02*
G01*
X4666048Y1624835D01*
X4666048Y1733801D02*
G01*
X4712784Y1733801D01*
X4728278Y1728721D01*
X4733612Y1723387D01*
X4738692Y1712973D01*
X4738692Y1697479D01*
X4733612Y1687065D01*
X4728278Y1681985D01*
X4712784Y1676651D01*
X4666048Y1676651D01*
X4772982Y1712973D02*
G01*
X4783396Y1718307D01*
X4798890Y1733801D01*
X4798890Y1624835D01*
X4838514Y1707893D02*
G01*
X4838514Y1712973D01*
X4843594Y1723387D01*
X4848928Y1728721D01*
X4859342Y1733801D01*
X4880170Y1733801D01*
X4890330Y1728721D01*
X4895664Y1723387D01*
X4900744Y1712973D01*
X4900744Y1702559D01*
X4895664Y1692145D01*
X4885250Y1676651D01*
X4833180Y1624835D01*
X4906078Y1624835D01*
X4644461Y1961893D02*
G01*
X4639127Y1972307D01*
X4628713Y1982721D01*
X4618553Y1987801D01*
X4597725Y1987801D01*
X4587311Y1982721D01*
X4576897Y1972307D01*
X4571563Y1961893D01*
X4566483Y1946145D01*
X4566483Y1920237D01*
X4571563Y1904743D01*
X4576897Y1894329D01*
X4587311Y1883915D01*
X4597725Y1878835D01*
X4618553Y1878835D01*
X4628713Y1883915D01*
X4639127Y1894329D01*
X4644461Y1904743D01*
X4644461Y1920237D01*
X4618553Y1920237D02*
G01*
X4644461Y1920237D01*
X4678751Y1987801D02*
G01*
X4678751Y1878835D01*
X4678751Y1987801D02*
G01*
X4725487Y1987801D01*
X4740981Y1982721D01*
X4746315Y1977387D01*
X4751395Y1966973D01*
X4751395Y1951479D01*
X4746315Y1941065D01*
X4740981Y1935985D01*
X4725487Y1930651D01*
X4678751Y1930651D01*
X4785685Y1966973D02*
G01*
X4796099Y1972307D01*
X4811593Y1987801D01*
X4811593Y1878835D01*
X4845883Y1966973D02*
G01*
X4856297Y1972307D01*
X4872045Y1987801D01*
X4872045Y1878835D01*
X4644461Y691893D02*
G01*
X4639127Y702307D01*
X4628713Y712721D01*
X4618553Y717801D01*
X4597725Y717801D01*
X4587311Y712721D01*
X4576897Y702307D01*
X4571563Y691893D01*
X4566483Y676145D01*
X4566483Y650237D01*
X4571563Y634743D01*
X4576897Y624329D01*
X4587311Y613915D01*
X4597725Y608835D01*
X4618553Y608835D01*
X4628713Y613915D01*
X4639127Y624329D01*
X4644461Y634743D01*
X4644461Y650237D01*
X4618553Y650237D02*
G01*
X4644461Y650237D01*
X4678751Y717801D02*
G01*
X4678751Y608835D01*
X4678751Y717801D02*
G01*
X4725487Y717801D01*
X4740981Y712721D01*
X4746315Y707387D01*
X4751395Y696973D01*
X4751395Y681479D01*
X4746315Y671065D01*
X4740981Y665985D01*
X4725487Y660651D01*
X4678751Y660651D01*
X4785685Y696973D02*
G01*
X4796099Y702307D01*
X4811593Y717801D01*
X4811593Y608835D01*
X4908367Y717801D02*
G01*
X4856297Y717801D01*
X4851217Y671065D01*
X4856297Y676145D01*
X4872045Y681479D01*
X4887539Y681479D01*
X4903033Y676145D01*
X4913447Y665985D01*
X4918781Y650237D01*
X4918781Y639823D01*
X4913447Y624329D01*
X4903033Y613915D01*
X4887539Y608835D01*
X4872045Y608835D01*
X4856297Y613915D01*
X4851217Y618995D01*
X4845883Y629409D01*
X5714560Y691893D02*
G01*
X5709226Y702307D01*
X5698812Y712721D01*
X5688652Y717801D01*
X5667824Y717801D01*
X5657410Y712721D01*
X5646996Y702307D01*
X5641662Y691893D01*
X5636582Y676145D01*
X5636582Y650237D01*
X5641662Y634743D01*
X5646996Y624329D01*
X5657410Y613915D01*
X5667824Y608835D01*
X5688652Y608835D01*
X5698812Y613915D01*
X5709226Y624329D01*
X5714560Y634743D01*
X5714560Y650237D01*
X5688652Y650237D02*
G01*
X5714560Y650237D01*
X5748850Y717801D02*
G01*
X5748850Y608835D01*
X5748850Y717801D02*
G01*
X5795586Y717801D01*
X5811080Y712721D01*
X5816414Y707387D01*
X5821494Y696973D01*
X5821494Y681479D01*
X5816414Y671065D01*
X5811080Y665985D01*
X5795586Y660651D01*
X5748850Y660651D01*
X5855784Y696973D02*
G01*
X5866198Y702307D01*
X5881692Y717801D01*
X5881692Y608835D01*
X5978466Y702307D02*
G01*
X5973132Y712721D01*
X5957638Y717801D01*
X5947224Y717801D01*
X5931730Y712721D01*
X5921316Y696973D01*
X5915982Y671065D01*
X5915982Y645157D01*
X5921316Y624329D01*
X5931730Y613915D01*
X5947224Y608835D01*
X5952558Y608835D01*
X5968052Y613915D01*
X5978466Y624329D01*
X5983546Y639823D01*
X5983546Y645157D01*
X5978466Y660651D01*
X5968052Y671065D01*
X5952558Y676145D01*
X5947224Y676145D01*
X5931730Y671065D01*
X5921316Y660651D01*
X5915982Y645157D01*
X5743836Y1954781D02*
G01*
X5738502Y1965195D01*
X5728088Y1975609D01*
X5717928Y1980689D01*
X5697100Y1980689D01*
X5686686Y1975609D01*
X5676272Y1965195D01*
X5670938Y1954781D01*
X5665858Y1939033D01*
X5665858Y1913125D01*
X5670938Y1897631D01*
X5676272Y1887217D01*
X5686686Y1876803D01*
X5697100Y1871723D01*
X5717928Y1871723D01*
X5728088Y1876803D01*
X5738502Y1887217D01*
X5743836Y1897631D01*
X5743836Y1913125D01*
X5717928Y1913125D02*
G01*
X5743836Y1913125D01*
X5778126Y1980689D02*
G01*
X5778126Y1871723D01*
X5778126Y1980689D02*
G01*
X5824862Y1980689D01*
X5840356Y1975609D01*
X5845690Y1970275D01*
X5850770Y1959861D01*
X5850770Y1944367D01*
X5845690Y1933953D01*
X5840356Y1928873D01*
X5824862Y1923539D01*
X5778126Y1923539D01*
X5890394Y1954781D02*
G01*
X5890394Y1959861D01*
X5895474Y1970275D01*
X5900808Y1975609D01*
X5910968Y1980689D01*
X5931796Y1980689D01*
X5942210Y1975609D01*
X5947544Y1970275D01*
X5952624Y1959861D01*
X5952624Y1949447D01*
X5947544Y1939033D01*
X5937130Y1923539D01*
X5885060Y1871723D01*
X5957958Y1871723D01*
X6023236Y1980689D02*
G01*
X6007742Y1975609D01*
X5997328Y1959861D01*
X5992248Y1933953D01*
X5992248Y1918459D01*
X5997328Y1892297D01*
X6007742Y1876803D01*
X6023236Y1871723D01*
X6033650Y1871723D01*
X6049398Y1876803D01*
X6059558Y1892297D01*
X6064892Y1918459D01*
X6064892Y1933953D01*
X6059558Y1959861D01*
X6049398Y1975609D01*
X6033650Y1980689D01*
X6023236Y1980689D01*
X5785236Y1700781D02*
G01*
X5779902Y1711195D01*
X5769488Y1721609D01*
X5759328Y1726689D01*
X5738500Y1726689D01*
X5728086Y1721609D01*
X5717672Y1711195D01*
X5712338Y1700781D01*
X5707258Y1685033D01*
X5707258Y1659125D01*
X5712338Y1643631D01*
X5717672Y1633217D01*
X5728086Y1622803D01*
X5738500Y1617723D01*
X5759328Y1617723D01*
X5769488Y1622803D01*
X5779902Y1633217D01*
X5785236Y1643631D01*
X5785236Y1659125D01*
X5759328Y1659125D02*
G01*
X5785236Y1659125D01*
X5819526Y1726689D02*
G01*
X5819526Y1617723D01*
X5819526Y1726689D02*
G01*
X5866262Y1726689D01*
X5881756Y1721609D01*
X5887090Y1716275D01*
X5892170Y1705861D01*
X5892170Y1690367D01*
X5887090Y1679953D01*
X5881756Y1674873D01*
X5866262Y1669539D01*
X5819526Y1669539D01*
X5926460Y1705861D02*
G01*
X5936874Y1711195D01*
X5952368Y1726689D01*
X5952368Y1617723D01*
X6054222Y1690367D02*
G01*
X6049142Y1674873D01*
X6038728Y1664459D01*
X6023234Y1659125D01*
X6017900Y1659125D01*
X6002406Y1664459D01*
X5991992Y1674873D01*
X5986658Y1690367D01*
X5986658Y1695447D01*
X5991992Y1711195D01*
X6002406Y1721609D01*
X6017900Y1726689D01*
X6023234Y1726689D01*
X6038728Y1721609D01*
X6049142Y1711195D01*
X6054222Y1690367D01*
X6054222Y1664459D01*
X6049142Y1638297D01*
X6038728Y1622803D01*
X6023234Y1617723D01*
X6012820Y1617723D01*
X5997072Y1622803D01*
X5991992Y1633217D01*
X5767557Y1435605D02*
G01*
X5762223Y1446019D01*
X5751809Y1456433D01*
X5741649Y1461513D01*
X5720821Y1461513D01*
X5710407Y1456433D01*
X5699993Y1446019D01*
X5694659Y1435605D01*
X5689579Y1419857D01*
X5689579Y1393949D01*
X5694659Y1378455D01*
X5699993Y1368041D01*
X5710407Y1357627D01*
X5720821Y1352547D01*
X5741649Y1352547D01*
X5751809Y1357627D01*
X5762223Y1368041D01*
X5767557Y1378455D01*
X5767557Y1393949D01*
X5741649Y1393949D02*
G01*
X5767557Y1393949D01*
X5801847Y1461513D02*
G01*
X5801847Y1352547D01*
X5801847Y1461513D02*
G01*
X5848583Y1461513D01*
X5864077Y1456433D01*
X5869411Y1451099D01*
X5874491Y1440685D01*
X5874491Y1425191D01*
X5869411Y1414777D01*
X5864077Y1409697D01*
X5848583Y1404363D01*
X5801847Y1404363D01*
X5908781Y1440685D02*
G01*
X5919195Y1446019D01*
X5934689Y1461513D01*
X5934689Y1352547D01*
X5995141Y1461513D02*
G01*
X5979393Y1456433D01*
X5974313Y1446019D01*
X5974313Y1435605D01*
X5979393Y1425191D01*
X5989807Y1419857D01*
X6010635Y1414777D01*
X6026129Y1409697D01*
X6036543Y1399283D01*
X6041877Y1388869D01*
X6041877Y1373121D01*
X6036543Y1362707D01*
X6031463Y1357627D01*
X6015969Y1352547D01*
X5995141Y1352547D01*
X5979393Y1357627D01*
X5974313Y1362707D01*
X5968979Y1373121D01*
X5968979Y1388869D01*
X5974313Y1399283D01*
X5984727Y1409697D01*
X6000221Y1414777D01*
X6021049Y1419857D01*
X6031463Y1425191D01*
X6036543Y1435605D01*
X6036543Y1446019D01*
X6031463Y1456433D01*
X6015969Y1461513D01*
X5995141Y1461513D01*
X5784217Y1192781D02*
G01*
X5778883Y1203195D01*
X5768469Y1213609D01*
X5758309Y1218689D01*
X5737481Y1218689D01*
X5727067Y1213609D01*
X5716653Y1203195D01*
X5711319Y1192781D01*
X5706239Y1177033D01*
X5706239Y1151125D01*
X5711319Y1135631D01*
X5716653Y1125217D01*
X5727067Y1114803D01*
X5737481Y1109723D01*
X5758309Y1109723D01*
X5768469Y1114803D01*
X5778883Y1125217D01*
X5784217Y1135631D01*
X5784217Y1151125D01*
X5758309Y1151125D02*
G01*
X5784217Y1151125D01*
X5818507Y1218689D02*
G01*
X5818507Y1109723D01*
X5818507Y1218689D02*
G01*
X5891151Y1109723D01*
X5891151Y1218689D02*
G01*
X5891151Y1109723D01*
X6003419Y1192781D02*
G01*
X5998339Y1203195D01*
X5987925Y1213609D01*
X5977511Y1218689D01*
X5956683Y1218689D01*
X5946269Y1213609D01*
X5935855Y1203195D01*
X5930775Y1192781D01*
X5925441Y1177033D01*
X5925441Y1151125D01*
X5930775Y1135631D01*
X5935855Y1125217D01*
X5946269Y1114803D01*
X5956683Y1109723D01*
X5977511Y1109723D01*
X5987925Y1114803D01*
X5998339Y1125217D01*
X6003419Y1135631D01*
X6003419Y1151125D01*
X5977511Y1151125D02*
G01*
X6003419Y1151125D01*
X5704083Y927605D02*
G01*
X5698749Y938019D01*
X5688335Y948433D01*
X5678175Y953513D01*
X5657347Y953513D01*
X5646933Y948433D01*
X5636519Y938019D01*
X5631185Y927605D01*
X5626105Y911857D01*
X5626105Y885949D01*
X5631185Y870455D01*
X5636519Y860041D01*
X5646933Y849627D01*
X5657347Y844547D01*
X5678175Y844547D01*
X5688335Y849627D01*
X5698749Y860041D01*
X5704083Y870455D01*
X5704083Y885949D01*
X5678175Y885949D02*
G01*
X5704083Y885949D01*
X5738373Y953513D02*
G01*
X5738373Y844547D01*
X5738373Y953513D02*
G01*
X5785109Y953513D01*
X5800603Y948433D01*
X5805937Y943099D01*
X5811017Y932685D01*
X5811017Y917191D01*
X5805937Y906777D01*
X5800603Y901697D01*
X5785109Y896363D01*
X5738373Y896363D01*
X5845307Y932685D02*
G01*
X5855721Y938019D01*
X5871215Y953513D01*
X5871215Y844547D01*
X5978403Y953513D02*
G01*
X5926333Y844547D01*
X5905505Y953513D02*
G01*
X5978403Y953513D01*
X5774377Y2227069D02*
G01*
X5769043Y2237483D01*
X5758629Y2247897D01*
X5748469Y2252977D01*
X5727641Y2252977D01*
X5717227Y2247897D01*
X5706813Y2237483D01*
X5701479Y2227069D01*
X5696399Y2211321D01*
X5696399Y2185413D01*
X5701479Y2169919D01*
X5706813Y2159505D01*
X5717227Y2149091D01*
X5727641Y2144011D01*
X5748469Y2144011D01*
X5758629Y2149091D01*
X5769043Y2159505D01*
X5774377Y2169919D01*
X5774377Y2185413D01*
X5748469Y2185413D02*
G01*
X5774377Y2185413D01*
X5808667Y2252977D02*
G01*
X5808667Y2144011D01*
X5808667Y2252977D02*
G01*
X5881311Y2144011D01*
X5881311Y2252977D02*
G01*
X5881311Y2144011D01*
X5920935Y2227069D02*
G01*
X5920935Y2232149D01*
X5926015Y2242563D01*
X5931349Y2247897D01*
X5941509Y2252977D01*
X5962337Y2252977D01*
X5972751Y2247897D01*
X5978085Y2242563D01*
X5983165Y2232149D01*
X5983165Y2221735D01*
X5978085Y2211321D01*
X5967671Y2195827D01*
X5915601Y2144011D01*
X5988499Y2144011D01*
X6022789Y2232149D02*
G01*
X6032949Y2237483D01*
X6048697Y2252977D01*
X6048697Y2144011D01*
X5802002Y2475481D02*
G01*
X5796668Y2485895D01*
X5786254Y2496309D01*
X5776094Y2501389D01*
X5755266Y2501389D01*
X5744852Y2496309D01*
X5734438Y2485895D01*
X5729104Y2475481D01*
X5724024Y2459733D01*
X5724024Y2433825D01*
X5729104Y2418331D01*
X5734438Y2407917D01*
X5744852Y2397503D01*
X5755266Y2392423D01*
X5776094Y2392423D01*
X5786254Y2397503D01*
X5796668Y2407917D01*
X5802002Y2418331D01*
X5802002Y2433825D01*
X5776094Y2433825D02*
G01*
X5802002Y2433825D01*
X5836292Y2501389D02*
G01*
X5836292Y2392423D01*
X5836292Y2501389D02*
G01*
X5908936Y2392423D01*
X5908936Y2501389D02*
G01*
X5908936Y2392423D01*
X5943226Y2501389D02*
G01*
X5943226Y2392423D01*
X5943226Y2501389D02*
G01*
X5979548Y2501389D01*
X5995296Y2496309D01*
X6005710Y2485895D01*
X6010790Y2475481D01*
X6016124Y2459733D01*
X6016124Y2433825D01*
X6010790Y2418331D01*
X6005710Y2407917D01*
X5995296Y2397503D01*
X5979548Y2392423D01*
X5943226Y2392423D01*
X5743836Y2716781D02*
G01*
X5738502Y2727195D01*
X5728088Y2737609D01*
X5717928Y2742689D01*
X5697100Y2742689D01*
X5686686Y2737609D01*
X5676272Y2727195D01*
X5670938Y2716781D01*
X5665858Y2701033D01*
X5665858Y2675125D01*
X5670938Y2659631D01*
X5676272Y2649217D01*
X5686686Y2638803D01*
X5697100Y2633723D01*
X5717928Y2633723D01*
X5728088Y2638803D01*
X5738502Y2649217D01*
X5743836Y2659631D01*
X5743836Y2675125D01*
X5717928Y2675125D02*
G01*
X5743836Y2675125D01*
X5778126Y2742689D02*
G01*
X5778126Y2633723D01*
X5778126Y2742689D02*
G01*
X5824862Y2742689D01*
X5840356Y2737609D01*
X5845690Y2732275D01*
X5850770Y2721861D01*
X5850770Y2706367D01*
X5845690Y2695953D01*
X5840356Y2690873D01*
X5824862Y2685539D01*
X5778126Y2685539D01*
X5890394Y2716781D02*
G01*
X5890394Y2721861D01*
X5895474Y2732275D01*
X5900808Y2737609D01*
X5910968Y2742689D01*
X5931796Y2742689D01*
X5942210Y2737609D01*
X5947544Y2732275D01*
X5952624Y2721861D01*
X5952624Y2711447D01*
X5947544Y2701033D01*
X5937130Y2685539D01*
X5885060Y2633723D01*
X5957958Y2633723D01*
X5997328Y2716781D02*
G01*
X5997328Y2721861D01*
X6002408Y2732275D01*
X6007742Y2737609D01*
X6018156Y2742689D01*
X6038984Y2742689D01*
X6049398Y2737609D01*
X6054478Y2732275D01*
X6059558Y2721861D01*
X6059558Y2711447D01*
X6054478Y2701033D01*
X6044064Y2685539D01*
X5992248Y2633723D01*
X6064892Y2633723D01*
X5715007Y2998213D02*
G01*
X5715007Y2889247D01*
X5715007Y2998213D02*
G01*
X5761743Y2998213D01*
X5777237Y2993133D01*
X5782571Y2987799D01*
X5787651Y2977385D01*
X5787651Y2966971D01*
X5782571Y2956557D01*
X5777237Y2951477D01*
X5761743Y2946397D01*
X5715007Y2946397D01*
X5751329Y2946397D02*
G01*
X5787651Y2889247D01*
X5821941Y2998213D02*
G01*
X5821941Y2920235D01*
X5827275Y2904741D01*
X5837689Y2894327D01*
X5853183Y2889247D01*
X5863597Y2889247D01*
X5879091Y2894327D01*
X5889505Y2904741D01*
X5894839Y2920235D01*
X5894839Y2998213D01*
X5929129Y2998213D02*
G01*
X5929129Y2889247D01*
X5929129Y2998213D02*
G01*
X6001773Y2889247D01*
X6001773Y2998213D02*
G01*
X6001773Y2889247D01*
X5729483Y3239005D02*
G01*
X5724149Y3249419D01*
X5713735Y3259833D01*
X5703575Y3264913D01*
X5682747Y3264913D01*
X5672333Y3259833D01*
X5661919Y3249419D01*
X5656585Y3239005D01*
X5651505Y3223257D01*
X5651505Y3197349D01*
X5656585Y3181855D01*
X5661919Y3171441D01*
X5672333Y3161027D01*
X5682747Y3155947D01*
X5703575Y3155947D01*
X5713735Y3161027D01*
X5724149Y3171441D01*
X5729483Y3181855D01*
X5729483Y3197349D01*
X5703575Y3197349D02*
G01*
X5729483Y3197349D01*
X5763773Y3264913D02*
G01*
X5763773Y3155947D01*
X5763773Y3264913D02*
G01*
X5810509Y3264913D01*
X5826003Y3259833D01*
X5831337Y3254499D01*
X5836417Y3244085D01*
X5836417Y3228591D01*
X5831337Y3218177D01*
X5826003Y3213097D01*
X5810509Y3207763D01*
X5763773Y3207763D01*
X5876041Y3239005D02*
G01*
X5876041Y3244085D01*
X5881121Y3254499D01*
X5886455Y3259833D01*
X5896615Y3264913D01*
X5917443Y3264913D01*
X5927857Y3259833D01*
X5933191Y3254499D01*
X5938271Y3244085D01*
X5938271Y3233671D01*
X5933191Y3223257D01*
X5922777Y3207763D01*
X5870707Y3155947D01*
X5943605Y3155947D01*
X6040125Y3249419D02*
G01*
X6035045Y3259833D01*
X6019297Y3264913D01*
X6008883Y3264913D01*
X5993389Y3259833D01*
X5982975Y3244085D01*
X5977895Y3218177D01*
X5977895Y3192269D01*
X5982975Y3171441D01*
X5993389Y3161027D01*
X6008883Y3155947D01*
X6014217Y3155947D01*
X6029711Y3161027D01*
X6040125Y3171441D01*
X6045205Y3186935D01*
X6045205Y3192269D01*
X6040125Y3207763D01*
X6029711Y3218177D01*
X6014217Y3223257D01*
X6008883Y3223257D01*
X5993389Y3218177D01*
X5982975Y3207763D01*
X5977895Y3192269D01*
X5729485Y3493005D02*
G01*
X5724151Y3503419D01*
X5713737Y3513833D01*
X5703577Y3518913D01*
X5682749Y3518913D01*
X5672335Y3513833D01*
X5661921Y3503419D01*
X5656587Y3493005D01*
X5651507Y3477257D01*
X5651507Y3451349D01*
X5656587Y3435855D01*
X5661921Y3425441D01*
X5672335Y3415027D01*
X5682749Y3409947D01*
X5703577Y3409947D01*
X5713737Y3415027D01*
X5724151Y3425441D01*
X5729485Y3435855D01*
X5729485Y3451349D01*
X5703577Y3451349D02*
G01*
X5729485Y3451349D01*
X5763775Y3518913D02*
G01*
X5763775Y3409947D01*
X5763775Y3518913D02*
G01*
X5810511Y3518913D01*
X5826005Y3513833D01*
X5831339Y3508499D01*
X5836419Y3498085D01*
X5836419Y3482591D01*
X5831339Y3472177D01*
X5826005Y3467097D01*
X5810511Y3461763D01*
X5763775Y3461763D01*
X5876043Y3493005D02*
G01*
X5876043Y3498085D01*
X5881123Y3508499D01*
X5886457Y3513833D01*
X5896617Y3518913D01*
X5917445Y3518913D01*
X5927859Y3513833D01*
X5933193Y3508499D01*
X5938273Y3498085D01*
X5938273Y3487671D01*
X5933193Y3477257D01*
X5922779Y3461763D01*
X5870709Y3409947D01*
X5943607Y3409947D01*
X6050541Y3518913D02*
G01*
X5998471Y3409947D01*
X5977897Y3518913D02*
G01*
X6050541Y3518913D01*
X5769427Y3739893D02*
G01*
X5764093Y3750307D01*
X5753679Y3760721D01*
X5743519Y3765801D01*
X5722691Y3765801D01*
X5712277Y3760721D01*
X5701863Y3750307D01*
X5696529Y3739893D01*
X5691449Y3724145D01*
X5691449Y3698237D01*
X5696529Y3682743D01*
X5701863Y3672329D01*
X5712277Y3661915D01*
X5722691Y3656835D01*
X5743519Y3656835D01*
X5753679Y3661915D01*
X5764093Y3672329D01*
X5769427Y3682743D01*
X5769427Y3698237D01*
X5743519Y3698237D02*
G01*
X5769427Y3698237D01*
X5803717Y3765801D02*
G01*
X5803717Y3656835D01*
X5803717Y3765801D02*
G01*
X5876361Y3656835D01*
X5876361Y3765801D02*
G01*
X5876361Y3656835D01*
X5910651Y3765801D02*
G01*
X5910651Y3656835D01*
X5910651Y3765801D02*
G01*
X5946973Y3765801D01*
X5962721Y3760721D01*
X5973135Y3750307D01*
X5978215Y3739893D01*
X5983549Y3724145D01*
X5983549Y3698237D01*
X5978215Y3682743D01*
X5973135Y3672329D01*
X5962721Y3661915D01*
X5946973Y3656835D01*
X5910651Y3656835D01*
X5662495Y3993893D02*
G01*
X5657161Y4004307D01*
X5646747Y4014721D01*
X5636587Y4019801D01*
X5615759Y4019801D01*
X5605345Y4014721D01*
X5594931Y4004307D01*
X5589597Y3993893D01*
X5584517Y3978145D01*
X5584517Y3952237D01*
X5589597Y3936743D01*
X5594931Y3926329D01*
X5605345Y3915915D01*
X5615759Y3910835D01*
X5636587Y3910835D01*
X5646747Y3915915D01*
X5657161Y3926329D01*
X5662495Y3936743D01*
X5662495Y3952237D01*
X5636587Y3952237D02*
G01*
X5662495Y3952237D01*
X5696785Y4019801D02*
G01*
X5696785Y3910835D01*
X5696785Y4019801D02*
G01*
X5743521Y4019801D01*
X5759015Y4014721D01*
X5764349Y4009387D01*
X5769429Y3998973D01*
X5769429Y3983479D01*
X5764349Y3973065D01*
X5759015Y3967985D01*
X5743521Y3962651D01*
X5696785Y3962651D01*
X5809053Y3993893D02*
G01*
X5809053Y3998973D01*
X5814133Y4009387D01*
X5819467Y4014721D01*
X5829627Y4019801D01*
X5850455Y4019801D01*
X5860869Y4014721D01*
X5866203Y4009387D01*
X5871283Y3998973D01*
X5871283Y3988559D01*
X5866203Y3978145D01*
X5855789Y3962651D01*
X5803719Y3910835D01*
X5876617Y3910835D01*
X5936815Y4019801D02*
G01*
X5921067Y4014721D01*
X5915987Y4004307D01*
X5915987Y3993893D01*
X5921067Y3983479D01*
X5931481Y3978145D01*
X5952309Y3973065D01*
X5968057Y3967985D01*
X5978217Y3957571D01*
X5983551Y3947157D01*
X5983551Y3931409D01*
X5978217Y3920995D01*
X5973137Y3915915D01*
X5957643Y3910835D01*
X5936815Y3910835D01*
X5921067Y3915915D01*
X5915987Y3920995D01*
X5910907Y3931409D01*
X5910907Y3947157D01*
X5915987Y3957571D01*
X5926401Y3967985D01*
X5941895Y3973065D01*
X5962723Y3978145D01*
X5973137Y3983479D01*
X5978217Y3993893D01*
X5978217Y4004307D01*
X5973137Y4014721D01*
X5957643Y4019801D01*
X5936815Y4019801D01*
X5569778Y4273801D02*
G01*
X5611434Y4164835D01*
X5652836Y4273801D02*
G01*
X5611434Y4164835D01*
X5687126Y4273801D02*
G01*
X5687126Y4164835D01*
X5687126Y4273801D02*
G01*
X5733862Y4273801D01*
X5749610Y4268721D01*
X5754690Y4263387D01*
X5760024Y4252973D01*
X5760024Y4242559D01*
X5754690Y4232145D01*
X5749610Y4227065D01*
X5733862Y4221985D01*
X5687126Y4221985D01*
X5723448Y4221985D02*
G01*
X5760024Y4164835D01*
X5794314Y4273801D02*
G01*
X5794314Y4164835D01*
X5794314Y4273801D02*
G01*
X5861878Y4273801D01*
X5794314Y4221985D02*
G01*
X5835716Y4221985D01*
X5794314Y4164835D02*
G01*
X5861878Y4164835D01*
X5896168Y4273801D02*
G01*
X5896168Y4164835D01*
X5896168Y4273801D02*
G01*
X5963478Y4273801D01*
X5896168Y4221985D02*
G01*
X5937570Y4221985D01*
X5407990Y4781801D02*
G01*
X5465140Y4781801D01*
X5433898Y4740145D01*
X5449646Y4740145D01*
X5459806Y4735065D01*
X5465140Y4729985D01*
X5470220Y4714237D01*
X5470220Y4703823D01*
X5465140Y4688329D01*
X5454726Y4677915D01*
X5439232Y4672835D01*
X5423484Y4672835D01*
X5407990Y4677915D01*
X5402656Y4682995D01*
X5397576Y4693409D01*
X5504510Y4781801D02*
G01*
X5546166Y4672835D01*
X5587822Y4781801D02*
G01*
X5546166Y4672835D01*
X5632526Y4781801D02*
G01*
X5689676Y4781801D01*
X5658434Y4740145D01*
X5673928Y4740145D01*
X5684342Y4735065D01*
X5689676Y4729985D01*
X5694756Y4714237D01*
X5694756Y4703823D01*
X5689676Y4688329D01*
X5679262Y4677915D01*
X5663514Y4672835D01*
X5648020Y4672835D01*
X5632526Y4677915D01*
X5627192Y4682995D01*
X5622112Y4693409D01*
X5809056Y4781801D02*
G01*
X5809056Y4672835D01*
X5809056Y4781801D02*
G01*
X5876620Y4781801D01*
X5809056Y4729985D02*
G01*
X5850712Y4729985D01*
X5809056Y4672835D02*
G01*
X5876620Y4672835D01*
X5910910Y4781801D02*
G01*
X5910910Y4672835D01*
X5910910Y4781801D02*
G01*
X5983554Y4672835D01*
X5983554Y4781801D02*
G01*
X5983554Y4672835D01*
X5769427Y5009893D02*
G01*
X5764093Y5020307D01*
X5753679Y5030721D01*
X5743519Y5035801D01*
X5722691Y5035801D01*
X5712277Y5030721D01*
X5701863Y5020307D01*
X5696529Y5009893D01*
X5691449Y4994145D01*
X5691449Y4968237D01*
X5696529Y4952743D01*
X5701863Y4942329D01*
X5712277Y4931915D01*
X5722691Y4926835D01*
X5743519Y4926835D01*
X5753679Y4931915D01*
X5764093Y4942329D01*
X5769427Y4952743D01*
X5769427Y4968237D01*
X5743519Y4968237D02*
G01*
X5769427Y4968237D01*
X5803717Y5035801D02*
G01*
X5803717Y4926835D01*
X5803717Y5035801D02*
G01*
X5876361Y4926835D01*
X5876361Y5035801D02*
G01*
X5876361Y4926835D01*
X5910651Y5035801D02*
G01*
X5910651Y4926835D01*
X5910651Y5035801D02*
G01*
X5946973Y5035801D01*
X5962721Y5030721D01*
X5973135Y5020307D01*
X5978215Y5009893D01*
X5983549Y4994145D01*
X5983549Y4968237D01*
X5978215Y4952743D01*
X5973135Y4942329D01*
X5962721Y4931915D01*
X5946973Y4926835D01*
X5910651Y4926835D01*
X5569026Y5277101D02*
G01*
X5610682Y5168135D01*
X5652084Y5277101D02*
G01*
X5610682Y5168135D01*
X5759272Y5261607D02*
G01*
X5748858Y5272021D01*
X5733110Y5277101D01*
X5712536Y5277101D01*
X5696788Y5272021D01*
X5686374Y5261607D01*
X5686374Y5251193D01*
X5691708Y5240779D01*
X5696788Y5235445D01*
X5707202Y5230365D01*
X5738444Y5219951D01*
X5748858Y5214871D01*
X5753938Y5209537D01*
X5759272Y5199123D01*
X5759272Y5183629D01*
X5748858Y5173215D01*
X5733110Y5168135D01*
X5712536Y5168135D01*
X5696788Y5173215D01*
X5686374Y5183629D01*
X5793562Y5277101D02*
G01*
X5834964Y5225285D01*
X5834964Y5168135D01*
X5876620Y5277101D02*
G01*
X5834964Y5225285D01*
X5983554Y5261607D02*
G01*
X5973140Y5272021D01*
X5957646Y5277101D01*
X5936818Y5277101D01*
X5921324Y5272021D01*
X5910910Y5261607D01*
X5910910Y5251193D01*
X5915990Y5240779D01*
X5921324Y5235445D01*
X5931738Y5230365D01*
X5962726Y5219951D01*
X5973140Y5214871D01*
X5978474Y5209537D01*
X5983554Y5199123D01*
X5983554Y5183629D01*
X5973140Y5173215D01*
X5957646Y5168135D01*
X5936818Y5168135D01*
X5921324Y5173215D01*
X5910910Y5183629D01*
X5579432Y5531101D02*
G01*
X5621088Y5422135D01*
X5662490Y5531101D02*
G01*
X5621088Y5422135D01*
X5696780Y5531101D02*
G01*
X5696780Y5422135D01*
X5696780Y5531101D02*
G01*
X5743516Y5531101D01*
X5759264Y5526021D01*
X5764344Y5520687D01*
X5769678Y5510273D01*
X5769678Y5499859D01*
X5764344Y5489445D01*
X5759264Y5484365D01*
X5743516Y5479285D01*
X5696780Y5479285D02*
G01*
X5743516Y5479285D01*
X5759264Y5473951D01*
X5764344Y5468871D01*
X5769678Y5458457D01*
X5769678Y5442709D01*
X5764344Y5432295D01*
X5759264Y5427215D01*
X5743516Y5422135D01*
X5696780Y5422135D01*
X5803968Y5531101D02*
G01*
X5803968Y5453123D01*
X5809048Y5437629D01*
X5819462Y5427215D01*
X5834956Y5422135D01*
X5845370Y5422135D01*
X5861118Y5427215D01*
X5871532Y5437629D01*
X5876612Y5453123D01*
X5876612Y5531101D01*
X5983546Y5515607D02*
G01*
X5973132Y5526021D01*
X5957638Y5531101D01*
X5936810Y5531101D01*
X5921316Y5526021D01*
X5910902Y5515607D01*
X5910902Y5505193D01*
X5915982Y5494779D01*
X5921316Y5489445D01*
X5931730Y5484365D01*
X5962972Y5473951D01*
X5973132Y5468871D01*
X5978466Y5463537D01*
X5983546Y5453123D01*
X5983546Y5437629D01*
X5973132Y5427215D01*
X5957638Y5422135D01*
X5936810Y5422135D01*
X5921316Y5427215D01*
X5910902Y5437629D01*
X5285305Y4527801D02*
G01*
X5342455Y4527801D01*
X5311213Y4486145D01*
X5326961Y4486145D01*
X5337121Y4481065D01*
X5342455Y4475985D01*
X5347535Y4460237D01*
X5347535Y4449823D01*
X5342455Y4434329D01*
X5332041Y4423915D01*
X5316547Y4418835D01*
X5300799Y4418835D01*
X5285305Y4423915D01*
X5279971Y4428995D01*
X5274891Y4439409D01*
X5381825Y4527801D02*
G01*
X5423481Y4418835D01*
X5465137Y4527801D02*
G01*
X5423481Y4418835D01*
X5509841Y4527801D02*
G01*
X5566991Y4527801D01*
X5535749Y4486145D01*
X5551243Y4486145D01*
X5561657Y4481065D01*
X5566991Y4475985D01*
X5572071Y4460237D01*
X5572071Y4449823D01*
X5566991Y4434329D01*
X5556577Y4423915D01*
X5540829Y4418835D01*
X5525335Y4418835D01*
X5509841Y4423915D01*
X5504507Y4428995D01*
X5499427Y4439409D01*
X5717613Y4527801D02*
G01*
X5707199Y4522721D01*
X5696785Y4512307D01*
X5691451Y4501893D01*
X5686371Y4486145D01*
X5686371Y4460237D01*
X5691451Y4444743D01*
X5696785Y4434329D01*
X5707199Y4423915D01*
X5717613Y4418835D01*
X5738441Y4418835D01*
X5748601Y4423915D01*
X5759015Y4434329D01*
X5764349Y4444743D01*
X5769429Y4460237D01*
X5769429Y4486145D01*
X5764349Y4501893D01*
X5759015Y4512307D01*
X5748601Y4522721D01*
X5738441Y4527801D01*
X5717613Y4527801D01*
X5803719Y4527801D02*
G01*
X5803719Y4449823D01*
X5809053Y4434329D01*
X5819467Y4423915D01*
X5834961Y4418835D01*
X5845375Y4418835D01*
X5860869Y4423915D01*
X5871283Y4434329D01*
X5876617Y4449823D01*
X5876617Y4527801D01*
X5947229Y4527801D02*
G01*
X5947229Y4418835D01*
X5910907Y4527801D02*
G01*
X5983551Y4527801D01*
X2833243Y2412949D02*
G01*
X2724023Y2340305D01*
X2833243Y2340305D02*
G01*
X2724023Y2412949D01*
X2833243Y2306015D02*
G01*
X2724023Y2306015D01*
X2724023Y2306015D02*
G01*
X2724023Y2243531D01*
X2833243Y2136597D02*
G01*
X2724023Y2188667D01*
X2833243Y2209241D02*
G01*
X2833243Y2136597D01*
X2833243Y2050237D02*
G01*
X2760345Y2102307D01*
X2760345Y2024329D01*
X2833243Y2050237D02*
G01*
X2724023Y2050237D01*
X2833243Y1990039D02*
G01*
X2724023Y1990039D01*
X2833243Y1917395D02*
G01*
X2724023Y1917395D01*
X2781173Y1990039D02*
G01*
X2781173Y1917395D01*
X2807081Y1805127D02*
G01*
X2817495Y1810207D01*
X2827909Y1820621D01*
X2833243Y1831035D01*
X2833243Y1851863D01*
X2827909Y1862277D01*
X2817495Y1872691D01*
X2807081Y1877771D01*
X2791587Y1883105D01*
X2765679Y1883105D01*
X2749931Y1877771D01*
X2739517Y1872691D01*
X2729103Y1862277D01*
X2724023Y1851863D01*
X2724023Y1831035D01*
X2729103Y1820621D01*
X2739517Y1810207D01*
X2749931Y1805127D01*
X2807081Y1765757D02*
G01*
X2812415Y1765757D01*
X2822829Y1760423D01*
X2827909Y1755343D01*
X2833243Y1744929D01*
X2833243Y1724101D01*
X2827909Y1713687D01*
X2822829Y1708607D01*
X2812415Y1703273D01*
X2802001Y1703273D01*
X2791587Y1708607D01*
X2776093Y1718767D01*
X2724023Y1770837D01*
X2724023Y1698193D01*
X2833243Y1611833D02*
G01*
X2760345Y1663903D01*
X2760345Y1585925D01*
X2833243Y1611833D02*
G01*
X2724023Y1611833D01*
X2833243Y1489151D02*
G01*
X2833243Y1541221D01*
X2786253Y1546301D01*
X2791587Y1541221D01*
X2796667Y1525727D01*
X2796667Y1509979D01*
X2791587Y1494485D01*
X2781173Y1484071D01*
X2765679Y1478737D01*
X2755265Y1478737D01*
X2739517Y1484071D01*
X2729103Y1494485D01*
X2724023Y1509979D01*
X2724023Y1525727D01*
X2729103Y1541221D01*
X2734437Y1546301D01*
X2744851Y1551635D01*
X5172252Y7392543D02*
G01*
X5130850Y7283322D01*
X5172252Y7392543D02*
G01*
X5213908Y7283322D01*
X5146344Y7319644D02*
G01*
X5198414Y7319644D01*
X5248198Y7392543D02*
G01*
X5248198Y7283322D01*
X5248198Y7392543D02*
G01*
X5289854Y7283322D01*
X5331256Y7392543D02*
G01*
X5289854Y7283322D01*
X5331256Y7392543D02*
G01*
X5331256Y7283322D01*
X5438444Y7376794D02*
G01*
X5428030Y7387209D01*
X5412282Y7392543D01*
X5391708Y7392543D01*
X5375960Y7387209D01*
X5365546Y7376794D01*
X5365546Y7366380D01*
X5370880Y7355967D01*
X5375960Y7350886D01*
X5386374Y7345552D01*
X5417616Y7335393D01*
X5428030Y7330059D01*
X5433110Y7324978D01*
X5438444Y7314564D01*
X5438444Y7298817D01*
X5428030Y7288402D01*
X5412282Y7283322D01*
X5391708Y7283322D01*
X5375960Y7288402D01*
X5365546Y7298817D01*
X5472734Y7371714D02*
G01*
X5483148Y7376794D01*
X5498642Y7392543D01*
X5498642Y7283322D01*
X5532932Y7371714D02*
G01*
X5543346Y7376794D01*
X5558840Y7392543D01*
X5558840Y7283322D01*
X5593130Y7371714D02*
G01*
X5603544Y7376794D01*
X5619038Y7392543D01*
X5619038Y7283322D01*
X5726226Y7392543D02*
G01*
X5674156Y7283322D01*
X5653328Y7392543D02*
G01*
X5726226Y7392543D01*
X5760516Y7330059D02*
G01*
X5853988Y7330059D01*
X5898692Y7392543D02*
G01*
X5955842Y7392543D01*
X5924600Y7350886D01*
X5940348Y7350886D01*
X5950508Y7345552D01*
X5955842Y7340472D01*
X5960922Y7324978D01*
X5960922Y7314564D01*
X5955842Y7298817D01*
X5945428Y7288402D01*
X5929934Y7283322D01*
X5914186Y7283322D01*
X5898692Y7288402D01*
X5893358Y7293736D01*
X5888278Y7304151D01*
X6000546Y7309230D02*
G01*
X5995212Y7304151D01*
X6000546Y7298817D01*
X6005626Y7304151D01*
X6000546Y7309230D01*
X6050330Y7392543D02*
G01*
X6107480Y7392543D01*
X6076238Y7350886D01*
X6091986Y7350886D01*
X6102400Y7345552D01*
X6107480Y7340472D01*
X6112814Y7324978D01*
X6112814Y7314564D01*
X6107480Y7298817D01*
X6097066Y7288402D01*
X6081572Y7283322D01*
X6066078Y7283322D01*
X6050330Y7288402D01*
X6045250Y7293736D01*
X6039916Y7304151D01*
X3292652Y6262243D02*
G01*
X3251250Y6153022D01*
X3292652Y6262243D02*
G01*
X3334308Y6153022D01*
X3266744Y6189344D02*
G01*
X3318814Y6189344D01*
X3368598Y6262243D02*
G01*
X3368598Y6153022D01*
X3368598Y6262243D02*
G01*
X3410254Y6153022D01*
X3451656Y6262243D02*
G01*
X3410254Y6153022D01*
X3451656Y6262243D02*
G01*
X3451656Y6153022D01*
X3558844Y6246494D02*
G01*
X3548430Y6256909D01*
X3532682Y6262243D01*
X3512108Y6262243D01*
X3496360Y6256909D01*
X3485946Y6246494D01*
X3485946Y6236080D01*
X3491280Y6225667D01*
X3496360Y6220586D01*
X3506774Y6215252D01*
X3538016Y6205093D01*
X3548430Y6199759D01*
X3553510Y6194678D01*
X3558844Y6184264D01*
X3558844Y6168517D01*
X3548430Y6158102D01*
X3532682Y6153022D01*
X3512108Y6153022D01*
X3496360Y6158102D01*
X3485946Y6168517D01*
X3593134Y6241414D02*
G01*
X3603548Y6246494D01*
X3619042Y6262243D01*
X3619042Y6153022D01*
X3653332Y6241414D02*
G01*
X3663746Y6246494D01*
X3679240Y6262243D01*
X3679240Y6153022D01*
X3713530Y6241414D02*
G01*
X3723944Y6246494D01*
X3739438Y6262243D01*
X3739438Y6153022D01*
X3846626Y6262243D02*
G01*
X3794556Y6153022D01*
X3773728Y6262243D02*
G01*
X3846626Y6262243D01*
X3958894Y6236080D02*
G01*
X3953560Y6246494D01*
X3943146Y6256909D01*
X3932732Y6262243D01*
X3912158Y6262243D01*
X3901744Y6256909D01*
X3891330Y6246494D01*
X3885996Y6236080D01*
X3880916Y6220586D01*
X3880916Y6194678D01*
X3885996Y6178930D01*
X3891330Y6168517D01*
X3901744Y6158102D01*
X3912158Y6153022D01*
X3932732Y6153022D01*
X3943146Y6158102D01*
X3953560Y6168517D01*
X3958894Y6178930D01*
X3993184Y6262243D02*
G01*
X3993184Y6153022D01*
X3993184Y6262243D02*
G01*
X4029506Y6262243D01*
X4045000Y6256909D01*
X4055414Y6246494D01*
X4060748Y6236080D01*
X4065828Y6220586D01*
X4065828Y6194678D01*
X4060748Y6178930D01*
X4055414Y6168517D01*
X4045000Y6158102D01*
X4029506Y6153022D01*
X3993184Y6153022D01*
X4100118Y6199759D02*
G01*
X4193590Y6199759D01*
X4290364Y6262243D02*
G01*
X4238294Y6262243D01*
X4233214Y6215252D01*
X4238294Y6220586D01*
X4253788Y6225667D01*
X4269536Y6225667D01*
X4285030Y6220586D01*
X4295444Y6210172D01*
X4300778Y6194678D01*
X4300778Y6184264D01*
X4295444Y6168517D01*
X4285030Y6158102D01*
X4269536Y6153022D01*
X4253788Y6153022D01*
X4238294Y6158102D01*
X4233214Y6163436D01*
X4227880Y6173851D01*
X4340148Y6178930D02*
G01*
X4335068Y6173851D01*
X4340148Y6168517D01*
X4345228Y6173851D01*
X4340148Y6178930D01*
X4410760Y6262243D02*
G01*
X4395266Y6256909D01*
X4384852Y6241414D01*
X4379518Y6215252D01*
X4379518Y6199759D01*
X4384852Y6173851D01*
X4395266Y6158102D01*
X4410760Y6153022D01*
X4421174Y6153022D01*
X4436668Y6158102D01*
X4447082Y6173851D01*
X4452416Y6199759D01*
X4452416Y6215252D01*
X4447082Y6241414D01*
X4436668Y6256909D01*
X4421174Y6262243D01*
X4410760Y6262243D01*
G36*
X1625600Y7340600D02*
G01*
X1524000Y7315200D01*
X1320800Y7188200D01*
X2032000Y7188200D01*
X1930400Y7264400D01*
X1778000Y7315200D01*
G37*
G36*
X4383024Y6625081D02*
G01*
X4383024Y6579362D01*
X4404207Y6579362D01*
X4404207Y6625081D01*
G37*
G36*
X4093718Y6625081D02*
G01*
X4093718Y6579362D01*
X4114952Y6579362D01*
X4114952Y6625081D01*
G37*
G36*
X6306261Y6784594D02*
G01*
X6306261Y6738874D01*
X6327444Y6738874D01*
X6327444Y6784594D01*
G37*
G36*
X6016955Y6784594D02*
G01*
X6016955Y6738874D01*
X6038138Y6738874D01*
X6038138Y6784594D01*
G37*
G36*
X2751632Y7105294D02*
G01*
X2751175Y7059320D01*
X2791815Y7059218D01*
X2791815Y7104938D01*
G37*
G36*
X2491790Y7104481D02*
G01*
X2491333Y7058507D01*
X2532024Y7058355D01*
X2532024Y7104075D01*
G37*
G36*
X3221532Y7130694D02*
G01*
X3221075Y7084720D01*
X3261715Y7084618D01*
X3261715Y7130338D01*
G37*
G36*
X2961690Y7129881D02*
G01*
X2961233Y7083907D01*
X3001924Y7083755D01*
X3001924Y7129475D01*
G37*
G36*
X5064709Y7154570D02*
G01*
X5064252Y7108596D01*
X5104892Y7108494D01*
X5104892Y7154214D01*
G37*
G36*
X4804867Y7153757D02*
G01*
X4804410Y7107783D01*
X4845050Y7107631D01*
X4845050Y7153351D01*
G37*
D11*
X1676400Y6375400D02*
G01*
X1676400Y6477000D01*
X1600200Y6426200D02*
G01*
X1752600Y6426200D01*
X3083300Y5279204D02*
G01*
X3083300Y4779205D01*
X2733299Y4779205D02*
G01*
X2733299Y5279204D01*
X3083300Y5279204D02*
G01*
X2953301Y5279204D01*
X3083300Y4779205D02*
G01*
X2733299Y4779205D01*
X2733299Y5279204D02*
G01*
X2863298Y5279204D01*
X3096000Y3894904D02*
G01*
X3096000Y3394905D01*
X2745999Y3394905D02*
G01*
X2745999Y3894904D01*
X3096000Y3894904D02*
G01*
X2966001Y3894904D01*
X3096000Y3394905D02*
G01*
X2745999Y3394905D01*
X2745999Y3894904D02*
G01*
X2875998Y3894904D01*
X649597Y4625113D02*
G01*
X649597Y5361104D01*
X1212588Y5361104D01*
X1212588Y4625113D01*
X649597Y4625113D01*
X420997Y3621813D02*
G01*
X420997Y4357804D01*
X983988Y4357804D01*
X983988Y3621813D01*
X420997Y3621813D01*
X420997Y2834413D02*
G01*
X420997Y3570404D01*
X983988Y3570404D01*
X983988Y2834413D01*
X420997Y2834413D01*
X420997Y1894613D02*
G01*
X420997Y2630604D01*
X983988Y2630604D01*
X983988Y1894613D01*
X420997Y1894613D01*
X420997Y1081813D02*
G01*
X420997Y1817804D01*
X983988Y1817804D01*
X983988Y1081813D01*
X420997Y1081813D01*
D12*
X7048500Y2908300D02*
G01*
X7048500Y2654300D01*
X6797040Y2654300D01*
X6797040Y3416300D01*
X7048500Y3416300D01*
X7048500Y2908300D01*
D10*
X2233739Y6886719D02*
G01*
X2233739Y6745719D01*
X2414460Y6745719D02*
G01*
X2414460Y6886719D01*
X2399220Y6901959D02*
G01*
X2248979Y6901959D01*
X2233739Y6524480D02*
G01*
X2233739Y6665480D01*
X2414460Y6665480D02*
G01*
X2414460Y6524480D01*
X2399220Y6509240D02*
G01*
X2248979Y6509240D01*
X4463420Y6905005D02*
G01*
X4463420Y6764004D01*
X4644141Y6764004D02*
G01*
X4644141Y6905005D01*
X4628901Y6920245D02*
G01*
X4478660Y6920245D01*
X4463420Y6542765D02*
G01*
X4463420Y6683766D01*
X4644141Y6683766D02*
G01*
X4644141Y6542765D01*
X4628901Y6527525D02*
G01*
X4478660Y6527525D01*
X6413695Y7088393D02*
G01*
X6413695Y6947392D01*
X6594416Y6947392D02*
G01*
X6594416Y7088393D01*
X6579176Y7103633D02*
G01*
X6428935Y7103633D01*
X6413695Y6726153D02*
G01*
X6413695Y6867154D01*
X6594416Y6867154D02*
G01*
X6594416Y6726153D01*
X6579176Y6710913D02*
G01*
X6428935Y6710913D01*
X4052760Y4657580D02*
G01*
X4052760Y4798580D01*
X3872039Y4798580D02*
G01*
X3872039Y4657580D01*
X3887279Y4642340D02*
G01*
X4037520Y4642340D01*
X4052760Y5019819D02*
G01*
X4052760Y4878819D01*
X3872039Y4878819D02*
G01*
X3872039Y5019819D01*
X3887279Y5035059D02*
G01*
X4037520Y5035059D01*
X3552680Y4049839D02*
G01*
X3693680Y4049839D01*
X3693680Y4230560D02*
G01*
X3552680Y4230560D01*
X3537440Y4215320D02*
G01*
X3537440Y4065079D01*
X3914919Y4049839D02*
G01*
X3773919Y4049839D01*
X3773919Y4230560D02*
G01*
X3914919Y4230560D01*
X3930159Y4215320D02*
G01*
X3930159Y4065079D01*
X3552680Y4278439D02*
G01*
X3693680Y4278439D01*
X3693680Y4459160D02*
G01*
X3552680Y4459160D01*
X3537440Y4443920D02*
G01*
X3537440Y4293679D01*
X3914919Y4278439D02*
G01*
X3773919Y4278439D01*
X3773919Y4459160D02*
G01*
X3914919Y4459160D01*
X3930159Y4443920D02*
G01*
X3930159Y4293679D01*
X4040060Y3184380D02*
G01*
X4040060Y3325380D01*
X3859339Y3325380D02*
G01*
X3859339Y3184380D01*
X3874579Y3169140D02*
G01*
X4024820Y3169140D01*
X4040060Y3546619D02*
G01*
X4040060Y3405619D01*
X3859339Y3405619D02*
G01*
X3859339Y3546619D01*
X3874579Y3561859D02*
G01*
X4024820Y3561859D01*
X3514580Y2602039D02*
G01*
X3655580Y2602039D01*
X3655580Y2782760D02*
G01*
X3514580Y2782760D01*
X3499340Y2767520D02*
G01*
X3499340Y2617279D01*
X3876819Y2602039D02*
G01*
X3735819Y2602039D01*
X3735819Y2782760D02*
G01*
X3876819Y2782760D01*
X3892059Y2767520D02*
G01*
X3892059Y2617279D01*
X3514580Y2817939D02*
G01*
X3655580Y2817939D01*
X3655580Y2998660D02*
G01*
X3514580Y2998660D01*
X3499340Y2983420D02*
G01*
X3499340Y2833179D01*
X3876819Y2817939D02*
G01*
X3735819Y2817939D01*
X3735819Y2998660D02*
G01*
X3876819Y2998660D01*
X3892059Y2983420D02*
G01*
X3892059Y2833179D01*
X6638780Y5904039D02*
G01*
X6779780Y5904039D01*
X6779780Y6084760D02*
G01*
X6638780Y6084760D01*
X6623540Y6069520D02*
G01*
X6623540Y5919279D01*
X7001019Y5904039D02*
G01*
X6860019Y5904039D01*
X6860019Y6084760D02*
G01*
X7001019Y6084760D01*
X7016259Y6069520D02*
G01*
X7016259Y5919279D01*
X6526339Y4537219D02*
G01*
X6526339Y4396219D01*
X6707060Y4396219D02*
G01*
X6707060Y4537219D01*
X6691820Y4552459D02*
G01*
X6541579Y4552459D01*
X6526339Y4174980D02*
G01*
X6526339Y4315980D01*
X6707060Y4315980D02*
G01*
X6707060Y4174980D01*
X6691820Y4159740D02*
G01*
X6541579Y4159740D01*
X4101360Y6742099D02*
G01*
X4396600Y6742099D01*
D13*
X4385795Y6982703D02*
G01*
X4396600Y6982703D01*
X4101360Y6982703D02*
G01*
X4112168Y6982703D01*
D10*
X4101360Y6617467D02*
G01*
X4101360Y6982703D01*
X4396600Y6617467D02*
G01*
X4396600Y6982703D01*
X6024580Y6901614D02*
G01*
X6319819Y6901614D01*
D13*
X6309014Y7142218D02*
G01*
X6319819Y7142218D01*
X6024580Y7142218D02*
G01*
X6035387Y7142218D01*
D10*
X6024580Y6776981D02*
G01*
X6024580Y7142218D01*
X6319819Y6776981D02*
G01*
X6319819Y7142218D01*
X2784218Y6895589D02*
G01*
X2498976Y6895589D01*
X2784218Y7066815D02*
G01*
X2784218Y6547578D01*
X2524036Y6547868D02*
G01*
X2500114Y6547200D01*
X2784218Y6547578D02*
G01*
X2760296Y6546910D01*
X2498976Y7066815D02*
G01*
X2498976Y6547578D01*
X3254118Y6920989D02*
G01*
X2968876Y6920989D01*
X3254118Y7092215D02*
G01*
X3254118Y6572978D01*
X2993936Y6573268D02*
G01*
X2970014Y6572600D01*
X3254118Y6572978D02*
G01*
X3230196Y6572310D01*
X2968876Y7092215D02*
G01*
X2968876Y6572978D01*
X5097274Y6944862D02*
G01*
X4812032Y6944862D01*
X5097274Y7116089D02*
G01*
X5097274Y6596852D01*
X4837092Y6597142D02*
G01*
X4813170Y6596473D01*
X5097274Y6596852D02*
G01*
X5073352Y6596184D01*
X4812032Y7116089D02*
G01*
X4812032Y6596852D01*
D12*
X1569280Y564385D02*
G01*
X1569280Y310385D01*
X1317820Y310385D01*
X1317820Y1072385D01*
X1569280Y1072385D01*
X1569280Y564385D01*
X1861380Y564385D02*
G01*
X1861380Y310385D01*
X1609920Y310385D01*
X1609920Y1072385D01*
X1861380Y1072385D01*
X1861380Y564385D01*
X2153480Y564385D02*
G01*
X2153480Y310385D01*
X1902020Y310385D01*
X1902020Y1072385D01*
X2153480Y1072385D01*
X2153480Y564385D01*
X2445580Y564385D02*
G01*
X2445580Y310385D01*
X2194120Y310385D01*
X2194120Y1072385D01*
X2445580Y1072385D01*
X2445580Y564385D01*
X3735456Y557273D02*
G01*
X3735456Y303273D01*
X3483996Y303273D01*
X3483996Y1065273D01*
X3735456Y1065273D01*
X3735456Y557273D01*
X3443356Y557273D02*
G01*
X3443356Y303273D01*
X3191896Y303273D01*
X3191896Y1065273D01*
X3443356Y1065273D01*
X3443356Y557273D01*
X3151256Y557273D02*
G01*
X3151256Y303273D01*
X2899796Y303273D01*
X2899796Y1065273D01*
X3151256Y1065273D01*
X3151256Y557273D01*
X2859156Y557273D02*
G01*
X2859156Y303273D01*
X2607696Y303273D01*
X2607696Y1065273D01*
X2859156Y1065273D01*
X2859156Y557273D01*
X5188780Y5085585D02*
G01*
X5188780Y5276085D01*
X4934780Y5276085D01*
X4934780Y1212085D01*
X5188780Y1212085D01*
X5188780Y1466085D01*
D14*
X5188780Y1466085D02*
G01*
X5188780Y5085585D01*
X5689605Y1460497D02*
G01*
X5689605Y3301997D01*
D12*
X5689605Y1460497D02*
G01*
X5689605Y1206497D01*
X5435605Y1206497D01*
X5435605Y3492497D01*
X5689605Y3492497D01*
X5689605Y3301997D01*
D11*
X7004304Y6971489D02*
G01*
X7003305Y7119498D01*
X7193305Y6985497D02*
G01*
X7193305Y7119498D01*
X7003305Y7119498D02*
G01*
X7193307Y7119498D01*
X7194306Y6746486D02*
G01*
X7194301Y6746486D01*
X7159307Y6711492D01*
X7004304Y6746486D02*
G01*
X7004309Y6746486D01*
X7039302Y6711492D01*
X7004304Y6871489D02*
G01*
X7004304Y6746486D01*
X7194306Y6871489D02*
G01*
X7194306Y6746486D01*
X7039302Y6711492D02*
G01*
X7159307Y6711492D01*
X7049305Y6951497D02*
G01*
X7149304Y6951497D01*
X7099810Y6951497D02*
G01*
X7099810Y6901497D01*
D12*
X7048505Y533397D02*
G01*
X6794505Y533397D01*
X6794505Y1549397D01*
X7048505Y1549397D01*
X7048505Y1358897D01*
D14*
X7048505Y533397D02*
G01*
X7048505Y1358897D01*
D12*
X7048500Y1587500D02*
G01*
X6794500Y1587500D01*
X6794500Y2603500D01*
X7048500Y2603500D01*
X7048500Y2413000D01*
D14*
X7048500Y1587500D02*
G01*
X7048500Y2413000D01*
D12*
X6794500Y4483100D02*
G01*
X7048500Y4483100D01*
X7048500Y3467100D01*
X6794500Y3467100D01*
X6794500Y3657600D01*
D14*
X6794500Y4483100D02*
G01*
X6794500Y3657600D01*
D10*
X6729846Y6885053D02*
G01*
X6729846Y6756560D01*
X6913265Y6756560D01*
X6913265Y6885053D01*
X6729846Y6980293D02*
G01*
X6729846Y7108786D01*
X6913265Y7108786D01*
X6913265Y6980293D01*
X1787890Y5400680D02*
G01*
X1787890Y5272186D01*
X1971309Y5272186D01*
X1971309Y5400680D01*
X1787890Y5495919D02*
G01*
X1787890Y5624413D01*
X1971309Y5624413D01*
X1971309Y5495919D01*
X1813290Y4067180D02*
G01*
X1813290Y3938686D01*
X1996709Y3938686D01*
X1996709Y4067180D01*
X1813290Y4162419D02*
G01*
X1813290Y4290913D01*
X1996709Y4290913D01*
X1996709Y4162419D01*
X6619880Y5108209D02*
G01*
X6491386Y5108209D01*
X6491386Y4924790D01*
X6619880Y4924790D01*
X6715119Y5108209D02*
G01*
X6843613Y5108209D01*
X6843613Y4924790D01*
X6715119Y4924790D01*
D11*
X6712056Y5427573D02*
G01*
X6712056Y5567573D01*
X7312055Y5427573D02*
G01*
X7312055Y5567573D01*
X6784624Y5197574D02*
G01*
X7232055Y5197574D01*
X6784624Y5797572D02*
G01*
X7239487Y5797572D01*
X419232Y6603616D02*
G01*
X8260Y6607172D01*
X3180Y6291958D01*
X419232Y6289672D01*
X529468Y5807834D02*
G01*
X403230Y5807834D01*
X403230Y6907654D01*
X529468Y6907654D01*
X959350Y6907743D02*
G01*
X1069350Y6907743D01*
X1069350Y5807745D01*
X959350Y5807745D01*
X4160083Y5745985D02*
G01*
X4160083Y411985D01*
X6407983Y411985D02*
G01*
X6407983Y5741682D01*
X6041684Y1258991D02*
G01*
X6041684Y5643981D01*
X6291684Y5643981D01*
X6291684Y513994D01*
X6041684Y513994D01*
X6041684Y1263990D01*
X6407983Y411985D02*
G01*
X4160083Y416288D01*
X4160083Y5745985D02*
G01*
X6403083Y5745985D01*
X4263684Y1258989D02*
G01*
X4263684Y5643981D01*
X4513684Y5643981D01*
X4513684Y513991D01*
X4263684Y513991D01*
X4263684Y1263990D01*
X3221456Y1326972D02*
G01*
X2471455Y1326972D01*
X2471455Y1326972D02*
G01*
X2471455Y1342359D01*
X2471455Y1448587D02*
G01*
X2471455Y1469359D01*
X2471455Y1575587D02*
G01*
X2471455Y1596359D01*
X2471455Y1702587D02*
G01*
X2471455Y1723359D01*
X2471455Y1829587D02*
G01*
X2471455Y1850359D01*
X2471455Y1956587D02*
G01*
X2471455Y1977359D01*
X2471455Y2083587D02*
G01*
X2471455Y2104359D01*
X2471455Y2210587D02*
G01*
X2471455Y2231359D01*
X2471455Y2337587D02*
G01*
X2471455Y2358359D01*
X2471455Y2464587D02*
G01*
X2471455Y2485359D01*
X2471455Y2591587D02*
G01*
X2471455Y2606974D01*
X2471455Y2606974D02*
G01*
X2776456Y2606974D01*
X3221456Y2606974D02*
G01*
X2916455Y2606974D01*
X3221456Y2606974D02*
G01*
X3221456Y2591587D01*
X3221456Y2485359D02*
G01*
X3221456Y2464587D01*
X3221456Y2358359D02*
G01*
X3221456Y2337587D01*
X3221456Y2231359D02*
G01*
X3221456Y2210587D01*
X3221456Y2104359D02*
G01*
X3221456Y2083587D01*
X3221456Y1977359D02*
G01*
X3221456Y1956587D01*
X3221456Y1850359D02*
G01*
X3221456Y1829587D01*
X3221456Y1723359D02*
G01*
X3221456Y1702587D01*
X3221456Y1596359D02*
G01*
X3221456Y1575587D01*
X3221456Y1469359D02*
G01*
X3221456Y1448587D01*
X3221456Y1342359D02*
G01*
X3221456Y1326972D01*
D10*
X5884176Y6559631D02*
G01*
X5218935Y6559631D01*
X5218935Y6853910D01*
X5884176Y6853910D01*
X5884176Y6559631D01*
X4027799Y6486512D02*
G01*
X4027799Y7111753D01*
X3352561Y6486512D02*
G01*
X3352561Y7111753D01*
X4027799Y7111753D02*
G01*
X3352561Y7111753D01*
D11*
G75*
G01*
X2953301Y5279205D02*
G02*
X2863291Y5279230I-45005J350D01*
G75*
G01*
X2966001Y3894905D02*
G02*
X2875991Y3894930I-45005J350D01*
D10*
G75*
G01*
X2414461Y6886720D02*
G03*
X2399221Y6901960I-15240J0D01*
G75*
G01*
X2248980Y6901960D02*
G03*
X2233740Y6886720I0J-15240D01*
G75*
G01*
X2414461Y6524480D02*
G02*
X2399221Y6509240I-15240J0D01*
G75*
G01*
X2248980Y6509240D02*
G02*
X2233740Y6524480I0J15240D01*
G75*
G01*
X4644141Y6905005D02*
G03*
X4628901Y6920245I-15240J0D01*
G75*
G01*
X4478660Y6920245D02*
G03*
X4463420Y6905005I0J-15240D01*
G75*
G01*
X4644141Y6542766D02*
G02*
X4628901Y6527526I-15240J0D01*
G75*
G01*
X4478660Y6527526D02*
G02*
X4463420Y6542766I0J15240D01*
G75*
G01*
X6594417Y7088393D02*
G03*
X6579177Y7103633I-15240J0D01*
G75*
G01*
X6428936Y7103633D02*
G03*
X6413696Y7088393I0J-15240D01*
G75*
G01*
X6594417Y6726154D02*
G02*
X6579177Y6710914I-15240J0D01*
G75*
G01*
X6428936Y6710914D02*
G02*
X6413696Y6726154I0J15240D01*
G75*
G01*
X3872040Y4657580D02*
G03*
X3887280Y4642340I15240J0D01*
G75*
G01*
X4037521Y4642340D02*
G03*
X4052761Y4657580I0J15240D01*
G75*
G01*
X3872040Y5019820D02*
G02*
X3887280Y5035060I15240J0D01*
G75*
G01*
X4037521Y5035060D02*
G02*
X4052761Y5019820I0J-15240D01*
G75*
G01*
X3552680Y4230560D02*
G03*
X3537440Y4215320I0J-15240D01*
G75*
G01*
X3537440Y4065080D02*
G03*
X3552680Y4049840I15240J0D01*
G75*
G01*
X3914920Y4230560D02*
G02*
X3930160Y4215320I0J-15240D01*
G75*
G01*
X3930160Y4065080D02*
G02*
X3914920Y4049840I-15240J0D01*
G75*
G01*
X3552680Y4459160D02*
G03*
X3537440Y4443920I0J-15240D01*
G75*
G01*
X3537440Y4293680D02*
G03*
X3552680Y4278440I15240J0D01*
G75*
G01*
X3914920Y4459160D02*
G02*
X3930160Y4443920I0J-15240D01*
G75*
G01*
X3930160Y4293680D02*
G02*
X3914920Y4278440I-15240J0D01*
G75*
G01*
X3859340Y3184380D02*
G03*
X3874580Y3169140I15240J0D01*
G75*
G01*
X4024821Y3169140D02*
G03*
X4040061Y3184380I0J15240D01*
G75*
G01*
X3859340Y3546620D02*
G02*
X3874580Y3561860I15240J0D01*
G75*
G01*
X4024821Y3561860D02*
G02*
X4040061Y3546620I0J-15240D01*
G75*
G01*
X3514580Y2782760D02*
G03*
X3499340Y2767520I0J-15240D01*
G75*
G01*
X3499340Y2617280D02*
G03*
X3514580Y2602040I15240J0D01*
G75*
G01*
X3876820Y2782760D02*
G02*
X3892060Y2767520I0J-15240D01*
G75*
G01*
X3892060Y2617280D02*
G02*
X3876820Y2602040I-15240J0D01*
G75*
G01*
X3514580Y2998660D02*
G03*
X3499340Y2983420I0J-15240D01*
G75*
G01*
X3499340Y2833180D02*
G03*
X3514580Y2817940I15240J0D01*
G75*
G01*
X3876820Y2998660D02*
G02*
X3892060Y2983420I0J-15240D01*
G75*
G01*
X3892060Y2833180D02*
G02*
X3876820Y2817940I-15240J0D01*
G75*
G01*
X6638780Y6084760D02*
G03*
X6623540Y6069520I0J-15240D01*
G75*
G01*
X6623540Y5919280D02*
G03*
X6638780Y5904040I15240J0D01*
G75*
G01*
X7001020Y6084760D02*
G02*
X7016260Y6069520I0J-15240D01*
G75*
G01*
X7016260Y5919280D02*
G02*
X7001020Y5904040I-15240J0D01*
G75*
G01*
X6707061Y4537220D02*
G03*
X6691821Y4552460I-15240J0D01*
G75*
G01*
X6541580Y4552460D02*
G03*
X6526340Y4537220I0J-15240D01*
G75*
G01*
X6707061Y4174980D02*
G02*
X6691821Y4159740I-15240J0D01*
G75*
G01*
X6541580Y4159740D02*
G02*
X6526340Y4174980I0J15240D01*
D15*
G75*
G01*
X2671450Y2509517D02*
G03*
X2671450Y2509009I-29999J-254D01*
D16*
G75*
G01*
X2406457Y2606975D02*
G03*
X2406457Y2606721I-15001J-127D01*
D11*
G75*
G01*
X2916456Y2606975D02*
G02*
X2776352Y2607053I-70052J459D01*
G75*
G01
X2176396Y6832600D02*
G03X2176396Y6832600I-499999J0D01*
G75*
G01
X2633459Y5336692D02*
G03X2633459Y5336692I-15011J0D01*
G75*
G01
X2646159Y3952392D02*
G03X2646159Y3952392I-15011J0D01*
G75*
G01
X7139064Y5497576D02*
G03X7139064Y5497576I-127000J0D01*
G75*
G01
X7200379Y5675376D02*
G03X7200379Y5675376I-35916J0D01*
G75*
G01
X6895579Y5675376D02*
G03X6895579Y5675376I-35916J0D01*
G75*
G01
X6895579Y5319776D02*
G03X6895579Y5319776I-35916J0D01*
G75*
G01
X7200379Y5319776D02*
G03X7200379Y5319776I-35916J0D01*
M02*
