G04 Layer: BottomSolderMaskLayer*
G04 EasyEDA v6.5.23, 2022-11-18 20:40:13*
G04 0c95b19414bf4a53847780bc83a88734,1dfdfe31e71b4ff6856625fdd89ee459,10*
G04 Gerber Generator version 0.2*
G04 Scale: 100 percent, Rotated: No, Reflected: No *
G04 Dimensions in millimeters *
G04 leading zeros omitted , absolute positions ,4 integer and 5 decimal *
%FSLAX45Y45*%
%MOMM*%

%AMMACRO1*1,1,$1,$2,$3*1,1,$1,$4,$5*1,1,$1,0-$2,0-$3*1,1,$1,0-$4,0-$5*20,1,$1,$2,$3,$4,$5,0*20,1,$1,$4,$5,0-$2,0-$3,0*20,1,$1,0-$2,0-$3,0-$4,0-$5,0*20,1,$1,0-$4,0-$5,$2,$3,0*4,1,4,$2,$3,$4,$5,0-$2,0-$3,0-$4,0-$5,$2,$3,0*%
%ADD10C,1.7016*%
%ADD11C,1.7500*%
%ADD12MACRO1,0.1016X0.7874X0.7874X0.7874X-0.7874*%
%ADD13C,1.6764*%
%ADD14C,1.6256*%
%ADD15MACRO1,0.1016X-0.7874X-0.7874X-0.7874X0.7874*%
%ADD16C,2.1016*%
%ADD17O,2.7516074X1.9015964*%
%ADD18MACRO1,0.1016X-0.9X-0.9X-0.9X0.9*%
%ADD19C,1.9016*%

%LPD*%
D10*
G01*
X1676397Y6578600D03*
G01*
X1676397Y7086600D03*
D11*
G01*
X990587Y4866106D03*
G01*
X990587Y5116093D03*
G01*
X761987Y3862806D03*
G01*
X761987Y4112793D03*
G01*
X761987Y3075406D03*
G01*
X761987Y3325393D03*
G01*
X761987Y2135606D03*
G01*
X761987Y2385593D03*
G01*
X761987Y1322806D03*
G01*
X761987Y1572793D03*
D12*
G01*
X6921500Y3289300D03*
D13*
G01*
X6921512Y3035300D03*
G01*
X6921512Y2781300D03*
D12*
G01*
X1442280Y945385D03*
D13*
G01*
X1442275Y691387D03*
G01*
X1442275Y437387D03*
D12*
G01*
X1734380Y945385D03*
D13*
G01*
X1734375Y691387D03*
G01*
X1734375Y437387D03*
D12*
G01*
X2026480Y945385D03*
D13*
G01*
X2026475Y691387D03*
G01*
X2026475Y437387D03*
D12*
G01*
X2318580Y945385D03*
D13*
G01*
X2318575Y691387D03*
G01*
X2318575Y437387D03*
D12*
G01*
X3608456Y938273D03*
D13*
G01*
X3608463Y684276D03*
G01*
X3608463Y430276D03*
D12*
G01*
X3316356Y938273D03*
D13*
G01*
X3316363Y684276D03*
G01*
X3316363Y430276D03*
D12*
G01*
X3024256Y938273D03*
D13*
G01*
X3024263Y684276D03*
G01*
X3024263Y430276D03*
D12*
G01*
X2732156Y938273D03*
D13*
G01*
X2732163Y684276D03*
G01*
X2732163Y430276D03*
G01*
X5061775Y1593087D03*
G01*
X5061775Y1847087D03*
G01*
X5061775Y2101087D03*
G01*
X5061775Y2355087D03*
G01*
X5061775Y2609087D03*
G01*
X5061775Y2863087D03*
G01*
X5061775Y3117087D03*
G01*
X5061775Y3371087D03*
G01*
X5061775Y3625087D03*
G01*
X5061775Y3879087D03*
G01*
X5061775Y4133087D03*
G01*
X5061775Y4387087D03*
G01*
X5061775Y4641087D03*
G01*
X5061775Y4895087D03*
D12*
G01*
X5061780Y5149085D03*
D14*
G01*
X5061775Y1339087D03*
D12*
G01*
X5562605Y3365497D03*
D13*
G01*
X5562612Y3111500D03*
G01*
X5562612Y2857500D03*
G01*
X5562612Y2603500D03*
G01*
X5562612Y2349500D03*
G01*
X5562612Y2095500D03*
G01*
X5562612Y1841500D03*
G01*
X5562612Y1587500D03*
G01*
X5562612Y1333500D03*
D12*
G01*
X6921505Y1422397D03*
D13*
G01*
X6921497Y1168394D03*
G01*
X6921497Y914394D03*
G01*
X6921497Y660394D03*
D12*
G01*
X6921500Y2476500D03*
D13*
G01*
X6921505Y2222497D03*
G01*
X6921505Y1968497D03*
G01*
X6921505Y1714497D03*
D15*
G01*
X6921500Y3594100D03*
D13*
G01*
X6921487Y3848100D03*
G01*
X6921487Y4102100D03*
G01*
X6921487Y4356100D03*
D16*
G01*
X6687070Y5692571D03*
G01*
X7337056Y5692571D03*
G01*
X7337056Y5302580D03*
G01*
X6687070Y5302580D03*
D14*
G01*
X869353Y6557746D03*
G01*
X869353Y6357746D03*
G01*
X869353Y6157747D03*
G01*
X619366Y6557746D03*
G01*
X619366Y6357746D03*
G01*
X619366Y6157747D03*
D17*
G01*
X744359Y6857745D03*
G01*
X744359Y5857747D03*
D18*
G01*
X4388683Y665985D03*
D19*
G01*
X4388675Y919987D03*
G01*
X4388675Y1173987D03*
G01*
X4388675Y1427987D03*
G01*
X4388675Y1681987D03*
G01*
X4388675Y1935987D03*
G01*
X4388675Y2189987D03*
G01*
X4388675Y2443987D03*
G01*
X4388675Y2697987D03*
G01*
X4388675Y2951987D03*
G01*
X4388675Y3205987D03*
G01*
X4388675Y3459987D03*
G01*
X4388675Y3713987D03*
G01*
X4388675Y3967987D03*
G01*
X4388675Y4221987D03*
G01*
X4388675Y4475987D03*
G01*
X4388675Y4729987D03*
G01*
X4388675Y4983987D03*
G01*
X4388675Y5237987D03*
G01*
X4388675Y5491987D03*
G01*
X6166675Y5491987D03*
G01*
X6166675Y5237987D03*
G01*
X6166675Y4983987D03*
G01*
X6166675Y4729987D03*
G01*
X6166675Y4475987D03*
G01*
X6166675Y4221987D03*
G01*
X6166675Y3967987D03*
G01*
X6166675Y3713987D03*
G01*
X6166675Y3459987D03*
G01*
X6166675Y3205987D03*
G01*
X6166675Y2951987D03*
G01*
X6166675Y2697987D03*
G01*
X6166675Y2443987D03*
G01*
X6166675Y2189987D03*
G01*
X6166675Y1935987D03*
G01*
X6166675Y1681987D03*
G01*
X6166675Y1427987D03*
G01*
X6166675Y1173987D03*
G01*
X6166675Y919987D03*
D18*
G01*
X6166680Y665985D03*
M02*
