G04 Layer: BoardOutlineLayer*
G04 EasyEDA v6.5.22, 2022-11-07 14:48:48*
G04 3be9330970bd49e991c0a6bdea7b1e86,1dfdfe31e71b4ff6856625fdd89ee459,10*
G04 Gerber Generator version 0.2*
G04 Scale: 100 percent, Rotated: No, Reflected: No *
G04 Dimensions in millimeters *
G04 leading zeros omitted , absolute positions ,4 integer and 5 decimal *
%FSLAX45Y45*%
%MOMM*%

%ADD10C,0.2540*%
%ADD11C,0.2500*%
D10*
X33261300Y-7493000D02*
G01*
X34010600Y-7493000D01*
X34010600Y-9055100D01*
X33261300Y-9055100D01*
X33261300Y-7493000D01*
X26771600Y-5125973D02*
G01*
X26771600Y-5100573D01*
X27609800Y-5100573D01*
X27609800Y-5435600D01*
X27432000Y-5435600D01*
X25577800Y-7480300D02*
G01*
X26339800Y-7480300D01*
X26339800Y-9055100D01*
X25577800Y-9055100D01*
X25577800Y-7480300D01*
X26784300Y-5435600D02*
G01*
X27425650Y-5435600D01*
X26771600Y-5100599D02*
G01*
X26771600Y-5430799D01*
X12357100Y-8534400D02*
G01*
X12357100Y-8534400D01*
X14648434Y-8534400D01*
X14648434Y-4940300D01*
X13276834Y-4940300D01*
X13208000Y-4940300D01*
X18572782Y-8589490D02*
G01*
X18572782Y-8592032D01*
X18572782Y-8020532D01*
X15994682Y-8020532D01*
X15994682Y-8718499D01*
X18572782Y-8718499D01*
X18572782Y-8586955D01*
X18572782Y-5303674D02*
G01*
X18572782Y-5275732D01*
X18572782Y-4831232D01*
X15994682Y-4831232D01*
X15994682Y-5301132D01*
X18572782Y-5301132D01*
X18580100Y-6591833D02*
G01*
X18580100Y-7201941D01*
X18567400Y-6595201D02*
G01*
X18572782Y-6595734D01*
X15994682Y-6595734D01*
X15994682Y-7205334D01*
X18572782Y-7205334D01*
X18567400Y-7204801D01*
X28879800Y-6426200D02*
G01*
X30581600Y-6422897D01*
X30581600Y-7057897D01*
X28879800Y-7057897D01*
X28879800Y-6426200D01*
X19939000Y-8534400D02*
G01*
X22247059Y-8534400D01*
X22250702Y-8530757D01*
X21420581Y-4974844D02*
G01*
X19944334Y-4974844D01*
X21420581Y-4974844D02*
G01*
X19944334Y-4974844D01*
X19944334Y-4974844D02*
G01*
X19944334Y-8521700D01*
X17123409Y-3619500D02*
G01*
X17682209Y-3619500D01*
X17682209Y-3835400D01*
X16907509Y-3835400D01*
X16907509Y-3619500D01*
X17136109Y-3619500D01*
X29556709Y-4013200D02*
G01*
X30115509Y-4013200D01*
X30115509Y-4229100D01*
X29340809Y-4229100D01*
X29340809Y-4013200D01*
X29569409Y-4013200D01*
X38684200Y-4330700D02*
G01*
X38684200Y-4292600D01*
X41783000Y-4292600D01*
X41783000Y-7658100D01*
X38684200Y-7658100D01*
X38684200Y-4318000D01*
X28851352Y-9715500D02*
G01*
X30591252Y-9715500D01*
X30591252Y-10325100D01*
X28879800Y-10325100D01*
X28879800Y-9715500D01*
X28851352Y-9715500D01*
D11*
G75*
G01
X13595198Y-10058400D02*
G03X13595198Y-10058400I-171298J0D01*
G75*
G01
X15665806Y-10460888D02*
G03X15665806Y-10460888I-171298J0D01*
G75*
G01
X19285306Y-10460888D02*
G03X19285306Y-10460888I-171298J0D01*
G75*
G01
X17463389Y-9702800D02*
G03X17463389Y-9702800I-171298J0D01*
G75*
G01
X17463389Y-11214100D02*
G03X17463389Y-11214100I-171298J0D01*
G75*
G01
X16742207Y-12141200D02*
G03X16742207Y-12141200I-171298J0D01*
G75*
G01
X18190007Y-12141200D02*
G03X18190007Y-12141200I-171298J0D01*
G75*
G01
X14250695Y-4610938D02*
G03X14250695Y-4610938I-171298J0D01*
G75*
G01
X20710195Y-4610938D02*
G03X20710195Y-4610938I-171298J0D01*
G75*
G01
X19630695Y-5775833D02*
G03X19630695Y-5775833I-80010J0D01*
G75*
G01
X19605295Y-7490333D02*
G03X19605295Y-7490333I-80010J0D01*
G75*
G01
X15109495Y-7490333D02*
G03X15109495Y-7490333I-80010J0D01*
G75*
G01
X15109495Y-5775833D02*
G03X15109495Y-5775833I-80010J0D01*
G75*
G01
X28690621Y-3795700D02*
G03X28690621Y-3795700I-171298J0D01*
G75*
G01
X31131205Y-3795700D02*
G03X31131205Y-3795700I-171298J0D01*
G75*
G01
X27363293Y-5839282D02*
G03X27363293Y-5839282I-171298J0D01*
G75*
G01
X28690621Y-6399200D02*
G03X28690621Y-6399200I-171298J0D01*
G75*
G01
X31131205Y-6399200D02*
G03X31131205Y-6399200I-171298J0D01*
G75*
G01
X33902498Y-10261600D02*
G03X33902498Y-10261600I-171298J0D01*
G75*
G01
X29896714Y-12395200D02*
G03X29896714Y-12395200I-171298J0D01*
G75*
G01
X26053898Y-10261600D02*
G03X26053898Y-10261600I-171298J0D01*
G75*
G01
X27931415Y-7112025D02*
G03X27931415Y-7112025I-171298J0D01*
G75*
G01
X33011415Y-8610625D02*
G03X33011415Y-8610625I-171298J0D01*
G75*
G01
X33024115Y-11417325D02*
G03X33024115Y-11417325I-171298J0D01*
G75*
G01
X27804415Y-11912625D02*
G03X27804415Y-11912625I-171298J0D01*
G75*
G01
X39204621Y-4635500D02*
G03X39204621Y-4635500I-171298J0D01*
G75*
G01
X41645205Y-4635500D02*
G03X41645205Y-4635500I-171298J0D01*
G75*
G01
X39204621Y-7239000D02*
G03X39204621Y-7239000I-171298J0D01*
G75*
G01
X41645205Y-7239000D02*
G03X41645205Y-7239000I-171298J0D01*
D10*
G75*
G01
X40618893Y-5674563D02*
G03X40618893Y-5674563I-380009J0D01*
D11*
G75*
G01
X16559682Y-3402000D02*
G03X16559682Y-3402000I-171298J0D01*
G75*
G01
X18379669Y-3402000D02*
G03X18379669Y-3402000I-171298J0D01*
D10*
G75*
G01
X14455191Y-4216400D02*
G03X14455191Y-4216400I-170002J0D01*
D11*
G75*
G01
X16544874Y-4217695D02*
G03X16544874Y-4217695I-171298J0D01*
G75*
G01
X18348274Y-4217695D02*
G03X18348274Y-4217695I-171298J0D01*
D10*
G75*
G01
X20473492Y-4216400D02*
G03X20473492Y-4216400I-170002J0D01*
D11*
G75*
G01
X16257321Y-6208700D02*
G03X16257321Y-6208700I-171298J0D01*
G75*
G01
X18697905Y-6208700D02*
G03X18697905Y-6208700I-171298J0D01*
G75*
G01
X21443798Y-10071100D02*
G03X21443798Y-10071100I-171298J0D01*
G75*
G01
X26709395Y-4776038D02*
G03X26709395Y-4776038I-171298J0D01*
G75*
G01
X33168895Y-4776038D02*
G03X33168895Y-4776038I-171298J0D01*
D10*
G75*
G01
X34768790Y-7962900D02*
G03X34768790Y-7962900I-4999990J0D01*
G75*
G01*
X13205287Y-4945652D02*
G02*
X21397468Y-4974844I4086139J-2807314D01*
G75*
G01*
X12357296Y-8547268D02*
G03*
X22248114Y-8547862I4945451J706771D01*

%LPD*%
M02*
