G04 Layer: BottomLayer*
G04 EasyEDA v6.5.22, 2022-11-07 14:43:17*
G04 63209c1ceee94e1f90b91c566973135d,1dfdfe31e71b4ff6856625fdd89ee459,10*
G04 Gerber Generator version 0.2*
G04 Scale: 100 percent, Rotated: No, Reflected: No *
G04 Dimensions in millimeters *
G04 leading zeros omitted , absolute positions ,4 integer and 5 decimal *
%FSLAX45Y45*%
%MOMM*%

%ADD10C,0.6000*%
%ADD11C,1.2000*%
%ADD12C,1.0000*%
%ADD13C,0.8000*%
%ADD14C,2.0000*%
%ADD15R,2.0000X2.0000*%
%ADD16C,1.3000*%
%ADD17C,1.8000*%
%ADD18R,1.8000X1.8000*%
%ADD19R,1.5000X1.5000*%
%ADD20C,1.5000*%
%ADD21C,1.7000*%
%ADD22R,1.5748X1.7000*%
%ADD23C,1.6000*%
%ADD24R,1.5748X1.5748*%
%ADD25C,1.5748*%
%ADD26C,1.5240*%
%ADD27R,1.8000X1.5748*%
%ADD28R,1.7000X1.7000*%
%ADD29O,2.6500074X1.7999964*%
%ADD30R,1.6000X2.0000*%
%ADD31O,1.9999959999999999X1.499997*%
%ADD32R,2.0000X1.5000*%
%ADD33C,0.6096*%
%ADD34C,0.0153*%

%LPD*%
G36*
X470916Y38608D02*
G01*
X467004Y39370D01*
X463753Y41605D01*
X461518Y44856D01*
X460756Y48768D01*
X460756Y297586D01*
X461518Y301498D01*
X463753Y304800D01*
X467207Y308203D01*
X469849Y311759D01*
X472338Y317296D01*
X473506Y324764D01*
X473506Y4855616D01*
X472693Y4862118D01*
X471068Y4866436D01*
X470408Y4870043D01*
X470408Y6009132D01*
X471170Y6013043D01*
X473405Y6016294D01*
X476656Y6018530D01*
X480568Y6019292D01*
X6538264Y6019292D01*
X6542125Y6018530D01*
X6545427Y6016294D01*
X6822744Y5738977D01*
X6824980Y5735675D01*
X6825742Y5731814D01*
X6825691Y4356557D01*
X6826097Y4352086D01*
X6828281Y4345127D01*
X6830212Y4341622D01*
X6834631Y4336542D01*
X7076338Y4116527D01*
X7078827Y4113123D01*
X7079691Y4109008D01*
X7079691Y829919D01*
X7078878Y825957D01*
X7076592Y822604D01*
X6837629Y592480D01*
X6833412Y589686D01*
X6829094Y585571D01*
X6825894Y580593D01*
X6823964Y574852D01*
X6823405Y569417D01*
X6823405Y346557D01*
X6822846Y343103D01*
X6820052Y335381D01*
X6819392Y329641D01*
X6819392Y48768D01*
X6818630Y44856D01*
X6816394Y41605D01*
X6813143Y39370D01*
X6809231Y38608D01*
G37*

%LPC*%
G36*
X830376Y67360D02*
G01*
X844499Y67818D01*
X858469Y70104D01*
X872032Y74117D01*
X884986Y79857D01*
X897128Y87172D01*
X908202Y96012D01*
X918006Y106172D01*
X926490Y117551D01*
X933450Y129844D01*
X938733Y143002D01*
X942340Y156667D01*
X944168Y170738D01*
X944168Y184861D01*
X942340Y198932D01*
X938733Y212598D01*
X933450Y225755D01*
X926490Y238048D01*
X918006Y249428D01*
X908202Y259588D01*
X897128Y268427D01*
X884986Y275742D01*
X872032Y281482D01*
X858469Y285496D01*
X844499Y287782D01*
X830376Y288239D01*
X816254Y286867D01*
X802487Y283718D01*
X789178Y278841D01*
X776630Y272288D01*
X764997Y264160D01*
X754532Y254660D01*
X745337Y243890D01*
X737616Y232003D01*
X731469Y219252D01*
X727049Y205841D01*
X724306Y191922D01*
X723392Y177800D01*
X724306Y163677D01*
X727049Y149758D01*
X731469Y136347D01*
X737616Y123596D01*
X745337Y111709D01*
X754532Y100939D01*
X764997Y91440D01*
X776630Y83312D01*
X789178Y76758D01*
X802487Y71882D01*
X816254Y68732D01*
G37*
G36*
X1880362Y67360D02*
G01*
X1894484Y67818D01*
X1908505Y70104D01*
X1922068Y74117D01*
X1935022Y79857D01*
X1947113Y87172D01*
X1958187Y96012D01*
X1968042Y106172D01*
X1976475Y117551D01*
X1983435Y129844D01*
X1988769Y143002D01*
X1992325Y156667D01*
X1994154Y170738D01*
X1994154Y184861D01*
X1992325Y198932D01*
X1988769Y212598D01*
X1983435Y225755D01*
X1976475Y238048D01*
X1968042Y249428D01*
X1958187Y259588D01*
X1947113Y268427D01*
X1935022Y275742D01*
X1922068Y281482D01*
X1908505Y285496D01*
X1894484Y287782D01*
X1880362Y288239D01*
X1866290Y286867D01*
X1852472Y283718D01*
X1839163Y278841D01*
X1826615Y272288D01*
X1815033Y264160D01*
X1804517Y254660D01*
X1795373Y243890D01*
X1787652Y232003D01*
X1781505Y219252D01*
X1777034Y205841D01*
X1774342Y191922D01*
X1773428Y177800D01*
X1774342Y163677D01*
X1777034Y149758D01*
X1781505Y136347D01*
X1787652Y123596D01*
X1795373Y111709D01*
X1804517Y100939D01*
X1815033Y91440D01*
X1826615Y83312D01*
X1839163Y76758D01*
X1852472Y71882D01*
X1866290Y68732D01*
G37*
G36*
X5016804Y193497D02*
G01*
X6400495Y193497D01*
X6408470Y194005D01*
X6410553Y194310D01*
X6420256Y196697D01*
X6427571Y199745D01*
X6436106Y204876D01*
X6443827Y211429D01*
X6595770Y363372D01*
X6602323Y371094D01*
X6607454Y379628D01*
X6610502Y386943D01*
X6612890Y396646D01*
X6613194Y398729D01*
X6613702Y406704D01*
X6613702Y720039D01*
X6614464Y723900D01*
X6616700Y727202D01*
X6798970Y909472D01*
X6805523Y917194D01*
X6810654Y925728D01*
X6813702Y933043D01*
X6816090Y942746D01*
X6816394Y944829D01*
X6816902Y952804D01*
X6816902Y2311095D01*
X6816394Y2319070D01*
X6816090Y2321153D01*
X6813702Y2330856D01*
X6810654Y2338171D01*
X6805523Y2346706D01*
X6798970Y2354427D01*
X6748627Y2404770D01*
X6740906Y2411323D01*
X6732371Y2416454D01*
X6725056Y2419502D01*
X6715353Y2421890D01*
X6713270Y2422194D01*
X6705295Y2422702D01*
X6391960Y2422702D01*
X6388100Y2423464D01*
X6384798Y2425700D01*
X6362700Y2447798D01*
X6360464Y2451100D01*
X6359702Y2454960D01*
X6359702Y2806395D01*
X6359194Y2814370D01*
X6358890Y2816453D01*
X6356502Y2826156D01*
X6353454Y2833471D01*
X6348323Y2842006D01*
X6341770Y2849727D01*
X6227927Y2963570D01*
X6220206Y2970123D01*
X6211671Y2975254D01*
X6204356Y2978302D01*
X6194653Y2980690D01*
X6192570Y2980994D01*
X6184595Y2981502D01*
X6084519Y2981502D01*
X6081318Y2982010D01*
X6078423Y2983534D01*
X6076188Y2985871D01*
X6074003Y2989021D01*
X6064554Y2999384D01*
X6053937Y3008426D01*
X6042202Y3016046D01*
X6029553Y3022142D01*
X6016294Y3026562D01*
X6002528Y3029204D01*
X5988608Y3030118D01*
X5974638Y3029204D01*
X5960872Y3026562D01*
X5947613Y3022142D01*
X5934964Y3016046D01*
X5923280Y3008426D01*
X5912612Y2999384D01*
X5903214Y2989021D01*
X5895187Y2977540D01*
X5888685Y2965094D01*
X5883859Y2951988D01*
X5880760Y2938322D01*
X5879439Y2924403D01*
X5879846Y2910433D01*
X5882081Y2896616D01*
X5886094Y2883154D01*
X5891733Y2870352D01*
X5898997Y2858414D01*
X5907735Y2847441D01*
X5917793Y2837738D01*
X5929020Y2829356D01*
X5941212Y2822498D01*
X5954166Y2817215D01*
X5967730Y2813710D01*
X5981598Y2811881D01*
X5995568Y2811881D01*
X6009487Y2813710D01*
X6023000Y2817215D01*
X6035954Y2822498D01*
X6048197Y2829356D01*
X6059373Y2837738D01*
X6069431Y2847441D01*
X6076797Y2856687D01*
X6078982Y2858719D01*
X6081725Y2860040D01*
X6084722Y2860497D01*
X6155639Y2860497D01*
X6159500Y2859735D01*
X6162802Y2857500D01*
X6235700Y2784602D01*
X6237935Y2781300D01*
X6238697Y2777439D01*
X6238697Y2426004D01*
X6239205Y2418029D01*
X6239510Y2415946D01*
X6241897Y2406243D01*
X6244945Y2398928D01*
X6250076Y2390394D01*
X6256629Y2382672D01*
X6319672Y2319629D01*
X6327394Y2313076D01*
X6335928Y2307945D01*
X6343243Y2304897D01*
X6352946Y2302510D01*
X6355029Y2302205D01*
X6363004Y2301697D01*
X6424269Y2301697D01*
X6427978Y2300986D01*
X6431178Y2299004D01*
X6433413Y2295956D01*
X6434378Y2292299D01*
X6433972Y2288540D01*
X6431889Y2281783D01*
X6431280Y2275332D01*
X6431280Y2118868D01*
X6431889Y2112416D01*
X6433616Y2106726D01*
X6436461Y2101443D01*
X6440220Y2096820D01*
X6444843Y2093061D01*
X6450126Y2090216D01*
X6455816Y2088489D01*
X6462268Y2087829D01*
X6618731Y2087829D01*
X6625183Y2088489D01*
X6630873Y2090216D01*
X6636156Y2093061D01*
X6640779Y2096820D01*
X6644538Y2101443D01*
X6647383Y2106726D01*
X6649110Y2112416D01*
X6649770Y2118868D01*
X6649770Y2275332D01*
X6649110Y2281783D01*
X6647027Y2288540D01*
X6646621Y2292299D01*
X6647586Y2295956D01*
X6649821Y2299004D01*
X6653022Y2300986D01*
X6656730Y2301697D01*
X6676339Y2301697D01*
X6680200Y2300935D01*
X6683502Y2298700D01*
X6692900Y2289302D01*
X6695135Y2286000D01*
X6695897Y2282139D01*
X6695897Y981760D01*
X6695135Y977900D01*
X6692900Y974598D01*
X6510629Y792327D01*
X6504076Y784606D01*
X6499860Y777849D01*
X6498691Y775614D01*
X6495846Y772261D01*
X6491833Y770382D01*
X6487414Y770432D01*
X6483451Y772312D01*
X6480657Y775665D01*
X6479489Y777900D01*
X6475323Y784606D01*
X6468770Y792327D01*
X6405727Y855370D01*
X6398006Y861923D01*
X6389471Y867054D01*
X6382156Y870102D01*
X6372453Y872490D01*
X6370370Y872794D01*
X6362395Y873302D01*
X6277660Y873302D01*
X6273800Y874064D01*
X6270498Y876300D01*
X6197600Y949198D01*
X6195364Y952500D01*
X6194602Y956360D01*
X6194602Y2323795D01*
X6194094Y2331770D01*
X6193790Y2333853D01*
X6191402Y2343556D01*
X6188354Y2350871D01*
X6183223Y2359406D01*
X6176670Y2367127D01*
X6062827Y2480970D01*
X6055106Y2487523D01*
X6046571Y2492654D01*
X6039256Y2495702D01*
X6029553Y2498090D01*
X6027470Y2498394D01*
X6019495Y2498902D01*
X5845860Y2498902D01*
X5842000Y2499664D01*
X5838698Y2501900D01*
X5791200Y2549398D01*
X5788964Y2552700D01*
X5788202Y2556560D01*
X5788202Y3082239D01*
X5788964Y3086100D01*
X5791200Y3089402D01*
X5813298Y3111500D01*
X5816600Y3113735D01*
X5820460Y3114497D01*
X5892444Y3114497D01*
X5895441Y3114040D01*
X5898184Y3112719D01*
X5900369Y3110687D01*
X5907735Y3101441D01*
X5917793Y3091738D01*
X5929020Y3083356D01*
X5941212Y3076498D01*
X5954166Y3071215D01*
X5967730Y3067710D01*
X5981598Y3065881D01*
X5995568Y3065881D01*
X6009487Y3067710D01*
X6023000Y3071215D01*
X6035954Y3076498D01*
X6048197Y3083356D01*
X6059373Y3091738D01*
X6069431Y3101441D01*
X6078169Y3112414D01*
X6085433Y3124352D01*
X6091072Y3137154D01*
X6095085Y3150616D01*
X6097320Y3164433D01*
X6097778Y3178403D01*
X6096406Y3192322D01*
X6093307Y3205988D01*
X6088481Y3219094D01*
X6081979Y3231540D01*
X6074003Y3243021D01*
X6064554Y3253384D01*
X6053937Y3262426D01*
X6042202Y3270046D01*
X6029553Y3276142D01*
X6016294Y3280562D01*
X6002528Y3283204D01*
X5988608Y3284118D01*
X5974638Y3283204D01*
X5960872Y3280562D01*
X5947613Y3276142D01*
X5934964Y3270046D01*
X5923280Y3262426D01*
X5912612Y3253384D01*
X5903214Y3243021D01*
X5900978Y3239871D01*
X5898743Y3237534D01*
X5895848Y3236010D01*
X5892647Y3235502D01*
X5791504Y3235502D01*
X5783529Y3234994D01*
X5781446Y3234690D01*
X5771743Y3232302D01*
X5764428Y3229254D01*
X5755894Y3224123D01*
X5748172Y3217570D01*
X5685129Y3154527D01*
X5678576Y3146806D01*
X5673445Y3138271D01*
X5670397Y3130956D01*
X5668010Y3121253D01*
X5667705Y3119170D01*
X5667197Y3111195D01*
X5667197Y2527604D01*
X5667705Y2519629D01*
X5668010Y2517546D01*
X5670397Y2507843D01*
X5673445Y2500528D01*
X5678576Y2491994D01*
X5685129Y2484272D01*
X5773572Y2395829D01*
X5781294Y2389276D01*
X5789828Y2384145D01*
X5797143Y2381097D01*
X5806846Y2378710D01*
X5808929Y2378405D01*
X5816904Y2377897D01*
X5990539Y2377897D01*
X5994400Y2377135D01*
X5997702Y2374900D01*
X6070600Y2302002D01*
X6072835Y2298700D01*
X6073597Y2294839D01*
X6073597Y927404D01*
X6074105Y919429D01*
X6074410Y917346D01*
X6076797Y907643D01*
X6079845Y900328D01*
X6084976Y891794D01*
X6091529Y884072D01*
X6205372Y770229D01*
X6213094Y763676D01*
X6221628Y758545D01*
X6228943Y755497D01*
X6238646Y753110D01*
X6240729Y752805D01*
X6248704Y752297D01*
X6333439Y752297D01*
X6337300Y751535D01*
X6340602Y749300D01*
X6362700Y727202D01*
X6364935Y723900D01*
X6365697Y720039D01*
X6365697Y486460D01*
X6364935Y482600D01*
X6362700Y479298D01*
X6302502Y419100D01*
X6299200Y416864D01*
X6295339Y416102D01*
X5261660Y416102D01*
X5257800Y416864D01*
X5254498Y419100D01*
X5245100Y428498D01*
X5242864Y431800D01*
X5242102Y435660D01*
X5242102Y461873D01*
X5242661Y465175D01*
X5244236Y468071D01*
X5246674Y470357D01*
X5254193Y475335D01*
X5265470Y484987D01*
X5275478Y495960D01*
X5284012Y508050D01*
X5291074Y521157D01*
X5296408Y534974D01*
X5298694Y543966D01*
X5300319Y547522D01*
X5303215Y550164D01*
X5306872Y551535D01*
X5310784Y551383D01*
X5314340Y549808D01*
X5317083Y547014D01*
X5323230Y527964D01*
X5329428Y514502D01*
X5337251Y501904D01*
X5346547Y490321D01*
X5357215Y480009D01*
X5369052Y471068D01*
X5381904Y463651D01*
X5395569Y457860D01*
X5409844Y453796D01*
X5424474Y451510D01*
X5439308Y451053D01*
X5454091Y452424D01*
X5468569Y455625D01*
X5482539Y460552D01*
X5495848Y467156D01*
X5508193Y475335D01*
X5519470Y484987D01*
X5529478Y495960D01*
X5538012Y508050D01*
X5545074Y521157D01*
X5550408Y534974D01*
X5552694Y543966D01*
X5554319Y547522D01*
X5557215Y550164D01*
X5560872Y551535D01*
X5564784Y551383D01*
X5568340Y549808D01*
X5571083Y547014D01*
X5577230Y527964D01*
X5583428Y514502D01*
X5591251Y501904D01*
X5600547Y490321D01*
X5611215Y480009D01*
X5623052Y471068D01*
X5635904Y463651D01*
X5649569Y457860D01*
X5663844Y453796D01*
X5678474Y451510D01*
X5693308Y451053D01*
X5708091Y452424D01*
X5722569Y455625D01*
X5736539Y460552D01*
X5749848Y467156D01*
X5762193Y475335D01*
X5773470Y484987D01*
X5783478Y495960D01*
X5792012Y508050D01*
X5799074Y521157D01*
X5804408Y534974D01*
X5806694Y543966D01*
X5808319Y547522D01*
X5811215Y550164D01*
X5814872Y551535D01*
X5818784Y551383D01*
X5822340Y549808D01*
X5825083Y547014D01*
X5831230Y527964D01*
X5837428Y514502D01*
X5845251Y501904D01*
X5854547Y490321D01*
X5865215Y480009D01*
X5877052Y471068D01*
X5889904Y463651D01*
X5903569Y457860D01*
X5917844Y453796D01*
X5932474Y451510D01*
X5947308Y451053D01*
X5962091Y452424D01*
X5976569Y455625D01*
X5990539Y460552D01*
X6003848Y467156D01*
X6016193Y475335D01*
X6027470Y484987D01*
X6037478Y495960D01*
X6046012Y508050D01*
X6053074Y521157D01*
X6057442Y532485D01*
X6059627Y535889D01*
X6062878Y538175D01*
X6066790Y538988D01*
X6070752Y538276D01*
X6074054Y536092D01*
X6076289Y532739D01*
X6077102Y528828D01*
X6077102Y481990D01*
X6077712Y475538D01*
X6079439Y469849D01*
X6082284Y464566D01*
X6086043Y459943D01*
X6090666Y456184D01*
X6095949Y453339D01*
X6101638Y451612D01*
X6108090Y451002D01*
X6287109Y451002D01*
X6293561Y451612D01*
X6299250Y453339D01*
X6304534Y456184D01*
X6309156Y459943D01*
X6312916Y464566D01*
X6315710Y469849D01*
X6317488Y475538D01*
X6318097Y481990D01*
X6318097Y661009D01*
X6317488Y667461D01*
X6315710Y673150D01*
X6312916Y678434D01*
X6309156Y683056D01*
X6304534Y686816D01*
X6299250Y689660D01*
X6293561Y691388D01*
X6287109Y691997D01*
X6108090Y691997D01*
X6101638Y691388D01*
X6095949Y689660D01*
X6090666Y686816D01*
X6086043Y683056D01*
X6082284Y678434D01*
X6079439Y673150D01*
X6077712Y667461D01*
X6077102Y661009D01*
X6077102Y614172D01*
X6076289Y610260D01*
X6074054Y606907D01*
X6070752Y604723D01*
X6066790Y604012D01*
X6062878Y604824D01*
X6059627Y607110D01*
X6057442Y610514D01*
X6053074Y621842D01*
X6046012Y634949D01*
X6037478Y647039D01*
X6027470Y658012D01*
X6016193Y667664D01*
X6003848Y675843D01*
X5990539Y682447D01*
X5976569Y687374D01*
X5962091Y690575D01*
X5947308Y691946D01*
X5932474Y691489D01*
X5917844Y689203D01*
X5903569Y685139D01*
X5889904Y679348D01*
X5877052Y671931D01*
X5865215Y662990D01*
X5854547Y652678D01*
X5845251Y641096D01*
X5837428Y628497D01*
X5831230Y615035D01*
X5825083Y595985D01*
X5822340Y593191D01*
X5818784Y591616D01*
X5814872Y591464D01*
X5811215Y592836D01*
X5808319Y595477D01*
X5806694Y599033D01*
X5804408Y608025D01*
X5799074Y621842D01*
X5792012Y634949D01*
X5783478Y647039D01*
X5773470Y658012D01*
X5762193Y667664D01*
X5754674Y672642D01*
X5752236Y674928D01*
X5750661Y677824D01*
X5750102Y681126D01*
X5750102Y736295D01*
X5749594Y744270D01*
X5749290Y746353D01*
X5746902Y756056D01*
X5743854Y763371D01*
X5738723Y771906D01*
X5732170Y779627D01*
X5532831Y978966D01*
X5530596Y982268D01*
X5529834Y986129D01*
X5530596Y990041D01*
X5532831Y993343D01*
X5536133Y995527D01*
X5539994Y996289D01*
X5689193Y996289D01*
X5700623Y997203D01*
X5711393Y999794D01*
X5721604Y1004011D01*
X5731002Y1009802D01*
X5739739Y1017219D01*
X5942380Y1219860D01*
X5949797Y1228598D01*
X5955588Y1237996D01*
X5959805Y1248206D01*
X5962396Y1258976D01*
X5963310Y1270406D01*
X5963310Y1434134D01*
X5964072Y1438046D01*
X5966256Y1441297D01*
X5969558Y1443532D01*
X5973470Y1444294D01*
X5992317Y1444294D01*
X5998718Y1444904D01*
X6004458Y1446682D01*
X6009741Y1449476D01*
X6014313Y1453286D01*
X6018123Y1457858D01*
X6020917Y1463141D01*
X6022695Y1468882D01*
X6023305Y1475282D01*
X6023305Y1674317D01*
X6022695Y1680718D01*
X6020917Y1686458D01*
X6018123Y1691741D01*
X6014313Y1696313D01*
X6009741Y1700123D01*
X6004458Y1702917D01*
X5998718Y1704695D01*
X5992317Y1705305D01*
X5975908Y1705305D01*
X5971692Y1706219D01*
X5968238Y1708759D01*
X5966155Y1712518D01*
X5965799Y1716786D01*
X5967222Y1720799D01*
X5970219Y1723898D01*
X5971997Y1725066D01*
X5983681Y1735175D01*
X5994146Y1746605D01*
X6003137Y1759153D01*
X6010605Y1772666D01*
X6016396Y1786991D01*
X6020511Y1801926D01*
X6022797Y1817217D01*
X6023254Y1832660D01*
X6021832Y1848053D01*
X6018682Y1863191D01*
X6013704Y1877822D01*
X6007049Y1891792D01*
X5998819Y1904847D01*
X5989066Y1916887D01*
X5977991Y1927656D01*
X5965698Y1937004D01*
X5952388Y1944878D01*
X5938215Y1951126D01*
X5923432Y1955647D01*
X5908243Y1958390D01*
X5892800Y1959305D01*
X5877356Y1958390D01*
X5862167Y1955647D01*
X5847384Y1951126D01*
X5833211Y1944878D01*
X5819902Y1937004D01*
X5807608Y1927656D01*
X5796534Y1916887D01*
X5786780Y1904847D01*
X5778550Y1891792D01*
X5771896Y1877822D01*
X5766917Y1863191D01*
X5763768Y1848053D01*
X5762345Y1832660D01*
X5762853Y1817217D01*
X5765088Y1801926D01*
X5769203Y1786991D01*
X5774994Y1772666D01*
X5782462Y1759153D01*
X5791454Y1746605D01*
X5801918Y1735175D01*
X5813602Y1725066D01*
X5815380Y1723898D01*
X5818378Y1720799D01*
X5819800Y1716786D01*
X5819444Y1712518D01*
X5817362Y1708759D01*
X5813907Y1706219D01*
X5809691Y1705305D01*
X5793282Y1705305D01*
X5786882Y1704695D01*
X5781141Y1702917D01*
X5775858Y1700123D01*
X5771286Y1696313D01*
X5767476Y1691741D01*
X5764682Y1686458D01*
X5762904Y1680718D01*
X5762294Y1674317D01*
X5762294Y1475282D01*
X5762904Y1468882D01*
X5764682Y1463141D01*
X5767476Y1457858D01*
X5771286Y1453286D01*
X5775858Y1449476D01*
X5781141Y1446682D01*
X5786882Y1444904D01*
X5793282Y1444294D01*
X5812129Y1444294D01*
X5816041Y1443532D01*
X5819292Y1441297D01*
X5821527Y1438046D01*
X5822289Y1434134D01*
X5822289Y1303426D01*
X5821527Y1299514D01*
X5819292Y1296212D01*
X5663387Y1140256D01*
X5660085Y1138072D01*
X5656173Y1137310D01*
X3665524Y1137310D01*
X3661664Y1138072D01*
X3658362Y1140256D01*
X3638905Y1159662D01*
X3636670Y1162964D01*
X3635908Y1166876D01*
X3635908Y1179982D01*
X3636822Y1184249D01*
X3639464Y1187704D01*
X3649370Y1196187D01*
X3659378Y1207160D01*
X3667912Y1219250D01*
X3674973Y1232357D01*
X3680307Y1246174D01*
X3683914Y1260551D01*
X3685743Y1275283D01*
X3685743Y1290116D01*
X3683914Y1304848D01*
X3680307Y1319225D01*
X3674973Y1333042D01*
X3667912Y1346149D01*
X3659378Y1358239D01*
X3649370Y1369212D01*
X3638092Y1378864D01*
X3625748Y1387043D01*
X3612438Y1393647D01*
X3598468Y1398574D01*
X3583990Y1401775D01*
X3569208Y1403146D01*
X3554374Y1402689D01*
X3539744Y1400403D01*
X3525469Y1396339D01*
X3511804Y1390548D01*
X3498951Y1383131D01*
X3487115Y1374190D01*
X3476447Y1363878D01*
X3467150Y1352296D01*
X3459327Y1339697D01*
X3453129Y1326235D01*
X3448659Y1312113D01*
X3445916Y1297482D01*
X3445001Y1282700D01*
X3445916Y1267917D01*
X3448659Y1253286D01*
X3453129Y1239164D01*
X3459327Y1225702D01*
X3467150Y1213104D01*
X3476447Y1201521D01*
X3487115Y1191209D01*
X3490874Y1188364D01*
X3493008Y1186129D01*
X3494430Y1183335D01*
X3494887Y1180236D01*
X3494887Y1133754D01*
X3495801Y1122324D01*
X3498392Y1111554D01*
X3502609Y1101344D01*
X3508400Y1091946D01*
X3515817Y1083208D01*
X3581603Y1017676D01*
X3583838Y1014374D01*
X3584600Y1010462D01*
X3583838Y1006602D01*
X3581654Y1003300D01*
X3578351Y1001064D01*
X3574440Y1000302D01*
X3483660Y1000302D01*
X3479800Y1001064D01*
X3476498Y1003300D01*
X3399790Y1080008D01*
X3397554Y1083310D01*
X3396792Y1087170D01*
X3396792Y1678279D01*
X3397554Y1682140D01*
X3399790Y1685442D01*
X3403092Y1687626D01*
X3406952Y1688439D01*
X3410864Y1687626D01*
X3414115Y1685442D01*
X3439312Y1660245D01*
X3441344Y1657400D01*
X3442258Y1654048D01*
X3442004Y1650593D01*
X3441242Y1647647D01*
X3439414Y1632915D01*
X3439414Y1618081D01*
X3441242Y1603349D01*
X3444849Y1588973D01*
X3450234Y1575155D01*
X3457244Y1562049D01*
X3465829Y1549958D01*
X3475786Y1538986D01*
X3487064Y1529334D01*
X3499459Y1521155D01*
X3512718Y1514551D01*
X3526688Y1509623D01*
X3541217Y1506423D01*
X3555949Y1505051D01*
X3570782Y1505508D01*
X3585464Y1507794D01*
X3599738Y1511858D01*
X3613404Y1517650D01*
X3626256Y1525066D01*
X3638092Y1534007D01*
X3648710Y1544320D01*
X3658006Y1555902D01*
X3665829Y1568500D01*
X3672027Y1581962D01*
X3676548Y1596085D01*
X3679240Y1610715D01*
X3680155Y1625498D01*
X3679240Y1640281D01*
X3676548Y1654911D01*
X3672027Y1669034D01*
X3665829Y1682496D01*
X3658006Y1695094D01*
X3648710Y1706676D01*
X3638092Y1716989D01*
X3626256Y1725930D01*
X3613404Y1733346D01*
X3606952Y1736089D01*
X3603650Y1738274D01*
X3601516Y1741576D01*
X3600754Y1745488D01*
X3601516Y1749348D01*
X3603751Y1752650D01*
X3607054Y1754835D01*
X3610914Y1755597D01*
X4377944Y1755597D01*
X4382363Y1754581D01*
X4383227Y1753920D01*
X4384598Y1754835D01*
X4388510Y1755597D01*
X4470857Y1755597D01*
X4474768Y1754835D01*
X4475886Y1754073D01*
X4477054Y1754835D01*
X4480915Y1755597D01*
X4657039Y1755597D01*
X4660900Y1754835D01*
X4662170Y1753971D01*
X4663440Y1754835D01*
X4667300Y1755597D01*
X4749698Y1755597D01*
X4753559Y1754835D01*
X4755083Y1753819D01*
X4756048Y1754581D01*
X4760417Y1755597D01*
X4901895Y1755597D01*
X4909870Y1756105D01*
X4911953Y1756410D01*
X4921656Y1758797D01*
X4928971Y1761845D01*
X4937506Y1766976D01*
X4945227Y1773529D01*
X5314746Y2143048D01*
X5318201Y2145334D01*
X5322265Y2146046D01*
X5326278Y2145080D01*
X5329529Y2142591D01*
X5336032Y2135225D01*
X5346395Y2126132D01*
X5357876Y2118461D01*
X5370220Y2112365D01*
X5383276Y2107895D01*
X5396839Y2105202D01*
X5410911Y2104288D01*
X5460288Y2104288D01*
X5474360Y2105202D01*
X5487924Y2107895D01*
X5500979Y2112365D01*
X5513324Y2118461D01*
X5524804Y2126132D01*
X5535168Y2135225D01*
X5544261Y2145588D01*
X5551932Y2157069D01*
X5558078Y2169414D01*
X5562498Y2182520D01*
X5565190Y2196033D01*
X5566105Y2209800D01*
X5565190Y2223566D01*
X5562498Y2237079D01*
X5558078Y2250186D01*
X5551932Y2262530D01*
X5544261Y2274011D01*
X5535168Y2284374D01*
X5524804Y2293467D01*
X5513324Y2301138D01*
X5500979Y2307234D01*
X5487924Y2311704D01*
X5474360Y2314397D01*
X5460288Y2315311D01*
X5410911Y2315311D01*
X5396839Y2314397D01*
X5383276Y2311704D01*
X5370220Y2307234D01*
X5357876Y2301138D01*
X5346395Y2293467D01*
X5336032Y2284374D01*
X5326684Y2273757D01*
X5323230Y2271217D01*
X5319064Y2270302D01*
X5296204Y2270302D01*
X5288229Y2269794D01*
X5286146Y2269490D01*
X5276443Y2267102D01*
X5269128Y2264054D01*
X5260594Y2258923D01*
X5252872Y2252370D01*
X5246725Y2246223D01*
X5243474Y2244039D01*
X5239562Y2243226D01*
X5235651Y2244039D01*
X5232400Y2246223D01*
X5230164Y2249525D01*
X5229402Y2253386D01*
X5229402Y2871927D01*
X5230164Y2875788D01*
X5232400Y2879090D01*
X5261610Y2908300D01*
X5264912Y2910535D01*
X5268772Y2911297D01*
X5319064Y2911297D01*
X5323230Y2910382D01*
X5326684Y2907842D01*
X5336032Y2897225D01*
X5346395Y2888132D01*
X5357876Y2880461D01*
X5370220Y2874365D01*
X5383276Y2869895D01*
X5396839Y2867202D01*
X5410911Y2866288D01*
X5460288Y2866288D01*
X5474360Y2867202D01*
X5487924Y2869895D01*
X5500979Y2874365D01*
X5513324Y2880461D01*
X5524804Y2888132D01*
X5535168Y2897225D01*
X5544261Y2907588D01*
X5551932Y2919069D01*
X5558078Y2931414D01*
X5562498Y2944520D01*
X5565190Y2958033D01*
X5566105Y2971800D01*
X5565190Y2985566D01*
X5562498Y2999079D01*
X5558078Y3012186D01*
X5551932Y3024530D01*
X5544261Y3036011D01*
X5535168Y3046374D01*
X5524804Y3055467D01*
X5513324Y3063138D01*
X5500979Y3069234D01*
X5487924Y3073704D01*
X5474360Y3076397D01*
X5460288Y3077311D01*
X5410911Y3077311D01*
X5396839Y3076397D01*
X5383276Y3073704D01*
X5370220Y3069234D01*
X5357876Y3063138D01*
X5346395Y3055467D01*
X5336032Y3046374D01*
X5326684Y3035757D01*
X5323230Y3033217D01*
X5319064Y3032302D01*
X5239816Y3032302D01*
X5231841Y3031794D01*
X5229758Y3031490D01*
X5220055Y3029102D01*
X5212740Y3026054D01*
X5204206Y3020923D01*
X5196535Y3014370D01*
X5126329Y2944215D01*
X5119776Y2936494D01*
X5114645Y2927959D01*
X5111597Y2920644D01*
X5109210Y2910941D01*
X5108905Y2908858D01*
X5108397Y2900883D01*
X5108397Y2264460D01*
X5107635Y2260600D01*
X5105400Y2257298D01*
X4918202Y2070100D01*
X4914900Y2067864D01*
X4911039Y2067102D01*
X4563160Y2067102D01*
X4559300Y2067864D01*
X4555998Y2070100D01*
X4399127Y2226970D01*
X4391406Y2233523D01*
X4384700Y2237689D01*
X4378096Y2240635D01*
X4374794Y2242820D01*
X4372559Y2246122D01*
X4371797Y2250033D01*
X4372559Y2253894D01*
X4374794Y2257196D01*
X4517898Y2400300D01*
X4521200Y2402535D01*
X4525060Y2403297D01*
X4557064Y2403297D01*
X4561230Y2402382D01*
X4564684Y2399842D01*
X4574032Y2389225D01*
X4584395Y2380132D01*
X4595876Y2372461D01*
X4608220Y2366365D01*
X4621276Y2361895D01*
X4634839Y2359202D01*
X4648911Y2358288D01*
X4698288Y2358288D01*
X4712360Y2359202D01*
X4725924Y2361895D01*
X4738979Y2366365D01*
X4751324Y2372461D01*
X4762804Y2380132D01*
X4773168Y2389225D01*
X4782515Y2399842D01*
X4785969Y2402382D01*
X4790135Y2403297D01*
X4883607Y2403297D01*
X4891633Y2403805D01*
X4901387Y2405888D01*
X4903368Y2406497D01*
X4910683Y2409545D01*
X4919268Y2414676D01*
X4926939Y2421229D01*
X5059070Y2553360D01*
X5065623Y2561082D01*
X5070754Y2569616D01*
X5073802Y2576931D01*
X5076190Y2586634D01*
X5076494Y2588717D01*
X5077002Y2596692D01*
X5077002Y3196539D01*
X5077764Y3200400D01*
X5080000Y3203702D01*
X5292598Y3416300D01*
X5295900Y3418535D01*
X5299760Y3419297D01*
X5319064Y3419297D01*
X5323230Y3418382D01*
X5326684Y3415842D01*
X5336032Y3405225D01*
X5346395Y3396132D01*
X5357876Y3388461D01*
X5370220Y3382365D01*
X5383276Y3377895D01*
X5396839Y3375202D01*
X5410911Y3374288D01*
X5460288Y3374288D01*
X5474360Y3375202D01*
X5487924Y3377895D01*
X5500979Y3382365D01*
X5513324Y3388461D01*
X5524804Y3396132D01*
X5535168Y3405225D01*
X5544261Y3415588D01*
X5551932Y3427069D01*
X5558078Y3439414D01*
X5562498Y3452520D01*
X5565190Y3466033D01*
X5566105Y3479800D01*
X5565190Y3493566D01*
X5562498Y3507079D01*
X5558078Y3520186D01*
X5551932Y3532530D01*
X5544261Y3544011D01*
X5535168Y3554374D01*
X5524804Y3563467D01*
X5513324Y3571138D01*
X5500979Y3577234D01*
X5487924Y3581704D01*
X5474360Y3584397D01*
X5460288Y3585311D01*
X5410911Y3585311D01*
X5396839Y3584397D01*
X5383276Y3581704D01*
X5370220Y3577234D01*
X5357876Y3571138D01*
X5346395Y3563467D01*
X5336032Y3554374D01*
X5326684Y3543757D01*
X5323230Y3541217D01*
X5319064Y3540302D01*
X5270804Y3540302D01*
X5262829Y3539794D01*
X5260746Y3539490D01*
X5251043Y3537102D01*
X5243728Y3534054D01*
X5235194Y3528923D01*
X5227472Y3522370D01*
X4973929Y3268827D01*
X4967376Y3261106D01*
X4962245Y3252571D01*
X4959197Y3245256D01*
X4956810Y3235553D01*
X4956505Y3233470D01*
X4955997Y3225495D01*
X4955997Y2625648D01*
X4955235Y2621788D01*
X4953000Y2618486D01*
X4861814Y2527300D01*
X4858512Y2525064D01*
X4854651Y2524302D01*
X4790135Y2524302D01*
X4785969Y2525217D01*
X4782515Y2527757D01*
X4773168Y2538374D01*
X4762804Y2547467D01*
X4751324Y2555138D01*
X4738979Y2561234D01*
X4725924Y2565704D01*
X4712360Y2568397D01*
X4698288Y2569311D01*
X4648911Y2569311D01*
X4634839Y2568397D01*
X4621276Y2565704D01*
X4608220Y2561234D01*
X4595876Y2555138D01*
X4584395Y2547467D01*
X4574032Y2538374D01*
X4564684Y2527757D01*
X4561230Y2525217D01*
X4557064Y2524302D01*
X4496104Y2524302D01*
X4488129Y2523794D01*
X4486046Y2523490D01*
X4476343Y2521102D01*
X4469028Y2518054D01*
X4460494Y2512923D01*
X4452772Y2506370D01*
X4308602Y2362200D01*
X4305300Y2359964D01*
X4301439Y2359202D01*
X3890060Y2359202D01*
X3886200Y2359964D01*
X3882898Y2362200D01*
X3784600Y2460498D01*
X3782364Y2463800D01*
X3781602Y2467660D01*
X3781602Y2787853D01*
X3781094Y2795828D01*
X3780790Y2797911D01*
X3778402Y2807614D01*
X3775354Y2814929D01*
X3770223Y2823464D01*
X3763670Y2831185D01*
X3643985Y2950870D01*
X3636264Y2957423D01*
X3627729Y2962554D01*
X3620414Y2965602D01*
X3610711Y2967990D01*
X3608628Y2968294D01*
X3600653Y2968802D01*
X3495700Y2968802D01*
X3492195Y2969463D01*
X3489096Y2971292D01*
X3486810Y2974035D01*
X3484727Y2977845D01*
X3475736Y2990392D01*
X3465271Y3001822D01*
X3453587Y3011932D01*
X3440734Y3020568D01*
X3429812Y3026156D01*
X3426815Y3028492D01*
X3424682Y3031540D01*
X3420872Y3030677D01*
X3417062Y3031286D01*
X3412490Y3033014D01*
X3397453Y3036620D01*
X3382111Y3038449D01*
X3366668Y3038449D01*
X3351326Y3036620D01*
X3336290Y3033014D01*
X3331718Y3031286D01*
X3327908Y3030677D01*
X3323844Y3031693D01*
X3321964Y3028492D01*
X3318967Y3026156D01*
X3308045Y3020568D01*
X3295192Y3011932D01*
X3283508Y3001822D01*
X3273044Y2990392D01*
X3264052Y2977845D01*
X3256584Y2964332D01*
X3255060Y2960573D01*
X3252876Y2957271D01*
X3249625Y2955036D01*
X3245713Y2954274D01*
X3241802Y2954985D01*
X3238500Y2957220D01*
X3236264Y2960522D01*
X3235502Y2964434D01*
X3235502Y3105912D01*
X3236264Y3109722D01*
X3237026Y3110992D01*
X3236264Y3112109D01*
X3235502Y3116021D01*
X3235502Y3187395D01*
X3234994Y3195370D01*
X3234690Y3197402D01*
X3232708Y3205937D01*
X3229254Y3214522D01*
X3224123Y3223006D01*
X3217570Y3230727D01*
X3116427Y3331870D01*
X3108706Y3338423D01*
X3100171Y3343554D01*
X3092856Y3346602D01*
X3083153Y3348990D01*
X3081070Y3349294D01*
X3073095Y3349802D01*
X2987700Y3349802D01*
X2984195Y3350463D01*
X2981096Y3352292D01*
X2978810Y3355035D01*
X2976727Y3358845D01*
X2967736Y3371392D01*
X2957271Y3382822D01*
X2945587Y3392932D01*
X2932734Y3401568D01*
X2921812Y3407156D01*
X2918815Y3409492D01*
X2916885Y3412744D01*
X2916275Y3416503D01*
X2917088Y3420211D01*
X2919222Y3423361D01*
X2922320Y3425494D01*
X2925978Y3427120D01*
X2939288Y3434994D01*
X2951581Y3444341D01*
X2962656Y3455111D01*
X2972409Y3467150D01*
X2980690Y3480206D01*
X2987294Y3494176D01*
X2992272Y3508806D01*
X2995472Y3523945D01*
X2996844Y3539337D01*
X2996387Y3554780D01*
X2994101Y3570071D01*
X2989986Y3585006D01*
X2984195Y3599332D01*
X2976727Y3612845D01*
X2967736Y3625392D01*
X2957271Y3636822D01*
X2945587Y3646932D01*
X2932734Y3655568D01*
X2921812Y3661156D01*
X2918815Y3663492D01*
X2916885Y3666744D01*
X2916275Y3670503D01*
X2917088Y3674211D01*
X2919222Y3677361D01*
X2922320Y3679494D01*
X2925978Y3681120D01*
X2939288Y3688994D01*
X2951581Y3698341D01*
X2962656Y3709111D01*
X2972409Y3721150D01*
X2980690Y3734206D01*
X2987294Y3748176D01*
X2992272Y3762806D01*
X2995472Y3777945D01*
X2996844Y3793337D01*
X2996387Y3808780D01*
X2994101Y3824071D01*
X2989986Y3839006D01*
X2984195Y3853332D01*
X2976727Y3866845D01*
X2967736Y3879392D01*
X2957271Y3890822D01*
X2945587Y3900932D01*
X2943402Y3902354D01*
X2940507Y3905300D01*
X2939084Y3909161D01*
X2939237Y3913276D01*
X2941015Y3916984D01*
X2944164Y3919677D01*
X2948076Y3920896D01*
X2952343Y3921302D01*
X2958033Y3923080D01*
X2963316Y3925874D01*
X2967939Y3929684D01*
X2971698Y3934256D01*
X2974543Y3939540D01*
X2976270Y3945280D01*
X2976880Y3951681D01*
X2976880Y3994861D01*
X2912719Y3994861D01*
X2912719Y3932936D01*
X2912110Y3929329D01*
X2910179Y3926179D01*
X2907334Y3923944D01*
X2903829Y3922826D01*
X2900172Y3923029D01*
X2889453Y3925620D01*
X2874111Y3927449D01*
X2858668Y3927449D01*
X2843326Y3925620D01*
X2832608Y3923029D01*
X2828950Y3922826D01*
X2825445Y3923944D01*
X2822600Y3926179D01*
X2820720Y3929329D01*
X2820060Y3932936D01*
X2820060Y3994861D01*
X2755900Y3994861D01*
X2755900Y3951681D01*
X2756509Y3945280D01*
X2758236Y3939540D01*
X2761081Y3934256D01*
X2764840Y3929684D01*
X2769463Y3925874D01*
X2774746Y3923080D01*
X2780436Y3921302D01*
X2784703Y3920896D01*
X2788615Y3919677D01*
X2791764Y3916984D01*
X2793542Y3913276D01*
X2793746Y3909161D01*
X2792272Y3905300D01*
X2789377Y3902354D01*
X2787192Y3900932D01*
X2775508Y3890822D01*
X2765044Y3879392D01*
X2756052Y3866845D01*
X2748584Y3853332D01*
X2742793Y3839006D01*
X2738678Y3824071D01*
X2736443Y3808780D01*
X2735986Y3793337D01*
X2737358Y3777945D01*
X2740507Y3762806D01*
X2745486Y3748176D01*
X2752140Y3734206D01*
X2760370Y3721150D01*
X2770124Y3709111D01*
X2781198Y3698341D01*
X2793492Y3688994D01*
X2806801Y3681120D01*
X2810459Y3679494D01*
X2813558Y3677361D01*
X2815691Y3674211D01*
X2816504Y3670503D01*
X2815894Y3666744D01*
X2813964Y3663492D01*
X2810967Y3661156D01*
X2800045Y3655568D01*
X2787192Y3646932D01*
X2775508Y3636822D01*
X2765044Y3625392D01*
X2756052Y3612845D01*
X2753969Y3609035D01*
X2751683Y3606292D01*
X2748584Y3604463D01*
X2745079Y3603802D01*
X2742742Y3603802D01*
X2738882Y3604564D01*
X2735580Y3606800D01*
X2699258Y3643122D01*
X2697022Y3646424D01*
X2696260Y3650284D01*
X2696260Y4130497D01*
X2697022Y4134358D01*
X2699258Y4137660D01*
X2790698Y4229100D01*
X2794000Y4231335D01*
X2797860Y4232097D01*
X3368497Y4232097D01*
X3372358Y4231335D01*
X3375660Y4229100D01*
X3514140Y4090619D01*
X3521608Y4082542D01*
X3529533Y4076395D01*
X3538423Y4071569D01*
X3547922Y4068318D01*
X3557828Y4066641D01*
X3567937Y4066641D01*
X3577844Y4068318D01*
X3587343Y4071569D01*
X3596233Y4076395D01*
X3604158Y4082542D01*
X3610965Y4089958D01*
X3616502Y4098391D01*
X3620515Y4107586D01*
X3623005Y4117390D01*
X3623818Y4127398D01*
X3623005Y4137406D01*
X3620515Y4147210D01*
X3616502Y4156405D01*
X3610965Y4164837D01*
X3604158Y4172254D01*
X3601516Y4174388D01*
X3510381Y4265574D01*
X3508146Y4268825D01*
X3507384Y4272737D01*
X3508146Y4276598D01*
X3510381Y4279900D01*
X3513683Y4282135D01*
X3517544Y4282897D01*
X3597859Y4282897D01*
X3601720Y4282135D01*
X3605022Y4279900D01*
X3664458Y4220464D01*
X3666693Y4217162D01*
X3667455Y4213301D01*
X3667455Y4067860D01*
X3666693Y4064000D01*
X3664458Y4060698D01*
X3591560Y3987800D01*
X3588258Y3985564D01*
X3584397Y3984802D01*
X3495700Y3984802D01*
X3492195Y3985463D01*
X3489096Y3987292D01*
X3486810Y3990035D01*
X3484727Y3993845D01*
X3475736Y4006392D01*
X3465271Y4017822D01*
X3453587Y4027932D01*
X3440734Y4036568D01*
X3427018Y4043629D01*
X3412490Y4049014D01*
X3397453Y4052620D01*
X3382111Y4054449D01*
X3366668Y4054449D01*
X3351326Y4052620D01*
X3336290Y4049014D01*
X3321812Y4043629D01*
X3308045Y4036568D01*
X3295192Y4027932D01*
X3283508Y4017822D01*
X3273044Y4006392D01*
X3264052Y3993845D01*
X3256584Y3980332D01*
X3250793Y3966006D01*
X3246678Y3951071D01*
X3244443Y3935780D01*
X3243986Y3920337D01*
X3245358Y3904945D01*
X3248507Y3889806D01*
X3253486Y3875176D01*
X3260140Y3861206D01*
X3268370Y3848150D01*
X3278124Y3836111D01*
X3289198Y3825341D01*
X3301492Y3815994D01*
X3314801Y3808120D01*
X3318459Y3806494D01*
X3321558Y3804361D01*
X3323691Y3801211D01*
X3324504Y3797503D01*
X3323894Y3793744D01*
X3321964Y3790492D01*
X3318967Y3788156D01*
X3308045Y3782568D01*
X3295192Y3773932D01*
X3283508Y3763822D01*
X3273044Y3752392D01*
X3264052Y3739845D01*
X3256584Y3726332D01*
X3250793Y3712006D01*
X3246678Y3697071D01*
X3244443Y3681780D01*
X3243986Y3666337D01*
X3245358Y3650945D01*
X3248507Y3635806D01*
X3253486Y3621176D01*
X3260140Y3607206D01*
X3268370Y3594150D01*
X3278124Y3582111D01*
X3289198Y3571341D01*
X3301492Y3561994D01*
X3314801Y3554120D01*
X3318459Y3552494D01*
X3321558Y3550361D01*
X3323691Y3547211D01*
X3324504Y3543503D01*
X3323894Y3539744D01*
X3321964Y3536492D01*
X3318967Y3534156D01*
X3308045Y3528568D01*
X3295192Y3519932D01*
X3283508Y3509822D01*
X3273044Y3498392D01*
X3264052Y3485845D01*
X3256584Y3472332D01*
X3250793Y3458006D01*
X3246678Y3443071D01*
X3244443Y3427780D01*
X3243986Y3412337D01*
X3245358Y3396945D01*
X3248507Y3381806D01*
X3253486Y3367176D01*
X3260140Y3353206D01*
X3268370Y3340150D01*
X3278124Y3328111D01*
X3289198Y3317341D01*
X3301492Y3307994D01*
X3314801Y3300120D01*
X3318459Y3298494D01*
X3321558Y3296361D01*
X3323793Y3292652D01*
X3327400Y3293618D01*
X3331159Y3293211D01*
X3343757Y3289350D01*
X3358946Y3286607D01*
X3374390Y3285693D01*
X3389833Y3286607D01*
X3405022Y3289350D01*
X3417620Y3293211D01*
X3421379Y3293618D01*
X3424986Y3292652D01*
X3427222Y3296361D01*
X3430320Y3298494D01*
X3433978Y3300120D01*
X3447287Y3307994D01*
X3459581Y3317341D01*
X3470656Y3328111D01*
X3480409Y3340150D01*
X3487318Y3351072D01*
X3489604Y3353562D01*
X3492550Y3355238D01*
X3495903Y3355797D01*
X3537153Y3355797D01*
X3545128Y3356305D01*
X3547211Y3356610D01*
X3556914Y3358997D01*
X3564229Y3362045D01*
X3572764Y3367176D01*
X3580434Y3373729D01*
X4344060Y4137050D01*
X4350613Y4144721D01*
X4355744Y4153306D01*
X4358792Y4160621D01*
X4360621Y4167835D01*
X4362399Y4171645D01*
X4365548Y4174439D01*
X4369562Y4175658D01*
X4373727Y4175201D01*
X4377385Y4173067D01*
X4379823Y4169664D01*
X4380687Y4165549D01*
X4380687Y3175304D01*
X4381195Y3167329D01*
X4381500Y3165246D01*
X4383887Y3155543D01*
X4386935Y3148228D01*
X4392066Y3139694D01*
X4398619Y3131972D01*
X4540808Y2989783D01*
X4543145Y2986176D01*
X4543806Y2981960D01*
X4543094Y2971800D01*
X4544009Y2958033D01*
X4546701Y2944520D01*
X4551121Y2931414D01*
X4557268Y2919069D01*
X4564938Y2907588D01*
X4574032Y2897225D01*
X4584395Y2888132D01*
X4595876Y2880461D01*
X4608220Y2874365D01*
X4621276Y2869895D01*
X4634839Y2867202D01*
X4648911Y2866288D01*
X4698288Y2866288D01*
X4712360Y2867202D01*
X4725924Y2869895D01*
X4738979Y2874365D01*
X4751324Y2880461D01*
X4762804Y2888132D01*
X4773168Y2897225D01*
X4782261Y2907588D01*
X4789932Y2919069D01*
X4796078Y2931414D01*
X4800498Y2944520D01*
X4803190Y2958033D01*
X4804105Y2971800D01*
X4803190Y2985566D01*
X4800498Y2999079D01*
X4796078Y3012186D01*
X4789932Y3024530D01*
X4782261Y3036011D01*
X4773168Y3046374D01*
X4762804Y3055467D01*
X4751324Y3063138D01*
X4738979Y3069234D01*
X4725924Y3073704D01*
X4712360Y3076397D01*
X4698288Y3077311D01*
X4648911Y3077311D01*
X4634839Y3076397D01*
X4632248Y3075889D01*
X4628946Y3075787D01*
X4625797Y3076702D01*
X4623104Y3078632D01*
X4582769Y3119018D01*
X4580432Y3122574D01*
X4579823Y3126740D01*
X4580940Y3130854D01*
X4583633Y3134106D01*
X4587392Y3136036D01*
X4591659Y3136188D01*
X4595876Y3134461D01*
X4608220Y3128365D01*
X4621276Y3123895D01*
X4634839Y3121202D01*
X4648911Y3120288D01*
X4698288Y3120288D01*
X4712360Y3121202D01*
X4725924Y3123895D01*
X4738979Y3128365D01*
X4751324Y3134461D01*
X4762804Y3142132D01*
X4773168Y3151225D01*
X4782261Y3161588D01*
X4789932Y3173069D01*
X4796078Y3185414D01*
X4800498Y3198520D01*
X4803190Y3212033D01*
X4804105Y3225800D01*
X4803190Y3239566D01*
X4800498Y3253079D01*
X4796078Y3266186D01*
X4789932Y3278530D01*
X4782261Y3290011D01*
X4773168Y3300374D01*
X4762804Y3309467D01*
X4751324Y3317138D01*
X4738979Y3323234D01*
X4725924Y3327704D01*
X4712360Y3330397D01*
X4698288Y3331311D01*
X4648911Y3331311D01*
X4634839Y3330397D01*
X4621276Y3327704D01*
X4608220Y3323234D01*
X4595876Y3317138D01*
X4584395Y3309467D01*
X4574032Y3300374D01*
X4564938Y3290011D01*
X4557268Y3278530D01*
X4551121Y3266186D01*
X4546701Y3253079D01*
X4544009Y3239566D01*
X4543094Y3225800D01*
X4544009Y3212033D01*
X4546701Y3198520D01*
X4551121Y3185414D01*
X4557420Y3172815D01*
X4558995Y3168853D01*
X4558842Y3164586D01*
X4556912Y3160826D01*
X4553661Y3158134D01*
X4549546Y3157016D01*
X4545380Y3157677D01*
X4541774Y3159963D01*
X4504690Y3197098D01*
X4502454Y3200400D01*
X4501692Y3204260D01*
X4501692Y4045864D01*
X4502658Y4050182D01*
X4505299Y4053636D01*
X4509211Y4055668D01*
X4513630Y4055872D01*
X4517644Y4054195D01*
X4529836Y4045712D01*
X4542383Y4039158D01*
X4555642Y4034282D01*
X4569460Y4031132D01*
X4583582Y4029760D01*
X4597704Y4030218D01*
X4611674Y4032504D01*
X4625238Y4036517D01*
X4638192Y4042257D01*
X4650333Y4049572D01*
X4661357Y4058412D01*
X4671212Y4068572D01*
X4679696Y4079951D01*
X4686655Y4092244D01*
X4691938Y4105401D01*
X4695545Y4119067D01*
X4697374Y4133138D01*
X4697374Y4147261D01*
X4695545Y4161332D01*
X4691938Y4174998D01*
X4686655Y4188155D01*
X4679696Y4200448D01*
X4671212Y4211828D01*
X4661357Y4221988D01*
X4650333Y4230827D01*
X4638192Y4238142D01*
X4625238Y4243882D01*
X4611674Y4247896D01*
X4597704Y4250182D01*
X4583582Y4250639D01*
X4569460Y4249267D01*
X4555642Y4246118D01*
X4542383Y4241241D01*
X4529836Y4234688D01*
X4517644Y4226204D01*
X4513630Y4224528D01*
X4509211Y4224731D01*
X4505299Y4226763D01*
X4502658Y4230217D01*
X4501692Y4234535D01*
X4501692Y4925263D01*
X4501184Y4933238D01*
X4500880Y4935321D01*
X4498492Y4945024D01*
X4495444Y4952339D01*
X4490313Y4960874D01*
X4483760Y4968595D01*
X4361281Y5091074D01*
X4359046Y5094325D01*
X4358284Y5098237D01*
X4359046Y5102098D01*
X4361281Y5105400D01*
X4364583Y5107635D01*
X4368444Y5108397D01*
X4772660Y5108397D01*
X4776368Y5107686D01*
X4779568Y5105654D01*
X4781804Y5102606D01*
X4782769Y5098948D01*
X4782362Y5095189D01*
X4780584Y5091887D01*
X4775860Y5085994D01*
X4768037Y5073396D01*
X4761839Y5059934D01*
X4757369Y5045811D01*
X4754626Y5031181D01*
X4753711Y5016398D01*
X4754626Y5001615D01*
X4757369Y4986985D01*
X4761839Y4972862D01*
X4768037Y4959400D01*
X4775860Y4946802D01*
X4785156Y4935220D01*
X4795824Y4924907D01*
X4807661Y4915966D01*
X4820462Y4908550D01*
X4834128Y4902758D01*
X4848402Y4898694D01*
X4863084Y4896408D01*
X4877917Y4895951D01*
X4892649Y4897323D01*
X4907178Y4900523D01*
X4921148Y4905451D01*
X4934458Y4912055D01*
X4946802Y4920234D01*
X4958080Y4929886D01*
X4968036Y4940858D01*
X4976622Y4952949D01*
X4983632Y4966055D01*
X4989017Y4979873D01*
X4992624Y4994249D01*
X4994452Y5008981D01*
X4994452Y5023815D01*
X4992624Y5038547D01*
X4989017Y5052923D01*
X4983632Y5066741D01*
X4976622Y5079847D01*
X4967732Y5092344D01*
X4966055Y5096408D01*
X4966208Y5100828D01*
X4968240Y5104739D01*
X4971745Y5107432D01*
X4976063Y5108397D01*
X5724601Y5108397D01*
X5728462Y5107635D01*
X5731764Y5105400D01*
X5749290Y5087874D01*
X5751525Y5084572D01*
X5752287Y5080711D01*
X5752287Y5059578D01*
X5751525Y5055717D01*
X5749290Y5052415D01*
X5745988Y5050231D01*
X5742127Y5049418D01*
X5723280Y5049418D01*
X5716828Y5048808D01*
X5711139Y5047081D01*
X5705856Y5044236D01*
X5701233Y5040477D01*
X5697474Y5035854D01*
X5694680Y5030571D01*
X5692902Y5024882D01*
X5692292Y5018430D01*
X5692292Y4861966D01*
X5692902Y4855514D01*
X5694680Y4849825D01*
X5697474Y4844542D01*
X5701233Y4839919D01*
X5705856Y4836160D01*
X5711139Y4833315D01*
X5716828Y4831588D01*
X5723280Y4830927D01*
X5902299Y4830927D01*
X5908751Y4831588D01*
X5914440Y4833315D01*
X5919724Y4836160D01*
X5924346Y4839919D01*
X5928106Y4844542D01*
X5930950Y4849825D01*
X5932678Y4855514D01*
X5933287Y4861966D01*
X5933287Y5018430D01*
X5932678Y5024882D01*
X5930950Y5030571D01*
X5928106Y5035854D01*
X5924346Y5040477D01*
X5919724Y5044236D01*
X5914440Y5047081D01*
X5908751Y5048808D01*
X5902299Y5049418D01*
X5883452Y5049418D01*
X5879592Y5050231D01*
X5876290Y5052415D01*
X5874054Y5055717D01*
X5873292Y5059578D01*
X5873292Y5109667D01*
X5872784Y5117642D01*
X5872480Y5119725D01*
X5870092Y5129428D01*
X5867044Y5136743D01*
X5861913Y5145278D01*
X5855360Y5152948D01*
X5796889Y5211470D01*
X5789218Y5218023D01*
X5780633Y5223154D01*
X5773318Y5226202D01*
X5763615Y5228590D01*
X5761583Y5228894D01*
X5753557Y5229402D01*
X4379518Y5229402D01*
X4375658Y5230164D01*
X4372356Y5232400D01*
X4329226Y5275529D01*
X4326940Y5278983D01*
X4326229Y5283047D01*
X4327245Y5287060D01*
X4329734Y5290362D01*
X4333341Y5292394D01*
X4337456Y5292801D01*
X4345127Y5291988D01*
X4494123Y5291988D01*
X4500524Y5292648D01*
X4506264Y5294376D01*
X4511497Y5297170D01*
X4516120Y5300980D01*
X4519930Y5305602D01*
X4522724Y5310835D01*
X4524451Y5316575D01*
X4525111Y5322976D01*
X4525111Y5472023D01*
X4524451Y5478424D01*
X4522724Y5484164D01*
X4519930Y5489397D01*
X4516120Y5494020D01*
X4511497Y5497830D01*
X4506264Y5500624D01*
X4500524Y5502351D01*
X4494123Y5503011D01*
X4490262Y5503011D01*
X4486402Y5503773D01*
X4483100Y5505958D01*
X4480864Y5509260D01*
X4480102Y5513171D01*
X4480102Y5634939D01*
X4480864Y5638800D01*
X4483100Y5642102D01*
X4555998Y5715000D01*
X4559300Y5717235D01*
X4563160Y5717997D01*
X4668113Y5717997D01*
X4671974Y5717235D01*
X4675276Y5715000D01*
X4677460Y5711698D01*
X4678273Y5707837D01*
X4677460Y5703925D01*
X4675276Y5700674D01*
X4631029Y5656427D01*
X4624476Y5648706D01*
X4619345Y5640171D01*
X4616297Y5632856D01*
X4613910Y5623153D01*
X4613605Y5621070D01*
X4613097Y5613095D01*
X4613097Y5489041D01*
X4612182Y5484876D01*
X4609642Y5481421D01*
X4599025Y5472074D01*
X4589932Y5461711D01*
X4582261Y5450230D01*
X4576165Y5437886D01*
X4571695Y5424779D01*
X4569002Y5411266D01*
X4568139Y5397500D01*
X4569002Y5383733D01*
X4571695Y5370220D01*
X4576165Y5357114D01*
X4582261Y5344769D01*
X4589932Y5333288D01*
X4599025Y5322925D01*
X4609388Y5313832D01*
X4620869Y5306161D01*
X4633214Y5300065D01*
X4646320Y5295595D01*
X4659833Y5292902D01*
X4673600Y5292039D01*
X4687366Y5292902D01*
X4700879Y5295595D01*
X4713986Y5300065D01*
X4726330Y5306161D01*
X4737811Y5313832D01*
X4748174Y5322925D01*
X4757267Y5333288D01*
X4764938Y5344769D01*
X4771034Y5357114D01*
X4775504Y5370220D01*
X4778197Y5383733D01*
X4779060Y5397500D01*
X4778197Y5411266D01*
X4775504Y5424779D01*
X4771034Y5437886D01*
X4764938Y5450230D01*
X4757267Y5461711D01*
X4748174Y5472074D01*
X4737557Y5481421D01*
X4735017Y5484825D01*
X4734102Y5489041D01*
X4734102Y5584139D01*
X4734864Y5588000D01*
X4737100Y5591302D01*
X4746498Y5600700D01*
X4749800Y5602935D01*
X4753660Y5603697D01*
X6231839Y5603697D01*
X6235700Y5602935D01*
X6239002Y5600700D01*
X6299200Y5540502D01*
X6301435Y5537200D01*
X6302197Y5533339D01*
X6302197Y5463895D01*
X6301282Y5459730D01*
X6298742Y5456275D01*
X6294983Y5454192D01*
X6290716Y5453837D01*
X6286652Y5455310D01*
X6283604Y5458256D01*
X6281267Y5461711D01*
X6272174Y5472074D01*
X6261811Y5481167D01*
X6250330Y5488838D01*
X6237986Y5494934D01*
X6224879Y5499404D01*
X6211366Y5502097D01*
X6197600Y5502960D01*
X6183833Y5502097D01*
X6170320Y5499404D01*
X6157214Y5494934D01*
X6144869Y5488838D01*
X6133388Y5481167D01*
X6123025Y5472074D01*
X6113932Y5461711D01*
X6106261Y5450230D01*
X6100165Y5437886D01*
X6095695Y5424779D01*
X6093002Y5411266D01*
X6092139Y5397500D01*
X6093002Y5383733D01*
X6095695Y5370220D01*
X6100165Y5357114D01*
X6106261Y5344769D01*
X6113932Y5333288D01*
X6123025Y5322925D01*
X6133388Y5313832D01*
X6144869Y5306161D01*
X6157214Y5300065D01*
X6170320Y5295595D01*
X6183833Y5292902D01*
X6197600Y5292039D01*
X6211366Y5292902D01*
X6220409Y5294731D01*
X6224727Y5294630D01*
X6228588Y5292801D01*
X6231382Y5289550D01*
X6232550Y5285435D01*
X6231940Y5281168D01*
X6229604Y5277561D01*
X6062319Y5110327D01*
X6055766Y5102606D01*
X6050635Y5094071D01*
X6047587Y5086756D01*
X6045200Y5077053D01*
X6044895Y5074970D01*
X6044387Y5066995D01*
X6044387Y5059578D01*
X6043625Y5055717D01*
X6041390Y5052415D01*
X6038088Y5050231D01*
X6034227Y5049418D01*
X6015380Y5049418D01*
X6008928Y5048808D01*
X6003239Y5047081D01*
X5997956Y5044236D01*
X5993333Y5040477D01*
X5989574Y5035854D01*
X5986780Y5030571D01*
X5985002Y5024882D01*
X5984392Y5018430D01*
X5984392Y4861966D01*
X5985002Y4855514D01*
X5986780Y4849825D01*
X5989574Y4844542D01*
X5993333Y4839919D01*
X5997956Y4836160D01*
X6003239Y4833315D01*
X6008928Y4831588D01*
X6015380Y4830927D01*
X6194399Y4830927D01*
X6200851Y4831588D01*
X6206540Y4833315D01*
X6211824Y4836160D01*
X6216446Y4839919D01*
X6220206Y4844542D01*
X6223050Y4849825D01*
X6224778Y4855514D01*
X6225387Y4861966D01*
X6225387Y5018430D01*
X6224778Y5024882D01*
X6223050Y5030571D01*
X6220206Y5035854D01*
X6216446Y5040477D01*
X6211824Y5044236D01*
X6206540Y5047081D01*
X6200851Y5048808D01*
X6195923Y5049316D01*
X6192266Y5050383D01*
X6189268Y5052720D01*
X6187338Y5055971D01*
X6186779Y5059730D01*
X6187592Y5063439D01*
X6189726Y5066588D01*
X6405270Y5282082D01*
X6411823Y5289804D01*
X6416954Y5298338D01*
X6420002Y5305653D01*
X6422390Y5315356D01*
X6422694Y5317439D01*
X6423202Y5325414D01*
X6423202Y5562295D01*
X6422694Y5570270D01*
X6422390Y5572353D01*
X6420002Y5582056D01*
X6416954Y5589371D01*
X6411823Y5597906D01*
X6405270Y5605627D01*
X6310223Y5700674D01*
X6307988Y5703925D01*
X6307226Y5707837D01*
X6307988Y5711698D01*
X6310223Y5715000D01*
X6313525Y5717235D01*
X6317386Y5717997D01*
X6352997Y5717997D01*
X6356858Y5717235D01*
X6360160Y5715000D01*
X6536690Y5538470D01*
X6538925Y5535168D01*
X6539687Y5531307D01*
X6539687Y4233214D01*
X6540195Y4225239D01*
X6540500Y4223156D01*
X6542887Y4213453D01*
X6545935Y4206138D01*
X6551066Y4197604D01*
X6557619Y4189882D01*
X6705600Y4041901D01*
X6707835Y4038600D01*
X6708597Y4034739D01*
X6708597Y3178860D01*
X6707835Y3175000D01*
X6705600Y3171698D01*
X6658102Y3124200D01*
X6654800Y3121964D01*
X6650939Y3121202D01*
X6640322Y3121202D01*
X6637172Y3121710D01*
X6634327Y3123133D01*
X6632092Y3125368D01*
X6625691Y3134207D01*
X6615734Y3144774D01*
X6604558Y3154019D01*
X6592316Y3161792D01*
X6579209Y3167989D01*
X6565392Y3172460D01*
X6551168Y3175152D01*
X6536690Y3176066D01*
X6522212Y3175152D01*
X6507988Y3172460D01*
X6494170Y3167989D01*
X6481064Y3161792D01*
X6468821Y3154019D01*
X6457645Y3144774D01*
X6447688Y3134207D01*
X6439204Y3122472D01*
X6432194Y3109772D01*
X6426860Y3096260D01*
X6423253Y3082239D01*
X6421424Y3067862D01*
X6421424Y3053334D01*
X6423253Y3038957D01*
X6426860Y3024936D01*
X6432194Y3011424D01*
X6439204Y2998724D01*
X6447688Y2986989D01*
X6457645Y2976422D01*
X6468821Y2967177D01*
X6481064Y2959404D01*
X6494170Y2953207D01*
X6507988Y2948736D01*
X6522212Y2946044D01*
X6536690Y2945130D01*
X6551168Y2946044D01*
X6565392Y2948736D01*
X6579209Y2953207D01*
X6592316Y2959404D01*
X6604558Y2967177D01*
X6615734Y2976422D01*
X6625691Y2986989D01*
X6632244Y2996031D01*
X6634480Y2998266D01*
X6637324Y2999689D01*
X6640474Y3000197D01*
X6679895Y3000197D01*
X6687870Y3000705D01*
X6689953Y3001010D01*
X6699656Y3003397D01*
X6706971Y3006445D01*
X6715506Y3011576D01*
X6723227Y3018129D01*
X6801764Y3096666D01*
X6805015Y3098901D01*
X6808927Y3099663D01*
X6812788Y3098901D01*
X6816090Y3096666D01*
X6818325Y3093364D01*
X6819087Y3089503D01*
X6819087Y2997250D01*
X6818325Y2993390D01*
X6816090Y2990088D01*
X6696202Y2870200D01*
X6692900Y2867964D01*
X6689039Y2867202D01*
X6640322Y2867202D01*
X6637172Y2867710D01*
X6634327Y2869133D01*
X6632092Y2871368D01*
X6625691Y2880207D01*
X6615734Y2890774D01*
X6604558Y2900019D01*
X6592316Y2907792D01*
X6579209Y2913989D01*
X6565392Y2918460D01*
X6551168Y2921152D01*
X6536690Y2922066D01*
X6522212Y2921152D01*
X6507988Y2918460D01*
X6494170Y2913989D01*
X6481064Y2907792D01*
X6468821Y2900019D01*
X6457645Y2890774D01*
X6447688Y2880207D01*
X6439204Y2868472D01*
X6432194Y2855772D01*
X6426860Y2842260D01*
X6423253Y2828239D01*
X6421424Y2813862D01*
X6421424Y2799334D01*
X6423253Y2784957D01*
X6426860Y2770936D01*
X6432194Y2757424D01*
X6439204Y2744724D01*
X6447688Y2732989D01*
X6457645Y2722422D01*
X6468821Y2713177D01*
X6481064Y2705404D01*
X6494170Y2699207D01*
X6507988Y2694736D01*
X6522212Y2692044D01*
X6536690Y2691130D01*
X6551168Y2692044D01*
X6565392Y2694736D01*
X6579209Y2699207D01*
X6592316Y2705404D01*
X6604558Y2713177D01*
X6615734Y2722422D01*
X6625691Y2732989D01*
X6632244Y2742031D01*
X6634480Y2744266D01*
X6637324Y2745689D01*
X6640474Y2746197D01*
X6717995Y2746197D01*
X6725970Y2746705D01*
X6728053Y2747010D01*
X6737756Y2749397D01*
X6745071Y2752445D01*
X6753606Y2757576D01*
X6761327Y2764129D01*
X6922160Y2924962D01*
X6928713Y2932684D01*
X6933844Y2941218D01*
X6936892Y2948533D01*
X6939280Y2958236D01*
X6939584Y2960319D01*
X6940092Y2968294D01*
X6940092Y4139895D01*
X6939584Y4147870D01*
X6939280Y4149953D01*
X6936892Y4159656D01*
X6933844Y4166971D01*
X6928713Y4175506D01*
X6922160Y4183227D01*
X6765290Y4340098D01*
X6763054Y4343400D01*
X6762292Y4347260D01*
X6762292Y5636463D01*
X6761784Y5644438D01*
X6761480Y5646521D01*
X6759092Y5656224D01*
X6756044Y5663539D01*
X6750913Y5672074D01*
X6744360Y5679795D01*
X6476085Y5948070D01*
X6468364Y5954623D01*
X6459829Y5959754D01*
X6452514Y5962802D01*
X6442811Y5965190D01*
X6440728Y5965494D01*
X6432753Y5966002D01*
X3425494Y5966002D01*
X3417519Y5965494D01*
X3415436Y5965190D01*
X3405733Y5962802D01*
X3398418Y5959754D01*
X3389884Y5954623D01*
X3382162Y5948070D01*
X3208629Y5774537D01*
X3202076Y5766816D01*
X3196945Y5758281D01*
X3193897Y5750966D01*
X3191510Y5741263D01*
X3191205Y5739180D01*
X3190697Y5731205D01*
X3190697Y5501182D01*
X3190189Y5498033D01*
X3188766Y5495188D01*
X3186531Y5492953D01*
X3177590Y5486501D01*
X3167024Y5476544D01*
X3157778Y5465368D01*
X3150006Y5453126D01*
X3143808Y5440019D01*
X3139338Y5426202D01*
X3136646Y5411978D01*
X3135731Y5397500D01*
X3136646Y5383022D01*
X3139338Y5368798D01*
X3143808Y5354980D01*
X3150006Y5341874D01*
X3157778Y5329631D01*
X3167024Y5318455D01*
X3177590Y5308498D01*
X3189325Y5300014D01*
X3202025Y5293004D01*
X3215487Y5287670D01*
X3229559Y5284063D01*
X3243935Y5282234D01*
X3258464Y5282234D01*
X3272840Y5284063D01*
X3286861Y5287670D01*
X3300374Y5293004D01*
X3313074Y5300014D01*
X3324809Y5308498D01*
X3335375Y5318455D01*
X3344621Y5329631D01*
X3352393Y5341874D01*
X3358591Y5354980D01*
X3363061Y5368798D01*
X3365754Y5383022D01*
X3366668Y5397500D01*
X3365754Y5411978D01*
X3363061Y5426202D01*
X3358591Y5440019D01*
X3352393Y5453126D01*
X3344621Y5465368D01*
X3335375Y5476544D01*
X3324809Y5486501D01*
X3315868Y5492953D01*
X3313633Y5495188D01*
X3312210Y5498033D01*
X3311702Y5501182D01*
X3311702Y5702249D01*
X3312464Y5706110D01*
X3314700Y5709412D01*
X3447287Y5842000D01*
X3450590Y5844235D01*
X3454450Y5844997D01*
X4491278Y5844997D01*
X4495241Y5844184D01*
X4498594Y5841847D01*
X4500778Y5838393D01*
X4501388Y5834380D01*
X4500422Y5830417D01*
X4497933Y5827166D01*
X4490872Y5821019D01*
X4377029Y5707227D01*
X4370476Y5699506D01*
X4365345Y5690971D01*
X4362297Y5683656D01*
X4359910Y5673953D01*
X4359605Y5671870D01*
X4359097Y5663895D01*
X4359097Y5513171D01*
X4358335Y5509260D01*
X4356100Y5505958D01*
X4352798Y5503773D01*
X4348937Y5503011D01*
X4345076Y5503011D01*
X4338675Y5502351D01*
X4332935Y5500624D01*
X4327652Y5497830D01*
X4323080Y5494020D01*
X4319270Y5489397D01*
X4316476Y5484164D01*
X4314748Y5478424D01*
X4314088Y5472023D01*
X4314088Y5323027D01*
X4314901Y5315356D01*
X4314494Y5311241D01*
X4312462Y5307634D01*
X4309160Y5305145D01*
X4305147Y5304129D01*
X4301083Y5304840D01*
X4297629Y5307126D01*
X4288790Y5315966D01*
X4286554Y5319268D01*
X4285792Y5323128D01*
X4285792Y5549595D01*
X4285284Y5557570D01*
X4284980Y5559653D01*
X4282592Y5569356D01*
X4279544Y5576671D01*
X4274413Y5585206D01*
X4267860Y5592927D01*
X4154017Y5706770D01*
X4146296Y5713323D01*
X4137761Y5718454D01*
X4130446Y5721502D01*
X4120743Y5723890D01*
X4118660Y5724194D01*
X4110685Y5724702D01*
X3567988Y5724702D01*
X3560013Y5724194D01*
X3557930Y5723890D01*
X3548227Y5721502D01*
X3540912Y5718454D01*
X3532378Y5713323D01*
X3524656Y5706770D01*
X3462629Y5644743D01*
X3456076Y5637022D01*
X3450945Y5628487D01*
X3447897Y5621172D01*
X3445510Y5611469D01*
X3445205Y5609386D01*
X3444697Y5601411D01*
X3444697Y5501182D01*
X3444189Y5498033D01*
X3442766Y5495188D01*
X3440531Y5492953D01*
X3431590Y5486501D01*
X3421024Y5476544D01*
X3411778Y5465368D01*
X3404006Y5453126D01*
X3397808Y5440019D01*
X3393338Y5426202D01*
X3390646Y5411978D01*
X3389731Y5397500D01*
X3390646Y5383022D01*
X3393338Y5368798D01*
X3397808Y5354980D01*
X3404006Y5341874D01*
X3411778Y5329631D01*
X3421024Y5318455D01*
X3431590Y5308498D01*
X3443325Y5300014D01*
X3456025Y5293004D01*
X3469487Y5287670D01*
X3483559Y5284063D01*
X3497935Y5282234D01*
X3512464Y5282234D01*
X3526840Y5284063D01*
X3540861Y5287670D01*
X3554374Y5293004D01*
X3567074Y5300014D01*
X3578809Y5308498D01*
X3589375Y5318455D01*
X3598621Y5329631D01*
X3606393Y5341874D01*
X3612591Y5354980D01*
X3617061Y5368798D01*
X3619754Y5383022D01*
X3620668Y5397500D01*
X3619754Y5411978D01*
X3617061Y5426202D01*
X3612591Y5440019D01*
X3606393Y5453126D01*
X3598621Y5465368D01*
X3589375Y5476544D01*
X3578809Y5486501D01*
X3569868Y5492953D01*
X3567633Y5495188D01*
X3566210Y5498033D01*
X3565702Y5501182D01*
X3565702Y5572455D01*
X3566464Y5576316D01*
X3568700Y5579618D01*
X3589782Y5600700D01*
X3593084Y5602935D01*
X3596944Y5603697D01*
X4081729Y5603697D01*
X4085590Y5602935D01*
X4088892Y5600700D01*
X4161790Y5527802D01*
X4164025Y5524500D01*
X4164787Y5520639D01*
X4164787Y5294172D01*
X4165295Y5286197D01*
X4165600Y5284114D01*
X4167378Y5276392D01*
X4170324Y5268874D01*
X4171086Y5264962D01*
X4170324Y5261102D01*
X4168089Y5257800D01*
X4164787Y5255564D01*
X4160926Y5254802D01*
X4083862Y5254802D01*
X4080001Y5255564D01*
X4076700Y5257800D01*
X4074464Y5261102D01*
X4073702Y5264962D01*
X4073702Y5293817D01*
X4074210Y5296966D01*
X4075633Y5299811D01*
X4077868Y5302046D01*
X4086809Y5308498D01*
X4097375Y5318455D01*
X4106621Y5329631D01*
X4114393Y5341874D01*
X4120591Y5354980D01*
X4125061Y5368798D01*
X4127754Y5383022D01*
X4128668Y5397500D01*
X4127754Y5411978D01*
X4125061Y5426202D01*
X4120591Y5440019D01*
X4114393Y5453126D01*
X4106621Y5465368D01*
X4097375Y5476544D01*
X4086809Y5486501D01*
X4075074Y5494985D01*
X4062374Y5501995D01*
X4048861Y5507329D01*
X4034840Y5510936D01*
X4020464Y5512765D01*
X4005935Y5512765D01*
X3991559Y5510936D01*
X3977487Y5507329D01*
X3964025Y5501995D01*
X3951325Y5494985D01*
X3939590Y5486501D01*
X3929024Y5476544D01*
X3919778Y5465368D01*
X3912006Y5453126D01*
X3905808Y5440019D01*
X3901338Y5426202D01*
X3898646Y5411978D01*
X3897731Y5397500D01*
X3898646Y5383022D01*
X3901338Y5368798D01*
X3905808Y5354980D01*
X3912006Y5341874D01*
X3919778Y5329631D01*
X3929024Y5318455D01*
X3939590Y5308498D01*
X3948531Y5302046D01*
X3950766Y5299811D01*
X3952189Y5296966D01*
X3952697Y5293817D01*
X3952697Y5232704D01*
X3953205Y5224729D01*
X3953510Y5222646D01*
X3955897Y5212943D01*
X3958945Y5205628D01*
X3964076Y5197094D01*
X3970629Y5189372D01*
X4008272Y5151729D01*
X4015994Y5145176D01*
X4024528Y5140045D01*
X4031843Y5136997D01*
X4041343Y5134660D01*
X4046423Y5134102D01*
X4049979Y5133035D01*
X4052925Y5130800D01*
X4054856Y5127650D01*
X4055516Y5123992D01*
X4055516Y5067757D01*
X4113123Y5067757D01*
X4106621Y5079847D01*
X4098036Y5091938D01*
X4088079Y5102910D01*
X4076801Y5112562D01*
X4072839Y5115153D01*
X4069842Y5118252D01*
X4068368Y5122265D01*
X4068724Y5126583D01*
X4070807Y5130342D01*
X4074261Y5132882D01*
X4078427Y5133797D01*
X4143197Y5133797D01*
X4147058Y5133035D01*
X4150360Y5130800D01*
X4377690Y4903470D01*
X4379925Y4900168D01*
X4380687Y4896307D01*
X4380687Y4571796D01*
X4379823Y4567682D01*
X4377385Y4564278D01*
X4373727Y4562144D01*
X4369562Y4561687D01*
X4365548Y4562906D01*
X4362399Y4565700D01*
X4360621Y4569510D01*
X4358792Y4576724D01*
X4355744Y4584039D01*
X4350613Y4592574D01*
X4344060Y4600295D01*
X4164685Y4779670D01*
X4156964Y4786223D01*
X4148429Y4791354D01*
X4141114Y4794402D01*
X4131411Y4796790D01*
X4129328Y4797094D01*
X4121353Y4797602D01*
X3681018Y4797602D01*
X3677158Y4798364D01*
X3673856Y4800600D01*
X3613658Y4860798D01*
X3611422Y4864100D01*
X3610660Y4867960D01*
X3610660Y5063439D01*
X3611422Y5067300D01*
X3613658Y5070602D01*
X3801770Y5258714D01*
X3808323Y5266436D01*
X3813454Y5274970D01*
X3816502Y5282285D01*
X3818890Y5291937D01*
X3819245Y5294782D01*
X3820617Y5298643D01*
X3823360Y5301640D01*
X3832809Y5308498D01*
X3843375Y5318455D01*
X3852621Y5329631D01*
X3860393Y5341874D01*
X3866591Y5354980D01*
X3871061Y5368798D01*
X3873754Y5383022D01*
X3874668Y5397500D01*
X3873754Y5411978D01*
X3871061Y5426202D01*
X3866591Y5440019D01*
X3860393Y5453126D01*
X3852621Y5465368D01*
X3843375Y5476544D01*
X3832809Y5486501D01*
X3821074Y5494985D01*
X3808374Y5501995D01*
X3794861Y5507329D01*
X3780840Y5510936D01*
X3766464Y5512765D01*
X3751935Y5512765D01*
X3737559Y5510936D01*
X3723487Y5507329D01*
X3710025Y5501995D01*
X3697325Y5494985D01*
X3685590Y5486501D01*
X3675024Y5476544D01*
X3665778Y5465368D01*
X3658006Y5453126D01*
X3651808Y5440019D01*
X3647338Y5426202D01*
X3644646Y5411978D01*
X3643731Y5397500D01*
X3644646Y5383022D01*
X3647338Y5368798D01*
X3651808Y5354980D01*
X3658006Y5341874D01*
X3665778Y5329631D01*
X3675278Y5318201D01*
X3677615Y5314899D01*
X3678478Y5310936D01*
X3677716Y5306974D01*
X3675481Y5303621D01*
X3507587Y5135727D01*
X3501034Y5128006D01*
X3495903Y5119471D01*
X3492855Y5112156D01*
X3490468Y5102453D01*
X3490163Y5100370D01*
X3489655Y5092395D01*
X3489655Y4839004D01*
X3490163Y4831029D01*
X3490468Y4828946D01*
X3492855Y4819243D01*
X3495903Y4811928D01*
X3501034Y4803394D01*
X3507587Y4795672D01*
X3608730Y4694529D01*
X3616451Y4687976D01*
X3624986Y4682845D01*
X3632301Y4679797D01*
X3642004Y4677410D01*
X3644087Y4677105D01*
X3652062Y4676597D01*
X4092397Y4676597D01*
X4096258Y4675835D01*
X4099560Y4673600D01*
X4237990Y4535170D01*
X4240225Y4531868D01*
X4240987Y4528007D01*
X4240987Y4209338D01*
X4240225Y4205478D01*
X4237990Y4202176D01*
X4094073Y4058259D01*
X4090619Y4056024D01*
X4086555Y4055313D01*
X4082542Y4056278D01*
X4079240Y4058767D01*
X4077208Y4062323D01*
X4076750Y4066438D01*
X4077766Y4076547D01*
X4077817Y4427474D01*
X4078630Y4431436D01*
X4080865Y4434738D01*
X4086351Y4440021D01*
X4095648Y4451604D01*
X4103420Y4464202D01*
X4109669Y4477664D01*
X4114139Y4491786D01*
X4116882Y4506417D01*
X4117797Y4521200D01*
X4116882Y4535982D01*
X4114139Y4550613D01*
X4109669Y4564735D01*
X4103420Y4578197D01*
X4095648Y4590796D01*
X4086351Y4602378D01*
X4075684Y4612690D01*
X4063847Y4621631D01*
X4050995Y4629048D01*
X4037329Y4634839D01*
X4023055Y4638903D01*
X4008424Y4641189D01*
X3993591Y4641646D01*
X3978808Y4640275D01*
X3964330Y4637074D01*
X3950309Y4632147D01*
X3937050Y4625543D01*
X3924706Y4617364D01*
X3913428Y4607712D01*
X3903421Y4596739D01*
X3894836Y4584649D01*
X3887825Y4571542D01*
X3882491Y4557725D01*
X3880408Y4549597D01*
X3878427Y4545634D01*
X3874922Y4542891D01*
X3870604Y4541926D01*
X3866235Y4542891D01*
X3862730Y4545634D01*
X3860749Y4549597D01*
X3858717Y4557623D01*
X3853332Y4571441D01*
X3846322Y4584547D01*
X3837736Y4596638D01*
X3827779Y4607610D01*
X3816502Y4617262D01*
X3804158Y4625441D01*
X3790848Y4632045D01*
X3776878Y4636973D01*
X3762349Y4640173D01*
X3747617Y4641545D01*
X3732784Y4641088D01*
X3718102Y4638802D01*
X3703828Y4634738D01*
X3690162Y4628946D01*
X3677361Y4621530D01*
X3665524Y4612589D01*
X3654856Y4602276D01*
X3645560Y4590694D01*
X3637737Y4578096D01*
X3631539Y4564634D01*
X3627069Y4550511D01*
X3624326Y4535881D01*
X3623411Y4521098D01*
X3624326Y4506315D01*
X3627069Y4491685D01*
X3631539Y4477562D01*
X3637737Y4464100D01*
X3645560Y4451502D01*
X3654856Y4439920D01*
X3665524Y4429607D01*
X3677361Y4420666D01*
X3690162Y4413250D01*
X3703828Y4407458D01*
X3718102Y4403394D01*
X3732784Y4401108D01*
X3747617Y4400651D01*
X3762349Y4402023D01*
X3776878Y4405223D01*
X3790848Y4410151D01*
X3804158Y4416755D01*
X3816502Y4424934D01*
X3827779Y4434586D01*
X3837736Y4445558D01*
X3846322Y4457649D01*
X3853332Y4470755D01*
X3858717Y4484573D01*
X3860749Y4492701D01*
X3862781Y4496663D01*
X3866286Y4499406D01*
X3870604Y4500372D01*
X3874922Y4499406D01*
X3878478Y4496663D01*
X3880459Y4492701D01*
X3882491Y4484674D01*
X3887825Y4470857D01*
X3894836Y4457750D01*
X3903421Y4445660D01*
X3914140Y4434027D01*
X3916121Y4430826D01*
X3916781Y4427118D01*
X3916781Y4116882D01*
X3916019Y4113022D01*
X3913835Y4109720D01*
X3557879Y3753764D01*
X3554577Y3751579D01*
X3550716Y3750818D01*
X3481679Y3750818D01*
X3477564Y3751681D01*
X3474161Y3754120D01*
X3465271Y3763822D01*
X3453587Y3773932D01*
X3440734Y3782568D01*
X3429812Y3788156D01*
X3426815Y3790492D01*
X3424885Y3793744D01*
X3424275Y3797503D01*
X3425088Y3801211D01*
X3427222Y3804361D01*
X3430320Y3806494D01*
X3433978Y3808120D01*
X3447287Y3815994D01*
X3459581Y3825341D01*
X3470656Y3836111D01*
X3480409Y3848150D01*
X3487318Y3859072D01*
X3489604Y3861562D01*
X3492550Y3863238D01*
X3495903Y3863797D01*
X3613353Y3863797D01*
X3621328Y3864305D01*
X3623411Y3864610D01*
X3633114Y3866997D01*
X3640429Y3870045D01*
X3648964Y3875176D01*
X3656685Y3881729D01*
X3770528Y3995572D01*
X3777081Y4003294D01*
X3782212Y4011828D01*
X3785260Y4019143D01*
X3787648Y4028846D01*
X3787952Y4030929D01*
X3788460Y4038904D01*
X3788460Y4242257D01*
X3787952Y4250232D01*
X3787648Y4252315D01*
X3785260Y4262018D01*
X3782212Y4269333D01*
X3777081Y4277868D01*
X3770528Y4285589D01*
X3670147Y4385970D01*
X3662476Y4392523D01*
X3653891Y4397654D01*
X3646576Y4400702D01*
X3636873Y4403090D01*
X3634841Y4403394D01*
X3626815Y4403902D01*
X3534460Y4403902D01*
X3530600Y4404664D01*
X3527298Y4406900D01*
X3370427Y4563770D01*
X3362706Y4570323D01*
X3354171Y4575454D01*
X3346856Y4578502D01*
X3337153Y4580890D01*
X3335070Y4581194D01*
X3327095Y4581702D01*
X2983585Y4581702D01*
X2980385Y4582210D01*
X2977540Y4583684D01*
X2975305Y4585970D01*
X2967736Y4596638D01*
X2957779Y4607610D01*
X2946501Y4617262D01*
X2934106Y4625441D01*
X2920847Y4632045D01*
X2906877Y4636973D01*
X2892348Y4640173D01*
X2877566Y4641545D01*
X2862783Y4641088D01*
X2848102Y4638802D01*
X2833827Y4634738D01*
X2820162Y4628946D01*
X2807309Y4621530D01*
X2795473Y4612589D01*
X2784856Y4602276D01*
X2775559Y4590694D01*
X2767736Y4578096D01*
X2761538Y4564634D01*
X2757017Y4550511D01*
X2754325Y4535881D01*
X2753410Y4521098D01*
X2754325Y4506315D01*
X2757017Y4491685D01*
X2761538Y4477562D01*
X2767736Y4464100D01*
X2775559Y4451502D01*
X2784856Y4439920D01*
X2795473Y4429607D01*
X2807309Y4420666D01*
X2820162Y4413250D01*
X2833827Y4407458D01*
X2848102Y4403394D01*
X2862783Y4401108D01*
X2877566Y4400651D01*
X2892348Y4402023D01*
X2906877Y4405223D01*
X2920847Y4410151D01*
X2934106Y4416755D01*
X2946501Y4424934D01*
X2957779Y4434586D01*
X2967736Y4445558D01*
X2975406Y4456430D01*
X2977692Y4458716D01*
X2980537Y4460189D01*
X2983738Y4460697D01*
X3298139Y4460697D01*
X3302000Y4459935D01*
X3305301Y4457700D01*
X3392576Y4370425D01*
X3394760Y4367174D01*
X3395573Y4363262D01*
X3394760Y4359402D01*
X3392576Y4356100D01*
X3389274Y4353864D01*
X3385413Y4353102D01*
X2768904Y4353102D01*
X2760929Y4352594D01*
X2758846Y4352290D01*
X2749143Y4349902D01*
X2741828Y4346854D01*
X2733294Y4341723D01*
X2725572Y4335170D01*
X2593187Y4202785D01*
X2586634Y4195064D01*
X2581503Y4186529D01*
X2578455Y4179214D01*
X2576068Y4169511D01*
X2575763Y4167428D01*
X2575255Y4159453D01*
X2575255Y3621328D01*
X2575763Y3613353D01*
X2576068Y3611270D01*
X2578455Y3601567D01*
X2581503Y3594252D01*
X2586634Y3585718D01*
X2593187Y3577996D01*
X2649067Y3522116D01*
X2651048Y3519424D01*
X2653436Y3514496D01*
X2655976Y3510229D01*
X2658872Y3506165D01*
X2662123Y3502304D01*
X2665628Y3498799D01*
X2669489Y3495548D01*
X2673553Y3492652D01*
X2677820Y3490112D01*
X2682341Y3487877D01*
X2686964Y3486099D01*
X2691790Y3484676D01*
X2696667Y3483610D01*
X2701645Y3483000D01*
X2706827Y3482797D01*
X2744876Y3482797D01*
X2748229Y3482238D01*
X2751226Y3480562D01*
X2753461Y3478072D01*
X2760370Y3467150D01*
X2770124Y3455111D01*
X2781198Y3444341D01*
X2793492Y3434994D01*
X2806801Y3427120D01*
X2810459Y3425494D01*
X2813558Y3423361D01*
X2815691Y3420211D01*
X2816504Y3416503D01*
X2815894Y3412744D01*
X2813964Y3409492D01*
X2810967Y3407156D01*
X2800045Y3401568D01*
X2787192Y3392932D01*
X2775508Y3382822D01*
X2765044Y3371392D01*
X2756052Y3358845D01*
X2748584Y3345332D01*
X2742793Y3331006D01*
X2738678Y3316071D01*
X2736443Y3300780D01*
X2735986Y3285337D01*
X2737358Y3269945D01*
X2740507Y3254806D01*
X2745486Y3240176D01*
X2752140Y3226206D01*
X2760370Y3213150D01*
X2770124Y3201111D01*
X2781198Y3190341D01*
X2793492Y3180994D01*
X2806801Y3173120D01*
X2810459Y3171494D01*
X2813558Y3169361D01*
X2815691Y3166211D01*
X2816504Y3162503D01*
X2815894Y3158744D01*
X2813964Y3155492D01*
X2810967Y3153156D01*
X2800045Y3147568D01*
X2787192Y3138932D01*
X2775508Y3128822D01*
X2766618Y3119120D01*
X2763215Y3116681D01*
X2759100Y3115818D01*
X2713431Y3115818D01*
X2709570Y3116580D01*
X2706268Y3118764D01*
X1727504Y4097477D01*
X1720240Y4103471D01*
X1718106Y4104995D01*
X1710029Y4109872D01*
X1707692Y4111040D01*
X1699006Y4114647D01*
X1696516Y4115460D01*
X1687372Y4117746D01*
X1675434Y4119067D01*
X910031Y4119118D01*
X906170Y4119879D01*
X902868Y4122064D01*
X817930Y4207002D01*
X815644Y4210456D01*
X814933Y4214520D01*
X815136Y4220006D01*
X813765Y4234789D01*
X810564Y4249267D01*
X805637Y4263288D01*
X799033Y4276547D01*
X790854Y4288942D01*
X781202Y4300169D01*
X770229Y4310176D01*
X758139Y4318762D01*
X745032Y4325772D01*
X731215Y4331106D01*
X716838Y4334764D01*
X702106Y4336592D01*
X687273Y4336592D01*
X672541Y4334764D01*
X658164Y4331106D01*
X644347Y4325772D01*
X631240Y4318762D01*
X619150Y4310176D01*
X608177Y4300169D01*
X598525Y4288942D01*
X590346Y4276547D01*
X583742Y4263288D01*
X578815Y4249267D01*
X575614Y4234789D01*
X574243Y4220006D01*
X574700Y4205173D01*
X576986Y4190542D01*
X581050Y4176268D01*
X586841Y4162602D01*
X594258Y4149750D01*
X603199Y4137914D01*
X613511Y4127246D01*
X625094Y4117949D01*
X637692Y4110177D01*
X651154Y4103979D01*
X665327Y4099458D01*
X679907Y4096715D01*
X694690Y4095800D01*
X696468Y4095953D01*
X700684Y4095292D01*
X704240Y4092956D01*
X817575Y3979722D01*
X824839Y3973728D01*
X826973Y3972204D01*
X835050Y3967327D01*
X837387Y3966159D01*
X846074Y3962552D01*
X848563Y3961739D01*
X857707Y3959453D01*
X869645Y3958132D01*
X1635048Y3958082D01*
X1638909Y3957320D01*
X1642211Y3955135D01*
X2154936Y3442360D01*
X2157272Y3438804D01*
X2157933Y3434537D01*
X2156764Y3430422D01*
X2153970Y3427171D01*
X2150160Y3425342D01*
X2145842Y3425240D01*
X2140305Y3426307D01*
X2132533Y3426764D01*
X2036470Y3426764D01*
X2033016Y3427374D01*
X2029917Y3429152D01*
X2018080Y3444798D01*
X2007768Y3455415D01*
X1996186Y3464763D01*
X1983587Y3472535D01*
X1970125Y3478733D01*
X1956003Y3483254D01*
X1941423Y3485946D01*
X1926589Y3486861D01*
X1911807Y3485946D01*
X1897227Y3483254D01*
X1883054Y3478733D01*
X1869592Y3472535D01*
X1856993Y3464763D01*
X1845411Y3455415D01*
X1835099Y3444798D01*
X1826158Y3432962D01*
X1818741Y3420110D01*
X1812950Y3406444D01*
X1808886Y3392170D01*
X1806600Y3377539D01*
X1806143Y3362706D01*
X1807514Y3347923D01*
X1810715Y3333445D01*
X1815642Y3319424D01*
X1822246Y3306165D01*
X1830425Y3293770D01*
X1840077Y3282543D01*
X1851050Y3272536D01*
X1863140Y3263950D01*
X1876247Y3256940D01*
X1890064Y3251606D01*
X1904441Y3247948D01*
X1919173Y3246120D01*
X1934006Y3246120D01*
X1948738Y3247948D01*
X1963115Y3251606D01*
X1976932Y3256940D01*
X1990039Y3263950D01*
X2002129Y3272536D01*
X2013102Y3282543D01*
X2022754Y3293770D01*
X2027682Y3301187D01*
X2029917Y3303625D01*
X2032863Y3305200D01*
X2036114Y3305759D01*
X2103577Y3305759D01*
X2107438Y3304997D01*
X2110740Y3302762D01*
X2203196Y3210356D01*
X2205329Y3207156D01*
X2206142Y3203346D01*
X2205482Y3199536D01*
X2203399Y3196234D01*
X2200249Y3193948D01*
X2196490Y3193034D01*
X2192629Y3193592D01*
X2189022Y3194862D01*
X2181453Y3196590D01*
X2179370Y3196894D01*
X2171395Y3197402D01*
X1807260Y3197402D01*
X1803400Y3198164D01*
X1800098Y3200400D01*
X1676400Y3324098D01*
X1674164Y3327400D01*
X1673402Y3331260D01*
X1673402Y3581095D01*
X1672894Y3589070D01*
X1672589Y3591153D01*
X1670202Y3600856D01*
X1667154Y3608171D01*
X1662023Y3616706D01*
X1655470Y3624427D01*
X1528927Y3750970D01*
X1521206Y3757523D01*
X1512671Y3762654D01*
X1505356Y3765702D01*
X1495653Y3768090D01*
X1493570Y3768394D01*
X1485595Y3768902D01*
X804265Y3768902D01*
X800963Y3769461D01*
X798068Y3771036D01*
X795782Y3773474D01*
X790854Y3780942D01*
X781202Y3792169D01*
X770229Y3802176D01*
X758139Y3810762D01*
X745032Y3817772D01*
X731215Y3823106D01*
X716838Y3826764D01*
X702106Y3828592D01*
X687273Y3828592D01*
X672541Y3826764D01*
X658164Y3823106D01*
X644347Y3817772D01*
X631240Y3810762D01*
X619150Y3802176D01*
X608177Y3792169D01*
X598525Y3780942D01*
X590346Y3768547D01*
X583742Y3755288D01*
X578815Y3741267D01*
X575614Y3726789D01*
X574243Y3712006D01*
X574700Y3697173D01*
X576986Y3682542D01*
X581050Y3668268D01*
X586841Y3654602D01*
X594258Y3641750D01*
X603199Y3629914D01*
X613511Y3619246D01*
X625094Y3609949D01*
X637692Y3602177D01*
X651611Y3595725D01*
X655218Y3592982D01*
X657250Y3588969D01*
X657352Y3584498D01*
X655472Y3580384D01*
X652068Y3577488D01*
X647700Y3576370D01*
X641299Y3576167D01*
X626008Y3573881D01*
X611124Y3569817D01*
X596798Y3564026D01*
X583234Y3556558D01*
X570687Y3547516D01*
X559257Y3537102D01*
X549198Y3525367D01*
X540562Y3512565D01*
X533501Y3498799D01*
X528116Y3484321D01*
X524459Y3469284D01*
X522630Y3453942D01*
X522630Y3438448D01*
X524459Y3423107D01*
X528116Y3408070D01*
X533501Y3393592D01*
X540562Y3379825D01*
X549198Y3367024D01*
X559257Y3355289D01*
X570687Y3344875D01*
X583234Y3335883D01*
X596798Y3328415D01*
X611124Y3322574D01*
X626008Y3318510D01*
X641299Y3316224D01*
X656793Y3315766D01*
X672185Y3317138D01*
X687324Y3320338D01*
X701954Y3325266D01*
X715924Y3331921D01*
X728980Y3340201D01*
X740968Y3349904D01*
X751738Y3361029D01*
X761136Y3373323D01*
X769010Y3386632D01*
X775208Y3400755D01*
X779729Y3415537D01*
X782472Y3430778D01*
X783386Y3446221D01*
X782472Y3461613D01*
X779729Y3476853D01*
X775208Y3491636D01*
X769010Y3505809D01*
X761136Y3519119D01*
X751738Y3531362D01*
X740968Y3542487D01*
X728980Y3552240D01*
X715924Y3560470D01*
X701954Y3567125D01*
X698093Y3568446D01*
X694639Y3570427D01*
X692200Y3573576D01*
X691184Y3577386D01*
X691692Y3581349D01*
X693724Y3584752D01*
X696874Y3587191D01*
X700684Y3588207D01*
X709523Y3588715D01*
X724103Y3591458D01*
X738225Y3595979D01*
X751687Y3602177D01*
X764286Y3609949D01*
X775868Y3619246D01*
X786180Y3629914D01*
X798017Y3645509D01*
X801065Y3647287D01*
X804519Y3647897D01*
X1456639Y3647897D01*
X1460500Y3647135D01*
X1463802Y3644900D01*
X1549400Y3559301D01*
X1551635Y3556000D01*
X1552397Y3552139D01*
X1552397Y3302304D01*
X1552905Y3294329D01*
X1553210Y3292246D01*
X1555597Y3282543D01*
X1558645Y3275228D01*
X1563776Y3266694D01*
X1570329Y3258972D01*
X1666900Y3162452D01*
X1669186Y3158896D01*
X1669846Y3154730D01*
X1668780Y3150666D01*
X1666138Y3147364D01*
X1662379Y3145485D01*
X1658162Y3145231D01*
X1652117Y3146145D01*
X1642618Y3146653D01*
X1400962Y3146653D01*
X1397000Y3147415D01*
X1393647Y3149701D01*
X1390954Y3152495D01*
X1378966Y3162198D01*
X1365910Y3170478D01*
X1351940Y3177133D01*
X1337310Y3182061D01*
X1322171Y3185261D01*
X1306779Y3186633D01*
X1291285Y3186176D01*
X1275994Y3183890D01*
X1261110Y3179826D01*
X1246784Y3173984D01*
X1233220Y3166516D01*
X1220673Y3157524D01*
X1209243Y3147110D01*
X1199184Y3135376D01*
X1190548Y3122574D01*
X1183487Y3108807D01*
X1178102Y3094329D01*
X1174445Y3079292D01*
X1172616Y3063951D01*
X1172616Y3048457D01*
X1174445Y3033115D01*
X1178102Y3018078D01*
X1183487Y3003600D01*
X1190548Y2989834D01*
X1199184Y2977032D01*
X1209243Y2965297D01*
X1220673Y2954883D01*
X1233220Y2945841D01*
X1246784Y2938373D01*
X1261110Y2932582D01*
X1275994Y2928518D01*
X1291285Y2926232D01*
X1306779Y2925775D01*
X1322171Y2927146D01*
X1337310Y2930347D01*
X1351940Y2935274D01*
X1365910Y2941929D01*
X1378966Y2950159D01*
X1390954Y2959912D01*
X1393494Y2962554D01*
X1396847Y2964840D01*
X1400810Y2965602D01*
X1601165Y2965602D01*
X1605076Y2964840D01*
X1608378Y2962656D01*
X1843786Y2727248D01*
X1845970Y2723946D01*
X1846732Y2720035D01*
X1846732Y1737664D01*
X1845970Y1733753D01*
X1843786Y1730451D01*
X1790446Y1677162D01*
X1782114Y1667560D01*
X1777593Y1660702D01*
X1775307Y1658264D01*
X1772412Y1656638D01*
X1769110Y1656080D01*
X1410106Y1656080D01*
X1405077Y1655724D01*
X1398778Y1654048D01*
X1393088Y1651152D01*
X1387754Y1646783D01*
X1324914Y1583944D01*
X1321612Y1580134D01*
X1318361Y1574495D01*
X1316431Y1568450D01*
X1315669Y1561592D01*
X1315669Y825906D01*
X1316075Y820877D01*
X1317752Y814578D01*
X1320647Y808939D01*
X1325016Y803554D01*
X1361236Y767334D01*
X1363522Y763778D01*
X1364183Y759561D01*
X1363065Y755446D01*
X1360322Y752195D01*
X1356512Y750316D01*
X1352296Y750163D01*
X1348333Y751738D01*
X1330756Y762508D01*
X1311554Y771550D01*
X1308608Y772718D01*
X1291539Y778459D01*
X1288440Y779322D01*
X1270863Y783234D01*
X1267714Y783742D01*
X1246581Y785876D01*
X1228598Y785876D01*
X1207516Y783742D01*
X1204315Y783234D01*
X1186738Y779322D01*
X1183640Y778459D01*
X1166571Y772718D01*
X1163624Y771550D01*
X1144422Y762508D01*
X1129030Y753211D01*
X1126337Y751382D01*
X1112012Y740511D01*
X1109573Y738428D01*
X1096518Y726033D01*
X1094282Y723696D01*
X1082649Y709980D01*
X1080719Y707440D01*
X1070610Y692556D01*
X1068933Y689813D01*
X1060500Y673912D01*
X1052474Y654253D01*
X1051458Y651205D01*
X1046632Y633882D01*
X1043076Y612952D01*
X1042720Y609752D01*
X1041755Y591820D01*
X1041755Y588568D01*
X1042720Y570636D01*
X1043076Y567436D01*
X1046632Y546506D01*
X1051458Y529183D01*
X1052474Y526135D01*
X1060500Y506476D01*
X1068933Y490575D01*
X1070610Y487832D01*
X1080719Y472948D01*
X1082649Y470408D01*
X1094282Y456692D01*
X1096518Y454355D01*
X1109573Y441959D01*
X1112012Y439877D01*
X1126337Y429006D01*
X1129030Y427177D01*
X1144422Y417880D01*
X1163624Y408838D01*
X1166571Y407670D01*
X1183640Y401929D01*
X1186738Y401066D01*
X1204315Y397154D01*
X1207516Y396646D01*
X1228598Y394512D01*
X1246581Y394512D01*
X1267714Y396646D01*
X1270863Y397154D01*
X1288440Y401066D01*
X1291539Y401929D01*
X1308608Y407670D01*
X1311554Y408838D01*
X1330756Y417880D01*
X1346149Y427177D01*
X1348841Y429006D01*
X1363167Y439877D01*
X1365605Y441959D01*
X1378661Y454355D01*
X1380896Y456692D01*
X1392529Y470408D01*
X1394460Y472948D01*
X1404569Y487832D01*
X1406245Y490575D01*
X1414678Y506476D01*
X1422704Y526135D01*
X1423720Y529183D01*
X1428546Y546506D01*
X1430375Y556615D01*
X1431544Y559968D01*
X1433830Y562711D01*
X1436878Y564540D01*
X1440383Y565150D01*
X1492250Y565150D01*
X1492250Y617474D01*
X1483360Y613105D01*
X1471777Y605332D01*
X1461262Y596138D01*
X1451610Y585165D01*
X1448866Y582930D01*
X1445463Y581812D01*
X1441907Y581914D01*
X1438249Y583438D01*
X1435811Y585571D01*
X1434134Y588365D01*
X1433474Y591515D01*
X1432458Y609752D01*
X1432102Y612952D01*
X1428546Y633882D01*
X1423720Y651205D01*
X1422704Y654253D01*
X1414678Y673912D01*
X1406245Y689813D01*
X1404569Y692556D01*
X1394460Y707440D01*
X1392529Y709980D01*
X1385570Y718210D01*
X1383487Y722071D01*
X1383284Y726389D01*
X1384858Y730453D01*
X1388008Y733450D01*
X1392123Y734872D01*
X1396441Y734466D01*
X1403350Y732231D01*
X1410208Y731469D01*
X3034893Y731469D01*
X3039922Y731875D01*
X3046222Y733552D01*
X3051860Y736447D01*
X3057245Y740816D01*
X3120085Y803656D01*
X3123387Y807466D01*
X3126638Y813104D01*
X3128568Y819150D01*
X3129280Y826008D01*
X3129280Y1561693D01*
X3128924Y1566722D01*
X3127248Y1573022D01*
X3124352Y1578660D01*
X3119983Y1584045D01*
X3057144Y1646885D01*
X3053334Y1650187D01*
X3047695Y1653438D01*
X3041650Y1655368D01*
X3034741Y1656080D01*
X2091689Y1656080D01*
X2088388Y1656638D01*
X2085492Y1658264D01*
X2083206Y1660702D01*
X2078685Y1667560D01*
X2070354Y1677162D01*
X2030730Y1716735D01*
X2028545Y1720037D01*
X2027783Y1723948D01*
X2027783Y2761488D01*
X2027275Y2771190D01*
X2025142Y2783332D01*
X2021382Y2795117D01*
X2020316Y2797657D01*
X2016048Y2806242D01*
X2014677Y2808630D01*
X2007565Y2818739D01*
X2001062Y2825902D01*
X1767738Y3059226D01*
X1765503Y3062630D01*
X1764792Y3066643D01*
X1765655Y3070606D01*
X1768043Y3073908D01*
X1771548Y3075990D01*
X1775561Y3076549D01*
X1778304Y3076397D01*
X2142439Y3076397D01*
X2146300Y3075635D01*
X2149602Y3073400D01*
X2434590Y2788412D01*
X2436825Y2785110D01*
X2437587Y2781249D01*
X2437587Y2163114D01*
X2438095Y2155139D01*
X2438400Y2153056D01*
X2440787Y2143353D01*
X2443835Y2136038D01*
X2448966Y2127504D01*
X2455519Y2119782D01*
X2662072Y1913229D01*
X2669794Y1906676D01*
X2678328Y1901545D01*
X2685643Y1898497D01*
X2695346Y1896110D01*
X2697429Y1895805D01*
X2705404Y1895297D01*
X2862529Y1895297D01*
X2866390Y1894535D01*
X2869692Y1892300D01*
X3158490Y1603502D01*
X3160725Y1600200D01*
X3161487Y1596339D01*
X3161487Y994714D01*
X3161995Y986739D01*
X3162300Y984656D01*
X3164687Y974953D01*
X3167735Y967638D01*
X3172866Y959103D01*
X3179419Y951382D01*
X3360572Y770229D01*
X3368294Y763676D01*
X3376828Y758545D01*
X3384143Y755497D01*
X3393846Y753110D01*
X3395929Y752805D01*
X3403904Y752297D01*
X5304739Y752297D01*
X5308600Y751535D01*
X5311902Y749300D01*
X5372100Y689102D01*
X5374335Y685800D01*
X5375097Y681888D01*
X5374335Y678027D01*
X5372100Y674725D01*
X5369560Y672338D01*
X5357215Y662990D01*
X5346547Y652678D01*
X5337251Y641096D01*
X5329428Y628497D01*
X5323230Y615035D01*
X5317083Y595985D01*
X5314340Y593191D01*
X5310784Y591616D01*
X5306872Y591464D01*
X5303215Y592836D01*
X5300319Y595477D01*
X5298694Y599033D01*
X5296408Y608025D01*
X5291074Y621842D01*
X5284012Y634949D01*
X5275478Y647039D01*
X5265470Y658012D01*
X5254193Y667664D01*
X5241848Y675843D01*
X5228539Y682447D01*
X5214569Y687374D01*
X5200091Y690575D01*
X5185308Y691946D01*
X5170474Y691489D01*
X5155844Y689203D01*
X5141569Y685139D01*
X5127904Y679348D01*
X5115052Y671931D01*
X5103215Y662990D01*
X5092547Y652678D01*
X5083251Y641096D01*
X5075428Y628497D01*
X5069230Y615035D01*
X5063083Y595985D01*
X5060340Y593191D01*
X5056784Y591616D01*
X5052872Y591464D01*
X5049215Y592836D01*
X5046319Y595477D01*
X5044694Y599033D01*
X5042408Y608025D01*
X5037074Y621842D01*
X5030012Y634949D01*
X5021478Y647039D01*
X5011470Y658012D01*
X5000193Y667664D01*
X4987848Y675843D01*
X4974539Y682447D01*
X4960569Y687374D01*
X4946091Y690575D01*
X4931308Y691946D01*
X4916474Y691489D01*
X4901844Y689203D01*
X4887569Y685139D01*
X4873904Y679348D01*
X4861052Y671931D01*
X4849215Y662990D01*
X4838547Y652678D01*
X4829251Y641096D01*
X4821428Y628497D01*
X4815230Y615035D01*
X4810760Y600913D01*
X4808016Y586282D01*
X4807102Y571500D01*
X4808016Y556717D01*
X4810760Y542086D01*
X4815230Y527964D01*
X4821428Y514502D01*
X4829251Y501904D01*
X4838547Y490321D01*
X4849215Y480009D01*
X4864709Y468223D01*
X4866487Y465175D01*
X4867097Y461721D01*
X4867097Y343204D01*
X4867605Y335229D01*
X4867910Y333146D01*
X4870297Y323443D01*
X4873345Y316128D01*
X4878476Y307594D01*
X4885029Y299872D01*
X4973472Y211429D01*
X4981194Y204876D01*
X4989728Y199745D01*
X4997043Y196697D01*
X5006746Y194310D01*
X5008829Y194005D01*
G37*
G36*
X2077872Y336550D02*
G01*
X2090928Y336550D01*
X2103831Y338328D01*
X2116378Y341833D01*
X2128316Y347014D01*
X2139442Y353771D01*
X2149551Y362000D01*
X2158441Y371551D01*
X2165959Y382168D01*
X2171954Y393750D01*
X2174849Y401777D01*
X2176170Y403961D01*
X2176119Y405180D01*
X2179015Y418795D01*
X2179878Y431800D01*
X2179015Y444804D01*
X2176119Y458419D01*
X2176170Y459638D01*
X2174849Y461822D01*
X2171954Y469849D01*
X2165959Y481431D01*
X2158441Y492048D01*
X2149551Y501599D01*
X2139442Y509828D01*
X2128316Y516585D01*
X2116378Y521766D01*
X2103831Y525272D01*
X2090928Y527050D01*
X2077872Y527050D01*
X2064969Y525272D01*
X2052421Y521766D01*
X2040483Y516585D01*
X2029358Y509828D01*
X2019249Y501599D01*
X2010359Y492048D01*
X2002840Y481431D01*
X1996846Y469849D01*
X1992477Y457555D01*
X1989785Y444804D01*
X1988921Y431800D01*
X1989785Y418795D01*
X1992477Y406044D01*
X1996846Y393750D01*
X2002840Y382168D01*
X2010359Y371551D01*
X2019249Y362000D01*
X2029358Y353771D01*
X2040483Y347014D01*
X2052421Y341833D01*
X2064969Y338328D01*
G37*
G36*
X2245563Y344830D02*
G01*
X2245563Y392938D01*
X2197252Y392938D01*
X2202840Y382168D01*
X2210358Y371551D01*
X2219248Y362000D01*
X2229358Y353771D01*
X2240483Y347014D01*
G37*
G36*
X2323236Y344830D02*
G01*
X2328316Y347014D01*
X2339441Y353771D01*
X2349550Y362000D01*
X2358440Y371551D01*
X2365959Y382168D01*
X2371547Y392938D01*
X2323236Y392938D01*
G37*
G36*
X1790700Y414020D02*
G01*
X1804619Y414934D01*
X1818335Y417626D01*
X1831543Y422148D01*
X1844039Y428294D01*
X1855622Y436067D01*
X1866138Y445262D01*
X1875332Y455777D01*
X1883105Y467359D01*
X1889252Y479856D01*
X1893773Y493064D01*
X1896465Y506780D01*
X1897380Y520700D01*
X1896465Y534619D01*
X1893773Y548335D01*
X1889252Y561543D01*
X1883105Y574040D01*
X1875332Y585622D01*
X1866138Y596138D01*
X1855622Y605332D01*
X1844039Y613105D01*
X1831543Y619252D01*
X1818335Y623773D01*
X1804619Y626465D01*
X1790700Y627380D01*
X1776780Y626465D01*
X1763115Y623773D01*
X1749856Y619252D01*
X1737360Y613105D01*
X1725777Y605332D01*
X1715262Y596138D01*
X1706067Y585622D01*
X1698294Y574040D01*
X1692148Y561543D01*
X1687677Y548335D01*
X1684934Y534619D01*
X1684020Y520700D01*
X1684934Y506780D01*
X1687677Y493064D01*
X1692148Y479856D01*
X1698294Y467359D01*
X1706067Y455777D01*
X1715262Y445262D01*
X1725777Y436067D01*
X1737360Y428294D01*
X1749856Y422148D01*
X1763115Y417626D01*
X1776780Y414934D01*
G37*
G36*
X1581150Y423926D02*
G01*
X1590040Y428294D01*
X1601622Y436067D01*
X1612138Y445262D01*
X1621332Y455777D01*
X1629105Y467359D01*
X1633474Y476250D01*
X1581150Y476250D01*
G37*
G36*
X1492250Y423926D02*
G01*
X1492250Y476250D01*
X1439926Y476250D01*
X1444294Y467359D01*
X1452067Y455777D01*
X1461262Y445262D01*
X1471777Y436067D01*
X1483360Y428294D01*
G37*
G36*
X2567076Y465988D02*
G01*
X2716123Y465988D01*
X2722524Y466648D01*
X2728264Y468376D01*
X2733497Y471170D01*
X2738120Y474980D01*
X2741930Y479602D01*
X2744724Y484835D01*
X2746451Y490575D01*
X2747111Y496976D01*
X2747111Y646023D01*
X2746451Y652424D01*
X2744724Y658164D01*
X2741930Y663397D01*
X2738120Y668020D01*
X2733497Y671830D01*
X2728264Y674624D01*
X2722524Y676351D01*
X2716123Y677011D01*
X2567076Y677011D01*
X2560675Y676351D01*
X2554935Y674624D01*
X2549652Y671830D01*
X2545080Y668020D01*
X2541270Y663397D01*
X2538476Y658164D01*
X2536748Y652424D01*
X2536088Y646023D01*
X2536088Y496976D01*
X2536748Y490575D01*
X2538476Y484835D01*
X2541270Y479602D01*
X2545080Y474980D01*
X2549652Y471170D01*
X2554935Y468376D01*
X2560675Y466648D01*
G37*
G36*
X3403600Y466039D02*
G01*
X3417366Y466902D01*
X3430879Y469595D01*
X3443986Y474065D01*
X3456330Y480161D01*
X3467811Y487832D01*
X3478174Y496925D01*
X3487267Y507288D01*
X3494938Y518769D01*
X3501034Y531114D01*
X3505504Y544220D01*
X3508197Y557733D01*
X3509060Y571500D01*
X3508197Y585266D01*
X3505504Y598779D01*
X3501034Y611886D01*
X3494938Y624230D01*
X3487267Y635711D01*
X3478174Y646074D01*
X3467811Y655167D01*
X3456330Y662838D01*
X3443986Y668934D01*
X3430879Y673404D01*
X3417366Y676097D01*
X3403600Y676960D01*
X3389833Y676097D01*
X3376320Y673404D01*
X3363214Y668934D01*
X3350869Y662838D01*
X3339388Y655167D01*
X3329025Y646074D01*
X3319932Y635711D01*
X3312261Y624230D01*
X3306165Y611886D01*
X3301695Y598779D01*
X3299002Y585266D01*
X3298139Y571500D01*
X3299002Y557733D01*
X3301695Y544220D01*
X3306165Y531114D01*
X3312261Y518769D01*
X3319932Y507288D01*
X3329025Y496925D01*
X3339388Y487832D01*
X3350869Y480161D01*
X3363214Y474065D01*
X3376320Y469595D01*
X3389833Y466902D01*
G37*
G36*
X3149600Y466039D02*
G01*
X3163366Y466902D01*
X3176879Y469595D01*
X3189986Y474065D01*
X3202330Y480161D01*
X3213811Y487832D01*
X3224174Y496925D01*
X3233267Y507288D01*
X3240938Y518769D01*
X3247034Y531114D01*
X3251504Y544220D01*
X3254197Y557733D01*
X3255060Y571500D01*
X3254197Y585266D01*
X3251504Y598779D01*
X3247034Y611886D01*
X3240938Y624230D01*
X3233267Y635711D01*
X3224174Y646074D01*
X3213811Y655167D01*
X3202330Y662838D01*
X3189986Y668934D01*
X3176879Y673404D01*
X3163366Y676097D01*
X3149600Y676960D01*
X3135833Y676097D01*
X3122320Y673404D01*
X3109214Y668934D01*
X3096869Y662838D01*
X3085388Y655167D01*
X3075025Y646074D01*
X3065932Y635711D01*
X3058261Y624230D01*
X3052165Y611886D01*
X3047695Y598779D01*
X3045002Y585266D01*
X3044139Y571500D01*
X3045002Y557733D01*
X3047695Y544220D01*
X3052165Y531114D01*
X3058261Y518769D01*
X3065932Y507288D01*
X3075025Y496925D01*
X3085388Y487832D01*
X3096869Y480161D01*
X3109214Y474065D01*
X3122320Y469595D01*
X3135833Y466902D01*
G37*
G36*
X3657600Y466039D02*
G01*
X3671366Y466902D01*
X3684879Y469595D01*
X3697986Y474065D01*
X3710330Y480161D01*
X3721811Y487832D01*
X3732174Y496925D01*
X3741267Y507288D01*
X3748938Y518769D01*
X3755034Y531114D01*
X3759504Y544220D01*
X3762197Y557733D01*
X3763060Y571500D01*
X3762197Y585266D01*
X3759504Y598779D01*
X3755034Y611886D01*
X3748938Y624230D01*
X3741267Y635711D01*
X3732174Y646074D01*
X3721811Y655167D01*
X3710330Y662838D01*
X3697986Y668934D01*
X3684879Y673404D01*
X3671366Y676097D01*
X3657600Y676960D01*
X3643833Y676097D01*
X3630320Y673404D01*
X3617214Y668934D01*
X3604869Y662838D01*
X3593388Y655167D01*
X3583025Y646074D01*
X3573932Y635711D01*
X3566261Y624230D01*
X3560165Y611886D01*
X3555695Y598779D01*
X3553002Y585266D01*
X3552139Y571500D01*
X3553002Y557733D01*
X3555695Y544220D01*
X3560165Y531114D01*
X3566261Y518769D01*
X3573932Y507288D01*
X3583025Y496925D01*
X3593388Y487832D01*
X3604869Y480161D01*
X3617214Y474065D01*
X3630320Y469595D01*
X3643833Y466902D01*
G37*
G36*
X2895600Y466039D02*
G01*
X2909366Y466902D01*
X2922879Y469595D01*
X2935986Y474065D01*
X2948330Y480161D01*
X2959811Y487832D01*
X2970174Y496925D01*
X2979267Y507288D01*
X2986938Y518769D01*
X2993034Y531114D01*
X2997504Y544220D01*
X3000197Y557733D01*
X3001060Y571500D01*
X3000197Y585266D01*
X2997504Y598779D01*
X2993034Y611886D01*
X2986938Y624230D01*
X2979267Y635711D01*
X2970174Y646074D01*
X2959811Y655167D01*
X2948330Y662838D01*
X2935986Y668934D01*
X2922879Y673404D01*
X2909366Y676097D01*
X2895600Y676960D01*
X2881833Y676097D01*
X2868320Y673404D01*
X2855214Y668934D01*
X2842869Y662838D01*
X2831388Y655167D01*
X2821025Y646074D01*
X2811932Y635711D01*
X2804261Y624230D01*
X2798165Y611886D01*
X2793695Y598779D01*
X2791002Y585266D01*
X2790139Y571500D01*
X2791002Y557733D01*
X2793695Y544220D01*
X2798165Y531114D01*
X2804261Y518769D01*
X2811932Y507288D01*
X2821025Y496925D01*
X2831388Y487832D01*
X2842869Y480161D01*
X2855214Y474065D01*
X2868320Y469595D01*
X2881833Y466902D01*
G37*
G36*
X4419600Y466039D02*
G01*
X4433366Y466902D01*
X4446879Y469595D01*
X4459986Y474065D01*
X4472330Y480161D01*
X4483811Y487832D01*
X4494174Y496925D01*
X4503267Y507288D01*
X4510938Y518769D01*
X4517034Y531114D01*
X4521504Y544220D01*
X4524197Y557733D01*
X4525060Y571500D01*
X4524197Y585266D01*
X4521504Y598779D01*
X4517034Y611886D01*
X4510938Y624230D01*
X4503267Y635711D01*
X4494174Y646074D01*
X4483811Y655167D01*
X4472330Y662838D01*
X4459986Y668934D01*
X4446879Y673404D01*
X4433366Y676097D01*
X4419600Y676960D01*
X4405833Y676097D01*
X4392320Y673404D01*
X4379214Y668934D01*
X4366869Y662838D01*
X4355388Y655167D01*
X4345025Y646074D01*
X4335932Y635711D01*
X4328261Y624230D01*
X4322165Y611886D01*
X4317695Y598779D01*
X4315002Y585266D01*
X4314139Y571500D01*
X4315002Y557733D01*
X4317695Y544220D01*
X4322165Y531114D01*
X4328261Y518769D01*
X4335932Y507288D01*
X4345025Y496925D01*
X4355388Y487832D01*
X4366869Y480161D01*
X4379214Y474065D01*
X4392320Y469595D01*
X4405833Y466902D01*
G37*
G36*
X2371648Y470509D02*
G01*
X2365959Y481431D01*
X2358440Y492048D01*
X2349550Y501599D01*
X2339441Y509828D01*
X2328316Y516585D01*
X2323236Y518769D01*
X2323236Y470611D01*
G37*
G36*
X2197252Y470662D02*
G01*
X2245563Y470662D01*
X2245563Y518769D01*
X2240483Y516585D01*
X2229358Y509828D01*
X2219248Y501599D01*
X2210358Y492048D01*
X2202840Y481431D01*
G37*
G36*
X3955440Y475742D02*
G01*
X3964330Y480161D01*
X3975811Y487832D01*
X3986174Y496925D01*
X3995267Y507288D01*
X4002938Y518769D01*
X4007358Y527659D01*
X3955440Y527659D01*
G37*
G36*
X4121759Y475742D02*
G01*
X4121759Y527659D01*
X4069842Y527659D01*
X4074261Y518769D01*
X4081932Y507288D01*
X4091025Y496925D01*
X4101388Y487832D01*
X4112869Y480161D01*
G37*
G36*
X4209440Y475742D02*
G01*
X4218330Y480161D01*
X4229811Y487832D01*
X4240174Y496925D01*
X4249267Y507288D01*
X4256938Y518769D01*
X4261358Y527659D01*
X4209440Y527659D01*
G37*
G36*
X3867759Y475742D02*
G01*
X3867759Y527659D01*
X3815842Y527659D01*
X3820261Y518769D01*
X3827932Y507288D01*
X3837025Y496925D01*
X3847388Y487832D01*
X3858869Y480161D01*
G37*
G36*
X1581150Y565150D02*
G01*
X1633474Y565150D01*
X1629105Y574040D01*
X1621332Y585622D01*
X1612138Y596138D01*
X1601622Y605332D01*
X1590040Y613105D01*
X1581150Y617474D01*
G37*
G36*
X3955440Y615340D02*
G01*
X4007358Y615340D01*
X4002938Y624230D01*
X3995267Y635711D01*
X3986174Y646074D01*
X3975811Y655167D01*
X3964330Y662838D01*
X3955440Y667258D01*
G37*
G36*
X3815842Y615340D02*
G01*
X3867759Y615340D01*
X3867759Y667258D01*
X3858869Y662838D01*
X3847388Y655167D01*
X3837025Y646074D01*
X3827932Y635711D01*
X3820261Y624230D01*
G37*
G36*
X4069842Y615340D02*
G01*
X4121759Y615340D01*
X4121759Y667258D01*
X4112869Y662838D01*
X4101388Y655167D01*
X4091025Y646074D01*
X4081932Y635711D01*
X4074261Y624230D01*
G37*
G36*
X4209440Y615340D02*
G01*
X4261358Y615340D01*
X4256938Y624230D01*
X4249267Y635711D01*
X4240174Y646074D01*
X4229811Y655167D01*
X4218330Y662838D01*
X4209440Y667258D01*
G37*
G36*
X6443573Y891844D02*
G01*
X6461201Y891844D01*
X6464401Y891997D01*
X6482334Y893978D01*
X6485483Y894486D01*
X6503060Y898347D01*
X6506159Y899210D01*
X6523228Y904951D01*
X6542531Y913688D01*
X6545376Y915212D01*
X6563461Y926287D01*
X6577787Y937158D01*
X6580225Y939241D01*
X6593281Y951636D01*
X6595516Y953973D01*
X6607149Y967689D01*
X6609080Y970229D01*
X6620865Y987907D01*
X6629298Y1003808D01*
X6637324Y1023416D01*
X6638340Y1026464D01*
X6643166Y1043838D01*
X6646722Y1064717D01*
X6647078Y1067917D01*
X6648043Y1085900D01*
X6648043Y1089101D01*
X6647078Y1107084D01*
X6646722Y1110284D01*
X6643166Y1131163D01*
X6638340Y1148537D01*
X6637324Y1151585D01*
X6629298Y1171194D01*
X6620865Y1187094D01*
X6609080Y1204772D01*
X6607149Y1207312D01*
X6595516Y1221028D01*
X6593281Y1223365D01*
X6580225Y1235760D01*
X6577787Y1237843D01*
X6563461Y1248714D01*
X6545376Y1259789D01*
X6542531Y1261313D01*
X6523228Y1270050D01*
X6506159Y1275791D01*
X6503060Y1276654D01*
X6485483Y1280515D01*
X6482334Y1281023D01*
X6464401Y1283004D01*
X6461201Y1283157D01*
X6443218Y1283157D01*
X6440017Y1283004D01*
X6422136Y1281023D01*
X6418935Y1280515D01*
X6401358Y1276654D01*
X6398260Y1275791D01*
X6381191Y1270050D01*
X6361887Y1261313D01*
X6359042Y1259789D01*
X6340957Y1248714D01*
X6326632Y1237843D01*
X6324193Y1235760D01*
X6311138Y1223365D01*
X6308902Y1221028D01*
X6297269Y1207312D01*
X6295339Y1204772D01*
X6283553Y1187094D01*
X6275120Y1171194D01*
X6267094Y1151585D01*
X6266078Y1148537D01*
X6261252Y1131163D01*
X6257696Y1110284D01*
X6257340Y1107084D01*
X6256375Y1089101D01*
X6256375Y1085900D01*
X6257340Y1067917D01*
X6257696Y1064717D01*
X6261252Y1043838D01*
X6266078Y1026464D01*
X6267094Y1023416D01*
X6275120Y1003808D01*
X6283553Y987907D01*
X6295339Y970229D01*
X6297269Y967689D01*
X6308902Y953973D01*
X6311138Y951636D01*
X6324193Y939241D01*
X6326632Y937158D01*
X6340957Y926287D01*
X6359042Y915212D01*
X6361887Y913688D01*
X6381191Y904951D01*
X6398260Y899210D01*
X6401358Y898347D01*
X6418935Y894486D01*
X6422136Y893978D01*
X6439662Y892048D01*
G37*
G36*
X1059637Y974394D02*
G01*
X1102817Y974394D01*
X1109218Y975004D01*
X1114958Y976782D01*
X1120241Y979576D01*
X1124813Y983386D01*
X1128623Y987958D01*
X1131417Y993241D01*
X1133195Y998982D01*
X1133805Y1005382D01*
X1133805Y1048562D01*
X1059637Y1048562D01*
G37*
G36*
X903782Y974394D02*
G01*
X946962Y974394D01*
X946962Y1048562D01*
X881938Y1048562D01*
X878128Y1049274D01*
X874877Y1051407D01*
X872642Y1054608D01*
X871778Y1058418D01*
X872388Y1062228D01*
X874115Y1066800D01*
X877722Y1081836D01*
X879551Y1097178D01*
X879551Y1112621D01*
X877722Y1127963D01*
X874115Y1143000D01*
X872388Y1147572D01*
X871778Y1151382D01*
X872642Y1155192D01*
X874877Y1158392D01*
X878128Y1160526D01*
X881938Y1161237D01*
X946962Y1161237D01*
X946962Y1235405D01*
X903782Y1235405D01*
X897382Y1234795D01*
X891641Y1233017D01*
X886358Y1230223D01*
X881786Y1226413D01*
X877976Y1221841D01*
X875182Y1216558D01*
X873404Y1210818D01*
X872794Y1204417D01*
X872794Y1188008D01*
X871880Y1183792D01*
X869340Y1180338D01*
X865581Y1178255D01*
X861314Y1177899D01*
X857300Y1179322D01*
X854202Y1182319D01*
X853033Y1184097D01*
X842924Y1195781D01*
X831494Y1206246D01*
X818946Y1215237D01*
X805434Y1222705D01*
X791108Y1228496D01*
X776173Y1232611D01*
X760882Y1234846D01*
X745439Y1235354D01*
X730046Y1233932D01*
X714908Y1230782D01*
X700278Y1225804D01*
X686308Y1219149D01*
X673252Y1210919D01*
X661212Y1201166D01*
X650443Y1190091D01*
X641096Y1177798D01*
X633222Y1164488D01*
X626973Y1150315D01*
X622452Y1135532D01*
X619709Y1120343D01*
X618794Y1104900D01*
X619709Y1089456D01*
X622452Y1074267D01*
X626973Y1059484D01*
X633222Y1045311D01*
X641096Y1032002D01*
X650443Y1019708D01*
X661212Y1008634D01*
X673252Y998880D01*
X686308Y990650D01*
X700278Y983996D01*
X714908Y979017D01*
X730046Y975868D01*
X745439Y974445D01*
X760882Y974902D01*
X776173Y977188D01*
X791108Y981303D01*
X805434Y987094D01*
X818946Y994562D01*
X831494Y1003553D01*
X842924Y1014018D01*
X853033Y1025702D01*
X854202Y1027480D01*
X857300Y1030478D01*
X861314Y1031900D01*
X865581Y1031544D01*
X869340Y1029462D01*
X871880Y1026007D01*
X872794Y1021791D01*
X872794Y1005382D01*
X873404Y998982D01*
X875182Y993241D01*
X877976Y987958D01*
X881786Y983386D01*
X886358Y979576D01*
X891641Y976782D01*
X897382Y975004D01*
G37*
G36*
X1059637Y1161237D02*
G01*
X1133805Y1161237D01*
X1133805Y1204417D01*
X1133195Y1210818D01*
X1131417Y1216558D01*
X1128623Y1221841D01*
X1124813Y1226413D01*
X1120241Y1230223D01*
X1114958Y1233017D01*
X1109218Y1234795D01*
X1102817Y1235405D01*
X1059637Y1235405D01*
G37*
G36*
X4439208Y1162253D02*
G01*
X4453991Y1163624D01*
X4468469Y1166825D01*
X4482490Y1171752D01*
X4495749Y1178356D01*
X4508093Y1186535D01*
X4519371Y1196187D01*
X4529378Y1207160D01*
X4537964Y1219250D01*
X4544974Y1232357D01*
X4550308Y1246174D01*
X4553915Y1260551D01*
X4555744Y1275283D01*
X4555744Y1290116D01*
X4553915Y1304848D01*
X4550308Y1319225D01*
X4544974Y1333042D01*
X4537964Y1346149D01*
X4529378Y1358239D01*
X4519371Y1369212D01*
X4508093Y1378864D01*
X4495749Y1387043D01*
X4482490Y1393647D01*
X4468469Y1398574D01*
X4453991Y1401775D01*
X4439208Y1403146D01*
X4424375Y1402689D01*
X4409744Y1400403D01*
X4395470Y1396339D01*
X4381804Y1390548D01*
X4368952Y1383131D01*
X4357116Y1374190D01*
X4346448Y1363878D01*
X4337151Y1352296D01*
X4329379Y1339697D01*
X4323130Y1326235D01*
X4318660Y1312113D01*
X4315917Y1297482D01*
X4315002Y1282700D01*
X4315917Y1267917D01*
X4318660Y1253286D01*
X4323130Y1239164D01*
X4329379Y1225702D01*
X4337151Y1213104D01*
X4346448Y1201521D01*
X4357116Y1191209D01*
X4368952Y1182268D01*
X4381804Y1174851D01*
X4395470Y1169060D01*
X4409744Y1164996D01*
X4424375Y1162710D01*
G37*
G36*
X5587492Y1174953D02*
G01*
X5602325Y1175410D01*
X5617006Y1177696D01*
X5631230Y1181760D01*
X5644896Y1187551D01*
X5657748Y1194968D01*
X5669584Y1203909D01*
X5680252Y1214221D01*
X5689549Y1225804D01*
X5697372Y1238402D01*
X5703570Y1251864D01*
X5708040Y1265986D01*
X5710783Y1280617D01*
X5711698Y1295400D01*
X5710783Y1310182D01*
X5708040Y1324813D01*
X5703570Y1338935D01*
X5697372Y1352397D01*
X5689549Y1364996D01*
X5680252Y1376578D01*
X5669584Y1386890D01*
X5657748Y1395831D01*
X5644896Y1403248D01*
X5631230Y1409039D01*
X5617006Y1413103D01*
X5602325Y1415389D01*
X5587492Y1415846D01*
X5572709Y1414475D01*
X5558231Y1411274D01*
X5544261Y1406347D01*
X5530951Y1399743D01*
X5518607Y1391564D01*
X5507329Y1381912D01*
X5497322Y1370939D01*
X5488787Y1358849D01*
X5481726Y1345742D01*
X5476392Y1331925D01*
X5472785Y1317548D01*
X5470956Y1302816D01*
X5470956Y1287983D01*
X5472785Y1273251D01*
X5476392Y1258874D01*
X5481726Y1245057D01*
X5488787Y1231950D01*
X5497322Y1219860D01*
X5507329Y1208887D01*
X5518607Y1199235D01*
X5530951Y1191056D01*
X5544261Y1184452D01*
X5558231Y1179525D01*
X5572709Y1176324D01*
G37*
G36*
X4717491Y1174953D02*
G01*
X4732324Y1175410D01*
X4746955Y1177696D01*
X4761230Y1181760D01*
X4774895Y1187551D01*
X4787747Y1194968D01*
X4799584Y1203909D01*
X4810252Y1214221D01*
X4819548Y1225804D01*
X4827320Y1238402D01*
X4833569Y1251864D01*
X4838039Y1265986D01*
X4840782Y1280617D01*
X4841697Y1295400D01*
X4840782Y1310182D01*
X4838039Y1324813D01*
X4833569Y1338935D01*
X4827320Y1352397D01*
X4819548Y1364996D01*
X4810252Y1376578D01*
X4799584Y1386890D01*
X4787747Y1395831D01*
X4774895Y1403248D01*
X4761230Y1409039D01*
X4746955Y1413103D01*
X4732324Y1415389D01*
X4717491Y1415846D01*
X4702708Y1414475D01*
X4688230Y1411274D01*
X4674209Y1406347D01*
X4660950Y1399743D01*
X4648606Y1391564D01*
X4637328Y1381912D01*
X4627321Y1370939D01*
X4618736Y1358849D01*
X4611725Y1345742D01*
X4606391Y1331925D01*
X4602784Y1317548D01*
X4600956Y1302816D01*
X4600956Y1287983D01*
X4602784Y1273251D01*
X4606391Y1258874D01*
X4611725Y1245057D01*
X4618736Y1231950D01*
X4627321Y1219860D01*
X4637328Y1208887D01*
X4648606Y1199235D01*
X4660950Y1191056D01*
X4674209Y1184452D01*
X4688230Y1179525D01*
X4702708Y1176324D01*
G37*
G36*
X6494780Y1336141D02*
G01*
X6494780Y1389380D01*
X6441389Y1389380D01*
X6447078Y1378458D01*
X6455105Y1366977D01*
X6464503Y1356614D01*
X6475171Y1347571D01*
X6486906Y1339951D01*
G37*
G36*
X6586220Y1336141D02*
G01*
X6594094Y1339951D01*
X6605828Y1347571D01*
X6616496Y1356614D01*
X6625894Y1366977D01*
X6633921Y1378458D01*
X6639610Y1389380D01*
X6586220Y1389380D01*
G37*
G36*
X6441541Y1480820D02*
G01*
X6494780Y1480820D01*
X6494780Y1534160D01*
X6493103Y1533499D01*
X6480911Y1526641D01*
X6469684Y1518259D01*
X6459626Y1508556D01*
X6450939Y1497584D01*
X6443675Y1485595D01*
G37*
G36*
X6586220Y1480820D02*
G01*
X6639458Y1480820D01*
X6637324Y1485595D01*
X6630060Y1497584D01*
X6621373Y1508556D01*
X6611315Y1518259D01*
X6600088Y1526641D01*
X6587896Y1533499D01*
X6586220Y1534160D01*
G37*
G36*
X5582208Y1505153D02*
G01*
X5596991Y1506524D01*
X5611469Y1509725D01*
X5625490Y1514652D01*
X5638749Y1521256D01*
X5651093Y1529435D01*
X5662371Y1539087D01*
X5672378Y1550060D01*
X5680964Y1562150D01*
X5687974Y1575257D01*
X5693308Y1589074D01*
X5696915Y1603451D01*
X5698744Y1618183D01*
X5698744Y1633016D01*
X5696915Y1647748D01*
X5693308Y1662125D01*
X5687974Y1675942D01*
X5680964Y1689049D01*
X5672378Y1701139D01*
X5662371Y1712112D01*
X5651093Y1721764D01*
X5638749Y1729943D01*
X5625490Y1736547D01*
X5611469Y1741474D01*
X5596991Y1744675D01*
X5582208Y1746046D01*
X5567375Y1745589D01*
X5552744Y1743303D01*
X5538470Y1739239D01*
X5524804Y1733448D01*
X5511952Y1726031D01*
X5500116Y1717090D01*
X5489448Y1706778D01*
X5480151Y1695196D01*
X5472379Y1682597D01*
X5466130Y1669135D01*
X5461660Y1655013D01*
X5458917Y1640382D01*
X5458002Y1625600D01*
X5458917Y1610817D01*
X5461660Y1596186D01*
X5466130Y1582064D01*
X5472379Y1568602D01*
X5480151Y1556004D01*
X5489448Y1544421D01*
X5500116Y1534109D01*
X5511952Y1525168D01*
X5524804Y1517751D01*
X5538470Y1511960D01*
X5552744Y1507896D01*
X5567375Y1505610D01*
G37*
G36*
X4481017Y1516634D02*
G01*
X4483404Y1517650D01*
X4496257Y1525066D01*
X4508093Y1534007D01*
X4518710Y1544320D01*
X4528007Y1555902D01*
X4535830Y1568500D01*
X4538421Y1574139D01*
X4481017Y1574139D01*
G37*
G36*
X4657140Y1516735D02*
G01*
X4657140Y1574241D01*
X4599736Y1574241D01*
X4602327Y1568602D01*
X4610150Y1556004D01*
X4619447Y1544421D01*
X4630115Y1534109D01*
X4641951Y1525168D01*
X4654804Y1517751D01*
G37*
G36*
X4378350Y1516735D02*
G01*
X4378350Y1574139D01*
X4320743Y1574139D01*
X4327245Y1562049D01*
X4335830Y1549958D01*
X4345838Y1538986D01*
X4357065Y1529334D01*
X4369460Y1521155D01*
G37*
G36*
X4759858Y1516837D02*
G01*
X4768748Y1521256D01*
X4781092Y1529435D01*
X4792370Y1539087D01*
X4802378Y1550060D01*
X4810912Y1562150D01*
X4817414Y1574241D01*
X4759858Y1574241D01*
G37*
G36*
X6540500Y1579880D02*
G01*
X6554470Y1580794D01*
X6568186Y1583436D01*
X6581495Y1587855D01*
X6594094Y1593951D01*
X6605828Y1601571D01*
X6616496Y1610614D01*
X6625894Y1620977D01*
X6633921Y1632457D01*
X6640372Y1644904D01*
X6645198Y1658010D01*
X6648348Y1671675D01*
X6649669Y1685594D01*
X6649212Y1699564D01*
X6646976Y1713382D01*
X6643014Y1726844D01*
X6637324Y1739595D01*
X6630060Y1751584D01*
X6621373Y1762556D01*
X6611315Y1772259D01*
X6600088Y1780641D01*
X6587896Y1787499D01*
X6574942Y1792782D01*
X6561378Y1796288D01*
X6547510Y1798116D01*
X6533489Y1798116D01*
X6519621Y1796288D01*
X6506057Y1792782D01*
X6493103Y1787499D01*
X6480911Y1780641D01*
X6469684Y1772259D01*
X6459626Y1762556D01*
X6450939Y1751584D01*
X6443675Y1739595D01*
X6437985Y1726844D01*
X6434023Y1713382D01*
X6431788Y1699564D01*
X6431330Y1685594D01*
X6432651Y1671675D01*
X6435801Y1658010D01*
X6440627Y1644904D01*
X6447078Y1632457D01*
X6455105Y1620977D01*
X6464503Y1610614D01*
X6475171Y1601571D01*
X6486906Y1593951D01*
X6499504Y1587855D01*
X6512814Y1583436D01*
X6526530Y1580794D01*
G37*
G36*
X4481017Y1676857D02*
G01*
X4538421Y1676857D01*
X4535830Y1682496D01*
X4528007Y1695094D01*
X4518710Y1706676D01*
X4508093Y1716989D01*
X4496257Y1725930D01*
X4483404Y1733346D01*
X4481017Y1734362D01*
G37*
G36*
X4320743Y1676857D02*
G01*
X4378350Y1676857D01*
X4378350Y1734261D01*
X4369460Y1729841D01*
X4357065Y1721662D01*
X4345838Y1712010D01*
X4335830Y1701038D01*
X4327245Y1688947D01*
G37*
G36*
X4599736Y1676958D02*
G01*
X4657140Y1676958D01*
X4657140Y1734464D01*
X4654804Y1733448D01*
X4641951Y1726031D01*
X4630115Y1717090D01*
X4619447Y1706778D01*
X4610150Y1695196D01*
X4602327Y1682597D01*
G37*
G36*
X4759858Y1676958D02*
G01*
X4817414Y1676958D01*
X4810912Y1689049D01*
X4802378Y1701139D01*
X4792370Y1712112D01*
X4781092Y1721764D01*
X4768748Y1729943D01*
X4759858Y1734362D01*
G37*
G36*
X726694Y1690776D02*
G01*
X811072Y1690776D01*
X825906Y1691690D01*
X840232Y1694332D01*
X854100Y1698650D01*
X867359Y1704593D01*
X879805Y1712163D01*
X891286Y1721104D01*
X901547Y1731416D01*
X910539Y1742846D01*
X918057Y1755292D01*
X924052Y1768551D01*
X928369Y1782470D01*
X931011Y1796796D01*
X931875Y1811274D01*
X931011Y1825802D01*
X928369Y1840128D01*
X924052Y1854047D01*
X918057Y1867306D01*
X910539Y1879752D01*
X901547Y1891182D01*
X891286Y1901494D01*
X879805Y1910435D01*
X867359Y1918004D01*
X854100Y1923948D01*
X840232Y1928266D01*
X825906Y1930907D01*
X811072Y1931822D01*
X726694Y1931822D01*
X711860Y1930907D01*
X697534Y1928266D01*
X683666Y1923948D01*
X670407Y1918004D01*
X657961Y1910435D01*
X646480Y1901494D01*
X636219Y1891182D01*
X627227Y1879752D01*
X619709Y1867306D01*
X613714Y1854047D01*
X609396Y1840128D01*
X606755Y1825802D01*
X605891Y1811274D01*
X606755Y1796796D01*
X609396Y1782470D01*
X613714Y1768551D01*
X619709Y1755292D01*
X627227Y1742846D01*
X636219Y1731416D01*
X646480Y1721104D01*
X657961Y1712163D01*
X670407Y1704593D01*
X683666Y1698650D01*
X697534Y1694332D01*
X711860Y1691690D01*
G37*
G36*
X1614373Y1743354D02*
G01*
X1629206Y1743354D01*
X1643938Y1745183D01*
X1658315Y1748789D01*
X1672132Y1754124D01*
X1685239Y1761134D01*
X1697329Y1769719D01*
X1708302Y1779727D01*
X1717954Y1791004D01*
X1726133Y1803349D01*
X1732737Y1816607D01*
X1737664Y1830628D01*
X1740865Y1845106D01*
X1742236Y1859889D01*
X1741779Y1874723D01*
X1739493Y1889353D01*
X1735429Y1903628D01*
X1729638Y1917293D01*
X1722221Y1930146D01*
X1713280Y1941982D01*
X1702968Y1952650D01*
X1691386Y1961946D01*
X1678787Y1969719D01*
X1665325Y1975967D01*
X1651203Y1980438D01*
X1636623Y1983181D01*
X1621790Y1984095D01*
X1607007Y1983181D01*
X1592427Y1980438D01*
X1578254Y1975967D01*
X1564792Y1969719D01*
X1552194Y1961946D01*
X1540611Y1952650D01*
X1530299Y1941982D01*
X1521358Y1930146D01*
X1513941Y1917293D01*
X1508150Y1903628D01*
X1504086Y1889353D01*
X1501800Y1874723D01*
X1501343Y1859889D01*
X1502714Y1845106D01*
X1505915Y1830628D01*
X1510842Y1816607D01*
X1517446Y1803349D01*
X1525625Y1791004D01*
X1535277Y1779727D01*
X1546250Y1769719D01*
X1558340Y1761134D01*
X1571447Y1754124D01*
X1585264Y1748789D01*
X1599641Y1745183D01*
G37*
G36*
X1309573Y1743354D02*
G01*
X1324406Y1743354D01*
X1339138Y1745183D01*
X1353515Y1748789D01*
X1367332Y1754124D01*
X1380439Y1761134D01*
X1392529Y1769719D01*
X1403502Y1779727D01*
X1413154Y1791004D01*
X1421333Y1803349D01*
X1427937Y1816607D01*
X1432864Y1830628D01*
X1436065Y1845106D01*
X1437436Y1859889D01*
X1436979Y1874723D01*
X1434693Y1889353D01*
X1430629Y1903628D01*
X1424838Y1917293D01*
X1417421Y1930146D01*
X1408480Y1941982D01*
X1398168Y1952650D01*
X1396593Y1953920D01*
X1393799Y1957425D01*
X1392783Y1961845D01*
X1392783Y2079091D01*
X1393545Y2083003D01*
X1395780Y2086305D01*
X1616303Y2306828D01*
X1619504Y2309012D01*
X1623263Y2309825D01*
X1628038Y2309926D01*
X1634134Y2310536D01*
X1640179Y2311603D01*
X1646224Y2313076D01*
X1652117Y2314905D01*
X1657857Y2317191D01*
X1663446Y2319832D01*
X1668830Y2322880D01*
X1673961Y2326284D01*
X1678889Y2329992D01*
X1683562Y2334056D01*
X1687931Y2338425D01*
X1691995Y2343099D01*
X1695704Y2348026D01*
X1699107Y2353157D01*
X1702155Y2358542D01*
X1704797Y2364130D01*
X1707083Y2369870D01*
X1708912Y2375763D01*
X1710385Y2381808D01*
X1711452Y2387854D01*
X1712061Y2394000D01*
X1712315Y2400350D01*
X1712315Y2650642D01*
X1712925Y2654147D01*
X1714754Y2657246D01*
X1717954Y2661005D01*
X1726133Y2673350D01*
X1732737Y2686659D01*
X1737664Y2700629D01*
X1740865Y2715107D01*
X1742236Y2729890D01*
X1741779Y2744724D01*
X1739493Y2759354D01*
X1735429Y2773629D01*
X1729638Y2787294D01*
X1722221Y2800146D01*
X1713280Y2811983D01*
X1702968Y2822651D01*
X1691386Y2831947D01*
X1678787Y2839770D01*
X1665325Y2845968D01*
X1651203Y2850438D01*
X1636623Y2853182D01*
X1621790Y2854096D01*
X1607007Y2853182D01*
X1592427Y2850438D01*
X1578254Y2845968D01*
X1564792Y2839770D01*
X1552194Y2831947D01*
X1540611Y2822651D01*
X1530299Y2811983D01*
X1521358Y2800146D01*
X1513941Y2787294D01*
X1508150Y2773629D01*
X1504086Y2759354D01*
X1501800Y2744724D01*
X1501343Y2729890D01*
X1502714Y2715107D01*
X1505915Y2700629D01*
X1510842Y2686659D01*
X1517446Y2673350D01*
X1525625Y2661005D01*
X1528826Y2657246D01*
X1530654Y2654198D01*
X1531264Y2650642D01*
X1531264Y2480564D01*
X1530807Y2477566D01*
X1529486Y2474772D01*
X1527352Y2472537D01*
X1524660Y2470505D01*
X1517497Y2464003D01*
X1238453Y2184958D01*
X1231950Y2177796D01*
X1224889Y2167686D01*
X1223467Y2165299D01*
X1219200Y2156714D01*
X1218133Y2154174D01*
X1214374Y2142388D01*
X1212596Y2132939D01*
X1212291Y2130247D01*
X1211783Y2120544D01*
X1211783Y1924608D01*
X1211427Y1921967D01*
X1209141Y1917293D01*
X1203350Y1903628D01*
X1199286Y1889353D01*
X1197000Y1874723D01*
X1196543Y1859889D01*
X1197914Y1845106D01*
X1201115Y1830628D01*
X1206042Y1816607D01*
X1212646Y1803349D01*
X1220825Y1791004D01*
X1230477Y1779727D01*
X1241450Y1769719D01*
X1253540Y1761134D01*
X1266647Y1754124D01*
X1280464Y1748789D01*
X1294841Y1745183D01*
G37*
G36*
X6540500Y1833880D02*
G01*
X6554470Y1834794D01*
X6568186Y1837436D01*
X6581495Y1841855D01*
X6594094Y1847951D01*
X6605828Y1855571D01*
X6616496Y1864614D01*
X6625894Y1874977D01*
X6633921Y1886457D01*
X6640372Y1898904D01*
X6645198Y1912010D01*
X6648348Y1925675D01*
X6649669Y1939594D01*
X6649212Y1953564D01*
X6646976Y1967382D01*
X6643014Y1980844D01*
X6637324Y1993595D01*
X6630060Y2005584D01*
X6621373Y2016556D01*
X6611315Y2026259D01*
X6600088Y2034641D01*
X6587896Y2041499D01*
X6574942Y2046782D01*
X6561378Y2050288D01*
X6547510Y2052116D01*
X6533489Y2052116D01*
X6519621Y2050288D01*
X6506057Y2046782D01*
X6493103Y2041499D01*
X6480911Y2034641D01*
X6469684Y2026259D01*
X6459626Y2016556D01*
X6450939Y2005584D01*
X6443675Y1993595D01*
X6437985Y1980844D01*
X6434023Y1967382D01*
X6431788Y1953564D01*
X6431330Y1939594D01*
X6432651Y1925675D01*
X6435801Y1912010D01*
X6440627Y1898904D01*
X6447078Y1886457D01*
X6455105Y1874977D01*
X6464503Y1864614D01*
X6475171Y1855571D01*
X6486906Y1847951D01*
X6499504Y1841855D01*
X6512814Y1837436D01*
X6526530Y1834794D01*
G37*
G36*
X643890Y2004618D02*
G01*
X657809Y2005533D01*
X671474Y2008225D01*
X684733Y2012746D01*
X697230Y2018893D01*
X708812Y2026666D01*
X719328Y2035860D01*
X728522Y2046376D01*
X736295Y2057958D01*
X742442Y2070455D01*
X746912Y2083663D01*
X749655Y2097379D01*
X750570Y2111298D01*
X749655Y2125218D01*
X746912Y2138934D01*
X742442Y2152142D01*
X736295Y2164638D01*
X728522Y2176221D01*
X719328Y2186736D01*
X708812Y2195931D01*
X698500Y2202840D01*
X695655Y2205634D01*
X694182Y2209292D01*
X694182Y2213305D01*
X695655Y2216962D01*
X698500Y2219756D01*
X708812Y2226665D01*
X719328Y2235860D01*
X728522Y2246376D01*
X736295Y2257958D01*
X742442Y2270455D01*
X746912Y2283663D01*
X749655Y2297379D01*
X750570Y2311298D01*
X749655Y2325217D01*
X746912Y2338933D01*
X742442Y2352141D01*
X736295Y2364638D01*
X728522Y2376220D01*
X719328Y2386736D01*
X708812Y2395931D01*
X698500Y2402840D01*
X695655Y2405634D01*
X694182Y2409291D01*
X694182Y2413304D01*
X695655Y2416962D01*
X698500Y2419756D01*
X708812Y2426665D01*
X719328Y2435860D01*
X728522Y2446375D01*
X736295Y2457958D01*
X742442Y2470454D01*
X746912Y2483662D01*
X749655Y2497378D01*
X750570Y2511298D01*
X749655Y2525217D01*
X746912Y2538933D01*
X742442Y2552141D01*
X736295Y2564638D01*
X728522Y2576220D01*
X719328Y2586736D01*
X708812Y2595930D01*
X697230Y2603703D01*
X684733Y2609850D01*
X671474Y2614371D01*
X657809Y2617063D01*
X643890Y2617978D01*
X629970Y2617063D01*
X616254Y2614371D01*
X603046Y2609850D01*
X590550Y2603703D01*
X578916Y2595930D01*
X568452Y2586736D01*
X559257Y2576220D01*
X551484Y2564638D01*
X545338Y2552141D01*
X540816Y2538933D01*
X538124Y2525217D01*
X537210Y2511298D01*
X538124Y2497378D01*
X540816Y2483662D01*
X545338Y2470454D01*
X551484Y2457958D01*
X559257Y2446375D01*
X568452Y2435860D01*
X578916Y2426665D01*
X589280Y2419756D01*
X592074Y2416962D01*
X593598Y2413304D01*
X593598Y2409291D01*
X592074Y2405634D01*
X589280Y2402840D01*
X578916Y2395931D01*
X568452Y2386736D01*
X559257Y2376220D01*
X551484Y2364638D01*
X545338Y2352141D01*
X540816Y2338933D01*
X538124Y2325217D01*
X537210Y2311298D01*
X538124Y2297379D01*
X540816Y2283663D01*
X545338Y2270455D01*
X551484Y2257958D01*
X559257Y2246376D01*
X568452Y2235860D01*
X578916Y2226665D01*
X589280Y2219756D01*
X592074Y2216962D01*
X593598Y2213305D01*
X593598Y2209292D01*
X592074Y2205634D01*
X589280Y2202840D01*
X578916Y2195931D01*
X568452Y2186736D01*
X559257Y2176221D01*
X551484Y2164638D01*
X545338Y2152142D01*
X540816Y2138934D01*
X538124Y2125218D01*
X537210Y2111298D01*
X538124Y2097379D01*
X540816Y2083663D01*
X545338Y2070455D01*
X551484Y2057958D01*
X559257Y2046376D01*
X568452Y2035860D01*
X578916Y2026666D01*
X590550Y2018893D01*
X603046Y2012746D01*
X616254Y2008225D01*
X629970Y2005533D01*
G37*
G36*
X893876Y2004618D02*
G01*
X907796Y2005533D01*
X921512Y2008225D01*
X934719Y2012746D01*
X947216Y2018893D01*
X958850Y2026666D01*
X969314Y2035860D01*
X978509Y2046376D01*
X986282Y2057958D01*
X992428Y2070455D01*
X996950Y2083663D01*
X999642Y2097379D01*
X1000556Y2111298D01*
X999642Y2125218D01*
X996950Y2138934D01*
X992428Y2152142D01*
X986282Y2164638D01*
X978509Y2176221D01*
X969314Y2186736D01*
X958850Y2195931D01*
X948486Y2202840D01*
X945692Y2205634D01*
X944168Y2209292D01*
X944168Y2213305D01*
X945692Y2216962D01*
X948486Y2219756D01*
X958850Y2226665D01*
X969314Y2235860D01*
X978509Y2246376D01*
X986282Y2257958D01*
X992428Y2270455D01*
X996950Y2283663D01*
X999642Y2297379D01*
X1000556Y2311298D01*
X999642Y2325217D01*
X996950Y2338933D01*
X992428Y2352141D01*
X986282Y2364638D01*
X978509Y2376220D01*
X969314Y2386736D01*
X958850Y2395931D01*
X948486Y2402840D01*
X945692Y2405634D01*
X944168Y2409291D01*
X944168Y2413304D01*
X945692Y2416962D01*
X948486Y2419756D01*
X958850Y2426665D01*
X969314Y2435860D01*
X978509Y2446375D01*
X986282Y2457958D01*
X992428Y2470454D01*
X996950Y2483662D01*
X999642Y2497378D01*
X1000556Y2511298D01*
X999642Y2525217D01*
X996950Y2538933D01*
X992428Y2552141D01*
X986282Y2564638D01*
X978509Y2576220D01*
X969314Y2586736D01*
X958850Y2595930D01*
X947216Y2603703D01*
X934719Y2609850D01*
X921512Y2614371D01*
X907796Y2617063D01*
X893876Y2617978D01*
X879957Y2617063D01*
X866292Y2614371D01*
X853084Y2609850D01*
X840536Y2603703D01*
X828954Y2595930D01*
X818438Y2586736D01*
X809244Y2576220D01*
X801471Y2564638D01*
X795324Y2552141D01*
X790854Y2538933D01*
X788111Y2525217D01*
X787196Y2511298D01*
X788111Y2497378D01*
X790854Y2483662D01*
X795324Y2470454D01*
X801471Y2457958D01*
X809244Y2446375D01*
X818438Y2435860D01*
X828954Y2426665D01*
X839266Y2419756D01*
X842111Y2416962D01*
X843635Y2413304D01*
X843635Y2409291D01*
X842111Y2405634D01*
X839266Y2402840D01*
X828954Y2395931D01*
X818438Y2386736D01*
X809244Y2376220D01*
X801471Y2364638D01*
X795324Y2352141D01*
X790854Y2338933D01*
X788111Y2325217D01*
X787196Y2311298D01*
X788111Y2297379D01*
X790854Y2283663D01*
X795324Y2270455D01*
X801471Y2257958D01*
X809244Y2246376D01*
X818438Y2235860D01*
X828954Y2226665D01*
X839266Y2219756D01*
X842111Y2216962D01*
X843635Y2213305D01*
X843635Y2209292D01*
X842111Y2205634D01*
X839266Y2202840D01*
X828954Y2195931D01*
X818438Y2186736D01*
X809244Y2176221D01*
X801471Y2164638D01*
X795324Y2152142D01*
X790854Y2138934D01*
X788111Y2125218D01*
X787196Y2111298D01*
X788111Y2097379D01*
X790854Y2083663D01*
X795324Y2070455D01*
X801471Y2057958D01*
X809244Y2046376D01*
X818438Y2035860D01*
X828954Y2026666D01*
X840536Y2018893D01*
X853084Y2012746D01*
X866292Y2008225D01*
X879957Y2005533D01*
G37*
G36*
X4617262Y2109266D02*
G01*
X4617262Y2165959D01*
X4552848Y2165959D01*
X4557268Y2157069D01*
X4564938Y2145588D01*
X4574032Y2135225D01*
X4584395Y2126132D01*
X4595876Y2118461D01*
X4608220Y2112365D01*
G37*
G36*
X4729937Y2109266D02*
G01*
X4738979Y2112365D01*
X4751324Y2118461D01*
X4762804Y2126132D01*
X4773168Y2135225D01*
X4782261Y2145588D01*
X4789932Y2157069D01*
X4794351Y2165959D01*
X4729937Y2165959D01*
G37*
G36*
X4729937Y2253640D02*
G01*
X4794351Y2253640D01*
X4789932Y2262530D01*
X4782261Y2274011D01*
X4773168Y2284374D01*
X4762804Y2293467D01*
X4751324Y2301138D01*
X4738979Y2307234D01*
X4729937Y2310333D01*
G37*
G36*
X4552848Y2253640D02*
G01*
X4617262Y2253640D01*
X4617262Y2310333D01*
X4608220Y2307234D01*
X4595876Y2301138D01*
X4584395Y2293467D01*
X4574032Y2284374D01*
X4564938Y2274011D01*
X4557268Y2262530D01*
G37*
G36*
X2265019Y2302814D02*
G01*
X2275941Y2308504D01*
X2287574Y2316632D01*
X2298039Y2326132D01*
X2307234Y2336901D01*
X2314956Y2348788D01*
X2318766Y2356662D01*
X2265019Y2356662D01*
G37*
G36*
X2172360Y2302916D02*
G01*
X2172360Y2356662D01*
X2118512Y2356662D01*
X2119172Y2355037D01*
X2126081Y2342743D01*
X2134565Y2331364D01*
X2144420Y2321204D01*
X2155494Y2312365D01*
X2167585Y2305050D01*
G37*
G36*
X5410911Y2358288D02*
G01*
X5460288Y2358288D01*
X5474360Y2359202D01*
X5487924Y2361895D01*
X5500979Y2366365D01*
X5513324Y2372461D01*
X5524804Y2380132D01*
X5535168Y2389225D01*
X5544261Y2399588D01*
X5551932Y2411069D01*
X5558078Y2423414D01*
X5562498Y2436520D01*
X5565190Y2450033D01*
X5566105Y2463800D01*
X5565190Y2477566D01*
X5562498Y2491079D01*
X5558078Y2504186D01*
X5551932Y2516530D01*
X5544261Y2528011D01*
X5535168Y2538374D01*
X5524804Y2547467D01*
X5513324Y2555138D01*
X5500979Y2561234D01*
X5487924Y2565704D01*
X5474360Y2568397D01*
X5460288Y2569311D01*
X5410911Y2569311D01*
X5396839Y2568397D01*
X5383276Y2565704D01*
X5370220Y2561234D01*
X5357876Y2555138D01*
X5346395Y2547467D01*
X5336032Y2538374D01*
X5326938Y2528011D01*
X5319268Y2516530D01*
X5313121Y2504186D01*
X5308701Y2491079D01*
X5306009Y2477566D01*
X5305094Y2463800D01*
X5306009Y2450033D01*
X5308701Y2436520D01*
X5313121Y2423414D01*
X5319268Y2411069D01*
X5326938Y2399588D01*
X5336032Y2389225D01*
X5346395Y2380132D01*
X5357876Y2372461D01*
X5370220Y2366365D01*
X5383276Y2361895D01*
X5396839Y2359202D01*
G37*
G36*
X3950360Y2422702D02*
G01*
X3950360Y2476550D01*
X3896614Y2476550D01*
X3898747Y2471775D01*
X3906062Y2459685D01*
X3914901Y2448610D01*
X3925062Y2438755D01*
X3936441Y2430272D01*
X3948734Y2423363D01*
G37*
G36*
X4043019Y2422702D02*
G01*
X4044645Y2423363D01*
X4056989Y2430272D01*
X4068318Y2438755D01*
X4078478Y2448610D01*
X4087317Y2459685D01*
X4094632Y2471775D01*
X4096765Y2476550D01*
X4043019Y2476550D01*
G37*
G36*
X4250690Y2425141D02*
G01*
X4264812Y2426004D01*
X4278731Y2428748D01*
X4292142Y2433218D01*
X4304893Y2439314D01*
X4316780Y2447036D01*
X4327550Y2456230D01*
X4337050Y2466695D01*
X4345178Y2478328D01*
X4351731Y2490876D01*
X4356608Y2504186D01*
X4359757Y2517952D01*
X4361129Y2532075D01*
X4360672Y2546197D01*
X4358386Y2560167D01*
X4354372Y2573782D01*
X4348632Y2586685D01*
X4341317Y2598826D01*
X4332478Y2609900D01*
X4322318Y2619756D01*
X4310989Y2628188D01*
X4298645Y2635148D01*
X4285488Y2640482D01*
X4271822Y2644038D01*
X4257751Y2645867D01*
X4243628Y2645867D01*
X4229557Y2644038D01*
X4215892Y2640482D01*
X4202734Y2635148D01*
X4190441Y2628188D01*
X4179062Y2619756D01*
X4168901Y2609900D01*
X4160062Y2598826D01*
X4152747Y2586685D01*
X4147007Y2573782D01*
X4142994Y2560167D01*
X4140708Y2546197D01*
X4140250Y2532075D01*
X4141622Y2517952D01*
X4144772Y2504186D01*
X4149648Y2490876D01*
X4156201Y2478328D01*
X4164329Y2466695D01*
X4173829Y2456230D01*
X4184599Y2447036D01*
X4196486Y2439314D01*
X4209237Y2433218D01*
X4222648Y2428748D01*
X4236567Y2426004D01*
G37*
G36*
X6585559Y2448204D02*
G01*
X6592316Y2451404D01*
X6604558Y2459177D01*
X6615734Y2468422D01*
X6625691Y2478989D01*
X6634175Y2490724D01*
X6641338Y2503728D01*
X6585559Y2503728D01*
G37*
G36*
X6487820Y2448204D02*
G01*
X6487820Y2503728D01*
X6432092Y2503728D01*
X6439204Y2490724D01*
X6447688Y2478989D01*
X6457645Y2468422D01*
X6468821Y2459177D01*
X6481064Y2451404D01*
G37*
G36*
X2265019Y2449322D02*
G01*
X2318766Y2449322D01*
X2314956Y2457196D01*
X2307234Y2469083D01*
X2298039Y2479852D01*
X2287574Y2489352D01*
X2275941Y2497480D01*
X2265019Y2503170D01*
G37*
G36*
X2118512Y2449322D02*
G01*
X2172360Y2449322D01*
X2172360Y2503068D01*
X2167585Y2500934D01*
X2155494Y2493619D01*
X2144420Y2484780D01*
X2134565Y2474620D01*
X2126081Y2463241D01*
X2119172Y2450947D01*
G37*
G36*
X5910326Y2557627D02*
G01*
X6066840Y2557627D01*
X6073292Y2558288D01*
X6078982Y2560015D01*
X6084265Y2562860D01*
X6088837Y2566619D01*
X6092647Y2571242D01*
X6095441Y2576525D01*
X6097219Y2582214D01*
X6097828Y2588666D01*
X6097828Y2745130D01*
X6097219Y2751582D01*
X6095441Y2757271D01*
X6092647Y2762554D01*
X6088837Y2767177D01*
X6084265Y2770936D01*
X6078982Y2773781D01*
X6073292Y2775508D01*
X6066840Y2776118D01*
X5910326Y2776118D01*
X5903925Y2775508D01*
X5898184Y2773781D01*
X5892901Y2770936D01*
X5888329Y2767177D01*
X5884519Y2762554D01*
X5881725Y2757271D01*
X5879998Y2751582D01*
X5879338Y2745130D01*
X5879338Y2588666D01*
X5879998Y2582214D01*
X5881725Y2576525D01*
X5884519Y2571242D01*
X5888329Y2566619D01*
X5892901Y2562860D01*
X5898184Y2560015D01*
X5903925Y2558288D01*
G37*
G36*
X4043019Y2569260D02*
G01*
X4096867Y2569260D01*
X4091178Y2580182D01*
X4083050Y2591765D01*
X4073550Y2602280D01*
X4062780Y2611424D01*
X4050893Y2619146D01*
X4043019Y2622956D01*
G37*
G36*
X3896512Y2569260D02*
G01*
X3950360Y2569260D01*
X3950360Y2622956D01*
X3942486Y2619146D01*
X3930599Y2611424D01*
X3919829Y2602280D01*
X3910329Y2591765D01*
X3902201Y2580182D01*
G37*
G36*
X6585559Y2601468D02*
G01*
X6641338Y2601468D01*
X6634175Y2614472D01*
X6625691Y2626207D01*
X6615734Y2636774D01*
X6604558Y2646019D01*
X6592316Y2653792D01*
X6585559Y2656992D01*
G37*
G36*
X6432092Y2601468D02*
G01*
X6487820Y2601468D01*
X6487820Y2656992D01*
X6481064Y2653792D01*
X6468821Y2646019D01*
X6457645Y2636774D01*
X6447688Y2626207D01*
X6439204Y2614472D01*
G37*
G36*
X5410911Y2612288D02*
G01*
X5460288Y2612288D01*
X5474360Y2613202D01*
X5487924Y2615895D01*
X5500979Y2620365D01*
X5513324Y2626461D01*
X5524804Y2634132D01*
X5535168Y2643225D01*
X5544261Y2653588D01*
X5551932Y2665069D01*
X5558078Y2677414D01*
X5562498Y2690520D01*
X5565190Y2704033D01*
X5566105Y2717800D01*
X5565190Y2731566D01*
X5562498Y2745079D01*
X5558078Y2758186D01*
X5551932Y2770530D01*
X5544261Y2782011D01*
X5535168Y2792374D01*
X5524804Y2801467D01*
X5513324Y2809138D01*
X5500979Y2815234D01*
X5487924Y2819704D01*
X5474360Y2822397D01*
X5460288Y2823311D01*
X5410911Y2823311D01*
X5396839Y2822397D01*
X5383276Y2819704D01*
X5370220Y2815234D01*
X5357876Y2809138D01*
X5346395Y2801467D01*
X5336032Y2792374D01*
X5326938Y2782011D01*
X5319268Y2770530D01*
X5313121Y2758186D01*
X5308701Y2745079D01*
X5306009Y2731566D01*
X5305094Y2717800D01*
X5306009Y2704033D01*
X5308701Y2690520D01*
X5313121Y2677414D01*
X5319268Y2665069D01*
X5326938Y2653588D01*
X5336032Y2643225D01*
X5346395Y2634132D01*
X5357876Y2626461D01*
X5370220Y2620365D01*
X5383276Y2615895D01*
X5396839Y2613202D01*
G37*
G36*
X4648911Y2612288D02*
G01*
X4698288Y2612288D01*
X4712360Y2613202D01*
X4725924Y2615895D01*
X4738979Y2620365D01*
X4751324Y2626461D01*
X4762804Y2634132D01*
X4773168Y2643225D01*
X4782261Y2653588D01*
X4789932Y2665069D01*
X4796078Y2677414D01*
X4800498Y2690520D01*
X4803190Y2704033D01*
X4804105Y2717800D01*
X4803190Y2731566D01*
X4800498Y2745079D01*
X4796078Y2758186D01*
X4789932Y2770530D01*
X4782261Y2782011D01*
X4773168Y2792374D01*
X4762804Y2801467D01*
X4751324Y2809138D01*
X4738979Y2815234D01*
X4725924Y2819704D01*
X4712360Y2822397D01*
X4698288Y2823311D01*
X4648911Y2823311D01*
X4634839Y2822397D01*
X4621276Y2819704D01*
X4608220Y2815234D01*
X4595876Y2809138D01*
X4584395Y2801467D01*
X4574032Y2792374D01*
X4564938Y2782011D01*
X4557268Y2770530D01*
X4551121Y2758186D01*
X4546701Y2745079D01*
X4544009Y2731566D01*
X4543094Y2717800D01*
X4544009Y2704033D01*
X4546701Y2690520D01*
X4551121Y2677414D01*
X4557268Y2665069D01*
X4564938Y2653588D01*
X4574032Y2643225D01*
X4584395Y2634132D01*
X4595876Y2626461D01*
X4608220Y2620365D01*
X4621276Y2615895D01*
X4634839Y2613202D01*
G37*
G36*
X1309573Y2613355D02*
G01*
X1324406Y2613355D01*
X1339138Y2615184D01*
X1353515Y2618790D01*
X1367332Y2624124D01*
X1380439Y2631186D01*
X1392529Y2639720D01*
X1403502Y2649728D01*
X1413154Y2661005D01*
X1421333Y2673350D01*
X1427937Y2686659D01*
X1432864Y2700629D01*
X1436065Y2715107D01*
X1437436Y2729890D01*
X1436979Y2744724D01*
X1434693Y2759354D01*
X1430629Y2773629D01*
X1424838Y2787294D01*
X1417421Y2800146D01*
X1408480Y2811983D01*
X1398168Y2822651D01*
X1386586Y2831947D01*
X1373987Y2839770D01*
X1360525Y2845968D01*
X1346403Y2850438D01*
X1331823Y2853182D01*
X1316990Y2854096D01*
X1302207Y2853182D01*
X1287627Y2850438D01*
X1273454Y2845968D01*
X1259992Y2839770D01*
X1247394Y2831947D01*
X1235811Y2822651D01*
X1225499Y2811983D01*
X1216558Y2800146D01*
X1209141Y2787294D01*
X1203350Y2773629D01*
X1199286Y2759354D01*
X1197000Y2744724D01*
X1196543Y2729890D01*
X1197914Y2715107D01*
X1201115Y2700629D01*
X1206042Y2686659D01*
X1212646Y2673350D01*
X1220825Y2661005D01*
X1230477Y2649728D01*
X1241450Y2639720D01*
X1253540Y2631186D01*
X1266647Y2624124D01*
X1280464Y2618790D01*
X1294841Y2615184D01*
G37*
G36*
X2222246Y2642565D02*
G01*
X2236317Y2643936D01*
X2250135Y2647086D01*
X2263394Y2651963D01*
X2275941Y2658516D01*
X2287574Y2666644D01*
X2298039Y2676144D01*
X2307234Y2686913D01*
X2314956Y2698800D01*
X2321102Y2711551D01*
X2325573Y2724962D01*
X2328265Y2738882D01*
X2329180Y2753004D01*
X2328265Y2767126D01*
X2325573Y2781046D01*
X2321102Y2794457D01*
X2314956Y2807208D01*
X2307234Y2819095D01*
X2298039Y2829864D01*
X2287574Y2839364D01*
X2275941Y2847492D01*
X2263394Y2854045D01*
X2250135Y2858922D01*
X2236317Y2862072D01*
X2222246Y2863443D01*
X2208072Y2862986D01*
X2194102Y2860700D01*
X2180539Y2856687D01*
X2167585Y2850946D01*
X2155494Y2843631D01*
X2144420Y2834792D01*
X2134565Y2824632D01*
X2126081Y2813253D01*
X2119172Y2800959D01*
X2113838Y2787802D01*
X2110232Y2774137D01*
X2108454Y2760065D01*
X2108454Y2745943D01*
X2110232Y2731871D01*
X2113838Y2718206D01*
X2119172Y2705049D01*
X2126081Y2692755D01*
X2134565Y2681376D01*
X2144420Y2671216D01*
X2155494Y2662377D01*
X2167585Y2655062D01*
X2180539Y2649321D01*
X2194102Y2645308D01*
X2208072Y2643022D01*
G37*
G36*
X726694Y2690774D02*
G01*
X811072Y2690774D01*
X825906Y2691688D01*
X840232Y2694330D01*
X854100Y2698648D01*
X867359Y2704592D01*
X879856Y2712161D01*
X891286Y2721102D01*
X901598Y2731414D01*
X910539Y2742844D01*
X918057Y2755290D01*
X924052Y2768549D01*
X928369Y2782468D01*
X931011Y2796794D01*
X931875Y2811272D01*
X931011Y2825800D01*
X928369Y2840126D01*
X924052Y2854045D01*
X918057Y2867304D01*
X910539Y2879750D01*
X901598Y2891180D01*
X891286Y2901492D01*
X879856Y2910433D01*
X867359Y2918002D01*
X854100Y2923946D01*
X840232Y2928264D01*
X825906Y2930906D01*
X811072Y2931820D01*
X734974Y2931820D01*
X730910Y2932633D01*
X727557Y2935020D01*
X725424Y2938576D01*
X724865Y2942640D01*
X725982Y2946654D01*
X728573Y2949854D01*
X740968Y2959912D01*
X751738Y2971038D01*
X761136Y2983280D01*
X769010Y2996590D01*
X775208Y3010763D01*
X779729Y3025546D01*
X782472Y3040786D01*
X783386Y3056178D01*
X782472Y3071622D01*
X779729Y3086862D01*
X775208Y3101644D01*
X769010Y3115767D01*
X761136Y3129076D01*
X751738Y3141370D01*
X740968Y3152495D01*
X728980Y3162198D01*
X715924Y3170478D01*
X701954Y3177133D01*
X687324Y3182061D01*
X672185Y3185261D01*
X656793Y3186633D01*
X641299Y3186176D01*
X626008Y3183890D01*
X611124Y3179826D01*
X596798Y3173984D01*
X583234Y3166516D01*
X570687Y3157524D01*
X559257Y3147110D01*
X549198Y3135376D01*
X540562Y3122574D01*
X533501Y3108807D01*
X528116Y3094329D01*
X524459Y3079292D01*
X522630Y3063951D01*
X522630Y3048457D01*
X524459Y3033115D01*
X528116Y3018078D01*
X533501Y3003600D01*
X540562Y2989834D01*
X549198Y2977032D01*
X559257Y2965297D01*
X570687Y2954883D01*
X583234Y2945841D01*
X596798Y2938373D01*
X611124Y2932582D01*
X626008Y2928518D01*
X641299Y2926232D01*
X648665Y2926029D01*
X652678Y2925064D01*
X655980Y2922574D01*
X658012Y2919018D01*
X658469Y2914954D01*
X657301Y2910992D01*
X654608Y2907842D01*
X646480Y2901492D01*
X636219Y2891180D01*
X627227Y2879750D01*
X619709Y2867304D01*
X613714Y2854045D01*
X609396Y2840126D01*
X606755Y2825800D01*
X605891Y2811272D01*
X606755Y2796794D01*
X609396Y2782468D01*
X613714Y2768549D01*
X619709Y2755290D01*
X627227Y2742844D01*
X636219Y2731414D01*
X646480Y2721102D01*
X657961Y2712161D01*
X670407Y2704592D01*
X683666Y2698648D01*
X697534Y2694330D01*
X711860Y2691688D01*
G37*
G36*
X3430727Y3044698D02*
G01*
X3433978Y3046120D01*
X3447287Y3053994D01*
X3459581Y3063341D01*
X3470656Y3074111D01*
X3480409Y3086150D01*
X3488690Y3099206D01*
X3491839Y3105861D01*
X3430727Y3105861D01*
G37*
G36*
X3318052Y3044698D02*
G01*
X3318052Y3105861D01*
X3256940Y3105861D01*
X3260140Y3099206D01*
X3268370Y3086150D01*
X3278124Y3074111D01*
X3289198Y3063341D01*
X3301492Y3053994D01*
X3314801Y3046120D01*
G37*
G36*
X5410911Y3120288D02*
G01*
X5460288Y3120288D01*
X5474360Y3121202D01*
X5487924Y3123895D01*
X5500979Y3128365D01*
X5513324Y3134461D01*
X5524804Y3142132D01*
X5535168Y3151225D01*
X5544261Y3161588D01*
X5551932Y3173069D01*
X5558078Y3185414D01*
X5562498Y3198520D01*
X5565190Y3212033D01*
X5566105Y3225800D01*
X5565190Y3239566D01*
X5562498Y3253079D01*
X5558078Y3266186D01*
X5551932Y3278530D01*
X5544261Y3290011D01*
X5535168Y3300374D01*
X5524804Y3309467D01*
X5513324Y3317138D01*
X5500979Y3323234D01*
X5487924Y3327704D01*
X5474360Y3330397D01*
X5460288Y3331311D01*
X5410911Y3331311D01*
X5396839Y3330397D01*
X5383276Y3327704D01*
X5370220Y3323234D01*
X5357876Y3317138D01*
X5346395Y3309467D01*
X5336032Y3300374D01*
X5326938Y3290011D01*
X5319268Y3278530D01*
X5313121Y3266186D01*
X5308701Y3253079D01*
X5306009Y3239566D01*
X5305094Y3225800D01*
X5306009Y3212033D01*
X5308701Y3198520D01*
X5313121Y3185414D01*
X5319268Y3173069D01*
X5326938Y3161588D01*
X5336032Y3151225D01*
X5346395Y3142132D01*
X5357876Y3134461D01*
X5370220Y3128365D01*
X5383276Y3123895D01*
X5396839Y3121202D01*
G37*
G36*
X6536690Y3199130D02*
G01*
X6551168Y3200044D01*
X6565392Y3202736D01*
X6579209Y3207207D01*
X6592316Y3213404D01*
X6604558Y3221177D01*
X6615734Y3230422D01*
X6625691Y3240989D01*
X6634175Y3252724D01*
X6641185Y3265424D01*
X6646519Y3278936D01*
X6650126Y3292957D01*
X6651955Y3307334D01*
X6651955Y3321862D01*
X6650126Y3336239D01*
X6646519Y3350260D01*
X6641185Y3363772D01*
X6634175Y3376472D01*
X6625691Y3388207D01*
X6615734Y3398774D01*
X6604558Y3408019D01*
X6592316Y3415792D01*
X6579209Y3421989D01*
X6565392Y3426460D01*
X6551168Y3429152D01*
X6536690Y3430066D01*
X6522212Y3429152D01*
X6507988Y3426460D01*
X6494170Y3421989D01*
X6481064Y3415792D01*
X6468821Y3408019D01*
X6457645Y3398774D01*
X6447688Y3388207D01*
X6439204Y3376472D01*
X6432194Y3363772D01*
X6426860Y3350260D01*
X6423253Y3336239D01*
X6421424Y3321862D01*
X6421424Y3307334D01*
X6423253Y3292957D01*
X6426860Y3278936D01*
X6432194Y3265424D01*
X6439204Y3252724D01*
X6447688Y3240989D01*
X6457645Y3230422D01*
X6468821Y3221177D01*
X6481064Y3213404D01*
X6494170Y3207207D01*
X6507988Y3202736D01*
X6522212Y3200044D01*
G37*
G36*
X3430727Y3218535D02*
G01*
X3492093Y3218535D01*
X3484727Y3231845D01*
X3475736Y3244392D01*
X3465271Y3255822D01*
X3453587Y3265932D01*
X3440734Y3274567D01*
X3430727Y3279698D01*
G37*
G36*
X3256737Y3218535D02*
G01*
X3318052Y3218535D01*
X3318052Y3279698D01*
X3308045Y3274567D01*
X3295192Y3265932D01*
X3283508Y3255822D01*
X3273044Y3244392D01*
X3264052Y3231845D01*
G37*
G36*
X1306779Y3315766D02*
G01*
X1322171Y3317138D01*
X1337310Y3320338D01*
X1351940Y3325266D01*
X1365910Y3331921D01*
X1378966Y3340201D01*
X1390954Y3349904D01*
X1401724Y3361029D01*
X1411122Y3373323D01*
X1418996Y3386632D01*
X1425194Y3400755D01*
X1429715Y3415537D01*
X1432458Y3430778D01*
X1433372Y3446221D01*
X1432458Y3461613D01*
X1429715Y3476853D01*
X1425194Y3491636D01*
X1418996Y3505809D01*
X1411122Y3519119D01*
X1401724Y3531362D01*
X1390954Y3542487D01*
X1378966Y3552240D01*
X1365910Y3560470D01*
X1351940Y3567125D01*
X1337310Y3572052D01*
X1322171Y3575253D01*
X1306779Y3576624D01*
X1291285Y3576167D01*
X1275994Y3573881D01*
X1261110Y3569817D01*
X1246784Y3564026D01*
X1233220Y3556558D01*
X1220673Y3547516D01*
X1209243Y3537102D01*
X1199184Y3525367D01*
X1190548Y3512565D01*
X1183487Y3498799D01*
X1178102Y3484321D01*
X1174445Y3469284D01*
X1172616Y3453942D01*
X1172616Y3438448D01*
X1174445Y3423107D01*
X1178102Y3408070D01*
X1183487Y3393592D01*
X1190548Y3379825D01*
X1199184Y3367024D01*
X1209243Y3355289D01*
X1220673Y3344875D01*
X1233220Y3335883D01*
X1246784Y3328415D01*
X1261110Y3322574D01*
X1275994Y3318510D01*
X1291285Y3316224D01*
G37*
G36*
X5942888Y3329838D02*
G01*
X5942888Y3383178D01*
X5889599Y3383178D01*
X5891733Y3378352D01*
X5898997Y3366414D01*
X5907735Y3355441D01*
X5917793Y3345738D01*
X5929020Y3337356D01*
X5941212Y3330498D01*
G37*
G36*
X6034328Y3329838D02*
G01*
X6035954Y3330498D01*
X6048197Y3337356D01*
X6059373Y3345738D01*
X6069431Y3355441D01*
X6078169Y3366414D01*
X6085433Y3378352D01*
X6087567Y3383178D01*
X6034328Y3383178D01*
G37*
G36*
X4648911Y3374288D02*
G01*
X4698288Y3374288D01*
X4712360Y3375202D01*
X4725924Y3377895D01*
X4738979Y3382365D01*
X4751324Y3388461D01*
X4762804Y3396132D01*
X4773168Y3405225D01*
X4782261Y3415588D01*
X4789932Y3427069D01*
X4796078Y3439414D01*
X4800498Y3452520D01*
X4803190Y3466033D01*
X4804105Y3479800D01*
X4803190Y3493566D01*
X4800498Y3507079D01*
X4796078Y3520186D01*
X4789932Y3532530D01*
X4782261Y3544011D01*
X4773168Y3554374D01*
X4762804Y3563467D01*
X4751324Y3571138D01*
X4738979Y3577234D01*
X4725924Y3581704D01*
X4712360Y3584397D01*
X4698288Y3585311D01*
X4648911Y3585311D01*
X4634839Y3584397D01*
X4621276Y3581704D01*
X4608220Y3577234D01*
X4595876Y3571138D01*
X4584395Y3563467D01*
X4574032Y3554374D01*
X4564938Y3544011D01*
X4557268Y3532530D01*
X4551121Y3520186D01*
X4546701Y3507079D01*
X4544009Y3493566D01*
X4543094Y3479800D01*
X4544009Y3466033D01*
X4546701Y3452520D01*
X4551121Y3439414D01*
X4557268Y3427069D01*
X4564938Y3415588D01*
X4574032Y3405225D01*
X4584395Y3396132D01*
X4595876Y3388461D01*
X4608220Y3382365D01*
X4621276Y3377895D01*
X4634839Y3375202D01*
G37*
G36*
X6452209Y3453079D02*
G01*
X6621170Y3453079D01*
X6627622Y3453739D01*
X6633362Y3455466D01*
X6638594Y3458260D01*
X6643217Y3462070D01*
X6647027Y3466693D01*
X6649821Y3471926D01*
X6651548Y3477666D01*
X6652209Y3484118D01*
X6652209Y3653078D01*
X6651548Y3659530D01*
X6649821Y3665270D01*
X6647027Y3670503D01*
X6643217Y3675126D01*
X6638594Y3678936D01*
X6633362Y3681729D01*
X6627622Y3683457D01*
X6621170Y3684117D01*
X6499910Y3684117D01*
X6495846Y3684981D01*
X6492443Y3687419D01*
X6490309Y3691026D01*
X6489801Y3695141D01*
X6491020Y3699154D01*
X6493764Y3702354D01*
X6497523Y3704132D01*
X6506311Y3706266D01*
X6523228Y3711956D01*
X6542531Y3720693D01*
X6545376Y3722217D01*
X6563461Y3733292D01*
X6577787Y3744163D01*
X6580225Y3746246D01*
X6593281Y3758641D01*
X6595516Y3760978D01*
X6607149Y3774694D01*
X6609080Y3777234D01*
X6620865Y3794912D01*
X6629298Y3810812D01*
X6637324Y3830421D01*
X6638340Y3833469D01*
X6643166Y3850843D01*
X6646722Y3871722D01*
X6647078Y3874922D01*
X6648043Y3892905D01*
X6648043Y3896106D01*
X6647078Y3914089D01*
X6646722Y3917289D01*
X6643166Y3938168D01*
X6638340Y3955542D01*
X6637324Y3958590D01*
X6629298Y3978198D01*
X6620865Y3994099D01*
X6609080Y4011777D01*
X6607149Y4014317D01*
X6595516Y4028033D01*
X6593281Y4030370D01*
X6580225Y4042765D01*
X6577787Y4044848D01*
X6563461Y4055719D01*
X6545376Y4066794D01*
X6542531Y4068318D01*
X6523228Y4077055D01*
X6506159Y4082796D01*
X6503060Y4083659D01*
X6485483Y4087520D01*
X6482334Y4088028D01*
X6464401Y4090009D01*
X6461201Y4090162D01*
X6443218Y4090162D01*
X6440017Y4090009D01*
X6422136Y4088028D01*
X6418935Y4087520D01*
X6401358Y4083659D01*
X6398260Y4082796D01*
X6381191Y4077055D01*
X6361887Y4068318D01*
X6359042Y4066794D01*
X6340957Y4055719D01*
X6326632Y4044848D01*
X6324193Y4042765D01*
X6311138Y4030370D01*
X6308902Y4028033D01*
X6297269Y4014317D01*
X6295339Y4011777D01*
X6283553Y3994099D01*
X6275120Y3978198D01*
X6267094Y3958590D01*
X6266078Y3955542D01*
X6261252Y3938168D01*
X6257696Y3917289D01*
X6257340Y3914089D01*
X6256375Y3896106D01*
X6256375Y3892905D01*
X6257340Y3874922D01*
X6257696Y3871722D01*
X6261252Y3850843D01*
X6266078Y3833469D01*
X6267094Y3830421D01*
X6275120Y3810812D01*
X6283553Y3794912D01*
X6295339Y3777234D01*
X6297269Y3774694D01*
X6308902Y3760978D01*
X6311138Y3758641D01*
X6324193Y3746246D01*
X6326632Y3744163D01*
X6340957Y3733292D01*
X6359042Y3722217D01*
X6361887Y3720693D01*
X6381191Y3711956D01*
X6398260Y3706215D01*
X6401358Y3705351D01*
X6418935Y3701491D01*
X6434226Y3699662D01*
X6438239Y3698290D01*
X6441389Y3695395D01*
X6443065Y3691483D01*
X6443014Y3687216D01*
X6441135Y3683355D01*
X6437884Y3680612D01*
X6434836Y3678936D01*
X6429197Y3674262D01*
X6426149Y3672535D01*
X6422694Y3671925D01*
X6246164Y3671925D01*
X6242253Y3672687D01*
X6238951Y3674872D01*
X5701030Y4212793D01*
X5698845Y4216095D01*
X5698083Y4220006D01*
X5698083Y4354271D01*
X5698947Y4358386D01*
X5701385Y4361789D01*
X5704992Y4363872D01*
X5709158Y4364380D01*
X5713171Y4363161D01*
X5716320Y4360367D01*
X5721299Y4353814D01*
X5731611Y4343146D01*
X5743194Y4333849D01*
X5755792Y4326026D01*
X5761431Y4323435D01*
X5761431Y4380839D01*
X5708243Y4380839D01*
X5704332Y4381601D01*
X5701030Y4383836D01*
X5698845Y4387138D01*
X5698083Y4390999D01*
X5698083Y4473397D01*
X5698845Y4477258D01*
X5701030Y4480560D01*
X5704332Y4482795D01*
X5708243Y4483557D01*
X5761431Y4483557D01*
X5761431Y4541113D01*
X5749340Y4534662D01*
X5737250Y4526076D01*
X5726328Y4516069D01*
X5715965Y4503928D01*
X5712714Y4501388D01*
X5708751Y4500321D01*
X5704738Y4500930D01*
X5701233Y4503115D01*
X5698896Y4506468D01*
X5698083Y4510481D01*
X5698083Y4530293D01*
X5698845Y4534204D01*
X5701030Y4537506D01*
X5742584Y4579010D01*
X5746394Y4581398D01*
X5750864Y4581956D01*
X5755792Y4580026D01*
X5769254Y4573828D01*
X5783427Y4569358D01*
X5798007Y4566615D01*
X5812790Y4565700D01*
X5827623Y4566615D01*
X5842203Y4569358D01*
X5856325Y4573828D01*
X5869787Y4580026D01*
X5882386Y4587849D01*
X5889345Y4593437D01*
X5892342Y4595114D01*
X5895746Y4595672D01*
X6021984Y4595672D01*
X6025337Y4595114D01*
X6028334Y4593437D01*
X6035294Y4587849D01*
X6047892Y4580026D01*
X6061354Y4573828D01*
X6075527Y4569358D01*
X6090107Y4566615D01*
X6104890Y4565700D01*
X6119723Y4566615D01*
X6134303Y4569358D01*
X6148425Y4573828D01*
X6161887Y4580026D01*
X6174486Y4587849D01*
X6181445Y4593437D01*
X6184442Y4595114D01*
X6187846Y4595672D01*
X6314084Y4595672D01*
X6317437Y4595114D01*
X6320434Y4593437D01*
X6327394Y4587849D01*
X6339992Y4580026D01*
X6353454Y4573828D01*
X6367627Y4569358D01*
X6382207Y4566615D01*
X6396990Y4565700D01*
X6411823Y4566615D01*
X6426403Y4569358D01*
X6440525Y4573828D01*
X6453987Y4580026D01*
X6466586Y4587849D01*
X6478168Y4597146D01*
X6488480Y4607814D01*
X6497421Y4619650D01*
X6504838Y4632502D01*
X6510629Y4646168D01*
X6514693Y4660442D01*
X6516979Y4675073D01*
X6517436Y4689906D01*
X6516065Y4704689D01*
X6512864Y4719167D01*
X6507937Y4733137D01*
X6501333Y4746447D01*
X6493154Y4758791D01*
X6483502Y4770069D01*
X6472529Y4780076D01*
X6460439Y4788662D01*
X6447332Y4795672D01*
X6433515Y4801006D01*
X6419138Y4804613D01*
X6404406Y4806442D01*
X6389573Y4806442D01*
X6374841Y4804613D01*
X6360464Y4801006D01*
X6346647Y4795672D01*
X6333540Y4788662D01*
X6317488Y4777384D01*
X6313830Y4776724D01*
X6188049Y4776724D01*
X6184392Y4777384D01*
X6168339Y4788662D01*
X6155232Y4795672D01*
X6141415Y4801006D01*
X6127038Y4804613D01*
X6112306Y4806442D01*
X6097473Y4806442D01*
X6082741Y4804613D01*
X6068364Y4801006D01*
X6054547Y4795672D01*
X6041440Y4788662D01*
X6025388Y4777384D01*
X6021730Y4776724D01*
X5895949Y4776724D01*
X5892292Y4777384D01*
X5876239Y4788662D01*
X5863132Y4795672D01*
X5849315Y4801006D01*
X5834938Y4804613D01*
X5820206Y4806442D01*
X5805373Y4806442D01*
X5790641Y4804613D01*
X5776264Y4801006D01*
X5762447Y4795672D01*
X5749340Y4788662D01*
X5733389Y4777486D01*
X5729732Y4776825D01*
X5722112Y4776825D01*
X5712409Y4776317D01*
X5700268Y4774184D01*
X5688482Y4770424D01*
X5685942Y4769358D01*
X5677357Y4765090D01*
X5674969Y4763719D01*
X5664860Y4756607D01*
X5657697Y4750104D01*
X5543753Y4636160D01*
X5537250Y4628997D01*
X5535523Y4626813D01*
X5530138Y4618888D01*
X5528767Y4616500D01*
X5524500Y4607915D01*
X5523433Y4605375D01*
X5519674Y4593590D01*
X5517540Y4581448D01*
X5517032Y4571746D01*
X5517032Y4178554D01*
X5517540Y4168851D01*
X5519674Y4156710D01*
X5523433Y4144924D01*
X5524500Y4142384D01*
X5528767Y4133799D01*
X5530138Y4131411D01*
X5535523Y4123486D01*
X5537250Y4121302D01*
X5543753Y4114139D01*
X6140297Y3517595D01*
X6147460Y3511092D01*
X6157569Y3503980D01*
X6159957Y3502609D01*
X6168542Y3498342D01*
X6171082Y3497275D01*
X6182868Y3493515D01*
X6195009Y3491382D01*
X6204712Y3490874D01*
X6411315Y3490874D01*
X6414973Y3490214D01*
X6418122Y3488283D01*
X6420408Y3485286D01*
X6421424Y3481730D01*
X6421831Y3477666D01*
X6423558Y3471926D01*
X6426352Y3466693D01*
X6430162Y3462070D01*
X6434785Y3458260D01*
X6440017Y3455466D01*
X6445758Y3453739D01*
G37*
G36*
X3989628Y3462629D02*
G01*
X4003751Y3462629D01*
X4017822Y3464458D01*
X4031487Y3468014D01*
X4044645Y3473348D01*
X4056989Y3480308D01*
X4068318Y3488740D01*
X4078478Y3498596D01*
X4087317Y3509670D01*
X4094632Y3521811D01*
X4100372Y3534714D01*
X4104386Y3548329D01*
X4106672Y3562299D01*
X4107129Y3576421D01*
X4105757Y3590544D01*
X4102608Y3604310D01*
X4097731Y3617620D01*
X4091178Y3630168D01*
X4083050Y3641801D01*
X4073550Y3652265D01*
X4062780Y3661460D01*
X4050893Y3669182D01*
X4038142Y3675278D01*
X4024731Y3679748D01*
X4010812Y3682492D01*
X3996690Y3683355D01*
X3982567Y3682492D01*
X3968648Y3679748D01*
X3955237Y3675278D01*
X3942486Y3669182D01*
X3930599Y3661460D01*
X3919829Y3652265D01*
X3910329Y3641801D01*
X3902201Y3630168D01*
X3895648Y3617620D01*
X3890772Y3604310D01*
X3887622Y3590544D01*
X3886250Y3576421D01*
X3886708Y3562299D01*
X3888994Y3548329D01*
X3893007Y3534714D01*
X3898747Y3521811D01*
X3906062Y3509670D01*
X3914901Y3498596D01*
X3925062Y3488740D01*
X3936441Y3480308D01*
X3948734Y3473348D01*
X3961892Y3468014D01*
X3975557Y3464458D01*
G37*
G36*
X5889498Y3474618D02*
G01*
X5942888Y3474618D01*
X5942888Y3527856D01*
X5934964Y3524046D01*
X5923280Y3516426D01*
X5912612Y3507384D01*
X5903214Y3497021D01*
X5895187Y3485540D01*
G37*
G36*
X6034328Y3474618D02*
G01*
X6087668Y3474618D01*
X6081979Y3485540D01*
X6074003Y3497021D01*
X6064554Y3507384D01*
X6053937Y3516426D01*
X6042202Y3524046D01*
X6034328Y3527856D01*
G37*
G36*
X4297019Y3485540D02*
G01*
X4304893Y3489350D01*
X4316780Y3497072D01*
X4327550Y3506215D01*
X4337050Y3516731D01*
X4345178Y3528314D01*
X4350867Y3539236D01*
X4297019Y3539236D01*
G37*
G36*
X4204360Y3485540D02*
G01*
X4204360Y3539236D01*
X4150512Y3539236D01*
X4156201Y3528314D01*
X4164329Y3516731D01*
X4173829Y3506215D01*
X4184599Y3497072D01*
X4196486Y3489350D01*
G37*
G36*
X5410911Y3628288D02*
G01*
X5460288Y3628288D01*
X5474360Y3629202D01*
X5487924Y3631895D01*
X5500979Y3636365D01*
X5513324Y3642461D01*
X5524804Y3650132D01*
X5535168Y3659225D01*
X5544261Y3669588D01*
X5551932Y3681069D01*
X5558078Y3693414D01*
X5562498Y3706520D01*
X5565190Y3720033D01*
X5566105Y3733800D01*
X5565190Y3747566D01*
X5562498Y3761079D01*
X5558078Y3774186D01*
X5551932Y3786530D01*
X5544261Y3798011D01*
X5535168Y3808374D01*
X5524804Y3817467D01*
X5513324Y3825138D01*
X5500979Y3831234D01*
X5487924Y3835704D01*
X5474360Y3838397D01*
X5460288Y3839311D01*
X5410911Y3839311D01*
X5396839Y3838397D01*
X5383276Y3835704D01*
X5370220Y3831234D01*
X5357876Y3825138D01*
X5346395Y3817467D01*
X5336032Y3808374D01*
X5326938Y3798011D01*
X5319268Y3786530D01*
X5313121Y3774186D01*
X5308701Y3761079D01*
X5306009Y3747566D01*
X5305094Y3733800D01*
X5306009Y3720033D01*
X5308701Y3706520D01*
X5313121Y3693414D01*
X5319268Y3681069D01*
X5326938Y3669588D01*
X5336032Y3659225D01*
X5346395Y3650132D01*
X5357876Y3642461D01*
X5370220Y3636365D01*
X5383276Y3631895D01*
X5396839Y3629202D01*
G37*
G36*
X4574082Y3628288D02*
G01*
X4773117Y3628288D01*
X4779518Y3628948D01*
X4785258Y3630676D01*
X4790541Y3633470D01*
X4795113Y3637279D01*
X4798923Y3641902D01*
X4801717Y3647135D01*
X4803495Y3652875D01*
X4804105Y3659276D01*
X4804105Y3808323D01*
X4803495Y3814724D01*
X4801717Y3820464D01*
X4798923Y3825697D01*
X4795113Y3830320D01*
X4790541Y3834129D01*
X4785258Y3836924D01*
X4779518Y3838651D01*
X4773117Y3839311D01*
X4574082Y3839311D01*
X4567682Y3838651D01*
X4561941Y3836924D01*
X4556658Y3834129D01*
X4552086Y3830320D01*
X4548276Y3825697D01*
X4545482Y3820464D01*
X4543704Y3814724D01*
X4543094Y3808323D01*
X4543094Y3659276D01*
X4543704Y3652875D01*
X4545482Y3647135D01*
X4548276Y3641902D01*
X4552086Y3637279D01*
X4556658Y3633470D01*
X4561941Y3630676D01*
X4567682Y3628948D01*
G37*
G36*
X4297019Y3631946D02*
G01*
X4350766Y3631946D01*
X4348632Y3636721D01*
X4341317Y3648811D01*
X4332478Y3659886D01*
X4322318Y3669741D01*
X4310989Y3678174D01*
X4298645Y3685133D01*
X4297019Y3685794D01*
G37*
G36*
X4150614Y3631946D02*
G01*
X4204360Y3631946D01*
X4204360Y3685794D01*
X4202734Y3685133D01*
X4190441Y3678174D01*
X4179062Y3669741D01*
X4168901Y3659886D01*
X4160062Y3648811D01*
X4152747Y3636721D01*
G37*
G36*
X1875231Y4017467D02*
G01*
X1875231Y4075023D01*
X1817827Y4075023D01*
X1822246Y4066133D01*
X1830425Y4053789D01*
X1840077Y4042511D01*
X1851050Y4032504D01*
X1863140Y4023969D01*
G37*
G36*
X1977948Y4017467D02*
G01*
X1990039Y4023969D01*
X2002129Y4032504D01*
X2013102Y4042511D01*
X2022754Y4053789D01*
X2030933Y4066133D01*
X2035352Y4075023D01*
X1977948Y4075023D01*
G37*
G36*
X4840732Y4040022D02*
G01*
X4840732Y4093870D01*
X4787036Y4093870D01*
X4790846Y4085996D01*
X4798568Y4074109D01*
X4807712Y4063339D01*
X4818227Y4053840D01*
X4829810Y4045712D01*
G37*
G36*
X4933442Y4040124D02*
G01*
X4938217Y4042257D01*
X4950307Y4049572D01*
X4961382Y4058412D01*
X4971237Y4068572D01*
X4979720Y4079951D01*
X4986629Y4092244D01*
X4987290Y4093870D01*
X4933442Y4093870D01*
G37*
G36*
X2912719Y4107535D02*
G01*
X2976880Y4107535D01*
X2976880Y4150715D01*
X2976270Y4157116D01*
X2974543Y4162856D01*
X2971698Y4168140D01*
X2967939Y4172712D01*
X2963316Y4176522D01*
X2958033Y4179315D01*
X2952343Y4181094D01*
X2945892Y4181703D01*
X2912719Y4181703D01*
G37*
G36*
X2755900Y4107535D02*
G01*
X2820060Y4107535D01*
X2820060Y4181703D01*
X2786888Y4181703D01*
X2780436Y4181094D01*
X2774746Y4179315D01*
X2769463Y4176522D01*
X2764840Y4172712D01*
X2761081Y4168140D01*
X2758236Y4162856D01*
X2756509Y4157116D01*
X2755900Y4150715D01*
G37*
G36*
X1817725Y4177741D02*
G01*
X1875231Y4177741D01*
X1875231Y4235145D01*
X1869592Y4232554D01*
X1856993Y4224731D01*
X1845411Y4215434D01*
X1835099Y4204766D01*
X1826158Y4192930D01*
X1818741Y4180078D01*
G37*
G36*
X1977948Y4177741D02*
G01*
X2035454Y4177741D01*
X2034438Y4180078D01*
X2027021Y4192930D01*
X2018080Y4204766D01*
X2007768Y4215434D01*
X1996186Y4224731D01*
X1983587Y4232554D01*
X1977948Y4235145D01*
G37*
G36*
X4787036Y4186529D02*
G01*
X4840732Y4186529D01*
X4840732Y4240377D01*
X4829810Y4234688D01*
X4818227Y4226560D01*
X4807712Y4217060D01*
X4798568Y4206290D01*
X4790846Y4194403D01*
G37*
G36*
X4933442Y4186529D02*
G01*
X4987290Y4186529D01*
X4986629Y4188155D01*
X4979720Y4200448D01*
X4971237Y4211828D01*
X4961382Y4221988D01*
X4950307Y4230827D01*
X4938217Y4238142D01*
X4933442Y4240276D01*
G37*
G36*
X984758Y4221327D02*
G01*
X1141222Y4221327D01*
X1147673Y4221988D01*
X1153363Y4223715D01*
X1158646Y4226560D01*
X1163269Y4230319D01*
X1167079Y4234942D01*
X1169873Y4240225D01*
X1171600Y4245914D01*
X1172260Y4252366D01*
X1172260Y4408830D01*
X1171600Y4415282D01*
X1169873Y4420971D01*
X1167079Y4426254D01*
X1163269Y4430877D01*
X1158646Y4434636D01*
X1153363Y4437481D01*
X1147673Y4439208D01*
X1141222Y4439818D01*
X984758Y4439818D01*
X978306Y4439208D01*
X972616Y4437481D01*
X967333Y4434636D01*
X962710Y4430877D01*
X958951Y4426254D01*
X956106Y4420971D01*
X954379Y4415282D01*
X953769Y4408830D01*
X953769Y4252366D01*
X954379Y4245914D01*
X956106Y4240225D01*
X958951Y4234942D01*
X962710Y4230319D01*
X967333Y4226560D01*
X972616Y4223715D01*
X978306Y4221988D01*
G37*
G36*
X6156248Y4323435D02*
G01*
X6161887Y4326026D01*
X6174486Y4333849D01*
X6186068Y4343146D01*
X6196380Y4353814D01*
X6205321Y4365650D01*
X6212738Y4378502D01*
X6213754Y4380839D01*
X6156248Y4380839D01*
G37*
G36*
X5864148Y4323435D02*
G01*
X5869787Y4326026D01*
X5882386Y4333849D01*
X5893968Y4343146D01*
X5904280Y4353814D01*
X5913221Y4365650D01*
X5920638Y4378502D01*
X5921654Y4380839D01*
X5864148Y4380839D01*
G37*
G36*
X6448348Y4323435D02*
G01*
X6453987Y4326026D01*
X6466586Y4333849D01*
X6478168Y4343146D01*
X6488480Y4353814D01*
X6497421Y4365650D01*
X6504838Y4378502D01*
X6505854Y4380839D01*
X6448348Y4380839D01*
G37*
G36*
X6345631Y4323435D02*
G01*
X6345631Y4380839D01*
X6288125Y4380839D01*
X6289141Y4378502D01*
X6296558Y4365650D01*
X6305499Y4353814D01*
X6315811Y4343146D01*
X6327394Y4333849D01*
X6339992Y4326026D01*
G37*
G36*
X6053531Y4323435D02*
G01*
X6053531Y4380839D01*
X5996025Y4380839D01*
X5997041Y4378502D01*
X6004458Y4365650D01*
X6013399Y4353814D01*
X6023711Y4343146D01*
X6035294Y4333849D01*
X6047892Y4326026D01*
G37*
G36*
X1561134Y4347159D02*
G01*
X1575308Y4347616D01*
X1589278Y4349902D01*
X1602841Y4353915D01*
X1615795Y4359656D01*
X1627886Y4366971D01*
X1638960Y4375810D01*
X1648815Y4385970D01*
X1654048Y4393031D01*
X1656283Y4395216D01*
X1659128Y4396587D01*
X1662226Y4397095D01*
X1993493Y4397095D01*
X2001469Y4397603D01*
X2003552Y4397908D01*
X2013254Y4400296D01*
X2020570Y4403344D01*
X2029104Y4408474D01*
X2036825Y4415028D01*
X2739898Y5118100D01*
X2743200Y5120335D01*
X2747060Y5121097D01*
X2812288Y5121097D01*
X2816504Y5120182D01*
X2819958Y5117642D01*
X2822041Y5113883D01*
X2822397Y5109565D01*
X2820924Y5105552D01*
X2817926Y5102453D01*
X2813964Y5099862D01*
X2802686Y5090210D01*
X2792730Y5079238D01*
X2784144Y5067147D01*
X2777134Y5054041D01*
X2771749Y5040223D01*
X2768142Y5025847D01*
X2766314Y5011115D01*
X2766314Y4996281D01*
X2768142Y4981549D01*
X2771749Y4967173D01*
X2777134Y4953355D01*
X2784144Y4940249D01*
X2792730Y4928158D01*
X2802686Y4917186D01*
X2813964Y4907534D01*
X2826359Y4899355D01*
X2839618Y4892751D01*
X2853588Y4887823D01*
X2868117Y4884623D01*
X2882849Y4883251D01*
X2897682Y4883708D01*
X2912364Y4885994D01*
X2926638Y4890058D01*
X2940304Y4895850D01*
X2953156Y4903266D01*
X2964992Y4912207D01*
X2975610Y4922520D01*
X2984906Y4934102D01*
X2992729Y4946700D01*
X2998927Y4960162D01*
X3003448Y4974285D01*
X3006140Y4988915D01*
X3007055Y5003698D01*
X3006140Y5018481D01*
X3003448Y5033111D01*
X2998927Y5047234D01*
X2992729Y5060696D01*
X2984906Y5073294D01*
X2975610Y5084876D01*
X2964992Y5095189D01*
X2953156Y5104130D01*
X2940304Y5111546D01*
X2932734Y5114747D01*
X2929229Y5117185D01*
X2927096Y5120792D01*
X2926588Y5125008D01*
X2927807Y5129072D01*
X2930601Y5132273D01*
X2932582Y5133746D01*
X2938627Y5139029D01*
X3039770Y5240172D01*
X3046323Y5247894D01*
X3051454Y5256428D01*
X3054502Y5263743D01*
X3056890Y5273446D01*
X3057194Y5275529D01*
X3057702Y5283504D01*
X3057702Y5293817D01*
X3058210Y5296966D01*
X3059633Y5299811D01*
X3061868Y5302046D01*
X3070809Y5308498D01*
X3081375Y5318455D01*
X3090621Y5329631D01*
X3098393Y5341874D01*
X3104591Y5354980D01*
X3109061Y5368798D01*
X3111754Y5383022D01*
X3112668Y5397500D01*
X3111754Y5411978D01*
X3109061Y5426202D01*
X3104591Y5440019D01*
X3098393Y5453126D01*
X3090621Y5465368D01*
X3081375Y5476544D01*
X3070809Y5486501D01*
X3059074Y5494985D01*
X3046374Y5501995D01*
X3032861Y5507329D01*
X3018840Y5510936D01*
X3004464Y5512765D01*
X2989935Y5512765D01*
X2975559Y5510936D01*
X2961487Y5507329D01*
X2948025Y5501995D01*
X2935325Y5494985D01*
X2923590Y5486501D01*
X2913024Y5476544D01*
X2903778Y5465368D01*
X2896006Y5453126D01*
X2889808Y5440019D01*
X2885338Y5426202D01*
X2882646Y5411978D01*
X2881731Y5397500D01*
X2882646Y5383022D01*
X2885338Y5368798D01*
X2889808Y5354980D01*
X2896006Y5341874D01*
X2903778Y5329631D01*
X2913024Y5318455D01*
X2922828Y5309209D01*
X2925165Y5305907D01*
X2926029Y5301996D01*
X2925318Y5297982D01*
X2923082Y5294630D01*
X2873502Y5245100D01*
X2870200Y5242864D01*
X2866339Y5242102D01*
X2718104Y5242102D01*
X2710129Y5241594D01*
X2708046Y5241290D01*
X2698343Y5238902D01*
X2691028Y5235854D01*
X2682494Y5230723D01*
X2674772Y5224170D01*
X1971700Y4521098D01*
X1968398Y4518863D01*
X1964537Y4518101D01*
X1662175Y4518101D01*
X1659128Y4518609D01*
X1656283Y4519980D01*
X1654048Y4522165D01*
X1648815Y4529226D01*
X1638960Y4539386D01*
X1627886Y4548225D01*
X1615795Y4555540D01*
X1602841Y4561281D01*
X1589278Y4565294D01*
X1575308Y4567580D01*
X1561134Y4568037D01*
X1547063Y4566666D01*
X1533245Y4563516D01*
X1519986Y4558639D01*
X1507388Y4552086D01*
X1495806Y4543958D01*
X1485341Y4534458D01*
X1476146Y4523689D01*
X1468424Y4511802D01*
X1462278Y4499051D01*
X1457807Y4485640D01*
X1455115Y4471720D01*
X1454200Y4457598D01*
X1455115Y4443476D01*
X1457807Y4429556D01*
X1462278Y4416145D01*
X1468424Y4403394D01*
X1476146Y4391507D01*
X1485341Y4380738D01*
X1495806Y4371238D01*
X1507388Y4363110D01*
X1519986Y4356557D01*
X1533245Y4351680D01*
X1547063Y4348530D01*
G37*
G36*
X746048Y4349800D02*
G01*
X784199Y4349800D01*
X790651Y4350461D01*
X796340Y4352188D01*
X801624Y4354982D01*
X806246Y4358792D01*
X810006Y4363415D01*
X812850Y4368647D01*
X814578Y4374388D01*
X815187Y4380788D01*
X815187Y4418939D01*
X746048Y4418939D01*
G37*
G36*
X605180Y4349800D02*
G01*
X643331Y4349800D01*
X643331Y4418939D01*
X574192Y4418939D01*
X574192Y4380788D01*
X574802Y4374388D01*
X576580Y4368647D01*
X579374Y4363415D01*
X583133Y4358792D01*
X587756Y4354982D01*
X593039Y4352188D01*
X598728Y4350461D01*
G37*
G36*
X2568346Y4357420D02*
G01*
X2568346Y4411268D01*
X2514650Y4411268D01*
X2518410Y4403394D01*
X2526131Y4391507D01*
X2535326Y4380738D01*
X2545791Y4371238D01*
X2557424Y4363110D01*
G37*
G36*
X2661056Y4357522D02*
G01*
X2665780Y4359656D01*
X2677871Y4366971D01*
X2688945Y4375810D01*
X2698800Y4385970D01*
X2707284Y4397349D01*
X2714244Y4409643D01*
X2714853Y4411268D01*
X2661056Y4411268D01*
G37*
G36*
X4863592Y4400753D02*
G01*
X4878425Y4401210D01*
X4893106Y4403496D01*
X4907330Y4407560D01*
X4920996Y4413351D01*
X4933848Y4420768D01*
X4945684Y4429709D01*
X4956352Y4440021D01*
X4965649Y4451604D01*
X4973472Y4464202D01*
X4979670Y4477664D01*
X4984140Y4491786D01*
X4986883Y4506417D01*
X4987798Y4521200D01*
X4986883Y4535982D01*
X4984140Y4550613D01*
X4979670Y4564735D01*
X4973472Y4578197D01*
X4965649Y4590796D01*
X4956352Y4602378D01*
X4945684Y4612690D01*
X4933848Y4621631D01*
X4920996Y4629048D01*
X4907330Y4634839D01*
X4893106Y4638903D01*
X4878425Y4641189D01*
X4863592Y4641646D01*
X4848809Y4640275D01*
X4834331Y4637074D01*
X4820361Y4632147D01*
X4807051Y4625543D01*
X4794707Y4617364D01*
X4783429Y4607712D01*
X4773422Y4596739D01*
X4764887Y4584649D01*
X4757826Y4571542D01*
X4752492Y4557725D01*
X4748885Y4543348D01*
X4747056Y4528616D01*
X4747056Y4513783D01*
X4748885Y4499051D01*
X4752492Y4484674D01*
X4757826Y4470857D01*
X4764887Y4457750D01*
X4773422Y4445660D01*
X4783429Y4434687D01*
X4794707Y4425035D01*
X4807051Y4416856D01*
X4820361Y4410252D01*
X4834331Y4405325D01*
X4848809Y4402124D01*
G37*
G36*
X5127091Y4403293D02*
G01*
X5326075Y4403293D01*
X5332526Y4403902D01*
X5338216Y4405680D01*
X5343499Y4408474D01*
X5348122Y4412284D01*
X5351932Y4416856D01*
X5354726Y4422140D01*
X5356453Y4427880D01*
X5357114Y4434281D01*
X5357114Y4633315D01*
X5356453Y4639716D01*
X5354726Y4645456D01*
X5351932Y4650740D01*
X5348122Y4655312D01*
X5343499Y4659122D01*
X5338216Y4661916D01*
X5332526Y4663694D01*
X5326075Y4664303D01*
X5309666Y4664303D01*
X5305501Y4665218D01*
X5302046Y4667758D01*
X5299964Y4671517D01*
X5299608Y4675784D01*
X5301030Y4679797D01*
X5303977Y4682896D01*
X5305755Y4684064D01*
X5317490Y4694174D01*
X5327904Y4705604D01*
X5336946Y4718151D01*
X5344414Y4731664D01*
X5350205Y4745990D01*
X5354269Y4760925D01*
X5356555Y4776216D01*
X5357012Y4791659D01*
X5355640Y4807051D01*
X5352440Y4822190D01*
X5347512Y4836820D01*
X5340858Y4850790D01*
X5332628Y4863846D01*
X5322874Y4875885D01*
X5311749Y4886655D01*
X5299506Y4896002D01*
X5286146Y4903876D01*
X5272024Y4910124D01*
X5257241Y4914646D01*
X5242001Y4917389D01*
X5226608Y4918303D01*
X5211165Y4917389D01*
X5195925Y4914646D01*
X5181142Y4910124D01*
X5167020Y4903876D01*
X5153710Y4896002D01*
X5141417Y4886655D01*
X5130292Y4875885D01*
X5120589Y4863846D01*
X5112308Y4850790D01*
X5105654Y4836820D01*
X5100726Y4822190D01*
X5097526Y4807051D01*
X5096154Y4791659D01*
X5096611Y4776216D01*
X5098897Y4760925D01*
X5102961Y4745990D01*
X5108803Y4731664D01*
X5116271Y4718151D01*
X5125262Y4705604D01*
X5135676Y4694174D01*
X5147411Y4684064D01*
X5149189Y4682896D01*
X5152136Y4679797D01*
X5153558Y4675784D01*
X5153202Y4671517D01*
X5151120Y4667758D01*
X5147665Y4665218D01*
X5143500Y4664303D01*
X5127091Y4664303D01*
X5120640Y4663694D01*
X5114950Y4661916D01*
X5109667Y4659122D01*
X5105044Y4655312D01*
X5101285Y4650740D01*
X5098440Y4645456D01*
X5096713Y4639716D01*
X5096103Y4633315D01*
X5096103Y4434281D01*
X5096713Y4427880D01*
X5098440Y4422140D01*
X5101285Y4416856D01*
X5105044Y4412284D01*
X5109667Y4408474D01*
X5114950Y4405680D01*
X5120640Y4403902D01*
G37*
G36*
X1055979Y4475581D02*
G01*
X1070000Y4475581D01*
X1083868Y4477410D01*
X1097432Y4480915D01*
X1110386Y4486198D01*
X1122578Y4493056D01*
X1133805Y4501438D01*
X1143863Y4511141D01*
X1152550Y4522114D01*
X1159814Y4534052D01*
X1165504Y4546854D01*
X1169466Y4560316D01*
X1171702Y4574133D01*
X1172159Y4588103D01*
X1170838Y4602022D01*
X1167688Y4615688D01*
X1162862Y4628794D01*
X1156411Y4641240D01*
X1148384Y4652721D01*
X1138986Y4663084D01*
X1128318Y4672126D01*
X1116584Y4679746D01*
X1103985Y4685842D01*
X1090676Y4690262D01*
X1076960Y4692904D01*
X1062990Y4693818D01*
X1049020Y4692904D01*
X1035303Y4690262D01*
X1021994Y4685842D01*
X1009396Y4679746D01*
X997661Y4672126D01*
X986993Y4663084D01*
X981202Y4656632D01*
X977900Y4654245D01*
X973886Y4653330D01*
X969873Y4654042D01*
X966469Y4656277D01*
X833678Y4789068D01*
X826008Y4795621D01*
X817473Y4800752D01*
X810158Y4803800D01*
X800455Y4806188D01*
X791260Y4806950D01*
X788009Y4807661D01*
X785164Y4809439D01*
X773480Y4824882D01*
X763168Y4835550D01*
X751586Y4844846D01*
X738987Y4852619D01*
X725525Y4858867D01*
X711403Y4863338D01*
X696823Y4866081D01*
X681990Y4866995D01*
X667207Y4866081D01*
X652627Y4863338D01*
X638454Y4858867D01*
X624992Y4852619D01*
X612394Y4844846D01*
X600811Y4835550D01*
X590499Y4824882D01*
X581558Y4813046D01*
X574141Y4800193D01*
X568350Y4786528D01*
X564286Y4772253D01*
X562000Y4757623D01*
X561543Y4742789D01*
X562914Y4728006D01*
X566115Y4713528D01*
X571042Y4699508D01*
X577646Y4686249D01*
X585825Y4673904D01*
X595477Y4662627D01*
X606450Y4652619D01*
X618540Y4644034D01*
X631647Y4637024D01*
X645464Y4631690D01*
X659841Y4628083D01*
X674573Y4626254D01*
X689406Y4626254D01*
X704138Y4628083D01*
X718515Y4631690D01*
X732332Y4637024D01*
X745439Y4644034D01*
X757529Y4652619D01*
X768502Y4662627D01*
X770839Y4665319D01*
X774090Y4667859D01*
X778154Y4668875D01*
X782218Y4668164D01*
X785723Y4665929D01*
X909472Y4542129D01*
X917194Y4535576D01*
X925728Y4530445D01*
X933043Y4527397D01*
X942746Y4525010D01*
X944829Y4524705D01*
X952804Y4524197D01*
X966876Y4524197D01*
X969873Y4523740D01*
X972566Y4522419D01*
X974801Y4520387D01*
X982116Y4511141D01*
X992174Y4501438D01*
X1003401Y4493056D01*
X1015593Y4486198D01*
X1028598Y4480915D01*
X1042111Y4477410D01*
G37*
G36*
X5864148Y4483557D02*
G01*
X5921552Y4483557D01*
X5917133Y4492447D01*
X5908954Y4504791D01*
X5899302Y4516069D01*
X5888329Y4526076D01*
X5876239Y4534662D01*
X5864148Y4541113D01*
G37*
G36*
X6156248Y4483557D02*
G01*
X6213652Y4483557D01*
X6209233Y4492447D01*
X6201054Y4504791D01*
X6191402Y4516069D01*
X6180429Y4526076D01*
X6168339Y4534662D01*
X6156248Y4541113D01*
G37*
G36*
X6448348Y4483557D02*
G01*
X6505752Y4483557D01*
X6501333Y4492447D01*
X6493154Y4504791D01*
X6483502Y4516069D01*
X6472529Y4526076D01*
X6460439Y4534662D01*
X6448348Y4541113D01*
G37*
G36*
X6288227Y4483557D02*
G01*
X6345631Y4483557D01*
X6345631Y4541113D01*
X6333540Y4534662D01*
X6321450Y4526076D01*
X6310477Y4516069D01*
X6300825Y4504791D01*
X6292646Y4492447D01*
G37*
G36*
X5996127Y4483557D02*
G01*
X6053531Y4483557D01*
X6053531Y4541113D01*
X6041440Y4534662D01*
X6029350Y4526076D01*
X6018377Y4516069D01*
X6008725Y4504791D01*
X6000546Y4492447D01*
G37*
G36*
X2514650Y4503928D02*
G01*
X2568346Y4503928D01*
X2568346Y4557776D01*
X2557424Y4552086D01*
X2545791Y4543958D01*
X2535326Y4534458D01*
X2526131Y4523689D01*
X2518410Y4511802D01*
G37*
G36*
X2661056Y4503928D02*
G01*
X2714853Y4503928D01*
X2714244Y4505553D01*
X2707284Y4517847D01*
X2698800Y4529226D01*
X2688945Y4539386D01*
X2677871Y4548225D01*
X2665780Y4555540D01*
X2661056Y4557674D01*
G37*
G36*
X746048Y4521657D02*
G01*
X815187Y4521657D01*
X815187Y4559808D01*
X814578Y4566259D01*
X812850Y4571949D01*
X810006Y4577232D01*
X806246Y4581855D01*
X801624Y4585614D01*
X796340Y4588459D01*
X790651Y4590186D01*
X784199Y4590796D01*
X746048Y4590796D01*
G37*
G36*
X574192Y4521657D02*
G01*
X643331Y4521657D01*
X643331Y4590796D01*
X605180Y4590796D01*
X598728Y4590186D01*
X593039Y4588459D01*
X587756Y4585614D01*
X583133Y4581855D01*
X579374Y4577232D01*
X576580Y4571949D01*
X574802Y4566259D01*
X574192Y4559808D01*
G37*
G36*
X1568246Y4601159D02*
G01*
X1582318Y4602530D01*
X1596136Y4605680D01*
X1609394Y4610557D01*
X1621942Y4617110D01*
X1633575Y4625238D01*
X1644040Y4634738D01*
X1653235Y4645507D01*
X1660956Y4657394D01*
X1667103Y4670145D01*
X1671574Y4683556D01*
X1674266Y4697476D01*
X1675180Y4711598D01*
X1674266Y4725720D01*
X1671574Y4739640D01*
X1667103Y4753051D01*
X1660956Y4765802D01*
X1653235Y4777689D01*
X1644040Y4788458D01*
X1633575Y4797958D01*
X1621942Y4806086D01*
X1609394Y4812639D01*
X1596136Y4817516D01*
X1582318Y4820666D01*
X1568246Y4822037D01*
X1554073Y4821580D01*
X1540103Y4819294D01*
X1526540Y4815281D01*
X1513586Y4809540D01*
X1501495Y4802225D01*
X1490421Y4793386D01*
X1480566Y4783226D01*
X1472082Y4771847D01*
X1465122Y4759553D01*
X1459839Y4746396D01*
X1456232Y4732731D01*
X1454404Y4718659D01*
X1454404Y4704537D01*
X1456232Y4690465D01*
X1459839Y4676800D01*
X1465122Y4663643D01*
X1472082Y4651349D01*
X1480566Y4639970D01*
X1490421Y4629810D01*
X1501495Y4620971D01*
X1513586Y4613656D01*
X1526540Y4607915D01*
X1540103Y4603902D01*
X1554073Y4601616D01*
G37*
G36*
X2661056Y4611420D02*
G01*
X2671978Y4617110D01*
X2683560Y4625238D01*
X2694076Y4634738D01*
X2703220Y4645507D01*
X2710942Y4657394D01*
X2714752Y4665268D01*
X2661056Y4665268D01*
G37*
G36*
X2568346Y4611522D02*
G01*
X2568346Y4665268D01*
X2514498Y4665268D01*
X2515158Y4663643D01*
X2522067Y4651349D01*
X2530551Y4639970D01*
X2540406Y4629810D01*
X2551480Y4620971D01*
X2563571Y4613656D01*
G37*
G36*
X1017269Y4739538D02*
G01*
X1017269Y4792878D01*
X964031Y4792878D01*
X966165Y4788052D01*
X973429Y4776114D01*
X982116Y4765141D01*
X992174Y4755438D01*
X1003401Y4747056D01*
X1015593Y4740198D01*
G37*
G36*
X1108710Y4739538D02*
G01*
X1110386Y4740198D01*
X1122578Y4747056D01*
X1133805Y4755438D01*
X1143863Y4765141D01*
X1152550Y4776114D01*
X1159814Y4788052D01*
X1161948Y4792878D01*
X1108710Y4792878D01*
G37*
G36*
X2661056Y4757928D02*
G01*
X2714752Y4757928D01*
X2710942Y4765802D01*
X2703220Y4777689D01*
X2694076Y4788458D01*
X2683560Y4797958D01*
X2671978Y4806086D01*
X2661056Y4811776D01*
G37*
G36*
X2514498Y4757928D02*
G01*
X2568346Y4757928D01*
X2568346Y4811674D01*
X2563571Y4809540D01*
X2551480Y4802225D01*
X2540406Y4793386D01*
X2530551Y4783226D01*
X2522067Y4771847D01*
X2515158Y4759553D01*
G37*
G36*
X6307480Y4830927D02*
G01*
X6486499Y4830927D01*
X6492951Y4831588D01*
X6498640Y4833315D01*
X6503924Y4836160D01*
X6508546Y4839919D01*
X6512306Y4844542D01*
X6515150Y4849825D01*
X6516878Y4855514D01*
X6517487Y4861966D01*
X6517487Y5018430D01*
X6516878Y5024882D01*
X6515150Y5030571D01*
X6512306Y5035854D01*
X6508546Y5040477D01*
X6503924Y5044236D01*
X6498640Y5047081D01*
X6492951Y5048808D01*
X6486499Y5049418D01*
X6307480Y5049418D01*
X6301028Y5048808D01*
X6295339Y5047081D01*
X6290056Y5044236D01*
X6285433Y5040477D01*
X6281674Y5035854D01*
X6278880Y5030571D01*
X6277102Y5024882D01*
X6276492Y5018430D01*
X6276492Y4861966D01*
X6277102Y4855514D01*
X6278880Y4849825D01*
X6281674Y4844542D01*
X6285433Y4839919D01*
X6290056Y4836160D01*
X6295339Y4833315D01*
X6301028Y4831588D01*
G37*
G36*
X1108710Y4884318D02*
G01*
X1162100Y4884318D01*
X1156411Y4895240D01*
X1148384Y4906721D01*
X1138986Y4917084D01*
X1128318Y4926126D01*
X1116584Y4933746D01*
X1108710Y4937556D01*
G37*
G36*
X963879Y4884318D02*
G01*
X1017269Y4884318D01*
X1017269Y4937556D01*
X1009396Y4933746D01*
X997661Y4926126D01*
X986993Y4917084D01*
X977595Y4906721D01*
X969568Y4895240D01*
G37*
G36*
X3807917Y4894834D02*
G01*
X3810304Y4895850D01*
X3823157Y4903266D01*
X3834993Y4912207D01*
X3845610Y4922520D01*
X3854907Y4934102D01*
X3862730Y4946700D01*
X3865321Y4952339D01*
X3807917Y4952339D01*
G37*
G36*
X3705250Y4894935D02*
G01*
X3705250Y4952339D01*
X3647643Y4952339D01*
X3654145Y4940249D01*
X3662730Y4928158D01*
X3672738Y4917186D01*
X3683965Y4907534D01*
X3696360Y4899355D01*
G37*
G36*
X3952849Y4907534D02*
G01*
X3952849Y4965039D01*
X3895445Y4965039D01*
X3898036Y4959400D01*
X3905859Y4946802D01*
X3915156Y4935220D01*
X3925773Y4924907D01*
X3937609Y4915966D01*
X3950462Y4908550D01*
G37*
G36*
X4055516Y4907635D02*
G01*
X4064406Y4912055D01*
X4076801Y4920234D01*
X4088079Y4929886D01*
X4098036Y4940858D01*
X4106621Y4952949D01*
X4113123Y4965039D01*
X4055516Y4965039D01*
G37*
G36*
X2078989Y4922418D02*
G01*
X2092909Y4923332D01*
X2106625Y4926025D01*
X2119833Y4930546D01*
X2132330Y4936693D01*
X2143963Y4944465D01*
X2154428Y4953660D01*
X2163622Y4964176D01*
X2171395Y4975758D01*
X2177542Y4988255D01*
X2182063Y5001463D01*
X2184755Y5015179D01*
X2185670Y5029098D01*
X2184755Y5043017D01*
X2182063Y5056733D01*
X2177542Y5069941D01*
X2171395Y5082438D01*
X2163622Y5094020D01*
X2154428Y5104536D01*
X2143963Y5113731D01*
X2132330Y5121503D01*
X2119833Y5127650D01*
X2106625Y5132171D01*
X2092909Y5134864D01*
X2078989Y5135778D01*
X2065070Y5134864D01*
X2051405Y5132171D01*
X2038146Y5127650D01*
X2025650Y5121503D01*
X2014067Y5113731D01*
X2003552Y5104536D01*
X1994357Y5094020D01*
X1986584Y5082438D01*
X1980438Y5069941D01*
X1975967Y5056733D01*
X1973224Y5043017D01*
X1972310Y5029098D01*
X1973224Y5015179D01*
X1975967Y5001463D01*
X1980438Y4988255D01*
X1986584Y4975758D01*
X1994357Y4964176D01*
X2003552Y4953660D01*
X2014067Y4944465D01*
X2025650Y4936693D01*
X2038146Y4930546D01*
X2051405Y4926025D01*
X2065070Y4923332D01*
G37*
G36*
X1824989Y4922418D02*
G01*
X1838909Y4923332D01*
X1852625Y4926025D01*
X1865833Y4930546D01*
X1878330Y4936693D01*
X1889963Y4944465D01*
X1900428Y4953660D01*
X1909622Y4964176D01*
X1917395Y4975758D01*
X1923542Y4988255D01*
X1928063Y5001463D01*
X1930755Y5015179D01*
X1931670Y5029098D01*
X1930755Y5043017D01*
X1928063Y5056733D01*
X1923542Y5069941D01*
X1917395Y5082438D01*
X1909622Y5094020D01*
X1900428Y5104536D01*
X1889963Y5113731D01*
X1878330Y5121503D01*
X1865833Y5127650D01*
X1852625Y5132171D01*
X1838909Y5134864D01*
X1824989Y5135778D01*
X1811070Y5134864D01*
X1797405Y5132171D01*
X1784146Y5127650D01*
X1771650Y5121503D01*
X1760067Y5113731D01*
X1749552Y5104536D01*
X1740357Y5094020D01*
X1732584Y5082438D01*
X1726438Y5069941D01*
X1721967Y5056733D01*
X1719224Y5043017D01*
X1718310Y5029098D01*
X1719224Y5015179D01*
X1721967Y5001463D01*
X1726438Y4988255D01*
X1732584Y4975758D01*
X1740357Y4964176D01*
X1749552Y4953660D01*
X1760067Y4944465D01*
X1771650Y4936693D01*
X1784146Y4930546D01*
X1797405Y4926025D01*
X1811070Y4923332D01*
G37*
G36*
X1055979Y4983581D02*
G01*
X1070000Y4983581D01*
X1083868Y4985410D01*
X1097432Y4988915D01*
X1110386Y4994198D01*
X1122578Y5001056D01*
X1133805Y5009438D01*
X1143863Y5019141D01*
X1152550Y5030114D01*
X1159814Y5042052D01*
X1165504Y5054854D01*
X1169466Y5068316D01*
X1171702Y5082133D01*
X1172159Y5096103D01*
X1170838Y5110022D01*
X1167688Y5123688D01*
X1162862Y5136794D01*
X1156411Y5149240D01*
X1148384Y5160721D01*
X1138986Y5171084D01*
X1128318Y5180126D01*
X1116584Y5187746D01*
X1103985Y5193842D01*
X1090676Y5198262D01*
X1076960Y5200904D01*
X1062990Y5201818D01*
X1049020Y5200904D01*
X1035303Y5198262D01*
X1021994Y5193842D01*
X1009396Y5187746D01*
X997661Y5180126D01*
X986993Y5171084D01*
X977595Y5160721D01*
X969568Y5149240D01*
X963117Y5136794D01*
X958291Y5123688D01*
X955192Y5110022D01*
X953820Y5096103D01*
X954278Y5082133D01*
X956513Y5068316D01*
X960475Y5054854D01*
X966165Y5042052D01*
X973429Y5030114D01*
X982116Y5019141D01*
X992174Y5009438D01*
X1003401Y5001056D01*
X1015593Y4994198D01*
X1028598Y4988915D01*
X1042111Y4985410D01*
G37*
G36*
X3807917Y5055057D02*
G01*
X3865321Y5055057D01*
X3862730Y5060696D01*
X3854907Y5073294D01*
X3845610Y5084876D01*
X3834993Y5095189D01*
X3823157Y5104130D01*
X3810304Y5111546D01*
X3807917Y5112562D01*
G37*
G36*
X3647643Y5055057D02*
G01*
X3705250Y5055057D01*
X3705250Y5112461D01*
X3696360Y5108041D01*
X3683965Y5099862D01*
X3672738Y5090210D01*
X3662730Y5079238D01*
X3654145Y5067147D01*
G37*
G36*
X3895445Y5067757D02*
G01*
X3952849Y5067757D01*
X3952849Y5125262D01*
X3950462Y5124246D01*
X3937609Y5116830D01*
X3925773Y5107889D01*
X3915156Y5097576D01*
X3905859Y5085994D01*
X3898036Y5073396D01*
G37*
G36*
X1363218Y5201818D02*
G01*
X1381201Y5201818D01*
X1402334Y5203952D01*
X1405483Y5204460D01*
X1423060Y5208371D01*
X1426159Y5209235D01*
X1443228Y5214975D01*
X1446174Y5216144D01*
X1465376Y5225186D01*
X1480769Y5234482D01*
X1483461Y5236311D01*
X1497787Y5247182D01*
X1500225Y5249265D01*
X1513281Y5261660D01*
X1515516Y5263997D01*
X1527149Y5277713D01*
X1529080Y5280253D01*
X1539189Y5295138D01*
X1540865Y5297881D01*
X1549298Y5313781D01*
X1557324Y5333441D01*
X1558340Y5336489D01*
X1563166Y5353812D01*
X1566722Y5374741D01*
X1567078Y5377942D01*
X1568043Y5395874D01*
X1568043Y5399125D01*
X1567078Y5417058D01*
X1566722Y5420258D01*
X1563166Y5441188D01*
X1558340Y5458510D01*
X1557324Y5461558D01*
X1549298Y5481218D01*
X1540865Y5497118D01*
X1539189Y5499862D01*
X1529080Y5514746D01*
X1527149Y5517286D01*
X1515516Y5531002D01*
X1513281Y5533339D01*
X1500225Y5545734D01*
X1497787Y5547817D01*
X1483461Y5558688D01*
X1480769Y5560517D01*
X1465376Y5569813D01*
X1446174Y5578856D01*
X1443228Y5580024D01*
X1426159Y5585764D01*
X1423060Y5586628D01*
X1405483Y5590540D01*
X1402334Y5591048D01*
X1381201Y5593181D01*
X1363218Y5593181D01*
X1342136Y5591048D01*
X1338935Y5590540D01*
X1321358Y5586628D01*
X1318260Y5585764D01*
X1301191Y5580024D01*
X1298244Y5578856D01*
X1279042Y5569813D01*
X1263650Y5560517D01*
X1260957Y5558688D01*
X1246632Y5547817D01*
X1244193Y5545734D01*
X1231138Y5533339D01*
X1228902Y5531002D01*
X1217269Y5517286D01*
X1215339Y5514746D01*
X1205230Y5499862D01*
X1203553Y5497118D01*
X1195120Y5481218D01*
X1187094Y5461558D01*
X1186078Y5458510D01*
X1181252Y5441188D01*
X1177696Y5420258D01*
X1177340Y5417058D01*
X1176375Y5399125D01*
X1176375Y5395874D01*
X1177340Y5377942D01*
X1177696Y5374741D01*
X1181252Y5353812D01*
X1186078Y5336489D01*
X1187094Y5333441D01*
X1195120Y5313781D01*
X1203553Y5297881D01*
X1205230Y5295138D01*
X1215339Y5280253D01*
X1217269Y5277713D01*
X1228902Y5263997D01*
X1231138Y5261660D01*
X1244193Y5249265D01*
X1246632Y5247182D01*
X1260957Y5236311D01*
X1263650Y5234482D01*
X1279042Y5225186D01*
X1298244Y5216144D01*
X1301191Y5214975D01*
X1318260Y5209235D01*
X1321358Y5208371D01*
X1338935Y5204460D01*
X1342136Y5203952D01*
G37*
G36*
X1648968Y5281980D02*
G01*
X1805432Y5281980D01*
X1811883Y5282641D01*
X1817573Y5284368D01*
X1822856Y5287162D01*
X1827479Y5290972D01*
X1831238Y5295595D01*
X1834083Y5300827D01*
X1835810Y5306568D01*
X1836420Y5313019D01*
X1836420Y5481980D01*
X1835810Y5488432D01*
X1834083Y5494172D01*
X1831238Y5499404D01*
X1827479Y5504027D01*
X1822856Y5507837D01*
X1817573Y5510631D01*
X1811883Y5512358D01*
X1805432Y5513019D01*
X1648968Y5513019D01*
X1642516Y5512358D01*
X1636826Y5510631D01*
X1631543Y5507837D01*
X1626920Y5504027D01*
X1623110Y5499404D01*
X1620316Y5494172D01*
X1618589Y5488432D01*
X1617929Y5481980D01*
X1617929Y5313019D01*
X1618589Y5306568D01*
X1620316Y5300827D01*
X1623110Y5295595D01*
X1626920Y5290972D01*
X1631543Y5287162D01*
X1636826Y5284368D01*
X1642516Y5282641D01*
G37*
G36*
X2227935Y5282234D02*
G01*
X2242464Y5282234D01*
X2256840Y5284063D01*
X2270861Y5287670D01*
X2284374Y5293004D01*
X2297074Y5300014D01*
X2308809Y5308498D01*
X2319375Y5318455D01*
X2328621Y5329631D01*
X2336393Y5341874D01*
X2342591Y5354980D01*
X2347061Y5368798D01*
X2349754Y5383022D01*
X2350668Y5397500D01*
X2349754Y5411978D01*
X2347061Y5426202D01*
X2342591Y5440019D01*
X2336393Y5453126D01*
X2328621Y5465368D01*
X2319375Y5476544D01*
X2308809Y5486501D01*
X2297074Y5494985D01*
X2284374Y5501995D01*
X2270861Y5507329D01*
X2256840Y5510936D01*
X2242464Y5512765D01*
X2227935Y5512765D01*
X2213559Y5510936D01*
X2199487Y5507329D01*
X2186025Y5501995D01*
X2173325Y5494985D01*
X2161590Y5486501D01*
X2151024Y5476544D01*
X2141778Y5465368D01*
X2134006Y5453126D01*
X2127808Y5440019D01*
X2123338Y5426202D01*
X2120646Y5411978D01*
X2119731Y5397500D01*
X2120646Y5383022D01*
X2123338Y5368798D01*
X2127808Y5354980D01*
X2134006Y5341874D01*
X2141778Y5329631D01*
X2151024Y5318455D01*
X2161590Y5308498D01*
X2173325Y5300014D01*
X2186025Y5293004D01*
X2199487Y5287670D01*
X2213559Y5284063D01*
G37*
G36*
X1973935Y5282234D02*
G01*
X1988464Y5282234D01*
X2002840Y5284063D01*
X2016861Y5287670D01*
X2030374Y5293004D01*
X2043074Y5300014D01*
X2054809Y5308498D01*
X2065375Y5318455D01*
X2074621Y5329631D01*
X2082393Y5341874D01*
X2088591Y5354980D01*
X2093061Y5368798D01*
X2095754Y5383022D01*
X2096668Y5397500D01*
X2095754Y5411978D01*
X2093061Y5426202D01*
X2088591Y5440019D01*
X2082393Y5453126D01*
X2074621Y5465368D01*
X2065375Y5476544D01*
X2054809Y5486501D01*
X2043074Y5494985D01*
X2030374Y5501995D01*
X2016861Y5507329D01*
X2002840Y5510936D01*
X1988464Y5512765D01*
X1973935Y5512765D01*
X1959559Y5510936D01*
X1945487Y5507329D01*
X1932025Y5501995D01*
X1919325Y5494985D01*
X1907590Y5486501D01*
X1897024Y5476544D01*
X1887778Y5465368D01*
X1880006Y5453126D01*
X1873808Y5440019D01*
X1869338Y5426202D01*
X1866646Y5411978D01*
X1865731Y5397500D01*
X1866646Y5383022D01*
X1869338Y5368798D01*
X1873808Y5354980D01*
X1880006Y5341874D01*
X1887778Y5329631D01*
X1897024Y5318455D01*
X1907590Y5308498D01*
X1919325Y5300014D01*
X1932025Y5293004D01*
X1945487Y5287670D01*
X1959559Y5284063D01*
G37*
G36*
X2735935Y5282234D02*
G01*
X2750464Y5282234D01*
X2764840Y5284063D01*
X2778861Y5287670D01*
X2792374Y5293004D01*
X2805074Y5300014D01*
X2816809Y5308498D01*
X2827375Y5318455D01*
X2836621Y5329631D01*
X2844393Y5341874D01*
X2850591Y5354980D01*
X2855061Y5368798D01*
X2857754Y5383022D01*
X2858668Y5397500D01*
X2857754Y5411978D01*
X2855061Y5426202D01*
X2850591Y5440019D01*
X2844393Y5453126D01*
X2836621Y5465368D01*
X2827375Y5476544D01*
X2816809Y5486501D01*
X2805074Y5494985D01*
X2792374Y5501995D01*
X2778861Y5507329D01*
X2764840Y5510936D01*
X2750464Y5512765D01*
X2735935Y5512765D01*
X2721559Y5510936D01*
X2707487Y5507329D01*
X2694025Y5501995D01*
X2681325Y5494985D01*
X2669590Y5486501D01*
X2659024Y5476544D01*
X2649778Y5465368D01*
X2642006Y5453126D01*
X2635808Y5440019D01*
X2631338Y5426202D01*
X2628646Y5411978D01*
X2627731Y5397500D01*
X2628646Y5383022D01*
X2631338Y5368798D01*
X2635808Y5354980D01*
X2642006Y5341874D01*
X2649778Y5329631D01*
X2659024Y5318455D01*
X2669590Y5308498D01*
X2681325Y5300014D01*
X2694025Y5293004D01*
X2707487Y5287670D01*
X2721559Y5284063D01*
G37*
G36*
X5435600Y5292039D02*
G01*
X5449366Y5292902D01*
X5462879Y5295595D01*
X5475986Y5300065D01*
X5488330Y5306161D01*
X5499811Y5313832D01*
X5510174Y5322925D01*
X5519267Y5333288D01*
X5526938Y5344769D01*
X5533034Y5357114D01*
X5537504Y5370220D01*
X5540197Y5383733D01*
X5541060Y5397500D01*
X5540197Y5411266D01*
X5537504Y5424779D01*
X5533034Y5437886D01*
X5526938Y5450230D01*
X5519267Y5461711D01*
X5510174Y5472074D01*
X5499811Y5481167D01*
X5488330Y5488838D01*
X5475986Y5494934D01*
X5462879Y5499404D01*
X5449366Y5502097D01*
X5435600Y5502960D01*
X5421833Y5502097D01*
X5408320Y5499404D01*
X5395214Y5494934D01*
X5382869Y5488838D01*
X5371388Y5481167D01*
X5361025Y5472074D01*
X5351932Y5461711D01*
X5344261Y5450230D01*
X5338165Y5437886D01*
X5333695Y5424779D01*
X5331002Y5411266D01*
X5330139Y5397500D01*
X5331002Y5383733D01*
X5333695Y5370220D01*
X5338165Y5357114D01*
X5344261Y5344769D01*
X5351932Y5333288D01*
X5361025Y5322925D01*
X5371388Y5313832D01*
X5382869Y5306161D01*
X5395214Y5300065D01*
X5408320Y5295595D01*
X5421833Y5292902D01*
G37*
G36*
X5181600Y5292039D02*
G01*
X5195366Y5292902D01*
X5208879Y5295595D01*
X5221986Y5300065D01*
X5234330Y5306161D01*
X5245811Y5313832D01*
X5256174Y5322925D01*
X5265267Y5333288D01*
X5272938Y5344769D01*
X5279034Y5357114D01*
X5283504Y5370220D01*
X5286197Y5383733D01*
X5287060Y5397500D01*
X5286197Y5411266D01*
X5283504Y5424779D01*
X5279034Y5437886D01*
X5272938Y5450230D01*
X5265267Y5461711D01*
X5256174Y5472074D01*
X5245811Y5481167D01*
X5234330Y5488838D01*
X5221986Y5494934D01*
X5208879Y5499404D01*
X5195366Y5502097D01*
X5181600Y5502960D01*
X5167833Y5502097D01*
X5154320Y5499404D01*
X5141214Y5494934D01*
X5128869Y5488838D01*
X5117388Y5481167D01*
X5107025Y5472074D01*
X5097932Y5461711D01*
X5090261Y5450230D01*
X5084165Y5437886D01*
X5079695Y5424779D01*
X5077002Y5411266D01*
X5076139Y5397500D01*
X5077002Y5383733D01*
X5079695Y5370220D01*
X5084165Y5357114D01*
X5090261Y5344769D01*
X5097932Y5333288D01*
X5107025Y5322925D01*
X5117388Y5313832D01*
X5128869Y5306161D01*
X5141214Y5300065D01*
X5154320Y5295595D01*
X5167833Y5292902D01*
G37*
G36*
X5689600Y5292039D02*
G01*
X5703366Y5292902D01*
X5716879Y5295595D01*
X5729986Y5300065D01*
X5742330Y5306161D01*
X5753811Y5313832D01*
X5764174Y5322925D01*
X5773267Y5333288D01*
X5780938Y5344769D01*
X5787034Y5357114D01*
X5791504Y5370220D01*
X5794197Y5383733D01*
X5795060Y5397500D01*
X5794197Y5411266D01*
X5791504Y5424779D01*
X5787034Y5437886D01*
X5780938Y5450230D01*
X5773267Y5461711D01*
X5764174Y5472074D01*
X5753811Y5481167D01*
X5742330Y5488838D01*
X5729986Y5494934D01*
X5716879Y5499404D01*
X5703366Y5502097D01*
X5689600Y5502960D01*
X5675833Y5502097D01*
X5662320Y5499404D01*
X5649214Y5494934D01*
X5636869Y5488838D01*
X5625388Y5481167D01*
X5615025Y5472074D01*
X5605932Y5461711D01*
X5598261Y5450230D01*
X5592165Y5437886D01*
X5587695Y5424779D01*
X5585002Y5411266D01*
X5584139Y5397500D01*
X5585002Y5383733D01*
X5587695Y5370220D01*
X5592165Y5357114D01*
X5598261Y5344769D01*
X5605932Y5333288D01*
X5615025Y5322925D01*
X5625388Y5313832D01*
X5636869Y5306161D01*
X5649214Y5300065D01*
X5662320Y5295595D01*
X5675833Y5292902D01*
G37*
G36*
X5943600Y5292039D02*
G01*
X5957366Y5292902D01*
X5970879Y5295595D01*
X5983986Y5300065D01*
X5996330Y5306161D01*
X6007811Y5313832D01*
X6018174Y5322925D01*
X6027267Y5333288D01*
X6034938Y5344769D01*
X6041034Y5357114D01*
X6045504Y5370220D01*
X6048197Y5383733D01*
X6049060Y5397500D01*
X6048197Y5411266D01*
X6045504Y5424779D01*
X6041034Y5437886D01*
X6034938Y5450230D01*
X6027267Y5461711D01*
X6018174Y5472074D01*
X6007811Y5481167D01*
X5996330Y5488838D01*
X5983986Y5494934D01*
X5970879Y5499404D01*
X5957366Y5502097D01*
X5943600Y5502960D01*
X5929833Y5502097D01*
X5916320Y5499404D01*
X5903214Y5494934D01*
X5890869Y5488838D01*
X5879388Y5481167D01*
X5869025Y5472074D01*
X5859932Y5461711D01*
X5852261Y5450230D01*
X5846165Y5437886D01*
X5841695Y5424779D01*
X5839002Y5411266D01*
X5838139Y5397500D01*
X5839002Y5383733D01*
X5841695Y5370220D01*
X5846165Y5357114D01*
X5852261Y5344769D01*
X5859932Y5333288D01*
X5869025Y5322925D01*
X5879388Y5313832D01*
X5890869Y5306161D01*
X5903214Y5300065D01*
X5916320Y5295595D01*
X5929833Y5292902D01*
G37*
G36*
X4927600Y5292039D02*
G01*
X4941366Y5292902D01*
X4954879Y5295595D01*
X4967986Y5300065D01*
X4980330Y5306161D01*
X4991811Y5313832D01*
X5002174Y5322925D01*
X5011267Y5333288D01*
X5018938Y5344769D01*
X5025034Y5357114D01*
X5029504Y5370220D01*
X5032197Y5383733D01*
X5033060Y5397500D01*
X5032197Y5411266D01*
X5029504Y5424779D01*
X5025034Y5437886D01*
X5018938Y5450230D01*
X5011267Y5461711D01*
X5002174Y5472074D01*
X4991811Y5481167D01*
X4980330Y5488838D01*
X4967986Y5494934D01*
X4954879Y5499404D01*
X4941366Y5502097D01*
X4927600Y5502960D01*
X4913833Y5502097D01*
X4900320Y5499404D01*
X4887214Y5494934D01*
X4874869Y5488838D01*
X4863388Y5481167D01*
X4853025Y5472074D01*
X4843932Y5461711D01*
X4836261Y5450230D01*
X4830165Y5437886D01*
X4825695Y5424779D01*
X4823002Y5411266D01*
X4822139Y5397500D01*
X4823002Y5383733D01*
X4825695Y5370220D01*
X4830165Y5357114D01*
X4836261Y5344769D01*
X4843932Y5333288D01*
X4853025Y5322925D01*
X4863388Y5313832D01*
X4874869Y5306161D01*
X4887214Y5300065D01*
X4900320Y5295595D01*
X4913833Y5292902D01*
G37*
G36*
X2538069Y5292902D02*
G01*
X2551074Y5300014D01*
X2562809Y5308498D01*
X2573375Y5318455D01*
X2582621Y5329631D01*
X2590393Y5341874D01*
X2593594Y5348630D01*
X2538069Y5348630D01*
G37*
G36*
X2440330Y5292902D02*
G01*
X2440330Y5348630D01*
X2384806Y5348630D01*
X2388006Y5341874D01*
X2395778Y5329631D01*
X2405024Y5318455D01*
X2415590Y5308498D01*
X2427325Y5300014D01*
G37*
G36*
X2538069Y5446369D02*
G01*
X2593594Y5446369D01*
X2590393Y5453126D01*
X2582621Y5465368D01*
X2573375Y5476544D01*
X2562809Y5486501D01*
X2551074Y5494985D01*
X2538069Y5502097D01*
G37*
G36*
X2384806Y5446369D02*
G01*
X2440330Y5446369D01*
X2440330Y5502097D01*
X2427325Y5494985D01*
X2415590Y5486501D01*
X2405024Y5476544D01*
X2395778Y5465368D01*
X2388006Y5453126D01*
G37*
G36*
X674573Y5496255D02*
G01*
X689406Y5496255D01*
X704138Y5498084D01*
X718515Y5501690D01*
X732332Y5507024D01*
X745439Y5514086D01*
X757529Y5522620D01*
X768502Y5532628D01*
X778154Y5543905D01*
X786333Y5556250D01*
X792937Y5569559D01*
X797864Y5583529D01*
X801065Y5598007D01*
X802436Y5612790D01*
X801979Y5627624D01*
X799693Y5642254D01*
X795629Y5656529D01*
X789838Y5670194D01*
X782421Y5683046D01*
X773480Y5694883D01*
X763168Y5705551D01*
X751586Y5714847D01*
X738987Y5722670D01*
X725525Y5728868D01*
X711403Y5733338D01*
X696823Y5736082D01*
X681990Y5736996D01*
X667207Y5736082D01*
X652627Y5733338D01*
X638454Y5728868D01*
X624992Y5722670D01*
X612394Y5714847D01*
X600811Y5705551D01*
X590499Y5694883D01*
X581558Y5683046D01*
X574141Y5670194D01*
X568350Y5656529D01*
X564286Y5642254D01*
X562000Y5627624D01*
X561543Y5612790D01*
X562914Y5598007D01*
X566115Y5583529D01*
X571042Y5569559D01*
X577646Y5556250D01*
X585825Y5543905D01*
X595477Y5532628D01*
X606450Y5522620D01*
X618540Y5514086D01*
X631647Y5507024D01*
X645464Y5501690D01*
X659841Y5498084D01*
G37*

%LPD*%
G36*
X3000654Y2103018D02*
G01*
X2996590Y2104847D01*
X2994406Y2106523D01*
X2985871Y2111654D01*
X2978556Y2114702D01*
X2968853Y2117090D01*
X2966770Y2117394D01*
X2958795Y2117902D01*
X2772460Y2117902D01*
X2768600Y2118664D01*
X2765298Y2120900D01*
X2663190Y2223008D01*
X2660954Y2226310D01*
X2660192Y2230170D01*
X2660192Y2899105D01*
X2659684Y2907080D01*
X2659380Y2909163D01*
X2656992Y2918866D01*
X2653944Y2926181D01*
X2648813Y2934716D01*
X2642971Y2941574D01*
X2640888Y2945282D01*
X2640533Y2949549D01*
X2641904Y2953562D01*
X2644851Y2956661D01*
X2648813Y2958287D01*
X2653030Y2958185D01*
X2661107Y2956153D01*
X2673045Y2954832D01*
X2759049Y2954782D01*
X2763418Y2953816D01*
X2766923Y2951022D01*
X2770124Y2947111D01*
X2781198Y2936341D01*
X2793492Y2926994D01*
X2806801Y2919120D01*
X2810459Y2917494D01*
X2813558Y2915361D01*
X2815691Y2912211D01*
X2816504Y2908503D01*
X2815894Y2904744D01*
X2813964Y2901492D01*
X2810967Y2899156D01*
X2800045Y2893568D01*
X2787192Y2884932D01*
X2775508Y2874822D01*
X2765044Y2863392D01*
X2756052Y2850845D01*
X2748584Y2837332D01*
X2742793Y2823006D01*
X2738678Y2808071D01*
X2736443Y2792780D01*
X2735986Y2777337D01*
X2737358Y2761945D01*
X2740507Y2746806D01*
X2745486Y2732176D01*
X2752140Y2718206D01*
X2760370Y2705150D01*
X2770124Y2693111D01*
X2781198Y2682341D01*
X2793492Y2672994D01*
X2806801Y2665120D01*
X2810459Y2663494D01*
X2813558Y2661361D01*
X2815691Y2658211D01*
X2816504Y2654503D01*
X2815894Y2650744D01*
X2813964Y2647492D01*
X2810967Y2645156D01*
X2800045Y2639568D01*
X2787192Y2630932D01*
X2775508Y2620822D01*
X2765044Y2609392D01*
X2756052Y2596845D01*
X2748584Y2583332D01*
X2742793Y2569006D01*
X2738678Y2554071D01*
X2736443Y2538780D01*
X2735986Y2523337D01*
X2737358Y2507945D01*
X2740507Y2492806D01*
X2745486Y2478176D01*
X2752140Y2464206D01*
X2760370Y2451150D01*
X2770124Y2439111D01*
X2781198Y2428341D01*
X2793492Y2418994D01*
X2806801Y2411120D01*
X2810459Y2409494D01*
X2813558Y2407361D01*
X2815793Y2403652D01*
X2819400Y2404618D01*
X2823159Y2404211D01*
X2835757Y2400350D01*
X2850946Y2397607D01*
X2866390Y2396693D01*
X2881833Y2397607D01*
X2897022Y2400350D01*
X2909620Y2404211D01*
X2913380Y2404618D01*
X2916986Y2403652D01*
X2919222Y2407361D01*
X2922320Y2409494D01*
X2925978Y2411120D01*
X2939288Y2418994D01*
X2951581Y2428341D01*
X2962656Y2439111D01*
X2972409Y2451150D01*
X2979318Y2462072D01*
X2981604Y2464562D01*
X2984550Y2466238D01*
X2987903Y2466797D01*
X3002229Y2466797D01*
X3006090Y2466035D01*
X3009900Y2463292D01*
X3012135Y2459990D01*
X3012897Y2456129D01*
X3012897Y2112975D01*
X3011932Y2108606D01*
X3009138Y2105101D01*
X3005124Y2103069D01*
G37*

%LPC*%
G36*
X2922727Y2155698D02*
G01*
X2925978Y2157120D01*
X2939288Y2164994D01*
X2951581Y2174341D01*
X2962656Y2185111D01*
X2972409Y2197150D01*
X2980690Y2210206D01*
X2983839Y2216861D01*
X2922727Y2216861D01*
G37*
G36*
X2810052Y2155698D02*
G01*
X2810052Y2216861D01*
X2748940Y2216861D01*
X2752140Y2210206D01*
X2760370Y2197150D01*
X2770124Y2185111D01*
X2781198Y2174341D01*
X2793492Y2164994D01*
X2806801Y2157120D01*
G37*
G36*
X2748737Y2329535D02*
G01*
X2810052Y2329535D01*
X2810052Y2390698D01*
X2800045Y2385568D01*
X2787192Y2376932D01*
X2775508Y2366822D01*
X2765044Y2355392D01*
X2756052Y2342845D01*
G37*
G36*
X2922727Y2329535D02*
G01*
X2984093Y2329535D01*
X2976727Y2342845D01*
X2967736Y2355392D01*
X2957271Y2366822D01*
X2945587Y2376932D01*
X2932734Y2385568D01*
X2922727Y2390698D01*
G37*

%LPD*%
G36*
X1413916Y762000D02*
G01*
X1410004Y762762D01*
X1406702Y764997D01*
X1349197Y822502D01*
X1346962Y825804D01*
X1346200Y829716D01*
X1346200Y1557883D01*
X1346962Y1561795D01*
X1349197Y1565097D01*
X1406702Y1622602D01*
X1410004Y1624838D01*
X1413916Y1625600D01*
X3031083Y1625600D01*
X3034995Y1624838D01*
X3038297Y1622602D01*
X3095802Y1565097D01*
X3098038Y1561795D01*
X3098800Y1557883D01*
X3098800Y829716D01*
X3098038Y825804D01*
X3095802Y822502D01*
X3038297Y764997D01*
X3034995Y762762D01*
X3031083Y762000D01*
G37*

%LPD*%
D10*
X5988560Y2921000D02*
G01*
X6184902Y2921000D01*
X6299202Y2806700D01*
X6299202Y2425700D01*
X6362702Y2362200D01*
X6705602Y2362200D01*
X6756402Y2311400D01*
X6756402Y952500D01*
X6553202Y749300D01*
X6553202Y406400D01*
X6400802Y254000D01*
X5016502Y254000D01*
X4927602Y342900D01*
X4927602Y571500D01*
X2997202Y5397500D02*
G01*
X2997202Y5283202D01*
X2895600Y5181600D01*
X2717800Y5181600D01*
X1993800Y4457600D01*
X1564693Y4457600D01*
D11*
X1937257Y1689986D02*
G01*
X1931294Y1689986D01*
X1854200Y1612900D01*
X1937257Y1693613D02*
G01*
X1937257Y1682242D01*
X2006600Y1612900D01*
X1303027Y3056128D02*
G01*
X1642877Y3056128D01*
X1937257Y2761742D01*
X1937257Y1130300D01*
D10*
X4241800Y1993900D02*
G01*
X3539393Y1993900D01*
X3374392Y2158900D01*
X3374392Y2400200D01*
X5435600Y2971800D02*
G01*
X5239519Y2971800D01*
X5168900Y2901185D01*
X5168900Y2235200D01*
X4940300Y2006600D01*
X4533900Y2006600D01*
X4356100Y2184400D01*
X3810000Y2184400D01*
X3606800Y2387600D01*
X3606800Y2603500D01*
X3556000Y2654300D01*
X3374392Y2654300D01*
X681992Y4746500D02*
G01*
X790699Y4746500D01*
X952500Y4584700D01*
X1062992Y4584700D01*
D11*
X5812792Y4686200D02*
G01*
X6104892Y4686200D01*
X1621792Y2733598D02*
G01*
X1621792Y2400200D01*
X1581683Y2400200D01*
X1302283Y2120800D01*
X1302283Y1878302D01*
X1316992Y1863600D01*
D12*
X3374392Y3670300D02*
G01*
X3588257Y3670300D01*
X3997299Y4079341D01*
X3997299Y4521200D01*
D10*
X3251202Y5397500D02*
G01*
X3251202Y5731510D01*
X3425192Y5905500D01*
X6433057Y5905500D01*
X6701792Y5636765D01*
X6701792Y4318000D01*
X6879592Y4140200D01*
X6879592Y2967992D01*
X6718300Y2806700D01*
X6536692Y2806700D01*
X3505202Y5397500D02*
G01*
X3505202Y5601718D01*
X3567684Y5664200D01*
X4110992Y5664200D01*
X4225292Y5549900D01*
X4225292Y5293865D01*
X4350257Y5168900D01*
X5753869Y5168900D01*
X5812792Y5109969D01*
X5812792Y4940300D01*
X4673602Y5397500D02*
G01*
X4673602Y5613402D01*
X4724400Y5664200D01*
X6261100Y5664200D01*
X6362700Y5562600D01*
X6362700Y5325112D01*
X6104892Y5067300D01*
X6104892Y4940300D01*
X4013202Y5397500D02*
G01*
X4013202Y5232397D01*
X4051300Y5194300D01*
X4172457Y5194300D01*
X4441192Y4925565D01*
X4441192Y3175000D01*
X4644392Y2971800D01*
X4673600Y2971800D01*
X2873758Y4521200D02*
G01*
X3327400Y4521200D01*
X3505200Y4343400D01*
X3627127Y4343400D01*
X3727957Y4242562D01*
X3727957Y4038600D01*
X3613657Y3924300D01*
X3374392Y3924300D01*
X3562857Y4127500D02*
G01*
X3397757Y4292600D01*
X2768600Y4292600D01*
X2635757Y4159757D01*
X2635757Y3621024D01*
X2706626Y3550157D01*
X2706626Y3543300D01*
X2866392Y3543300D01*
X2866392Y2527300D02*
G01*
X3031492Y2527300D01*
X3073400Y2485392D01*
X3073400Y2111758D01*
X3559558Y1625600D01*
X5988557Y3175000D02*
G01*
X5791200Y3175000D01*
X5727700Y3111500D01*
X5727700Y2527300D01*
X5816600Y2438400D01*
X6019800Y2438400D01*
X6134100Y2324100D01*
X6134100Y927100D01*
X6248400Y812800D01*
X6362700Y812800D01*
X6426200Y749300D01*
X6426200Y457200D01*
X6324600Y355600D01*
X5232400Y355600D01*
X5181602Y406397D01*
X5181602Y571500D01*
X1926592Y3366262D02*
G01*
X2132843Y3366262D01*
X2599692Y2899412D01*
X2599692Y2200912D01*
X2743200Y2057400D01*
X2959100Y2057400D01*
X3336292Y1680212D01*
X3336292Y1057912D01*
X3454400Y939800D01*
X5486400Y939800D01*
X5689602Y736597D01*
X5689602Y571500D01*
X4673600Y2463800D02*
G01*
X4495800Y2463800D01*
X4330700Y2298700D01*
X3860800Y2298700D01*
X3721100Y2438400D01*
X3721100Y2788157D01*
X3600957Y2908300D01*
X3374392Y2908300D01*
D12*
X2866392Y3035300D02*
G01*
X2675892Y3035300D01*
X1672592Y4038600D01*
X872492Y4038600D01*
X694692Y4216400D01*
D10*
X3759202Y5397500D02*
G01*
X3759202Y5301742D01*
X3550157Y5092700D01*
X3550157Y4838700D01*
X3651757Y4737100D01*
X4121657Y4737100D01*
X4301492Y4557265D01*
X4301492Y4180078D01*
X3537457Y3416300D01*
X3374392Y3416300D01*
D11*
X6104892Y4686200D02*
G01*
X6396992Y4686200D01*
X6536692Y3568700D02*
G01*
X6523992Y3581400D01*
X6204457Y3581400D01*
X5607557Y4178300D01*
X5607557Y4572000D01*
X5721857Y4686300D01*
X5812792Y4686300D01*
D10*
X4419602Y5397500D02*
G01*
X4419602Y5664202D01*
X4533900Y5778500D01*
X6382257Y5778500D01*
X6600192Y5560565D01*
X6600192Y5352031D01*
X6600192Y4232912D01*
X6769100Y4064000D01*
X6769100Y3149600D01*
X6680200Y3060700D01*
X6536692Y3060700D01*
X5435600Y2209800D02*
G01*
X5295900Y2209800D01*
X4902200Y1816100D01*
X3552192Y1816100D01*
X3175000Y2193292D01*
X3175000Y3187700D01*
X3073400Y3289300D01*
X2866392Y3289300D01*
X4673600Y2463800D02*
G01*
X4883919Y2463800D01*
X5016500Y2596385D01*
X5016500Y3225800D01*
X5270500Y3479800D01*
X5435600Y3479800D01*
D13*
X5892800Y1574800D02*
G01*
X5892800Y1270000D01*
X5689600Y1066800D01*
X3632200Y1066800D01*
X3565400Y1133350D01*
X3565400Y1282700D01*
D10*
X694692Y3708400D02*
G01*
X1485900Y3708400D01*
X1612900Y3581400D01*
X1612900Y3302000D01*
X1778000Y3136900D01*
X2171700Y3136900D01*
X2498092Y2810512D01*
X2498092Y2162812D01*
X2705100Y1955800D01*
X2891792Y1955800D01*
X3221992Y1625600D01*
X3221992Y994412D01*
X3403600Y812800D01*
X5334000Y812800D01*
X5435602Y711197D01*
X5435602Y571500D01*
D14*
G01*
X749302Y1104900D03*
D15*
G01*
X1003302Y1104900D03*
D16*
G01*
X2084402Y431800D03*
G01*
X2284402Y431800D03*
D17*
G01*
X4927602Y571500D03*
G01*
X5181602Y571500D03*
G01*
X5435602Y571500D03*
G01*
X5689602Y571500D03*
G01*
X5943602Y571500D03*
D18*
G01*
X6197602Y571500D03*
D19*
G01*
X2641602Y571500D03*
D20*
G01*
X2895602Y571500D03*
G01*
X3149602Y571500D03*
G01*
X3403602Y571500D03*
G01*
X3657602Y571500D03*
G01*
X3911602Y571500D03*
G01*
X4165602Y571500D03*
G01*
X4419602Y571500D03*
D21*
G01*
X4013202Y5397500D03*
G01*
X3759202Y5397500D03*
G01*
X3505202Y5397500D03*
G01*
X3251202Y5397500D03*
G01*
X2997202Y5397500D03*
G01*
X2743202Y5397500D03*
G01*
X2489202Y5397500D03*
G01*
X2235202Y5397500D03*
G01*
X1981202Y5397500D03*
D22*
G01*
X1727202Y5397500D03*
D19*
G01*
X4419602Y5397500D03*
D20*
G01*
X4673602Y5397500D03*
G01*
X4927602Y5397500D03*
G01*
X5181602Y5397500D03*
G01*
X5435602Y5397500D03*
G01*
X5689602Y5397500D03*
G01*
X5943602Y5397500D03*
G01*
X6197602Y5397500D03*
D17*
G01*
X1926592Y4126382D03*
G01*
X1926592Y3366389D03*
D23*
G01*
X4887089Y4140200D03*
G01*
X4587090Y4140200D03*
D17*
G01*
X694692Y3708298D03*
G01*
X694692Y4216298D03*
D18*
G01*
X694692Y4470298D03*
D14*
G01*
X5226585Y4787798D03*
D15*
G01*
X5226585Y4533798D03*
D14*
G01*
X5892802Y1828800D03*
D15*
G01*
X5892802Y1574800D03*
D17*
G01*
X3756586Y5003698D03*
G01*
X2886585Y5003698D03*
G01*
X2873885Y4521098D03*
G01*
X3743886Y4521098D03*
G01*
X4004185Y5016398D03*
G01*
X4874186Y5016398D03*
G01*
X4867302Y4521200D03*
G01*
X3997302Y4521200D03*
G01*
X4429686Y1625498D03*
G01*
X3559685Y1625498D03*
G01*
X3565502Y1282700D03*
G01*
X4435502Y1282700D03*
G01*
X4708502Y1625600D03*
G01*
X5578502Y1625600D03*
G01*
X5591202Y1295400D03*
G01*
X4721202Y1295400D03*
G01*
X1316992Y2733598D03*
G01*
X1316992Y1863598D03*
G01*
X1621792Y2733598D03*
G01*
X1621792Y1863598D03*
D24*
G01*
X1062992Y4330598D03*
D25*
G01*
X1062992Y4584598D03*
G01*
X1062992Y4838598D03*
G01*
X1062992Y5092598D03*
D24*
G01*
X6540502Y2197100D03*
D25*
G01*
X6540502Y1943100D03*
G01*
X6540502Y1689100D03*
G01*
X6540502Y1435100D03*
D24*
G01*
X5988585Y2666898D03*
D25*
G01*
X5988585Y2920898D03*
G01*
X5988585Y3174898D03*
G01*
X5988585Y3428898D03*
D26*
G01*
X1790702Y520700D03*
G01*
X1536702Y520700D03*
G01*
X2078992Y5029098D03*
G01*
X1824992Y5029098D03*
D17*
G01*
X6396992Y4432198D03*
G01*
X6396992Y4686198D03*
D27*
G01*
X6396992Y4940198D03*
D17*
G01*
X6104892Y4432198D03*
G01*
X6104892Y4686198D03*
D27*
G01*
X6104892Y4940198D03*
D17*
G01*
X5812792Y4432198D03*
G01*
X5812792Y4686198D03*
D27*
G01*
X5812792Y4940198D03*
D28*
G01*
X6536692Y3568598D03*
D21*
G01*
X6536692Y3314598D03*
G01*
X6536692Y3060598D03*
G01*
X6536692Y2806598D03*
G01*
X6536692Y2552598D03*
D23*
G01*
X1883895Y177800D03*
G01*
X833909Y177800D03*
G01*
X1564693Y4711598D03*
G01*
X2614678Y4711598D03*
G01*
X2614678Y4457598D03*
G01*
X1564693Y4457598D03*
G01*
X3996692Y2522880D03*
G01*
X3996692Y3572891D03*
G01*
X4250692Y3585591D03*
G01*
X4250692Y2535580D03*
D14*
G01*
X1302895Y3056204D03*
G01*
X652909Y3056204D03*
G01*
X652909Y3446195D03*
G01*
X1302895Y3446195D03*
D26*
G01*
X893879Y2511298D03*
G01*
X893879Y2311298D03*
G01*
X893879Y2111298D03*
G01*
X643892Y2511298D03*
G01*
X643892Y2311298D03*
G01*
X643892Y2111298D03*
D29*
G01*
X768885Y2811297D03*
G01*
X768885Y1811299D03*
D14*
G01*
X2866392Y2273198D03*
G01*
X3374392Y2400198D03*
G01*
X2866392Y2527198D03*
G01*
X3374392Y2654198D03*
G01*
X2866392Y2781198D03*
G01*
X3374392Y2908198D03*
G01*
X2866392Y3035198D03*
G01*
X3374392Y3162198D03*
G01*
X2866392Y3289198D03*
G01*
X3374392Y3416198D03*
G01*
X2866392Y3543198D03*
G01*
X3374392Y3670198D03*
G01*
X2866392Y3797198D03*
G01*
X3374392Y3924198D03*
D30*
G01*
X2866392Y4051198D03*
D31*
G01*
X5435602Y2209800D03*
G01*
X5435602Y2463800D03*
G01*
X5435602Y2717800D03*
G01*
X5435602Y2971800D03*
G01*
X5435602Y3225800D03*
G01*
X5435602Y3479800D03*
G01*
X5435602Y3733800D03*
G01*
X4673602Y2209800D03*
G01*
X4673602Y2463800D03*
G01*
X4673602Y2717800D03*
G01*
X4673602Y2971800D03*
G01*
X4673602Y3225800D03*
G01*
X4673602Y3479800D03*
D32*
G01*
X4673602Y3733800D03*
D23*
G01*
X2218692Y2402992D03*
G01*
X2218692Y2753004D03*
D17*
G01*
X681992Y4746498D03*
G01*
X681992Y5616498D03*
D33*
G01*
X4241802Y1993900D03*
G01*
X1545592Y1231798D03*
G01*
X2688592Y1498498D03*
G01*
X2993392Y1498498D03*
G01*
X2993392Y1231798D03*
G01*
X2688592Y1231798D03*
G01*
X1545592Y926998D03*
G01*
X1545592Y1498498D03*
G01*
X2688592Y926998D03*
G01*
X2993392Y926998D03*
G01*
X3562885Y4127398D03*
G01*
X4572002Y241300D03*
G01*
X2717802Y1778000D03*
G01*
X635002Y1587500D03*
G01*
X2235202Y3873500D03*
G01*
X5029202Y3556000D03*
G01*
X4978402Y2273300D03*
G01*
X5422902Y3962400D03*
G01*
X4610102Y4787900D03*
G01*
X3136902Y4775200D03*
G01*
X1562102Y5016500D03*
G01*
X635002Y482600D03*
G01*
X4229102Y3822700D03*
G01*
X5499102Y1930400D03*
G01*
X5753102Y2222500D03*
G01*
X5689602Y3429000D03*
M02*
