G04 Layer: BottomLayer*
G04 EasyEDA v6.5.23, 2022-11-18 20:40:13*
G04 0c95b19414bf4a53847780bc83a88734,1dfdfe31e71b4ff6856625fdd89ee459,10*
G04 Gerber Generator version 0.2*
G04 Scale: 100 percent, Rotated: No, Reflected: No *
G04 Dimensions in millimeters *
G04 leading zeros omitted , absolute positions ,4 integer and 5 decimal *
%FSLAX45Y45*%
%MOMM*%

%ADD10C,1.0000*%
%ADD11C,0.6000*%
%ADD12C,0.8000*%
%ADD13C,1.2000*%
%ADD14C,0.4000*%
%ADD15C,1.6000*%
%ADD16C,1.6500*%
%ADD17R,1.5748X1.5748*%
%ADD18C,1.5748*%
%ADD19C,1.5240*%
%ADD20C,2.0000*%
%ADD21O,2.6500074X1.7999964*%
%ADD22R,1.8000X1.8000*%
%ADD23C,1.8000*%
%ADD24C,0.6096*%
%ADD25C,0.0122*%

%LPD*%
G36*
X391718Y5994D02*
G01*
X387807Y6705D01*
X384556Y8991D01*
X382320Y12192D01*
X381558Y16103D01*
X381558Y7493558D01*
X382320Y7497521D01*
X384556Y7500772D01*
X387858Y7503007D01*
X391718Y7503718D01*
X712774Y7503515D01*
X7509306Y7503515D01*
X7513218Y7502753D01*
X7516469Y7500569D01*
X7518704Y7497267D01*
X7519466Y7493355D01*
X7519466Y16103D01*
X7518704Y12192D01*
X7516469Y8991D01*
X7513218Y6705D01*
X7509306Y5994D01*
G37*

%LPC*%
G36*
X740562Y107797D02*
G01*
X758342Y107797D01*
X761542Y108000D01*
X782777Y110540D01*
X800506Y114350D01*
X803605Y115214D01*
X820775Y121005D01*
X840232Y129844D01*
X843076Y131318D01*
X858621Y140665D01*
X861263Y142494D01*
X875690Y153517D01*
X878128Y155600D01*
X891336Y168046D01*
X893521Y170383D01*
X905256Y184200D01*
X907237Y186791D01*
X917397Y201777D01*
X919073Y204520D01*
X927557Y220522D01*
X935583Y240284D01*
X936650Y243382D01*
X941476Y260807D01*
X942187Y264007D01*
X945134Y281838D01*
X946454Y303174D01*
X946454Y306425D01*
X945134Y327710D01*
X942187Y345592D01*
X941476Y348742D01*
X936650Y366217D01*
X928878Y386130D01*
X927557Y389077D01*
X919073Y405079D01*
X907237Y422808D01*
X893521Y439166D01*
X891336Y441502D01*
X878128Y454050D01*
X861263Y467106D01*
X858621Y468884D01*
X843076Y478231D01*
X820775Y488594D01*
X803605Y494334D01*
X800506Y495198D01*
X782777Y499059D01*
X779576Y499567D01*
X758342Y501802D01*
X740206Y501802D01*
X718972Y499567D01*
X715822Y499059D01*
X698093Y495198D01*
X694994Y494334D01*
X677824Y488594D01*
X658368Y479704D01*
X655523Y478231D01*
X639978Y468884D01*
X637336Y467106D01*
X620420Y454050D01*
X605028Y439166D01*
X593293Y425348D01*
X591362Y422808D01*
X579526Y405079D01*
X571042Y389077D01*
X569671Y386130D01*
X562965Y369265D01*
X561949Y366217D01*
X557072Y348742D01*
X553466Y327710D01*
X553110Y324561D01*
X552145Y306425D01*
X552145Y303174D01*
X553110Y285038D01*
X553466Y281838D01*
X557072Y260807D01*
X562965Y240284D01*
X569671Y223469D01*
X571042Y220522D01*
X579526Y204520D01*
X581202Y201777D01*
X593293Y184200D01*
X605028Y170383D01*
X607263Y168046D01*
X620420Y155600D01*
X622858Y153517D01*
X639978Y140665D01*
X655523Y131318D01*
X658368Y129844D01*
X677824Y121005D01*
X694994Y115214D01*
X698093Y114350D01*
X715822Y110540D01*
X718972Y110032D01*
G37*
G36*
X6747306Y107797D02*
G01*
X6765442Y107797D01*
X6786676Y109931D01*
X6807606Y114350D01*
X6810705Y115214D01*
X6827875Y121005D01*
X6847331Y129844D01*
X6850176Y131318D01*
X6865721Y140665D01*
X6868363Y142494D01*
X6882790Y153517D01*
X6885228Y155600D01*
X6898436Y167995D01*
X6900621Y170332D01*
X6912356Y184200D01*
X6914337Y186791D01*
X6924497Y201726D01*
X6926173Y204520D01*
X6934657Y220522D01*
X6942683Y240284D01*
X6943750Y243382D01*
X6948576Y260807D01*
X6949287Y264007D01*
X6952234Y281838D01*
X6953554Y303174D01*
X6953554Y306425D01*
X6952234Y327660D01*
X6949287Y345592D01*
X6948576Y348742D01*
X6943750Y366217D01*
X6935978Y386130D01*
X6934657Y389077D01*
X6926173Y405079D01*
X6914337Y422808D01*
X6900621Y439166D01*
X6898436Y441502D01*
X6885228Y454050D01*
X6868363Y467106D01*
X6850176Y478180D01*
X6847331Y479704D01*
X6830872Y487324D01*
X6810705Y494284D01*
X6807606Y495147D01*
X6789877Y499059D01*
X6786676Y499567D01*
X6768642Y501548D01*
X6752234Y501700D01*
X6748424Y502462D01*
X6745224Y504494D01*
X6742988Y507695D01*
X6742074Y511352D01*
X6742582Y515162D01*
X6744512Y518515D01*
X6745935Y520141D01*
X6751269Y528929D01*
X6755231Y538480D01*
X6757619Y548386D01*
X6758482Y559054D01*
X6758482Y1060704D01*
X6759244Y1064615D01*
X6761429Y1067917D01*
X6793331Y1099769D01*
X6796582Y1101953D01*
X6800494Y1102715D01*
X6823100Y1102715D01*
X6826250Y1102258D01*
X6829044Y1100785D01*
X6831330Y1098550D01*
X6833463Y1095552D01*
X6843318Y1085138D01*
X6854342Y1075944D01*
X6866483Y1068273D01*
X6879437Y1062177D01*
X6893102Y1057757D01*
X6907174Y1055065D01*
X6921500Y1054150D01*
X6935825Y1055065D01*
X6949897Y1057757D01*
X6963562Y1062177D01*
X6976516Y1068273D01*
X6988657Y1075944D01*
X6999681Y1085138D01*
X7009485Y1095552D01*
X7017918Y1107186D01*
X7024827Y1119784D01*
X7030110Y1133094D01*
X7033717Y1146962D01*
X7035495Y1161237D01*
X7035495Y1175562D01*
X7033717Y1189786D01*
X7030110Y1203706D01*
X7024827Y1217015D01*
X7017918Y1229614D01*
X7009485Y1241196D01*
X6999681Y1251712D01*
X6988657Y1260856D01*
X6976516Y1268476D01*
X6963562Y1274622D01*
X6949897Y1279042D01*
X6935825Y1281684D01*
X6921500Y1282598D01*
X6907174Y1281684D01*
X6893102Y1279042D01*
X6879437Y1274622D01*
X6866483Y1268476D01*
X6854342Y1260856D01*
X6843318Y1251712D01*
X6833463Y1241196D01*
X6831126Y1237996D01*
X6828891Y1235710D01*
X6826046Y1234236D01*
X6822897Y1233779D01*
X6769557Y1233779D01*
X6758889Y1232916D01*
X6748932Y1230579D01*
X6739432Y1226566D01*
X6730644Y1221282D01*
X6722567Y1214272D01*
X6648754Y1140460D01*
X6645452Y1138326D01*
X6641541Y1137513D01*
X6637680Y1138326D01*
X6634378Y1140460D01*
X6632194Y1143762D01*
X6631381Y1147673D01*
X6631381Y1289456D01*
X6632194Y1293317D01*
X6634378Y1296619D01*
X6691630Y1353870D01*
X6694931Y1356156D01*
X6698843Y1356868D01*
X6797090Y1356868D01*
X6800951Y1356156D01*
X6804253Y1353870D01*
X6806488Y1350568D01*
X6807250Y1346708D01*
X6807250Y1344117D01*
X6807962Y1336700D01*
X6809994Y1330045D01*
X6813245Y1324000D01*
X6817664Y1318615D01*
X6823049Y1314196D01*
X6829196Y1310894D01*
X6835851Y1308862D01*
X6843268Y1308100D01*
X6999731Y1308100D01*
X7007148Y1308862D01*
X7013803Y1310894D01*
X7019950Y1314196D01*
X7025284Y1318615D01*
X7029703Y1324000D01*
X7033006Y1330045D01*
X7034987Y1336700D01*
X7035749Y1344117D01*
X7035749Y1500682D01*
X7034987Y1508099D01*
X7033006Y1514703D01*
X7029703Y1520850D01*
X7025284Y1526184D01*
X7019950Y1530604D01*
X7013803Y1533906D01*
X7007148Y1535938D01*
X6999731Y1536598D01*
X6843268Y1536598D01*
X6835851Y1535938D01*
X6829196Y1533906D01*
X6823049Y1530604D01*
X6817664Y1526184D01*
X6813245Y1520850D01*
X6809994Y1514703D01*
X6807962Y1508099D01*
X6807250Y1500682D01*
X6807250Y1498041D01*
X6806488Y1494129D01*
X6804253Y1490929D01*
X6800951Y1488643D01*
X6797090Y1487881D01*
X6667906Y1487881D01*
X6657238Y1487068D01*
X6647230Y1484680D01*
X6637731Y1480769D01*
X6628993Y1475384D01*
X6620865Y1468475D01*
X6519824Y1367434D01*
X6512915Y1359255D01*
X6507530Y1350518D01*
X6503619Y1341069D01*
X6501231Y1331010D01*
X6500368Y1320444D01*
X6500368Y844092D01*
X6499606Y840282D01*
X6497421Y836980D01*
X6402019Y741629D01*
X6398717Y739343D01*
X6394856Y738581D01*
X6302349Y738581D01*
X6298438Y739343D01*
X6295136Y741629D01*
X6292951Y744880D01*
X6292189Y748741D01*
X6292189Y755446D01*
X6291427Y762863D01*
X6289446Y769569D01*
X6286144Y775665D01*
X6281724Y781050D01*
X6276390Y785418D01*
X6270244Y788720D01*
X6263589Y790752D01*
X6256172Y791514D01*
X6232702Y791514D01*
X6228435Y792480D01*
X6224930Y795020D01*
X6222898Y798880D01*
X6222644Y803300D01*
X6224270Y807313D01*
X6227419Y810310D01*
X6237935Y816660D01*
X6249873Y826008D01*
X6260592Y836726D01*
X6269939Y848715D01*
X6277762Y861618D01*
X6284010Y875487D01*
X6288532Y889914D01*
X6291224Y904900D01*
X6292138Y919987D01*
X6291224Y935126D01*
X6288532Y950010D01*
X6284010Y964488D01*
X6277762Y978255D01*
X6269939Y991311D01*
X6260592Y1003147D01*
X6249873Y1013866D01*
X6237935Y1023213D01*
X6224981Y1031087D01*
X6210147Y1037742D01*
X6208522Y1038860D01*
X6204813Y1039266D01*
X6196685Y1041806D01*
X6181801Y1044600D01*
X6166662Y1045514D01*
X6151524Y1044600D01*
X6136640Y1041806D01*
X6128512Y1039266D01*
X6124854Y1038860D01*
X6123178Y1037742D01*
X6108344Y1031087D01*
X6095390Y1023213D01*
X6083452Y1013866D01*
X6072733Y1003147D01*
X6067399Y996340D01*
X6065164Y994257D01*
X6062421Y992936D01*
X6059373Y992479D01*
X5969457Y992479D01*
X5958789Y991616D01*
X5948832Y989279D01*
X5939332Y985266D01*
X5930544Y979982D01*
X5922467Y972972D01*
X5834126Y884631D01*
X5827166Y876553D01*
X5821832Y867765D01*
X5817870Y858266D01*
X5815482Y848309D01*
X5814618Y837641D01*
X5814618Y495554D01*
X5815482Y484885D01*
X5817870Y474980D01*
X5821832Y465429D01*
X5827166Y456641D01*
X5834126Y448614D01*
X5935167Y347522D01*
X5943244Y340614D01*
X5952032Y335280D01*
X5961532Y331317D01*
X5971489Y328930D01*
X5982157Y328015D01*
X6527444Y328015D01*
X6538112Y328930D01*
X6547510Y331114D01*
X6551269Y331368D01*
X6554825Y330149D01*
X6557721Y327710D01*
X6559499Y324408D01*
X6560007Y320700D01*
X6559245Y306425D01*
X6559245Y303174D01*
X6560210Y285038D01*
X6560566Y281838D01*
X6564172Y260807D01*
X6570065Y240284D01*
X6576771Y223469D01*
X6578142Y220522D01*
X6586626Y204520D01*
X6588302Y201726D01*
X6600393Y184200D01*
X6612128Y170332D01*
X6614363Y167995D01*
X6627520Y155600D01*
X6629958Y153517D01*
X6647078Y140665D01*
X6662623Y131318D01*
X6665468Y129844D01*
X6684924Y121005D01*
X6702094Y115214D01*
X6705193Y114350D01*
X6726072Y109931D01*
G37*
G36*
X4115054Y282651D02*
G01*
X5156047Y282651D01*
X5162346Y282854D01*
X5168442Y283565D01*
X5174437Y284581D01*
X5180330Y286105D01*
X5186121Y288036D01*
X5191760Y290372D01*
X5197246Y293116D01*
X5202478Y296265D01*
X5207508Y299720D01*
X5212232Y303580D01*
X5216855Y307797D01*
X5381701Y472643D01*
X5385968Y477266D01*
X5389778Y481990D01*
X5393283Y487019D01*
X5396382Y492251D01*
X5399125Y497738D01*
X5401462Y503377D01*
X5403392Y509219D01*
X5404916Y515061D01*
X5405983Y521055D01*
X5406644Y527202D01*
X5406847Y533450D01*
X5406847Y5306923D01*
X5407609Y5310835D01*
X5409844Y5314137D01*
X5499100Y5403342D01*
X5502402Y5405577D01*
X5506262Y5406339D01*
X6070955Y5406339D01*
X6074816Y5405577D01*
X6078118Y5403342D01*
X6083452Y5398008D01*
X6095390Y5388660D01*
X6108344Y5380837D01*
X6123178Y5374284D01*
X6126327Y5371998D01*
X6128461Y5368747D01*
X6129172Y5364988D01*
X6128461Y5361178D01*
X6126327Y5357926D01*
X6123178Y5355742D01*
X6108344Y5349087D01*
X6095390Y5341213D01*
X6083452Y5331866D01*
X6077864Y5326380D01*
X6074613Y5324094D01*
X6070701Y5323382D01*
X5962142Y5323382D01*
X5955944Y5323128D01*
X5949746Y5322519D01*
X5943854Y5321452D01*
X5937859Y5319877D01*
X5932170Y5318048D01*
X5926429Y5315661D01*
X5921044Y5312918D01*
X5915710Y5309819D01*
X5910783Y5306415D01*
X5905957Y5302504D01*
X5901436Y5298236D01*
X5801614Y5198668D01*
X5797245Y5194046D01*
X5793486Y5189321D01*
X5789930Y5184292D01*
X5786882Y5179110D01*
X5784088Y5173573D01*
X5781802Y5167985D01*
X5779820Y5162092D01*
X5778347Y5156352D01*
X5777230Y5150154D01*
X5776569Y5144262D01*
X5776366Y5137861D01*
X5776366Y4577638D01*
X5776569Y4571339D01*
X5777230Y4565294D01*
X5778296Y4559249D01*
X5779820Y4553356D01*
X5781751Y4547565D01*
X5784088Y4541977D01*
X5786831Y4536490D01*
X5789930Y4531207D01*
X5793435Y4526229D01*
X5797245Y4521454D01*
X5801512Y4516831D01*
X5902858Y4415485D01*
X5907481Y4411218D01*
X5912205Y4407408D01*
X5917234Y4403902D01*
X5922467Y4400804D01*
X5927953Y4398060D01*
X5933592Y4395724D01*
X5939383Y4393844D01*
X5945276Y4392269D01*
X5951270Y4391202D01*
X5957366Y4390542D01*
X5963666Y4390339D01*
X6070955Y4390339D01*
X6074816Y4389577D01*
X6078118Y4387342D01*
X6083452Y4382008D01*
X6095390Y4372660D01*
X6108344Y4364837D01*
X6123178Y4358284D01*
X6126327Y4355998D01*
X6128461Y4352747D01*
X6129172Y4348988D01*
X6128461Y4345178D01*
X6126327Y4341926D01*
X6123178Y4339742D01*
X6108344Y4333087D01*
X6095390Y4325213D01*
X6083452Y4315866D01*
X6072733Y4305147D01*
X6063386Y4293311D01*
X6055563Y4280255D01*
X6049314Y4266488D01*
X6044844Y4252010D01*
X6042101Y4237126D01*
X6041186Y4221988D01*
X6042101Y4206900D01*
X6044844Y4191914D01*
X6049314Y4177487D01*
X6055563Y4163618D01*
X6063386Y4150715D01*
X6072733Y4138726D01*
X6083452Y4128008D01*
X6095390Y4118660D01*
X6108344Y4110837D01*
X6123178Y4104284D01*
X6126327Y4101998D01*
X6128461Y4098747D01*
X6129172Y4094987D01*
X6128461Y4091178D01*
X6126327Y4087926D01*
X6123178Y4085742D01*
X6108344Y4079087D01*
X6095390Y4071213D01*
X6083452Y4061866D01*
X6072733Y4051147D01*
X6063386Y4039311D01*
X6055563Y4026255D01*
X6049314Y4012488D01*
X6044844Y3998010D01*
X6042101Y3983126D01*
X6041186Y3967987D01*
X6042101Y3952900D01*
X6044844Y3937914D01*
X6049314Y3923487D01*
X6055563Y3909618D01*
X6063386Y3896715D01*
X6072733Y3884726D01*
X6083452Y3874008D01*
X6095390Y3864660D01*
X6108344Y3856837D01*
X6123178Y3850284D01*
X6124854Y3849065D01*
X6128512Y3848658D01*
X6136640Y3846118D01*
X6151524Y3843426D01*
X6166662Y3842512D01*
X6181801Y3843426D01*
X6196685Y3846118D01*
X6204813Y3848658D01*
X6208522Y3849065D01*
X6210147Y3850284D01*
X6224981Y3856837D01*
X6237935Y3864660D01*
X6249873Y3874008D01*
X6260592Y3884726D01*
X6263487Y3888435D01*
X6265722Y3890518D01*
X6268466Y3891889D01*
X6271463Y3892346D01*
X6358331Y3892397D01*
X6369558Y3893667D01*
X6378092Y3895750D01*
X6380480Y3896512D01*
X6388557Y3899865D01*
X6398310Y3905554D01*
X6400393Y3907028D01*
X6407150Y3912615D01*
X6532270Y4037990D01*
X6537959Y4044899D01*
X6539331Y4046829D01*
X6543954Y4054500D01*
X6548424Y4064812D01*
X6551269Y4075734D01*
X6551676Y4078071D01*
X6552488Y4086961D01*
X6552539Y4663389D01*
X6553352Y4667300D01*
X6555536Y4670552D01*
X6742328Y4857648D01*
X6748018Y4864506D01*
X6753961Y4874107D01*
X6755028Y4876241D01*
X6758431Y4884470D01*
X6759194Y4886756D01*
X6761327Y4895342D01*
X6761734Y4897729D01*
X6762546Y4906568D01*
X6762597Y5184851D01*
X6763156Y5188204D01*
X6764731Y5191150D01*
X6780022Y5204002D01*
X6790842Y5215483D01*
X6800240Y5228132D01*
X6808114Y5241747D01*
X6814362Y5256225D01*
X6818884Y5271312D01*
X6821627Y5286857D01*
X6822541Y5302554D01*
X6821627Y5318252D01*
X6818884Y5333796D01*
X6814362Y5348935D01*
X6808114Y5363362D01*
X6800240Y5376976D01*
X6790842Y5389626D01*
X6780022Y5401157D01*
X6767982Y5411216D01*
X6754774Y5419902D01*
X6740702Y5427014D01*
X6725920Y5432399D01*
X6710578Y5435955D01*
X6694931Y5437835D01*
X6679184Y5437835D01*
X6663537Y5435955D01*
X6648196Y5432399D01*
X6633362Y5427014D01*
X6619290Y5419902D01*
X6606133Y5411216D01*
X6594094Y5401157D01*
X6583273Y5389626D01*
X6573824Y5376976D01*
X6565950Y5363362D01*
X6559753Y5348935D01*
X6555231Y5333796D01*
X6552488Y5318252D01*
X6551574Y5302554D01*
X6552488Y5286857D01*
X6555231Y5271312D01*
X6559753Y5256225D01*
X6565950Y5241747D01*
X6573824Y5228132D01*
X6583273Y5215483D01*
X6594094Y5204002D01*
X6609486Y5191048D01*
X6611061Y5188153D01*
X6611620Y5184800D01*
X6611620Y4944618D01*
X6610807Y4940706D01*
X6608622Y4937506D01*
X6421831Y4750358D01*
X6416141Y4743500D01*
X6410198Y4733950D01*
X6405727Y4723587D01*
X6404965Y4721301D01*
X6402832Y4712665D01*
X6402425Y4710277D01*
X6401612Y4701438D01*
X6401562Y4124909D01*
X6400749Y4121048D01*
X6398564Y4117746D01*
X6327292Y4046321D01*
X6323990Y4044187D01*
X6320078Y4043324D01*
X6271666Y4043324D01*
X6268669Y4043781D01*
X6265926Y4045204D01*
X6263690Y4047236D01*
X6260592Y4051147D01*
X6249873Y4061866D01*
X6237935Y4071213D01*
X6224981Y4079087D01*
X6210147Y4085742D01*
X6206998Y4087926D01*
X6204864Y4091178D01*
X6204153Y4094987D01*
X6204864Y4098747D01*
X6206998Y4101998D01*
X6210147Y4104284D01*
X6224981Y4110837D01*
X6237935Y4118660D01*
X6249873Y4128008D01*
X6260592Y4138726D01*
X6269939Y4150715D01*
X6277762Y4163618D01*
X6284010Y4177487D01*
X6288532Y4191914D01*
X6291224Y4206900D01*
X6292138Y4221988D01*
X6291224Y4237126D01*
X6288532Y4252010D01*
X6284010Y4266488D01*
X6277762Y4280255D01*
X6269939Y4293311D01*
X6260592Y4305147D01*
X6249873Y4315866D01*
X6237935Y4325213D01*
X6224981Y4333087D01*
X6210147Y4339742D01*
X6206998Y4341926D01*
X6204864Y4345178D01*
X6204153Y4348988D01*
X6204864Y4352747D01*
X6206998Y4355998D01*
X6210147Y4358284D01*
X6224981Y4364837D01*
X6237935Y4372660D01*
X6249873Y4382008D01*
X6260592Y4392726D01*
X6269939Y4404715D01*
X6277762Y4417618D01*
X6284010Y4431487D01*
X6288532Y4445914D01*
X6291224Y4460900D01*
X6292138Y4475988D01*
X6291224Y4491126D01*
X6288532Y4506010D01*
X6284010Y4520488D01*
X6277762Y4534255D01*
X6269939Y4547311D01*
X6260592Y4559147D01*
X6249873Y4569866D01*
X6237935Y4579213D01*
X6224981Y4587087D01*
X6210147Y4593742D01*
X6206998Y4595926D01*
X6204864Y4599178D01*
X6204153Y4602988D01*
X6204864Y4606747D01*
X6206998Y4609998D01*
X6210147Y4612284D01*
X6224981Y4618837D01*
X6237935Y4626660D01*
X6249873Y4636008D01*
X6260592Y4646726D01*
X6269939Y4658715D01*
X6277762Y4671618D01*
X6284010Y4685487D01*
X6288532Y4699914D01*
X6291224Y4714900D01*
X6292138Y4729988D01*
X6291224Y4745126D01*
X6288532Y4760010D01*
X6284010Y4774488D01*
X6277762Y4788255D01*
X6269939Y4801311D01*
X6260592Y4813147D01*
X6249873Y4823866D01*
X6237935Y4833213D01*
X6224981Y4841087D01*
X6210147Y4847742D01*
X6208522Y4848860D01*
X6204813Y4849266D01*
X6196685Y4851806D01*
X6181801Y4854600D01*
X6166662Y4855514D01*
X6151524Y4854600D01*
X6136640Y4851806D01*
X6128512Y4849266D01*
X6124854Y4848860D01*
X6123178Y4847742D01*
X6108344Y4841087D01*
X6095390Y4833213D01*
X6083452Y4823866D01*
X6072733Y4813147D01*
X6063386Y4801311D01*
X6055563Y4788255D01*
X6049314Y4774488D01*
X6044844Y4760010D01*
X6042101Y4745126D01*
X6041186Y4729988D01*
X6042101Y4714900D01*
X6044844Y4699914D01*
X6049314Y4685487D01*
X6055563Y4671618D01*
X6063386Y4658715D01*
X6072733Y4646726D01*
X6083452Y4636008D01*
X6095390Y4626660D01*
X6108344Y4618837D01*
X6123178Y4612284D01*
X6126327Y4609998D01*
X6128461Y4606747D01*
X6129172Y4602988D01*
X6128461Y4599178D01*
X6126327Y4595926D01*
X6123178Y4593742D01*
X6108344Y4587087D01*
X6095390Y4579213D01*
X6083452Y4569866D01*
X6077864Y4564380D01*
X6074613Y4562094D01*
X6070701Y4561382D01*
X6003086Y4561382D01*
X5999226Y4562094D01*
X5995924Y4564380D01*
X5950356Y4609896D01*
X5948121Y4613249D01*
X5947359Y4617110D01*
X5947359Y5098338D01*
X5948172Y5102250D01*
X5950356Y5105552D01*
X5994298Y5149342D01*
X5997600Y5151577D01*
X6001512Y5152339D01*
X6070955Y5152339D01*
X6074816Y5151577D01*
X6078118Y5149342D01*
X6083452Y5144008D01*
X6095390Y5134660D01*
X6108344Y5126837D01*
X6123178Y5120284D01*
X6124854Y5119065D01*
X6128512Y5118658D01*
X6136640Y5116118D01*
X6151524Y5113426D01*
X6166662Y5112512D01*
X6181801Y5113426D01*
X6196685Y5116118D01*
X6204813Y5118658D01*
X6208522Y5119065D01*
X6210147Y5120284D01*
X6224981Y5126837D01*
X6237935Y5134660D01*
X6249873Y5144008D01*
X6255461Y5149646D01*
X6258763Y5151831D01*
X6262624Y5152593D01*
X6304635Y5152593D01*
X6310833Y5152796D01*
X6317030Y5153507D01*
X6322923Y5154523D01*
X6328918Y5156047D01*
X6334658Y5157927D01*
X6340348Y5160365D01*
X6345732Y5163007D01*
X6351066Y5166207D01*
X6355994Y5169662D01*
X6360820Y5173522D01*
X6365392Y5177688D01*
X6499250Y5311292D01*
X6503568Y5315966D01*
X6507327Y5320639D01*
X6510883Y5325719D01*
X6513931Y5330901D01*
X6516725Y5336438D01*
X6519011Y5342026D01*
X6520992Y5347919D01*
X6522466Y5353761D01*
X6523583Y5359806D01*
X6524244Y5365750D01*
X6524447Y5372150D01*
X6524447Y5782360D01*
X6525259Y5786221D01*
X6527444Y5789523D01*
X6580327Y5842254D01*
X6583578Y5844489D01*
X6587490Y5845251D01*
X6657848Y5845251D01*
X6661962Y5844387D01*
X6665366Y5841949D01*
X6667500Y5838342D01*
X6667957Y5834126D01*
X6666738Y5830163D01*
X6663994Y5827014D01*
X6660184Y5825185D01*
X6648196Y5822340D01*
X6633362Y5816955D01*
X6619290Y5809945D01*
X6606133Y5801207D01*
X6594094Y5791098D01*
X6583273Y5779668D01*
X6573824Y5767019D01*
X6565950Y5753354D01*
X6559753Y5738876D01*
X6555231Y5723788D01*
X6552488Y5708345D01*
X6551574Y5692546D01*
X6552488Y5676798D01*
X6555231Y5661304D01*
X6559753Y5646267D01*
X6565950Y5631738D01*
X6573824Y5618073D01*
X6583273Y5605475D01*
X6594094Y5594045D01*
X6606133Y5583885D01*
X6619290Y5575198D01*
X6633362Y5568188D01*
X6648196Y5562803D01*
X6663537Y5559094D01*
X6679184Y5557266D01*
X6694931Y5557266D01*
X6710578Y5559094D01*
X6725920Y5562803D01*
X6740702Y5568188D01*
X6754774Y5575198D01*
X6767982Y5583885D01*
X6780022Y5594045D01*
X6790842Y5605475D01*
X6800240Y5618073D01*
X6808114Y5631738D01*
X6814362Y5646267D01*
X6818884Y5661304D01*
X6821627Y5676798D01*
X6822541Y5692546D01*
X6821627Y5708345D01*
X6818884Y5723788D01*
X6814362Y5738876D01*
X6808114Y5753354D01*
X6800240Y5767019D01*
X6790842Y5779668D01*
X6780022Y5791098D01*
X6767982Y5801207D01*
X6754774Y5809945D01*
X6740702Y5816955D01*
X6725920Y5822340D01*
X6713880Y5825185D01*
X6710121Y5827014D01*
X6707378Y5830163D01*
X6706108Y5834126D01*
X6706616Y5838342D01*
X6708749Y5841949D01*
X6712153Y5844387D01*
X6716268Y5845251D01*
X6881977Y5845251D01*
X6885889Y5844489D01*
X6889140Y5842254D01*
X6947357Y5784189D01*
X6949541Y5780887D01*
X6950354Y5777026D01*
X6950354Y4826304D01*
X6950557Y4820005D01*
X6951218Y4813960D01*
X6952284Y4807915D01*
X6953808Y4802022D01*
X6955739Y4796231D01*
X6958075Y4790592D01*
X6960819Y4785156D01*
X6963918Y4779873D01*
X6967423Y4774895D01*
X6971233Y4770120D01*
X6975500Y4765497D01*
X7137857Y4603140D01*
X7140092Y4599838D01*
X7140854Y4595977D01*
X7140854Y3786022D01*
X7140041Y3782110D01*
X7137857Y3778808D01*
X7046925Y3688130D01*
X7043826Y3685946D01*
X7040168Y3685133D01*
X7036409Y3685692D01*
X7033158Y3687572D01*
X7030821Y3690518D01*
X7029703Y3692550D01*
X7025284Y3697935D01*
X7019950Y3702304D01*
X7013803Y3705606D01*
X7007148Y3707637D01*
X6999731Y3708298D01*
X6843268Y3708298D01*
X6835851Y3707637D01*
X6829196Y3705606D01*
X6823049Y3702304D01*
X6817664Y3697935D01*
X6813245Y3692550D01*
X6809994Y3686403D01*
X6807962Y3679799D01*
X6807250Y3672382D01*
X6807250Y3515817D01*
X6807962Y3508400D01*
X6809994Y3501745D01*
X6813245Y3495700D01*
X6817664Y3490315D01*
X6822998Y3485946D01*
X6830568Y3482035D01*
X6833463Y3479698D01*
X6835394Y3476599D01*
X6836054Y3472942D01*
X6836054Y3410407D01*
X6835394Y3406800D01*
X6833463Y3403650D01*
X6830568Y3401415D01*
X6822998Y3397504D01*
X6817664Y3393135D01*
X6813245Y3387750D01*
X6809994Y3381603D01*
X6807962Y3374999D01*
X6807250Y3367582D01*
X6807250Y3211017D01*
X6807962Y3203600D01*
X6809994Y3196945D01*
X6813245Y3190900D01*
X6817664Y3185515D01*
X6823049Y3181096D01*
X6829196Y3177794D01*
X6835851Y3175762D01*
X6843268Y3175050D01*
X6999731Y3175050D01*
X7007148Y3175762D01*
X7013803Y3177794D01*
X7019950Y3181096D01*
X7025284Y3185515D01*
X7029703Y3190849D01*
X7033564Y3198215D01*
X7035800Y3201111D01*
X7038949Y3203041D01*
X7042556Y3203651D01*
X7085228Y3203651D01*
X7089089Y3202889D01*
X7092391Y3200654D01*
X7125157Y3167989D01*
X7127341Y3164687D01*
X7128154Y3160776D01*
X7128154Y2084171D01*
X7127392Y2080310D01*
X7125157Y2077008D01*
X7104989Y2056841D01*
X7101687Y2054656D01*
X7097826Y2053843D01*
X7000798Y2053843D01*
X6997344Y2054453D01*
X6994296Y2056180D01*
X6988606Y2060956D01*
X6976516Y2068575D01*
X6963562Y2074722D01*
X6949897Y2079142D01*
X6935825Y2081784D01*
X6921500Y2082698D01*
X6907174Y2081784D01*
X6893102Y2079142D01*
X6879437Y2074722D01*
X6866432Y2068575D01*
X6854342Y2060956D01*
X6843268Y2051812D01*
X6833463Y2041296D01*
X6825030Y2029714D01*
X6818122Y2017115D01*
X6812838Y2003806D01*
X6809282Y1989886D01*
X6807504Y1975662D01*
X6807504Y1961337D01*
X6809282Y1947062D01*
X6812838Y1933193D01*
X6818122Y1919884D01*
X6825030Y1907286D01*
X6833463Y1895652D01*
X6843268Y1885238D01*
X6854342Y1876043D01*
X6866432Y1868373D01*
X6879437Y1862277D01*
X6893102Y1857857D01*
X6907174Y1855165D01*
X6921500Y1854250D01*
X6935825Y1855165D01*
X6949897Y1857857D01*
X6963562Y1862277D01*
X6976516Y1868373D01*
X6988606Y1876043D01*
X6993991Y1880514D01*
X6997039Y1882292D01*
X7000494Y1882851D01*
X7137247Y1882851D01*
X7143546Y1883054D01*
X7149642Y1883765D01*
X7155637Y1884781D01*
X7161530Y1886305D01*
X7167321Y1888236D01*
X7172959Y1890623D01*
X7178446Y1893316D01*
X7183678Y1896465D01*
X7188708Y1899920D01*
X7193432Y1903780D01*
X7198055Y1907997D01*
X7274001Y1983943D01*
X7278268Y1988566D01*
X7282078Y1993290D01*
X7285583Y1998319D01*
X7288682Y2003552D01*
X7291425Y2009038D01*
X7293762Y2014677D01*
X7295692Y2020519D01*
X7297216Y2026412D01*
X7298283Y2032355D01*
X7298944Y2038502D01*
X7299147Y2044750D01*
X7299147Y3200298D01*
X7298944Y3206750D01*
X7298283Y3212642D01*
X7297166Y3218789D01*
X7295692Y3224580D01*
X7293711Y3230524D01*
X7291425Y3236010D01*
X7288631Y3241649D01*
X7285583Y3246729D01*
X7282027Y3251911D01*
X7278268Y3256483D01*
X7273899Y3261207D01*
X7185253Y3349599D01*
X7180732Y3353765D01*
X7175906Y3357676D01*
X7170978Y3361080D01*
X7165594Y3364280D01*
X7160259Y3366922D01*
X7154519Y3369310D01*
X7148830Y3371189D01*
X7142784Y3372713D01*
X7136942Y3373780D01*
X7130745Y3374491D01*
X7124598Y3374644D01*
X7042607Y3374644D01*
X7039000Y3375304D01*
X7035850Y3377234D01*
X7033615Y3380181D01*
X7029653Y3387750D01*
X7025284Y3393135D01*
X7019950Y3397504D01*
X7012533Y3401415D01*
X7009638Y3403600D01*
X7007707Y3406800D01*
X7007047Y3410356D01*
X7007047Y3472992D01*
X7007707Y3476650D01*
X7009638Y3479749D01*
X7012533Y3482035D01*
X7019950Y3485946D01*
X7025284Y3490315D01*
X7029703Y3495649D01*
X7033564Y3503015D01*
X7035800Y3505911D01*
X7038949Y3507841D01*
X7042556Y3508451D01*
X7073493Y3508451D01*
X7079742Y3508654D01*
X7085888Y3509365D01*
X7091781Y3510381D01*
X7097775Y3511905D01*
X7103516Y3513785D01*
X7109206Y3516223D01*
X7114590Y3518865D01*
X7119924Y3522065D01*
X7124852Y3525469D01*
X7129678Y3529380D01*
X7134250Y3533546D01*
X7286650Y3685692D01*
X7290968Y3690365D01*
X7294778Y3695039D01*
X7298283Y3700119D01*
X7301382Y3705301D01*
X7304125Y3710838D01*
X7306411Y3716426D01*
X7308392Y3722319D01*
X7309866Y3728161D01*
X7310983Y3734206D01*
X7311644Y3740150D01*
X7311847Y3746550D01*
X7311847Y4635398D01*
X7311644Y4641697D01*
X7310983Y4647844D01*
X7309916Y4653838D01*
X7308392Y4659680D01*
X7306462Y4665522D01*
X7304125Y4671110D01*
X7301382Y4676597D01*
X7298283Y4681829D01*
X7294778Y4686858D01*
X7290968Y4691583D01*
X7286701Y4696256D01*
X7124344Y4858562D01*
X7122109Y4861915D01*
X7121347Y4865776D01*
X7121347Y5816498D01*
X7121144Y5822899D01*
X7120483Y5828842D01*
X7119366Y5834989D01*
X7117892Y5840780D01*
X7115911Y5846673D01*
X7113625Y5852210D01*
X7110831Y5857798D01*
X7107783Y5862929D01*
X7104227Y5868060D01*
X7100468Y5872683D01*
X7096099Y5877407D01*
X6982053Y5991199D01*
X6977532Y5995365D01*
X6972706Y5999276D01*
X6967778Y6002680D01*
X6962444Y6005880D01*
X6957059Y6008522D01*
X6951319Y6010910D01*
X6945630Y6012789D01*
X6939635Y6014313D01*
X6933742Y6015380D01*
X6927545Y6016091D01*
X6921347Y6016244D01*
X6548120Y6016244D01*
X6541922Y6016091D01*
X6535724Y6015380D01*
X6529831Y6014313D01*
X6523837Y6012789D01*
X6518148Y6010910D01*
X6512407Y6008522D01*
X6507022Y6005880D01*
X6501688Y6002680D01*
X6496761Y5999276D01*
X6491935Y5995365D01*
X6487414Y5991199D01*
X6378702Y5882741D01*
X6374333Y5878017D01*
X6370574Y5873394D01*
X6367018Y5868263D01*
X6363970Y5863132D01*
X6361176Y5857544D01*
X6358890Y5852007D01*
X6356908Y5846165D01*
X6355435Y5840323D01*
X6354318Y5834176D01*
X6353657Y5828233D01*
X6353454Y5821832D01*
X6353454Y5411622D01*
X6352641Y5407710D01*
X6350457Y5404510D01*
X6272428Y5326583D01*
X6269126Y5324398D01*
X6265265Y5323586D01*
X6262370Y5323586D01*
X6258509Y5324398D01*
X6255207Y5326583D01*
X6249873Y5331866D01*
X6237935Y5341213D01*
X6224981Y5349087D01*
X6210147Y5355742D01*
X6206998Y5357926D01*
X6204864Y5361178D01*
X6204153Y5364988D01*
X6204864Y5368747D01*
X6206998Y5371998D01*
X6210147Y5374284D01*
X6224981Y5380837D01*
X6237935Y5388660D01*
X6249873Y5398008D01*
X6260592Y5408726D01*
X6269939Y5420715D01*
X6277762Y5433618D01*
X6284010Y5447487D01*
X6288532Y5461914D01*
X6291224Y5476900D01*
X6292138Y5491988D01*
X6291224Y5507126D01*
X6288532Y5522010D01*
X6284010Y5536488D01*
X6277762Y5550255D01*
X6269939Y5563311D01*
X6260592Y5575147D01*
X6249873Y5585866D01*
X6237935Y5595213D01*
X6224981Y5603087D01*
X6211163Y5609285D01*
X6196685Y5613806D01*
X6181801Y5616600D01*
X6166662Y5617514D01*
X6151524Y5616600D01*
X6136640Y5613806D01*
X6122162Y5609285D01*
X6108344Y5603087D01*
X6095390Y5595213D01*
X6083452Y5585866D01*
X6077864Y5580380D01*
X6074613Y5578094D01*
X6070701Y5577382D01*
X5466842Y5577382D01*
X5460542Y5577128D01*
X5454446Y5576519D01*
X5448452Y5575452D01*
X5442559Y5573877D01*
X5436768Y5571947D01*
X5431129Y5569661D01*
X5425643Y5566867D01*
X5420410Y5563819D01*
X5415381Y5560314D01*
X5410657Y5556504D01*
X5406034Y5552186D01*
X5261000Y5407152D01*
X5256733Y5402580D01*
X5252923Y5397804D01*
X5249418Y5392826D01*
X5246319Y5387543D01*
X5243576Y5382107D01*
X5241239Y5376418D01*
X5239308Y5370626D01*
X5237784Y5364734D01*
X5236718Y5358739D01*
X5236057Y5352694D01*
X5235854Y5346395D01*
X5235854Y572871D01*
X5235092Y569010D01*
X5232857Y565708D01*
X5123789Y456641D01*
X5120487Y454456D01*
X5116626Y453643D01*
X4154474Y453643D01*
X4150614Y454456D01*
X4147312Y456641D01*
X3859479Y744474D01*
X3854856Y748741D01*
X3850132Y752551D01*
X3845102Y756056D01*
X3839870Y759206D01*
X3834384Y761898D01*
X3828745Y764235D01*
X3822954Y766165D01*
X3817061Y767689D01*
X3811066Y768756D01*
X3804970Y769467D01*
X3798671Y769620D01*
X3687724Y769620D01*
X3684270Y770229D01*
X3681272Y772007D01*
X3675583Y776681D01*
X3663492Y784352D01*
X3650487Y790498D01*
X3636873Y794918D01*
X3622751Y797560D01*
X3608425Y798474D01*
X3594150Y797560D01*
X3580028Y794918D01*
X3566414Y790498D01*
X3553409Y784352D01*
X3541318Y776681D01*
X3535781Y772109D01*
X3532733Y770331D01*
X3529279Y769772D01*
X3395472Y769772D01*
X3392068Y770331D01*
X3389020Y772109D01*
X3383483Y776681D01*
X3371392Y784352D01*
X3358387Y790498D01*
X3344773Y794918D01*
X3330651Y797560D01*
X3316325Y798474D01*
X3302050Y797560D01*
X3287928Y794918D01*
X3274314Y790498D01*
X3261309Y784352D01*
X3249218Y776681D01*
X3243681Y772109D01*
X3240633Y770331D01*
X3237179Y769772D01*
X3103372Y769772D01*
X3099968Y770331D01*
X3096920Y772109D01*
X3091383Y776681D01*
X3079292Y784352D01*
X3066288Y790498D01*
X3052673Y794918D01*
X3038551Y797560D01*
X3024225Y798474D01*
X3009950Y797560D01*
X2995828Y794918D01*
X2982214Y790498D01*
X2969209Y784352D01*
X2957118Y776681D01*
X2951581Y772109D01*
X2948533Y770331D01*
X2945079Y769772D01*
X2811272Y769772D01*
X2807868Y770331D01*
X2804820Y772109D01*
X2799283Y776681D01*
X2787192Y784352D01*
X2774188Y790498D01*
X2760573Y794918D01*
X2746451Y797560D01*
X2732125Y798474D01*
X2717850Y797560D01*
X2703728Y794918D01*
X2690114Y790498D01*
X2677109Y784352D01*
X2665018Y776681D01*
X2659481Y772109D01*
X2656433Y770331D01*
X2652979Y769772D01*
X2405735Y769772D01*
X2401722Y770585D01*
X2398318Y772972D01*
X2396744Y774649D01*
X2385720Y783793D01*
X2373579Y791514D01*
X2360625Y797560D01*
X2346960Y801979D01*
X2332888Y804722D01*
X2318562Y805637D01*
X2304237Y804722D01*
X2290165Y801979D01*
X2276500Y797560D01*
X2263546Y791514D01*
X2251405Y783793D01*
X2245918Y779272D01*
X2242870Y777443D01*
X2239416Y776884D01*
X2105609Y776884D01*
X2102154Y777443D01*
X2099157Y779272D01*
X2093620Y783793D01*
X2081479Y791514D01*
X2068525Y797560D01*
X2054860Y801979D01*
X2040788Y804722D01*
X2026462Y805637D01*
X2012137Y804722D01*
X1998065Y801979D01*
X1984400Y797560D01*
X1971446Y791514D01*
X1959305Y783793D01*
X1953818Y779272D01*
X1950770Y777443D01*
X1947316Y776884D01*
X1813509Y776884D01*
X1810054Y777443D01*
X1807057Y779272D01*
X1801520Y783793D01*
X1789379Y791514D01*
X1776425Y797560D01*
X1762760Y801979D01*
X1748688Y804722D01*
X1734362Y805637D01*
X1720037Y804722D01*
X1705965Y801979D01*
X1692300Y797560D01*
X1679346Y791514D01*
X1667205Y783793D01*
X1661718Y779272D01*
X1658670Y777443D01*
X1655216Y776884D01*
X1521409Y776884D01*
X1517954Y777443D01*
X1514957Y779272D01*
X1509420Y783793D01*
X1497279Y791514D01*
X1484325Y797560D01*
X1470660Y801979D01*
X1456588Y804722D01*
X1442262Y805637D01*
X1427937Y804722D01*
X1413865Y801979D01*
X1400200Y797560D01*
X1387246Y791514D01*
X1375105Y783793D01*
X1364081Y774649D01*
X1354277Y764184D01*
X1345844Y752551D01*
X1338935Y740003D01*
X1333652Y726643D01*
X1330045Y712825D01*
X1328267Y698550D01*
X1328267Y684174D01*
X1330045Y669950D01*
X1333652Y656132D01*
X1338935Y642721D01*
X1345844Y630174D01*
X1354277Y618591D01*
X1364081Y608076D01*
X1375105Y598982D01*
X1387246Y591261D01*
X1400200Y585165D01*
X1413865Y580694D01*
X1427937Y578104D01*
X1442262Y577138D01*
X1456588Y578104D01*
X1470660Y580694D01*
X1484325Y585165D01*
X1497279Y591261D01*
X1509420Y598982D01*
X1514957Y603504D01*
X1517954Y605231D01*
X1521409Y605891D01*
X1655216Y605891D01*
X1658670Y605231D01*
X1661718Y603504D01*
X1667205Y598982D01*
X1679346Y591261D01*
X1692300Y585165D01*
X1705965Y580694D01*
X1720037Y578104D01*
X1734362Y577138D01*
X1748688Y578104D01*
X1762760Y580694D01*
X1776425Y585165D01*
X1789379Y591261D01*
X1801520Y598982D01*
X1807057Y603504D01*
X1810054Y605231D01*
X1813509Y605891D01*
X1947316Y605891D01*
X1950770Y605231D01*
X1953818Y603504D01*
X1959305Y598982D01*
X1971446Y591261D01*
X1984400Y585165D01*
X1998065Y580694D01*
X2012137Y578104D01*
X2026462Y577138D01*
X2040788Y578104D01*
X2054860Y580694D01*
X2068525Y585165D01*
X2081479Y591261D01*
X2093620Y598982D01*
X2099157Y603504D01*
X2102154Y605231D01*
X2105609Y605891D01*
X2239416Y605891D01*
X2242870Y605231D01*
X2245918Y603504D01*
X2251405Y598982D01*
X2263546Y591261D01*
X2276500Y585165D01*
X2290165Y580694D01*
X2304237Y578104D01*
X2318562Y577138D01*
X2332888Y578104D01*
X2346960Y580694D01*
X2360625Y585165D01*
X2373579Y591261D01*
X2382875Y597154D01*
X2385517Y598322D01*
X2388311Y598728D01*
X2652979Y598728D01*
X2656433Y598119D01*
X2659481Y596392D01*
X2665018Y591820D01*
X2677109Y584149D01*
X2690114Y578104D01*
X2703728Y573633D01*
X2717850Y570941D01*
X2732125Y570026D01*
X2746451Y570941D01*
X2760573Y573633D01*
X2774188Y578104D01*
X2787192Y584149D01*
X2799283Y591820D01*
X2804820Y596392D01*
X2807868Y598119D01*
X2811272Y598728D01*
X2945079Y598728D01*
X2948533Y598119D01*
X2951581Y596392D01*
X2957118Y591820D01*
X2969209Y584149D01*
X2982214Y578104D01*
X2995828Y573633D01*
X3009950Y570941D01*
X3024225Y570026D01*
X3038551Y570941D01*
X3052673Y573633D01*
X3066288Y578104D01*
X3079292Y584149D01*
X3091383Y591820D01*
X3096920Y596392D01*
X3099968Y598119D01*
X3103372Y598728D01*
X3237179Y598728D01*
X3240633Y598119D01*
X3243681Y596392D01*
X3249218Y591820D01*
X3261309Y584149D01*
X3274314Y578104D01*
X3287928Y573633D01*
X3302050Y570941D01*
X3316325Y570026D01*
X3330651Y570941D01*
X3344773Y573633D01*
X3358387Y578104D01*
X3371392Y584149D01*
X3383483Y591820D01*
X3389020Y596392D01*
X3392068Y598119D01*
X3395472Y598728D01*
X3529279Y598728D01*
X3532733Y598119D01*
X3535781Y596392D01*
X3541318Y591820D01*
X3553409Y584149D01*
X3566414Y578104D01*
X3580028Y573633D01*
X3594150Y570941D01*
X3608425Y570026D01*
X3622751Y570941D01*
X3636873Y573633D01*
X3650487Y578104D01*
X3663492Y584149D01*
X3675583Y591820D01*
X3680968Y596290D01*
X3684015Y598068D01*
X3687419Y598627D01*
X3759250Y598627D01*
X3763111Y597865D01*
X3766413Y595680D01*
X4054246Y307797D01*
X4058869Y303580D01*
X4063593Y299720D01*
X4068622Y296265D01*
X4073855Y293116D01*
X4079341Y290372D01*
X4084980Y288036D01*
X4090771Y286105D01*
X4096664Y284581D01*
X4102658Y283565D01*
X4108754Y282854D01*
G37*
G36*
X3270605Y325780D02*
G01*
X3270605Y384556D01*
X3211830Y384556D01*
X3212998Y381660D01*
X3219907Y369062D01*
X3228340Y357428D01*
X3238144Y347014D01*
X3249218Y337820D01*
X3261309Y330149D01*
G37*
G36*
X3562705Y325780D02*
G01*
X3562705Y384556D01*
X3503929Y384556D01*
X3505098Y381660D01*
X3512007Y369062D01*
X3520440Y357428D01*
X3530244Y347014D01*
X3541318Y337820D01*
X3553409Y330149D01*
G37*
G36*
X2978505Y325780D02*
G01*
X2978505Y384556D01*
X2919730Y384556D01*
X2920898Y381660D01*
X2927807Y369062D01*
X2936240Y357428D01*
X2946044Y347014D01*
X2957118Y337820D01*
X2969209Y330149D01*
G37*
G36*
X2686405Y325780D02*
G01*
X2686405Y384556D01*
X2627630Y384556D01*
X2628798Y381660D01*
X2635707Y369062D01*
X2644140Y357428D01*
X2653944Y347014D01*
X2665018Y337820D01*
X2677109Y330149D01*
G37*
G36*
X3362045Y325780D02*
G01*
X3371392Y330149D01*
X3383483Y337820D01*
X3394557Y347014D01*
X3404362Y357428D01*
X3412794Y369062D01*
X3419703Y381660D01*
X3420872Y384556D01*
X3362045Y384556D01*
G37*
G36*
X3069945Y325780D02*
G01*
X3079292Y330149D01*
X3091383Y337820D01*
X3102457Y347014D01*
X3112262Y357428D01*
X3120694Y369062D01*
X3127603Y381660D01*
X3128772Y384556D01*
X3069945Y384556D01*
G37*
G36*
X3654145Y325780D02*
G01*
X3663492Y330149D01*
X3675583Y337820D01*
X3686657Y347014D01*
X3696462Y357428D01*
X3704894Y369062D01*
X3711803Y381660D01*
X3712972Y384556D01*
X3654145Y384556D01*
G37*
G36*
X2777845Y325780D02*
G01*
X2787192Y330149D01*
X2799283Y337820D01*
X2810357Y347014D01*
X2820162Y357428D01*
X2828594Y369062D01*
X2835503Y381660D01*
X2836672Y384556D01*
X2777845Y384556D01*
G37*
G36*
X1487982Y332892D02*
G01*
X1497279Y337261D01*
X1509420Y344982D01*
X1520444Y354076D01*
X1530299Y364591D01*
X1538732Y376174D01*
X1545640Y388721D01*
X1546758Y391617D01*
X1487982Y391617D01*
G37*
G36*
X1780082Y332892D02*
G01*
X1789379Y337261D01*
X1801520Y344982D01*
X1812543Y354076D01*
X1822399Y364591D01*
X1830832Y376174D01*
X1837740Y388721D01*
X1838858Y391617D01*
X1780082Y391617D01*
G37*
G36*
X2364282Y332892D02*
G01*
X2373579Y337261D01*
X2385720Y344982D01*
X2396744Y354076D01*
X2406599Y364591D01*
X2415032Y376174D01*
X2421940Y388721D01*
X2423058Y391617D01*
X2364282Y391617D01*
G37*
G36*
X2072182Y332892D02*
G01*
X2081479Y337261D01*
X2093620Y344982D01*
X2104644Y354076D01*
X2114499Y364591D01*
X2122932Y376174D01*
X2129840Y388721D01*
X2130958Y391617D01*
X2072182Y391617D01*
G37*
G36*
X1688642Y332892D02*
G01*
X1688642Y391617D01*
X1629867Y391617D01*
X1631035Y388721D01*
X1637944Y376174D01*
X1646377Y364591D01*
X1656181Y354076D01*
X1667205Y344982D01*
X1679346Y337261D01*
G37*
G36*
X1980742Y332892D02*
G01*
X1980742Y391617D01*
X1921967Y391617D01*
X1923135Y388721D01*
X1930044Y376174D01*
X1938477Y364591D01*
X1948281Y354076D01*
X1959305Y344982D01*
X1971446Y337261D01*
G37*
G36*
X2272842Y332892D02*
G01*
X2272842Y391617D01*
X2214067Y391617D01*
X2215235Y388721D01*
X2222144Y376174D01*
X2230577Y364591D01*
X2240381Y354076D01*
X2251405Y344982D01*
X2263546Y337261D01*
G37*
G36*
X1396542Y332892D02*
G01*
X1396542Y391617D01*
X1337767Y391617D01*
X1338935Y388721D01*
X1345844Y376174D01*
X1354277Y364591D01*
X1364081Y354076D01*
X1375105Y344982D01*
X1387246Y337261D01*
G37*
G36*
X3211830Y475996D02*
G01*
X3270605Y475996D01*
X3270605Y534720D01*
X3261309Y530352D01*
X3249218Y522681D01*
X3238144Y513588D01*
X3228340Y503072D01*
X3219907Y491439D01*
X3212998Y478942D01*
G37*
G36*
X3503929Y475996D02*
G01*
X3562705Y475996D01*
X3562705Y534720D01*
X3553409Y530352D01*
X3541318Y522681D01*
X3530244Y513588D01*
X3520440Y503072D01*
X3512007Y491439D01*
X3505098Y478942D01*
G37*
G36*
X2627630Y475996D02*
G01*
X2686405Y475996D01*
X2686405Y534720D01*
X2677109Y530352D01*
X2665018Y522681D01*
X2653944Y513588D01*
X2644140Y503072D01*
X2635707Y491439D01*
X2628798Y478942D01*
G37*
G36*
X2919730Y475996D02*
G01*
X2978505Y475996D01*
X2978505Y534720D01*
X2969209Y530352D01*
X2957118Y522681D01*
X2946044Y513588D01*
X2936240Y503072D01*
X2927807Y491439D01*
X2920898Y478942D01*
G37*
G36*
X3362045Y475996D02*
G01*
X3420872Y475996D01*
X3419703Y478942D01*
X3412794Y491439D01*
X3404362Y503072D01*
X3394557Y513588D01*
X3383483Y522681D01*
X3371392Y530352D01*
X3362045Y534720D01*
G37*
G36*
X3069945Y475996D02*
G01*
X3128772Y475996D01*
X3127603Y478942D01*
X3120694Y491439D01*
X3112262Y503072D01*
X3102457Y513588D01*
X3091383Y522681D01*
X3079292Y530352D01*
X3069945Y534720D01*
G37*
G36*
X2777845Y475996D02*
G01*
X2836672Y475996D01*
X2835503Y478942D01*
X2828594Y491439D01*
X2820162Y503072D01*
X2810357Y513588D01*
X2799283Y522681D01*
X2787192Y530352D01*
X2777845Y534720D01*
G37*
G36*
X3654145Y475996D02*
G01*
X3712972Y475996D01*
X3711803Y478942D01*
X3704894Y491439D01*
X3696462Y503072D01*
X3686657Y513588D01*
X3675583Y522681D01*
X3663492Y530352D01*
X3654145Y534720D01*
G37*
G36*
X1780082Y483057D02*
G01*
X1838858Y483057D01*
X1837740Y486003D01*
X1830832Y498551D01*
X1822399Y510184D01*
X1812543Y520649D01*
X1801520Y529793D01*
X1789379Y537514D01*
X1780082Y541883D01*
G37*
G36*
X2072182Y483057D02*
G01*
X2130958Y483057D01*
X2129840Y486003D01*
X2122932Y498551D01*
X2114499Y510184D01*
X2104644Y520649D01*
X2093620Y529793D01*
X2081479Y537514D01*
X2072182Y541883D01*
G37*
G36*
X2364282Y483057D02*
G01*
X2423058Y483057D01*
X2421940Y486003D01*
X2415032Y498551D01*
X2406599Y510184D01*
X2396744Y520649D01*
X2385720Y529793D01*
X2373579Y537514D01*
X2364282Y541883D01*
G37*
G36*
X1487982Y483057D02*
G01*
X1546758Y483057D01*
X1545640Y486003D01*
X1538732Y498551D01*
X1530299Y510184D01*
X1520444Y520649D01*
X1509420Y529793D01*
X1497279Y537514D01*
X1487982Y541883D01*
G37*
G36*
X1629867Y483057D02*
G01*
X1688642Y483057D01*
X1688642Y541883D01*
X1679346Y537514D01*
X1667205Y529793D01*
X1656181Y520649D01*
X1646377Y510184D01*
X1637944Y498551D01*
X1631035Y486003D01*
G37*
G36*
X1921967Y483057D02*
G01*
X1980742Y483057D01*
X1980742Y541883D01*
X1971446Y537514D01*
X1959305Y529793D01*
X1948281Y520649D01*
X1938477Y510184D01*
X1930044Y498551D01*
X1923135Y486003D01*
G37*
G36*
X1337767Y483057D02*
G01*
X1396542Y483057D01*
X1396542Y541883D01*
X1387246Y537514D01*
X1375105Y529793D01*
X1364081Y520649D01*
X1354277Y510184D01*
X1345844Y498551D01*
X1338935Y486003D01*
G37*
G36*
X2214067Y483057D02*
G01*
X2272842Y483057D01*
X2272842Y541883D01*
X2263546Y537514D01*
X2251405Y529793D01*
X2240381Y520649D01*
X2230577Y510184D01*
X2222144Y498551D01*
X2215235Y486003D01*
G37*
G36*
X4299153Y540461D02*
G01*
X4478172Y540461D01*
X4485589Y541172D01*
X4492244Y543204D01*
X4498390Y546455D01*
X4503724Y550875D01*
X4508144Y556260D01*
X4511446Y562457D01*
X4513427Y569061D01*
X4514189Y576529D01*
X4514189Y755446D01*
X4513427Y762863D01*
X4511446Y769569D01*
X4508144Y775665D01*
X4503724Y781050D01*
X4498390Y785418D01*
X4492244Y788720D01*
X4485589Y790752D01*
X4478172Y791514D01*
X4454702Y791514D01*
X4450435Y792480D01*
X4446930Y795020D01*
X4444898Y798880D01*
X4444644Y803300D01*
X4446270Y807313D01*
X4449419Y810310D01*
X4459935Y816660D01*
X4471873Y826008D01*
X4482592Y836726D01*
X4491939Y848715D01*
X4499762Y861618D01*
X4506010Y875487D01*
X4510532Y889914D01*
X4513224Y904900D01*
X4514138Y919987D01*
X4513224Y935126D01*
X4510532Y950010D01*
X4506010Y964488D01*
X4499762Y978255D01*
X4491939Y991311D01*
X4482592Y1003147D01*
X4471873Y1013866D01*
X4459935Y1023213D01*
X4446981Y1031087D01*
X4432147Y1037742D01*
X4430522Y1038860D01*
X4426813Y1039266D01*
X4418685Y1041806D01*
X4403801Y1044600D01*
X4388662Y1045514D01*
X4373524Y1044600D01*
X4358640Y1041806D01*
X4350512Y1039266D01*
X4346854Y1038860D01*
X4345178Y1037742D01*
X4330344Y1031087D01*
X4317390Y1023213D01*
X4305452Y1013866D01*
X4294733Y1003147D01*
X4285386Y991311D01*
X4277563Y978255D01*
X4271314Y964488D01*
X4266844Y950010D01*
X4264101Y935126D01*
X4263186Y919987D01*
X4264101Y904900D01*
X4266844Y889914D01*
X4271314Y875487D01*
X4277563Y861618D01*
X4285386Y848715D01*
X4294733Y836726D01*
X4305452Y826008D01*
X4317390Y816660D01*
X4327906Y810310D01*
X4331055Y807313D01*
X4332681Y803300D01*
X4332427Y798880D01*
X4330395Y795020D01*
X4326890Y792480D01*
X4322622Y791514D01*
X4299153Y791514D01*
X4291736Y790752D01*
X4285081Y788720D01*
X4278985Y785418D01*
X4273600Y781050D01*
X4269181Y775665D01*
X4265930Y769569D01*
X4263898Y762863D01*
X4263186Y755446D01*
X4263186Y576529D01*
X4263898Y569061D01*
X4265930Y562457D01*
X4269181Y556260D01*
X4273600Y550875D01*
X4278985Y546455D01*
X4285081Y543204D01*
X4291736Y541172D01*
G37*
G36*
X6921500Y546150D02*
G01*
X6935825Y547065D01*
X6949897Y549757D01*
X6963562Y554177D01*
X6976516Y560273D01*
X6988657Y567944D01*
X6999681Y577138D01*
X7009485Y587552D01*
X7017918Y599186D01*
X7024827Y611784D01*
X7030110Y625094D01*
X7033717Y638962D01*
X7035495Y653237D01*
X7035495Y667562D01*
X7033717Y681786D01*
X7030110Y695706D01*
X7024827Y709015D01*
X7017918Y721614D01*
X7009485Y733196D01*
X6999681Y743661D01*
X6988657Y752856D01*
X6976516Y760476D01*
X6963562Y766622D01*
X6949897Y771042D01*
X6935825Y773684D01*
X6921500Y774598D01*
X6907174Y773684D01*
X6893102Y771042D01*
X6879437Y766622D01*
X6866483Y760476D01*
X6854342Y752856D01*
X6843318Y743661D01*
X6833463Y733196D01*
X6825030Y721614D01*
X6818122Y709015D01*
X6812838Y695706D01*
X6809282Y681786D01*
X6807504Y667562D01*
X6807504Y653237D01*
X6809282Y638962D01*
X6812838Y625094D01*
X6818122Y611784D01*
X6825030Y599186D01*
X6833463Y587552D01*
X6843318Y577138D01*
X6854342Y567944D01*
X6866483Y560273D01*
X6879437Y554177D01*
X6893102Y549757D01*
X6907174Y547065D01*
G37*
G36*
X6875780Y809904D02*
G01*
X6875780Y868680D01*
X6817004Y868680D01*
X6818122Y865784D01*
X6825030Y853186D01*
X6833463Y841552D01*
X6843318Y831138D01*
X6854342Y821944D01*
X6866483Y814273D01*
G37*
G36*
X6967220Y809904D02*
G01*
X6976516Y814273D01*
X6988657Y821944D01*
X6999681Y831138D01*
X7009485Y841552D01*
X7017918Y853186D01*
X7024827Y865784D01*
X7025995Y868680D01*
X6967220Y868680D01*
G37*
G36*
X3530193Y823976D02*
G01*
X3686708Y823976D01*
X3694125Y824788D01*
X3700729Y826719D01*
X3706876Y830071D01*
X3712260Y834491D01*
X3716680Y839876D01*
X3719931Y845921D01*
X3721963Y852627D01*
X3722674Y859993D01*
X3722674Y1016508D01*
X3721963Y1023975D01*
X3719931Y1030579D01*
X3716680Y1036726D01*
X3712260Y1042111D01*
X3706876Y1046530D01*
X3700729Y1049731D01*
X3694125Y1051814D01*
X3686708Y1052474D01*
X3530193Y1052474D01*
X3522776Y1051814D01*
X3516122Y1049731D01*
X3510026Y1046530D01*
X3504641Y1042111D01*
X3500221Y1036726D01*
X3496919Y1030579D01*
X3494938Y1023975D01*
X3494176Y1016508D01*
X3494176Y859993D01*
X3494938Y852627D01*
X3496919Y845921D01*
X3500221Y839876D01*
X3504641Y834491D01*
X3510026Y830071D01*
X3516122Y826719D01*
X3522776Y824788D01*
G37*
G36*
X3238093Y823976D02*
G01*
X3394608Y823976D01*
X3402025Y824788D01*
X3408629Y826719D01*
X3414776Y830071D01*
X3420160Y834491D01*
X3424580Y839876D01*
X3427831Y845921D01*
X3429863Y852627D01*
X3430574Y859993D01*
X3430574Y1016508D01*
X3429863Y1023975D01*
X3427831Y1030579D01*
X3424580Y1036726D01*
X3420160Y1042111D01*
X3414776Y1046530D01*
X3408629Y1049731D01*
X3402025Y1051814D01*
X3394608Y1052474D01*
X3238093Y1052474D01*
X3230676Y1051814D01*
X3224022Y1049731D01*
X3217926Y1046530D01*
X3212541Y1042111D01*
X3208121Y1036726D01*
X3204819Y1030579D01*
X3202838Y1023975D01*
X3202076Y1016508D01*
X3202076Y859993D01*
X3202838Y852627D01*
X3204819Y845921D01*
X3208121Y839876D01*
X3212541Y834491D01*
X3217926Y830071D01*
X3224022Y826719D01*
X3230676Y824788D01*
G37*
G36*
X2945993Y823976D02*
G01*
X3102508Y823976D01*
X3109925Y824788D01*
X3116529Y826719D01*
X3122676Y830071D01*
X3128060Y834491D01*
X3132480Y839876D01*
X3135731Y845921D01*
X3137763Y852627D01*
X3138474Y859993D01*
X3138474Y1016508D01*
X3137763Y1023975D01*
X3135731Y1030579D01*
X3132480Y1036726D01*
X3128060Y1042111D01*
X3122676Y1046530D01*
X3116529Y1049731D01*
X3109925Y1051814D01*
X3102508Y1052474D01*
X2945993Y1052474D01*
X2938576Y1051814D01*
X2931922Y1049731D01*
X2925826Y1046530D01*
X2920441Y1042111D01*
X2916021Y1036726D01*
X2912719Y1030579D01*
X2910738Y1023975D01*
X2909976Y1016508D01*
X2909976Y859993D01*
X2910738Y852627D01*
X2912719Y845921D01*
X2916021Y839876D01*
X2920441Y834491D01*
X2925826Y830071D01*
X2931922Y826719D01*
X2938576Y824788D01*
G37*
G36*
X2653893Y823976D02*
G01*
X2810408Y823976D01*
X2817825Y824788D01*
X2824429Y826719D01*
X2830576Y830071D01*
X2835960Y834491D01*
X2840380Y839876D01*
X2843631Y845921D01*
X2845663Y852627D01*
X2846374Y859993D01*
X2846374Y1016508D01*
X2845663Y1023975D01*
X2843631Y1030579D01*
X2840380Y1036726D01*
X2835960Y1042111D01*
X2830576Y1046530D01*
X2824429Y1049731D01*
X2817825Y1051814D01*
X2810408Y1052474D01*
X2653893Y1052474D01*
X2646476Y1051814D01*
X2639822Y1049731D01*
X2633726Y1046530D01*
X2628341Y1042111D01*
X2623921Y1036726D01*
X2620619Y1030579D01*
X2618638Y1023975D01*
X2617876Y1016508D01*
X2617876Y859993D01*
X2618638Y852627D01*
X2620619Y845921D01*
X2623921Y839876D01*
X2628341Y834491D01*
X2633726Y830071D01*
X2639822Y826719D01*
X2646476Y824788D01*
G37*
G36*
X2240330Y831138D02*
G01*
X2396794Y831138D01*
X2404211Y831850D01*
X2410866Y833831D01*
X2417013Y837133D01*
X2422398Y841552D01*
X2426766Y846937D01*
X2430068Y853084D01*
X2432100Y859688D01*
X2432812Y867156D01*
X2432812Y1023619D01*
X2432100Y1031036D01*
X2430068Y1037742D01*
X2426766Y1043787D01*
X2422398Y1049172D01*
X2417013Y1053592D01*
X2410866Y1056843D01*
X2404211Y1058875D01*
X2396794Y1059637D01*
X2240330Y1059637D01*
X2232914Y1058875D01*
X2226259Y1056843D01*
X2220112Y1053592D01*
X2214778Y1049172D01*
X2210358Y1043787D01*
X2207056Y1037742D01*
X2205024Y1031036D01*
X2204313Y1023619D01*
X2204313Y867156D01*
X2205024Y859688D01*
X2207056Y853084D01*
X2210358Y846937D01*
X2214778Y841552D01*
X2220112Y837133D01*
X2226259Y833831D01*
X2232914Y831850D01*
G37*
G36*
X1948230Y831138D02*
G01*
X2104694Y831138D01*
X2112111Y831850D01*
X2118766Y833831D01*
X2124913Y837133D01*
X2130298Y841552D01*
X2134666Y846937D01*
X2137968Y853084D01*
X2140000Y859688D01*
X2140712Y867156D01*
X2140712Y1023619D01*
X2140000Y1031036D01*
X2137968Y1037742D01*
X2134666Y1043787D01*
X2130298Y1049172D01*
X2124913Y1053592D01*
X2118766Y1056843D01*
X2112111Y1058875D01*
X2104694Y1059637D01*
X1948230Y1059637D01*
X1940814Y1058875D01*
X1934159Y1056843D01*
X1928012Y1053592D01*
X1922678Y1049172D01*
X1918258Y1043787D01*
X1914956Y1037742D01*
X1912924Y1031036D01*
X1912213Y1023619D01*
X1912213Y867156D01*
X1912924Y859688D01*
X1914956Y853084D01*
X1918258Y846937D01*
X1922678Y841552D01*
X1928012Y837133D01*
X1934159Y833831D01*
X1940814Y831850D01*
G37*
G36*
X1656130Y831138D02*
G01*
X1812594Y831138D01*
X1820011Y831850D01*
X1826666Y833831D01*
X1832813Y837133D01*
X1838198Y841552D01*
X1842566Y846937D01*
X1845868Y853084D01*
X1847900Y859688D01*
X1848612Y867156D01*
X1848612Y1023619D01*
X1847900Y1031036D01*
X1845868Y1037742D01*
X1842566Y1043787D01*
X1838198Y1049172D01*
X1832813Y1053592D01*
X1826666Y1056843D01*
X1820011Y1058875D01*
X1812594Y1059637D01*
X1656130Y1059637D01*
X1648714Y1058875D01*
X1642059Y1056843D01*
X1635912Y1053592D01*
X1630578Y1049172D01*
X1626158Y1043787D01*
X1622856Y1037742D01*
X1620824Y1031036D01*
X1620113Y1023619D01*
X1620113Y867156D01*
X1620824Y859688D01*
X1622856Y853084D01*
X1626158Y846937D01*
X1630578Y841552D01*
X1635912Y837133D01*
X1642059Y833831D01*
X1648714Y831850D01*
G37*
G36*
X1364030Y831138D02*
G01*
X1520494Y831138D01*
X1527911Y831850D01*
X1534566Y833831D01*
X1540713Y837133D01*
X1546098Y841552D01*
X1550466Y846937D01*
X1553768Y853084D01*
X1555800Y859688D01*
X1556512Y867156D01*
X1556512Y1023619D01*
X1555800Y1031036D01*
X1553768Y1037742D01*
X1550466Y1043787D01*
X1546098Y1049172D01*
X1540713Y1053592D01*
X1534566Y1056843D01*
X1527911Y1058875D01*
X1520494Y1059637D01*
X1364030Y1059637D01*
X1356614Y1058875D01*
X1349959Y1056843D01*
X1343812Y1053592D01*
X1338478Y1049172D01*
X1334058Y1043787D01*
X1330756Y1037742D01*
X1328724Y1031036D01*
X1328013Y1023619D01*
X1328013Y867156D01*
X1328724Y859688D01*
X1330756Y853084D01*
X1334058Y846937D01*
X1338478Y841552D01*
X1343812Y837133D01*
X1349959Y833831D01*
X1356614Y831850D01*
G37*
G36*
X6817004Y960069D02*
G01*
X6875780Y960069D01*
X6875780Y1018844D01*
X6866483Y1014476D01*
X6854342Y1006856D01*
X6843318Y997712D01*
X6833463Y987196D01*
X6825030Y975614D01*
X6818122Y963015D01*
G37*
G36*
X6967220Y960069D02*
G01*
X7025995Y960069D01*
X7024827Y963015D01*
X7017918Y975614D01*
X7009485Y987196D01*
X6999681Y997712D01*
X6988657Y1006856D01*
X6976516Y1014476D01*
X6967220Y1018844D01*
G37*
G36*
X6218021Y1059738D02*
G01*
X6224981Y1062837D01*
X6237935Y1070660D01*
X6249873Y1080008D01*
X6260592Y1090726D01*
X6269939Y1102715D01*
X6277762Y1115618D01*
X6280912Y1122680D01*
X6218021Y1122680D01*
G37*
G36*
X4440021Y1059738D02*
G01*
X4446981Y1062837D01*
X4459935Y1070660D01*
X4471873Y1080008D01*
X4482592Y1090726D01*
X4491939Y1102715D01*
X4499762Y1115618D01*
X4502912Y1122680D01*
X4440021Y1122680D01*
G37*
G36*
X6115304Y1059738D02*
G01*
X6115304Y1122680D01*
X6052413Y1122680D01*
X6055563Y1115618D01*
X6063386Y1102715D01*
X6072733Y1090726D01*
X6083452Y1080008D01*
X6095390Y1070660D01*
X6108344Y1062837D01*
G37*
G36*
X4337304Y1059738D02*
G01*
X4337304Y1122680D01*
X4274413Y1122680D01*
X4277563Y1115618D01*
X4285386Y1102715D01*
X4294733Y1090726D01*
X4305452Y1080008D01*
X4317390Y1070660D01*
X4330344Y1062837D01*
G37*
G36*
X762000Y1204772D02*
G01*
X776782Y1205788D01*
X791311Y1208481D01*
X805434Y1213104D01*
X818845Y1219454D01*
X831342Y1227328D01*
X842771Y1236776D01*
X852881Y1247546D01*
X861618Y1259535D01*
X868730Y1272590D01*
X874217Y1286357D01*
X877874Y1300683D01*
X879754Y1315364D01*
X879754Y1330248D01*
X877874Y1344930D01*
X874217Y1359255D01*
X868730Y1373022D01*
X861618Y1386027D01*
X852881Y1397965D01*
X842771Y1408785D01*
X831342Y1418234D01*
X818845Y1426159D01*
X805434Y1432458D01*
X791311Y1437081D01*
X787450Y1437792D01*
X783793Y1439316D01*
X780948Y1442161D01*
X779424Y1445768D01*
X779424Y1449781D01*
X780948Y1453438D01*
X783793Y1456283D01*
X787450Y1457807D01*
X791311Y1458468D01*
X805434Y1463141D01*
X818845Y1469440D01*
X831342Y1477365D01*
X842771Y1486763D01*
X852881Y1497584D01*
X861618Y1509572D01*
X868730Y1522526D01*
X874217Y1536344D01*
X877874Y1550670D01*
X879754Y1565351D01*
X879754Y1580184D01*
X877874Y1594866D01*
X874217Y1609242D01*
X868730Y1623009D01*
X861618Y1636064D01*
X852881Y1648002D01*
X842771Y1658772D01*
X831342Y1668272D01*
X818845Y1676146D01*
X805434Y1682496D01*
X791311Y1687068D01*
X776782Y1689862D01*
X762000Y1690827D01*
X747217Y1689862D01*
X732637Y1687068D01*
X718566Y1682496D01*
X705154Y1676146D01*
X692607Y1668272D01*
X681228Y1658772D01*
X671068Y1648002D01*
X662381Y1636064D01*
X655218Y1623009D01*
X649782Y1609242D01*
X646074Y1594866D01*
X644245Y1580184D01*
X644245Y1565351D01*
X646074Y1550670D01*
X649782Y1536344D01*
X655218Y1522526D01*
X662381Y1509572D01*
X671068Y1497584D01*
X681228Y1486763D01*
X692607Y1477365D01*
X705154Y1469440D01*
X718566Y1463141D01*
X732637Y1458468D01*
X736498Y1457807D01*
X740206Y1456283D01*
X743051Y1453438D01*
X744575Y1449781D01*
X744575Y1445768D01*
X743051Y1442161D01*
X740206Y1439316D01*
X736498Y1437792D01*
X732637Y1437081D01*
X718566Y1432458D01*
X705154Y1426159D01*
X692607Y1418234D01*
X681228Y1408785D01*
X671068Y1397965D01*
X662381Y1386027D01*
X655218Y1373022D01*
X649782Y1359255D01*
X646074Y1344930D01*
X644245Y1330248D01*
X644245Y1315364D01*
X646074Y1300683D01*
X649782Y1286357D01*
X655218Y1272590D01*
X662381Y1259535D01*
X671068Y1247546D01*
X681228Y1236776D01*
X692607Y1227328D01*
X705154Y1219454D01*
X718566Y1213104D01*
X732637Y1208481D01*
X747217Y1205788D01*
G37*
G36*
X5562600Y1219250D02*
G01*
X5576925Y1220165D01*
X5590997Y1222857D01*
X5604662Y1227277D01*
X5617616Y1233373D01*
X5629757Y1241044D01*
X5640781Y1250238D01*
X5650585Y1260652D01*
X5659018Y1272286D01*
X5665927Y1284884D01*
X5671210Y1298194D01*
X5674817Y1312062D01*
X5676595Y1326337D01*
X5676595Y1340662D01*
X5674817Y1354886D01*
X5671210Y1368806D01*
X5665927Y1382115D01*
X5659018Y1394714D01*
X5650585Y1406296D01*
X5640781Y1416812D01*
X5629757Y1425956D01*
X5617616Y1433576D01*
X5604662Y1439722D01*
X5590997Y1444142D01*
X5576925Y1446784D01*
X5562600Y1447698D01*
X5548274Y1446784D01*
X5534202Y1444142D01*
X5520537Y1439722D01*
X5507583Y1433576D01*
X5495442Y1425956D01*
X5484418Y1416812D01*
X5474563Y1406296D01*
X5466130Y1394714D01*
X5459222Y1382115D01*
X5453938Y1368806D01*
X5450382Y1354886D01*
X5448604Y1340662D01*
X5448604Y1326337D01*
X5450382Y1312062D01*
X5453938Y1298194D01*
X5459222Y1284884D01*
X5466130Y1272286D01*
X5474563Y1260652D01*
X5484418Y1250238D01*
X5495442Y1241044D01*
X5507583Y1233373D01*
X5520537Y1227277D01*
X5534202Y1222857D01*
X5548274Y1220165D01*
G37*
G36*
X4274413Y1225296D02*
G01*
X4337304Y1225296D01*
X4337304Y1288237D01*
X4330344Y1285087D01*
X4317390Y1277213D01*
X4305452Y1267866D01*
X4294733Y1257147D01*
X4285386Y1245311D01*
X4277563Y1232255D01*
G37*
G36*
X6218021Y1225296D02*
G01*
X6280912Y1225296D01*
X6277762Y1232255D01*
X6269939Y1245311D01*
X6260592Y1257147D01*
X6249873Y1267866D01*
X6237935Y1277213D01*
X6224981Y1285087D01*
X6218021Y1288237D01*
G37*
G36*
X6052413Y1225296D02*
G01*
X6115304Y1225296D01*
X6115304Y1288237D01*
X6108344Y1285087D01*
X6095390Y1277213D01*
X6083452Y1267866D01*
X6072733Y1257147D01*
X6063386Y1245311D01*
X6055563Y1232255D01*
G37*
G36*
X4440021Y1225296D02*
G01*
X4502912Y1225296D01*
X4499762Y1232255D01*
X4491939Y1245311D01*
X4482592Y1257147D01*
X4471873Y1267866D01*
X4459935Y1277213D01*
X4446981Y1285087D01*
X4440021Y1288237D01*
G37*
G36*
X5061762Y1227378D02*
G01*
X5076037Y1228293D01*
X5090109Y1231087D01*
X5103672Y1235557D01*
X5116576Y1241806D01*
X5128564Y1249527D01*
X5139486Y1258824D01*
X5149088Y1269441D01*
X5157266Y1281176D01*
X5163921Y1293825D01*
X5168849Y1307338D01*
X5172049Y1321257D01*
X5173421Y1335481D01*
X5172964Y1349857D01*
X5170678Y1363980D01*
X5166563Y1377696D01*
X5160772Y1390700D01*
X5153355Y1402994D01*
X5144465Y1414221D01*
X5134152Y1424127D01*
X5122722Y1432661D01*
X5110226Y1439722D01*
X5096967Y1445107D01*
X5083098Y1448663D01*
X5068925Y1450492D01*
X5054600Y1450492D01*
X5040426Y1448663D01*
X5026558Y1445107D01*
X5013299Y1439722D01*
X5000853Y1432661D01*
X4989372Y1424127D01*
X4979111Y1414221D01*
X4970170Y1402994D01*
X4962753Y1390700D01*
X4956962Y1377696D01*
X4952898Y1363980D01*
X4950612Y1349857D01*
X4950155Y1335481D01*
X4951526Y1321257D01*
X4954676Y1307338D01*
X4959654Y1293825D01*
X4966258Y1281176D01*
X4974437Y1269441D01*
X4984089Y1258824D01*
X4994960Y1249527D01*
X5006949Y1241806D01*
X5019852Y1235557D01*
X5033416Y1231087D01*
X5047488Y1228293D01*
G37*
G36*
X4388662Y1302512D02*
G01*
X4403801Y1303426D01*
X4418685Y1306118D01*
X4426813Y1308658D01*
X4430522Y1309065D01*
X4432147Y1310284D01*
X4446981Y1316837D01*
X4459935Y1324660D01*
X4471873Y1334008D01*
X4482592Y1344726D01*
X4491939Y1356715D01*
X4499762Y1369618D01*
X4506010Y1383487D01*
X4510532Y1397914D01*
X4513224Y1412900D01*
X4514138Y1427988D01*
X4513224Y1443126D01*
X4510532Y1458010D01*
X4506010Y1472488D01*
X4499762Y1486255D01*
X4491939Y1499311D01*
X4482592Y1511147D01*
X4471873Y1521866D01*
X4459935Y1531213D01*
X4446981Y1539087D01*
X4432147Y1545742D01*
X4428998Y1547926D01*
X4426864Y1551178D01*
X4426153Y1554988D01*
X4426864Y1558747D01*
X4428998Y1561998D01*
X4432147Y1564284D01*
X4446981Y1570837D01*
X4459935Y1578660D01*
X4471873Y1588008D01*
X4482592Y1598726D01*
X4491939Y1610715D01*
X4499762Y1623618D01*
X4506010Y1637487D01*
X4510532Y1651914D01*
X4513224Y1666900D01*
X4514138Y1681988D01*
X4513224Y1697126D01*
X4510532Y1712010D01*
X4506010Y1726488D01*
X4499762Y1740255D01*
X4491939Y1753311D01*
X4482592Y1765147D01*
X4471873Y1775866D01*
X4459935Y1785213D01*
X4446981Y1793087D01*
X4432147Y1799742D01*
X4428998Y1801926D01*
X4426864Y1805178D01*
X4426153Y1808988D01*
X4426864Y1812747D01*
X4428998Y1815998D01*
X4432147Y1818284D01*
X4446981Y1824837D01*
X4459935Y1832660D01*
X4471873Y1842007D01*
X4482592Y1852726D01*
X4491939Y1864715D01*
X4499762Y1877618D01*
X4506010Y1891487D01*
X4510532Y1905914D01*
X4513224Y1920900D01*
X4514138Y1935988D01*
X4513224Y1951126D01*
X4510532Y1966010D01*
X4506010Y1980488D01*
X4499762Y1994255D01*
X4491939Y2007311D01*
X4482592Y2019147D01*
X4471873Y2029866D01*
X4459935Y2039213D01*
X4446981Y2047087D01*
X4432147Y2053742D01*
X4428998Y2055926D01*
X4426864Y2059178D01*
X4426153Y2062988D01*
X4426864Y2066747D01*
X4428998Y2069998D01*
X4432147Y2072284D01*
X4446981Y2078837D01*
X4459935Y2086660D01*
X4471873Y2096007D01*
X4482592Y2106726D01*
X4491939Y2118715D01*
X4499762Y2131618D01*
X4506010Y2145487D01*
X4510532Y2159914D01*
X4513224Y2174900D01*
X4514138Y2189988D01*
X4513224Y2205126D01*
X4510532Y2220010D01*
X4506010Y2234488D01*
X4499762Y2248255D01*
X4491939Y2261311D01*
X4482592Y2273147D01*
X4471873Y2283866D01*
X4459935Y2293213D01*
X4446981Y2301087D01*
X4432147Y2307742D01*
X4430522Y2308860D01*
X4426813Y2309266D01*
X4418685Y2311806D01*
X4403801Y2314600D01*
X4388662Y2315514D01*
X4373524Y2314600D01*
X4358640Y2311806D01*
X4350512Y2309266D01*
X4346854Y2308860D01*
X4345178Y2307742D01*
X4330344Y2301087D01*
X4317390Y2293213D01*
X4305452Y2283866D01*
X4294733Y2273147D01*
X4285386Y2261311D01*
X4277563Y2248255D01*
X4271314Y2234488D01*
X4266844Y2220010D01*
X4264101Y2205126D01*
X4263186Y2189988D01*
X4264101Y2174900D01*
X4266844Y2159914D01*
X4271314Y2145487D01*
X4277563Y2131618D01*
X4285386Y2118715D01*
X4294733Y2106726D01*
X4305452Y2096007D01*
X4317390Y2086660D01*
X4330344Y2078837D01*
X4345178Y2072284D01*
X4348327Y2069998D01*
X4350461Y2066747D01*
X4351172Y2062988D01*
X4350461Y2059178D01*
X4348327Y2055926D01*
X4345178Y2053742D01*
X4330344Y2047087D01*
X4317390Y2039213D01*
X4305452Y2029866D01*
X4294733Y2019147D01*
X4285386Y2007311D01*
X4277563Y1994255D01*
X4271314Y1980488D01*
X4266844Y1966010D01*
X4264101Y1951126D01*
X4263186Y1935988D01*
X4264101Y1920900D01*
X4266844Y1905914D01*
X4271314Y1891487D01*
X4277563Y1877618D01*
X4285386Y1864715D01*
X4294733Y1852726D01*
X4305452Y1842007D01*
X4317390Y1832660D01*
X4330344Y1824837D01*
X4345178Y1818284D01*
X4348327Y1815998D01*
X4350461Y1812747D01*
X4351172Y1808988D01*
X4350461Y1805178D01*
X4348327Y1801926D01*
X4345178Y1799742D01*
X4330344Y1793087D01*
X4317390Y1785213D01*
X4305452Y1775866D01*
X4294733Y1765147D01*
X4285386Y1753311D01*
X4277563Y1740255D01*
X4271314Y1726488D01*
X4266844Y1712010D01*
X4264101Y1697126D01*
X4263186Y1681988D01*
X4264101Y1666900D01*
X4266844Y1651914D01*
X4271314Y1637487D01*
X4277563Y1623618D01*
X4285386Y1610715D01*
X4294733Y1598726D01*
X4305452Y1588008D01*
X4317390Y1578660D01*
X4330344Y1570837D01*
X4345178Y1564284D01*
X4348327Y1561998D01*
X4350461Y1558747D01*
X4351172Y1554988D01*
X4350461Y1551178D01*
X4348327Y1547926D01*
X4345178Y1545742D01*
X4330344Y1539087D01*
X4317390Y1531213D01*
X4305452Y1521866D01*
X4294733Y1511147D01*
X4285386Y1499311D01*
X4277563Y1486255D01*
X4271314Y1472488D01*
X4266844Y1458010D01*
X4264101Y1443126D01*
X4263186Y1427988D01*
X4264101Y1412900D01*
X4266844Y1397914D01*
X4271314Y1383487D01*
X4277563Y1369618D01*
X4285386Y1356715D01*
X4294733Y1344726D01*
X4305452Y1334008D01*
X4317390Y1324660D01*
X4330344Y1316837D01*
X4345178Y1310284D01*
X4346854Y1309065D01*
X4350512Y1308658D01*
X4358640Y1306118D01*
X4373524Y1303426D01*
G37*
G36*
X6166662Y1302512D02*
G01*
X6181801Y1303426D01*
X6196685Y1306118D01*
X6204813Y1308658D01*
X6208522Y1309065D01*
X6210147Y1310284D01*
X6224981Y1316837D01*
X6237935Y1324660D01*
X6249873Y1334008D01*
X6260592Y1344726D01*
X6269939Y1356715D01*
X6277762Y1369618D01*
X6284010Y1383487D01*
X6288532Y1397914D01*
X6291224Y1412900D01*
X6292138Y1427988D01*
X6291224Y1443126D01*
X6288532Y1458010D01*
X6284010Y1472488D01*
X6277762Y1486255D01*
X6269939Y1499311D01*
X6260592Y1511147D01*
X6249873Y1521866D01*
X6237935Y1531213D01*
X6224981Y1539087D01*
X6210147Y1545742D01*
X6206998Y1547926D01*
X6204864Y1551178D01*
X6204153Y1554988D01*
X6204864Y1558747D01*
X6206998Y1561998D01*
X6210147Y1564284D01*
X6224981Y1570837D01*
X6237935Y1578660D01*
X6249873Y1588008D01*
X6260592Y1598726D01*
X6269939Y1610715D01*
X6277762Y1623618D01*
X6284010Y1637487D01*
X6288532Y1651914D01*
X6291224Y1666900D01*
X6292138Y1681988D01*
X6291224Y1697126D01*
X6288532Y1712010D01*
X6284010Y1726488D01*
X6277762Y1740255D01*
X6269939Y1753311D01*
X6260592Y1765147D01*
X6249873Y1775866D01*
X6237935Y1785213D01*
X6224981Y1793087D01*
X6210147Y1799742D01*
X6206998Y1801926D01*
X6204864Y1805178D01*
X6204153Y1808988D01*
X6204864Y1812747D01*
X6206998Y1815998D01*
X6210147Y1818284D01*
X6224981Y1824837D01*
X6237935Y1832660D01*
X6249873Y1842007D01*
X6260592Y1852726D01*
X6269939Y1864715D01*
X6277762Y1877618D01*
X6284010Y1891487D01*
X6288532Y1905914D01*
X6291224Y1920900D01*
X6292138Y1935988D01*
X6291224Y1951126D01*
X6288532Y1966010D01*
X6284010Y1980488D01*
X6277762Y1994255D01*
X6269939Y2007311D01*
X6260592Y2019147D01*
X6249873Y2029866D01*
X6237935Y2039213D01*
X6224981Y2047087D01*
X6210147Y2053742D01*
X6206998Y2055926D01*
X6204864Y2059178D01*
X6204153Y2062988D01*
X6204864Y2066747D01*
X6206998Y2069998D01*
X6210147Y2072284D01*
X6224981Y2078837D01*
X6237935Y2086660D01*
X6249873Y2096007D01*
X6260592Y2106726D01*
X6269939Y2118715D01*
X6277762Y2131618D01*
X6284010Y2145487D01*
X6285382Y2149856D01*
X6287465Y2153564D01*
X6290919Y2156053D01*
X6295085Y2156968D01*
X6822998Y2156968D01*
X6826148Y2156460D01*
X6828942Y2155037D01*
X6831228Y2152802D01*
X6833463Y2149652D01*
X6843268Y2139238D01*
X6854342Y2130044D01*
X6866432Y2122373D01*
X6879437Y2116277D01*
X6893102Y2111857D01*
X6907174Y2109165D01*
X6921500Y2108250D01*
X6935825Y2109165D01*
X6949897Y2111857D01*
X6963562Y2116277D01*
X6976516Y2122373D01*
X6988606Y2130044D01*
X6999681Y2139238D01*
X7009485Y2149652D01*
X7017918Y2161286D01*
X7024827Y2173884D01*
X7030110Y2187194D01*
X7033717Y2201062D01*
X7035495Y2215337D01*
X7035495Y2229662D01*
X7033717Y2243886D01*
X7030110Y2257806D01*
X7024827Y2271115D01*
X7017918Y2283714D01*
X7009485Y2295296D01*
X6999681Y2305812D01*
X6988606Y2314956D01*
X6976516Y2322576D01*
X6963562Y2328722D01*
X6949897Y2333142D01*
X6935825Y2335784D01*
X6921500Y2336698D01*
X6907174Y2335784D01*
X6893102Y2333142D01*
X6879437Y2328722D01*
X6866432Y2322576D01*
X6854342Y2314956D01*
X6843268Y2305812D01*
X6833463Y2295296D01*
X6831228Y2292146D01*
X6828942Y2289911D01*
X6826148Y2288489D01*
X6822998Y2287981D01*
X6248146Y2287981D01*
X6244844Y2288590D01*
X6241897Y2290165D01*
X6237935Y2293213D01*
X6224981Y2301087D01*
X6210147Y2307742D01*
X6208522Y2308860D01*
X6204813Y2309266D01*
X6196685Y2311806D01*
X6181801Y2314600D01*
X6166662Y2315514D01*
X6151524Y2314600D01*
X6136640Y2311806D01*
X6128512Y2309266D01*
X6124854Y2308860D01*
X6123178Y2307742D01*
X6108344Y2301087D01*
X6095390Y2293213D01*
X6083452Y2283866D01*
X6072733Y2273147D01*
X6063386Y2261311D01*
X6055563Y2248255D01*
X6049314Y2234488D01*
X6044844Y2220010D01*
X6042101Y2205126D01*
X6041186Y2189988D01*
X6042101Y2174900D01*
X6044844Y2159914D01*
X6049314Y2145487D01*
X6055563Y2131618D01*
X6063386Y2118715D01*
X6072733Y2106726D01*
X6083452Y2096007D01*
X6095390Y2086660D01*
X6108344Y2078837D01*
X6123178Y2072284D01*
X6126327Y2069998D01*
X6128461Y2066747D01*
X6129172Y2062988D01*
X6128461Y2059178D01*
X6126327Y2055926D01*
X6123178Y2053742D01*
X6108344Y2047087D01*
X6095390Y2039213D01*
X6083452Y2029866D01*
X6072733Y2019147D01*
X6063386Y2007311D01*
X6055563Y1994255D01*
X6049314Y1980488D01*
X6044844Y1966010D01*
X6042101Y1951126D01*
X6041186Y1935988D01*
X6042101Y1920900D01*
X6044844Y1905914D01*
X6049314Y1891487D01*
X6055563Y1877618D01*
X6063386Y1864715D01*
X6072733Y1852726D01*
X6083452Y1842007D01*
X6095390Y1832660D01*
X6108344Y1824837D01*
X6123178Y1818284D01*
X6126327Y1815998D01*
X6128461Y1812747D01*
X6129172Y1808988D01*
X6128461Y1805178D01*
X6126327Y1801926D01*
X6123178Y1799742D01*
X6108344Y1793087D01*
X6095390Y1785213D01*
X6083452Y1775866D01*
X6072733Y1765147D01*
X6063386Y1753311D01*
X6055563Y1740255D01*
X6049314Y1726488D01*
X6044844Y1712010D01*
X6042101Y1697126D01*
X6041186Y1681988D01*
X6042101Y1666900D01*
X6044844Y1651914D01*
X6049314Y1637487D01*
X6055563Y1623618D01*
X6063386Y1610715D01*
X6072733Y1598726D01*
X6083452Y1588008D01*
X6095390Y1578660D01*
X6108344Y1570837D01*
X6123178Y1564284D01*
X6126327Y1561998D01*
X6128461Y1558747D01*
X6129172Y1554988D01*
X6128461Y1551178D01*
X6126327Y1547926D01*
X6123178Y1545742D01*
X6108344Y1539087D01*
X6095390Y1531213D01*
X6083452Y1521866D01*
X6072733Y1511147D01*
X6063386Y1499311D01*
X6055563Y1486255D01*
X6049314Y1472488D01*
X6044844Y1458010D01*
X6042101Y1443126D01*
X6041186Y1427988D01*
X6042101Y1412900D01*
X6044844Y1397914D01*
X6049314Y1383487D01*
X6055563Y1369618D01*
X6063386Y1356715D01*
X6072733Y1344726D01*
X6083452Y1334008D01*
X6095390Y1324660D01*
X6108344Y1316837D01*
X6123178Y1310284D01*
X6124854Y1309065D01*
X6128512Y1308658D01*
X6136640Y1306118D01*
X6151524Y1303426D01*
G37*
G36*
X5562600Y1473250D02*
G01*
X5576925Y1474165D01*
X5590997Y1476857D01*
X5604662Y1481277D01*
X5617616Y1487373D01*
X5629757Y1495044D01*
X5640781Y1504238D01*
X5650585Y1514652D01*
X5659018Y1526286D01*
X5665927Y1538884D01*
X5671210Y1552194D01*
X5674817Y1566062D01*
X5676595Y1580337D01*
X5676595Y1594662D01*
X5674817Y1608886D01*
X5671210Y1622806D01*
X5665927Y1636115D01*
X5659018Y1648714D01*
X5650585Y1660296D01*
X5640781Y1670812D01*
X5629757Y1679956D01*
X5617616Y1687575D01*
X5604662Y1693722D01*
X5590997Y1698142D01*
X5576925Y1700784D01*
X5562600Y1701698D01*
X5548274Y1700784D01*
X5534202Y1698142D01*
X5520537Y1693722D01*
X5507583Y1687575D01*
X5495442Y1679956D01*
X5484418Y1670812D01*
X5474563Y1660296D01*
X5466130Y1648714D01*
X5459222Y1636115D01*
X5453938Y1622806D01*
X5450382Y1608886D01*
X5448604Y1594662D01*
X5448604Y1580337D01*
X5450382Y1566062D01*
X5453938Y1552194D01*
X5459222Y1538884D01*
X5466130Y1526286D01*
X5474563Y1514652D01*
X5484418Y1504238D01*
X5495442Y1495044D01*
X5507583Y1487373D01*
X5520537Y1481277D01*
X5534202Y1476857D01*
X5548274Y1474165D01*
G37*
G36*
X5061762Y1478838D02*
G01*
X5076088Y1479804D01*
X5090160Y1482394D01*
X5103825Y1486865D01*
X5116779Y1493012D01*
X5128920Y1500682D01*
X5139944Y1509776D01*
X5149799Y1520291D01*
X5158232Y1531874D01*
X5165140Y1544421D01*
X5170424Y1557832D01*
X5173980Y1571650D01*
X5175758Y1585874D01*
X5175758Y1600250D01*
X5173980Y1614525D01*
X5170424Y1628343D01*
X5165140Y1641703D01*
X5158232Y1654251D01*
X5149799Y1665884D01*
X5139944Y1676349D01*
X5128920Y1685493D01*
X5116779Y1693214D01*
X5103825Y1699260D01*
X5090160Y1703679D01*
X5076088Y1706422D01*
X5061762Y1707337D01*
X5047437Y1706422D01*
X5033365Y1703679D01*
X5019700Y1699260D01*
X5006746Y1693214D01*
X4994605Y1685493D01*
X4983581Y1676349D01*
X4973777Y1665884D01*
X4965344Y1654251D01*
X4958435Y1641703D01*
X4953152Y1628343D01*
X4949545Y1614525D01*
X4947767Y1600250D01*
X4947767Y1585874D01*
X4949545Y1571650D01*
X4953152Y1557832D01*
X4958435Y1544421D01*
X4965344Y1531874D01*
X4973777Y1520291D01*
X4983581Y1509776D01*
X4994605Y1500682D01*
X5006746Y1493012D01*
X5019700Y1486865D01*
X5033365Y1482394D01*
X5047437Y1479804D01*
G37*
G36*
X6875780Y1610004D02*
G01*
X6875780Y1668830D01*
X6816953Y1668830D01*
X6818122Y1665884D01*
X6825030Y1653286D01*
X6833463Y1641652D01*
X6843268Y1631238D01*
X6854342Y1622044D01*
X6866432Y1614373D01*
G37*
G36*
X6967220Y1610004D02*
G01*
X6976516Y1614373D01*
X6988606Y1622044D01*
X6999681Y1631238D01*
X7009485Y1641652D01*
X7017918Y1653286D01*
X7024827Y1665884D01*
X7025995Y1668830D01*
X6967220Y1668830D01*
G37*
G36*
X5562600Y1727250D02*
G01*
X5576925Y1728165D01*
X5590997Y1730857D01*
X5604662Y1735277D01*
X5617616Y1741373D01*
X5629757Y1749043D01*
X5640781Y1758238D01*
X5650585Y1768652D01*
X5659018Y1780286D01*
X5665927Y1792884D01*
X5671210Y1806193D01*
X5674817Y1820062D01*
X5676595Y1834337D01*
X5676595Y1848662D01*
X5674817Y1862886D01*
X5671210Y1876806D01*
X5665927Y1890115D01*
X5659018Y1902714D01*
X5650585Y1914296D01*
X5640781Y1924812D01*
X5629757Y1933956D01*
X5617616Y1941575D01*
X5604662Y1947722D01*
X5590997Y1952142D01*
X5576925Y1954784D01*
X5562600Y1955698D01*
X5548274Y1954784D01*
X5534202Y1952142D01*
X5520537Y1947722D01*
X5507583Y1941575D01*
X5495442Y1933956D01*
X5484418Y1924812D01*
X5474563Y1914296D01*
X5466130Y1902714D01*
X5459222Y1890115D01*
X5453938Y1876806D01*
X5450382Y1862886D01*
X5448604Y1848662D01*
X5448604Y1834337D01*
X5450382Y1820062D01*
X5453938Y1806193D01*
X5459222Y1792884D01*
X5466130Y1780286D01*
X5474563Y1768652D01*
X5484418Y1758238D01*
X5495442Y1749043D01*
X5507583Y1741373D01*
X5520537Y1735277D01*
X5534202Y1730857D01*
X5548274Y1728165D01*
G37*
G36*
X5061762Y1732838D02*
G01*
X5076088Y1733804D01*
X5090160Y1736394D01*
X5103825Y1740865D01*
X5116779Y1747012D01*
X5128920Y1754682D01*
X5139944Y1763775D01*
X5149799Y1774291D01*
X5158232Y1785874D01*
X5165140Y1798421D01*
X5170424Y1811832D01*
X5173980Y1825650D01*
X5175758Y1839874D01*
X5175758Y1854250D01*
X5173980Y1868525D01*
X5170424Y1882343D01*
X5165140Y1895703D01*
X5158232Y1908251D01*
X5149799Y1919884D01*
X5139944Y1930349D01*
X5128920Y1939493D01*
X5116779Y1947214D01*
X5103825Y1953260D01*
X5090160Y1957679D01*
X5076088Y1960422D01*
X5061762Y1961337D01*
X5047437Y1960422D01*
X5033365Y1957679D01*
X5019700Y1953260D01*
X5006746Y1947214D01*
X4994605Y1939493D01*
X4983581Y1930349D01*
X4973777Y1919884D01*
X4965344Y1908251D01*
X4958435Y1895703D01*
X4953152Y1882343D01*
X4949545Y1868525D01*
X4947767Y1854250D01*
X4947767Y1839874D01*
X4949545Y1825650D01*
X4953152Y1811832D01*
X4958435Y1798421D01*
X4965344Y1785874D01*
X4973777Y1774291D01*
X4983581Y1763775D01*
X4994605Y1754682D01*
X5006746Y1747012D01*
X5019700Y1740865D01*
X5033365Y1736394D01*
X5047437Y1733804D01*
G37*
G36*
X6967220Y1760220D02*
G01*
X7025995Y1760220D01*
X7024827Y1763115D01*
X7017918Y1775714D01*
X7009485Y1787296D01*
X6999681Y1797812D01*
X6988606Y1806956D01*
X6976516Y1814575D01*
X6967220Y1818944D01*
G37*
G36*
X6816953Y1760220D02*
G01*
X6875780Y1760220D01*
X6875780Y1818944D01*
X6866432Y1814575D01*
X6854342Y1806956D01*
X6843268Y1797812D01*
X6833463Y1787296D01*
X6825030Y1775714D01*
X6818122Y1763115D01*
G37*
G36*
X5562600Y1981250D02*
G01*
X5576925Y1982165D01*
X5590997Y1984857D01*
X5604662Y1989277D01*
X5617616Y1995373D01*
X5629757Y2003043D01*
X5640781Y2012238D01*
X5650585Y2022652D01*
X5659018Y2034286D01*
X5665927Y2046884D01*
X5671210Y2060193D01*
X5674817Y2074062D01*
X5676595Y2088337D01*
X5676595Y2102662D01*
X5674817Y2116886D01*
X5671210Y2130806D01*
X5665927Y2144115D01*
X5659018Y2156714D01*
X5650585Y2168296D01*
X5640781Y2178812D01*
X5629757Y2187956D01*
X5617616Y2195576D01*
X5604662Y2201722D01*
X5590997Y2206142D01*
X5576925Y2208784D01*
X5562600Y2209698D01*
X5548274Y2208784D01*
X5534202Y2206142D01*
X5520537Y2201722D01*
X5507583Y2195576D01*
X5495442Y2187956D01*
X5484418Y2178812D01*
X5474563Y2168296D01*
X5466130Y2156714D01*
X5459222Y2144115D01*
X5453938Y2130806D01*
X5450382Y2116886D01*
X5448604Y2102662D01*
X5448604Y2088337D01*
X5450382Y2074062D01*
X5453938Y2060193D01*
X5459222Y2046884D01*
X5466130Y2034286D01*
X5474563Y2022652D01*
X5484418Y2012238D01*
X5495442Y2003043D01*
X5507583Y1995373D01*
X5520537Y1989277D01*
X5534202Y1984857D01*
X5548274Y1982165D01*
G37*
G36*
X5061762Y1986838D02*
G01*
X5076088Y1987804D01*
X5090160Y1990394D01*
X5103825Y1994865D01*
X5116779Y2001012D01*
X5128920Y2008682D01*
X5139944Y2017775D01*
X5149799Y2028291D01*
X5158232Y2039874D01*
X5165140Y2052421D01*
X5170424Y2065832D01*
X5173980Y2079650D01*
X5175758Y2093874D01*
X5175758Y2108250D01*
X5173980Y2122525D01*
X5170424Y2136343D01*
X5165140Y2149703D01*
X5158232Y2162251D01*
X5149799Y2173884D01*
X5139944Y2184349D01*
X5128920Y2193493D01*
X5116779Y2201214D01*
X5103825Y2207260D01*
X5090160Y2211679D01*
X5076088Y2214422D01*
X5061762Y2215337D01*
X5047437Y2214422D01*
X5033365Y2211679D01*
X5019700Y2207260D01*
X5006746Y2201214D01*
X4994605Y2193493D01*
X4983581Y2184349D01*
X4973777Y2173884D01*
X4965344Y2162251D01*
X4958435Y2149703D01*
X4953152Y2136343D01*
X4949545Y2122525D01*
X4947767Y2108250D01*
X4947767Y2093874D01*
X4949545Y2079650D01*
X4953152Y2065832D01*
X4958435Y2052421D01*
X4965344Y2039874D01*
X4973777Y2028291D01*
X4983581Y2017775D01*
X4994605Y2008682D01*
X5006746Y2001012D01*
X5019700Y1994865D01*
X5033365Y1990394D01*
X5047437Y1987804D01*
G37*
G36*
X762000Y2017623D02*
G01*
X776782Y2018588D01*
X791311Y2021281D01*
X805434Y2025904D01*
X818845Y2032254D01*
X831342Y2040128D01*
X842771Y2049576D01*
X852881Y2060346D01*
X861618Y2072335D01*
X868730Y2085390D01*
X874217Y2099157D01*
X877874Y2113483D01*
X879754Y2128164D01*
X879754Y2143048D01*
X877874Y2157730D01*
X874217Y2172055D01*
X868730Y2185822D01*
X861618Y2198827D01*
X852881Y2210765D01*
X842771Y2221585D01*
X831342Y2231034D01*
X818845Y2238959D01*
X805434Y2245258D01*
X791311Y2249881D01*
X787450Y2250592D01*
X783793Y2252116D01*
X780948Y2254961D01*
X779424Y2258568D01*
X779424Y2262581D01*
X780948Y2266238D01*
X783793Y2269083D01*
X787450Y2270607D01*
X791311Y2271268D01*
X805434Y2275941D01*
X818845Y2282240D01*
X831342Y2290165D01*
X842771Y2299563D01*
X852881Y2310384D01*
X861618Y2322423D01*
X868730Y2335326D01*
X874217Y2349144D01*
X877874Y2363470D01*
X879754Y2378151D01*
X879754Y2392984D01*
X877874Y2407666D01*
X874217Y2422042D01*
X868730Y2435809D01*
X861618Y2448864D01*
X852881Y2460802D01*
X842771Y2471572D01*
X831342Y2481072D01*
X818845Y2488946D01*
X805434Y2495296D01*
X791311Y2499868D01*
X776782Y2502662D01*
X762000Y2503627D01*
X747217Y2502662D01*
X732637Y2499868D01*
X718566Y2495296D01*
X705154Y2488946D01*
X692607Y2481072D01*
X681228Y2471572D01*
X671068Y2460802D01*
X662381Y2448864D01*
X655218Y2435809D01*
X649782Y2422042D01*
X646074Y2407666D01*
X644245Y2392984D01*
X644245Y2378151D01*
X646074Y2363470D01*
X649782Y2349144D01*
X655218Y2335326D01*
X662381Y2322423D01*
X671068Y2310384D01*
X681228Y2299563D01*
X692607Y2290165D01*
X705154Y2282240D01*
X718566Y2275941D01*
X732637Y2271268D01*
X736498Y2270607D01*
X740206Y2269083D01*
X743051Y2266238D01*
X744575Y2262581D01*
X744575Y2258568D01*
X743051Y2254961D01*
X740206Y2252116D01*
X736498Y2250592D01*
X732637Y2249881D01*
X718566Y2245258D01*
X705154Y2238959D01*
X692607Y2231034D01*
X681228Y2221585D01*
X671068Y2210765D01*
X662381Y2198827D01*
X655218Y2185822D01*
X649782Y2172055D01*
X646074Y2157730D01*
X644245Y2143048D01*
X644245Y2128164D01*
X646074Y2113483D01*
X649782Y2099157D01*
X655218Y2085390D01*
X662381Y2072335D01*
X671068Y2060346D01*
X681228Y2049576D01*
X692607Y2040128D01*
X705154Y2032254D01*
X718566Y2025904D01*
X732637Y2021281D01*
X747217Y2018588D01*
G37*
G36*
X5562600Y2235250D02*
G01*
X5576925Y2236165D01*
X5590997Y2238857D01*
X5604662Y2243277D01*
X5617616Y2249373D01*
X5629757Y2257044D01*
X5640781Y2266238D01*
X5650585Y2276652D01*
X5659018Y2288286D01*
X5665927Y2300884D01*
X5671210Y2314194D01*
X5674817Y2328062D01*
X5676595Y2342337D01*
X5676595Y2356662D01*
X5674817Y2370886D01*
X5671210Y2384806D01*
X5665927Y2398115D01*
X5659018Y2410714D01*
X5650585Y2422296D01*
X5640781Y2432812D01*
X5629757Y2441956D01*
X5617616Y2449576D01*
X5604662Y2455722D01*
X5590997Y2460142D01*
X5576925Y2462784D01*
X5562600Y2463698D01*
X5548274Y2462784D01*
X5534202Y2460142D01*
X5520537Y2455722D01*
X5507583Y2449576D01*
X5495442Y2441956D01*
X5484418Y2432812D01*
X5474563Y2422296D01*
X5466130Y2410714D01*
X5459222Y2398115D01*
X5453938Y2384806D01*
X5450382Y2370886D01*
X5448604Y2356662D01*
X5448604Y2342337D01*
X5450382Y2328062D01*
X5453938Y2314194D01*
X5459222Y2300884D01*
X5466130Y2288286D01*
X5474563Y2276652D01*
X5484418Y2266238D01*
X5495442Y2257044D01*
X5507583Y2249373D01*
X5520537Y2243277D01*
X5534202Y2238857D01*
X5548274Y2236165D01*
G37*
G36*
X5061762Y2240838D02*
G01*
X5076088Y2241804D01*
X5090160Y2244394D01*
X5103825Y2248865D01*
X5116779Y2255012D01*
X5128920Y2262682D01*
X5139944Y2271776D01*
X5149799Y2282291D01*
X5158232Y2293874D01*
X5165140Y2306421D01*
X5170424Y2319832D01*
X5173980Y2333650D01*
X5175758Y2347874D01*
X5175758Y2362250D01*
X5173980Y2376525D01*
X5170424Y2390343D01*
X5165140Y2403703D01*
X5158232Y2416251D01*
X5149799Y2427884D01*
X5139944Y2438349D01*
X5128920Y2447493D01*
X5116779Y2455214D01*
X5103825Y2461260D01*
X5090160Y2465679D01*
X5076088Y2468422D01*
X5061762Y2469337D01*
X5047437Y2468422D01*
X5033365Y2465679D01*
X5019700Y2461260D01*
X5006746Y2455214D01*
X4994605Y2447493D01*
X4983581Y2438349D01*
X4973777Y2427884D01*
X4965344Y2416251D01*
X4958435Y2403703D01*
X4953152Y2390343D01*
X4949545Y2376525D01*
X4947767Y2362250D01*
X4947767Y2347874D01*
X4949545Y2333650D01*
X4953152Y2319832D01*
X4958435Y2306421D01*
X4965344Y2293874D01*
X4973777Y2282291D01*
X4983581Y2271776D01*
X4994605Y2262682D01*
X5006746Y2255012D01*
X5019700Y2248865D01*
X5033365Y2244394D01*
X5047437Y2241804D01*
G37*
G36*
X4440021Y2329738D02*
G01*
X4446981Y2332837D01*
X4459935Y2340660D01*
X4471873Y2350008D01*
X4482592Y2360726D01*
X4491939Y2372715D01*
X4499762Y2385618D01*
X4502912Y2392680D01*
X4440021Y2392680D01*
G37*
G36*
X6115304Y2329738D02*
G01*
X6115304Y2392680D01*
X6052413Y2392680D01*
X6055563Y2385618D01*
X6063386Y2372715D01*
X6072733Y2360726D01*
X6083452Y2350008D01*
X6095390Y2340660D01*
X6108344Y2332837D01*
G37*
G36*
X4337304Y2329738D02*
G01*
X4337304Y2392680D01*
X4274413Y2392680D01*
X4277563Y2385618D01*
X4285386Y2372715D01*
X4294733Y2360726D01*
X4305452Y2350008D01*
X4317390Y2340660D01*
X4330344Y2332837D01*
G37*
G36*
X6218021Y2329738D02*
G01*
X6224981Y2332837D01*
X6237935Y2340660D01*
X6249873Y2350008D01*
X6260592Y2360726D01*
X6269939Y2372715D01*
X6277762Y2385618D01*
X6280912Y2392680D01*
X6218021Y2392680D01*
G37*
G36*
X6843268Y2362250D02*
G01*
X6999731Y2362250D01*
X7007148Y2362962D01*
X7013803Y2364994D01*
X7019950Y2368296D01*
X7025284Y2372715D01*
X7029703Y2378100D01*
X7033006Y2384145D01*
X7034987Y2390800D01*
X7035749Y2398217D01*
X7035749Y2554782D01*
X7034987Y2562199D01*
X7033006Y2568803D01*
X7029703Y2574950D01*
X7025284Y2580284D01*
X7019950Y2584704D01*
X7013803Y2588006D01*
X7007148Y2590038D01*
X6999731Y2590749D01*
X6843268Y2590749D01*
X6835851Y2590038D01*
X6829196Y2588006D01*
X6823049Y2584704D01*
X6817664Y2580284D01*
X6813245Y2574950D01*
X6809994Y2568803D01*
X6807962Y2562199D01*
X6807250Y2554782D01*
X6807250Y2398217D01*
X6807962Y2390800D01*
X6809994Y2384145D01*
X6813245Y2378100D01*
X6817664Y2372715D01*
X6823049Y2368296D01*
X6829196Y2364994D01*
X6835851Y2362962D01*
G37*
G36*
X5562600Y2489250D02*
G01*
X5576925Y2490165D01*
X5590997Y2492857D01*
X5604662Y2497277D01*
X5617616Y2503373D01*
X5629757Y2511044D01*
X5640781Y2520238D01*
X5650585Y2530652D01*
X5659018Y2542286D01*
X5665927Y2554884D01*
X5671210Y2568194D01*
X5674817Y2582062D01*
X5676595Y2596337D01*
X5676595Y2610662D01*
X5674817Y2624886D01*
X5671210Y2638806D01*
X5665927Y2652115D01*
X5659018Y2664714D01*
X5650585Y2676296D01*
X5640781Y2686812D01*
X5629757Y2695956D01*
X5617616Y2703576D01*
X5604662Y2709722D01*
X5590997Y2714142D01*
X5576925Y2716784D01*
X5562600Y2717698D01*
X5548274Y2716784D01*
X5534202Y2714142D01*
X5520537Y2709722D01*
X5507583Y2703576D01*
X5495442Y2695956D01*
X5484418Y2686812D01*
X5474563Y2676296D01*
X5466130Y2664714D01*
X5459222Y2652115D01*
X5453938Y2638806D01*
X5450382Y2624886D01*
X5448604Y2610662D01*
X5448604Y2596337D01*
X5450382Y2582062D01*
X5453938Y2568194D01*
X5459222Y2554884D01*
X5466130Y2542286D01*
X5474563Y2530652D01*
X5484418Y2520238D01*
X5495442Y2511044D01*
X5507583Y2503373D01*
X5520537Y2497277D01*
X5534202Y2492857D01*
X5548274Y2490165D01*
G37*
G36*
X5061762Y2494838D02*
G01*
X5076088Y2495804D01*
X5090160Y2498394D01*
X5103825Y2502865D01*
X5116779Y2509012D01*
X5128920Y2516682D01*
X5139944Y2525776D01*
X5149799Y2536291D01*
X5158232Y2547874D01*
X5165140Y2560421D01*
X5170424Y2573832D01*
X5173980Y2587650D01*
X5175758Y2601874D01*
X5175758Y2616250D01*
X5173980Y2630525D01*
X5170424Y2644343D01*
X5165140Y2657703D01*
X5158232Y2670251D01*
X5149799Y2681884D01*
X5139944Y2692349D01*
X5128920Y2701493D01*
X5116779Y2709214D01*
X5103825Y2715260D01*
X5090160Y2719679D01*
X5076088Y2722422D01*
X5061762Y2723337D01*
X5047437Y2722422D01*
X5033365Y2719679D01*
X5019700Y2715260D01*
X5006746Y2709214D01*
X4994605Y2701493D01*
X4983581Y2692349D01*
X4973777Y2681884D01*
X4965344Y2670251D01*
X4958435Y2657703D01*
X4953152Y2644343D01*
X4949545Y2630525D01*
X4947767Y2616250D01*
X4947767Y2601874D01*
X4949545Y2587650D01*
X4953152Y2573832D01*
X4958435Y2560421D01*
X4965344Y2547874D01*
X4973777Y2536291D01*
X4983581Y2525776D01*
X4994605Y2516682D01*
X5006746Y2509012D01*
X5019700Y2502865D01*
X5033365Y2498394D01*
X5047437Y2495804D01*
G37*
G36*
X6218021Y2495296D02*
G01*
X6280912Y2495296D01*
X6277762Y2502255D01*
X6269939Y2515311D01*
X6260592Y2527147D01*
X6249873Y2537866D01*
X6237935Y2547213D01*
X6224981Y2555087D01*
X6218021Y2558237D01*
G37*
G36*
X6052413Y2495296D02*
G01*
X6115304Y2495296D01*
X6115304Y2558237D01*
X6108344Y2555087D01*
X6095390Y2547213D01*
X6083452Y2537866D01*
X6072733Y2527147D01*
X6063386Y2515311D01*
X6055563Y2502255D01*
G37*
G36*
X4440021Y2495296D02*
G01*
X4502912Y2495296D01*
X4499762Y2502255D01*
X4491939Y2515311D01*
X4482592Y2527147D01*
X4471873Y2537866D01*
X4459935Y2547213D01*
X4446981Y2555087D01*
X4440021Y2558237D01*
G37*
G36*
X4274413Y2495296D02*
G01*
X4337304Y2495296D01*
X4337304Y2558237D01*
X4330344Y2555087D01*
X4317390Y2547213D01*
X4305452Y2537866D01*
X4294733Y2527147D01*
X4285386Y2515311D01*
X4277563Y2502255D01*
G37*
G36*
X3759454Y2509723D02*
G01*
X4101947Y2509723D01*
X4107027Y2509977D01*
X4111802Y2510586D01*
X4116578Y2511653D01*
X4121150Y2513076D01*
X4125671Y2514955D01*
X4129887Y2517241D01*
X4134053Y2519832D01*
X4137812Y2522728D01*
X4141622Y2526182D01*
X4254804Y2639618D01*
X4258106Y2641854D01*
X4261967Y2642565D01*
X4270044Y2642565D01*
X4273448Y2642006D01*
X4276496Y2640330D01*
X4278731Y2637688D01*
X4285386Y2626715D01*
X4294733Y2614726D01*
X4305452Y2604008D01*
X4317390Y2594660D01*
X4330344Y2586837D01*
X4345178Y2580284D01*
X4346854Y2579065D01*
X4350512Y2578658D01*
X4358640Y2576118D01*
X4373524Y2573426D01*
X4388662Y2572512D01*
X4403801Y2573426D01*
X4418685Y2576118D01*
X4426813Y2578658D01*
X4430522Y2579065D01*
X4432147Y2580284D01*
X4446981Y2586837D01*
X4459935Y2594660D01*
X4471873Y2604008D01*
X4482592Y2614726D01*
X4491939Y2626715D01*
X4499762Y2639618D01*
X4506010Y2653487D01*
X4510532Y2667914D01*
X4513224Y2682900D01*
X4514138Y2697988D01*
X4513224Y2713126D01*
X4510532Y2728010D01*
X4506010Y2742488D01*
X4499762Y2756255D01*
X4491939Y2769311D01*
X4482592Y2781147D01*
X4471873Y2791866D01*
X4459935Y2801213D01*
X4446981Y2809087D01*
X4432147Y2815742D01*
X4428998Y2817926D01*
X4426864Y2821178D01*
X4426153Y2824988D01*
X4426864Y2828747D01*
X4428998Y2831998D01*
X4432147Y2834284D01*
X4446981Y2840837D01*
X4459935Y2848660D01*
X4471873Y2858008D01*
X4482592Y2868726D01*
X4491939Y2880715D01*
X4499762Y2893618D01*
X4506010Y2907487D01*
X4510532Y2921914D01*
X4513224Y2936900D01*
X4514138Y2951988D01*
X4513224Y2967126D01*
X4510532Y2982010D01*
X4506010Y2996488D01*
X4499762Y3010255D01*
X4491939Y3023311D01*
X4482592Y3035147D01*
X4471873Y3045866D01*
X4459935Y3055213D01*
X4446981Y3063087D01*
X4432147Y3069742D01*
X4428998Y3071926D01*
X4426864Y3075178D01*
X4426153Y3078988D01*
X4426864Y3082747D01*
X4428998Y3085998D01*
X4432147Y3088284D01*
X4446981Y3094837D01*
X4459935Y3102660D01*
X4471873Y3112008D01*
X4482592Y3122726D01*
X4491939Y3134715D01*
X4499762Y3147618D01*
X4506010Y3161487D01*
X4510532Y3175914D01*
X4513224Y3190900D01*
X4514138Y3205988D01*
X4513224Y3221126D01*
X4510532Y3236010D01*
X4506010Y3250488D01*
X4499762Y3264255D01*
X4491939Y3277311D01*
X4482592Y3289147D01*
X4471873Y3299866D01*
X4459935Y3309213D01*
X4446981Y3317087D01*
X4432147Y3323742D01*
X4428998Y3325926D01*
X4426864Y3329178D01*
X4426153Y3332987D01*
X4426864Y3336747D01*
X4428998Y3339998D01*
X4432147Y3342284D01*
X4446981Y3348837D01*
X4459935Y3356660D01*
X4471873Y3366008D01*
X4482592Y3376726D01*
X4491939Y3388715D01*
X4499762Y3401618D01*
X4506010Y3415487D01*
X4510532Y3429914D01*
X4513224Y3444900D01*
X4514138Y3459987D01*
X4513224Y3475126D01*
X4510532Y3490010D01*
X4506010Y3504488D01*
X4499762Y3518255D01*
X4491939Y3531311D01*
X4482592Y3543147D01*
X4471873Y3553866D01*
X4459935Y3563213D01*
X4446981Y3571087D01*
X4432147Y3577742D01*
X4430522Y3578860D01*
X4426813Y3579266D01*
X4418685Y3581806D01*
X4403801Y3584600D01*
X4388662Y3585514D01*
X4373524Y3584600D01*
X4358640Y3581806D01*
X4350512Y3579266D01*
X4346854Y3578860D01*
X4345178Y3577742D01*
X4330344Y3571087D01*
X4317390Y3563213D01*
X4305452Y3553866D01*
X4294733Y3543147D01*
X4285386Y3531311D01*
X4277563Y3518255D01*
X4271314Y3504488D01*
X4266844Y3490010D01*
X4264101Y3475126D01*
X4263186Y3459987D01*
X4264101Y3444900D01*
X4266844Y3429914D01*
X4271314Y3415487D01*
X4277563Y3401618D01*
X4285386Y3388715D01*
X4294733Y3376726D01*
X4305452Y3366008D01*
X4317390Y3356660D01*
X4330344Y3348837D01*
X4345178Y3342284D01*
X4348327Y3339998D01*
X4350461Y3336747D01*
X4351172Y3332987D01*
X4350461Y3329178D01*
X4348327Y3325926D01*
X4345178Y3323742D01*
X4330344Y3317087D01*
X4317390Y3309213D01*
X4305452Y3299866D01*
X4294733Y3289147D01*
X4285386Y3277311D01*
X4277563Y3264255D01*
X4271314Y3250488D01*
X4266844Y3236010D01*
X4264101Y3221126D01*
X4263186Y3205988D01*
X4264101Y3190900D01*
X4266844Y3175914D01*
X4271314Y3161487D01*
X4277563Y3147618D01*
X4285386Y3134715D01*
X4294733Y3122726D01*
X4305452Y3112008D01*
X4317390Y3102660D01*
X4330344Y3094837D01*
X4345178Y3088284D01*
X4348327Y3085998D01*
X4350461Y3082747D01*
X4351172Y3078988D01*
X4350461Y3075178D01*
X4348327Y3071926D01*
X4345178Y3069742D01*
X4330344Y3063087D01*
X4317390Y3055213D01*
X4305452Y3045866D01*
X4294733Y3035147D01*
X4285386Y3023311D01*
X4277563Y3010255D01*
X4271314Y2996488D01*
X4266844Y2982010D01*
X4264101Y2967126D01*
X4263186Y2951988D01*
X4264101Y2936900D01*
X4266844Y2921914D01*
X4271314Y2907487D01*
X4277563Y2893618D01*
X4285386Y2880715D01*
X4294733Y2868726D01*
X4305452Y2858008D01*
X4317390Y2848660D01*
X4330344Y2840837D01*
X4345178Y2834284D01*
X4348327Y2831998D01*
X4350461Y2828747D01*
X4351172Y2824988D01*
X4350461Y2821178D01*
X4348327Y2817926D01*
X4345178Y2815742D01*
X4330344Y2809087D01*
X4317390Y2801213D01*
X4305452Y2791866D01*
X4294733Y2781147D01*
X4285386Y2769311D01*
X4278884Y2758541D01*
X4276648Y2755900D01*
X4273600Y2754223D01*
X4270197Y2753664D01*
X4234942Y2753664D01*
X4229862Y2753360D01*
X4225086Y2752750D01*
X4220311Y2751734D01*
X4215739Y2750312D01*
X4211218Y2748381D01*
X4207002Y2746146D01*
X4202836Y2743504D01*
X4199432Y2740914D01*
X4195318Y2739034D01*
X4190847Y2739034D01*
X4186834Y2741015D01*
X4184040Y2744571D01*
X4183075Y2748940D01*
X4183075Y3390798D01*
X4182821Y3395979D01*
X4182211Y3400653D01*
X4181144Y3405428D01*
X4179722Y3410000D01*
X4177842Y3414572D01*
X4175607Y3418738D01*
X4172965Y3422904D01*
X4170070Y3426714D01*
X4166615Y3430473D01*
X4065320Y3531514D01*
X4061612Y3534867D01*
X4057700Y3537864D01*
X4053687Y3540404D01*
X4049318Y3542690D01*
X4044950Y3544519D01*
X4040225Y3545992D01*
X4035602Y3547008D01*
X4030726Y3547618D01*
X4025747Y3547922D01*
X3734003Y3547922D01*
X3731361Y3548227D01*
X3728923Y3549192D01*
X3723995Y3552037D01*
X3714038Y3555847D01*
X3703675Y3557930D01*
X3693058Y3558387D01*
X3682492Y3557168D01*
X3672332Y3554171D01*
X3662730Y3549599D01*
X3653993Y3543554D01*
X3646322Y3536238D01*
X3639972Y3527704D01*
X3635044Y3518306D01*
X3631641Y3508298D01*
X3629964Y3497783D01*
X3629964Y3487165D01*
X3631641Y3476701D01*
X3635044Y3466642D01*
X3639972Y3457244D01*
X3646322Y3448812D01*
X3653993Y3441446D01*
X3662730Y3435350D01*
X3672332Y3430828D01*
X3682492Y3427831D01*
X3693058Y3426561D01*
X3703675Y3427018D01*
X3714038Y3429152D01*
X3723995Y3432911D01*
X3728465Y3435553D01*
X3730904Y3436518D01*
X3733546Y3436823D01*
X3998772Y3436823D01*
X4002684Y3436112D01*
X4005986Y3433876D01*
X4069079Y3370935D01*
X4071264Y3367684D01*
X4072026Y3363823D01*
X4072026Y2768447D01*
X4071264Y2764586D01*
X4069079Y2761284D01*
X4058513Y2750769D01*
X4055211Y2748534D01*
X4051350Y2747822D01*
X4026103Y2747822D01*
X4023461Y2748127D01*
X4021023Y2749092D01*
X4016095Y2751937D01*
X4006138Y2755747D01*
X3995775Y2757830D01*
X3985158Y2758287D01*
X3974592Y2757068D01*
X3964432Y2754071D01*
X3954830Y2749499D01*
X3946093Y2743454D01*
X3938422Y2736138D01*
X3932072Y2727604D01*
X3927144Y2718206D01*
X3923741Y2708198D01*
X3922064Y2697683D01*
X3922064Y2687066D01*
X3923741Y2676601D01*
X3927144Y2666542D01*
X3932072Y2657144D01*
X3938422Y2648712D01*
X3946093Y2641346D01*
X3948988Y2639314D01*
X3951935Y2636164D01*
X3953306Y2632151D01*
X3952900Y2627884D01*
X3950817Y2624226D01*
X3947414Y2621635D01*
X3943197Y2620822D01*
X3786428Y2620822D01*
X3782568Y2621534D01*
X3779265Y2623769D01*
X3703421Y2699562D01*
X3701237Y2702915D01*
X3700475Y2706776D01*
X3700475Y3302000D01*
X3700881Y3304794D01*
X3703320Y3309467D01*
X3707485Y3319221D01*
X3710025Y3329533D01*
X3710838Y3340049D01*
X3710025Y3350666D01*
X3707485Y3360978D01*
X3703320Y3370732D01*
X3697630Y3379673D01*
X3690569Y3387699D01*
X3682390Y3394354D01*
X3673195Y3399637D01*
X3663238Y3403447D01*
X3652875Y3405530D01*
X3642258Y3405987D01*
X3631692Y3404768D01*
X3621532Y3401771D01*
X3611930Y3397199D01*
X3603193Y3391154D01*
X3595522Y3383838D01*
X3589172Y3375304D01*
X3584244Y3365906D01*
X3580841Y3355898D01*
X3579164Y3345383D01*
X3579164Y3334765D01*
X3580841Y3324301D01*
X3584244Y3314242D01*
X3588258Y3306521D01*
X3589121Y3304184D01*
X3589426Y3301796D01*
X3589426Y2679750D01*
X3589680Y2674721D01*
X3590290Y2669895D01*
X3591356Y2665222D01*
X3592779Y2660548D01*
X3594658Y2656078D01*
X3596894Y2651810D01*
X3599484Y2647696D01*
X3602431Y2643886D01*
X3605834Y2640126D01*
X3719829Y2526131D01*
X3723589Y2522728D01*
X3727399Y2519781D01*
X3731514Y2517241D01*
X3735781Y2514955D01*
X3740251Y2513076D01*
X3744874Y2511653D01*
X3749598Y2510586D01*
X3754424Y2509977D01*
G37*
G36*
X6166662Y2572512D02*
G01*
X6181801Y2573426D01*
X6196685Y2576118D01*
X6204813Y2578658D01*
X6208522Y2579065D01*
X6210147Y2580284D01*
X6224981Y2586837D01*
X6237935Y2594660D01*
X6249873Y2604008D01*
X6260592Y2614726D01*
X6269939Y2626715D01*
X6277762Y2639618D01*
X6284010Y2653487D01*
X6288532Y2667914D01*
X6291224Y2682900D01*
X6292138Y2697988D01*
X6291224Y2713126D01*
X6288532Y2728010D01*
X6284010Y2742488D01*
X6277762Y2756255D01*
X6269939Y2769311D01*
X6260592Y2781147D01*
X6249873Y2791866D01*
X6237935Y2801213D01*
X6224981Y2809087D01*
X6210147Y2815742D01*
X6206998Y2817926D01*
X6204864Y2821178D01*
X6204153Y2824988D01*
X6204864Y2828747D01*
X6206998Y2831998D01*
X6210147Y2834284D01*
X6224981Y2840837D01*
X6237935Y2848660D01*
X6249873Y2858008D01*
X6260592Y2868726D01*
X6269939Y2880715D01*
X6277762Y2893618D01*
X6284010Y2907487D01*
X6288532Y2921914D01*
X6291224Y2936900D01*
X6292138Y2951988D01*
X6291224Y2967126D01*
X6288532Y2982010D01*
X6284010Y2996488D01*
X6277762Y3010255D01*
X6269939Y3023311D01*
X6260592Y3035147D01*
X6249873Y3045866D01*
X6237935Y3055213D01*
X6224981Y3063087D01*
X6210147Y3069742D01*
X6206998Y3071926D01*
X6204864Y3075178D01*
X6204153Y3078988D01*
X6204864Y3082747D01*
X6206998Y3085998D01*
X6210147Y3088284D01*
X6224981Y3094837D01*
X6237935Y3102660D01*
X6249873Y3112008D01*
X6260592Y3122726D01*
X6269939Y3134715D01*
X6277762Y3147618D01*
X6284010Y3161487D01*
X6288532Y3175914D01*
X6291224Y3190900D01*
X6292138Y3205988D01*
X6291224Y3221126D01*
X6288532Y3236010D01*
X6284010Y3250488D01*
X6277762Y3264255D01*
X6269939Y3277311D01*
X6260592Y3289147D01*
X6249873Y3299866D01*
X6237935Y3309213D01*
X6224981Y3317087D01*
X6210147Y3323742D01*
X6206998Y3325926D01*
X6204864Y3329178D01*
X6204153Y3332987D01*
X6204864Y3336747D01*
X6206998Y3339998D01*
X6210147Y3342284D01*
X6224981Y3348837D01*
X6237935Y3356660D01*
X6249873Y3366008D01*
X6260592Y3376726D01*
X6272834Y3392271D01*
X6275832Y3394049D01*
X6279235Y3394557D01*
X6367932Y3394557D01*
X6378549Y3395472D01*
X6388557Y3397808D01*
X6398056Y3401771D01*
X6406794Y3407156D01*
X6414922Y3414064D01*
X6780580Y3779469D01*
X6783882Y3781653D01*
X6787794Y3782415D01*
X6823100Y3782415D01*
X6826199Y3781958D01*
X6829044Y3780485D01*
X6831279Y3778250D01*
X6833463Y3775252D01*
X6843268Y3764838D01*
X6854342Y3755644D01*
X6866432Y3747973D01*
X6879437Y3741877D01*
X6893102Y3737457D01*
X6907174Y3734765D01*
X6921500Y3733850D01*
X6935825Y3734765D01*
X6949897Y3737457D01*
X6963562Y3741877D01*
X6976516Y3747973D01*
X6988606Y3755644D01*
X6999681Y3764838D01*
X7009485Y3775252D01*
X7017918Y3786886D01*
X7024827Y3799484D01*
X7030110Y3812794D01*
X7033717Y3826662D01*
X7035495Y3840937D01*
X7035495Y3855262D01*
X7033717Y3869486D01*
X7030110Y3883406D01*
X7024827Y3896715D01*
X7017918Y3909314D01*
X7009485Y3920896D01*
X6999681Y3931412D01*
X6988606Y3940556D01*
X6976516Y3948176D01*
X6963562Y3954322D01*
X6949897Y3958742D01*
X6935825Y3961384D01*
X6921500Y3962298D01*
X6907174Y3961384D01*
X6893102Y3958742D01*
X6879437Y3954322D01*
X6866432Y3948176D01*
X6854342Y3940556D01*
X6843268Y3931412D01*
X6833463Y3920896D01*
X6831126Y3917696D01*
X6828891Y3915410D01*
X6826046Y3913936D01*
X6822897Y3913479D01*
X6756857Y3913479D01*
X6746240Y3912615D01*
X6736232Y3910279D01*
X6726732Y3906367D01*
X6717995Y3900982D01*
X6709867Y3894023D01*
X6344208Y3528568D01*
X6340906Y3526434D01*
X6336995Y3525621D01*
X6279083Y3525621D01*
X6275679Y3526180D01*
X6272682Y3527907D01*
X6260592Y3543147D01*
X6249873Y3553866D01*
X6237935Y3563213D01*
X6224981Y3571087D01*
X6210147Y3577742D01*
X6208522Y3578860D01*
X6204813Y3579266D01*
X6196685Y3581806D01*
X6181801Y3584600D01*
X6166662Y3585514D01*
X6151524Y3584600D01*
X6136640Y3581806D01*
X6128512Y3579266D01*
X6124854Y3578860D01*
X6123178Y3577742D01*
X6108344Y3571087D01*
X6095390Y3563213D01*
X6083452Y3553866D01*
X6072733Y3543147D01*
X6063386Y3531311D01*
X6055563Y3518255D01*
X6049314Y3504488D01*
X6044844Y3490010D01*
X6042101Y3475126D01*
X6041186Y3459987D01*
X6042101Y3444900D01*
X6044844Y3429914D01*
X6049314Y3415487D01*
X6055563Y3401618D01*
X6063386Y3388715D01*
X6072733Y3376726D01*
X6083452Y3366008D01*
X6095390Y3356660D01*
X6108344Y3348837D01*
X6123178Y3342284D01*
X6126327Y3339998D01*
X6128461Y3336747D01*
X6129172Y3332987D01*
X6128461Y3329178D01*
X6126327Y3325926D01*
X6123178Y3323742D01*
X6108344Y3317087D01*
X6095390Y3309213D01*
X6083452Y3299866D01*
X6072733Y3289147D01*
X6063386Y3277311D01*
X6055563Y3264255D01*
X6049314Y3250488D01*
X6044844Y3236010D01*
X6042101Y3221126D01*
X6041186Y3205988D01*
X6042101Y3190900D01*
X6044844Y3175914D01*
X6049314Y3161487D01*
X6055563Y3147618D01*
X6063386Y3134715D01*
X6072733Y3122726D01*
X6083452Y3112008D01*
X6095390Y3102660D01*
X6108344Y3094837D01*
X6123178Y3088284D01*
X6126327Y3085998D01*
X6128461Y3082747D01*
X6129172Y3078988D01*
X6128461Y3075178D01*
X6126327Y3071926D01*
X6123178Y3069742D01*
X6108344Y3063087D01*
X6095390Y3055213D01*
X6083452Y3045866D01*
X6072733Y3035147D01*
X6063386Y3023311D01*
X6055563Y3010255D01*
X6049314Y2996488D01*
X6044844Y2982010D01*
X6042101Y2967126D01*
X6041186Y2951988D01*
X6042101Y2936900D01*
X6044844Y2921914D01*
X6049314Y2907487D01*
X6055563Y2893618D01*
X6063386Y2880715D01*
X6072733Y2868726D01*
X6083452Y2858008D01*
X6095390Y2848660D01*
X6108344Y2840837D01*
X6123178Y2834284D01*
X6126327Y2831998D01*
X6128461Y2828747D01*
X6129172Y2824988D01*
X6128461Y2821178D01*
X6126327Y2817926D01*
X6123178Y2815742D01*
X6108344Y2809087D01*
X6095390Y2801213D01*
X6083452Y2791866D01*
X6072733Y2781147D01*
X6063386Y2769311D01*
X6055563Y2756255D01*
X6049314Y2742488D01*
X6044844Y2728010D01*
X6042101Y2713126D01*
X6041186Y2697988D01*
X6042101Y2682900D01*
X6044844Y2667914D01*
X6049314Y2653487D01*
X6055563Y2639618D01*
X6063386Y2626715D01*
X6072733Y2614726D01*
X6083452Y2604008D01*
X6095390Y2594660D01*
X6108344Y2586837D01*
X6123178Y2580284D01*
X6124854Y2579065D01*
X6128512Y2578658D01*
X6136640Y2576118D01*
X6151524Y2573426D01*
G37*
G36*
X6921500Y2667050D02*
G01*
X6935825Y2667965D01*
X6949897Y2670657D01*
X6963562Y2675077D01*
X6976516Y2681173D01*
X6988606Y2688844D01*
X6999681Y2698038D01*
X7009485Y2708452D01*
X7017918Y2720086D01*
X7024827Y2732684D01*
X7030110Y2745994D01*
X7033717Y2759862D01*
X7035495Y2774137D01*
X7035495Y2788462D01*
X7033717Y2802686D01*
X7030110Y2816606D01*
X7024827Y2829915D01*
X7017918Y2842514D01*
X7009485Y2854096D01*
X6999681Y2864612D01*
X6988606Y2873756D01*
X6976516Y2881376D01*
X6963562Y2887522D01*
X6949897Y2891942D01*
X6935825Y2894584D01*
X6921500Y2895498D01*
X6907174Y2894584D01*
X6893102Y2891942D01*
X6879437Y2887522D01*
X6866432Y2881376D01*
X6854342Y2873756D01*
X6843268Y2864612D01*
X6833463Y2854096D01*
X6825030Y2842514D01*
X6818122Y2829915D01*
X6812838Y2816606D01*
X6809282Y2802686D01*
X6807504Y2788462D01*
X6807504Y2774137D01*
X6809282Y2759862D01*
X6812838Y2745994D01*
X6818122Y2732684D01*
X6825030Y2720086D01*
X6833463Y2708452D01*
X6843268Y2698038D01*
X6854342Y2688844D01*
X6866432Y2681173D01*
X6879437Y2675077D01*
X6893102Y2670657D01*
X6907174Y2667965D01*
G37*
G36*
X5562600Y2743250D02*
G01*
X5576925Y2744165D01*
X5590997Y2746857D01*
X5604662Y2751277D01*
X5617616Y2757373D01*
X5629757Y2765044D01*
X5640781Y2774238D01*
X5650585Y2784652D01*
X5659018Y2796286D01*
X5665927Y2808884D01*
X5671210Y2822194D01*
X5674817Y2836062D01*
X5676595Y2850337D01*
X5676595Y2864662D01*
X5674817Y2878886D01*
X5671210Y2892806D01*
X5665927Y2906115D01*
X5659018Y2918714D01*
X5650585Y2930296D01*
X5640781Y2940812D01*
X5629757Y2949956D01*
X5617616Y2957576D01*
X5604662Y2963722D01*
X5590997Y2968142D01*
X5576925Y2970784D01*
X5562600Y2971698D01*
X5548274Y2970784D01*
X5534202Y2968142D01*
X5520537Y2963722D01*
X5507583Y2957576D01*
X5495442Y2949956D01*
X5484418Y2940812D01*
X5474563Y2930296D01*
X5466130Y2918714D01*
X5459222Y2906115D01*
X5453938Y2892806D01*
X5450382Y2878886D01*
X5448604Y2864662D01*
X5448604Y2850337D01*
X5450382Y2836062D01*
X5453938Y2822194D01*
X5459222Y2808884D01*
X5466130Y2796286D01*
X5474563Y2784652D01*
X5484418Y2774238D01*
X5495442Y2765044D01*
X5507583Y2757373D01*
X5520537Y2751277D01*
X5534202Y2746857D01*
X5548274Y2744165D01*
G37*
G36*
X5061762Y2748838D02*
G01*
X5076088Y2749804D01*
X5090160Y2752394D01*
X5103825Y2756865D01*
X5116779Y2763012D01*
X5128920Y2770682D01*
X5139944Y2779776D01*
X5149799Y2790291D01*
X5158232Y2801874D01*
X5165140Y2814421D01*
X5170424Y2827832D01*
X5173980Y2841650D01*
X5175758Y2855874D01*
X5175758Y2870250D01*
X5173980Y2884525D01*
X5170424Y2898343D01*
X5165140Y2911703D01*
X5158232Y2924251D01*
X5149799Y2935884D01*
X5139944Y2946349D01*
X5128920Y2955493D01*
X5116779Y2963214D01*
X5103825Y2969260D01*
X5090160Y2973679D01*
X5076088Y2976422D01*
X5061762Y2977337D01*
X5047437Y2976422D01*
X5033365Y2973679D01*
X5019700Y2969260D01*
X5006746Y2963214D01*
X4994605Y2955493D01*
X4983581Y2946349D01*
X4973777Y2935884D01*
X4965344Y2924251D01*
X4958435Y2911703D01*
X4953152Y2898343D01*
X4949545Y2884525D01*
X4947767Y2870250D01*
X4947767Y2855874D01*
X4949545Y2841650D01*
X4953152Y2827832D01*
X4958435Y2814421D01*
X4965344Y2801874D01*
X4973777Y2790291D01*
X4983581Y2779776D01*
X4994605Y2770682D01*
X5006746Y2763012D01*
X5019700Y2756865D01*
X5033365Y2752394D01*
X5047437Y2749804D01*
G37*
G36*
X3359861Y2871114D02*
G01*
X3371138Y2871114D01*
X3382314Y2872841D01*
X3393084Y2876092D01*
X3403244Y2881071D01*
X3412540Y2887421D01*
X3420821Y2895041D01*
X3427882Y2903829D01*
X3433521Y2913634D01*
X3437636Y2924200D01*
X3440125Y2935122D01*
X3440988Y2946755D01*
X3440988Y3513734D01*
X3441801Y3517595D01*
X3443986Y3520846D01*
X3447287Y3523081D01*
X3451148Y3523894D01*
X3555695Y3523894D01*
X3569055Y3524758D01*
X3581806Y3527450D01*
X3594100Y3531819D01*
X3605682Y3537762D01*
X3616299Y3545281D01*
X3625850Y3554222D01*
X3634079Y3564280D01*
X3640836Y3575405D01*
X3646017Y3587445D01*
X3649522Y3599942D01*
X3651300Y3612896D01*
X3651300Y3625850D01*
X3649522Y3638804D01*
X3646017Y3651300D01*
X3640836Y3663289D01*
X3634079Y3674465D01*
X3625850Y3684524D01*
X3616299Y3693464D01*
X3605682Y3700932D01*
X3594100Y3706926D01*
X3581806Y3711295D01*
X3569055Y3713987D01*
X3555695Y3714902D01*
X2533040Y3714902D01*
X2529128Y3715613D01*
X2525826Y3717899D01*
X2422652Y3821023D01*
X2420416Y3824376D01*
X2419654Y3828287D01*
X2419654Y4885385D01*
X2420416Y4889296D01*
X2422652Y4892649D01*
X2425954Y4894783D01*
X2429814Y4895596D01*
X3292551Y4895596D01*
X3296412Y4894783D01*
X3299714Y4892649D01*
X3301898Y4889296D01*
X3302711Y4885385D01*
X3302711Y4419955D01*
X3303574Y4408322D01*
X3306064Y4397400D01*
X3310178Y4386834D01*
X3315817Y4377029D01*
X3322878Y4368241D01*
X3331159Y4360621D01*
X3340455Y4354271D01*
X3350615Y4349292D01*
X3361385Y4346041D01*
X3372561Y4344314D01*
X3383838Y4344314D01*
X3395014Y4346041D01*
X3405784Y4349292D01*
X3415944Y4354271D01*
X3425240Y4360621D01*
X3433521Y4368241D01*
X3440582Y4377029D01*
X3446221Y4386834D01*
X3450336Y4397400D01*
X3452825Y4408322D01*
X3453688Y4419955D01*
X3453688Y4885385D01*
X3454501Y4889296D01*
X3456686Y4892649D01*
X3459987Y4894783D01*
X3463848Y4895596D01*
X3530244Y4895596D01*
X3543604Y4896510D01*
X3556355Y4899152D01*
X3568649Y4903470D01*
X3580231Y4909464D01*
X3590848Y4917033D01*
X3600399Y4925923D01*
X3608628Y4936083D01*
X3615385Y4947158D01*
X3620566Y4959146D01*
X3624072Y4971694D01*
X3625850Y4984546D01*
X3625850Y4997653D01*
X3624072Y5010505D01*
X3620566Y5023104D01*
X3615385Y5034991D01*
X3608628Y5046116D01*
X3600399Y5056276D01*
X3590848Y5065115D01*
X3580231Y5072634D01*
X3568649Y5078679D01*
X3556355Y5082997D01*
X3543604Y5085689D01*
X3530244Y5086604D01*
X2429814Y5086604D01*
X2425954Y5087366D01*
X2422652Y5089550D01*
X2420416Y5092903D01*
X2419654Y5096814D01*
X2419654Y6311544D01*
X2419146Y6321704D01*
X2418791Y6324600D01*
X2416911Y6334556D01*
X2412949Y6346952D01*
X2411831Y6349695D01*
X2407310Y6358686D01*
X2405837Y6361226D01*
X2400147Y6369608D01*
X2398369Y6371894D01*
X2391511Y6379514D01*
X2125167Y6645808D01*
X2117598Y6652666D01*
X2115312Y6654495D01*
X2106930Y6660134D01*
X2104390Y6661607D01*
X2095347Y6666179D01*
X2092655Y6667296D01*
X2080209Y6671208D01*
X2070303Y6673138D01*
X2067407Y6673494D01*
X2057196Y6674002D01*
X1744167Y6674002D01*
X1741322Y6674358D01*
X1738680Y6675577D01*
X1732025Y6679844D01*
X1718919Y6685940D01*
X1705102Y6690410D01*
X1690878Y6693153D01*
X1676400Y6694119D01*
X1661922Y6693153D01*
X1647647Y6690410D01*
X1633880Y6685940D01*
X1620774Y6679844D01*
X1608480Y6672072D01*
X1597304Y6662826D01*
X1587398Y6652209D01*
X1578864Y6640474D01*
X1571904Y6627723D01*
X1566570Y6614261D01*
X1562963Y6600240D01*
X1561134Y6585813D01*
X1561134Y6571335D01*
X1562963Y6556959D01*
X1566570Y6542887D01*
X1571904Y6529476D01*
X1578864Y6516725D01*
X1587398Y6504990D01*
X1597304Y6494373D01*
X1608480Y6485128D01*
X1620774Y6477355D01*
X1633880Y6471208D01*
X1647647Y6466738D01*
X1661922Y6464046D01*
X1676400Y6463080D01*
X1690878Y6464046D01*
X1705102Y6466738D01*
X1718919Y6471208D01*
X1732025Y6477355D01*
X1738325Y6481368D01*
X1740916Y6482588D01*
X1743760Y6482994D01*
X2013661Y6482994D01*
X2017572Y6482181D01*
X2020874Y6479946D01*
X2225649Y6275171D01*
X2227884Y6271869D01*
X2228646Y6267958D01*
X2228596Y5635599D01*
X2227834Y5631688D01*
X2225598Y5628335D01*
X2222296Y5626150D01*
X2218436Y5625388D01*
X2070455Y5625388D01*
X2058873Y5624525D01*
X2047849Y5621985D01*
X2037334Y5617921D01*
X2027580Y5612231D01*
X2018741Y5605272D01*
X2011070Y5596991D01*
X2004720Y5587644D01*
X1999843Y5577484D01*
X1996490Y5566714D01*
X1994814Y5555538D01*
X1994814Y5544261D01*
X1996490Y5533085D01*
X1999843Y5522315D01*
X2004720Y5512155D01*
X2011070Y5502808D01*
X2018741Y5494528D01*
X2027580Y5487568D01*
X2037334Y5481878D01*
X2047849Y5477814D01*
X2058873Y5475224D01*
X2070455Y5474411D01*
X2218436Y5474411D01*
X2222296Y5473598D01*
X2225598Y5471464D01*
X2227834Y5468112D01*
X2228596Y5464200D01*
X2228646Y4302099D01*
X2227884Y4298188D01*
X2225649Y4294835D01*
X2222347Y4292650D01*
X2218486Y4291888D01*
X2095855Y4291888D01*
X2084222Y4291025D01*
X2073249Y4288485D01*
X2062734Y4284421D01*
X2052980Y4278731D01*
X2044141Y4271772D01*
X2036470Y4263491D01*
X2030120Y4254144D01*
X2025243Y4243984D01*
X2021890Y4233214D01*
X2020214Y4222038D01*
X2020214Y4210761D01*
X2021890Y4199585D01*
X2025243Y4188815D01*
X2030120Y4178655D01*
X2036470Y4169308D01*
X2044141Y4161028D01*
X2052980Y4154068D01*
X2062734Y4148378D01*
X2073249Y4144314D01*
X2084222Y4141724D01*
X2095855Y4140911D01*
X2218486Y4140911D01*
X2222347Y4140098D01*
X2225649Y4137964D01*
X2227884Y4134612D01*
X2228646Y4130700D01*
X2228646Y3784752D01*
X2229154Y3774541D01*
X2229510Y3771646D01*
X2231390Y3761689D01*
X2235352Y3749243D01*
X2236470Y3746550D01*
X2240991Y3737508D01*
X2242464Y3735019D01*
X2249932Y3724300D01*
X2256790Y3716731D01*
X2421534Y3551986D01*
X2429103Y3545128D01*
X2431389Y3543350D01*
X2439771Y3537712D01*
X2442311Y3536238D01*
X2454046Y3530549D01*
X2466492Y3526586D01*
X2476398Y3524707D01*
X2489504Y3523894D01*
X3279851Y3523894D01*
X3283712Y3523081D01*
X3287014Y3520846D01*
X3289198Y3517595D01*
X3290011Y3513734D01*
X3290011Y2946755D01*
X3290874Y2935122D01*
X3293364Y2924200D01*
X3297478Y2913634D01*
X3303117Y2903829D01*
X3310178Y2895041D01*
X3318459Y2887421D01*
X3327755Y2881071D01*
X3337915Y2876092D01*
X3348685Y2872841D01*
G37*
G36*
X6967220Y2930804D02*
G01*
X6976516Y2935173D01*
X6988606Y2942844D01*
X6999681Y2952038D01*
X7009485Y2962452D01*
X7017918Y2974086D01*
X7024827Y2986684D01*
X7025995Y2989630D01*
X6967220Y2989630D01*
G37*
G36*
X6875780Y2930804D02*
G01*
X6875780Y2989630D01*
X6816953Y2989630D01*
X6818122Y2986684D01*
X6825030Y2974086D01*
X6833463Y2962452D01*
X6843268Y2952038D01*
X6854342Y2942844D01*
X6866432Y2935173D01*
G37*
G36*
X762000Y2957423D02*
G01*
X776782Y2958388D01*
X791311Y2961081D01*
X805434Y2965704D01*
X818845Y2972054D01*
X831342Y2979928D01*
X842771Y2989376D01*
X852881Y3000146D01*
X861618Y3012135D01*
X868730Y3025190D01*
X874217Y3038957D01*
X877874Y3053283D01*
X879754Y3067964D01*
X879754Y3082848D01*
X877874Y3097530D01*
X874217Y3111855D01*
X868730Y3125622D01*
X861618Y3138627D01*
X852881Y3150565D01*
X842771Y3161385D01*
X831342Y3170834D01*
X818845Y3178759D01*
X805434Y3185058D01*
X791311Y3189681D01*
X787450Y3190392D01*
X783793Y3191916D01*
X780948Y3194761D01*
X779424Y3198368D01*
X779424Y3202381D01*
X780948Y3206038D01*
X783793Y3208883D01*
X787450Y3210407D01*
X791311Y3211068D01*
X805434Y3215741D01*
X818845Y3222040D01*
X831342Y3229965D01*
X842771Y3239363D01*
X852881Y3250184D01*
X861618Y3262223D01*
X868730Y3275126D01*
X874217Y3288944D01*
X877874Y3303270D01*
X879754Y3317951D01*
X879754Y3332784D01*
X877874Y3347465D01*
X874217Y3361842D01*
X868730Y3375609D01*
X861618Y3388664D01*
X852881Y3400602D01*
X842771Y3411372D01*
X831342Y3420872D01*
X818845Y3428796D01*
X805434Y3435146D01*
X791311Y3439668D01*
X776782Y3442462D01*
X762000Y3443427D01*
X747217Y3442462D01*
X732637Y3439668D01*
X718566Y3435146D01*
X705154Y3428796D01*
X692607Y3420872D01*
X681228Y3411372D01*
X671068Y3400602D01*
X662381Y3388664D01*
X655218Y3375609D01*
X649782Y3361842D01*
X646074Y3347465D01*
X644245Y3332784D01*
X644245Y3317951D01*
X646074Y3303270D01*
X649782Y3288944D01*
X655218Y3275126D01*
X662381Y3262223D01*
X671068Y3250184D01*
X681228Y3239363D01*
X692607Y3229965D01*
X705154Y3222040D01*
X718566Y3215741D01*
X732637Y3211068D01*
X736498Y3210407D01*
X740206Y3208883D01*
X743051Y3206038D01*
X744575Y3202381D01*
X744575Y3198368D01*
X743051Y3194761D01*
X740206Y3191916D01*
X736498Y3190392D01*
X732637Y3189681D01*
X718566Y3185058D01*
X705154Y3178759D01*
X692607Y3170834D01*
X681228Y3161385D01*
X671068Y3150565D01*
X662381Y3138627D01*
X655218Y3125622D01*
X649782Y3111855D01*
X646074Y3097530D01*
X644245Y3082848D01*
X644245Y3067964D01*
X646074Y3053283D01*
X649782Y3038957D01*
X655218Y3025190D01*
X662381Y3012135D01*
X671068Y3000146D01*
X681228Y2989376D01*
X692607Y2979928D01*
X705154Y2972054D01*
X718566Y2965704D01*
X732637Y2961081D01*
X747217Y2958388D01*
G37*
G36*
X5562600Y2997250D02*
G01*
X5576925Y2998165D01*
X5590997Y3000857D01*
X5604662Y3005277D01*
X5617616Y3011373D01*
X5629757Y3019044D01*
X5640781Y3028238D01*
X5650585Y3038652D01*
X5659018Y3050286D01*
X5665927Y3062884D01*
X5671210Y3076194D01*
X5674817Y3090062D01*
X5676595Y3104337D01*
X5676595Y3118662D01*
X5674817Y3132886D01*
X5671210Y3146806D01*
X5665927Y3160115D01*
X5659018Y3172714D01*
X5650585Y3184296D01*
X5640781Y3194812D01*
X5629757Y3203956D01*
X5617616Y3211576D01*
X5604662Y3217722D01*
X5590997Y3222142D01*
X5576925Y3224784D01*
X5562600Y3225698D01*
X5548274Y3224784D01*
X5534202Y3222142D01*
X5520537Y3217722D01*
X5507583Y3211576D01*
X5495442Y3203956D01*
X5484418Y3194812D01*
X5474563Y3184296D01*
X5466130Y3172714D01*
X5459222Y3160115D01*
X5453938Y3146806D01*
X5450382Y3132886D01*
X5448604Y3118662D01*
X5448604Y3104337D01*
X5450382Y3090062D01*
X5453938Y3076194D01*
X5459222Y3062884D01*
X5466130Y3050286D01*
X5474563Y3038652D01*
X5484418Y3028238D01*
X5495442Y3019044D01*
X5507583Y3011373D01*
X5520537Y3005277D01*
X5534202Y3000857D01*
X5548274Y2998165D01*
G37*
G36*
X5061762Y3002838D02*
G01*
X5076088Y3003804D01*
X5090160Y3006394D01*
X5103825Y3010865D01*
X5116779Y3017012D01*
X5128920Y3024682D01*
X5139944Y3033776D01*
X5149799Y3044291D01*
X5158232Y3055874D01*
X5165140Y3068421D01*
X5170424Y3081832D01*
X5173980Y3095650D01*
X5175758Y3109874D01*
X5175758Y3124250D01*
X5173980Y3138525D01*
X5170424Y3152343D01*
X5165140Y3165703D01*
X5158232Y3178251D01*
X5149799Y3189884D01*
X5139944Y3200349D01*
X5128920Y3209493D01*
X5116779Y3217214D01*
X5103825Y3223260D01*
X5090160Y3227679D01*
X5076088Y3230422D01*
X5061762Y3231337D01*
X5047437Y3230422D01*
X5033365Y3227679D01*
X5019700Y3223260D01*
X5006746Y3217214D01*
X4994605Y3209493D01*
X4983581Y3200349D01*
X4973777Y3189884D01*
X4965344Y3178251D01*
X4958435Y3165703D01*
X4953152Y3152343D01*
X4949545Y3138525D01*
X4947767Y3124250D01*
X4947767Y3109874D01*
X4949545Y3095650D01*
X4953152Y3081832D01*
X4958435Y3068421D01*
X4965344Y3055874D01*
X4973777Y3044291D01*
X4983581Y3033776D01*
X4994605Y3024682D01*
X5006746Y3017012D01*
X5019700Y3010865D01*
X5033365Y3006394D01*
X5047437Y3003804D01*
G37*
G36*
X6967220Y3081020D02*
G01*
X7025995Y3081020D01*
X7024827Y3083915D01*
X7017918Y3096514D01*
X7009485Y3108096D01*
X6999681Y3118612D01*
X6988606Y3127756D01*
X6976516Y3135376D01*
X6967220Y3139744D01*
G37*
G36*
X6816953Y3081020D02*
G01*
X6875780Y3081020D01*
X6875780Y3139744D01*
X6866432Y3135376D01*
X6854342Y3127756D01*
X6843268Y3118612D01*
X6833463Y3108096D01*
X6825030Y3096514D01*
X6818122Y3083915D01*
G37*
G36*
X5484368Y3251200D02*
G01*
X5640832Y3251200D01*
X5648248Y3251962D01*
X5654903Y3253943D01*
X5661050Y3257296D01*
X5666384Y3261715D01*
X5670804Y3267100D01*
X5674106Y3273145D01*
X5676087Y3279800D01*
X5676849Y3287217D01*
X5676849Y3443782D01*
X5676087Y3451199D01*
X5674106Y3457803D01*
X5670804Y3463950D01*
X5666384Y3469335D01*
X5661050Y3473704D01*
X5654903Y3477006D01*
X5648248Y3479037D01*
X5640832Y3479698D01*
X5484368Y3479698D01*
X5476951Y3479037D01*
X5470296Y3477006D01*
X5464149Y3473704D01*
X5458764Y3469335D01*
X5454345Y3463950D01*
X5451094Y3457803D01*
X5449062Y3451199D01*
X5448350Y3443782D01*
X5448350Y3287217D01*
X5449062Y3279800D01*
X5451094Y3273145D01*
X5454345Y3267100D01*
X5458764Y3261715D01*
X5464149Y3257296D01*
X5470296Y3253943D01*
X5476951Y3251962D01*
G37*
G36*
X5061762Y3256838D02*
G01*
X5076088Y3257803D01*
X5090160Y3260394D01*
X5103825Y3264865D01*
X5116779Y3271012D01*
X5128920Y3278682D01*
X5139944Y3287776D01*
X5149799Y3298291D01*
X5158232Y3309874D01*
X5165140Y3322421D01*
X5170424Y3335832D01*
X5173980Y3349650D01*
X5175758Y3363874D01*
X5175758Y3378250D01*
X5173980Y3392525D01*
X5170424Y3406343D01*
X5165140Y3419703D01*
X5158232Y3432251D01*
X5149799Y3443935D01*
X5139944Y3454349D01*
X5128920Y3463493D01*
X5116779Y3471214D01*
X5103825Y3477260D01*
X5090160Y3481679D01*
X5076088Y3484422D01*
X5061762Y3485337D01*
X5047437Y3484422D01*
X5033365Y3481679D01*
X5019700Y3477260D01*
X5006746Y3471214D01*
X4994605Y3463493D01*
X4983581Y3454349D01*
X4973777Y3443935D01*
X4965344Y3432251D01*
X4958435Y3419703D01*
X4953152Y3406343D01*
X4949545Y3392525D01*
X4947767Y3378250D01*
X4947767Y3363874D01*
X4949545Y3349650D01*
X4953152Y3335832D01*
X4958435Y3322421D01*
X4965344Y3309874D01*
X4973777Y3298291D01*
X4983581Y3287776D01*
X4994605Y3278682D01*
X5006746Y3271012D01*
X5019700Y3264865D01*
X5033365Y3260394D01*
X5047437Y3257803D01*
G37*
G36*
X5061762Y3510838D02*
G01*
X5076088Y3511804D01*
X5090160Y3514394D01*
X5103825Y3518865D01*
X5116779Y3525012D01*
X5128920Y3532682D01*
X5139944Y3541776D01*
X5149799Y3552291D01*
X5158232Y3563874D01*
X5165140Y3576421D01*
X5170424Y3589832D01*
X5173980Y3603650D01*
X5175758Y3617874D01*
X5175758Y3632250D01*
X5173980Y3646525D01*
X5170424Y3660343D01*
X5165140Y3673703D01*
X5158232Y3686251D01*
X5149799Y3697935D01*
X5139944Y3708349D01*
X5128920Y3717493D01*
X5116779Y3725214D01*
X5103825Y3731260D01*
X5090160Y3735679D01*
X5076088Y3738422D01*
X5061762Y3739337D01*
X5047437Y3738422D01*
X5033365Y3735679D01*
X5019700Y3731260D01*
X5006746Y3725214D01*
X4994605Y3717493D01*
X4983581Y3708349D01*
X4973777Y3697935D01*
X4965344Y3686251D01*
X4958435Y3673703D01*
X4953152Y3660343D01*
X4949545Y3646525D01*
X4947767Y3632250D01*
X4947767Y3617874D01*
X4949545Y3603650D01*
X4953152Y3589832D01*
X4958435Y3576421D01*
X4965344Y3563874D01*
X4973777Y3552291D01*
X4983581Y3541776D01*
X4994605Y3532682D01*
X5006746Y3525012D01*
X5019700Y3518865D01*
X5033365Y3514394D01*
X5047437Y3511804D01*
G37*
G36*
X4337304Y3599738D02*
G01*
X4337304Y3662679D01*
X4274413Y3662679D01*
X4277563Y3655618D01*
X4285386Y3642715D01*
X4294733Y3630726D01*
X4305452Y3620008D01*
X4317390Y3610660D01*
X4330344Y3602837D01*
G37*
G36*
X6115304Y3599738D02*
G01*
X6115304Y3662679D01*
X6052413Y3662679D01*
X6055563Y3655618D01*
X6063386Y3642715D01*
X6072733Y3630726D01*
X6083452Y3620008D01*
X6095390Y3610660D01*
X6108344Y3602837D01*
G37*
G36*
X4440021Y3599738D02*
G01*
X4446981Y3602837D01*
X4459935Y3610660D01*
X4471873Y3620008D01*
X4482592Y3630726D01*
X4491939Y3642715D01*
X4499762Y3655618D01*
X4502912Y3662679D01*
X4440021Y3662679D01*
G37*
G36*
X6218021Y3599738D02*
G01*
X6224981Y3602837D01*
X6237935Y3610660D01*
X6249873Y3620008D01*
X6260592Y3630726D01*
X6269939Y3642715D01*
X6277762Y3655618D01*
X6280912Y3662679D01*
X6218021Y3662679D01*
G37*
G36*
X762000Y3744823D02*
G01*
X776782Y3745788D01*
X791311Y3748481D01*
X805434Y3753104D01*
X818845Y3759454D01*
X831342Y3767328D01*
X842771Y3776776D01*
X852881Y3787546D01*
X861618Y3799535D01*
X868730Y3812590D01*
X874217Y3826357D01*
X877874Y3840683D01*
X879754Y3855364D01*
X879754Y3870248D01*
X877874Y3884929D01*
X874217Y3899255D01*
X868730Y3913022D01*
X861618Y3926027D01*
X852881Y3937965D01*
X842771Y3948785D01*
X831342Y3958285D01*
X818845Y3966159D01*
X805434Y3972458D01*
X791311Y3977081D01*
X787450Y3977792D01*
X783793Y3979316D01*
X780948Y3982161D01*
X779424Y3985768D01*
X779424Y3989781D01*
X780948Y3993438D01*
X783793Y3996283D01*
X787450Y3997807D01*
X791311Y3998468D01*
X805434Y4003141D01*
X818845Y4009440D01*
X831342Y4017365D01*
X842771Y4026763D01*
X852881Y4037584D01*
X861618Y4049623D01*
X868730Y4062526D01*
X874217Y4076344D01*
X877874Y4090670D01*
X879754Y4105351D01*
X879754Y4120184D01*
X877874Y4134865D01*
X874217Y4149242D01*
X868730Y4163009D01*
X861618Y4176064D01*
X852881Y4188002D01*
X842771Y4198772D01*
X831342Y4208272D01*
X818845Y4216196D01*
X805434Y4222546D01*
X791311Y4227068D01*
X776782Y4229862D01*
X762000Y4230827D01*
X747217Y4229862D01*
X732637Y4227068D01*
X718566Y4222546D01*
X705154Y4216196D01*
X692607Y4208272D01*
X681228Y4198772D01*
X671068Y4188002D01*
X662381Y4176064D01*
X655218Y4163009D01*
X649782Y4149242D01*
X646074Y4134865D01*
X644245Y4120184D01*
X644245Y4105351D01*
X646074Y4090670D01*
X649782Y4076344D01*
X655218Y4062526D01*
X662381Y4049623D01*
X671068Y4037584D01*
X681228Y4026763D01*
X692607Y4017365D01*
X705154Y4009440D01*
X718566Y4003141D01*
X732637Y3998468D01*
X736498Y3997807D01*
X740206Y3996283D01*
X743051Y3993438D01*
X744575Y3989781D01*
X744575Y3985768D01*
X743051Y3982161D01*
X740206Y3979316D01*
X736498Y3977792D01*
X732637Y3977081D01*
X718566Y3972458D01*
X705154Y3966159D01*
X692607Y3958285D01*
X681228Y3948785D01*
X671068Y3937965D01*
X662381Y3926027D01*
X655218Y3913022D01*
X649782Y3899255D01*
X646074Y3884929D01*
X644245Y3870248D01*
X644245Y3855364D01*
X646074Y3840683D01*
X649782Y3826357D01*
X655218Y3812590D01*
X662381Y3799535D01*
X671068Y3787546D01*
X681228Y3776776D01*
X692607Y3767328D01*
X705154Y3759454D01*
X718566Y3753104D01*
X732637Y3748481D01*
X747217Y3745788D01*
G37*
G36*
X5061762Y3764838D02*
G01*
X5076088Y3765804D01*
X5090160Y3768394D01*
X5103825Y3772865D01*
X5116779Y3779012D01*
X5128920Y3786682D01*
X5139944Y3795776D01*
X5149799Y3806291D01*
X5158232Y3817874D01*
X5165140Y3830421D01*
X5170424Y3843832D01*
X5173980Y3857650D01*
X5175758Y3871874D01*
X5175758Y3886250D01*
X5173980Y3900525D01*
X5170424Y3914343D01*
X5165140Y3927703D01*
X5158232Y3940251D01*
X5149799Y3951935D01*
X5139944Y3962349D01*
X5128920Y3971493D01*
X5116779Y3979214D01*
X5103825Y3985260D01*
X5090160Y3989679D01*
X5076088Y3992422D01*
X5061762Y3993337D01*
X5047437Y3992422D01*
X5033365Y3989679D01*
X5019700Y3985260D01*
X5006746Y3979214D01*
X4994605Y3971493D01*
X4983581Y3962349D01*
X4973777Y3951935D01*
X4965344Y3940251D01*
X4958435Y3927703D01*
X4953152Y3914343D01*
X4949545Y3900525D01*
X4947767Y3886250D01*
X4947767Y3871874D01*
X4949545Y3857650D01*
X4953152Y3843832D01*
X4958435Y3830421D01*
X4965344Y3817874D01*
X4973777Y3806291D01*
X4983581Y3795776D01*
X4994605Y3786682D01*
X5006746Y3779012D01*
X5019700Y3772865D01*
X5033365Y3768394D01*
X5047437Y3765804D01*
G37*
G36*
X4274413Y3765346D02*
G01*
X4337304Y3765346D01*
X4337304Y3828237D01*
X4330344Y3825087D01*
X4317390Y3817213D01*
X4305452Y3807866D01*
X4294733Y3797147D01*
X4285386Y3785311D01*
X4277563Y3772255D01*
G37*
G36*
X6052413Y3765346D02*
G01*
X6115304Y3765346D01*
X6115304Y3828237D01*
X6108344Y3825087D01*
X6095390Y3817213D01*
X6083452Y3807866D01*
X6072733Y3797147D01*
X6063386Y3785311D01*
X6055563Y3772255D01*
G37*
G36*
X4440021Y3765346D02*
G01*
X4502912Y3765346D01*
X4499762Y3772255D01*
X4491939Y3785311D01*
X4482592Y3797147D01*
X4471873Y3807866D01*
X4459935Y3817213D01*
X4446981Y3825087D01*
X4440021Y3828237D01*
G37*
G36*
X6218021Y3765346D02*
G01*
X6280912Y3765346D01*
X6277762Y3772255D01*
X6269939Y3785311D01*
X6260592Y3797147D01*
X6249873Y3807866D01*
X6237935Y3817213D01*
X6224981Y3825087D01*
X6218021Y3828237D01*
G37*
G36*
X4388662Y3842512D02*
G01*
X4403801Y3843426D01*
X4418685Y3846118D01*
X4426813Y3848658D01*
X4430522Y3849065D01*
X4432147Y3850284D01*
X4446981Y3856837D01*
X4459935Y3864660D01*
X4471873Y3874008D01*
X4482592Y3884726D01*
X4491939Y3896715D01*
X4499762Y3909618D01*
X4506010Y3923487D01*
X4510532Y3937914D01*
X4513224Y3952900D01*
X4514138Y3967987D01*
X4513224Y3983126D01*
X4510532Y3998010D01*
X4506010Y4012488D01*
X4499762Y4026255D01*
X4491939Y4039311D01*
X4482592Y4051147D01*
X4471873Y4061866D01*
X4459935Y4071213D01*
X4446981Y4079087D01*
X4432147Y4085742D01*
X4428998Y4087926D01*
X4426864Y4091178D01*
X4426153Y4094987D01*
X4426864Y4098747D01*
X4428998Y4101998D01*
X4432147Y4104284D01*
X4446981Y4110837D01*
X4459935Y4118660D01*
X4471873Y4128008D01*
X4482592Y4138726D01*
X4491939Y4150715D01*
X4499762Y4163618D01*
X4506010Y4177487D01*
X4510532Y4191914D01*
X4513224Y4206900D01*
X4514138Y4221988D01*
X4513224Y4237126D01*
X4510532Y4252010D01*
X4506010Y4266488D01*
X4499762Y4280255D01*
X4491939Y4293311D01*
X4482592Y4305147D01*
X4471873Y4315866D01*
X4459935Y4325213D01*
X4446981Y4333087D01*
X4432147Y4339742D01*
X4428998Y4341926D01*
X4426864Y4345178D01*
X4426153Y4348988D01*
X4426864Y4352747D01*
X4428998Y4355998D01*
X4432147Y4358284D01*
X4446981Y4364837D01*
X4459935Y4372660D01*
X4471873Y4382008D01*
X4482592Y4392726D01*
X4491939Y4404715D01*
X4499762Y4417618D01*
X4506010Y4431487D01*
X4510532Y4445914D01*
X4513224Y4460900D01*
X4514138Y4475988D01*
X4513224Y4491126D01*
X4510532Y4506010D01*
X4506010Y4520488D01*
X4499762Y4534255D01*
X4491939Y4547311D01*
X4482592Y4559147D01*
X4471873Y4569866D01*
X4459935Y4579213D01*
X4446981Y4587087D01*
X4432147Y4593742D01*
X4428998Y4595926D01*
X4426864Y4599178D01*
X4426153Y4602988D01*
X4426864Y4606747D01*
X4428998Y4609998D01*
X4432147Y4612284D01*
X4446981Y4618837D01*
X4459935Y4626660D01*
X4471873Y4636008D01*
X4482592Y4646726D01*
X4491939Y4658715D01*
X4499762Y4671618D01*
X4506010Y4685487D01*
X4510532Y4699914D01*
X4513224Y4714900D01*
X4514138Y4729988D01*
X4513224Y4745126D01*
X4510532Y4760010D01*
X4506010Y4774488D01*
X4499762Y4788255D01*
X4491939Y4801311D01*
X4482592Y4813147D01*
X4471873Y4823866D01*
X4459935Y4833213D01*
X4446981Y4841087D01*
X4432147Y4847742D01*
X4430522Y4848860D01*
X4426813Y4849266D01*
X4418685Y4851806D01*
X4403801Y4854600D01*
X4388662Y4855514D01*
X4373524Y4854600D01*
X4358640Y4851806D01*
X4350512Y4849266D01*
X4346854Y4848860D01*
X4345178Y4847742D01*
X4330344Y4841087D01*
X4317390Y4833213D01*
X4305452Y4823866D01*
X4294733Y4813147D01*
X4285386Y4801311D01*
X4277563Y4788255D01*
X4271314Y4774488D01*
X4266844Y4760010D01*
X4264101Y4745126D01*
X4263186Y4729988D01*
X4264101Y4714900D01*
X4266844Y4699914D01*
X4271314Y4685487D01*
X4277563Y4671618D01*
X4285386Y4658715D01*
X4294733Y4646726D01*
X4305452Y4636008D01*
X4317390Y4626660D01*
X4330344Y4618837D01*
X4345178Y4612284D01*
X4348327Y4609998D01*
X4350461Y4606747D01*
X4351172Y4602988D01*
X4350461Y4599178D01*
X4348327Y4595926D01*
X4345178Y4593742D01*
X4330344Y4587087D01*
X4317390Y4579213D01*
X4305452Y4569866D01*
X4294733Y4559147D01*
X4285386Y4547311D01*
X4277563Y4534255D01*
X4271314Y4520488D01*
X4266844Y4506010D01*
X4264101Y4491126D01*
X4263186Y4475988D01*
X4264101Y4460900D01*
X4266844Y4445914D01*
X4271314Y4431487D01*
X4277563Y4417618D01*
X4285386Y4404715D01*
X4294733Y4392726D01*
X4305452Y4382008D01*
X4317390Y4372660D01*
X4330344Y4364837D01*
X4345178Y4358284D01*
X4348327Y4355998D01*
X4350461Y4352747D01*
X4351172Y4348988D01*
X4350461Y4345178D01*
X4348327Y4341926D01*
X4345178Y4339742D01*
X4330344Y4333087D01*
X4317390Y4325213D01*
X4305452Y4315866D01*
X4294733Y4305147D01*
X4285386Y4293311D01*
X4277563Y4280255D01*
X4271314Y4266488D01*
X4266844Y4252010D01*
X4264101Y4237126D01*
X4263186Y4221988D01*
X4264101Y4206900D01*
X4266844Y4191914D01*
X4271314Y4177487D01*
X4277563Y4163618D01*
X4285386Y4150715D01*
X4294733Y4138726D01*
X4305452Y4128008D01*
X4317390Y4118660D01*
X4330344Y4110837D01*
X4345178Y4104284D01*
X4348327Y4101998D01*
X4350461Y4098747D01*
X4351172Y4094987D01*
X4350461Y4091178D01*
X4348327Y4087926D01*
X4345178Y4085742D01*
X4330344Y4079087D01*
X4317390Y4071213D01*
X4305452Y4061866D01*
X4294733Y4051147D01*
X4285386Y4039311D01*
X4278884Y4028541D01*
X4276648Y4025900D01*
X4273600Y4024223D01*
X4270197Y4023664D01*
X3755948Y4023664D01*
X3752087Y4024376D01*
X3748786Y4026611D01*
X3703421Y4071975D01*
X3701237Y4075226D01*
X3700475Y4079087D01*
X3700475Y4699000D01*
X3700881Y4701794D01*
X3703320Y4706467D01*
X3707485Y4716221D01*
X3710025Y4726533D01*
X3710838Y4737049D01*
X3710025Y4747666D01*
X3707485Y4757978D01*
X3703320Y4767732D01*
X3697630Y4776673D01*
X3691839Y4783277D01*
X3689756Y4786884D01*
X3689350Y4791100D01*
X3690670Y4795113D01*
X3693566Y4798212D01*
X3697427Y4799939D01*
X3701338Y4800752D01*
X3711295Y4804511D01*
X3715765Y4807153D01*
X3718204Y4808118D01*
X3720846Y4808423D01*
X3998772Y4808423D01*
X4002633Y4807712D01*
X4005935Y4805476D01*
X4119879Y4691532D01*
X4122064Y4688230D01*
X4122826Y4684369D01*
X4122826Y4260748D01*
X4122064Y4256887D01*
X4119879Y4253585D01*
X4067098Y4201007D01*
X4063390Y4198620D01*
X4059021Y4198112D01*
X4054195Y4199737D01*
X4044238Y4203547D01*
X4033875Y4205630D01*
X4023258Y4206087D01*
X4012692Y4204868D01*
X4002532Y4201871D01*
X3992930Y4197299D01*
X3984193Y4191254D01*
X3976522Y4183938D01*
X3970172Y4175404D01*
X3965244Y4166006D01*
X3961841Y4155998D01*
X3960164Y4145483D01*
X3960164Y4134865D01*
X3961841Y4124401D01*
X3965244Y4114342D01*
X3970172Y4104944D01*
X3976522Y4096512D01*
X3984193Y4089146D01*
X3992930Y4083050D01*
X4002532Y4078528D01*
X4012692Y4075531D01*
X4023258Y4074261D01*
X4033875Y4074718D01*
X4044238Y4076852D01*
X4054195Y4080611D01*
X4058665Y4083253D01*
X4061104Y4084218D01*
X4063746Y4084523D01*
X4084421Y4084523D01*
X4089400Y4084777D01*
X4094276Y4085386D01*
X4098899Y4086402D01*
X4103624Y4087876D01*
X4107992Y4089704D01*
X4112361Y4092041D01*
X4116374Y4094530D01*
X4120286Y4097528D01*
X4123994Y4100880D01*
X4217365Y4194098D01*
X4220870Y4197858D01*
X4223766Y4201617D01*
X4226407Y4205833D01*
X4228592Y4209999D01*
X4230522Y4214571D01*
X4231944Y4219092D01*
X4233011Y4223918D01*
X4233621Y4228592D01*
X4233875Y4233773D01*
X4233875Y4711395D01*
X4233621Y4716373D01*
X4233011Y4721250D01*
X4231944Y4725924D01*
X4230522Y4730546D01*
X4228642Y4735017D01*
X4226407Y4739335D01*
X4223816Y4743399D01*
X4220870Y4747209D01*
X4217466Y4751019D01*
X4065371Y4903063D01*
X4061612Y4906467D01*
X4057802Y4909413D01*
X4053687Y4912004D01*
X4049420Y4914239D01*
X4044950Y4916119D01*
X4040327Y4917592D01*
X4035602Y4918608D01*
X4030776Y4919218D01*
X4025747Y4919522D01*
X3721303Y4919522D01*
X3718661Y4919827D01*
X3716223Y4920792D01*
X3711295Y4923637D01*
X3701338Y4927447D01*
X3690975Y4929530D01*
X3680358Y4929987D01*
X3669792Y4928768D01*
X3659632Y4925771D01*
X3650030Y4921199D01*
X3641293Y4915154D01*
X3633622Y4907838D01*
X3627272Y4899304D01*
X3622344Y4889906D01*
X3618941Y4879898D01*
X3617264Y4869383D01*
X3617264Y4858766D01*
X3618941Y4848301D01*
X3622344Y4838242D01*
X3627272Y4828844D01*
X3633622Y4820412D01*
X3635400Y4818634D01*
X3637787Y4815128D01*
X3638499Y4811014D01*
X3637534Y4806899D01*
X3634892Y4803546D01*
X3631184Y4801565D01*
X3621532Y4798771D01*
X3611930Y4794199D01*
X3603193Y4788154D01*
X3595522Y4780838D01*
X3589172Y4772304D01*
X3584244Y4762906D01*
X3580841Y4752898D01*
X3579164Y4742383D01*
X3579164Y4731766D01*
X3580841Y4721301D01*
X3584244Y4711242D01*
X3588258Y4703521D01*
X3589121Y4701235D01*
X3589426Y4698796D01*
X3589426Y4052112D01*
X3589680Y4047134D01*
X3590290Y4042257D01*
X3591356Y4037533D01*
X3592779Y4032961D01*
X3594658Y4028490D01*
X3596894Y4024223D01*
X3599484Y4020058D01*
X3602431Y4016298D01*
X3605834Y4012488D01*
X3689350Y3928973D01*
X3693109Y3925570D01*
X3696919Y3922623D01*
X3701034Y3920083D01*
X3705301Y3917797D01*
X3709771Y3915918D01*
X3714394Y3914495D01*
X3719118Y3913428D01*
X3723944Y3912819D01*
X3728974Y3912565D01*
X4270044Y3912565D01*
X4273448Y3912006D01*
X4276496Y3910329D01*
X4278731Y3907688D01*
X4285386Y3896715D01*
X4294733Y3884726D01*
X4305452Y3874008D01*
X4317390Y3864660D01*
X4330344Y3856837D01*
X4345178Y3850284D01*
X4346854Y3849065D01*
X4350512Y3848658D01*
X4358640Y3846118D01*
X4373524Y3843426D01*
G37*
G36*
X6921500Y3987850D02*
G01*
X6935825Y3988765D01*
X6949897Y3991457D01*
X6963562Y3995877D01*
X6976516Y4001973D01*
X6988606Y4009644D01*
X6999681Y4018838D01*
X7009485Y4029252D01*
X7017918Y4040886D01*
X7024827Y4053484D01*
X7030110Y4066794D01*
X7033717Y4080662D01*
X7035495Y4094937D01*
X7035495Y4109262D01*
X7033717Y4123486D01*
X7030110Y4137406D01*
X7024827Y4150715D01*
X7017918Y4163314D01*
X7009485Y4174896D01*
X6999681Y4185412D01*
X6988606Y4194556D01*
X6976516Y4202176D01*
X6963562Y4208322D01*
X6949897Y4212742D01*
X6935825Y4215384D01*
X6921500Y4216298D01*
X6907174Y4215384D01*
X6893102Y4212742D01*
X6879437Y4208322D01*
X6866432Y4202176D01*
X6854342Y4194556D01*
X6843268Y4185412D01*
X6833463Y4174896D01*
X6825030Y4163314D01*
X6818122Y4150715D01*
X6812838Y4137406D01*
X6809282Y4123486D01*
X6807504Y4109262D01*
X6807504Y4094937D01*
X6809282Y4080662D01*
X6812838Y4066794D01*
X6818122Y4053484D01*
X6825030Y4040886D01*
X6833463Y4029252D01*
X6843268Y4018838D01*
X6854342Y4009644D01*
X6866432Y4001973D01*
X6879437Y3995877D01*
X6893102Y3991457D01*
X6907174Y3988765D01*
G37*
G36*
X5061762Y4018838D02*
G01*
X5076088Y4019804D01*
X5090160Y4022394D01*
X5103825Y4026865D01*
X5116779Y4033012D01*
X5128920Y4040682D01*
X5139944Y4049776D01*
X5149799Y4060291D01*
X5158232Y4071874D01*
X5165140Y4084421D01*
X5170424Y4097832D01*
X5173980Y4111650D01*
X5175758Y4125874D01*
X5175758Y4140250D01*
X5173980Y4154525D01*
X5170424Y4168343D01*
X5165140Y4181703D01*
X5158232Y4194251D01*
X5149799Y4205935D01*
X5139944Y4216349D01*
X5128920Y4225493D01*
X5116779Y4233214D01*
X5103825Y4239260D01*
X5090160Y4243679D01*
X5076088Y4246422D01*
X5061762Y4247337D01*
X5047437Y4246422D01*
X5033365Y4243679D01*
X5019700Y4239260D01*
X5006746Y4233214D01*
X4994605Y4225493D01*
X4983581Y4216349D01*
X4973777Y4205935D01*
X4965344Y4194251D01*
X4958435Y4181703D01*
X4953152Y4168343D01*
X4949545Y4154525D01*
X4947767Y4140250D01*
X4947767Y4125874D01*
X4949545Y4111650D01*
X4953152Y4097832D01*
X4958435Y4084421D01*
X4965344Y4071874D01*
X4973777Y4060291D01*
X4983581Y4049776D01*
X4994605Y4040682D01*
X5006746Y4033012D01*
X5019700Y4026865D01*
X5033365Y4022394D01*
X5047437Y4019804D01*
G37*
G36*
X6875780Y4251604D02*
G01*
X6875780Y4310380D01*
X6816953Y4310380D01*
X6818122Y4307484D01*
X6825030Y4294886D01*
X6833463Y4283252D01*
X6843268Y4272838D01*
X6854342Y4263644D01*
X6866432Y4255973D01*
G37*
G36*
X6967220Y4251604D02*
G01*
X6976516Y4255973D01*
X6988606Y4263644D01*
X6999681Y4272838D01*
X7009485Y4283252D01*
X7017918Y4294886D01*
X7024827Y4307484D01*
X7025995Y4310380D01*
X6967220Y4310380D01*
G37*
G36*
X5061762Y4272838D02*
G01*
X5076088Y4273804D01*
X5090160Y4276394D01*
X5103825Y4280865D01*
X5116779Y4287012D01*
X5128920Y4294682D01*
X5139944Y4303776D01*
X5149799Y4314291D01*
X5158232Y4325874D01*
X5165140Y4338421D01*
X5170424Y4351832D01*
X5173980Y4365650D01*
X5175758Y4379874D01*
X5175758Y4394250D01*
X5173980Y4408525D01*
X5170424Y4422343D01*
X5165140Y4435703D01*
X5158232Y4448251D01*
X5149799Y4459935D01*
X5139944Y4470349D01*
X5128920Y4479493D01*
X5116779Y4487214D01*
X5103825Y4493260D01*
X5090160Y4497679D01*
X5076088Y4500422D01*
X5061762Y4501337D01*
X5047437Y4500422D01*
X5033365Y4497679D01*
X5019700Y4493260D01*
X5006746Y4487214D01*
X4994605Y4479493D01*
X4983581Y4470349D01*
X4973777Y4459935D01*
X4965344Y4448251D01*
X4958435Y4435703D01*
X4953152Y4422343D01*
X4949545Y4408525D01*
X4947767Y4394250D01*
X4947767Y4379874D01*
X4949545Y4365650D01*
X4953152Y4351832D01*
X4958435Y4338421D01*
X4965344Y4325874D01*
X4973777Y4314291D01*
X4983581Y4303776D01*
X4994605Y4294682D01*
X5006746Y4287012D01*
X5019700Y4280865D01*
X5033365Y4276394D01*
X5047437Y4273804D01*
G37*
G36*
X6816953Y4401769D02*
G01*
X6875780Y4401769D01*
X6875780Y4460544D01*
X6866432Y4456176D01*
X6854342Y4448556D01*
X6843268Y4439412D01*
X6833463Y4428896D01*
X6825030Y4417314D01*
X6818122Y4404715D01*
G37*
G36*
X6967220Y4401769D02*
G01*
X7025995Y4401769D01*
X7024827Y4404715D01*
X7017918Y4417314D01*
X7009485Y4428896D01*
X6999681Y4439412D01*
X6988606Y4448556D01*
X6976516Y4456176D01*
X6967220Y4460544D01*
G37*
G36*
X5061762Y4526838D02*
G01*
X5076088Y4527804D01*
X5090160Y4530394D01*
X5103825Y4534865D01*
X5116779Y4541012D01*
X5128920Y4548682D01*
X5139944Y4557776D01*
X5149799Y4568291D01*
X5158232Y4579874D01*
X5165140Y4592421D01*
X5170424Y4605832D01*
X5173980Y4619650D01*
X5175758Y4633874D01*
X5175758Y4648250D01*
X5173980Y4662525D01*
X5170424Y4676343D01*
X5165140Y4689703D01*
X5158232Y4702251D01*
X5149799Y4713935D01*
X5139944Y4724349D01*
X5128920Y4733493D01*
X5116779Y4741214D01*
X5103825Y4747260D01*
X5090160Y4751679D01*
X5076088Y4754422D01*
X5061762Y4755337D01*
X5047437Y4754422D01*
X5033365Y4751679D01*
X5019700Y4747260D01*
X5006746Y4741214D01*
X4994605Y4733493D01*
X4983581Y4724349D01*
X4973777Y4713935D01*
X4965344Y4702251D01*
X4958435Y4689703D01*
X4953152Y4676343D01*
X4949545Y4662525D01*
X4947767Y4648250D01*
X4947767Y4633874D01*
X4949545Y4619650D01*
X4953152Y4605832D01*
X4958435Y4592421D01*
X4965344Y4579874D01*
X4973777Y4568291D01*
X4983581Y4557776D01*
X4994605Y4548682D01*
X5006746Y4541012D01*
X5019700Y4534865D01*
X5033365Y4530394D01*
X5047437Y4527804D01*
G37*
G36*
X943000Y4758385D02*
G01*
X943000Y4818481D01*
X882802Y4818481D01*
X883818Y4815890D01*
X890981Y4802835D01*
X899668Y4790846D01*
X909828Y4780076D01*
X921207Y4770628D01*
X933754Y4762754D01*
G37*
G36*
X1038199Y4758385D02*
G01*
X1047445Y4762754D01*
X1059942Y4770628D01*
X1071372Y4780076D01*
X1081481Y4790846D01*
X1090218Y4802835D01*
X1097330Y4815890D01*
X1098397Y4818481D01*
X1038199Y4818481D01*
G37*
G36*
X5061762Y4780838D02*
G01*
X5076088Y4781804D01*
X5090160Y4784394D01*
X5103825Y4788865D01*
X5116779Y4795012D01*
X5128920Y4802682D01*
X5139944Y4811776D01*
X5149799Y4822291D01*
X5158232Y4833874D01*
X5165140Y4846421D01*
X5170424Y4859832D01*
X5173980Y4873650D01*
X5175758Y4887874D01*
X5175758Y4902250D01*
X5173980Y4916525D01*
X5170424Y4930343D01*
X5165140Y4943703D01*
X5158232Y4956251D01*
X5149799Y4967935D01*
X5139944Y4978349D01*
X5128920Y4987493D01*
X5116779Y4995214D01*
X5103825Y5001260D01*
X5090160Y5005679D01*
X5076088Y5008422D01*
X5061762Y5009337D01*
X5047437Y5008422D01*
X5033365Y5005679D01*
X5019700Y5001260D01*
X5006746Y4995214D01*
X4994605Y4987493D01*
X4983581Y4978349D01*
X4973777Y4967935D01*
X4965344Y4956251D01*
X4958435Y4943703D01*
X4953152Y4930343D01*
X4949545Y4916525D01*
X4947767Y4902250D01*
X4947767Y4887874D01*
X4949545Y4873650D01*
X4953152Y4859832D01*
X4958435Y4846421D01*
X4965344Y4833874D01*
X4973777Y4822291D01*
X4983581Y4811776D01*
X4994605Y4802682D01*
X5006746Y4795012D01*
X5019700Y4788865D01*
X5033365Y4784394D01*
X5047437Y4781804D01*
G37*
G36*
X4337304Y4869738D02*
G01*
X4337304Y4932680D01*
X4274413Y4932680D01*
X4277563Y4925618D01*
X4285386Y4912715D01*
X4294733Y4900726D01*
X4305452Y4890008D01*
X4317390Y4880660D01*
X4330344Y4872837D01*
G37*
G36*
X4440021Y4869738D02*
G01*
X4446981Y4872837D01*
X4459935Y4880660D01*
X4471873Y4890008D01*
X4482592Y4900726D01*
X4491939Y4912715D01*
X4499762Y4925618D01*
X4502912Y4932680D01*
X4440021Y4932680D01*
G37*
G36*
X6115304Y4869738D02*
G01*
X6115304Y4932680D01*
X6052413Y4932680D01*
X6055563Y4925618D01*
X6063386Y4912715D01*
X6072733Y4900726D01*
X6083452Y4890008D01*
X6095390Y4880660D01*
X6108344Y4872837D01*
G37*
G36*
X6218021Y4869738D02*
G01*
X6224981Y4872837D01*
X6237935Y4880660D01*
X6249873Y4890008D01*
X6260592Y4900726D01*
X6269939Y4912715D01*
X6277762Y4925618D01*
X6280912Y4932680D01*
X6218021Y4932680D01*
G37*
G36*
X1038199Y4913680D02*
G01*
X1098397Y4913680D01*
X1097330Y4916322D01*
X1090218Y4929327D01*
X1081481Y4941265D01*
X1071372Y4952085D01*
X1059942Y4961585D01*
X1047445Y4969459D01*
X1038199Y4973828D01*
G37*
G36*
X882802Y4913680D02*
G01*
X943000Y4913680D01*
X943000Y4973828D01*
X933754Y4969459D01*
X921207Y4961585D01*
X909828Y4952085D01*
X899668Y4941265D01*
X890981Y4929327D01*
X883818Y4916322D01*
G37*
G36*
X990600Y4998110D02*
G01*
X1005382Y4999075D01*
X1019911Y5001768D01*
X1034034Y5006441D01*
X1047445Y5012740D01*
X1059942Y5020665D01*
X1071372Y5030063D01*
X1081481Y5040884D01*
X1090218Y5052923D01*
X1097330Y5065826D01*
X1102817Y5079644D01*
X1106474Y5093970D01*
X1108354Y5108651D01*
X1108354Y5123484D01*
X1106474Y5138166D01*
X1102817Y5152542D01*
X1097330Y5166309D01*
X1090218Y5179364D01*
X1081481Y5191302D01*
X1071372Y5202072D01*
X1059942Y5211572D01*
X1047445Y5219496D01*
X1034034Y5225846D01*
X1019911Y5230368D01*
X1005382Y5233162D01*
X990600Y5234127D01*
X975817Y5233162D01*
X961237Y5230368D01*
X947166Y5225846D01*
X933754Y5219496D01*
X921207Y5211572D01*
X909828Y5202072D01*
X899668Y5191302D01*
X890981Y5179364D01*
X883818Y5166309D01*
X878382Y5152542D01*
X874674Y5138166D01*
X872845Y5123484D01*
X872845Y5108651D01*
X874674Y5093970D01*
X878382Y5079644D01*
X883818Y5065826D01*
X890981Y5052923D01*
X899668Y5040884D01*
X909828Y5030063D01*
X921207Y5020665D01*
X933754Y5012740D01*
X947166Y5006441D01*
X961237Y5001768D01*
X975817Y4999075D01*
G37*
G36*
X4983530Y5034838D02*
G01*
X5139994Y5034838D01*
X5147411Y5035550D01*
X5154066Y5037531D01*
X5160213Y5040833D01*
X5165598Y5045252D01*
X5169966Y5050637D01*
X5173268Y5056784D01*
X5175300Y5063388D01*
X5176012Y5070856D01*
X5176012Y5227320D01*
X5175300Y5234736D01*
X5173268Y5241442D01*
X5169966Y5247487D01*
X5165598Y5252872D01*
X5160213Y5257292D01*
X5154066Y5260543D01*
X5147411Y5262575D01*
X5139994Y5263337D01*
X4983530Y5263337D01*
X4976114Y5262575D01*
X4969459Y5260543D01*
X4963312Y5257292D01*
X4957978Y5252872D01*
X4953558Y5247487D01*
X4950256Y5241442D01*
X4948224Y5234736D01*
X4947513Y5227320D01*
X4947513Y5070856D01*
X4948224Y5063388D01*
X4950256Y5056784D01*
X4953558Y5050637D01*
X4957978Y5045252D01*
X4963312Y5040833D01*
X4969459Y5037531D01*
X4976114Y5035550D01*
G37*
G36*
X6218021Y5035346D02*
G01*
X6280912Y5035346D01*
X6277762Y5042255D01*
X6269939Y5055311D01*
X6260592Y5067147D01*
X6249873Y5077866D01*
X6237935Y5087213D01*
X6224981Y5095087D01*
X6218021Y5098237D01*
G37*
G36*
X6052413Y5035346D02*
G01*
X6115304Y5035346D01*
X6115304Y5098237D01*
X6108344Y5095087D01*
X6095390Y5087213D01*
X6083452Y5077866D01*
X6072733Y5067147D01*
X6063386Y5055311D01*
X6055563Y5042255D01*
G37*
G36*
X4440021Y5035346D02*
G01*
X4502912Y5035346D01*
X4499762Y5042255D01*
X4491939Y5055311D01*
X4482592Y5067147D01*
X4471873Y5077866D01*
X4459935Y5087213D01*
X4446981Y5095087D01*
X4440021Y5098237D01*
G37*
G36*
X4274413Y5035346D02*
G01*
X4337304Y5035346D01*
X4337304Y5098237D01*
X4330344Y5095087D01*
X4317390Y5087213D01*
X4305452Y5077866D01*
X4294733Y5067147D01*
X4285386Y5055311D01*
X4277563Y5042255D01*
G37*
G36*
X4388662Y5112512D02*
G01*
X4403801Y5113426D01*
X4418685Y5116118D01*
X4426813Y5118658D01*
X4430522Y5119065D01*
X4432147Y5120284D01*
X4446981Y5126837D01*
X4459935Y5134660D01*
X4471873Y5144008D01*
X4482592Y5154726D01*
X4491939Y5166715D01*
X4499762Y5179618D01*
X4506010Y5193487D01*
X4510532Y5207914D01*
X4513224Y5222900D01*
X4514138Y5237988D01*
X4513224Y5253126D01*
X4510532Y5268010D01*
X4506010Y5282488D01*
X4499762Y5296255D01*
X4491939Y5309311D01*
X4482592Y5321147D01*
X4471873Y5331866D01*
X4459935Y5341213D01*
X4446981Y5349087D01*
X4432147Y5355742D01*
X4428998Y5357926D01*
X4426864Y5361178D01*
X4426153Y5364988D01*
X4426864Y5368747D01*
X4428998Y5371998D01*
X4432147Y5374284D01*
X4446981Y5380837D01*
X4459935Y5388660D01*
X4471873Y5398008D01*
X4482592Y5408726D01*
X4491939Y5420715D01*
X4499762Y5433618D01*
X4506010Y5447487D01*
X4510532Y5461914D01*
X4513224Y5476900D01*
X4514138Y5491988D01*
X4513224Y5507126D01*
X4510532Y5522010D01*
X4506010Y5536488D01*
X4499762Y5550255D01*
X4491939Y5563311D01*
X4482592Y5575147D01*
X4471873Y5585866D01*
X4459935Y5595213D01*
X4446981Y5603087D01*
X4433163Y5609285D01*
X4418685Y5613806D01*
X4403801Y5616600D01*
X4388662Y5617514D01*
X4373524Y5616600D01*
X4358640Y5613806D01*
X4344162Y5609285D01*
X4330344Y5603087D01*
X4317390Y5595213D01*
X4305452Y5585866D01*
X4294733Y5575147D01*
X4285386Y5563311D01*
X4277563Y5550255D01*
X4271314Y5536488D01*
X4266844Y5522010D01*
X4264101Y5507126D01*
X4263186Y5491988D01*
X4264101Y5476900D01*
X4266844Y5461914D01*
X4271314Y5447487D01*
X4277563Y5433618D01*
X4285386Y5420715D01*
X4294733Y5408726D01*
X4305452Y5398008D01*
X4317390Y5388660D01*
X4330344Y5380837D01*
X4345178Y5374284D01*
X4348327Y5371998D01*
X4350461Y5368747D01*
X4351172Y5364988D01*
X4350461Y5361178D01*
X4348327Y5357926D01*
X4345178Y5355742D01*
X4330344Y5349087D01*
X4317390Y5341213D01*
X4305452Y5331866D01*
X4294733Y5321147D01*
X4285386Y5309311D01*
X4277563Y5296255D01*
X4271314Y5282488D01*
X4266844Y5268010D01*
X4264101Y5253126D01*
X4263186Y5237988D01*
X4264101Y5222900D01*
X4266844Y5207914D01*
X4271314Y5193487D01*
X4277563Y5179618D01*
X4285386Y5166715D01*
X4294733Y5154726D01*
X4305452Y5144008D01*
X4317390Y5134660D01*
X4330344Y5126837D01*
X4345178Y5120284D01*
X4346854Y5119065D01*
X4350512Y5118658D01*
X4358640Y5116118D01*
X4373524Y5113426D01*
G37*
G36*
X7329170Y5167274D02*
G01*
X7344918Y5167274D01*
X7360564Y5169154D01*
X7375906Y5172760D01*
X7390688Y5178145D01*
X7404760Y5185257D01*
X7417968Y5193842D01*
X7430008Y5204002D01*
X7440828Y5215483D01*
X7450226Y5228132D01*
X7458100Y5241747D01*
X7464348Y5256225D01*
X7468870Y5271312D01*
X7471613Y5286857D01*
X7472527Y5302554D01*
X7471613Y5318252D01*
X7468870Y5333796D01*
X7464348Y5348935D01*
X7458100Y5363362D01*
X7450226Y5376976D01*
X7440828Y5389626D01*
X7430008Y5401157D01*
X7417968Y5411216D01*
X7404760Y5419902D01*
X7390688Y5427014D01*
X7375906Y5432399D01*
X7360564Y5435955D01*
X7344918Y5437835D01*
X7329170Y5437835D01*
X7313523Y5435955D01*
X7298181Y5432399D01*
X7283348Y5427014D01*
X7269276Y5419902D01*
X7256119Y5411216D01*
X7244080Y5401157D01*
X7233259Y5389626D01*
X7223810Y5376976D01*
X7215936Y5363362D01*
X7209739Y5348935D01*
X7205218Y5333796D01*
X7202474Y5318252D01*
X7201560Y5302554D01*
X7202474Y5286857D01*
X7205218Y5271312D01*
X7209739Y5256225D01*
X7215936Y5241747D01*
X7223810Y5228132D01*
X7233259Y5215483D01*
X7244080Y5204002D01*
X7256119Y5193842D01*
X7269276Y5185257D01*
X7283348Y5178145D01*
X7298181Y5172760D01*
X7313523Y5169154D01*
G37*
G36*
X7329170Y5557266D02*
G01*
X7344918Y5557266D01*
X7360564Y5559094D01*
X7375906Y5562803D01*
X7390688Y5568188D01*
X7404760Y5575198D01*
X7417968Y5583885D01*
X7430008Y5594045D01*
X7440828Y5605475D01*
X7450226Y5618073D01*
X7458100Y5631738D01*
X7464348Y5646267D01*
X7468870Y5661304D01*
X7471613Y5676798D01*
X7472527Y5692546D01*
X7471613Y5708345D01*
X7468870Y5723788D01*
X7464348Y5738876D01*
X7458100Y5753354D01*
X7450226Y5767019D01*
X7440828Y5779668D01*
X7430008Y5791098D01*
X7417968Y5801207D01*
X7404760Y5809945D01*
X7390688Y5816955D01*
X7375906Y5822340D01*
X7360564Y5826048D01*
X7344918Y5827826D01*
X7329170Y5827826D01*
X7313523Y5826048D01*
X7298181Y5822340D01*
X7283348Y5816955D01*
X7269276Y5809945D01*
X7256119Y5801207D01*
X7244080Y5791098D01*
X7233259Y5779668D01*
X7223810Y5767019D01*
X7215936Y5753354D01*
X7209739Y5738876D01*
X7205218Y5723788D01*
X7202474Y5708345D01*
X7201560Y5692546D01*
X7202474Y5676798D01*
X7205218Y5661304D01*
X7209739Y5646267D01*
X7215936Y5631738D01*
X7223810Y5618073D01*
X7233259Y5605475D01*
X7244080Y5594045D01*
X7256119Y5583885D01*
X7269276Y5575198D01*
X7283348Y5568188D01*
X7298181Y5562803D01*
X7313523Y5559094D01*
G37*
G36*
X702157Y5732272D02*
G01*
X786536Y5732272D01*
X801979Y5733135D01*
X816864Y5735878D01*
X831342Y5740400D01*
X845159Y5746597D01*
X858113Y5754420D01*
X870051Y5763768D01*
X880770Y5774486D01*
X890117Y5786475D01*
X897940Y5799378D01*
X904189Y5813196D01*
X908659Y5827674D01*
X911402Y5842660D01*
X912317Y5857697D01*
X911402Y5872835D01*
X908659Y5887770D01*
X904189Y5902248D01*
X897940Y5916015D01*
X890117Y5929071D01*
X880770Y5940958D01*
X870051Y5951677D01*
X858113Y5960973D01*
X845159Y5968847D01*
X831342Y5975096D01*
X816864Y5979566D01*
X801979Y5982360D01*
X786536Y5983224D01*
X702157Y5983224D01*
X686714Y5982360D01*
X671830Y5979566D01*
X657352Y5975096D01*
X643534Y5968847D01*
X630529Y5960973D01*
X618642Y5951677D01*
X607923Y5940958D01*
X598576Y5929071D01*
X590702Y5916015D01*
X584504Y5902248D01*
X579983Y5887770D01*
X577240Y5872835D01*
X576326Y5857697D01*
X577240Y5842660D01*
X579983Y5827674D01*
X584504Y5813196D01*
X590702Y5799378D01*
X598576Y5786475D01*
X607923Y5774486D01*
X618642Y5763768D01*
X630529Y5754420D01*
X643534Y5746597D01*
X657352Y5740400D01*
X671830Y5735878D01*
X686714Y5733135D01*
G37*
G36*
X6011062Y5835497D02*
G01*
X6028842Y5835497D01*
X6032042Y5835700D01*
X6053277Y5838240D01*
X6071006Y5842050D01*
X6074105Y5842914D01*
X6091275Y5848705D01*
X6110732Y5857544D01*
X6113576Y5859018D01*
X6129121Y5868365D01*
X6131763Y5870194D01*
X6146190Y5881217D01*
X6148628Y5883300D01*
X6161836Y5895746D01*
X6164021Y5898083D01*
X6175756Y5911900D01*
X6177737Y5914491D01*
X6187897Y5929477D01*
X6189573Y5932220D01*
X6198057Y5948273D01*
X6199378Y5951169D01*
X6206083Y5967984D01*
X6207150Y5971082D01*
X6211976Y5988507D01*
X6212687Y5991707D01*
X6215634Y6009538D01*
X6216954Y6030874D01*
X6216954Y6034125D01*
X6215634Y6055410D01*
X6212687Y6073292D01*
X6211976Y6076442D01*
X6207150Y6093917D01*
X6199378Y6113830D01*
X6198057Y6116777D01*
X6189573Y6132779D01*
X6177737Y6150508D01*
X6164021Y6166866D01*
X6161836Y6169202D01*
X6148628Y6181750D01*
X6131763Y6194806D01*
X6129121Y6196584D01*
X6113576Y6205931D01*
X6091275Y6216294D01*
X6074105Y6222034D01*
X6071006Y6222898D01*
X6053277Y6226759D01*
X6050076Y6227267D01*
X6028842Y6229502D01*
X6010706Y6229502D01*
X5989472Y6227267D01*
X5986322Y6226759D01*
X5968593Y6222898D01*
X5965494Y6222034D01*
X5948324Y6216294D01*
X5928868Y6207404D01*
X5926023Y6205931D01*
X5910478Y6196584D01*
X5907836Y6194806D01*
X5890920Y6181750D01*
X5875528Y6166866D01*
X5863793Y6153048D01*
X5861862Y6150508D01*
X5850026Y6132779D01*
X5841542Y6116777D01*
X5840171Y6113830D01*
X5833465Y6096965D01*
X5832449Y6093917D01*
X5827572Y6076442D01*
X5823966Y6055410D01*
X5823610Y6052261D01*
X5822645Y6034125D01*
X5822645Y6030874D01*
X5823610Y6012738D01*
X5823966Y6009538D01*
X5827572Y5988507D01*
X5833465Y5967984D01*
X5840171Y5951169D01*
X5850026Y5932220D01*
X5851702Y5929477D01*
X5863793Y5911900D01*
X5875528Y5898083D01*
X5877763Y5895746D01*
X5890920Y5883300D01*
X5893358Y5881217D01*
X5910478Y5868365D01*
X5926023Y5859018D01*
X5928868Y5857544D01*
X5948324Y5848705D01*
X5965494Y5842914D01*
X5968593Y5842050D01*
X5986322Y5838240D01*
X5989472Y5837732D01*
G37*
G36*
X869340Y6046012D02*
G01*
X883615Y6046927D01*
X897686Y6049721D01*
X911250Y6054242D01*
X924153Y6060389D01*
X936142Y6068212D01*
X947064Y6077508D01*
X956665Y6088075D01*
X964844Y6099810D01*
X971448Y6112510D01*
X976426Y6125972D01*
X979576Y6139891D01*
X980948Y6154115D01*
X980490Y6168491D01*
X978204Y6182614D01*
X974140Y6196330D01*
X968349Y6209385D01*
X960932Y6221679D01*
X952042Y6232804D01*
X941730Y6242812D01*
X932586Y6249619D01*
X929995Y6252514D01*
X928624Y6256121D01*
X928776Y6259982D01*
X930351Y6263538D01*
X933145Y6266230D01*
X936142Y6268212D01*
X947064Y6277508D01*
X956665Y6288125D01*
X964844Y6299860D01*
X971448Y6312560D01*
X976426Y6325920D01*
X979576Y6339941D01*
X980948Y6354165D01*
X980490Y6368440D01*
X978204Y6382562D01*
X974140Y6396278D01*
X968349Y6409385D01*
X960932Y6421628D01*
X952042Y6432804D01*
X941730Y6442760D01*
X932586Y6449568D01*
X929995Y6452463D01*
X928624Y6456172D01*
X928776Y6460032D01*
X930351Y6463588D01*
X933145Y6466230D01*
X936142Y6468211D01*
X947064Y6477508D01*
X956665Y6488074D01*
X964844Y6499809D01*
X971448Y6512509D01*
X976426Y6525971D01*
X979576Y6539890D01*
X980948Y6554114D01*
X980490Y6568490D01*
X978204Y6582562D01*
X974140Y6596329D01*
X968349Y6609384D01*
X960932Y6621627D01*
X952042Y6632803D01*
X941730Y6642811D01*
X930249Y6651345D01*
X917803Y6658406D01*
X904544Y6663740D01*
X890676Y6667347D01*
X876503Y6669227D01*
X862177Y6669227D01*
X848004Y6667347D01*
X834136Y6663740D01*
X820877Y6658406D01*
X808431Y6651345D01*
X796950Y6642811D01*
X786638Y6632803D01*
X777748Y6621627D01*
X770331Y6609384D01*
X764540Y6596329D01*
X760476Y6582562D01*
X758190Y6568490D01*
X757732Y6554114D01*
X759104Y6539890D01*
X762254Y6525971D01*
X767232Y6512509D01*
X773836Y6499809D01*
X782015Y6488074D01*
X791616Y6477508D01*
X802538Y6468211D01*
X805535Y6466230D01*
X808329Y6463588D01*
X809904Y6460032D01*
X810056Y6456172D01*
X808685Y6452463D01*
X806094Y6449568D01*
X796950Y6442760D01*
X786638Y6432804D01*
X777748Y6421628D01*
X770331Y6409385D01*
X764540Y6396278D01*
X760476Y6382562D01*
X758190Y6368440D01*
X757732Y6354165D01*
X759104Y6339941D01*
X762254Y6325920D01*
X767232Y6312560D01*
X773836Y6299860D01*
X782015Y6288125D01*
X791616Y6277508D01*
X802538Y6268212D01*
X805535Y6266230D01*
X808329Y6263538D01*
X809904Y6259982D01*
X810056Y6256121D01*
X808685Y6252514D01*
X806094Y6249619D01*
X796950Y6242812D01*
X786638Y6232804D01*
X777748Y6221679D01*
X770331Y6209385D01*
X764540Y6196330D01*
X760476Y6182614D01*
X758190Y6168491D01*
X757732Y6154115D01*
X759104Y6139891D01*
X762254Y6125972D01*
X767232Y6112510D01*
X773836Y6099810D01*
X782015Y6088075D01*
X791616Y6077508D01*
X802538Y6068212D01*
X814527Y6060389D01*
X827430Y6054242D01*
X840994Y6049721D01*
X855065Y6046927D01*
G37*
G36*
X619353Y6046012D02*
G01*
X633628Y6046927D01*
X647649Y6049721D01*
X661263Y6054242D01*
X674166Y6060389D01*
X686155Y6068212D01*
X697026Y6077508D01*
X706678Y6088075D01*
X714857Y6099810D01*
X721461Y6112510D01*
X726389Y6125972D01*
X729589Y6139891D01*
X730961Y6154115D01*
X730504Y6168491D01*
X728218Y6182614D01*
X724154Y6196330D01*
X718362Y6209385D01*
X710946Y6221679D01*
X702005Y6232804D01*
X691743Y6242812D01*
X682599Y6249619D01*
X679958Y6252514D01*
X678637Y6256121D01*
X678738Y6259982D01*
X680313Y6263538D01*
X683107Y6266230D01*
X686155Y6268212D01*
X697026Y6277508D01*
X706678Y6288125D01*
X714857Y6299860D01*
X721461Y6312560D01*
X726389Y6325920D01*
X729589Y6339941D01*
X730961Y6354165D01*
X730504Y6368440D01*
X728218Y6382562D01*
X724154Y6396278D01*
X718362Y6409385D01*
X710946Y6421628D01*
X702005Y6432804D01*
X691743Y6442760D01*
X682599Y6449568D01*
X679958Y6452463D01*
X678637Y6456172D01*
X678738Y6460032D01*
X680313Y6463588D01*
X683107Y6466230D01*
X686155Y6468211D01*
X697026Y6477508D01*
X706678Y6488074D01*
X714857Y6499809D01*
X721461Y6512509D01*
X726389Y6525971D01*
X729589Y6539890D01*
X730961Y6554114D01*
X730504Y6568490D01*
X728218Y6582562D01*
X724154Y6596329D01*
X718362Y6609384D01*
X710946Y6621627D01*
X702005Y6632803D01*
X691743Y6642811D01*
X680262Y6651345D01*
X667816Y6658406D01*
X654507Y6663740D01*
X640689Y6667347D01*
X626516Y6669227D01*
X612190Y6669227D01*
X597966Y6667347D01*
X584149Y6663740D01*
X570890Y6658406D01*
X558393Y6651345D01*
X546963Y6642811D01*
X536651Y6632803D01*
X527710Y6621627D01*
X520293Y6609384D01*
X514502Y6596329D01*
X510438Y6582562D01*
X508152Y6568490D01*
X507695Y6554114D01*
X509066Y6539890D01*
X512267Y6525971D01*
X517194Y6512509D01*
X523849Y6499809D01*
X532028Y6488074D01*
X541629Y6477508D01*
X552551Y6468211D01*
X555548Y6466230D01*
X558342Y6463588D01*
X559917Y6460032D01*
X560019Y6456172D01*
X558698Y6452463D01*
X556107Y6449568D01*
X546963Y6442760D01*
X536651Y6432804D01*
X527710Y6421628D01*
X520293Y6409385D01*
X514502Y6396278D01*
X510438Y6382562D01*
X508152Y6368440D01*
X507695Y6354165D01*
X509066Y6339941D01*
X512267Y6325920D01*
X517194Y6312560D01*
X523849Y6299860D01*
X532028Y6288125D01*
X541629Y6277508D01*
X552551Y6268212D01*
X555548Y6266230D01*
X558342Y6263538D01*
X559917Y6259982D01*
X560019Y6256121D01*
X558698Y6252514D01*
X556107Y6249619D01*
X546963Y6242812D01*
X536651Y6232804D01*
X527710Y6221679D01*
X520293Y6209385D01*
X514502Y6196330D01*
X510438Y6182614D01*
X508152Y6168491D01*
X507695Y6154115D01*
X509066Y6139891D01*
X512267Y6125972D01*
X517194Y6112510D01*
X523849Y6099810D01*
X532028Y6088075D01*
X541629Y6077508D01*
X552551Y6068212D01*
X564540Y6060389D01*
X577443Y6054242D01*
X591007Y6049721D01*
X605078Y6046927D01*
G37*
G36*
X702157Y6732270D02*
G01*
X786536Y6732270D01*
X801979Y6733184D01*
X816864Y6735876D01*
X831342Y6740448D01*
X845159Y6746595D01*
X858113Y6754418D01*
X870051Y6763766D01*
X880770Y6774484D01*
X890117Y6786473D01*
X897940Y6799376D01*
X904189Y6813245D01*
X908710Y6827672D01*
X911402Y6842658D01*
X912317Y6857746D01*
X911402Y6872884D01*
X908710Y6887768D01*
X904189Y6902246D01*
X897940Y6916013D01*
X890117Y6929069D01*
X880770Y6940956D01*
X870051Y6951624D01*
X858113Y6960971D01*
X845159Y6968845D01*
X831342Y6975043D01*
X816864Y6979564D01*
X801979Y6982358D01*
X786536Y6983272D01*
X702157Y6983272D01*
X686714Y6982358D01*
X671830Y6979564D01*
X657352Y6975043D01*
X643534Y6968845D01*
X630529Y6960971D01*
X618642Y6951624D01*
X607923Y6940956D01*
X598576Y6929069D01*
X590702Y6916013D01*
X584504Y6902246D01*
X579983Y6887768D01*
X577240Y6872884D01*
X576326Y6857746D01*
X577240Y6842658D01*
X579983Y6827672D01*
X584504Y6813245D01*
X590702Y6799376D01*
X598576Y6786473D01*
X607923Y6774484D01*
X618642Y6763766D01*
X630529Y6754418D01*
X643534Y6746595D01*
X657352Y6740448D01*
X671830Y6735876D01*
X686714Y6733184D01*
G37*
G36*
X1722729Y6980986D02*
G01*
X1732025Y6985355D01*
X1744268Y6993128D01*
X1755444Y7002373D01*
X1765350Y7012990D01*
X1773885Y7024725D01*
X1780895Y7037476D01*
X1782013Y7040219D01*
X1722729Y7040219D01*
G37*
G36*
X1630019Y6980986D02*
G01*
X1630019Y7040219D01*
X1570786Y7040219D01*
X1571904Y7037476D01*
X1578864Y7024725D01*
X1587398Y7012990D01*
X1597304Y7002373D01*
X1608480Y6993128D01*
X1620774Y6985355D01*
G37*
G36*
X1040231Y7041997D02*
G01*
X1058367Y7041997D01*
X1061567Y7042200D01*
X1082802Y7044740D01*
X1100480Y7048550D01*
X1103579Y7049414D01*
X1120800Y7055205D01*
X1140206Y7064044D01*
X1143050Y7065518D01*
X1158595Y7074865D01*
X1161288Y7076694D01*
X1175715Y7087717D01*
X1178153Y7089800D01*
X1191310Y7102246D01*
X1193546Y7104583D01*
X1205280Y7118400D01*
X1217422Y7135977D01*
X1227582Y7154773D01*
X1235608Y7174484D01*
X1241501Y7195007D01*
X1242212Y7198207D01*
X1245108Y7216038D01*
X1245463Y7219238D01*
X1246428Y7237374D01*
X1246428Y7240625D01*
X1245463Y7258761D01*
X1245108Y7261910D01*
X1242212Y7279843D01*
X1236624Y7300417D01*
X1235608Y7303465D01*
X1227582Y7323277D01*
X1219047Y7339279D01*
X1217422Y7341971D01*
X1207211Y7357008D01*
X1205280Y7359548D01*
X1193546Y7373366D01*
X1178153Y7388250D01*
X1161288Y7401306D01*
X1143050Y7412431D01*
X1120800Y7422794D01*
X1103579Y7428534D01*
X1100480Y7429398D01*
X1082802Y7433259D01*
X1079601Y7433767D01*
X1058367Y7436002D01*
X1040231Y7436002D01*
X1018997Y7433767D01*
X1015796Y7433259D01*
X998118Y7429398D01*
X995019Y7428534D01*
X977798Y7422794D01*
X958392Y7413904D01*
X955548Y7412431D01*
X937310Y7401306D01*
X920445Y7388250D01*
X905052Y7373366D01*
X893318Y7359548D01*
X891387Y7357008D01*
X881176Y7341971D01*
X879551Y7339279D01*
X871067Y7323277D01*
X869696Y7320330D01*
X862990Y7303465D01*
X861974Y7300417D01*
X856386Y7279843D01*
X853490Y7261910D01*
X853135Y7258761D01*
X852169Y7240625D01*
X852169Y7237374D01*
X853135Y7219238D01*
X853490Y7216038D01*
X856386Y7198207D01*
X857097Y7195007D01*
X862990Y7174484D01*
X869696Y7157720D01*
X871067Y7154773D01*
X879551Y7138720D01*
X881176Y7135977D01*
X893318Y7118400D01*
X905052Y7104583D01*
X907287Y7102246D01*
X920445Y7089800D01*
X922883Y7087717D01*
X937310Y7076694D01*
X940003Y7074865D01*
X955548Y7065518D01*
X958392Y7064044D01*
X977798Y7055205D01*
X995019Y7049414D01*
X998118Y7048550D01*
X1015796Y7044740D01*
X1037031Y7042200D01*
G37*
G36*
X1570786Y7132929D02*
G01*
X1630019Y7132929D01*
X1630019Y7192162D01*
X1620774Y7187844D01*
X1608480Y7180072D01*
X1597304Y7170826D01*
X1587398Y7160209D01*
X1578864Y7148474D01*
X1571904Y7135723D01*
G37*
G36*
X1722729Y7132929D02*
G01*
X1782013Y7132929D01*
X1780895Y7135723D01*
X1773885Y7148474D01*
X1765350Y7160209D01*
X1755444Y7170826D01*
X1744268Y7180072D01*
X1732025Y7187844D01*
X1722729Y7192162D01*
G37*

%LPD*%
D10*
X6921563Y3289172D02*
G01*
X7124763Y3289172D01*
X7213663Y3200527D01*
X7213663Y2044572D01*
X7137463Y1968372D01*
X6921563Y1968372D01*
D11*
X6166675Y2189987D02*
G01*
X6199184Y2222497D01*
X6921505Y2222497D01*
D10*
X6921563Y3593972D02*
G01*
X6921563Y3289172D01*
X6921563Y3593972D02*
G01*
X7073709Y3593972D01*
X7226363Y3746372D01*
X7226363Y4635627D01*
X7035863Y4826127D01*
X7035863Y5816727D01*
X6921563Y5930772D01*
X6547929Y5930772D01*
X6438963Y5822060D01*
X6438963Y5371972D01*
X6304851Y5238114D01*
X6166675Y5238114D01*
D12*
X6687121Y5302630D02*
G01*
X6687121Y4909185D01*
X6477063Y4698872D01*
X6477063Y4089527D01*
X6355651Y3967860D01*
X6166675Y3967860D01*
D11*
X6166675Y3460114D02*
G01*
X6368351Y3460114D01*
X6756463Y3847972D01*
X6921563Y3847972D01*
X6166675Y920114D02*
G01*
X6159563Y926972D01*
X5969063Y926972D01*
X5880163Y838072D01*
X5880163Y495172D01*
X5981763Y393572D01*
X6527863Y393572D01*
X6692963Y558672D01*
X6692963Y1092072D01*
X6769163Y1168272D01*
X6921563Y1168272D01*
X6166675Y665987D02*
G01*
X6173787Y673100D01*
X6426200Y673100D01*
X6565900Y812800D01*
X6565900Y1320800D01*
X6667494Y1422394D01*
X6921497Y1422394D01*
D13*
X1676463Y6578472D02*
G01*
X2057463Y6578472D01*
X2324163Y6311772D01*
X2324163Y5816472D01*
D10*
X6166675Y5237860D02*
G01*
X5961951Y5237860D01*
X5861875Y5138038D01*
X5861875Y4577460D01*
X5963475Y4475860D01*
X6166675Y4475860D01*
X3316348Y684270D02*
G01*
X3608448Y684270D01*
X3024248Y684270D02*
G01*
X3316348Y684270D01*
X2732148Y684270D02*
G01*
X3024248Y684270D01*
X2026490Y691382D02*
G01*
X2318590Y691382D01*
X1734390Y691382D02*
G01*
X2026490Y691382D01*
X1442290Y691382D02*
G01*
X1734390Y691382D01*
X2318590Y691382D02*
G01*
X2325697Y684270D01*
X2732148Y684270D01*
D13*
X2324112Y5816600D02*
G01*
X2324112Y4991097D01*
X3530610Y4991097D01*
D10*
X6166675Y5491860D02*
G01*
X5466651Y5491860D01*
X5321363Y5346572D01*
X5321363Y533272D01*
X5156263Y368172D01*
X4114863Y368172D01*
X3798887Y684148D01*
X3608387Y684148D01*
D12*
X2070112Y5549900D02*
G01*
X2324155Y5549900D01*
X2324158Y5549897D01*
X2095500Y4216400D02*
G01*
X2324158Y4216400D01*
D14*
X3644963Y4736972D02*
G01*
X3644963Y4051935D01*
X3728783Y3968114D01*
X4388675Y3968114D01*
D12*
X3378212Y4419600D02*
G01*
X3378212Y4980447D01*
X3388862Y4991097D01*
X3365512Y2946400D02*
G01*
X3365512Y3606812D01*
X3378197Y3619497D01*
D14*
X3644963Y3339972D02*
G01*
X3644963Y2679572D01*
X3759263Y2565272D01*
X4102163Y2565272D01*
X4234751Y2698114D01*
X4388675Y2698114D01*
D13*
X2324163Y5143372D02*
G01*
X2324163Y3784472D01*
X2489263Y3619372D01*
X3556063Y3619372D01*
D14*
X3695763Y3492372D02*
G01*
X4025963Y3492372D01*
X4127563Y3391027D01*
X4127563Y2741294D01*
X4078541Y2692272D01*
X3987863Y2692272D01*
X3683063Y4863972D02*
G01*
X4025963Y4863972D01*
X4178363Y4711572D01*
X4178363Y4233544D01*
X4084637Y4140072D01*
X4025963Y4140072D01*
D15*
G01*
X1676397Y6578600D03*
G01*
X1676397Y7086600D03*
D16*
G01*
X990587Y4866106D03*
G01*
X990587Y5116093D03*
G01*
X761987Y3862806D03*
G01*
X761987Y4112793D03*
G01*
X761987Y3075406D03*
G01*
X761987Y3325393D03*
G01*
X761987Y2135606D03*
G01*
X761987Y2385593D03*
G01*
X761987Y1322806D03*
G01*
X761987Y1572793D03*
D17*
G01*
X6921512Y3289300D03*
D18*
G01*
X6921512Y3035300D03*
G01*
X6921512Y2781300D03*
D17*
G01*
X1442275Y945387D03*
D18*
G01*
X1442275Y691387D03*
G01*
X1442275Y437387D03*
D17*
G01*
X1734375Y945387D03*
D18*
G01*
X1734375Y691387D03*
G01*
X1734375Y437387D03*
D17*
G01*
X2026475Y945387D03*
D18*
G01*
X2026475Y691387D03*
G01*
X2026475Y437387D03*
D17*
G01*
X2318575Y945387D03*
D18*
G01*
X2318575Y691387D03*
G01*
X2318575Y437387D03*
D17*
G01*
X3608463Y938276D03*
D18*
G01*
X3608463Y684276D03*
G01*
X3608463Y430276D03*
D17*
G01*
X3316363Y938276D03*
D18*
G01*
X3316363Y684276D03*
G01*
X3316363Y430276D03*
D17*
G01*
X3024263Y938276D03*
D18*
G01*
X3024263Y684276D03*
G01*
X3024263Y430276D03*
D17*
G01*
X2732163Y938276D03*
D18*
G01*
X2732163Y684276D03*
G01*
X2732163Y430276D03*
G01*
X5061775Y1593087D03*
G01*
X5061775Y1847087D03*
G01*
X5061775Y2101087D03*
G01*
X5061775Y2355087D03*
G01*
X5061775Y2609087D03*
G01*
X5061775Y2863087D03*
G01*
X5061775Y3117087D03*
G01*
X5061775Y3371087D03*
G01*
X5061775Y3625087D03*
G01*
X5061775Y3879087D03*
G01*
X5061775Y4133087D03*
G01*
X5061775Y4387087D03*
G01*
X5061775Y4641087D03*
G01*
X5061775Y4895087D03*
D17*
G01*
X5061775Y5149087D03*
D19*
G01*
X5061775Y1339087D03*
D17*
G01*
X5562612Y3365500D03*
D18*
G01*
X5562612Y3111500D03*
G01*
X5562612Y2857500D03*
G01*
X5562612Y2603500D03*
G01*
X5562612Y2349500D03*
G01*
X5562612Y2095500D03*
G01*
X5562612Y1841500D03*
G01*
X5562612Y1587500D03*
G01*
X5562612Y1333500D03*
D17*
G01*
X6921497Y1422394D03*
D18*
G01*
X6921497Y1168394D03*
G01*
X6921497Y914394D03*
G01*
X6921497Y660394D03*
D17*
G01*
X6921505Y2476497D03*
D18*
G01*
X6921505Y2222497D03*
G01*
X6921505Y1968497D03*
G01*
X6921505Y1714497D03*
D17*
G01*
X6921487Y3594100D03*
D18*
G01*
X6921487Y3848100D03*
G01*
X6921487Y4102100D03*
G01*
X6921487Y4356100D03*
D20*
G01*
X6687070Y5692571D03*
G01*
X7337056Y5692571D03*
G01*
X7337056Y5302580D03*
G01*
X6687070Y5302580D03*
D19*
G01*
X869353Y6557746D03*
G01*
X869353Y6357746D03*
G01*
X869353Y6157747D03*
G01*
X619366Y6557746D03*
G01*
X619366Y6357746D03*
G01*
X619366Y6157747D03*
D21*
G01*
X744359Y6857745D03*
G01*
X744359Y5857747D03*
D22*
G01*
X4388675Y665987D03*
D23*
G01*
X4388675Y919987D03*
G01*
X4388675Y1173987D03*
G01*
X4388675Y1427987D03*
G01*
X4388675Y1681987D03*
G01*
X4388675Y1935987D03*
G01*
X4388675Y2189987D03*
G01*
X4388675Y2443987D03*
G01*
X4388675Y2697987D03*
G01*
X4388675Y2951987D03*
G01*
X4388675Y3205987D03*
G01*
X4388675Y3459987D03*
G01*
X4388675Y3713987D03*
G01*
X4388675Y3967987D03*
G01*
X4388675Y4221987D03*
G01*
X4388675Y4475987D03*
G01*
X4388675Y4729987D03*
G01*
X4388675Y4983987D03*
G01*
X4388675Y5237987D03*
G01*
X4388675Y5491987D03*
G01*
X6166675Y5491987D03*
G01*
X6166675Y5237987D03*
G01*
X6166675Y4983987D03*
G01*
X6166675Y4729987D03*
G01*
X6166675Y4475987D03*
G01*
X6166675Y4221987D03*
G01*
X6166675Y3967987D03*
G01*
X6166675Y3713987D03*
G01*
X6166675Y3459987D03*
G01*
X6166675Y3205987D03*
G01*
X6166675Y2951987D03*
G01*
X6166675Y2697987D03*
G01*
X6166675Y2443987D03*
G01*
X6166675Y2189987D03*
G01*
X6166675Y1935987D03*
G01*
X6166675Y1681987D03*
G01*
X6166675Y1427987D03*
G01*
X6166675Y1173987D03*
G01*
X6166675Y919987D03*
D22*
G01*
X6166675Y665987D03*
D24*
G01*
X3505200Y5715000D03*
G01*
X1562100Y5549900D03*
G01*
X2540012Y3009900D03*
G01*
X2895612Y2184400D03*
G01*
X660400Y711200D03*
G01*
X5562612Y3797300D03*
G01*
X4889512Y5524500D03*
G01*
X6438900Y114300D03*
G01*
X5270500Y6007100D03*
G01*
X7366000Y6921500D03*
G01*
X6756412Y7340600D03*
G01*
X4546600Y6235700D03*
G01*
X2387612Y7239000D03*
G01*
X3822712Y4737100D03*
G01*
X2552712Y1168400D03*
G01*
X5588012Y635000D03*
G01*
X1485912Y5054600D03*
G01*
X7378712Y4800600D03*
G01*
X1460512Y3200400D03*
G01*
X2032012Y2540000D03*
G01*
X5016512Y723900D03*
G01*
X2743212Y4330700D03*
G01*
X3683012Y4864100D03*
G01*
X3644912Y4737100D03*
G01*
X4025912Y4140200D03*
G01*
X3378212Y4419600D03*
G01*
X3530612Y4991100D03*
G01*
X3695712Y3492500D03*
G01*
X3644912Y3340100D03*
G01*
X3556012Y3619500D03*
G01*
X3987812Y2692400D03*
G01*
X2095512Y4216400D03*
G01*
X3365512Y2946400D03*
G01*
X3797312Y3251200D03*
G01*
X2895612Y3048000D03*
G01*
X2070112Y5549900D03*
G01*
X3975112Y2908300D03*
G01*
X4025912Y4368800D03*
G01*
X3048012Y4178300D03*
G01*
X1625612Y3937000D03*
G01*
X4838712Y7289800D03*
G01*
X5511812Y7340600D03*
M02*
