G04 Layer: TopLayer*
G04 EasyEDA v6.5.22, 2022-11-07 14:48:48*
G04 3be9330970bd49e991c0a6bdea7b1e86,1dfdfe31e71b4ff6856625fdd89ee459,10*
G04 Gerber Generator version 0.2*
G04 Scale: 100 percent, Rotated: No, Reflected: No *
G04 Dimensions in millimeters *
G04 leading zeros omitted , absolute positions ,4 integer and 5 decimal *
%FSLAX45Y45*%
%MOMM*%

%ADD10C,0.6096*%

%LPD*%
G36*
X38720268Y-7632192D02*
G01*
X38716356Y-7631430D01*
X38713105Y-7629194D01*
X38710870Y-7625943D01*
X38710108Y-7622031D01*
X38710108Y-4328668D01*
X38710870Y-4324756D01*
X38713105Y-4321505D01*
X38716356Y-4319270D01*
X38720268Y-4318508D01*
X41746932Y-4318508D01*
X41750843Y-4319270D01*
X41754094Y-4321505D01*
X41756330Y-4324756D01*
X41757092Y-4328668D01*
X41757092Y-7622031D01*
X41756330Y-7625943D01*
X41754094Y-7629194D01*
X41750843Y-7631430D01*
X41746932Y-7632192D01*
G37*

%LPC*%
G36*
X39024255Y-7435951D02*
G01*
X39042390Y-7435951D01*
X39045591Y-7435799D01*
X39063625Y-7433818D01*
X39066825Y-7433309D01*
X39084504Y-7429398D01*
X39087602Y-7428534D01*
X39104824Y-7422743D01*
X39107770Y-7421575D01*
X39124229Y-7413955D01*
X39127074Y-7412431D01*
X39142619Y-7403084D01*
X39145311Y-7401255D01*
X39159738Y-7390282D01*
X39162177Y-7388199D01*
X39175334Y-7375753D01*
X39177569Y-7373416D01*
X39189304Y-7359599D01*
X39201445Y-7342022D01*
X39211605Y-7323226D01*
X39212926Y-7320330D01*
X39219632Y-7303465D01*
X39220648Y-7300417D01*
X39225524Y-7282942D01*
X39226236Y-7279792D01*
X39229131Y-7261910D01*
X39229487Y-7258710D01*
X39230452Y-7240625D01*
X39230452Y-7237374D01*
X39229487Y-7219289D01*
X39229131Y-7216089D01*
X39226236Y-7198207D01*
X39225524Y-7195058D01*
X39220648Y-7177582D01*
X39219632Y-7174534D01*
X39212926Y-7157669D01*
X39211605Y-7154773D01*
X39201445Y-7135977D01*
X39189304Y-7118400D01*
X39177569Y-7104583D01*
X39175334Y-7102246D01*
X39162177Y-7089800D01*
X39159738Y-7087717D01*
X39145311Y-7076744D01*
X39142619Y-7074916D01*
X39127074Y-7065568D01*
X39124229Y-7064044D01*
X39107770Y-7056424D01*
X39104824Y-7055256D01*
X39087602Y-7049465D01*
X39084504Y-7048601D01*
X39066825Y-7044690D01*
X39063625Y-7044181D01*
X39045591Y-7042200D01*
X39042390Y-7042048D01*
X39024255Y-7042048D01*
X39021054Y-7042200D01*
X39003020Y-7044181D01*
X38999820Y-7044690D01*
X38982142Y-7048601D01*
X38979043Y-7049465D01*
X38961822Y-7055256D01*
X38958875Y-7056424D01*
X38942416Y-7064044D01*
X38939571Y-7065568D01*
X38924026Y-7074916D01*
X38921334Y-7076744D01*
X38906907Y-7087717D01*
X38904468Y-7089800D01*
X38891311Y-7102246D01*
X38889076Y-7104583D01*
X38877341Y-7118400D01*
X38865200Y-7135977D01*
X38863574Y-7138720D01*
X38853719Y-7157669D01*
X38847014Y-7174534D01*
X38845998Y-7177582D01*
X38841121Y-7195058D01*
X38840410Y-7198207D01*
X38837514Y-7216089D01*
X38837158Y-7219289D01*
X38836193Y-7237374D01*
X38836193Y-7240625D01*
X38837158Y-7258710D01*
X38837514Y-7261910D01*
X38840410Y-7279792D01*
X38841121Y-7282942D01*
X38845998Y-7300417D01*
X38847014Y-7303465D01*
X38853719Y-7320330D01*
X38863574Y-7339279D01*
X38865200Y-7342022D01*
X38877341Y-7359599D01*
X38889076Y-7373416D01*
X38891311Y-7375753D01*
X38904468Y-7388199D01*
X38906907Y-7390282D01*
X38921334Y-7401255D01*
X38924026Y-7403084D01*
X38939571Y-7412431D01*
X38942416Y-7413955D01*
X38958875Y-7421575D01*
X38961822Y-7422743D01*
X38979043Y-7428534D01*
X38982142Y-7429398D01*
X38999820Y-7433309D01*
X39003020Y-7433818D01*
X39021054Y-7435799D01*
G37*
G36*
X41464839Y-7435951D02*
G01*
X41482975Y-7435951D01*
X41486175Y-7435799D01*
X41504209Y-7433818D01*
X41507410Y-7433309D01*
X41525088Y-7429398D01*
X41528187Y-7428534D01*
X41545408Y-7422743D01*
X41548354Y-7421575D01*
X41564814Y-7413955D01*
X41567658Y-7412431D01*
X41583203Y-7403084D01*
X41585896Y-7401255D01*
X41600323Y-7390282D01*
X41602761Y-7388199D01*
X41615918Y-7375753D01*
X41618154Y-7373416D01*
X41629888Y-7359599D01*
X41642030Y-7342022D01*
X41652190Y-7323226D01*
X41653510Y-7320330D01*
X41660216Y-7303465D01*
X41661232Y-7300417D01*
X41666109Y-7282942D01*
X41666820Y-7279792D01*
X41669716Y-7261910D01*
X41670071Y-7258710D01*
X41671036Y-7240625D01*
X41671036Y-7237374D01*
X41670071Y-7219289D01*
X41669716Y-7216089D01*
X41666820Y-7198207D01*
X41666109Y-7195058D01*
X41661232Y-7177582D01*
X41660216Y-7174534D01*
X41653510Y-7157669D01*
X41652190Y-7154773D01*
X41642030Y-7135977D01*
X41629888Y-7118400D01*
X41618154Y-7104583D01*
X41615918Y-7102246D01*
X41602761Y-7089800D01*
X41600323Y-7087717D01*
X41585896Y-7076744D01*
X41583203Y-7074916D01*
X41567658Y-7065568D01*
X41564814Y-7064044D01*
X41548354Y-7056424D01*
X41545408Y-7055256D01*
X41528187Y-7049465D01*
X41525088Y-7048601D01*
X41507410Y-7044690D01*
X41504209Y-7044181D01*
X41486175Y-7042200D01*
X41482975Y-7042048D01*
X41464839Y-7042048D01*
X41461639Y-7042200D01*
X41443605Y-7044181D01*
X41440404Y-7044690D01*
X41422726Y-7048601D01*
X41419627Y-7049465D01*
X41402406Y-7055256D01*
X41399460Y-7056424D01*
X41383000Y-7064044D01*
X41380156Y-7065568D01*
X41364611Y-7074916D01*
X41361918Y-7076744D01*
X41347491Y-7087717D01*
X41345053Y-7089800D01*
X41331896Y-7102246D01*
X41329660Y-7104583D01*
X41317926Y-7118400D01*
X41305784Y-7135977D01*
X41304159Y-7138720D01*
X41294304Y-7157669D01*
X41287598Y-7174534D01*
X41286582Y-7177582D01*
X41281705Y-7195058D01*
X41280994Y-7198207D01*
X41278098Y-7216089D01*
X41277743Y-7219289D01*
X41276778Y-7237374D01*
X41276778Y-7240625D01*
X41277743Y-7258710D01*
X41278098Y-7261910D01*
X41280994Y-7279792D01*
X41281705Y-7282942D01*
X41286582Y-7300417D01*
X41287598Y-7303465D01*
X41294304Y-7320330D01*
X41304159Y-7339279D01*
X41305784Y-7342022D01*
X41317926Y-7359599D01*
X41329660Y-7373416D01*
X41331896Y-7375753D01*
X41345053Y-7388199D01*
X41347491Y-7390282D01*
X41361918Y-7401255D01*
X41364611Y-7403084D01*
X41380156Y-7412431D01*
X41383000Y-7413955D01*
X41399460Y-7421575D01*
X41402406Y-7422743D01*
X41419627Y-7428534D01*
X41422726Y-7429398D01*
X41440404Y-7433309D01*
X41443605Y-7433818D01*
X41461639Y-7435799D01*
G37*
G36*
X40232634Y-6080404D02*
G01*
X40261946Y-6079794D01*
X40291105Y-6077102D01*
X40320010Y-6072276D01*
X40348509Y-6065367D01*
X40376398Y-6056426D01*
X40403627Y-6045504D01*
X40429942Y-6032652D01*
X40455291Y-6017971D01*
X40479522Y-6001461D01*
X40502484Y-5983224D01*
X40524074Y-5963412D01*
X40544140Y-5942076D01*
X40562682Y-5919368D01*
X40579497Y-5895340D01*
X40594534Y-5870194D01*
X40607691Y-5844032D01*
X40618968Y-5816955D01*
X40628265Y-5789168D01*
X40635529Y-5760770D01*
X40640711Y-5731916D01*
X40643810Y-5702757D01*
X40644775Y-5673496D01*
X40643657Y-5644184D01*
X40640406Y-5615076D01*
X40635072Y-5586272D01*
X40627655Y-5557926D01*
X40618206Y-5530138D01*
X40606827Y-5503164D01*
X40593467Y-5477052D01*
X40578328Y-5452008D01*
X40561361Y-5428081D01*
X40542718Y-5405424D01*
X40522550Y-5384241D01*
X40500858Y-5364530D01*
X40477795Y-5346395D01*
X40453462Y-5330037D01*
X40428062Y-5315458D01*
X40401646Y-5302758D01*
X40374417Y-5291937D01*
X40346426Y-5283200D01*
X40317928Y-5276443D01*
X40288972Y-5271770D01*
X40259762Y-5269230D01*
X40230501Y-5268772D01*
X40201240Y-5270398D01*
X40172182Y-5274208D01*
X40143430Y-5280050D01*
X40115236Y-5287975D01*
X40087651Y-5297881D01*
X40060880Y-5309768D01*
X40035022Y-5323586D01*
X40010232Y-5339232D01*
X39986610Y-5356606D01*
X39964309Y-5375605D01*
X39943481Y-5396230D01*
X39924177Y-5418226D01*
X39906498Y-5441645D01*
X39890547Y-5466232D01*
X39876425Y-5491886D01*
X39864182Y-5518556D01*
X39853870Y-5545988D01*
X39845640Y-5574080D01*
X39839392Y-5602732D01*
X39835277Y-5631738D01*
X39833194Y-5660999D01*
X39833296Y-5690311D01*
X39835480Y-5719521D01*
X39839798Y-5748528D01*
X39846148Y-5777128D01*
X39854581Y-5805170D01*
X39864995Y-5832551D01*
X39877390Y-5859119D01*
X39891665Y-5884722D01*
X39907718Y-5909259D01*
X39925498Y-5932525D01*
X39944954Y-5954471D01*
X39965884Y-5974943D01*
X39988286Y-5993892D01*
X40012010Y-6011113D01*
X40036851Y-6026607D01*
X40062810Y-6040272D01*
X40089632Y-6052007D01*
X40117268Y-6061811D01*
X40145512Y-6069584D01*
X40174265Y-6075273D01*
X40203374Y-6078880D01*
G37*
G36*
X39024255Y-4832451D02*
G01*
X39042390Y-4832451D01*
X39045591Y-4832299D01*
X39063625Y-4830318D01*
X39066825Y-4829810D01*
X39084504Y-4825898D01*
X39087602Y-4825034D01*
X39104824Y-4819243D01*
X39107770Y-4818075D01*
X39124229Y-4810455D01*
X39127074Y-4808931D01*
X39142619Y-4799584D01*
X39145311Y-4797755D01*
X39159738Y-4786782D01*
X39162177Y-4784699D01*
X39175334Y-4772253D01*
X39177569Y-4769916D01*
X39189304Y-4756099D01*
X39201445Y-4738522D01*
X39211605Y-4719726D01*
X39212926Y-4716830D01*
X39219632Y-4699965D01*
X39220648Y-4696917D01*
X39225524Y-4679442D01*
X39226236Y-4676292D01*
X39229131Y-4658410D01*
X39229487Y-4655210D01*
X39230452Y-4637125D01*
X39230452Y-4633874D01*
X39229487Y-4615789D01*
X39229131Y-4612589D01*
X39226236Y-4594707D01*
X39225524Y-4591558D01*
X39220648Y-4574082D01*
X39219632Y-4571034D01*
X39212926Y-4554169D01*
X39211605Y-4551273D01*
X39201445Y-4532477D01*
X39189304Y-4514900D01*
X39177569Y-4501083D01*
X39175334Y-4498746D01*
X39162177Y-4486300D01*
X39159738Y-4484217D01*
X39145311Y-4473244D01*
X39142619Y-4471416D01*
X39127074Y-4462068D01*
X39124229Y-4460544D01*
X39107770Y-4452924D01*
X39104824Y-4451756D01*
X39087602Y-4445965D01*
X39084504Y-4445101D01*
X39066825Y-4441190D01*
X39063625Y-4440682D01*
X39045591Y-4438700D01*
X39042390Y-4438548D01*
X39024255Y-4438548D01*
X39021054Y-4438700D01*
X39003020Y-4440682D01*
X38999820Y-4441190D01*
X38982142Y-4445101D01*
X38979043Y-4445965D01*
X38961822Y-4451756D01*
X38958875Y-4452924D01*
X38942416Y-4460544D01*
X38939571Y-4462068D01*
X38924026Y-4471416D01*
X38921334Y-4473244D01*
X38906907Y-4484217D01*
X38904468Y-4486300D01*
X38891311Y-4498746D01*
X38889076Y-4501083D01*
X38877341Y-4514900D01*
X38865200Y-4532477D01*
X38863574Y-4535220D01*
X38853719Y-4554169D01*
X38847014Y-4571034D01*
X38845998Y-4574082D01*
X38841121Y-4591558D01*
X38840410Y-4594707D01*
X38837514Y-4612589D01*
X38837158Y-4615789D01*
X38836193Y-4633874D01*
X38836193Y-4637125D01*
X38837158Y-4655210D01*
X38837514Y-4658410D01*
X38840410Y-4676292D01*
X38841121Y-4679442D01*
X38845998Y-4696917D01*
X38847014Y-4699965D01*
X38853719Y-4716830D01*
X38863574Y-4735779D01*
X38865200Y-4738522D01*
X38877341Y-4756099D01*
X38889076Y-4769916D01*
X38891311Y-4772253D01*
X38904468Y-4784699D01*
X38906907Y-4786782D01*
X38921334Y-4797755D01*
X38924026Y-4799584D01*
X38939571Y-4808931D01*
X38942416Y-4810455D01*
X38958875Y-4818075D01*
X38961822Y-4819243D01*
X38979043Y-4825034D01*
X38982142Y-4825898D01*
X38999820Y-4829810D01*
X39003020Y-4830318D01*
X39021054Y-4832299D01*
G37*
G36*
X41465195Y-4832451D02*
G01*
X41482975Y-4832451D01*
X41486175Y-4832299D01*
X41504209Y-4830318D01*
X41507410Y-4829810D01*
X41525088Y-4825898D01*
X41528187Y-4825034D01*
X41545408Y-4819243D01*
X41548354Y-4818075D01*
X41564814Y-4810455D01*
X41567658Y-4808931D01*
X41583203Y-4799584D01*
X41585896Y-4797755D01*
X41600323Y-4786782D01*
X41602761Y-4784699D01*
X41615918Y-4772253D01*
X41618154Y-4769916D01*
X41629888Y-4756099D01*
X41642030Y-4738522D01*
X41652190Y-4719726D01*
X41653510Y-4716830D01*
X41660216Y-4699965D01*
X41661232Y-4696917D01*
X41666109Y-4679442D01*
X41666820Y-4676292D01*
X41669716Y-4658410D01*
X41670071Y-4655210D01*
X41671036Y-4637125D01*
X41671036Y-4633874D01*
X41670071Y-4615789D01*
X41669716Y-4612589D01*
X41666820Y-4594707D01*
X41666109Y-4591558D01*
X41661232Y-4574082D01*
X41660216Y-4571034D01*
X41653510Y-4554169D01*
X41652190Y-4551273D01*
X41642030Y-4532477D01*
X41629888Y-4514900D01*
X41618154Y-4501083D01*
X41615918Y-4498746D01*
X41602761Y-4486300D01*
X41600323Y-4484217D01*
X41585896Y-4473244D01*
X41583203Y-4471416D01*
X41567658Y-4462068D01*
X41564814Y-4460544D01*
X41548354Y-4452924D01*
X41545408Y-4451756D01*
X41528187Y-4445965D01*
X41525088Y-4445101D01*
X41507410Y-4441190D01*
X41504209Y-4440682D01*
X41486175Y-4438700D01*
X41482975Y-4438548D01*
X41464839Y-4438548D01*
X41461639Y-4438700D01*
X41443605Y-4440682D01*
X41440404Y-4441190D01*
X41422726Y-4445101D01*
X41419627Y-4445965D01*
X41402406Y-4451756D01*
X41399460Y-4452924D01*
X41383000Y-4460544D01*
X41380156Y-4462068D01*
X41364611Y-4471416D01*
X41361918Y-4473244D01*
X41347491Y-4484217D01*
X41345053Y-4486300D01*
X41331896Y-4498746D01*
X41329660Y-4501083D01*
X41317926Y-4514900D01*
X41305784Y-4532477D01*
X41304159Y-4535220D01*
X41294304Y-4554169D01*
X41287598Y-4571034D01*
X41286582Y-4574082D01*
X41281705Y-4591558D01*
X41280994Y-4594707D01*
X41278098Y-4612589D01*
X41277743Y-4615789D01*
X41276778Y-4633874D01*
X41276778Y-4637125D01*
X41277743Y-4655210D01*
X41278098Y-4658410D01*
X41280994Y-4676292D01*
X41281705Y-4679442D01*
X41286582Y-4696917D01*
X41287598Y-4699965D01*
X41294304Y-4716830D01*
X41304159Y-4735779D01*
X41305784Y-4738522D01*
X41317926Y-4756099D01*
X41329660Y-4769916D01*
X41331896Y-4772253D01*
X41345053Y-4784699D01*
X41347491Y-4786782D01*
X41361918Y-4797755D01*
X41364611Y-4799584D01*
X41380156Y-4808931D01*
X41383000Y-4810455D01*
X41399460Y-4818075D01*
X41402406Y-4819243D01*
X41419627Y-4825034D01*
X41422726Y-4825898D01*
X41440404Y-4829810D01*
X41443605Y-4830318D01*
X41461283Y-4832248D01*
G37*

%LPD*%
G36*
X17302327Y-12810286D02*
G01*
X17202353Y-12809270D01*
X17102378Y-12806222D01*
X17002506Y-12801193D01*
X16902734Y-12794183D01*
X16803116Y-12785090D01*
X16703751Y-12774066D01*
X16604589Y-12761010D01*
X16505732Y-12745974D01*
X16407180Y-12728905D01*
X16308984Y-12709906D01*
X16211194Y-12688925D01*
X16113861Y-12665964D01*
X16016986Y-12641072D01*
X15920669Y-12614249D01*
X15824860Y-12585446D01*
X15729712Y-12554762D01*
X15635173Y-12522149D01*
X15541294Y-12487656D01*
X15448127Y-12451283D01*
X15355722Y-12413030D01*
X15264130Y-12372898D01*
X15173299Y-12330988D01*
X15083383Y-12287199D01*
X14994382Y-12241631D01*
X14906294Y-12194336D01*
X14819172Y-12145213D01*
X14733016Y-12094362D01*
X14647976Y-12041784D01*
X14563953Y-11987530D01*
X14481048Y-11931548D01*
X14399310Y-11873941D01*
X14318742Y-11814708D01*
X14239341Y-11753850D01*
X14161262Y-11691416D01*
X14084401Y-11627459D01*
X14008811Y-11561927D01*
X13934643Y-11494871D01*
X13861745Y-11426342D01*
X13790320Y-11356390D01*
X13720267Y-11285016D01*
X13651687Y-11212220D01*
X13584580Y-11138052D01*
X13518997Y-11062563D01*
X13454888Y-10985804D01*
X13392404Y-10907725D01*
X13331444Y-10828426D01*
X13272160Y-10747908D01*
X13214451Y-10666222D01*
X13158419Y-10583367D01*
X13104063Y-10499445D01*
X13051434Y-10414406D01*
X13000482Y-10328351D01*
X12951307Y-10241280D01*
X12903860Y-10153192D01*
X12858242Y-10064242D01*
X12814350Y-9974326D01*
X12772339Y-9883597D01*
X12732156Y-9792004D01*
X12693802Y-9699650D01*
X12657328Y-9606534D01*
X12622733Y-9512706D01*
X12590018Y-9418167D01*
X12559233Y-9323019D01*
X12530378Y-9227261D01*
X12503404Y-9130995D01*
X12478410Y-9034119D01*
X12455398Y-8936837D01*
X12434316Y-8839047D01*
X12415215Y-8740902D01*
X12398095Y-8642350D01*
X12387275Y-8571992D01*
X12387580Y-8567674D01*
X12389612Y-8563864D01*
X12393117Y-8561222D01*
X12397333Y-8560308D01*
X14647824Y-8560308D01*
X14654326Y-8559495D01*
X14659863Y-8557412D01*
X14664994Y-8553856D01*
X14668042Y-8550859D01*
X14670684Y-8547252D01*
X14673173Y-8541715D01*
X14674342Y-8534247D01*
X14674342Y-4940909D01*
X14673529Y-4934407D01*
X14671446Y-4928870D01*
X14667890Y-4923739D01*
X14664893Y-4920691D01*
X14661286Y-4918049D01*
X14655749Y-4915560D01*
X14648281Y-4914392D01*
X13278408Y-4914392D01*
X13274141Y-4913426D01*
X13270636Y-4910734D01*
X13268604Y-4906873D01*
X13268401Y-4902454D01*
X13270128Y-4898390D01*
X13283488Y-4879289D01*
X13341908Y-4799533D01*
X13401903Y-4720945D01*
X13463473Y-4643577D01*
X13526617Y-4567478D01*
X13591235Y-4492650D01*
X13657326Y-4419092D01*
X13724890Y-4346905D01*
X13793876Y-4276090D01*
X13864285Y-4206697D01*
X13936065Y-4138676D01*
X14009217Y-4072128D01*
X14083690Y-4007104D01*
X14159433Y-3943553D01*
X14236395Y-3881526D01*
X14314627Y-3821023D01*
X14394078Y-3762146D01*
X14474647Y-3704844D01*
X14556384Y-3649218D01*
X14639188Y-3595217D01*
X14723110Y-3542842D01*
X14807996Y-3492246D01*
X14893950Y-3443274D01*
X14980818Y-3396081D01*
X15068600Y-3350666D01*
X15157297Y-3306978D01*
X15246908Y-3265068D01*
X15337282Y-3224987D01*
X15428417Y-3186734D01*
X15520365Y-3150311D01*
X15612973Y-3115716D01*
X15706293Y-3083001D01*
X15800222Y-3052165D01*
X15894761Y-3023209D01*
X15989858Y-2996133D01*
X16085515Y-2971038D01*
X16181628Y-2947822D01*
X16278148Y-2926537D01*
X16375126Y-2907182D01*
X16472458Y-2889758D01*
X16570147Y-2874314D01*
X16668089Y-2860852D01*
X16766286Y-2849321D01*
X16864685Y-2839821D01*
X16963288Y-2832252D01*
X17061992Y-2826664D01*
X17160798Y-2823057D01*
X17259655Y-2821381D01*
X17358512Y-2821736D01*
X17457369Y-2824073D01*
X17556175Y-2828391D01*
X17654828Y-2834690D01*
X17753380Y-2842971D01*
X17851729Y-2853232D01*
X17949824Y-2865424D01*
X18047665Y-2879648D01*
X18145201Y-2895752D01*
X18242432Y-2913888D01*
X18339257Y-2933903D01*
X18435675Y-2955899D01*
X18531586Y-2979775D01*
X18627039Y-3005582D01*
X18721933Y-3033318D01*
X18816269Y-3062986D01*
X18909995Y-3094482D01*
X19003060Y-3127857D01*
X19095466Y-3163112D01*
X19187109Y-3200196D01*
X19277990Y-3239109D01*
X19368109Y-3279851D01*
X19457365Y-3322370D01*
X19545757Y-3366668D01*
X19633234Y-3412744D01*
X19719747Y-3460597D01*
X19805345Y-3510127D01*
X19889876Y-3561384D01*
X19973391Y-3614318D01*
X20055840Y-3668928D01*
X20137120Y-3725164D01*
X20217333Y-3783025D01*
X20296327Y-3842461D01*
X20374102Y-3903522D01*
X20450657Y-3966057D01*
X20525943Y-4030167D01*
X20599958Y-4095750D01*
X20672602Y-4162856D01*
X20743875Y-4231335D01*
X20813776Y-4301286D01*
X20882305Y-4372559D01*
X20949310Y-4445254D01*
X21014893Y-4519218D01*
X21079002Y-4594555D01*
X21141537Y-4671110D01*
X21202548Y-4748936D01*
X21261984Y-4827930D01*
X21319845Y-4908092D01*
X21337066Y-4932984D01*
X21338692Y-4937048D01*
X21338489Y-4941417D01*
X21336457Y-4945329D01*
X21332952Y-4947970D01*
X21328684Y-4948936D01*
X19944943Y-4948936D01*
X19938441Y-4949748D01*
X19932904Y-4951831D01*
X19927773Y-4955387D01*
X19924725Y-4958384D01*
X19922083Y-4961991D01*
X19919594Y-4967528D01*
X19918426Y-4974996D01*
X19918426Y-8515654D01*
X19917460Y-8519972D01*
X19914616Y-8525967D01*
X19913396Y-8532012D01*
X19913396Y-8536990D01*
X19913955Y-8540699D01*
X19916140Y-8546439D01*
X19919492Y-8551316D01*
X19924166Y-8555431D01*
X19927265Y-8557310D01*
X19933107Y-8559495D01*
X19939609Y-8560308D01*
X22208134Y-8560308D01*
X22212401Y-8561222D01*
X22215856Y-8563864D01*
X22217938Y-8567674D01*
X22218192Y-8571992D01*
X22207270Y-8643162D01*
X22190151Y-8741664D01*
X22170999Y-8839860D01*
X22149917Y-8937599D01*
X22126854Y-9034932D01*
X22101860Y-9131757D01*
X22074886Y-9228074D01*
X22046031Y-9323781D01*
X22015196Y-9418929D01*
X21982480Y-9513468D01*
X21947886Y-9607296D01*
X21911411Y-9700412D01*
X21873057Y-9792766D01*
X21832824Y-9884308D01*
X21790761Y-9975088D01*
X21746921Y-10064953D01*
X21701252Y-10153904D01*
X21653804Y-10241940D01*
X21604630Y-10329011D01*
X21553678Y-10415066D01*
X21500998Y-10500106D01*
X21446642Y-10584027D01*
X21390559Y-10666882D01*
X21332901Y-10748568D01*
X21273566Y-10829086D01*
X21212606Y-10908385D01*
X21150072Y-10986414D01*
X21086013Y-11063173D01*
X21020379Y-11138662D01*
X20953272Y-11212830D01*
X20884692Y-11285575D01*
X20814639Y-11356949D01*
X20743164Y-11426901D01*
X20670266Y-11495430D01*
X20596047Y-11562435D01*
X20520507Y-11627967D01*
X20443647Y-11691924D01*
X20365516Y-11754358D01*
X20286116Y-11815216D01*
X20205547Y-11874449D01*
X20123759Y-11932005D01*
X20040854Y-11987987D01*
X19956881Y-12042241D01*
X19871791Y-12094768D01*
X19785634Y-12145619D01*
X19698512Y-12194692D01*
X19610425Y-12242038D01*
X19521373Y-12287554D01*
X19431457Y-12331293D01*
X19340626Y-12373254D01*
X19249034Y-12413335D01*
X19156629Y-12451588D01*
X19063462Y-12487960D01*
X18969583Y-12522403D01*
X18875044Y-12555016D01*
X18779845Y-12585700D01*
X18684087Y-12614452D01*
X18587720Y-12641275D01*
X18490844Y-12666167D01*
X18393511Y-12689128D01*
X18295721Y-12710058D01*
X18197525Y-12729057D01*
X18098973Y-12746075D01*
X18000116Y-12761112D01*
X17900954Y-12774168D01*
X17801539Y-12785191D01*
X17701971Y-12794234D01*
X17602200Y-12801244D01*
X17502327Y-12806273D01*
X17402352Y-12809270D01*
G37*

%LPC*%
G36*
X16561866Y-12338151D02*
G01*
X16579951Y-12338151D01*
X16583202Y-12337999D01*
X16601236Y-12336018D01*
X16604386Y-12335510D01*
X16622115Y-12331598D01*
X16625214Y-12330734D01*
X16645382Y-12323775D01*
X16661841Y-12316155D01*
X16664686Y-12314631D01*
X16680230Y-12305284D01*
X16697299Y-12292482D01*
X16699788Y-12290399D01*
X16712946Y-12277953D01*
X16715130Y-12275616D01*
X16726865Y-12261799D01*
X16728846Y-12259208D01*
X16739006Y-12244222D01*
X16740682Y-12241479D01*
X16750538Y-12222530D01*
X16757243Y-12205665D01*
X16758259Y-12202617D01*
X16763085Y-12185142D01*
X16763796Y-12181992D01*
X16766743Y-12164110D01*
X16767098Y-12160910D01*
X16768063Y-12142825D01*
X16768063Y-12139574D01*
X16767098Y-12121489D01*
X16766743Y-12118289D01*
X16763796Y-12100407D01*
X16763085Y-12097258D01*
X16758259Y-12079782D01*
X16757243Y-12076734D01*
X16750538Y-12059869D01*
X16740682Y-12040920D01*
X16739006Y-12038177D01*
X16728846Y-12023191D01*
X16726865Y-12020600D01*
X16715130Y-12006783D01*
X16712946Y-12004446D01*
X16699788Y-11992000D01*
X16697299Y-11989917D01*
X16680230Y-11977116D01*
X16664686Y-11967768D01*
X16661841Y-11966244D01*
X16645382Y-11958624D01*
X16625214Y-11951665D01*
X16622115Y-11950801D01*
X16604386Y-11946890D01*
X16601236Y-11946382D01*
X16583202Y-11944400D01*
X16579951Y-11944248D01*
X16561866Y-11944248D01*
X16558615Y-11944400D01*
X16540581Y-11946382D01*
X16537432Y-11946890D01*
X16519702Y-11950801D01*
X16516604Y-11951665D01*
X16496436Y-11958624D01*
X16479977Y-11966244D01*
X16477132Y-11967768D01*
X16461587Y-11977116D01*
X16444518Y-11989917D01*
X16442029Y-11992000D01*
X16428872Y-12004446D01*
X16426688Y-12006783D01*
X16414953Y-12020600D01*
X16412972Y-12023191D01*
X16402812Y-12038177D01*
X16401135Y-12040920D01*
X16391280Y-12059869D01*
X16384574Y-12076734D01*
X16383558Y-12079782D01*
X16378732Y-12097258D01*
X16378021Y-12100407D01*
X16375075Y-12118289D01*
X16374719Y-12121489D01*
X16373754Y-12139574D01*
X16373754Y-12142825D01*
X16374719Y-12160910D01*
X16375075Y-12164110D01*
X16378021Y-12181992D01*
X16378732Y-12185142D01*
X16383558Y-12202617D01*
X16384574Y-12205665D01*
X16391280Y-12222530D01*
X16401135Y-12241479D01*
X16402812Y-12244222D01*
X16412972Y-12259208D01*
X16414953Y-12261799D01*
X16426688Y-12275616D01*
X16428872Y-12277953D01*
X16442029Y-12290399D01*
X16444518Y-12292482D01*
X16461587Y-12305284D01*
X16477132Y-12314631D01*
X16479977Y-12316155D01*
X16496436Y-12323775D01*
X16516604Y-12330734D01*
X16519702Y-12331598D01*
X16537432Y-12335510D01*
X16540581Y-12336018D01*
X16558615Y-12337999D01*
G37*
G36*
X18009666Y-12338151D02*
G01*
X18027751Y-12338151D01*
X18031002Y-12337999D01*
X18049036Y-12336018D01*
X18052186Y-12335510D01*
X18069915Y-12331598D01*
X18073014Y-12330734D01*
X18093182Y-12323775D01*
X18109641Y-12316155D01*
X18112486Y-12314631D01*
X18128030Y-12305284D01*
X18145099Y-12292482D01*
X18147588Y-12290399D01*
X18160746Y-12277953D01*
X18162930Y-12275616D01*
X18174665Y-12261799D01*
X18176646Y-12259208D01*
X18186806Y-12244222D01*
X18188482Y-12241479D01*
X18198338Y-12222530D01*
X18205043Y-12205665D01*
X18206059Y-12202617D01*
X18210885Y-12185142D01*
X18211596Y-12181992D01*
X18214543Y-12164110D01*
X18214898Y-12160910D01*
X18215864Y-12142825D01*
X18215864Y-12139574D01*
X18214898Y-12121489D01*
X18214543Y-12118289D01*
X18211596Y-12100407D01*
X18210885Y-12097258D01*
X18206059Y-12079782D01*
X18205043Y-12076734D01*
X18198338Y-12059869D01*
X18188482Y-12040920D01*
X18186806Y-12038177D01*
X18176646Y-12023191D01*
X18174665Y-12020600D01*
X18162930Y-12006783D01*
X18160746Y-12004446D01*
X18147588Y-11992000D01*
X18145099Y-11989917D01*
X18128030Y-11977116D01*
X18112486Y-11967768D01*
X18109641Y-11966244D01*
X18093182Y-11958624D01*
X18073014Y-11951665D01*
X18069915Y-11950801D01*
X18052186Y-11946890D01*
X18049036Y-11946382D01*
X18031002Y-11944400D01*
X18027751Y-11944248D01*
X18009666Y-11944248D01*
X18006415Y-11944400D01*
X17988381Y-11946382D01*
X17985232Y-11946890D01*
X17967502Y-11950801D01*
X17964404Y-11951665D01*
X17944236Y-11958624D01*
X17927777Y-11966244D01*
X17924932Y-11967768D01*
X17909387Y-11977116D01*
X17892318Y-11989917D01*
X17889829Y-11992000D01*
X17876672Y-12004446D01*
X17874488Y-12006783D01*
X17862753Y-12020600D01*
X17860772Y-12023191D01*
X17850612Y-12038177D01*
X17848935Y-12040920D01*
X17839080Y-12059869D01*
X17832374Y-12076734D01*
X17831358Y-12079782D01*
X17826532Y-12097258D01*
X17825821Y-12100407D01*
X17822875Y-12118289D01*
X17822519Y-12121489D01*
X17821554Y-12139574D01*
X17821554Y-12142825D01*
X17822519Y-12160910D01*
X17822875Y-12164110D01*
X17825821Y-12181992D01*
X17826532Y-12185142D01*
X17831358Y-12202617D01*
X17832374Y-12205665D01*
X17839080Y-12222530D01*
X17848935Y-12241479D01*
X17850612Y-12244222D01*
X17860772Y-12259208D01*
X17862753Y-12261799D01*
X17874488Y-12275616D01*
X17876672Y-12277953D01*
X17889829Y-12290399D01*
X17892318Y-12292482D01*
X17909387Y-12305284D01*
X17924932Y-12314631D01*
X17927777Y-12316155D01*
X17944236Y-12323775D01*
X17964404Y-12330734D01*
X17967502Y-12331598D01*
X17985232Y-12335510D01*
X17988381Y-12336018D01*
X18006415Y-12337999D01*
G37*
G36*
X17283379Y-11411051D02*
G01*
X17301159Y-11411051D01*
X17304359Y-11410899D01*
X17322393Y-11408918D01*
X17325594Y-11408410D01*
X17343272Y-11404498D01*
X17346371Y-11403634D01*
X17363592Y-11397843D01*
X17366538Y-11396675D01*
X17382998Y-11389055D01*
X17385842Y-11387531D01*
X17401387Y-11378184D01*
X17404080Y-11376355D01*
X17418507Y-11365382D01*
X17420945Y-11363299D01*
X17434102Y-11350853D01*
X17436338Y-11348516D01*
X17448072Y-11334699D01*
X17460214Y-11317122D01*
X17470374Y-11298326D01*
X17471694Y-11295430D01*
X17478400Y-11278565D01*
X17479416Y-11275517D01*
X17484293Y-11258042D01*
X17485004Y-11254892D01*
X17487900Y-11237010D01*
X17488255Y-11233810D01*
X17489220Y-11215725D01*
X17489220Y-11212474D01*
X17488255Y-11194389D01*
X17487900Y-11191189D01*
X17485004Y-11173307D01*
X17484293Y-11170158D01*
X17479416Y-11152682D01*
X17478400Y-11149634D01*
X17471694Y-11132769D01*
X17470374Y-11129873D01*
X17460214Y-11111077D01*
X17448072Y-11093500D01*
X17436338Y-11079683D01*
X17434102Y-11077346D01*
X17420945Y-11064900D01*
X17418507Y-11062817D01*
X17404080Y-11051844D01*
X17401387Y-11050016D01*
X17385842Y-11040668D01*
X17382998Y-11039144D01*
X17366538Y-11031524D01*
X17363592Y-11030356D01*
X17346371Y-11024565D01*
X17343272Y-11023701D01*
X17325594Y-11019790D01*
X17322393Y-11019282D01*
X17304359Y-11017300D01*
X17301159Y-11017148D01*
X17283023Y-11017148D01*
X17279823Y-11017300D01*
X17261789Y-11019282D01*
X17258588Y-11019790D01*
X17240910Y-11023701D01*
X17237811Y-11024565D01*
X17220590Y-11030356D01*
X17217644Y-11031524D01*
X17201184Y-11039144D01*
X17198340Y-11040668D01*
X17182795Y-11050016D01*
X17180102Y-11051844D01*
X17165675Y-11062817D01*
X17163237Y-11064900D01*
X17150080Y-11077346D01*
X17147844Y-11079683D01*
X17136110Y-11093500D01*
X17123968Y-11111077D01*
X17122343Y-11113820D01*
X17112488Y-11132769D01*
X17105782Y-11149634D01*
X17104766Y-11152682D01*
X17099889Y-11170158D01*
X17099178Y-11173307D01*
X17096282Y-11191189D01*
X17095927Y-11194389D01*
X17094962Y-11212474D01*
X17094962Y-11215725D01*
X17095927Y-11233810D01*
X17096282Y-11237010D01*
X17099178Y-11254892D01*
X17099889Y-11258042D01*
X17104766Y-11275517D01*
X17105782Y-11278565D01*
X17112488Y-11295430D01*
X17122343Y-11314379D01*
X17123968Y-11317122D01*
X17136110Y-11334699D01*
X17147844Y-11348516D01*
X17150080Y-11350853D01*
X17163237Y-11363299D01*
X17165675Y-11365382D01*
X17180102Y-11376355D01*
X17182795Y-11378184D01*
X17198340Y-11387531D01*
X17201184Y-11389055D01*
X17217644Y-11396675D01*
X17220590Y-11397843D01*
X17237811Y-11403634D01*
X17240910Y-11404498D01*
X17258588Y-11408410D01*
X17261789Y-11408918D01*
X17279467Y-11410848D01*
G37*
G36*
X15485770Y-10657840D02*
G01*
X15503550Y-10657840D01*
X15506801Y-10657687D01*
X15524835Y-10655706D01*
X15527985Y-10655198D01*
X15545714Y-10651286D01*
X15548813Y-10650423D01*
X15568980Y-10643463D01*
X15585440Y-10635843D01*
X15588284Y-10634319D01*
X15603829Y-10624972D01*
X15620898Y-10612170D01*
X15623387Y-10610088D01*
X15636544Y-10597642D01*
X15638729Y-10595305D01*
X15650463Y-10581487D01*
X15652445Y-10578896D01*
X15662605Y-10563910D01*
X15664281Y-10561167D01*
X15674136Y-10542219D01*
X15680842Y-10525353D01*
X15681858Y-10522305D01*
X15686684Y-10504830D01*
X15687395Y-10501680D01*
X15690342Y-10483799D01*
X15690697Y-10480598D01*
X15691662Y-10462514D01*
X15691662Y-10459262D01*
X15690697Y-10441178D01*
X15690342Y-10437977D01*
X15687395Y-10420096D01*
X15686684Y-10416946D01*
X15681858Y-10399471D01*
X15680842Y-10396423D01*
X15674136Y-10379557D01*
X15664281Y-10360609D01*
X15662605Y-10357866D01*
X15652445Y-10342880D01*
X15650463Y-10340289D01*
X15638729Y-10326471D01*
X15636544Y-10324134D01*
X15623387Y-10311688D01*
X15620898Y-10309606D01*
X15603829Y-10296804D01*
X15588284Y-10287457D01*
X15585440Y-10285933D01*
X15568980Y-10278313D01*
X15548813Y-10271353D01*
X15545714Y-10270490D01*
X15527985Y-10266578D01*
X15524835Y-10266070D01*
X15506801Y-10264089D01*
X15503550Y-10263936D01*
X15485465Y-10263936D01*
X15482214Y-10264089D01*
X15464180Y-10266070D01*
X15461030Y-10266578D01*
X15443301Y-10270490D01*
X15440202Y-10271353D01*
X15420035Y-10278313D01*
X15403576Y-10285933D01*
X15400731Y-10287457D01*
X15385186Y-10296804D01*
X15368117Y-10309606D01*
X15365628Y-10311688D01*
X15352471Y-10324134D01*
X15350286Y-10326471D01*
X15338551Y-10340289D01*
X15336570Y-10342880D01*
X15326410Y-10357866D01*
X15324734Y-10360609D01*
X15314879Y-10379557D01*
X15308173Y-10396423D01*
X15307157Y-10399471D01*
X15302331Y-10416946D01*
X15301620Y-10420096D01*
X15298674Y-10437977D01*
X15298318Y-10441178D01*
X15297353Y-10459262D01*
X15297353Y-10462514D01*
X15298318Y-10480598D01*
X15298674Y-10483799D01*
X15301620Y-10501680D01*
X15302331Y-10504830D01*
X15307157Y-10522305D01*
X15308173Y-10525353D01*
X15314879Y-10542219D01*
X15324734Y-10561167D01*
X15326410Y-10563910D01*
X15336570Y-10578896D01*
X15338551Y-10581487D01*
X15350286Y-10595305D01*
X15352471Y-10597642D01*
X15365628Y-10610088D01*
X15368117Y-10612170D01*
X15385186Y-10624972D01*
X15400731Y-10634319D01*
X15403576Y-10635843D01*
X15420035Y-10643463D01*
X15440202Y-10650423D01*
X15443301Y-10651286D01*
X15461030Y-10655198D01*
X15464180Y-10655706D01*
X15481909Y-10657636D01*
G37*
G36*
X19104965Y-10657840D02*
G01*
X19123050Y-10657840D01*
X19126301Y-10657687D01*
X19144335Y-10655706D01*
X19147485Y-10655198D01*
X19165214Y-10651286D01*
X19168313Y-10650423D01*
X19188480Y-10643463D01*
X19204940Y-10635843D01*
X19207784Y-10634319D01*
X19223329Y-10624972D01*
X19240398Y-10612170D01*
X19242887Y-10610088D01*
X19256044Y-10597642D01*
X19258229Y-10595305D01*
X19269964Y-10581487D01*
X19271945Y-10578896D01*
X19282105Y-10563910D01*
X19283781Y-10561167D01*
X19293636Y-10542219D01*
X19300342Y-10525353D01*
X19301358Y-10522305D01*
X19306184Y-10504830D01*
X19306895Y-10501680D01*
X19309842Y-10483799D01*
X19310197Y-10480598D01*
X19311162Y-10462514D01*
X19311162Y-10459262D01*
X19310197Y-10441178D01*
X19309842Y-10437977D01*
X19306895Y-10420096D01*
X19306184Y-10416946D01*
X19301358Y-10399471D01*
X19300342Y-10396423D01*
X19293636Y-10379557D01*
X19283781Y-10360609D01*
X19282105Y-10357866D01*
X19271945Y-10342880D01*
X19269964Y-10340289D01*
X19258229Y-10326471D01*
X19256044Y-10324134D01*
X19242887Y-10311688D01*
X19240398Y-10309606D01*
X19223329Y-10296804D01*
X19207784Y-10287457D01*
X19204940Y-10285933D01*
X19188480Y-10278313D01*
X19168313Y-10271353D01*
X19165214Y-10270490D01*
X19147485Y-10266578D01*
X19144335Y-10266070D01*
X19126301Y-10264089D01*
X19123050Y-10263936D01*
X19104965Y-10263936D01*
X19101714Y-10264089D01*
X19083680Y-10266070D01*
X19080530Y-10266578D01*
X19062801Y-10270490D01*
X19059702Y-10271353D01*
X19039535Y-10278313D01*
X19023076Y-10285933D01*
X19020231Y-10287457D01*
X19004686Y-10296804D01*
X18987617Y-10309606D01*
X18985128Y-10311688D01*
X18971971Y-10324134D01*
X18969786Y-10326471D01*
X18958052Y-10340289D01*
X18956070Y-10342880D01*
X18945910Y-10357866D01*
X18944234Y-10360609D01*
X18934379Y-10379557D01*
X18927673Y-10396423D01*
X18926657Y-10399471D01*
X18921831Y-10416946D01*
X18921120Y-10420096D01*
X18918174Y-10437977D01*
X18917818Y-10441178D01*
X18916853Y-10459262D01*
X18916853Y-10462514D01*
X18917818Y-10480598D01*
X18918174Y-10483799D01*
X18921120Y-10501680D01*
X18921831Y-10504830D01*
X18926657Y-10522305D01*
X18927673Y-10525353D01*
X18934379Y-10542219D01*
X18944234Y-10561167D01*
X18945910Y-10563910D01*
X18956070Y-10578896D01*
X18958052Y-10581487D01*
X18969786Y-10595305D01*
X18971971Y-10597642D01*
X18985128Y-10610088D01*
X18987617Y-10612170D01*
X19004686Y-10624972D01*
X19020231Y-10634319D01*
X19023076Y-10635843D01*
X19039535Y-10643463D01*
X19059702Y-10650423D01*
X19062801Y-10651286D01*
X19080530Y-10655198D01*
X19083680Y-10655706D01*
X19101714Y-10657687D01*
G37*
G36*
X21263762Y-10268051D02*
G01*
X21281542Y-10268051D01*
X21284793Y-10267899D01*
X21302827Y-10265918D01*
X21305977Y-10265410D01*
X21323706Y-10261498D01*
X21326805Y-10260634D01*
X21346972Y-10253675D01*
X21363432Y-10246055D01*
X21366276Y-10244531D01*
X21381821Y-10235184D01*
X21398890Y-10222382D01*
X21401379Y-10220299D01*
X21414536Y-10207853D01*
X21416721Y-10205516D01*
X21428456Y-10191699D01*
X21430437Y-10189108D01*
X21440597Y-10174122D01*
X21442273Y-10171379D01*
X21452128Y-10152430D01*
X21458834Y-10135565D01*
X21459850Y-10132517D01*
X21464676Y-10115042D01*
X21465387Y-10111892D01*
X21468334Y-10094010D01*
X21468689Y-10090810D01*
X21469654Y-10072725D01*
X21469654Y-10069474D01*
X21468689Y-10051389D01*
X21468334Y-10048189D01*
X21465387Y-10030307D01*
X21464676Y-10027158D01*
X21459850Y-10009682D01*
X21458834Y-10006634D01*
X21452128Y-9989769D01*
X21442273Y-9970820D01*
X21440597Y-9968077D01*
X21430437Y-9953091D01*
X21428456Y-9950500D01*
X21416721Y-9936683D01*
X21414536Y-9934346D01*
X21401379Y-9921900D01*
X21398890Y-9919817D01*
X21381821Y-9907016D01*
X21366276Y-9897668D01*
X21363432Y-9896144D01*
X21346972Y-9888524D01*
X21326805Y-9881565D01*
X21323706Y-9880701D01*
X21305977Y-9876790D01*
X21302827Y-9876282D01*
X21284793Y-9874300D01*
X21281542Y-9874148D01*
X21263457Y-9874148D01*
X21260206Y-9874300D01*
X21242172Y-9876282D01*
X21239022Y-9876790D01*
X21221293Y-9880701D01*
X21218194Y-9881565D01*
X21198027Y-9888524D01*
X21181568Y-9896144D01*
X21178723Y-9897668D01*
X21163178Y-9907016D01*
X21146109Y-9919817D01*
X21143620Y-9921900D01*
X21130463Y-9934346D01*
X21128278Y-9936683D01*
X21116544Y-9950500D01*
X21114562Y-9953091D01*
X21104402Y-9968077D01*
X21102726Y-9970820D01*
X21092871Y-9989769D01*
X21086165Y-10006634D01*
X21085149Y-10009682D01*
X21080323Y-10027158D01*
X21079612Y-10030307D01*
X21076666Y-10048189D01*
X21076310Y-10051389D01*
X21075345Y-10069474D01*
X21075345Y-10072725D01*
X21076310Y-10090810D01*
X21076666Y-10094010D01*
X21079612Y-10111892D01*
X21080323Y-10115042D01*
X21085149Y-10132517D01*
X21086165Y-10135565D01*
X21092871Y-10152430D01*
X21102726Y-10171379D01*
X21104402Y-10174122D01*
X21114562Y-10189108D01*
X21116544Y-10191699D01*
X21128278Y-10205516D01*
X21130463Y-10207853D01*
X21143620Y-10220299D01*
X21146109Y-10222382D01*
X21163178Y-10235184D01*
X21178723Y-10244531D01*
X21181568Y-10246055D01*
X21198027Y-10253675D01*
X21218194Y-10260634D01*
X21221293Y-10261498D01*
X21239022Y-10265410D01*
X21242172Y-10265918D01*
X21259901Y-10267848D01*
G37*
G36*
X13414857Y-10255351D02*
G01*
X13432942Y-10255351D01*
X13436193Y-10255199D01*
X13454227Y-10253218D01*
X13457377Y-10252710D01*
X13475106Y-10248798D01*
X13478205Y-10247934D01*
X13498372Y-10240975D01*
X13514832Y-10233355D01*
X13517676Y-10231831D01*
X13533221Y-10222484D01*
X13550290Y-10209682D01*
X13552779Y-10207599D01*
X13565936Y-10195153D01*
X13568121Y-10192816D01*
X13579856Y-10178999D01*
X13581837Y-10176408D01*
X13591997Y-10161422D01*
X13593673Y-10158679D01*
X13603528Y-10139730D01*
X13610234Y-10122865D01*
X13611250Y-10119817D01*
X13616076Y-10102342D01*
X13616787Y-10099192D01*
X13619734Y-10081310D01*
X13620089Y-10078110D01*
X13621054Y-10060025D01*
X13621054Y-10056774D01*
X13620089Y-10038689D01*
X13619734Y-10035489D01*
X13616787Y-10017607D01*
X13616076Y-10014458D01*
X13611250Y-9996982D01*
X13610234Y-9993934D01*
X13603528Y-9977069D01*
X13593673Y-9958120D01*
X13591997Y-9955377D01*
X13581837Y-9940391D01*
X13579856Y-9937800D01*
X13568121Y-9923983D01*
X13565936Y-9921646D01*
X13552779Y-9909200D01*
X13550290Y-9907117D01*
X13533221Y-9894316D01*
X13517676Y-9884968D01*
X13514832Y-9883444D01*
X13498372Y-9875824D01*
X13478205Y-9868865D01*
X13475106Y-9868001D01*
X13457377Y-9864090D01*
X13454227Y-9863582D01*
X13436193Y-9861600D01*
X13432942Y-9861448D01*
X13414857Y-9861448D01*
X13411606Y-9861600D01*
X13393572Y-9863582D01*
X13390422Y-9864090D01*
X13372693Y-9868001D01*
X13369594Y-9868865D01*
X13349427Y-9875824D01*
X13332968Y-9883444D01*
X13330123Y-9884968D01*
X13314578Y-9894316D01*
X13297509Y-9907117D01*
X13295020Y-9909200D01*
X13281863Y-9921646D01*
X13279678Y-9923983D01*
X13267944Y-9937800D01*
X13265962Y-9940391D01*
X13255802Y-9955377D01*
X13254126Y-9958120D01*
X13244271Y-9977069D01*
X13237565Y-9993934D01*
X13236549Y-9996982D01*
X13231723Y-10014458D01*
X13231012Y-10017607D01*
X13228066Y-10035489D01*
X13227710Y-10038689D01*
X13226745Y-10056774D01*
X13226745Y-10060025D01*
X13227710Y-10078110D01*
X13228066Y-10081310D01*
X13231012Y-10099192D01*
X13231723Y-10102342D01*
X13236549Y-10119817D01*
X13237565Y-10122865D01*
X13244271Y-10139730D01*
X13254126Y-10158679D01*
X13255802Y-10161422D01*
X13265962Y-10176408D01*
X13267944Y-10178999D01*
X13279678Y-10192816D01*
X13281863Y-10195153D01*
X13295020Y-10207599D01*
X13297509Y-10209682D01*
X13314578Y-10222484D01*
X13330123Y-10231831D01*
X13332968Y-10233355D01*
X13349427Y-10240975D01*
X13369594Y-10247934D01*
X13372693Y-10248798D01*
X13390422Y-10252710D01*
X13393572Y-10253218D01*
X13411606Y-10255199D01*
G37*
G36*
X17283379Y-9899751D02*
G01*
X17301159Y-9899751D01*
X17304359Y-9899599D01*
X17322393Y-9897618D01*
X17325594Y-9897110D01*
X17343272Y-9893198D01*
X17346371Y-9892334D01*
X17363592Y-9886543D01*
X17366538Y-9885375D01*
X17382998Y-9877755D01*
X17385842Y-9876231D01*
X17401387Y-9866884D01*
X17404080Y-9865055D01*
X17418507Y-9854082D01*
X17420945Y-9851999D01*
X17434102Y-9839553D01*
X17436338Y-9837216D01*
X17448072Y-9823399D01*
X17460214Y-9805822D01*
X17470374Y-9787026D01*
X17471694Y-9784130D01*
X17478400Y-9767265D01*
X17479416Y-9764217D01*
X17484293Y-9746742D01*
X17485004Y-9743592D01*
X17487900Y-9725710D01*
X17488255Y-9722510D01*
X17489220Y-9704425D01*
X17489220Y-9701174D01*
X17488255Y-9683089D01*
X17487900Y-9679889D01*
X17485004Y-9662007D01*
X17484293Y-9658858D01*
X17479416Y-9641382D01*
X17478400Y-9638334D01*
X17471694Y-9621469D01*
X17470374Y-9618573D01*
X17460214Y-9599777D01*
X17448072Y-9582200D01*
X17436338Y-9568383D01*
X17434102Y-9566046D01*
X17420945Y-9553600D01*
X17418507Y-9551517D01*
X17404080Y-9540544D01*
X17401387Y-9538716D01*
X17385842Y-9529368D01*
X17382998Y-9527844D01*
X17366538Y-9520224D01*
X17363592Y-9519056D01*
X17346371Y-9513265D01*
X17343272Y-9512401D01*
X17325594Y-9508490D01*
X17322393Y-9507982D01*
X17304359Y-9506000D01*
X17301159Y-9505848D01*
X17283023Y-9505848D01*
X17279823Y-9506000D01*
X17261789Y-9507982D01*
X17258588Y-9508490D01*
X17240910Y-9512401D01*
X17237811Y-9513265D01*
X17220590Y-9519056D01*
X17217644Y-9520224D01*
X17201184Y-9527844D01*
X17198340Y-9529368D01*
X17182795Y-9538716D01*
X17180102Y-9540544D01*
X17165675Y-9551517D01*
X17163237Y-9553600D01*
X17150080Y-9566046D01*
X17147844Y-9568383D01*
X17136110Y-9582200D01*
X17123968Y-9599777D01*
X17122343Y-9602520D01*
X17112488Y-9621469D01*
X17105782Y-9638334D01*
X17104766Y-9641382D01*
X17099889Y-9658858D01*
X17099178Y-9662007D01*
X17096282Y-9679889D01*
X17095927Y-9683089D01*
X17094962Y-9701174D01*
X17094962Y-9704425D01*
X17095927Y-9722510D01*
X17096282Y-9725710D01*
X17099178Y-9743592D01*
X17099889Y-9746742D01*
X17104766Y-9764217D01*
X17105782Y-9767265D01*
X17112488Y-9784130D01*
X17122343Y-9803079D01*
X17123968Y-9805822D01*
X17136110Y-9823399D01*
X17147844Y-9837216D01*
X17150080Y-9839553D01*
X17163237Y-9851999D01*
X17165675Y-9854082D01*
X17180102Y-9865055D01*
X17182795Y-9866884D01*
X17198340Y-9876231D01*
X17201184Y-9877755D01*
X17217644Y-9885375D01*
X17220590Y-9886543D01*
X17237811Y-9892334D01*
X17240910Y-9893198D01*
X17258588Y-9897110D01*
X17261789Y-9897618D01*
X17279467Y-9899548D01*
G37*
G36*
X15995294Y-8744407D02*
G01*
X18572175Y-8744407D01*
X18578677Y-8743594D01*
X18584214Y-8741511D01*
X18589345Y-8737955D01*
X18592393Y-8734958D01*
X18594984Y-8731351D01*
X18597524Y-8725814D01*
X18598692Y-8718346D01*
X18598692Y-8021167D01*
X18597880Y-8014665D01*
X18595797Y-8009128D01*
X18592241Y-8003997D01*
X18589193Y-8000949D01*
X18585637Y-7998307D01*
X18580100Y-7995818D01*
X18572632Y-7994650D01*
X15995294Y-7994650D01*
X15988792Y-7995412D01*
X15983254Y-7997494D01*
X15978124Y-8001050D01*
X15975076Y-8004098D01*
X15972434Y-8007705D01*
X15969945Y-8013242D01*
X15968776Y-8020710D01*
X15968776Y-8717889D01*
X15969589Y-8724392D01*
X15971672Y-8729929D01*
X15975228Y-8735060D01*
X15978124Y-8737955D01*
X15983254Y-8741511D01*
X15988792Y-8743594D01*
G37*
G36*
X15027148Y-7596124D02*
G01*
X15031821Y-7596124D01*
X15043759Y-7595209D01*
X15048331Y-7594498D01*
X15059964Y-7591704D01*
X15064384Y-7590231D01*
X15075458Y-7585659D01*
X15079573Y-7583576D01*
X15089784Y-7577328D01*
X15093543Y-7574584D01*
X15102636Y-7566812D01*
X15105938Y-7563510D01*
X15113711Y-7554417D01*
X15116454Y-7550658D01*
X15122702Y-7540447D01*
X15124836Y-7536281D01*
X15129408Y-7525258D01*
X15130830Y-7520838D01*
X15133624Y-7509205D01*
X15134336Y-7504582D01*
X15135301Y-7492644D01*
X15135301Y-7488021D01*
X15134336Y-7476083D01*
X15133624Y-7471460D01*
X15130830Y-7459827D01*
X15129408Y-7455408D01*
X15124836Y-7444384D01*
X15122702Y-7440218D01*
X15116454Y-7430008D01*
X15113711Y-7426248D01*
X15105938Y-7417155D01*
X15102636Y-7413853D01*
X15093543Y-7406081D01*
X15089784Y-7403338D01*
X15079573Y-7397089D01*
X15075458Y-7395006D01*
X15064384Y-7390434D01*
X15059964Y-7388961D01*
X15048331Y-7386167D01*
X15043759Y-7385456D01*
X15031821Y-7384542D01*
X15027148Y-7384542D01*
X15015210Y-7385456D01*
X15010638Y-7386167D01*
X14999004Y-7388961D01*
X14994585Y-7390434D01*
X14983510Y-7395006D01*
X14979396Y-7397089D01*
X14969185Y-7403338D01*
X14965426Y-7406081D01*
X14956332Y-7413853D01*
X14953030Y-7417155D01*
X14945258Y-7426248D01*
X14942515Y-7430008D01*
X14936266Y-7440218D01*
X14934133Y-7444384D01*
X14929561Y-7455408D01*
X14928138Y-7459827D01*
X14925344Y-7471460D01*
X14924633Y-7476083D01*
X14923668Y-7488021D01*
X14923668Y-7492644D01*
X14924633Y-7504582D01*
X14925344Y-7509205D01*
X14928138Y-7520838D01*
X14929561Y-7525258D01*
X14934133Y-7536281D01*
X14936266Y-7540447D01*
X14942515Y-7550658D01*
X14945258Y-7554417D01*
X14953030Y-7563510D01*
X14956332Y-7566812D01*
X14965426Y-7574584D01*
X14969185Y-7577328D01*
X14979396Y-7583576D01*
X14983510Y-7585659D01*
X14994585Y-7590231D01*
X14999004Y-7591704D01*
X15010638Y-7594498D01*
X15015210Y-7595209D01*
G37*
G36*
X19522948Y-7596124D02*
G01*
X19527621Y-7596124D01*
X19539559Y-7595209D01*
X19544131Y-7594498D01*
X19555764Y-7591704D01*
X19560184Y-7590231D01*
X19571258Y-7585659D01*
X19575373Y-7583576D01*
X19585584Y-7577328D01*
X19589343Y-7574584D01*
X19598436Y-7566812D01*
X19601738Y-7563510D01*
X19609511Y-7554417D01*
X19612254Y-7550658D01*
X19618502Y-7540447D01*
X19620636Y-7536281D01*
X19625208Y-7525258D01*
X19626630Y-7520838D01*
X19629424Y-7509205D01*
X19630136Y-7504582D01*
X19631101Y-7492644D01*
X19631101Y-7488021D01*
X19630136Y-7476083D01*
X19629424Y-7471460D01*
X19626630Y-7459827D01*
X19625208Y-7455408D01*
X19620636Y-7444384D01*
X19618502Y-7440218D01*
X19612254Y-7430008D01*
X19609511Y-7426248D01*
X19601738Y-7417155D01*
X19598436Y-7413853D01*
X19589343Y-7406081D01*
X19585584Y-7403338D01*
X19575373Y-7397089D01*
X19571258Y-7395006D01*
X19560184Y-7390434D01*
X19555764Y-7388961D01*
X19544131Y-7386167D01*
X19539559Y-7385456D01*
X19527621Y-7384542D01*
X19522948Y-7384542D01*
X19511010Y-7385456D01*
X19506438Y-7386167D01*
X19494804Y-7388961D01*
X19490385Y-7390434D01*
X19479310Y-7395006D01*
X19475196Y-7397089D01*
X19464985Y-7403338D01*
X19461226Y-7406081D01*
X19452132Y-7413853D01*
X19448830Y-7417155D01*
X19441058Y-7426248D01*
X19438315Y-7430008D01*
X19432066Y-7440218D01*
X19429933Y-7444384D01*
X19425361Y-7455408D01*
X19423938Y-7459827D01*
X19421144Y-7471460D01*
X19420433Y-7476083D01*
X19419468Y-7488021D01*
X19419468Y-7492644D01*
X19420433Y-7504582D01*
X19421144Y-7509205D01*
X19423938Y-7520838D01*
X19425361Y-7525258D01*
X19429933Y-7536281D01*
X19432066Y-7540447D01*
X19438315Y-7550658D01*
X19441058Y-7554417D01*
X19448830Y-7563510D01*
X19452132Y-7566812D01*
X19461226Y-7574584D01*
X19464985Y-7577328D01*
X19475196Y-7583576D01*
X19479310Y-7585659D01*
X19490385Y-7590231D01*
X19494804Y-7591704D01*
X19506438Y-7594498D01*
X19511010Y-7595209D01*
G37*
G36*
X15995294Y-7231227D02*
G01*
X18572327Y-7231227D01*
X18577001Y-7230821D01*
X18583402Y-7228840D01*
X18590463Y-7225690D01*
X18595797Y-7222490D01*
X18599912Y-7218476D01*
X18603061Y-7213549D01*
X18605195Y-7207808D01*
X18606008Y-7201306D01*
X18606008Y-6592468D01*
X18605195Y-6585966D01*
X18603010Y-6580124D01*
X18601029Y-6576822D01*
X18598591Y-6573824D01*
X18593866Y-6569964D01*
X18588532Y-6567424D01*
X18582487Y-6566204D01*
X18577509Y-6566204D01*
X18573800Y-6566814D01*
X18568162Y-6568948D01*
X18561913Y-6569811D01*
X15995294Y-6569811D01*
X15988792Y-6570624D01*
X15983254Y-6572707D01*
X15978124Y-6576263D01*
X15975076Y-6579311D01*
X15972434Y-6582867D01*
X15969945Y-6588404D01*
X15968776Y-6595872D01*
X15968776Y-7204709D01*
X15969538Y-7211212D01*
X15971672Y-7216749D01*
X15975177Y-7221880D01*
X15978225Y-7224928D01*
X15981832Y-7227570D01*
X15987369Y-7230059D01*
X15993211Y-7231125D01*
G37*
G36*
X18517565Y-6405676D02*
G01*
X18535650Y-6405676D01*
X18538901Y-6405473D01*
X18556935Y-6403492D01*
X18560084Y-6402984D01*
X18577814Y-6399123D01*
X18580912Y-6398260D01*
X18598083Y-6392468D01*
X18601080Y-6391249D01*
X18620384Y-6382156D01*
X18635929Y-6372809D01*
X18652998Y-6360007D01*
X18655487Y-6357924D01*
X18668644Y-6345428D01*
X18670828Y-6343091D01*
X18684544Y-6326733D01*
X18696381Y-6308953D01*
X18704864Y-6292951D01*
X18706236Y-6290005D01*
X18712942Y-6273190D01*
X18713958Y-6270142D01*
X18718784Y-6252667D01*
X18719495Y-6249517D01*
X18722441Y-6231636D01*
X18722797Y-6228435D01*
X18723762Y-6210300D01*
X18723762Y-6207099D01*
X18722797Y-6188964D01*
X18722441Y-6185763D01*
X18719495Y-6167882D01*
X18718784Y-6164732D01*
X18713958Y-6147257D01*
X18712942Y-6144209D01*
X18706236Y-6127394D01*
X18704864Y-6124448D01*
X18696381Y-6108446D01*
X18684544Y-6090666D01*
X18670828Y-6074308D01*
X18668644Y-6071971D01*
X18655487Y-6059474D01*
X18652998Y-6057392D01*
X18635929Y-6044590D01*
X18620384Y-6035243D01*
X18601080Y-6026150D01*
X18598083Y-6024930D01*
X18580912Y-6019139D01*
X18577814Y-6018276D01*
X18560084Y-6014415D01*
X18556935Y-6013907D01*
X18538901Y-6011926D01*
X18535650Y-6011722D01*
X18517565Y-6011722D01*
X18514314Y-6011926D01*
X18496280Y-6013907D01*
X18493130Y-6014415D01*
X18475401Y-6018276D01*
X18472302Y-6019139D01*
X18455132Y-6024930D01*
X18452134Y-6026150D01*
X18432830Y-6035243D01*
X18417286Y-6044590D01*
X18400217Y-6057392D01*
X18397728Y-6059474D01*
X18384570Y-6071971D01*
X18382386Y-6074308D01*
X18368670Y-6090666D01*
X18356834Y-6108446D01*
X18348350Y-6124448D01*
X18346978Y-6127394D01*
X18340273Y-6144209D01*
X18339257Y-6147257D01*
X18334431Y-6164732D01*
X18333720Y-6167882D01*
X18330773Y-6185763D01*
X18330418Y-6188964D01*
X18329452Y-6207099D01*
X18329452Y-6210300D01*
X18330418Y-6228435D01*
X18330773Y-6231636D01*
X18333720Y-6249517D01*
X18334431Y-6252667D01*
X18339257Y-6270142D01*
X18340273Y-6273190D01*
X18346978Y-6290005D01*
X18348350Y-6292951D01*
X18356834Y-6308953D01*
X18368670Y-6326733D01*
X18382386Y-6343091D01*
X18384570Y-6345428D01*
X18397728Y-6357924D01*
X18400217Y-6360007D01*
X18417286Y-6372809D01*
X18432830Y-6382156D01*
X18452134Y-6391249D01*
X18455132Y-6392468D01*
X18472302Y-6398260D01*
X18475401Y-6399123D01*
X18493130Y-6402984D01*
X18496280Y-6403492D01*
X18514314Y-6405473D01*
G37*
G36*
X16076980Y-6405676D02*
G01*
X16095065Y-6405676D01*
X16098316Y-6405473D01*
X16116350Y-6403492D01*
X16119500Y-6402984D01*
X16137229Y-6399123D01*
X16140328Y-6398260D01*
X16157498Y-6392468D01*
X16160496Y-6391249D01*
X16179800Y-6382156D01*
X16195344Y-6372809D01*
X16212413Y-6360007D01*
X16214902Y-6357924D01*
X16228060Y-6345428D01*
X16230244Y-6343091D01*
X16243960Y-6326733D01*
X16255796Y-6308953D01*
X16264280Y-6292951D01*
X16265651Y-6290005D01*
X16272357Y-6273190D01*
X16273373Y-6270142D01*
X16278199Y-6252667D01*
X16278910Y-6249517D01*
X16281857Y-6231636D01*
X16282212Y-6228435D01*
X16283178Y-6210300D01*
X16283178Y-6207099D01*
X16282212Y-6188964D01*
X16281857Y-6185763D01*
X16278910Y-6167882D01*
X16278199Y-6164732D01*
X16273373Y-6147257D01*
X16272357Y-6144209D01*
X16265651Y-6127394D01*
X16264280Y-6124448D01*
X16255796Y-6108446D01*
X16243960Y-6090666D01*
X16230244Y-6074308D01*
X16228060Y-6071971D01*
X16214902Y-6059474D01*
X16212413Y-6057392D01*
X16195344Y-6044590D01*
X16179800Y-6035243D01*
X16160496Y-6026150D01*
X16157498Y-6024930D01*
X16140328Y-6019139D01*
X16137229Y-6018276D01*
X16119500Y-6014415D01*
X16116350Y-6013907D01*
X16098316Y-6011926D01*
X16095065Y-6011722D01*
X16076980Y-6011722D01*
X16073729Y-6011926D01*
X16055695Y-6013907D01*
X16052546Y-6014415D01*
X16034816Y-6018276D01*
X16031718Y-6019139D01*
X16014547Y-6024930D01*
X16011550Y-6026150D01*
X15992246Y-6035243D01*
X15976701Y-6044590D01*
X15959632Y-6057392D01*
X15957143Y-6059474D01*
X15943986Y-6071971D01*
X15941801Y-6074308D01*
X15928086Y-6090666D01*
X15916249Y-6108446D01*
X15907766Y-6124448D01*
X15906394Y-6127394D01*
X15899688Y-6144209D01*
X15898672Y-6147257D01*
X15893846Y-6164732D01*
X15893135Y-6167882D01*
X15890189Y-6185763D01*
X15889833Y-6188964D01*
X15888868Y-6207099D01*
X15888868Y-6210300D01*
X15889833Y-6228435D01*
X15890189Y-6231636D01*
X15893135Y-6249517D01*
X15893846Y-6252667D01*
X15898672Y-6270142D01*
X15899688Y-6273190D01*
X15906394Y-6290005D01*
X15907766Y-6292951D01*
X15916249Y-6308953D01*
X15928086Y-6326733D01*
X15941801Y-6343091D01*
X15943986Y-6345428D01*
X15957143Y-6357924D01*
X15959632Y-6360007D01*
X15976701Y-6372809D01*
X15992246Y-6382156D01*
X16011550Y-6391249D01*
X16014547Y-6392468D01*
X16031718Y-6398260D01*
X16034816Y-6399123D01*
X16052546Y-6402984D01*
X16055695Y-6403492D01*
X16073729Y-6405473D01*
G37*
G36*
X15026944Y-5881624D02*
G01*
X15032024Y-5881624D01*
X15043759Y-5880709D01*
X15048331Y-5879998D01*
X15059964Y-5877204D01*
X15064384Y-5875731D01*
X15075458Y-5871159D01*
X15079573Y-5869076D01*
X15089784Y-5862828D01*
X15093543Y-5860084D01*
X15102636Y-5852312D01*
X15105938Y-5849010D01*
X15113711Y-5839917D01*
X15116454Y-5836158D01*
X15122702Y-5825947D01*
X15124836Y-5821781D01*
X15129408Y-5810758D01*
X15130830Y-5806338D01*
X15133624Y-5794705D01*
X15134336Y-5790082D01*
X15135301Y-5778144D01*
X15135301Y-5773521D01*
X15134336Y-5761583D01*
X15133624Y-5756960D01*
X15130830Y-5745327D01*
X15129408Y-5740908D01*
X15124836Y-5729884D01*
X15122702Y-5725718D01*
X15116454Y-5715508D01*
X15113711Y-5711748D01*
X15105938Y-5702655D01*
X15102636Y-5699353D01*
X15093543Y-5691581D01*
X15089784Y-5688838D01*
X15079573Y-5682589D01*
X15075458Y-5680506D01*
X15064384Y-5675934D01*
X15059964Y-5674461D01*
X15048331Y-5671667D01*
X15043759Y-5670956D01*
X15031821Y-5670042D01*
X15027148Y-5670042D01*
X15015210Y-5670956D01*
X15010638Y-5671667D01*
X14999004Y-5674461D01*
X14994585Y-5675934D01*
X14983510Y-5680506D01*
X14979396Y-5682589D01*
X14969185Y-5688838D01*
X14965426Y-5691581D01*
X14956332Y-5699353D01*
X14953030Y-5702655D01*
X14945258Y-5711748D01*
X14942515Y-5715508D01*
X14936266Y-5725718D01*
X14934133Y-5729884D01*
X14929561Y-5740908D01*
X14928138Y-5745327D01*
X14925344Y-5756960D01*
X14924633Y-5761583D01*
X14923668Y-5773521D01*
X14923668Y-5778144D01*
X14924633Y-5790082D01*
X14925344Y-5794705D01*
X14928138Y-5806338D01*
X14929561Y-5810758D01*
X14934133Y-5821781D01*
X14936266Y-5825947D01*
X14942515Y-5836158D01*
X14945258Y-5839917D01*
X14953030Y-5849010D01*
X14956332Y-5852312D01*
X14965426Y-5860084D01*
X14969185Y-5862828D01*
X14979396Y-5869076D01*
X14983510Y-5871159D01*
X14994585Y-5875731D01*
X14999004Y-5877204D01*
X15010638Y-5879998D01*
X15015210Y-5880709D01*
G37*
G36*
X19548348Y-5881624D02*
G01*
X19553021Y-5881624D01*
X19564959Y-5880709D01*
X19569531Y-5879998D01*
X19581164Y-5877204D01*
X19585584Y-5875731D01*
X19596658Y-5871159D01*
X19600773Y-5869076D01*
X19610984Y-5862828D01*
X19614743Y-5860084D01*
X19623836Y-5852312D01*
X19627138Y-5849010D01*
X19634911Y-5839917D01*
X19637654Y-5836158D01*
X19643902Y-5825947D01*
X19646036Y-5821781D01*
X19650608Y-5810758D01*
X19652030Y-5806338D01*
X19654824Y-5794705D01*
X19655536Y-5790082D01*
X19656501Y-5778144D01*
X19656501Y-5773521D01*
X19655536Y-5761583D01*
X19654824Y-5756960D01*
X19652030Y-5745327D01*
X19650608Y-5740908D01*
X19646036Y-5729884D01*
X19643902Y-5725718D01*
X19637654Y-5715508D01*
X19634911Y-5711748D01*
X19627138Y-5702655D01*
X19623836Y-5699353D01*
X19614743Y-5691581D01*
X19610984Y-5688838D01*
X19600773Y-5682589D01*
X19596658Y-5680506D01*
X19585584Y-5675934D01*
X19581164Y-5674461D01*
X19569531Y-5671667D01*
X19564959Y-5670956D01*
X19553021Y-5670042D01*
X19548348Y-5670042D01*
X19536410Y-5670956D01*
X19531838Y-5671667D01*
X19520204Y-5674461D01*
X19515785Y-5675934D01*
X19504710Y-5680506D01*
X19500596Y-5682589D01*
X19490385Y-5688838D01*
X19486626Y-5691581D01*
X19477532Y-5699353D01*
X19474230Y-5702655D01*
X19466458Y-5711748D01*
X19463715Y-5715508D01*
X19457466Y-5725718D01*
X19455333Y-5729884D01*
X19450761Y-5740908D01*
X19449338Y-5745327D01*
X19446544Y-5756960D01*
X19445833Y-5761583D01*
X19444868Y-5773521D01*
X19444868Y-5778144D01*
X19445833Y-5790082D01*
X19446544Y-5794705D01*
X19449338Y-5806338D01*
X19450761Y-5810758D01*
X19455333Y-5821781D01*
X19457466Y-5825947D01*
X19463715Y-5836158D01*
X19466458Y-5839917D01*
X19474230Y-5849010D01*
X19477532Y-5852312D01*
X19486626Y-5860084D01*
X19490385Y-5862828D01*
X19500596Y-5869076D01*
X19504710Y-5871159D01*
X19515785Y-5875731D01*
X19520204Y-5877204D01*
X19531838Y-5879998D01*
X19536410Y-5880709D01*
G37*
G36*
X18572988Y-5329377D02*
G01*
X18579287Y-5328615D01*
X18584824Y-5326532D01*
X18589701Y-5323179D01*
X18593816Y-5318506D01*
X18595695Y-5315407D01*
X18597880Y-5309565D01*
X18598692Y-5303062D01*
X18598692Y-4831842D01*
X18597880Y-4825339D01*
X18595797Y-4819802D01*
X18592241Y-4814671D01*
X18589193Y-4811623D01*
X18585637Y-4808982D01*
X18580100Y-4806492D01*
X18572632Y-4805324D01*
X15995294Y-4805324D01*
X15988792Y-4806137D01*
X15983254Y-4808220D01*
X15978124Y-4811776D01*
X15975076Y-4814773D01*
X15972434Y-4818380D01*
X15969945Y-4823917D01*
X15968776Y-4831384D01*
X15968776Y-5300522D01*
X15969538Y-5307025D01*
X15971672Y-5312562D01*
X15975177Y-5317693D01*
X15978225Y-5320741D01*
X15981832Y-5323382D01*
X15987369Y-5325872D01*
X15994837Y-5327040D01*
X18559780Y-5327040D01*
X18562980Y-5327548D01*
X18566333Y-5328666D01*
X18569686Y-5329275D01*
G37*
G36*
X14070330Y-4807915D02*
G01*
X14088465Y-4807915D01*
X14109700Y-4805730D01*
X14112900Y-4805222D01*
X14130578Y-4801362D01*
X14133677Y-4800498D01*
X14150898Y-4794707D01*
X14170304Y-4785868D01*
X14173149Y-4784394D01*
X14188694Y-4775047D01*
X14191386Y-4773218D01*
X14205813Y-4762246D01*
X14208251Y-4760163D01*
X14221409Y-4747666D01*
X14223644Y-4745329D01*
X14235379Y-4731512D01*
X14237309Y-4728972D01*
X14247520Y-4713935D01*
X14257680Y-4695190D01*
X14265706Y-4675428D01*
X14266722Y-4672380D01*
X14271599Y-4654905D01*
X14272310Y-4651756D01*
X14275206Y-4633874D01*
X14275562Y-4630674D01*
X14276527Y-4612538D01*
X14276527Y-4609338D01*
X14275562Y-4591202D01*
X14275206Y-4588002D01*
X14272310Y-4570120D01*
X14271599Y-4566970D01*
X14266722Y-4549495D01*
X14265706Y-4546447D01*
X14257680Y-4526686D01*
X14247520Y-4507941D01*
X14237309Y-4492904D01*
X14235379Y-4490364D01*
X14223644Y-4476546D01*
X14221409Y-4474210D01*
X14208251Y-4461713D01*
X14205813Y-4459630D01*
X14191386Y-4448657D01*
X14188694Y-4446828D01*
X14173149Y-4437481D01*
X14153845Y-4428388D01*
X14150898Y-4427169D01*
X14133677Y-4421378D01*
X14130578Y-4420514D01*
X14112900Y-4416653D01*
X14109700Y-4416145D01*
X14088465Y-4413961D01*
X14070330Y-4413961D01*
X14049095Y-4416145D01*
X14045895Y-4416653D01*
X14028216Y-4420514D01*
X14025118Y-4421378D01*
X14007896Y-4427169D01*
X13988491Y-4436008D01*
X13985646Y-4437481D01*
X13970101Y-4446828D01*
X13967409Y-4448657D01*
X13952982Y-4459630D01*
X13950543Y-4461713D01*
X13937386Y-4474210D01*
X13935151Y-4476546D01*
X13923416Y-4490364D01*
X13921486Y-4492904D01*
X13911275Y-4507941D01*
X13909649Y-4510684D01*
X13901166Y-4526686D01*
X13899794Y-4529632D01*
X13893088Y-4546447D01*
X13892072Y-4549495D01*
X13887196Y-4566970D01*
X13886484Y-4570120D01*
X13883589Y-4588002D01*
X13883233Y-4591202D01*
X13882268Y-4609338D01*
X13882268Y-4612538D01*
X13883233Y-4630674D01*
X13883589Y-4633874D01*
X13886484Y-4651756D01*
X13887196Y-4654905D01*
X13892072Y-4672380D01*
X13893088Y-4675428D01*
X13899794Y-4692243D01*
X13901166Y-4695190D01*
X13909649Y-4711192D01*
X13911275Y-4713935D01*
X13921486Y-4728972D01*
X13923416Y-4731512D01*
X13935151Y-4745329D01*
X13937386Y-4747666D01*
X13950543Y-4760163D01*
X13952982Y-4762246D01*
X13967409Y-4773218D01*
X13970101Y-4775047D01*
X13985646Y-4784394D01*
X14004950Y-4793488D01*
X14007896Y-4794707D01*
X14025118Y-4800498D01*
X14028216Y-4801362D01*
X14045895Y-4805222D01*
X14049095Y-4805730D01*
G37*
G36*
X20530159Y-4807915D02*
G01*
X20547939Y-4807915D01*
X20551190Y-4807712D01*
X20569224Y-4805730D01*
X20572374Y-4805222D01*
X20590103Y-4801362D01*
X20593202Y-4800498D01*
X20610372Y-4794707D01*
X20613370Y-4793488D01*
X20632674Y-4784394D01*
X20648218Y-4775047D01*
X20665287Y-4762246D01*
X20667776Y-4760163D01*
X20680934Y-4747666D01*
X20683118Y-4745329D01*
X20696834Y-4728972D01*
X20708670Y-4711192D01*
X20717154Y-4695190D01*
X20718526Y-4692243D01*
X20725231Y-4675428D01*
X20726247Y-4672380D01*
X20731073Y-4654905D01*
X20731784Y-4651756D01*
X20734731Y-4633874D01*
X20735086Y-4630674D01*
X20736052Y-4612538D01*
X20736052Y-4609338D01*
X20735086Y-4591202D01*
X20734731Y-4588002D01*
X20731784Y-4570120D01*
X20731073Y-4566970D01*
X20726247Y-4549495D01*
X20725231Y-4546447D01*
X20718526Y-4529632D01*
X20717154Y-4526686D01*
X20708670Y-4510684D01*
X20696834Y-4492904D01*
X20683118Y-4476546D01*
X20680934Y-4474210D01*
X20667776Y-4461713D01*
X20665287Y-4459630D01*
X20648218Y-4446828D01*
X20632674Y-4437481D01*
X20613370Y-4428388D01*
X20610372Y-4427169D01*
X20593202Y-4421378D01*
X20590103Y-4420514D01*
X20572374Y-4416653D01*
X20569224Y-4416145D01*
X20551190Y-4414164D01*
X20547939Y-4413961D01*
X20529854Y-4413961D01*
X20526603Y-4414164D01*
X20508569Y-4416145D01*
X20505420Y-4416653D01*
X20487690Y-4420514D01*
X20484592Y-4421378D01*
X20467421Y-4427169D01*
X20464424Y-4428388D01*
X20445120Y-4437481D01*
X20429575Y-4446828D01*
X20412506Y-4459630D01*
X20410017Y-4461713D01*
X20396860Y-4474210D01*
X20394676Y-4476546D01*
X20380960Y-4492904D01*
X20369123Y-4510684D01*
X20360640Y-4526686D01*
X20359268Y-4529632D01*
X20352562Y-4546447D01*
X20351546Y-4549495D01*
X20346720Y-4566970D01*
X20346009Y-4570120D01*
X20343063Y-4588002D01*
X20342707Y-4591202D01*
X20341742Y-4609338D01*
X20341742Y-4612538D01*
X20342707Y-4630674D01*
X20343063Y-4633874D01*
X20346009Y-4651756D01*
X20346720Y-4654905D01*
X20351546Y-4672380D01*
X20352562Y-4675428D01*
X20359268Y-4692243D01*
X20360640Y-4695190D01*
X20369123Y-4711192D01*
X20380960Y-4728972D01*
X20394676Y-4745329D01*
X20396860Y-4747666D01*
X20410017Y-4760163D01*
X20412506Y-4762246D01*
X20429575Y-4775047D01*
X20445120Y-4784394D01*
X20464424Y-4793488D01*
X20467421Y-4794707D01*
X20484592Y-4800498D01*
X20487690Y-4801362D01*
X20505420Y-4805222D01*
X20508569Y-4805730D01*
X20526298Y-4807661D01*
G37*
G36*
X16364864Y-4414672D02*
G01*
X16382644Y-4414672D01*
X16403878Y-4412488D01*
X16407079Y-4411980D01*
X16424757Y-4408119D01*
X16427856Y-4407255D01*
X16445077Y-4401464D01*
X16464483Y-4392625D01*
X16467328Y-4391152D01*
X16482872Y-4381804D01*
X16485565Y-4379976D01*
X16499992Y-4369003D01*
X16502430Y-4366920D01*
X16515588Y-4354423D01*
X16517823Y-4352086D01*
X16529557Y-4338269D01*
X16531488Y-4335729D01*
X16541699Y-4320692D01*
X16551859Y-4301947D01*
X16559885Y-4282186D01*
X16560901Y-4279138D01*
X16565778Y-4261662D01*
X16566489Y-4258513D01*
X16569385Y-4240631D01*
X16569740Y-4237431D01*
X16570706Y-4219295D01*
X16570706Y-4216095D01*
X16569740Y-4197959D01*
X16569385Y-4194759D01*
X16566489Y-4176877D01*
X16565778Y-4173728D01*
X16560901Y-4156252D01*
X16559885Y-4153204D01*
X16551859Y-4133443D01*
X16541699Y-4114698D01*
X16531488Y-4099661D01*
X16529557Y-4097121D01*
X16517823Y-4083304D01*
X16515588Y-4080967D01*
X16502430Y-4068470D01*
X16499992Y-4066387D01*
X16485565Y-4055414D01*
X16482872Y-4053586D01*
X16467328Y-4044238D01*
X16448024Y-4035145D01*
X16445077Y-4033926D01*
X16427856Y-4028135D01*
X16424757Y-4027271D01*
X16407079Y-4023410D01*
X16403878Y-4022902D01*
X16382644Y-4020718D01*
X16364508Y-4020718D01*
X16343274Y-4022902D01*
X16340074Y-4023410D01*
X16322395Y-4027271D01*
X16319296Y-4028135D01*
X16302075Y-4033926D01*
X16282669Y-4042765D01*
X16279825Y-4044238D01*
X16264280Y-4053586D01*
X16261588Y-4055414D01*
X16247160Y-4066387D01*
X16244722Y-4068470D01*
X16231565Y-4080967D01*
X16229330Y-4083304D01*
X16217595Y-4097121D01*
X16215664Y-4099661D01*
X16205454Y-4114698D01*
X16203828Y-4117441D01*
X16195344Y-4133443D01*
X16193973Y-4136390D01*
X16187267Y-4153204D01*
X16186251Y-4156252D01*
X16181374Y-4173728D01*
X16180663Y-4176877D01*
X16177768Y-4194759D01*
X16177412Y-4197959D01*
X16176447Y-4216095D01*
X16176447Y-4219295D01*
X16177412Y-4237431D01*
X16177768Y-4240631D01*
X16180663Y-4258513D01*
X16181374Y-4261662D01*
X16186251Y-4279138D01*
X16187267Y-4282186D01*
X16193973Y-4299000D01*
X16195344Y-4301947D01*
X16203828Y-4317949D01*
X16205454Y-4320692D01*
X16215664Y-4335729D01*
X16217595Y-4338269D01*
X16229330Y-4352086D01*
X16231565Y-4354423D01*
X16244722Y-4366920D01*
X16247160Y-4369003D01*
X16261588Y-4379976D01*
X16264280Y-4381804D01*
X16279825Y-4391152D01*
X16299129Y-4400245D01*
X16302075Y-4401464D01*
X16319296Y-4407255D01*
X16322395Y-4408119D01*
X16340074Y-4411980D01*
X16343274Y-4412488D01*
X16360952Y-4414418D01*
G37*
G36*
X18167908Y-4414672D02*
G01*
X18186044Y-4414672D01*
X18207278Y-4412488D01*
X18210479Y-4411980D01*
X18228157Y-4408119D01*
X18231256Y-4407255D01*
X18248477Y-4401464D01*
X18267883Y-4392625D01*
X18270728Y-4391152D01*
X18286272Y-4381804D01*
X18288965Y-4379976D01*
X18303392Y-4369003D01*
X18305830Y-4366920D01*
X18318988Y-4354423D01*
X18321223Y-4352086D01*
X18332958Y-4338269D01*
X18334888Y-4335729D01*
X18345099Y-4320692D01*
X18355259Y-4301947D01*
X18363285Y-4282186D01*
X18364301Y-4279138D01*
X18369178Y-4261662D01*
X18369889Y-4258513D01*
X18372785Y-4240631D01*
X18373140Y-4237431D01*
X18374106Y-4219295D01*
X18374106Y-4216095D01*
X18373140Y-4197959D01*
X18372785Y-4194759D01*
X18369889Y-4176877D01*
X18369178Y-4173728D01*
X18364301Y-4156252D01*
X18363285Y-4153204D01*
X18355259Y-4133443D01*
X18345099Y-4114698D01*
X18334888Y-4099661D01*
X18332958Y-4097121D01*
X18321223Y-4083304D01*
X18318988Y-4080967D01*
X18305830Y-4068470D01*
X18303392Y-4066387D01*
X18288965Y-4055414D01*
X18286272Y-4053586D01*
X18270728Y-4044238D01*
X18251424Y-4035145D01*
X18248477Y-4033926D01*
X18231256Y-4028135D01*
X18228157Y-4027271D01*
X18210479Y-4023410D01*
X18207278Y-4022902D01*
X18186044Y-4020718D01*
X18167908Y-4020718D01*
X18146674Y-4022902D01*
X18143474Y-4023410D01*
X18125795Y-4027271D01*
X18122696Y-4028135D01*
X18105475Y-4033926D01*
X18086070Y-4042765D01*
X18083225Y-4044238D01*
X18067680Y-4053586D01*
X18064988Y-4055414D01*
X18050560Y-4066387D01*
X18048122Y-4068470D01*
X18034965Y-4080967D01*
X18032730Y-4083304D01*
X18020995Y-4097121D01*
X18019064Y-4099661D01*
X18008854Y-4114698D01*
X18007228Y-4117441D01*
X17998744Y-4133443D01*
X17997373Y-4136390D01*
X17990667Y-4153204D01*
X17989651Y-4156252D01*
X17984774Y-4173728D01*
X17984063Y-4176877D01*
X17981168Y-4194759D01*
X17980812Y-4197959D01*
X17979847Y-4216095D01*
X17979847Y-4219295D01*
X17980812Y-4237431D01*
X17981168Y-4240631D01*
X17984063Y-4258513D01*
X17984774Y-4261662D01*
X17989651Y-4279138D01*
X17990667Y-4282186D01*
X17997373Y-4299000D01*
X17998744Y-4301947D01*
X18007228Y-4317949D01*
X18008854Y-4320692D01*
X18019064Y-4335729D01*
X18020995Y-4338269D01*
X18032730Y-4352086D01*
X18034965Y-4354423D01*
X18048122Y-4366920D01*
X18050560Y-4369003D01*
X18064988Y-4379976D01*
X18067680Y-4381804D01*
X18083225Y-4391152D01*
X18102529Y-4400245D01*
X18105475Y-4401464D01*
X18122696Y-4407255D01*
X18125795Y-4408119D01*
X18143474Y-4411980D01*
X18146674Y-4412488D01*
G37*
G36*
X14276171Y-4412081D02*
G01*
X14294205Y-4412081D01*
X14315287Y-4409948D01*
X14318488Y-4409440D01*
X14336013Y-4405528D01*
X14339112Y-4404664D01*
X14356181Y-4398924D01*
X14359178Y-4397756D01*
X14378330Y-4388713D01*
X14393773Y-4379417D01*
X14410740Y-4366717D01*
X14413230Y-4364634D01*
X14426285Y-4352239D01*
X14440154Y-4336186D01*
X14442084Y-4333646D01*
X14452193Y-4318762D01*
X14453819Y-4316018D01*
X14462251Y-4300118D01*
X14463623Y-4297172D01*
X14470278Y-4280458D01*
X14471294Y-4277410D01*
X14476120Y-4260088D01*
X14476831Y-4256938D01*
X14479727Y-4239158D01*
X14480082Y-4235958D01*
X14481048Y-4218025D01*
X14481048Y-4214774D01*
X14480082Y-4196842D01*
X14479727Y-4193641D01*
X14476831Y-4175861D01*
X14476120Y-4172712D01*
X14471294Y-4155389D01*
X14470278Y-4152341D01*
X14463623Y-4135628D01*
X14462251Y-4132681D01*
X14453819Y-4116781D01*
X14452193Y-4114037D01*
X14442084Y-4099153D01*
X14440154Y-4096613D01*
X14426285Y-4080560D01*
X14413230Y-4068165D01*
X14410740Y-4066082D01*
X14393773Y-4053382D01*
X14378330Y-4044086D01*
X14359178Y-4035044D01*
X14356181Y-4033875D01*
X14339112Y-4028135D01*
X14336013Y-4027271D01*
X14318488Y-4023360D01*
X14315287Y-4022851D01*
X14294205Y-4020718D01*
X14276171Y-4020718D01*
X14255089Y-4022851D01*
X14251940Y-4023360D01*
X14234363Y-4027271D01*
X14231264Y-4028135D01*
X14214195Y-4033875D01*
X14211198Y-4035044D01*
X14192046Y-4044086D01*
X14176603Y-4053382D01*
X14159636Y-4066082D01*
X14157147Y-4068165D01*
X14144091Y-4080560D01*
X14130223Y-4096613D01*
X14128292Y-4099153D01*
X14118183Y-4114037D01*
X14116557Y-4116781D01*
X14108125Y-4132681D01*
X14106753Y-4135628D01*
X14100098Y-4152341D01*
X14099082Y-4155389D01*
X14094256Y-4172712D01*
X14093545Y-4175861D01*
X14090650Y-4193641D01*
X14090294Y-4196842D01*
X14089329Y-4214774D01*
X14089329Y-4218025D01*
X14090294Y-4235958D01*
X14090650Y-4239158D01*
X14093545Y-4256938D01*
X14094256Y-4260088D01*
X14099082Y-4277410D01*
X14100098Y-4280458D01*
X14106753Y-4297172D01*
X14108125Y-4300118D01*
X14116557Y-4316018D01*
X14118183Y-4318762D01*
X14128292Y-4333646D01*
X14130223Y-4336186D01*
X14144091Y-4352239D01*
X14157147Y-4364634D01*
X14159636Y-4366717D01*
X14176603Y-4379417D01*
X14192046Y-4388713D01*
X14211198Y-4397756D01*
X14214195Y-4398924D01*
X14231264Y-4404664D01*
X14234363Y-4405528D01*
X14251940Y-4409440D01*
X14255089Y-4409948D01*
G37*
G36*
X20294498Y-4412081D02*
G01*
X20312481Y-4412081D01*
X20333614Y-4409948D01*
X20336764Y-4409440D01*
X20354340Y-4405528D01*
X20357439Y-4404664D01*
X20374508Y-4398924D01*
X20377454Y-4397756D01*
X20396657Y-4388713D01*
X20412049Y-4379417D01*
X20414742Y-4377588D01*
X20429067Y-4366717D01*
X20431506Y-4364634D01*
X20444561Y-4352239D01*
X20446796Y-4349902D01*
X20458430Y-4336186D01*
X20460360Y-4333646D01*
X20470469Y-4318762D01*
X20472146Y-4316018D01*
X20480578Y-4300118D01*
X20488605Y-4280458D01*
X20489621Y-4277410D01*
X20494447Y-4260088D01*
X20498003Y-4239158D01*
X20498358Y-4235958D01*
X20499324Y-4218025D01*
X20499324Y-4214774D01*
X20498358Y-4196842D01*
X20498003Y-4193641D01*
X20494447Y-4172712D01*
X20489621Y-4155389D01*
X20488605Y-4152341D01*
X20480578Y-4132681D01*
X20472146Y-4116781D01*
X20470469Y-4114037D01*
X20460360Y-4099153D01*
X20458430Y-4096613D01*
X20446796Y-4082897D01*
X20444561Y-4080560D01*
X20431506Y-4068165D01*
X20429067Y-4066082D01*
X20414742Y-4055211D01*
X20412049Y-4053382D01*
X20396657Y-4044086D01*
X20377454Y-4035044D01*
X20374508Y-4033875D01*
X20357439Y-4028135D01*
X20354340Y-4027271D01*
X20336764Y-4023360D01*
X20333614Y-4022851D01*
X20312481Y-4020718D01*
X20294498Y-4020718D01*
X20273416Y-4022851D01*
X20270216Y-4023360D01*
X20252639Y-4027271D01*
X20249540Y-4028135D01*
X20232471Y-4033875D01*
X20229525Y-4035044D01*
X20210322Y-4044086D01*
X20194930Y-4053382D01*
X20192238Y-4055211D01*
X20177912Y-4066082D01*
X20175474Y-4068165D01*
X20162418Y-4080560D01*
X20160183Y-4082897D01*
X20148550Y-4096613D01*
X20146619Y-4099153D01*
X20136510Y-4114037D01*
X20134834Y-4116781D01*
X20126401Y-4132681D01*
X20118374Y-4152341D01*
X20117358Y-4155389D01*
X20112532Y-4172712D01*
X20108976Y-4193641D01*
X20108621Y-4196842D01*
X20107656Y-4214774D01*
X20107656Y-4218025D01*
X20108621Y-4235958D01*
X20108976Y-4239158D01*
X20112532Y-4260088D01*
X20117358Y-4277410D01*
X20118374Y-4280458D01*
X20126401Y-4300118D01*
X20134834Y-4316018D01*
X20136510Y-4318762D01*
X20146619Y-4333646D01*
X20148550Y-4336186D01*
X20160183Y-4349902D01*
X20162418Y-4352239D01*
X20175474Y-4364634D01*
X20177912Y-4366717D01*
X20192238Y-4377588D01*
X20194930Y-4379417D01*
X20210322Y-4388713D01*
X20229525Y-4397756D01*
X20232471Y-4398924D01*
X20249540Y-4404664D01*
X20252639Y-4405528D01*
X20270216Y-4409440D01*
X20273416Y-4409948D01*
G37*
G36*
X16908119Y-3861308D02*
G01*
X17681600Y-3861308D01*
X17688102Y-3860495D01*
X17693640Y-3858412D01*
X17698770Y-3854856D01*
X17701818Y-3851859D01*
X17704460Y-3848252D01*
X17706949Y-3842715D01*
X17708118Y-3835247D01*
X17708118Y-3620109D01*
X17707305Y-3613607D01*
X17705222Y-3608070D01*
X17701666Y-3602939D01*
X17698669Y-3599891D01*
X17695062Y-3597249D01*
X17689525Y-3594760D01*
X17682057Y-3593592D01*
X16908119Y-3593592D01*
X16901617Y-3594404D01*
X16896080Y-3596487D01*
X16890949Y-3600043D01*
X16887901Y-3603040D01*
X16885259Y-3606647D01*
X16882770Y-3612184D01*
X16881602Y-3619652D01*
X16881602Y-3834790D01*
X16882414Y-3841292D01*
X16884497Y-3846829D01*
X16888053Y-3851960D01*
X16890949Y-3854856D01*
X16896080Y-3858412D01*
X16901617Y-3860495D01*
G37*
G36*
X16379342Y-3598976D02*
G01*
X16397427Y-3598976D01*
X16400678Y-3598773D01*
X16418712Y-3596792D01*
X16421862Y-3596284D01*
X16439591Y-3592423D01*
X16442690Y-3591560D01*
X16459860Y-3585768D01*
X16462857Y-3584549D01*
X16482161Y-3575456D01*
X16497706Y-3566109D01*
X16514775Y-3553307D01*
X16517264Y-3551224D01*
X16530421Y-3538728D01*
X16532606Y-3536391D01*
X16546322Y-3520033D01*
X16558158Y-3502253D01*
X16566642Y-3486251D01*
X16568013Y-3483305D01*
X16574719Y-3466490D01*
X16575735Y-3463442D01*
X16580561Y-3445967D01*
X16581272Y-3442817D01*
X16584218Y-3424936D01*
X16584574Y-3421735D01*
X16585539Y-3403600D01*
X16585539Y-3400399D01*
X16584574Y-3382264D01*
X16584218Y-3379063D01*
X16581272Y-3361182D01*
X16580561Y-3358032D01*
X16575735Y-3340557D01*
X16574719Y-3337509D01*
X16568013Y-3320694D01*
X16566642Y-3317748D01*
X16558158Y-3301746D01*
X16546322Y-3283965D01*
X16532606Y-3267608D01*
X16530421Y-3265271D01*
X16517264Y-3252774D01*
X16514775Y-3250692D01*
X16497706Y-3237890D01*
X16482161Y-3228543D01*
X16462857Y-3219450D01*
X16459860Y-3218230D01*
X16442690Y-3212439D01*
X16439591Y-3211576D01*
X16421862Y-3207715D01*
X16418712Y-3207207D01*
X16400678Y-3205226D01*
X16397427Y-3205022D01*
X16379342Y-3205022D01*
X16376091Y-3205226D01*
X16358057Y-3207207D01*
X16354907Y-3207715D01*
X16337178Y-3211576D01*
X16334079Y-3212439D01*
X16316909Y-3218230D01*
X16313912Y-3219450D01*
X16294607Y-3228543D01*
X16279063Y-3237890D01*
X16261994Y-3250692D01*
X16259505Y-3252774D01*
X16246348Y-3265271D01*
X16244163Y-3267608D01*
X16230447Y-3283965D01*
X16218611Y-3301746D01*
X16210127Y-3317748D01*
X16208756Y-3320694D01*
X16202050Y-3337509D01*
X16201034Y-3340557D01*
X16196208Y-3358032D01*
X16195497Y-3361182D01*
X16192550Y-3379063D01*
X16192195Y-3382264D01*
X16191230Y-3400399D01*
X16191230Y-3403600D01*
X16192195Y-3421735D01*
X16192550Y-3424936D01*
X16195497Y-3442817D01*
X16196208Y-3445967D01*
X16201034Y-3463442D01*
X16202050Y-3466490D01*
X16208756Y-3483305D01*
X16210127Y-3486251D01*
X16218611Y-3502253D01*
X16230447Y-3520033D01*
X16244163Y-3536391D01*
X16246348Y-3538728D01*
X16259505Y-3551224D01*
X16261994Y-3553307D01*
X16279063Y-3566109D01*
X16294607Y-3575456D01*
X16313912Y-3584549D01*
X16316909Y-3585768D01*
X16334079Y-3591560D01*
X16337178Y-3592423D01*
X16354907Y-3596284D01*
X16358057Y-3596792D01*
X16376091Y-3598773D01*
G37*
G36*
X18199658Y-3598976D02*
G01*
X18217438Y-3598976D01*
X18238673Y-3596792D01*
X18241873Y-3596284D01*
X18259552Y-3592423D01*
X18262650Y-3591560D01*
X18279872Y-3585768D01*
X18299277Y-3576929D01*
X18302122Y-3575456D01*
X18317667Y-3566109D01*
X18320359Y-3564280D01*
X18334786Y-3553307D01*
X18337225Y-3551224D01*
X18350382Y-3538728D01*
X18352617Y-3536391D01*
X18364352Y-3522573D01*
X18366282Y-3520033D01*
X18376493Y-3504996D01*
X18386653Y-3486251D01*
X18394680Y-3466490D01*
X18395696Y-3463442D01*
X18400572Y-3445967D01*
X18401284Y-3442817D01*
X18404179Y-3424936D01*
X18404535Y-3421735D01*
X18405500Y-3403600D01*
X18405500Y-3400399D01*
X18404535Y-3382264D01*
X18404179Y-3379063D01*
X18401284Y-3361182D01*
X18400572Y-3358032D01*
X18395696Y-3340557D01*
X18394680Y-3337509D01*
X18386653Y-3317748D01*
X18376493Y-3299002D01*
X18366282Y-3283965D01*
X18364352Y-3281426D01*
X18352617Y-3267608D01*
X18350382Y-3265271D01*
X18337225Y-3252774D01*
X18334786Y-3250692D01*
X18320359Y-3239719D01*
X18317667Y-3237890D01*
X18302122Y-3228543D01*
X18282818Y-3219450D01*
X18279872Y-3218230D01*
X18262650Y-3212439D01*
X18259552Y-3211576D01*
X18241873Y-3207715D01*
X18238673Y-3207207D01*
X18217438Y-3205022D01*
X18199303Y-3205022D01*
X18178068Y-3207207D01*
X18174868Y-3207715D01*
X18157190Y-3211576D01*
X18154091Y-3212439D01*
X18136870Y-3218230D01*
X18117464Y-3227070D01*
X18114619Y-3228543D01*
X18099074Y-3237890D01*
X18096382Y-3239719D01*
X18081955Y-3250692D01*
X18079516Y-3252774D01*
X18066359Y-3265271D01*
X18064124Y-3267608D01*
X18052389Y-3281426D01*
X18050459Y-3283965D01*
X18040248Y-3299002D01*
X18038622Y-3301746D01*
X18030139Y-3317748D01*
X18028767Y-3320694D01*
X18022062Y-3337509D01*
X18021046Y-3340557D01*
X18016169Y-3358032D01*
X18015458Y-3361182D01*
X18012562Y-3379063D01*
X18012206Y-3382264D01*
X18011241Y-3400399D01*
X18011241Y-3403600D01*
X18012206Y-3421735D01*
X18012562Y-3424936D01*
X18015458Y-3442817D01*
X18016169Y-3445967D01*
X18021046Y-3463442D01*
X18022062Y-3466490D01*
X18028767Y-3483305D01*
X18030139Y-3486251D01*
X18038622Y-3502253D01*
X18040248Y-3504996D01*
X18050459Y-3520033D01*
X18052389Y-3522573D01*
X18064124Y-3536391D01*
X18066359Y-3538728D01*
X18079516Y-3551224D01*
X18081955Y-3553307D01*
X18096382Y-3564280D01*
X18099074Y-3566109D01*
X18114619Y-3575456D01*
X18133923Y-3584549D01*
X18136870Y-3585768D01*
X18154091Y-3591560D01*
X18157190Y-3592423D01*
X18174868Y-3596284D01*
X18178068Y-3596792D01*
X18195747Y-3598722D01*
G37*

%LPD*%
G36*
X29768698Y-12936982D02*
G01*
X29668520Y-12935966D01*
X29568394Y-12932918D01*
X29468368Y-12927888D01*
X29368445Y-12920827D01*
X29268674Y-12911785D01*
X29169156Y-12900710D01*
X29069842Y-12887604D01*
X28970782Y-12872567D01*
X28872078Y-12855498D01*
X28773780Y-12836448D01*
X28675838Y-12815417D01*
X28578302Y-12792405D01*
X28481324Y-12767462D01*
X28384804Y-12740589D01*
X28288894Y-12711734D01*
X28193593Y-12680950D01*
X28098902Y-12648285D01*
X28004871Y-12613690D01*
X27911552Y-12577267D01*
X27819045Y-12538913D01*
X27727300Y-12498730D01*
X27636368Y-12456668D01*
X27546300Y-12412827D01*
X27457146Y-12367158D01*
X27368906Y-12319762D01*
X27281682Y-12270536D01*
X27195424Y-12219584D01*
X27110232Y-12166904D01*
X27026108Y-12112498D01*
X26943100Y-12056414D01*
X26861262Y-11998706D01*
X26780591Y-11939320D01*
X26701089Y-11878360D01*
X26622908Y-11815775D01*
X26545946Y-11751665D01*
X26470305Y-11685981D01*
X26395984Y-11618823D01*
X26323036Y-11550142D01*
X26251509Y-11480038D01*
X26181405Y-11408511D01*
X26112774Y-11335562D01*
X26045566Y-11261242D01*
X25979932Y-11185601D01*
X25915772Y-11108639D01*
X25853237Y-11030407D01*
X25792226Y-10950956D01*
X25732892Y-10870285D01*
X25675132Y-10788396D01*
X25619100Y-10705388D01*
X25564693Y-10621264D01*
X25512014Y-10536072D01*
X25461061Y-10449864D01*
X25411887Y-10362590D01*
X25364440Y-10274401D01*
X25318770Y-10185196D01*
X25274930Y-10095179D01*
X25232918Y-10004247D01*
X25192685Y-9912502D01*
X25154382Y-9819944D01*
X25117907Y-9726625D01*
X25083363Y-9632645D01*
X25050648Y-9537954D01*
X25019914Y-9442602D01*
X24991060Y-9346692D01*
X24964186Y-9250172D01*
X24939244Y-9153194D01*
X24916231Y-9055658D01*
X24895200Y-8957767D01*
X24876201Y-8859418D01*
X24859132Y-8760714D01*
X24844044Y-8661654D01*
X24830989Y-8562340D01*
X24819914Y-8462822D01*
X24810821Y-8363051D01*
X24803811Y-8263128D01*
X24798731Y-8163102D01*
X24795734Y-8062975D01*
X24794718Y-7962798D01*
X24795734Y-7862620D01*
X24798782Y-7762494D01*
X24803811Y-7662468D01*
X24810872Y-7562545D01*
X24819914Y-7462774D01*
X24830989Y-7363256D01*
X24844095Y-7263942D01*
X24859132Y-7164882D01*
X24876201Y-7066178D01*
X24895251Y-6967880D01*
X24916282Y-6869938D01*
X24939294Y-6772402D01*
X24964237Y-6675424D01*
X24991110Y-6578904D01*
X25019965Y-6482994D01*
X25050750Y-6387693D01*
X25083414Y-6293002D01*
X25118009Y-6198971D01*
X25154432Y-6105652D01*
X25192786Y-6013145D01*
X25232969Y-5921400D01*
X25275032Y-5830468D01*
X25318872Y-5740400D01*
X25364541Y-5651246D01*
X25411938Y-5563006D01*
X25461163Y-5475782D01*
X25512115Y-5389524D01*
X25564795Y-5304332D01*
X25619202Y-5220208D01*
X25675285Y-5137200D01*
X25732994Y-5055362D01*
X25792379Y-4974691D01*
X25853339Y-4895189D01*
X25915924Y-4817008D01*
X25980034Y-4740046D01*
X26045718Y-4664405D01*
X26112876Y-4590084D01*
X26181558Y-4517136D01*
X26251662Y-4445609D01*
X26323188Y-4375505D01*
X26396137Y-4306874D01*
X26470457Y-4239666D01*
X26546098Y-4174032D01*
X26623060Y-4109872D01*
X26701292Y-4047337D01*
X26780744Y-3986326D01*
X26861414Y-3926992D01*
X26943303Y-3869232D01*
X27026311Y-3813200D01*
X27110436Y-3758793D01*
X27195627Y-3706114D01*
X27281835Y-3655161D01*
X27369109Y-3605987D01*
X27457298Y-3558540D01*
X27546503Y-3512870D01*
X27636520Y-3469030D01*
X27727452Y-3427018D01*
X27819197Y-3386785D01*
X27911755Y-3348482D01*
X28005074Y-3312007D01*
X28099054Y-3277463D01*
X28193746Y-3244748D01*
X28289097Y-3214014D01*
X28385008Y-3185160D01*
X28481527Y-3158286D01*
X28578505Y-3133344D01*
X28676041Y-3110331D01*
X28773932Y-3089300D01*
X28872281Y-3070301D01*
X28970986Y-3053232D01*
X29070046Y-3038144D01*
X29169360Y-3025089D01*
X29268877Y-3014014D01*
X29368648Y-3004921D01*
X29468572Y-2997911D01*
X29568597Y-2992831D01*
X29668724Y-2989834D01*
X29768901Y-2988818D01*
X29869079Y-2989834D01*
X29969206Y-2992882D01*
X30069231Y-2997911D01*
X30169154Y-3004972D01*
X30268926Y-3014014D01*
X30368443Y-3025089D01*
X30467757Y-3038195D01*
X30566817Y-3053232D01*
X30665521Y-3070301D01*
X30763819Y-3089351D01*
X30861762Y-3110382D01*
X30959298Y-3133394D01*
X31056275Y-3158337D01*
X31152795Y-3185210D01*
X31248705Y-3214065D01*
X31344006Y-3244850D01*
X31438697Y-3277514D01*
X31532728Y-3312109D01*
X31626048Y-3348532D01*
X31718554Y-3386886D01*
X31810299Y-3427069D01*
X31901231Y-3469132D01*
X31991300Y-3512972D01*
X32080453Y-3558641D01*
X32168693Y-3606037D01*
X32255917Y-3655263D01*
X32342175Y-3706215D01*
X32427367Y-3758895D01*
X32511492Y-3813301D01*
X32594499Y-3869385D01*
X32676338Y-3927094D01*
X32757008Y-3986479D01*
X32836510Y-4047439D01*
X32914691Y-4110024D01*
X32991653Y-4174134D01*
X33067294Y-4239818D01*
X33141615Y-4306976D01*
X33214564Y-4375658D01*
X33286090Y-4445762D01*
X33356194Y-4517288D01*
X33424825Y-4590237D01*
X33492033Y-4664557D01*
X33557667Y-4740198D01*
X33621827Y-4817160D01*
X33684362Y-4895392D01*
X33745373Y-4974844D01*
X33804707Y-5055514D01*
X33862467Y-5137404D01*
X33918499Y-5220411D01*
X33972906Y-5304536D01*
X34025586Y-5389727D01*
X34076538Y-5475935D01*
X34125712Y-5563209D01*
X34173160Y-5651398D01*
X34218829Y-5740603D01*
X34262669Y-5830620D01*
X34304681Y-5921552D01*
X34344914Y-6013297D01*
X34383218Y-6105855D01*
X34419692Y-6199174D01*
X34454236Y-6293154D01*
X34486951Y-6387846D01*
X34517685Y-6483197D01*
X34546540Y-6579108D01*
X34573413Y-6675628D01*
X34598356Y-6772605D01*
X34621368Y-6870141D01*
X34642399Y-6968032D01*
X34661398Y-7066381D01*
X34678467Y-7165086D01*
X34693555Y-7264146D01*
X34706610Y-7363459D01*
X34717685Y-7462977D01*
X34726778Y-7562748D01*
X34733788Y-7662672D01*
X34738868Y-7762697D01*
X34741866Y-7862824D01*
X34742882Y-7963001D01*
X34741866Y-8063179D01*
X34738818Y-8163306D01*
X34733788Y-8263331D01*
X34726727Y-8363254D01*
X34717685Y-8463026D01*
X34706610Y-8562543D01*
X34693504Y-8661857D01*
X34678467Y-8760917D01*
X34661398Y-8859621D01*
X34642348Y-8957919D01*
X34621317Y-9055862D01*
X34598305Y-9153398D01*
X34573362Y-9250375D01*
X34546489Y-9346895D01*
X34517634Y-9442805D01*
X34486850Y-9538106D01*
X34454185Y-9632797D01*
X34419590Y-9726828D01*
X34383167Y-9820148D01*
X34344813Y-9912654D01*
X34304630Y-10004399D01*
X34262568Y-10095331D01*
X34218727Y-10185400D01*
X34173058Y-10274554D01*
X34125662Y-10362793D01*
X34076436Y-10450017D01*
X34025484Y-10536275D01*
X33972804Y-10621467D01*
X33918398Y-10705592D01*
X33862314Y-10788599D01*
X33804606Y-10870438D01*
X33745220Y-10951108D01*
X33684260Y-11030610D01*
X33621675Y-11108791D01*
X33557565Y-11185753D01*
X33491881Y-11261394D01*
X33424723Y-11335715D01*
X33356042Y-11408664D01*
X33285938Y-11480190D01*
X33214411Y-11550294D01*
X33141462Y-11618925D01*
X33067142Y-11686133D01*
X32991501Y-11751767D01*
X32914539Y-11815927D01*
X32836307Y-11878462D01*
X32756856Y-11939473D01*
X32676185Y-11998807D01*
X32594296Y-12056567D01*
X32511288Y-12112599D01*
X32427164Y-12167006D01*
X32341972Y-12219686D01*
X32255764Y-12270638D01*
X32168490Y-12319812D01*
X32080301Y-12367260D01*
X31991096Y-12412929D01*
X31901079Y-12456769D01*
X31810147Y-12498781D01*
X31718402Y-12539014D01*
X31625844Y-12577318D01*
X31532525Y-12613792D01*
X31438545Y-12648336D01*
X31343853Y-12681051D01*
X31248502Y-12711785D01*
X31152592Y-12740640D01*
X31056072Y-12767513D01*
X30959094Y-12792456D01*
X30861558Y-12815468D01*
X30763667Y-12836499D01*
X30665318Y-12855498D01*
X30566614Y-12872567D01*
X30467553Y-12887655D01*
X30368239Y-12900710D01*
X30268722Y-12911785D01*
X30168951Y-12920878D01*
X30069027Y-12927888D01*
X29969002Y-12932968D01*
X29868876Y-12935966D01*
G37*

%LPC*%
G36*
X29716374Y-12592151D02*
G01*
X29734459Y-12592151D01*
X29737710Y-12591999D01*
X29755744Y-12590018D01*
X29758894Y-12589510D01*
X29776623Y-12585598D01*
X29779722Y-12584734D01*
X29799889Y-12577775D01*
X29816348Y-12570155D01*
X29819193Y-12568631D01*
X29834738Y-12559284D01*
X29851807Y-12546482D01*
X29854296Y-12544399D01*
X29867453Y-12531953D01*
X29869638Y-12529616D01*
X29881372Y-12515799D01*
X29883353Y-12513208D01*
X29893514Y-12498222D01*
X29895190Y-12495479D01*
X29905045Y-12476530D01*
X29911751Y-12459665D01*
X29912767Y-12456617D01*
X29917593Y-12439142D01*
X29918304Y-12435992D01*
X29921250Y-12418110D01*
X29921606Y-12414910D01*
X29922571Y-12396825D01*
X29922571Y-12393574D01*
X29921606Y-12375489D01*
X29921250Y-12372289D01*
X29918304Y-12354407D01*
X29917593Y-12351258D01*
X29912767Y-12333782D01*
X29911751Y-12330734D01*
X29905045Y-12313869D01*
X29895190Y-12294920D01*
X29893514Y-12292177D01*
X29883353Y-12277191D01*
X29881372Y-12274600D01*
X29869638Y-12260783D01*
X29867453Y-12258446D01*
X29854296Y-12246000D01*
X29851807Y-12243917D01*
X29834738Y-12231116D01*
X29819193Y-12221768D01*
X29816348Y-12220244D01*
X29799889Y-12212624D01*
X29779722Y-12205665D01*
X29776623Y-12204801D01*
X29758894Y-12200890D01*
X29755744Y-12200382D01*
X29737710Y-12198400D01*
X29734459Y-12198248D01*
X29716374Y-12198248D01*
X29713123Y-12198400D01*
X29695089Y-12200382D01*
X29691939Y-12200890D01*
X29674210Y-12204801D01*
X29671111Y-12205665D01*
X29650944Y-12212624D01*
X29634484Y-12220244D01*
X29631639Y-12221768D01*
X29616095Y-12231116D01*
X29599026Y-12243917D01*
X29596537Y-12246000D01*
X29583380Y-12258446D01*
X29581195Y-12260783D01*
X29569460Y-12274600D01*
X29567479Y-12277191D01*
X29557319Y-12292177D01*
X29555643Y-12294920D01*
X29545788Y-12313869D01*
X29539082Y-12330734D01*
X29538066Y-12333782D01*
X29533240Y-12351258D01*
X29532529Y-12354407D01*
X29529582Y-12372289D01*
X29529227Y-12375489D01*
X29528262Y-12393574D01*
X29528262Y-12396825D01*
X29529227Y-12414910D01*
X29529582Y-12418110D01*
X29532529Y-12435992D01*
X29533240Y-12439142D01*
X29538066Y-12456617D01*
X29539082Y-12459665D01*
X29545788Y-12476530D01*
X29555643Y-12495479D01*
X29557319Y-12498222D01*
X29567479Y-12513208D01*
X29569460Y-12515799D01*
X29581195Y-12529616D01*
X29583380Y-12531953D01*
X29596537Y-12544399D01*
X29599026Y-12546482D01*
X29616095Y-12559284D01*
X29631639Y-12568631D01*
X29634484Y-12570155D01*
X29650944Y-12577775D01*
X29671111Y-12584734D01*
X29674210Y-12585598D01*
X29691939Y-12589510D01*
X29695089Y-12590018D01*
X29713123Y-12591999D01*
G37*
G36*
X27624074Y-12109602D02*
G01*
X27642159Y-12109602D01*
X27645410Y-12109399D01*
X27663444Y-12107418D01*
X27666594Y-12106910D01*
X27684323Y-12103049D01*
X27687422Y-12102185D01*
X27704592Y-12096394D01*
X27707589Y-12095175D01*
X27726894Y-12086082D01*
X27742438Y-12076734D01*
X27759507Y-12063933D01*
X27761996Y-12061850D01*
X27775153Y-12049353D01*
X27777338Y-12047016D01*
X27791054Y-12030659D01*
X27802890Y-12012879D01*
X27811374Y-11996877D01*
X27812746Y-11993930D01*
X27819451Y-11977116D01*
X27820467Y-11974068D01*
X27825293Y-11956592D01*
X27826004Y-11953443D01*
X27828951Y-11935561D01*
X27829306Y-11932361D01*
X27830272Y-11914225D01*
X27830272Y-11911025D01*
X27829306Y-11892889D01*
X27828951Y-11889689D01*
X27826004Y-11871807D01*
X27825293Y-11868658D01*
X27820467Y-11851182D01*
X27819451Y-11848134D01*
X27812746Y-11831320D01*
X27811374Y-11828373D01*
X27802890Y-11812371D01*
X27791054Y-11794591D01*
X27777338Y-11778234D01*
X27775153Y-11775897D01*
X27761996Y-11763400D01*
X27759507Y-11761317D01*
X27742438Y-11748516D01*
X27726894Y-11739168D01*
X27707589Y-11730075D01*
X27704592Y-11728856D01*
X27687422Y-11723065D01*
X27684323Y-11722201D01*
X27666594Y-11718340D01*
X27663444Y-11717832D01*
X27645410Y-11715851D01*
X27642159Y-11715648D01*
X27624074Y-11715648D01*
X27620823Y-11715851D01*
X27602789Y-11717832D01*
X27599639Y-11718340D01*
X27581910Y-11722201D01*
X27578812Y-11723065D01*
X27561641Y-11728856D01*
X27558644Y-11730075D01*
X27539340Y-11739168D01*
X27523795Y-11748516D01*
X27506726Y-11761317D01*
X27504237Y-11763400D01*
X27491080Y-11775897D01*
X27488896Y-11778234D01*
X27475180Y-11794591D01*
X27463343Y-11812371D01*
X27454860Y-11828373D01*
X27453488Y-11831320D01*
X27446782Y-11848134D01*
X27445766Y-11851182D01*
X27440940Y-11868658D01*
X27440229Y-11871807D01*
X27437283Y-11889689D01*
X27436927Y-11892889D01*
X27435962Y-11911025D01*
X27435962Y-11914225D01*
X27436927Y-11932361D01*
X27437283Y-11935561D01*
X27440229Y-11953443D01*
X27440940Y-11956592D01*
X27445766Y-11974068D01*
X27446782Y-11977116D01*
X27453488Y-11993930D01*
X27454860Y-11996877D01*
X27463343Y-12012879D01*
X27475180Y-12030659D01*
X27488896Y-12047016D01*
X27491080Y-12049353D01*
X27504237Y-12061850D01*
X27506726Y-12063933D01*
X27523795Y-12076734D01*
X27539340Y-12086082D01*
X27558644Y-12095175D01*
X27561641Y-12096394D01*
X27578812Y-12102185D01*
X27581910Y-12103049D01*
X27599639Y-12106910D01*
X27602789Y-12107418D01*
X27620823Y-12109399D01*
G37*
G36*
X32844079Y-11614302D02*
G01*
X32861859Y-11614302D01*
X32865110Y-11614099D01*
X32883144Y-11612118D01*
X32886294Y-11611610D01*
X32904023Y-11607749D01*
X32907122Y-11606885D01*
X32924292Y-11601094D01*
X32927289Y-11599875D01*
X32946594Y-11590782D01*
X32962138Y-11581434D01*
X32979207Y-11568633D01*
X32981696Y-11566550D01*
X32994853Y-11554053D01*
X32997038Y-11551716D01*
X33010754Y-11535359D01*
X33022590Y-11517579D01*
X33031074Y-11501577D01*
X33032446Y-11498630D01*
X33039151Y-11481816D01*
X33040167Y-11478768D01*
X33044993Y-11461292D01*
X33045704Y-11458143D01*
X33048651Y-11440261D01*
X33049006Y-11437061D01*
X33049972Y-11418925D01*
X33049972Y-11415725D01*
X33049006Y-11397589D01*
X33048651Y-11394389D01*
X33045704Y-11376507D01*
X33044993Y-11373358D01*
X33040167Y-11355882D01*
X33039151Y-11352834D01*
X33032446Y-11336020D01*
X33031074Y-11333073D01*
X33022590Y-11317071D01*
X33010754Y-11299291D01*
X32997038Y-11282934D01*
X32994853Y-11280597D01*
X32981696Y-11268100D01*
X32979207Y-11266017D01*
X32962138Y-11253216D01*
X32946594Y-11243868D01*
X32927289Y-11234775D01*
X32924292Y-11233556D01*
X32907122Y-11227765D01*
X32904023Y-11226901D01*
X32886294Y-11223040D01*
X32883144Y-11222532D01*
X32865110Y-11220551D01*
X32861859Y-11220348D01*
X32843774Y-11220348D01*
X32840523Y-11220551D01*
X32822489Y-11222532D01*
X32819339Y-11223040D01*
X32801610Y-11226901D01*
X32798512Y-11227765D01*
X32781341Y-11233556D01*
X32778344Y-11234775D01*
X32759040Y-11243868D01*
X32743495Y-11253216D01*
X32726426Y-11266017D01*
X32723937Y-11268100D01*
X32710780Y-11280597D01*
X32708596Y-11282934D01*
X32694880Y-11299291D01*
X32683043Y-11317071D01*
X32674560Y-11333073D01*
X32673188Y-11336020D01*
X32666482Y-11352834D01*
X32665466Y-11355882D01*
X32660640Y-11373358D01*
X32659929Y-11376507D01*
X32656983Y-11394389D01*
X32656627Y-11397589D01*
X32655662Y-11415725D01*
X32655662Y-11418925D01*
X32656627Y-11437061D01*
X32656983Y-11440261D01*
X32659929Y-11458143D01*
X32660640Y-11461292D01*
X32665466Y-11478768D01*
X32666482Y-11481816D01*
X32673188Y-11498630D01*
X32674560Y-11501577D01*
X32683043Y-11517579D01*
X32694880Y-11535359D01*
X32708596Y-11551716D01*
X32710780Y-11554053D01*
X32723937Y-11566550D01*
X32726426Y-11568633D01*
X32743495Y-11581434D01*
X32759040Y-11590782D01*
X32778344Y-11599875D01*
X32781341Y-11601094D01*
X32798512Y-11606885D01*
X32801610Y-11607749D01*
X32819339Y-11611610D01*
X32822489Y-11612118D01*
X32840218Y-11614048D01*
G37*
G36*
X25873557Y-10458551D02*
G01*
X25891642Y-10458551D01*
X25894893Y-10458399D01*
X25912927Y-10456418D01*
X25916077Y-10455910D01*
X25933806Y-10451998D01*
X25936905Y-10451134D01*
X25957072Y-10444175D01*
X25973532Y-10436555D01*
X25976376Y-10435031D01*
X25991921Y-10425684D01*
X26008990Y-10412882D01*
X26011479Y-10410799D01*
X26024636Y-10398353D01*
X26026821Y-10396016D01*
X26038556Y-10382199D01*
X26040537Y-10379608D01*
X26050697Y-10364622D01*
X26052373Y-10361879D01*
X26062228Y-10342930D01*
X26068934Y-10326065D01*
X26069950Y-10323017D01*
X26074776Y-10305542D01*
X26075487Y-10302392D01*
X26078434Y-10284510D01*
X26078789Y-10281310D01*
X26079754Y-10263225D01*
X26079754Y-10259974D01*
X26078789Y-10241889D01*
X26078434Y-10238689D01*
X26075487Y-10220807D01*
X26074776Y-10217658D01*
X26069950Y-10200182D01*
X26068934Y-10197134D01*
X26062228Y-10180269D01*
X26052373Y-10161320D01*
X26050697Y-10158577D01*
X26040537Y-10143591D01*
X26038556Y-10141000D01*
X26026821Y-10127183D01*
X26024636Y-10124846D01*
X26011479Y-10112400D01*
X26008990Y-10110317D01*
X25991921Y-10097516D01*
X25976376Y-10088168D01*
X25973532Y-10086644D01*
X25957072Y-10079024D01*
X25936905Y-10072065D01*
X25933806Y-10071201D01*
X25916077Y-10067290D01*
X25912927Y-10066782D01*
X25894893Y-10064800D01*
X25891642Y-10064648D01*
X25873557Y-10064648D01*
X25870306Y-10064800D01*
X25852272Y-10066782D01*
X25849122Y-10067290D01*
X25831393Y-10071201D01*
X25828294Y-10072065D01*
X25808127Y-10079024D01*
X25791668Y-10086644D01*
X25788823Y-10088168D01*
X25773278Y-10097516D01*
X25756209Y-10110317D01*
X25753720Y-10112400D01*
X25740563Y-10124846D01*
X25738378Y-10127183D01*
X25726644Y-10141000D01*
X25724662Y-10143591D01*
X25714502Y-10158577D01*
X25712826Y-10161320D01*
X25702971Y-10180269D01*
X25696265Y-10197134D01*
X25695249Y-10200182D01*
X25690423Y-10217658D01*
X25689712Y-10220807D01*
X25686766Y-10238689D01*
X25686410Y-10241889D01*
X25685445Y-10259974D01*
X25685445Y-10263225D01*
X25686410Y-10281310D01*
X25686766Y-10284510D01*
X25689712Y-10302392D01*
X25690423Y-10305542D01*
X25695249Y-10323017D01*
X25696265Y-10326065D01*
X25702971Y-10342930D01*
X25712826Y-10361879D01*
X25714502Y-10364622D01*
X25724662Y-10379608D01*
X25726644Y-10382199D01*
X25738378Y-10396016D01*
X25740563Y-10398353D01*
X25753720Y-10410799D01*
X25756209Y-10412882D01*
X25773278Y-10425684D01*
X25788823Y-10435031D01*
X25791668Y-10436555D01*
X25808127Y-10444175D01*
X25828294Y-10451134D01*
X25831393Y-10451998D01*
X25849122Y-10455910D01*
X25852272Y-10456418D01*
X25870306Y-10458399D01*
G37*
G36*
X33722462Y-10458551D02*
G01*
X33740242Y-10458551D01*
X33743493Y-10458399D01*
X33761527Y-10456418D01*
X33764677Y-10455910D01*
X33782406Y-10451998D01*
X33785505Y-10451134D01*
X33805672Y-10444175D01*
X33822132Y-10436555D01*
X33824976Y-10435031D01*
X33840521Y-10425684D01*
X33857590Y-10412882D01*
X33860079Y-10410799D01*
X33873236Y-10398353D01*
X33875421Y-10396016D01*
X33887156Y-10382199D01*
X33889137Y-10379608D01*
X33899297Y-10364622D01*
X33900973Y-10361879D01*
X33910828Y-10342930D01*
X33917534Y-10326065D01*
X33918550Y-10323017D01*
X33923376Y-10305542D01*
X33924087Y-10302392D01*
X33927034Y-10284510D01*
X33927389Y-10281310D01*
X33928354Y-10263225D01*
X33928354Y-10259974D01*
X33927389Y-10241889D01*
X33927034Y-10238689D01*
X33924087Y-10220807D01*
X33923376Y-10217658D01*
X33918550Y-10200182D01*
X33917534Y-10197134D01*
X33910828Y-10180269D01*
X33900973Y-10161320D01*
X33899297Y-10158577D01*
X33889137Y-10143591D01*
X33887156Y-10141000D01*
X33875421Y-10127183D01*
X33873236Y-10124846D01*
X33860079Y-10112400D01*
X33857590Y-10110317D01*
X33840521Y-10097516D01*
X33824976Y-10088168D01*
X33822132Y-10086644D01*
X33805672Y-10079024D01*
X33785505Y-10072065D01*
X33782406Y-10071201D01*
X33764677Y-10067290D01*
X33761527Y-10066782D01*
X33743493Y-10064800D01*
X33740242Y-10064648D01*
X33722157Y-10064648D01*
X33718906Y-10064800D01*
X33700872Y-10066782D01*
X33697722Y-10067290D01*
X33679993Y-10071201D01*
X33676894Y-10072065D01*
X33656727Y-10079024D01*
X33640268Y-10086644D01*
X33637423Y-10088168D01*
X33621878Y-10097516D01*
X33604809Y-10110317D01*
X33602320Y-10112400D01*
X33589163Y-10124846D01*
X33586978Y-10127183D01*
X33575244Y-10141000D01*
X33573262Y-10143591D01*
X33563102Y-10158577D01*
X33561426Y-10161320D01*
X33551571Y-10180269D01*
X33544865Y-10197134D01*
X33543849Y-10200182D01*
X33539023Y-10217658D01*
X33538312Y-10220807D01*
X33535365Y-10238689D01*
X33535010Y-10241889D01*
X33534045Y-10259974D01*
X33534045Y-10263225D01*
X33535010Y-10281310D01*
X33535365Y-10284510D01*
X33538312Y-10302392D01*
X33539023Y-10305542D01*
X33543849Y-10323017D01*
X33544865Y-10326065D01*
X33551571Y-10342930D01*
X33561426Y-10361879D01*
X33563102Y-10364622D01*
X33573262Y-10379608D01*
X33575244Y-10382199D01*
X33586978Y-10396016D01*
X33589163Y-10398353D01*
X33602320Y-10410799D01*
X33604809Y-10412882D01*
X33621878Y-10425684D01*
X33637423Y-10435031D01*
X33640268Y-10436555D01*
X33656727Y-10444175D01*
X33676894Y-10451134D01*
X33679993Y-10451998D01*
X33697722Y-10455910D01*
X33700872Y-10456418D01*
X33718601Y-10458348D01*
G37*
G36*
X28880409Y-10351008D02*
G01*
X30590642Y-10351008D01*
X30597144Y-10350195D01*
X30602682Y-10348112D01*
X30607812Y-10344556D01*
X30610860Y-10341559D01*
X30613502Y-10337952D01*
X30615991Y-10332415D01*
X30617160Y-10324947D01*
X30617160Y-9716109D01*
X30616347Y-9709607D01*
X30614264Y-9704070D01*
X30610708Y-9698939D01*
X30607711Y-9695891D01*
X30604104Y-9693249D01*
X30598567Y-9690760D01*
X30591099Y-9689592D01*
X28851961Y-9689592D01*
X28845459Y-9690404D01*
X28839617Y-9692589D01*
X28836315Y-9694570D01*
X28833368Y-9697008D01*
X28829508Y-9701733D01*
X28826968Y-9707067D01*
X28825748Y-9713112D01*
X28825748Y-9718090D01*
X28826307Y-9721799D01*
X28828492Y-9727539D01*
X28831844Y-9732416D01*
X28836518Y-9736531D01*
X28839617Y-9738410D01*
X28848862Y-9741865D01*
X28851504Y-9744151D01*
X28853282Y-9747199D01*
X28853892Y-9750653D01*
X28853892Y-10324490D01*
X28854704Y-10330992D01*
X28856787Y-10336530D01*
X28860343Y-10341660D01*
X28863239Y-10344556D01*
X28868370Y-10348112D01*
X28873907Y-10350195D01*
G37*
G36*
X33261909Y-9081008D02*
G01*
X34009990Y-9081008D01*
X34016492Y-9080195D01*
X34022030Y-9078112D01*
X34027160Y-9074556D01*
X34030208Y-9071559D01*
X34032850Y-9067952D01*
X34035339Y-9062415D01*
X34036508Y-9054947D01*
X34036508Y-7493609D01*
X34035695Y-7487107D01*
X34033612Y-7481570D01*
X34030056Y-7476439D01*
X34027059Y-7473391D01*
X34023452Y-7470749D01*
X34017915Y-7468260D01*
X34010447Y-7467092D01*
X33261909Y-7467092D01*
X33255407Y-7467904D01*
X33249870Y-7469987D01*
X33244739Y-7473543D01*
X33241691Y-7476540D01*
X33239049Y-7480147D01*
X33236560Y-7485684D01*
X33235392Y-7493152D01*
X33235392Y-9054490D01*
X33236204Y-9060992D01*
X33238287Y-9066530D01*
X33241843Y-9071660D01*
X33244739Y-9074556D01*
X33249870Y-9078112D01*
X33255407Y-9080195D01*
G37*
G36*
X25577952Y-9081008D02*
G01*
X26339190Y-9081008D01*
X26345692Y-9080195D01*
X26351230Y-9078112D01*
X26356360Y-9074556D01*
X26359408Y-9071559D01*
X26362050Y-9067952D01*
X26364539Y-9062415D01*
X26365708Y-9054947D01*
X26365708Y-7480909D01*
X26364895Y-7474407D01*
X26362812Y-7468870D01*
X26359256Y-7463739D01*
X26356259Y-7460691D01*
X26352652Y-7458049D01*
X26347115Y-7455560D01*
X26339647Y-7454392D01*
X25578409Y-7454392D01*
X25571907Y-7455204D01*
X25566370Y-7457287D01*
X25561239Y-7460843D01*
X25558191Y-7463840D01*
X25555549Y-7467447D01*
X25553060Y-7472984D01*
X25551892Y-7480452D01*
X25551892Y-9054490D01*
X25552704Y-9060992D01*
X25554787Y-9066530D01*
X25558343Y-9071660D01*
X25561340Y-9074708D01*
X25564947Y-9077350D01*
X25570484Y-9079839D01*
X25576784Y-9080957D01*
G37*
G36*
X32831074Y-8807602D02*
G01*
X32849159Y-8807602D01*
X32852410Y-8807399D01*
X32870444Y-8805418D01*
X32873594Y-8804910D01*
X32891323Y-8801049D01*
X32894422Y-8800185D01*
X32911592Y-8794394D01*
X32914589Y-8793175D01*
X32933894Y-8784082D01*
X32949438Y-8774734D01*
X32966507Y-8761933D01*
X32968996Y-8759850D01*
X32982153Y-8747353D01*
X32984338Y-8745016D01*
X32998054Y-8728659D01*
X33009890Y-8710879D01*
X33018374Y-8694877D01*
X33019746Y-8691930D01*
X33026451Y-8675116D01*
X33027467Y-8672068D01*
X33032293Y-8654592D01*
X33033004Y-8651443D01*
X33035951Y-8633561D01*
X33036306Y-8630361D01*
X33037272Y-8612225D01*
X33037272Y-8609025D01*
X33036306Y-8590889D01*
X33035951Y-8587689D01*
X33033004Y-8569807D01*
X33032293Y-8566658D01*
X33027467Y-8549182D01*
X33026451Y-8546134D01*
X33019746Y-8529320D01*
X33018374Y-8526373D01*
X33009890Y-8510371D01*
X32998054Y-8492591D01*
X32984338Y-8476234D01*
X32982153Y-8473897D01*
X32968996Y-8461400D01*
X32966507Y-8459317D01*
X32949438Y-8446516D01*
X32933894Y-8437168D01*
X32914589Y-8428075D01*
X32911592Y-8426856D01*
X32894422Y-8421065D01*
X32891323Y-8420201D01*
X32873594Y-8416340D01*
X32870444Y-8415832D01*
X32852410Y-8413851D01*
X32849159Y-8413648D01*
X32831074Y-8413648D01*
X32827823Y-8413851D01*
X32809789Y-8415832D01*
X32806639Y-8416340D01*
X32788910Y-8420201D01*
X32785812Y-8421065D01*
X32768641Y-8426856D01*
X32765644Y-8428075D01*
X32746340Y-8437168D01*
X32730795Y-8446516D01*
X32713726Y-8459317D01*
X32711237Y-8461400D01*
X32698080Y-8473897D01*
X32695896Y-8476234D01*
X32682180Y-8492591D01*
X32670343Y-8510371D01*
X32661860Y-8526373D01*
X32660488Y-8529320D01*
X32653782Y-8546134D01*
X32652766Y-8549182D01*
X32647940Y-8566658D01*
X32647229Y-8569807D01*
X32644283Y-8587689D01*
X32643927Y-8590889D01*
X32642962Y-8609025D01*
X32642962Y-8612225D01*
X32643927Y-8630361D01*
X32644283Y-8633561D01*
X32647229Y-8651443D01*
X32647940Y-8654592D01*
X32652766Y-8672068D01*
X32653782Y-8675116D01*
X32660488Y-8691930D01*
X32661860Y-8694877D01*
X32670343Y-8710879D01*
X32682180Y-8728659D01*
X32695896Y-8745016D01*
X32698080Y-8747353D01*
X32711237Y-8759850D01*
X32713726Y-8761933D01*
X32730795Y-8774734D01*
X32746340Y-8784082D01*
X32765644Y-8793175D01*
X32768641Y-8794394D01*
X32785812Y-8800185D01*
X32788910Y-8801049D01*
X32806639Y-8804910D01*
X32809789Y-8805418D01*
X32827823Y-8807399D01*
G37*
G36*
X27751074Y-7309002D02*
G01*
X27769159Y-7309002D01*
X27772410Y-7308799D01*
X27790444Y-7306818D01*
X27793594Y-7306309D01*
X27811323Y-7302449D01*
X27814422Y-7301585D01*
X27831592Y-7295794D01*
X27834589Y-7294575D01*
X27853894Y-7285481D01*
X27869438Y-7276134D01*
X27886507Y-7263333D01*
X27888996Y-7261250D01*
X27902153Y-7248753D01*
X27904338Y-7246416D01*
X27918054Y-7230059D01*
X27929890Y-7212279D01*
X27938374Y-7196277D01*
X27939746Y-7193330D01*
X27946451Y-7176516D01*
X27947467Y-7173468D01*
X27952293Y-7155992D01*
X27953004Y-7152843D01*
X27955951Y-7134961D01*
X27956306Y-7131761D01*
X27957272Y-7113625D01*
X27957272Y-7110425D01*
X27956306Y-7092289D01*
X27955951Y-7089089D01*
X27953004Y-7071207D01*
X27952293Y-7068058D01*
X27947467Y-7050582D01*
X27946451Y-7047534D01*
X27939746Y-7030720D01*
X27938374Y-7027773D01*
X27929890Y-7011771D01*
X27918054Y-6993991D01*
X27904338Y-6977634D01*
X27902153Y-6975297D01*
X27888996Y-6962800D01*
X27886507Y-6960717D01*
X27869438Y-6947916D01*
X27853894Y-6938568D01*
X27834589Y-6929475D01*
X27831592Y-6928256D01*
X27814422Y-6922465D01*
X27811323Y-6921601D01*
X27793594Y-6917740D01*
X27790444Y-6917232D01*
X27772410Y-6915251D01*
X27769159Y-6915048D01*
X27751074Y-6915048D01*
X27747823Y-6915251D01*
X27729789Y-6917232D01*
X27726639Y-6917740D01*
X27708910Y-6921601D01*
X27705812Y-6922465D01*
X27688641Y-6928256D01*
X27685644Y-6929475D01*
X27666340Y-6938568D01*
X27650795Y-6947916D01*
X27633726Y-6960717D01*
X27631237Y-6962800D01*
X27618080Y-6975297D01*
X27615896Y-6977634D01*
X27602180Y-6993991D01*
X27590343Y-7011771D01*
X27581860Y-7027773D01*
X27580488Y-7030720D01*
X27573782Y-7047534D01*
X27572766Y-7050582D01*
X27567940Y-7068058D01*
X27567229Y-7071207D01*
X27564283Y-7089089D01*
X27563927Y-7092289D01*
X27562962Y-7110425D01*
X27562962Y-7113625D01*
X27563927Y-7131761D01*
X27564283Y-7134961D01*
X27567229Y-7152843D01*
X27567940Y-7155992D01*
X27572766Y-7173468D01*
X27573782Y-7176516D01*
X27580488Y-7193330D01*
X27581860Y-7196277D01*
X27590343Y-7212279D01*
X27602180Y-7230059D01*
X27615896Y-7246416D01*
X27618080Y-7248753D01*
X27631237Y-7261250D01*
X27633726Y-7263333D01*
X27650795Y-7276134D01*
X27666340Y-7285481D01*
X27685644Y-7294575D01*
X27688641Y-7295794D01*
X27705812Y-7301585D01*
X27708910Y-7302449D01*
X27726639Y-7306309D01*
X27729789Y-7306818D01*
X27747823Y-7308799D01*
G37*
G36*
X28880409Y-7083806D02*
G01*
X30580990Y-7083806D01*
X30587492Y-7082993D01*
X30593030Y-7080910D01*
X30598160Y-7077354D01*
X30601208Y-7074357D01*
X30603850Y-7070750D01*
X30606339Y-7065213D01*
X30607508Y-7057745D01*
X30607508Y-6423507D01*
X30606695Y-6417005D01*
X30604612Y-6411468D01*
X30601107Y-6406337D01*
X30598008Y-6403289D01*
X30594452Y-6400647D01*
X30588864Y-6398158D01*
X30581396Y-6396990D01*
X28880358Y-6400292D01*
X28873856Y-6401104D01*
X28868319Y-6403187D01*
X28863239Y-6406743D01*
X28860191Y-6409740D01*
X28857549Y-6413398D01*
X28855060Y-6418935D01*
X28853892Y-6426352D01*
X28853892Y-7057288D01*
X28854704Y-7063790D01*
X28856787Y-7069328D01*
X28860343Y-7074458D01*
X28863239Y-7077354D01*
X28868370Y-7080910D01*
X28873907Y-7082993D01*
G37*
G36*
X30951170Y-6596176D02*
G01*
X30968950Y-6596176D01*
X30972201Y-6595973D01*
X30990235Y-6593992D01*
X30993384Y-6593484D01*
X31011114Y-6589623D01*
X31014212Y-6588759D01*
X31031383Y-6582968D01*
X31034380Y-6581749D01*
X31053684Y-6572656D01*
X31069229Y-6563309D01*
X31086298Y-6550507D01*
X31088787Y-6548424D01*
X31101944Y-6535928D01*
X31104128Y-6533591D01*
X31117844Y-6517233D01*
X31129681Y-6499453D01*
X31138164Y-6483451D01*
X31139536Y-6480505D01*
X31146242Y-6463690D01*
X31147258Y-6460642D01*
X31152084Y-6443167D01*
X31152795Y-6440017D01*
X31155741Y-6422136D01*
X31156097Y-6418935D01*
X31157062Y-6400800D01*
X31157062Y-6397599D01*
X31156097Y-6379464D01*
X31155741Y-6376263D01*
X31152795Y-6358382D01*
X31152084Y-6355232D01*
X31147258Y-6337757D01*
X31146242Y-6334709D01*
X31139536Y-6317894D01*
X31138164Y-6314948D01*
X31129681Y-6298946D01*
X31117844Y-6281166D01*
X31104128Y-6264808D01*
X31101944Y-6262471D01*
X31088787Y-6249974D01*
X31086298Y-6247892D01*
X31069229Y-6235090D01*
X31053684Y-6225743D01*
X31034380Y-6216650D01*
X31031383Y-6215430D01*
X31014212Y-6209639D01*
X31011114Y-6208776D01*
X30993384Y-6204915D01*
X30990235Y-6204407D01*
X30972201Y-6202426D01*
X30968950Y-6202222D01*
X30950865Y-6202222D01*
X30947614Y-6202426D01*
X30929580Y-6204407D01*
X30926430Y-6204915D01*
X30908701Y-6208776D01*
X30905602Y-6209639D01*
X30888432Y-6215430D01*
X30885434Y-6216650D01*
X30866130Y-6225743D01*
X30850586Y-6235090D01*
X30833517Y-6247892D01*
X30831027Y-6249974D01*
X30817870Y-6262471D01*
X30815686Y-6264808D01*
X30801970Y-6281166D01*
X30790134Y-6298946D01*
X30781650Y-6314948D01*
X30780278Y-6317894D01*
X30773573Y-6334709D01*
X30772557Y-6337757D01*
X30767731Y-6355232D01*
X30767020Y-6358382D01*
X30764073Y-6376263D01*
X30763718Y-6379464D01*
X30762752Y-6397599D01*
X30762752Y-6400800D01*
X30763718Y-6418935D01*
X30764073Y-6422136D01*
X30767020Y-6440017D01*
X30767731Y-6443167D01*
X30772557Y-6460642D01*
X30773573Y-6463690D01*
X30780278Y-6480505D01*
X30781650Y-6483451D01*
X30790134Y-6499453D01*
X30801970Y-6517233D01*
X30815686Y-6533591D01*
X30817870Y-6535928D01*
X30831027Y-6548424D01*
X30833517Y-6550507D01*
X30850586Y-6563309D01*
X30866130Y-6572656D01*
X30885434Y-6581749D01*
X30888432Y-6582968D01*
X30905602Y-6588759D01*
X30908701Y-6589623D01*
X30926430Y-6593484D01*
X30929580Y-6593992D01*
X30947309Y-6595922D01*
G37*
G36*
X28510585Y-6596176D02*
G01*
X28528365Y-6596176D01*
X28531616Y-6595973D01*
X28549650Y-6593992D01*
X28552800Y-6593484D01*
X28570529Y-6589623D01*
X28573628Y-6588759D01*
X28590798Y-6582968D01*
X28593796Y-6581749D01*
X28613100Y-6572656D01*
X28628644Y-6563309D01*
X28645713Y-6550507D01*
X28648202Y-6548424D01*
X28661360Y-6535928D01*
X28663544Y-6533591D01*
X28677260Y-6517233D01*
X28689096Y-6499453D01*
X28697580Y-6483451D01*
X28698952Y-6480505D01*
X28705657Y-6463690D01*
X28706673Y-6460642D01*
X28711499Y-6443167D01*
X28712210Y-6440017D01*
X28715157Y-6422136D01*
X28715512Y-6418935D01*
X28716477Y-6400800D01*
X28716477Y-6397599D01*
X28715512Y-6379464D01*
X28715157Y-6376263D01*
X28712210Y-6358382D01*
X28711499Y-6355232D01*
X28706673Y-6337757D01*
X28705657Y-6334709D01*
X28698952Y-6317894D01*
X28697580Y-6314948D01*
X28689096Y-6298946D01*
X28677260Y-6281166D01*
X28663544Y-6264808D01*
X28661360Y-6262471D01*
X28648202Y-6249974D01*
X28645713Y-6247892D01*
X28628644Y-6235090D01*
X28613100Y-6225743D01*
X28593796Y-6216650D01*
X28590798Y-6215430D01*
X28573628Y-6209639D01*
X28570529Y-6208776D01*
X28552800Y-6204915D01*
X28549650Y-6204407D01*
X28531616Y-6202426D01*
X28528365Y-6202222D01*
X28510280Y-6202222D01*
X28507029Y-6202426D01*
X28488995Y-6204407D01*
X28485846Y-6204915D01*
X28468116Y-6208776D01*
X28465018Y-6209639D01*
X28447847Y-6215430D01*
X28444850Y-6216650D01*
X28425546Y-6225743D01*
X28410001Y-6235090D01*
X28392932Y-6247892D01*
X28390443Y-6249974D01*
X28377286Y-6262471D01*
X28375102Y-6264808D01*
X28361386Y-6281166D01*
X28349549Y-6298946D01*
X28341065Y-6314948D01*
X28339694Y-6317894D01*
X28332988Y-6334709D01*
X28331972Y-6337757D01*
X28327146Y-6355232D01*
X28326435Y-6358382D01*
X28323489Y-6376263D01*
X28323133Y-6379464D01*
X28322168Y-6397599D01*
X28322168Y-6400800D01*
X28323133Y-6418935D01*
X28323489Y-6422136D01*
X28326435Y-6440017D01*
X28327146Y-6443167D01*
X28331972Y-6460642D01*
X28332988Y-6463690D01*
X28339694Y-6480505D01*
X28341065Y-6483451D01*
X28349549Y-6499453D01*
X28361386Y-6517233D01*
X28375102Y-6533591D01*
X28377286Y-6535928D01*
X28390443Y-6548424D01*
X28392932Y-6550507D01*
X28410001Y-6563309D01*
X28425546Y-6572656D01*
X28444850Y-6581749D01*
X28447847Y-6582968D01*
X28465018Y-6588759D01*
X28468116Y-6589623D01*
X28485846Y-6593484D01*
X28488995Y-6593992D01*
X28506724Y-6595922D01*
G37*
G36*
X27183283Y-6036259D02*
G01*
X27201063Y-6036259D01*
X27222297Y-6034074D01*
X27225498Y-6033566D01*
X27243176Y-6029706D01*
X27246275Y-6028842D01*
X27263496Y-6023051D01*
X27282902Y-6014212D01*
X27285746Y-6012738D01*
X27301291Y-6003391D01*
X27303984Y-6001562D01*
X27318411Y-5990590D01*
X27320849Y-5988507D01*
X27334006Y-5976010D01*
X27336242Y-5973673D01*
X27347976Y-5959856D01*
X27349907Y-5957316D01*
X27360118Y-5942279D01*
X27370277Y-5923534D01*
X27378304Y-5903772D01*
X27379320Y-5900724D01*
X27384197Y-5883249D01*
X27384908Y-5880100D01*
X27387803Y-5862218D01*
X27388159Y-5859018D01*
X27389124Y-5840882D01*
X27389124Y-5837682D01*
X27388159Y-5819546D01*
X27387803Y-5816346D01*
X27384908Y-5798464D01*
X27384197Y-5795314D01*
X27379320Y-5777839D01*
X27378304Y-5774791D01*
X27370277Y-5755030D01*
X27360118Y-5736285D01*
X27349907Y-5721248D01*
X27347976Y-5718708D01*
X27336242Y-5704890D01*
X27334006Y-5702554D01*
X27320849Y-5690057D01*
X27318411Y-5687974D01*
X27303984Y-5677001D01*
X27301291Y-5675172D01*
X27285746Y-5665825D01*
X27266442Y-5656732D01*
X27263496Y-5655513D01*
X27246275Y-5649722D01*
X27243176Y-5648858D01*
X27225498Y-5644997D01*
X27222297Y-5644489D01*
X27201063Y-5642305D01*
X27182927Y-5642305D01*
X27161693Y-5644489D01*
X27158492Y-5644997D01*
X27140814Y-5648858D01*
X27137715Y-5649722D01*
X27120494Y-5655513D01*
X27101088Y-5664352D01*
X27098244Y-5665825D01*
X27082699Y-5675172D01*
X27080006Y-5677001D01*
X27065579Y-5687974D01*
X27063141Y-5690057D01*
X27049984Y-5702554D01*
X27047748Y-5704890D01*
X27036014Y-5718708D01*
X27034083Y-5721248D01*
X27023872Y-5736285D01*
X27022247Y-5739028D01*
X27013763Y-5755030D01*
X27012392Y-5757976D01*
X27005686Y-5774791D01*
X27004670Y-5777839D01*
X26999793Y-5795314D01*
X26999082Y-5798464D01*
X26996186Y-5816346D01*
X26995831Y-5819546D01*
X26994865Y-5837682D01*
X26994865Y-5840882D01*
X26995831Y-5859018D01*
X26996186Y-5862218D01*
X26999082Y-5880100D01*
X26999793Y-5883249D01*
X27004670Y-5900724D01*
X27005686Y-5903772D01*
X27012392Y-5920587D01*
X27013763Y-5923534D01*
X27022247Y-5939536D01*
X27023872Y-5942279D01*
X27034083Y-5957316D01*
X27036014Y-5959856D01*
X27047748Y-5973673D01*
X27049984Y-5976010D01*
X27063141Y-5988507D01*
X27065579Y-5990590D01*
X27080006Y-6001562D01*
X27082699Y-6003391D01*
X27098244Y-6012738D01*
X27117548Y-6021832D01*
X27120494Y-6023051D01*
X27137715Y-6028842D01*
X27140814Y-6029706D01*
X27158492Y-6033566D01*
X27161693Y-6034074D01*
X27179371Y-6036005D01*
G37*
G36*
X26784909Y-5461508D02*
G01*
X27609190Y-5461508D01*
X27615692Y-5460695D01*
X27621230Y-5458612D01*
X27626360Y-5455056D01*
X27629408Y-5452059D01*
X27632050Y-5448452D01*
X27634539Y-5442915D01*
X27635708Y-5435447D01*
X27635708Y-5101183D01*
X27634895Y-5094681D01*
X27632812Y-5089144D01*
X27629256Y-5084013D01*
X27626259Y-5080965D01*
X27622652Y-5078323D01*
X27617115Y-5075834D01*
X27609647Y-5074666D01*
X26772209Y-5074666D01*
X26765707Y-5075478D01*
X26760170Y-5077561D01*
X26755089Y-5081066D01*
X26752143Y-5084064D01*
X26748587Y-5089194D01*
X26746504Y-5094732D01*
X26745692Y-5101234D01*
X26745692Y-5430469D01*
X26746403Y-5436666D01*
X26747215Y-5439257D01*
X26750314Y-5445099D01*
X26752956Y-5448604D01*
X26757426Y-5452414D01*
X26762964Y-5455208D01*
X26778153Y-5460695D01*
G37*
G36*
X26529030Y-4973015D02*
G01*
X26547165Y-4973015D01*
X26568400Y-4970830D01*
X26571600Y-4970322D01*
X26589278Y-4966462D01*
X26592377Y-4965598D01*
X26609598Y-4959807D01*
X26629004Y-4950968D01*
X26631849Y-4949494D01*
X26647394Y-4940147D01*
X26650086Y-4938318D01*
X26664513Y-4927346D01*
X26666952Y-4925263D01*
X26680109Y-4912766D01*
X26682344Y-4910429D01*
X26694079Y-4896612D01*
X26696009Y-4894072D01*
X26706220Y-4879035D01*
X26716380Y-4860290D01*
X26724406Y-4840528D01*
X26725422Y-4837480D01*
X26730299Y-4820005D01*
X26731010Y-4816856D01*
X26733906Y-4798974D01*
X26734262Y-4795774D01*
X26735227Y-4777638D01*
X26735227Y-4774438D01*
X26734262Y-4756302D01*
X26733906Y-4753102D01*
X26731010Y-4735220D01*
X26730299Y-4732070D01*
X26725422Y-4714595D01*
X26724406Y-4711547D01*
X26716380Y-4691786D01*
X26706220Y-4673041D01*
X26696009Y-4658004D01*
X26694079Y-4655464D01*
X26682344Y-4641646D01*
X26680109Y-4639310D01*
X26666952Y-4626813D01*
X26664513Y-4624730D01*
X26650086Y-4613757D01*
X26647394Y-4611928D01*
X26631849Y-4602581D01*
X26612545Y-4593488D01*
X26609598Y-4592269D01*
X26592377Y-4586478D01*
X26589278Y-4585614D01*
X26571600Y-4581753D01*
X26568400Y-4581245D01*
X26547165Y-4579061D01*
X26529030Y-4579061D01*
X26507795Y-4581245D01*
X26504595Y-4581753D01*
X26486916Y-4585614D01*
X26483818Y-4586478D01*
X26466596Y-4592269D01*
X26447191Y-4601108D01*
X26444346Y-4602581D01*
X26428801Y-4611928D01*
X26426109Y-4613757D01*
X26411682Y-4624730D01*
X26409243Y-4626813D01*
X26396086Y-4639310D01*
X26393851Y-4641646D01*
X26382116Y-4655464D01*
X26380186Y-4658004D01*
X26369975Y-4673041D01*
X26368349Y-4675784D01*
X26359865Y-4691786D01*
X26358494Y-4694732D01*
X26351788Y-4711547D01*
X26350772Y-4714595D01*
X26345896Y-4732070D01*
X26345184Y-4735220D01*
X26342289Y-4753102D01*
X26341933Y-4756302D01*
X26340968Y-4774438D01*
X26340968Y-4777638D01*
X26341933Y-4795774D01*
X26342289Y-4798974D01*
X26345184Y-4816856D01*
X26345896Y-4820005D01*
X26350772Y-4837480D01*
X26351788Y-4840528D01*
X26358494Y-4857343D01*
X26359865Y-4860290D01*
X26368349Y-4876292D01*
X26369975Y-4879035D01*
X26380186Y-4894072D01*
X26382116Y-4896612D01*
X26393851Y-4910429D01*
X26396086Y-4912766D01*
X26409243Y-4925263D01*
X26411682Y-4927346D01*
X26426109Y-4938318D01*
X26428801Y-4940147D01*
X26444346Y-4949494D01*
X26463650Y-4958588D01*
X26466596Y-4959807D01*
X26483818Y-4965598D01*
X26486916Y-4966462D01*
X26504595Y-4970322D01*
X26507795Y-4970830D01*
G37*
G36*
X32988554Y-4973015D02*
G01*
X33006639Y-4973015D01*
X33009890Y-4972812D01*
X33027924Y-4970830D01*
X33031074Y-4970322D01*
X33048803Y-4966462D01*
X33051902Y-4965598D01*
X33069072Y-4959807D01*
X33072070Y-4958588D01*
X33091374Y-4949494D01*
X33106918Y-4940147D01*
X33123987Y-4927346D01*
X33126476Y-4925263D01*
X33139634Y-4912766D01*
X33141818Y-4910429D01*
X33155534Y-4894072D01*
X33167370Y-4876292D01*
X33175854Y-4860290D01*
X33177226Y-4857343D01*
X33183931Y-4840528D01*
X33184947Y-4837480D01*
X33189773Y-4820005D01*
X33190484Y-4816856D01*
X33193431Y-4798974D01*
X33193786Y-4795774D01*
X33194752Y-4777638D01*
X33194752Y-4774438D01*
X33193786Y-4756302D01*
X33193431Y-4753102D01*
X33190484Y-4735220D01*
X33189773Y-4732070D01*
X33184947Y-4714595D01*
X33183931Y-4711547D01*
X33177226Y-4694732D01*
X33175854Y-4691786D01*
X33167370Y-4675784D01*
X33155534Y-4658004D01*
X33141818Y-4641646D01*
X33139634Y-4639310D01*
X33126476Y-4626813D01*
X33123987Y-4624730D01*
X33106918Y-4611928D01*
X33091374Y-4602581D01*
X33072070Y-4593488D01*
X33069072Y-4592269D01*
X33051902Y-4586478D01*
X33048803Y-4585614D01*
X33031074Y-4581753D01*
X33027924Y-4581245D01*
X33009890Y-4579264D01*
X33006639Y-4579061D01*
X32988554Y-4579061D01*
X32985303Y-4579264D01*
X32967269Y-4581245D01*
X32964120Y-4581753D01*
X32946390Y-4585614D01*
X32943292Y-4586478D01*
X32926121Y-4592269D01*
X32923124Y-4593488D01*
X32903820Y-4602581D01*
X32888275Y-4611928D01*
X32871206Y-4624730D01*
X32868717Y-4626813D01*
X32855560Y-4639310D01*
X32853376Y-4641646D01*
X32839660Y-4658004D01*
X32827823Y-4675784D01*
X32819339Y-4691786D01*
X32817968Y-4694732D01*
X32811262Y-4711547D01*
X32810246Y-4714595D01*
X32805420Y-4732070D01*
X32804709Y-4735220D01*
X32801763Y-4753102D01*
X32801407Y-4756302D01*
X32800442Y-4774438D01*
X32800442Y-4777638D01*
X32801407Y-4795774D01*
X32801763Y-4798974D01*
X32804709Y-4816856D01*
X32805420Y-4820005D01*
X32810246Y-4837480D01*
X32811262Y-4840528D01*
X32817968Y-4857343D01*
X32819339Y-4860290D01*
X32827823Y-4876292D01*
X32839660Y-4894072D01*
X32853376Y-4910429D01*
X32855560Y-4912766D01*
X32868717Y-4925263D01*
X32871206Y-4927346D01*
X32888275Y-4940147D01*
X32903820Y-4949494D01*
X32923124Y-4958588D01*
X32926121Y-4959807D01*
X32943292Y-4965598D01*
X32946390Y-4966462D01*
X32964120Y-4970322D01*
X32967269Y-4970830D01*
X32985303Y-4972812D01*
G37*
G36*
X29341419Y-4255008D02*
G01*
X30114900Y-4255008D01*
X30121402Y-4254195D01*
X30126939Y-4252112D01*
X30132070Y-4248556D01*
X30135118Y-4245559D01*
X30137760Y-4241952D01*
X30140249Y-4236415D01*
X30141418Y-4228947D01*
X30141418Y-4013809D01*
X30140605Y-4007307D01*
X30138522Y-4001770D01*
X30134966Y-3996639D01*
X30131969Y-3993591D01*
X30128362Y-3990949D01*
X30122825Y-3988460D01*
X30115357Y-3987292D01*
X29341419Y-3987292D01*
X29334917Y-3988104D01*
X29329380Y-3990187D01*
X29324249Y-3993743D01*
X29321201Y-3996740D01*
X29318559Y-4000347D01*
X29316070Y-4005884D01*
X29314902Y-4013352D01*
X29314902Y-4228490D01*
X29315714Y-4234992D01*
X29317797Y-4240530D01*
X29321353Y-4245660D01*
X29324249Y-4248556D01*
X29329380Y-4252112D01*
X29334917Y-4254195D01*
G37*
G36*
X30950865Y-3992676D02*
G01*
X30968950Y-3992676D01*
X30972201Y-3992473D01*
X30990235Y-3990492D01*
X30993384Y-3989984D01*
X31011114Y-3986123D01*
X31014212Y-3985260D01*
X31031383Y-3979468D01*
X31034380Y-3978249D01*
X31053684Y-3969156D01*
X31069229Y-3959809D01*
X31086298Y-3947007D01*
X31088787Y-3944924D01*
X31101944Y-3932428D01*
X31104128Y-3930091D01*
X31117844Y-3913733D01*
X31129681Y-3895953D01*
X31138164Y-3879951D01*
X31139536Y-3877005D01*
X31146242Y-3860190D01*
X31147258Y-3857142D01*
X31152084Y-3839667D01*
X31152795Y-3836517D01*
X31155741Y-3818636D01*
X31156097Y-3815435D01*
X31157062Y-3797300D01*
X31157062Y-3794099D01*
X31156097Y-3775964D01*
X31155741Y-3772763D01*
X31152795Y-3754882D01*
X31152084Y-3751732D01*
X31147258Y-3734257D01*
X31146242Y-3731209D01*
X31139536Y-3714394D01*
X31138164Y-3711448D01*
X31129681Y-3695446D01*
X31117844Y-3677665D01*
X31104128Y-3661308D01*
X31101944Y-3658971D01*
X31088787Y-3646474D01*
X31086298Y-3644392D01*
X31069229Y-3631590D01*
X31053684Y-3622243D01*
X31034380Y-3613150D01*
X31031383Y-3611930D01*
X31014212Y-3606139D01*
X31011114Y-3605276D01*
X30993384Y-3601415D01*
X30990235Y-3600907D01*
X30972201Y-3598926D01*
X30968950Y-3598722D01*
X30950865Y-3598722D01*
X30947614Y-3598926D01*
X30929580Y-3600907D01*
X30926430Y-3601415D01*
X30908701Y-3605276D01*
X30905602Y-3606139D01*
X30888432Y-3611930D01*
X30885434Y-3613150D01*
X30866130Y-3622243D01*
X30850586Y-3631590D01*
X30833517Y-3644392D01*
X30831027Y-3646474D01*
X30817870Y-3658971D01*
X30815686Y-3661308D01*
X30801970Y-3677665D01*
X30790134Y-3695446D01*
X30781650Y-3711448D01*
X30780278Y-3714394D01*
X30773573Y-3731209D01*
X30772557Y-3734257D01*
X30767731Y-3751732D01*
X30767020Y-3754882D01*
X30764073Y-3772763D01*
X30763718Y-3775964D01*
X30762752Y-3794099D01*
X30762752Y-3797300D01*
X30763718Y-3815435D01*
X30764073Y-3818636D01*
X30767020Y-3836517D01*
X30767731Y-3839667D01*
X30772557Y-3857142D01*
X30773573Y-3860190D01*
X30780278Y-3877005D01*
X30781650Y-3879951D01*
X30790134Y-3895953D01*
X30801970Y-3913733D01*
X30815686Y-3930091D01*
X30817870Y-3932428D01*
X30831027Y-3944924D01*
X30833517Y-3947007D01*
X30850586Y-3959809D01*
X30866130Y-3969156D01*
X30885434Y-3978249D01*
X30888432Y-3979468D01*
X30905602Y-3985260D01*
X30908701Y-3986123D01*
X30926430Y-3989984D01*
X30929580Y-3990492D01*
X30947614Y-3992473D01*
G37*
G36*
X28510585Y-3992676D02*
G01*
X28528365Y-3992676D01*
X28531616Y-3992473D01*
X28549650Y-3990492D01*
X28552800Y-3989984D01*
X28570529Y-3986123D01*
X28573628Y-3985260D01*
X28590798Y-3979468D01*
X28593796Y-3978249D01*
X28613100Y-3969156D01*
X28628644Y-3959809D01*
X28645713Y-3947007D01*
X28648202Y-3944924D01*
X28661360Y-3932428D01*
X28663544Y-3930091D01*
X28677260Y-3913733D01*
X28689096Y-3895953D01*
X28697580Y-3879951D01*
X28698952Y-3877005D01*
X28705657Y-3860190D01*
X28706673Y-3857142D01*
X28711499Y-3839667D01*
X28712210Y-3836517D01*
X28715157Y-3818636D01*
X28715512Y-3815435D01*
X28716477Y-3797300D01*
X28716477Y-3794099D01*
X28715512Y-3775964D01*
X28715157Y-3772763D01*
X28712210Y-3754882D01*
X28711499Y-3751732D01*
X28706673Y-3734257D01*
X28705657Y-3731209D01*
X28698952Y-3714394D01*
X28697580Y-3711448D01*
X28689096Y-3695446D01*
X28677260Y-3677665D01*
X28663544Y-3661308D01*
X28661360Y-3658971D01*
X28648202Y-3646474D01*
X28645713Y-3644392D01*
X28628644Y-3631590D01*
X28613100Y-3622243D01*
X28593796Y-3613150D01*
X28590798Y-3611930D01*
X28573628Y-3606139D01*
X28570529Y-3605276D01*
X28552800Y-3601415D01*
X28549650Y-3600907D01*
X28531616Y-3598926D01*
X28528365Y-3598722D01*
X28510280Y-3598722D01*
X28507029Y-3598926D01*
X28488995Y-3600907D01*
X28485846Y-3601415D01*
X28468116Y-3605276D01*
X28465018Y-3606139D01*
X28447847Y-3611930D01*
X28444850Y-3613150D01*
X28425546Y-3622243D01*
X28410001Y-3631590D01*
X28392932Y-3644392D01*
X28390443Y-3646474D01*
X28377286Y-3658971D01*
X28375102Y-3661308D01*
X28361386Y-3677665D01*
X28349549Y-3695446D01*
X28341065Y-3711448D01*
X28339694Y-3714394D01*
X28332988Y-3731209D01*
X28331972Y-3734257D01*
X28327146Y-3751732D01*
X28326435Y-3754882D01*
X28323489Y-3772763D01*
X28323133Y-3775964D01*
X28322168Y-3794099D01*
X28322168Y-3797300D01*
X28323133Y-3815435D01*
X28323489Y-3818636D01*
X28326435Y-3836517D01*
X28327146Y-3839667D01*
X28331972Y-3857142D01*
X28332988Y-3860190D01*
X28339694Y-3877005D01*
X28341065Y-3879951D01*
X28349549Y-3895953D01*
X28361386Y-3913733D01*
X28375102Y-3930091D01*
X28377286Y-3932428D01*
X28390443Y-3944924D01*
X28392932Y-3947007D01*
X28410001Y-3959809D01*
X28425546Y-3969156D01*
X28444850Y-3978249D01*
X28447847Y-3979468D01*
X28465018Y-3985260D01*
X28468116Y-3986123D01*
X28485846Y-3989984D01*
X28488995Y-3990492D01*
X28506724Y-3992422D01*
G37*

%LPD*%
D10*
G01*
X19367500Y-4381500D03*
G01*
X15074900Y-4546600D03*
G01*
X15201900Y-8458200D03*
G01*
X19329400Y-8458200D03*
G01*
X15011400Y-11366500D03*
G01*
X19977100Y-11201400D03*
G01*
X30810200Y-5219700D03*
G01*
X32689800Y-6692900D03*
G01*
X25755600Y-6413500D03*
G01*
X27889200Y-10985500D03*
G01*
X30556200Y-11391900D03*
G01*
X39446200Y-6883400D03*
G01*
X40932100Y-6896100D03*
G01*
X39585900Y-5029200D03*
G01*
X40881300Y-4991100D03*
M02*
